%TF.GenerationSoftware,KiCad,Pcbnew,(5.1.7)-1*%
%TF.CreationDate,2021-02-24T18:30:15+01:00*%
%TF.ProjectId,Temperature-controller-with-ESP8266,54656d70-6572-4617-9475-72652d636f6e,rev?*%
%TF.SameCoordinates,Original*%
%TF.FileFunction,Copper,L2,Bot*%
%TF.FilePolarity,Positive*%
%FSLAX46Y46*%
G04 Gerber Fmt 4.6, Leading zero omitted, Abs format (unit mm)*
G04 Created by KiCad (PCBNEW (5.1.7)-1) date 2021-02-24 18:30:15*
%MOMM*%
%LPD*%
G01*
G04 APERTURE LIST*
%TA.AperFunction,SMDPad,CuDef*%
%ADD10R,0.640000X2.000000*%
%TD*%
%TA.AperFunction,ComponentPad*%
%ADD11R,2.500000X2.500000*%
%TD*%
%TA.AperFunction,ComponentPad*%
%ADD12O,2.500000X2.500000*%
%TD*%
%TA.AperFunction,SMDPad,CuDef*%
%ADD13R,1.800000X2.500000*%
%TD*%
%TA.AperFunction,ComponentPad*%
%ADD14R,1.700000X1.700000*%
%TD*%
%TA.AperFunction,ComponentPad*%
%ADD15O,1.700000X1.700000*%
%TD*%
%TA.AperFunction,ComponentPad*%
%ADD16C,2.600000*%
%TD*%
%TA.AperFunction,ComponentPad*%
%ADD17R,2.600000X2.600000*%
%TD*%
%TA.AperFunction,ComponentPad*%
%ADD18C,2.300000*%
%TD*%
%TA.AperFunction,ViaPad*%
%ADD19C,0.800000*%
%TD*%
%TA.AperFunction,Conductor*%
%ADD20C,0.600000*%
%TD*%
%TA.AperFunction,Conductor*%
%ADD21C,0.800000*%
%TD*%
%TA.AperFunction,Conductor*%
%ADD22C,2.500000*%
%TD*%
G04 APERTURE END LIST*
D10*
%TO.P,U4,4*%
%TO.N,+5V*%
X161290000Y-53264000D03*
%TO.P,U4,3*%
%TO.N,Net-(Q3-Pad1)*%
X163830000Y-53264000D03*
%TO.P,U4,2*%
%TO.N,GND*%
X163830000Y-43764000D03*
%TO.P,U4,1*%
%TO.N,Net-(R13-Pad1)*%
X161290000Y-43764000D03*
%TD*%
D11*
%TO.P,RL2,1*%
%TO.N,Net-(D4-Pad2)*%
X149479000Y-54483000D03*
D12*
%TO.P,RL2,2*%
%TO.N,Net-(RL2-Pad2)*%
X134479000Y-54483000D03*
%TO.P,RL2,3*%
%TO.N,N*%
X129479000Y-54483000D03*
%TO.P,RL2,4*%
%TO.N,N_OUT*%
X124479000Y-54483000D03*
%TO.P,RL2,5*%
X124479000Y-61983000D03*
%TO.P,RL2,6*%
%TO.N,N*%
X129479000Y-61983000D03*
%TO.P,RL2,7*%
%TO.N,Net-(RL2-Pad2)*%
X134479000Y-61983000D03*
%TO.P,RL2,8*%
%TO.N,+5V*%
X149479000Y-61983000D03*
%TD*%
%TO.P,RL1,8*%
%TO.N,RELE_D*%
X155956000Y-54349000D03*
%TO.P,RL1,7*%
%TO.N,Net-(RL1-Pad2)*%
X170956000Y-54349000D03*
%TO.P,RL1,6*%
%TO.N,L*%
X175956000Y-54349000D03*
%TO.P,RL1,5*%
%TO.N,L_OUT*%
X180956000Y-54349000D03*
%TO.P,RL1,4*%
X180956000Y-61849000D03*
%TO.P,RL1,3*%
%TO.N,L*%
X175956000Y-61849000D03*
%TO.P,RL1,2*%
%TO.N,Net-(RL1-Pad2)*%
X170956000Y-61849000D03*
D11*
%TO.P,RL1,1*%
%TO.N,+5V*%
X155956000Y-61849000D03*
%TD*%
D13*
%TO.P,D3,2*%
%TO.N,RELE_D*%
X160274000Y-57944000D03*
%TO.P,D3,1*%
%TO.N,+5V*%
X160274000Y-61944000D03*
%TD*%
D14*
%TO.P,J3,1*%
%TO.N,+5V*%
X156718000Y-47879000D03*
D15*
%TO.P,J3,2*%
%TO.N,RELE_D*%
X154178000Y-47879000D03*
%TO.P,J3,3*%
%TO.N,GPIO14*%
X151638000Y-47879000D03*
%TO.P,J3,4*%
%TO.N,GND*%
X149098000Y-47879000D03*
%TD*%
D13*
%TO.P,D4,1*%
%TO.N,+5V*%
X145288000Y-61817000D03*
%TO.P,D4,2*%
%TO.N,Net-(D4-Pad2)*%
X145288000Y-57817000D03*
%TD*%
D10*
%TO.P,U3,1*%
%TO.N,Net-(R12-Pad1)*%
X141224000Y-43891000D03*
%TO.P,U3,2*%
%TO.N,GND*%
X143764000Y-43891000D03*
%TO.P,U3,3*%
%TO.N,Net-(Q4-Pad1)*%
X143764000Y-53391000D03*
%TO.P,U3,4*%
%TO.N,+5V*%
X141224000Y-53391000D03*
%TD*%
D16*
%TO.P,J7,2*%
%TO.N,N*%
X131953000Y-72136000D03*
D17*
%TO.P,J7,1*%
%TO.N,N_OUT*%
X126873000Y-72136000D03*
%TD*%
%TO.P,J8,1*%
%TO.N,L*%
X173863000Y-72136000D03*
D16*
%TO.P,J8,2*%
%TO.N,L_OUT*%
X178943000Y-72136000D03*
%TD*%
D18*
%TO.P,PS1,9*%
%TO.N,GND*%
X147654000Y-69883000D03*
%TO.P,PS1,1*%
%TO.N,N*%
X142654000Y-89883000D03*
%TO.P,PS1,5*%
%TO.N,L*%
X162654000Y-89883000D03*
%TO.P,PS1,7*%
%TO.N,+5V*%
X157654000Y-69883000D03*
%TD*%
D19*
%TO.N,GND*%
X159385000Y-45974000D03*
%TO.N,Net-(Q4-Pad1)*%
X146558000Y-49911000D03*
%TO.N,Net-(R12-Pad1)*%
X138938000Y-43688000D03*
%TO.N,Net-(Q3-Pad1)*%
X165608000Y-45212000D03*
%TO.N,Net-(R13-Pad1)*%
X159639000Y-43688000D03*
%TD*%
D20*
%TO.N,GND*%
X144515998Y-47879000D02*
X149098000Y-47879000D01*
X143764000Y-47127002D02*
X144515998Y-47879000D01*
X143764000Y-46609000D02*
X143764000Y-47127002D01*
X143764000Y-43891000D02*
X143764000Y-46609000D01*
X161620000Y-45974000D02*
X163830000Y-43764000D01*
X159385000Y-45974000D02*
X161620000Y-45974000D01*
X151003000Y-45974000D02*
X149098000Y-47879000D01*
X159385000Y-45974000D02*
X151003000Y-45974000D01*
%TO.N,+5V*%
X141224000Y-57753000D02*
X145288000Y-61817000D01*
X141224000Y-53391000D02*
X141224000Y-57753000D01*
X163449000Y-59817000D02*
X163449000Y-55423000D01*
X161322000Y-61944000D02*
X163449000Y-59817000D01*
X163449000Y-55423000D02*
X161290000Y-53264000D01*
X160274000Y-61944000D02*
X161322000Y-61944000D01*
D21*
X157654000Y-69883000D02*
X152654000Y-64883000D01*
X152654000Y-51054000D02*
X156083000Y-51054000D01*
X156718000Y-50419000D02*
X156718000Y-47879000D01*
X156083000Y-51054000D02*
X156718000Y-50419000D01*
X152280000Y-61983000D02*
X152654000Y-62357000D01*
X149479000Y-61983000D02*
X152280000Y-61983000D01*
X152654000Y-64883000D02*
X152654000Y-62357000D01*
X152781000Y-61849000D02*
X152654000Y-61976000D01*
X155956000Y-61849000D02*
X152781000Y-61849000D01*
X152654000Y-61976000D02*
X152654000Y-51054000D01*
X152654000Y-62357000D02*
X152654000Y-61976000D01*
X156051000Y-61944000D02*
X155956000Y-61849000D01*
X160274000Y-61944000D02*
X156051000Y-61944000D01*
X149313000Y-61817000D02*
X149479000Y-61983000D01*
X145288000Y-61817000D02*
X149313000Y-61817000D01*
D22*
%TO.N,L*%
X175956000Y-54349000D02*
X175956000Y-61849000D01*
X175956000Y-66360000D02*
X173863000Y-68453000D01*
X175956000Y-61849000D02*
X175956000Y-66360000D01*
X173863000Y-68453000D02*
X173863000Y-72136000D01*
X173863000Y-72136000D02*
X169291000Y-72136000D01*
X162654000Y-78773000D02*
X162654000Y-89883000D01*
X169291000Y-72136000D02*
X162654000Y-78773000D01*
D20*
%TO.N,Net-(Q4-Pad1)*%
X146558000Y-50597000D02*
X143764000Y-53391000D01*
X146558000Y-49911000D02*
X146558000Y-50597000D01*
D22*
%TO.N,N*%
X129479000Y-54483000D02*
X129479000Y-61983000D01*
X129479000Y-61983000D02*
X129479000Y-64582000D01*
X131953000Y-67056000D02*
X131953000Y-72136000D01*
X129479000Y-64582000D02*
X131953000Y-67056000D01*
X131953000Y-72136000D02*
X135255000Y-72136000D01*
X142654000Y-79535000D02*
X142654000Y-89883000D01*
X135255000Y-72136000D02*
X142654000Y-79535000D01*
D20*
%TO.N,Net-(R12-Pad1)*%
X141021000Y-43688000D02*
X141224000Y-43891000D01*
X138938000Y-43688000D02*
X141021000Y-43688000D01*
D21*
%TO.N,RELE_D*%
X159551000Y-57944000D02*
X155956000Y-54349000D01*
X160274000Y-57944000D02*
X159551000Y-57944000D01*
%TO.N,Net-(D4-Pad2)*%
X146145000Y-57817000D02*
X149479000Y-54483000D01*
X145288000Y-57817000D02*
X146145000Y-57817000D01*
D20*
%TO.N,Net-(Q3-Pad1)*%
X163830000Y-46990000D02*
X163830000Y-53264000D01*
X165608000Y-45212000D02*
X163830000Y-46990000D01*
%TO.N,Net-(R13-Pad1)*%
X159715000Y-43764000D02*
X159639000Y-43688000D01*
X161290000Y-43764000D02*
X159715000Y-43764000D01*
D22*
%TO.N,Net-(RL1-Pad2)*%
X170956000Y-54349000D02*
X170956000Y-61849000D01*
%TO.N,Net-(RL2-Pad2)*%
X134479000Y-54483000D02*
X134479000Y-61983000D01*
%TO.N,N_OUT*%
X124479000Y-54483000D02*
X124479000Y-61983000D01*
X124479000Y-69742000D02*
X126873000Y-72136000D01*
X124479000Y-61983000D02*
X124479000Y-69742000D01*
%TO.N,L_OUT*%
X180956000Y-54349000D02*
X180956000Y-61849000D01*
X180956000Y-70123000D02*
X178943000Y-72136000D01*
X180956000Y-61849000D02*
X180956000Y-70123000D01*
%TD*%
M02*
