%TF.GenerationSoftware,KiCad,Pcbnew,(5.1.7)-1*%
%TF.CreationDate,2021-02-24T18:30:15+01:00*%
%TF.ProjectId,Temperature-controller-with-ESP8266,54656d70-6572-4617-9475-72652d636f6e,rev?*%
%TF.SameCoordinates,Original*%
%TF.FileFunction,Profile,NP*%
%FSLAX46Y46*%
G04 Gerber Fmt 4.6, Leading zero omitted, Abs format (unit mm)*
G04 Created by KiCad (PCBNEW (5.1.7)-1) date 2021-02-24 18:30:15*
%MOMM*%
%LPD*%
G01*
G04 APERTURE LIST*
%TA.AperFunction,Profile*%
%ADD10C,0.050000*%
%TD*%
G04 APERTURE END LIST*
D10*
X122174000Y-91059000D02*
X122174000Y-46101000D01*
X137668000Y-65913000D02*
X145161000Y-75819000D01*
X160147000Y-75819000D02*
X167386000Y-65913000D01*
X138938000Y-64516000D02*
X146431000Y-74422000D01*
X158877000Y-74422000D02*
X166116000Y-64389000D01*
X137668000Y-49403000D02*
G75*
G02*
X138938000Y-49403000I635000J0D01*
G01*
X138938000Y-64516000D02*
X138938000Y-49403000D01*
X137668000Y-65913000D02*
X137668000Y-49403000D01*
X166116000Y-49276000D02*
G75*
G02*
X167386000Y-49276000I635000J0D01*
G01*
X167386000Y-65913000D02*
X167386000Y-49276000D01*
X166116000Y-64389000D02*
X166116000Y-49276000D01*
X145161000Y-75819000D02*
X160147000Y-75819000D01*
X146431000Y-74422000D02*
X158877000Y-74422000D01*
X179959000Y-94107000D02*
X180213000Y-94107000D01*
X125222000Y-94107000D02*
X179959000Y-94107000D01*
X180213000Y-41783000D02*
G75*
G02*
X183261000Y-44831000I0J-3048000D01*
G01*
X122174000Y-44831000D02*
G75*
G02*
X125222000Y-41783000I3048000J0D01*
G01*
X180213000Y-41783000D02*
X125222000Y-41783000D01*
X125222000Y-94107000D02*
G75*
G02*
X122174000Y-91059000I0J3048000D01*
G01*
X122174000Y-44831000D02*
X122174000Y-46101000D01*
X183261000Y-91059000D02*
X183261000Y-44831000D01*
X183261000Y-91059000D02*
G75*
G02*
X180213000Y-94107000I-3048000J0D01*
G01*
M02*
