%TF.GenerationSoftware,KiCad,Pcbnew,(5.1.7)-1*%
%TF.CreationDate,2021-02-24T18:30:15+01:00*%
%TF.ProjectId,Temperature-controller-with-ESP8266,54656d70-6572-4617-9475-72652d636f6e,rev?*%
%TF.SameCoordinates,Original*%
%TF.FileFunction,Soldermask,Top*%
%TF.FilePolarity,Negative*%
%FSLAX46Y46*%
G04 Gerber Fmt 4.6, Leading zero omitted, Abs format (unit mm)*
G04 Created by KiCad (PCBNEW (5.1.7)-1) date 2021-02-24 18:30:15*
%MOMM*%
%LPD*%
G01*
G04 APERTURE LIST*
%ADD10R,2.500000X2.500000*%
%ADD11O,2.500000X2.500000*%
%ADD12R,0.800000X0.900000*%
%ADD13R,1.700000X1.700000*%
%ADD14O,1.700000X1.700000*%
%ADD15C,3.200000*%
%ADD16R,0.900000X0.800000*%
%ADD17C,2.600000*%
%ADD18R,2.600000X2.600000*%
%ADD19C,2.300000*%
G04 APERTURE END LIST*
D10*
%TO.C,RL2*%
X149479000Y-54483000D03*
D11*
X134479000Y-54483000D03*
X129479000Y-54483000D03*
X124479000Y-54483000D03*
X124479000Y-61983000D03*
X129479000Y-61983000D03*
X134479000Y-61983000D03*
X149479000Y-61983000D03*
%TD*%
%TO.C,R13*%
G36*
G01*
X156445000Y-43237998D02*
X156445000Y-44138002D01*
G75*
G02*
X156195002Y-44388000I-249998J0D01*
G01*
X155669998Y-44388000D01*
G75*
G02*
X155420000Y-44138002I0J249998D01*
G01*
X155420000Y-43237998D01*
G75*
G02*
X155669998Y-42988000I249998J0D01*
G01*
X156195002Y-42988000D01*
G75*
G02*
X156445000Y-43237998I0J-249998D01*
G01*
G37*
G36*
G01*
X158270000Y-43237998D02*
X158270000Y-44138002D01*
G75*
G02*
X158020002Y-44388000I-249998J0D01*
G01*
X157494998Y-44388000D01*
G75*
G02*
X157245000Y-44138002I0J249998D01*
G01*
X157245000Y-43237998D01*
G75*
G02*
X157494998Y-42988000I249998J0D01*
G01*
X158020002Y-42988000D01*
G75*
G02*
X158270000Y-43237998I0J-249998D01*
G01*
G37*
%TD*%
%TO.C,RL1*%
X155956000Y-54349000D03*
X170956000Y-54349000D03*
X175956000Y-54349000D03*
X180956000Y-54349000D03*
X180956000Y-61849000D03*
X175956000Y-61849000D03*
X170956000Y-61849000D03*
D10*
X155956000Y-61849000D03*
%TD*%
D12*
%TO.C,Q3*%
X162433000Y-45450000D03*
X161483000Y-43450000D03*
X163383000Y-43450000D03*
%TD*%
D13*
%TO.C,J3*%
X156718000Y-47879000D03*
D14*
X154178000Y-47879000D03*
X151638000Y-47879000D03*
X149098000Y-47879000D03*
%TD*%
D15*
%TO.C,H5*%
X133223000Y-45593000D03*
%TD*%
%TO.C,H6*%
X172212000Y-45593000D03*
%TD*%
%TO.C,H7*%
X133223000Y-87122000D03*
%TD*%
%TO.C,H8*%
X172212000Y-87122000D03*
%TD*%
D16*
%TO.C,Q4*%
X143367000Y-46416000D03*
X143367000Y-44516000D03*
X141367000Y-45466000D03*
%TD*%
%TO.C,R12*%
G36*
G01*
X147673000Y-44138002D02*
X147673000Y-43237998D01*
G75*
G02*
X147922998Y-42988000I249998J0D01*
G01*
X148448002Y-42988000D01*
G75*
G02*
X148698000Y-43237998I0J-249998D01*
G01*
X148698000Y-44138002D01*
G75*
G02*
X148448002Y-44388000I-249998J0D01*
G01*
X147922998Y-44388000D01*
G75*
G02*
X147673000Y-44138002I0J249998D01*
G01*
G37*
G36*
G01*
X149498000Y-44138002D02*
X149498000Y-43237998D01*
G75*
G02*
X149747998Y-42988000I249998J0D01*
G01*
X150273002Y-42988000D01*
G75*
G02*
X150523000Y-43237998I0J-249998D01*
G01*
X150523000Y-44138002D01*
G75*
G02*
X150273002Y-44388000I-249998J0D01*
G01*
X149747998Y-44388000D01*
G75*
G02*
X149498000Y-44138002I0J249998D01*
G01*
G37*
%TD*%
D17*
%TO.C,J7*%
X131953000Y-72136000D03*
D18*
X126873000Y-72136000D03*
%TD*%
%TO.C,J8*%
X173863000Y-72136000D03*
D17*
X178943000Y-72136000D03*
%TD*%
D19*
%TO.C,PS1*%
X147654000Y-69883000D03*
X142654000Y-89883000D03*
X162654000Y-89883000D03*
X157654000Y-69883000D03*
%TD*%
M02*
