M48
; DRILL file {KiCad (5.1.7)-1} date 02/24/21 18:30:17
; FORMAT={-:-/ absolute / inch / decimal}
; #@! TF.CreationDate,2021-02-24T18:30:17+01:00
; #@! TF.GenerationSoftware,Kicad,Pcbnew,(5.1.7)-1
FMAT,2
INCH
T1C0.0157
T2C0.0394
T3C0.0512
T4C0.0591
T5C0.1260
%
G90
G05
T1
X5.47Y-1.72
X5.77Y-1.965
X6.275Y-1.81
X6.285Y-1.72
X6.52Y-1.78
T2
X5.87Y-1.885
X5.97Y-1.885
X6.07Y-1.885
X6.17Y-1.885
X5.6163Y-3.5387
X5.8131Y-2.7513
X6.2069Y-2.7513
X6.4037Y-3.5387
T3
X6.845Y-2.84
X7.045Y-2.84
X4.995Y-2.84
X5.195Y-2.84
T4
X6.14Y-2.1397
X6.14Y-2.435
X6.7306Y-2.1397
X6.7306Y-2.435
X6.9274Y-2.1397
X6.9274Y-2.435
X7.1243Y-2.1397
X7.1243Y-2.435
X4.9007Y-2.145
X4.9007Y-2.4403
X5.0976Y-2.145
X5.0976Y-2.4403
X5.2944Y-2.145
X5.2944Y-2.4403
X5.885Y-2.145
X5.885Y-2.4403
T5
X6.78Y-1.795
X5.245Y-3.43
X6.78Y-3.43
X5.245Y-1.795
T0
M30
