%TF.GenerationSoftware,KiCad,Pcbnew,(5.1.7)-1*%
%TF.CreationDate,2021-02-24T18:30:15+01:00*%
%TF.ProjectId,Temperature-controller-with-ESP8266,54656d70-6572-4617-9475-72652d636f6e,rev?*%
%TF.SameCoordinates,Original*%
%TF.FileFunction,Copper,L1,Top*%
%TF.FilePolarity,Positive*%
%FSLAX46Y46*%
G04 Gerber Fmt 4.6, Leading zero omitted, Abs format (unit mm)*
G04 Created by KiCad (PCBNEW (5.1.7)-1) date 2021-02-24 18:30:15*
%MOMM*%
%LPD*%
G01*
G04 APERTURE LIST*
%TA.AperFunction,ComponentPad*%
%ADD10R,2.500000X2.500000*%
%TD*%
%TA.AperFunction,ComponentPad*%
%ADD11O,2.500000X2.500000*%
%TD*%
%TA.AperFunction,SMDPad,CuDef*%
%ADD12R,0.800000X0.900000*%
%TD*%
%TA.AperFunction,ComponentPad*%
%ADD13R,1.700000X1.700000*%
%TD*%
%TA.AperFunction,ComponentPad*%
%ADD14O,1.700000X1.700000*%
%TD*%
%TA.AperFunction,SMDPad,CuDef*%
%ADD15R,0.900000X0.800000*%
%TD*%
%TA.AperFunction,ComponentPad*%
%ADD16C,2.600000*%
%TD*%
%TA.AperFunction,ComponentPad*%
%ADD17R,2.600000X2.600000*%
%TD*%
%TA.AperFunction,ComponentPad*%
%ADD18C,2.300000*%
%TD*%
%TA.AperFunction,ViaPad*%
%ADD19C,0.800000*%
%TD*%
%TA.AperFunction,Conductor*%
%ADD20C,0.800000*%
%TD*%
%TA.AperFunction,Conductor*%
%ADD21C,0.600000*%
%TD*%
G04 APERTURE END LIST*
D10*
%TO.P,RL2,1*%
%TO.N,Net-(D4-Pad2)*%
X149479000Y-54483000D03*
D11*
%TO.P,RL2,2*%
%TO.N,Net-(RL2-Pad2)*%
X134479000Y-54483000D03*
%TO.P,RL2,3*%
%TO.N,N*%
X129479000Y-54483000D03*
%TO.P,RL2,4*%
%TO.N,N_OUT*%
X124479000Y-54483000D03*
%TO.P,RL2,5*%
X124479000Y-61983000D03*
%TO.P,RL2,6*%
%TO.N,N*%
X129479000Y-61983000D03*
%TO.P,RL2,7*%
%TO.N,Net-(RL2-Pad2)*%
X134479000Y-61983000D03*
%TO.P,RL2,8*%
%TO.N,+5V*%
X149479000Y-61983000D03*
%TD*%
%TO.P,R13,2*%
%TO.N,GPIO14*%
%TA.AperFunction,SMDPad,CuDef*%
G36*
G01*
X156445000Y-43237998D02*
X156445000Y-44138002D01*
G75*
G02*
X156195002Y-44388000I-249998J0D01*
G01*
X155669998Y-44388000D01*
G75*
G02*
X155420000Y-44138002I0J249998D01*
G01*
X155420000Y-43237998D01*
G75*
G02*
X155669998Y-42988000I249998J0D01*
G01*
X156195002Y-42988000D01*
G75*
G02*
X156445000Y-43237998I0J-249998D01*
G01*
G37*
%TD.AperFunction*%
%TO.P,R13,1*%
%TO.N,Net-(R13-Pad1)*%
%TA.AperFunction,SMDPad,CuDef*%
G36*
G01*
X158270000Y-43237998D02*
X158270000Y-44138002D01*
G75*
G02*
X158020002Y-44388000I-249998J0D01*
G01*
X157494998Y-44388000D01*
G75*
G02*
X157245000Y-44138002I0J249998D01*
G01*
X157245000Y-43237998D01*
G75*
G02*
X157494998Y-42988000I249998J0D01*
G01*
X158020002Y-42988000D01*
G75*
G02*
X158270000Y-43237998I0J-249998D01*
G01*
G37*
%TD.AperFunction*%
%TD*%
%TO.P,RL1,8*%
%TO.N,RELE_D*%
X155956000Y-54349000D03*
%TO.P,RL1,7*%
%TO.N,Net-(RL1-Pad2)*%
X170956000Y-54349000D03*
%TO.P,RL1,6*%
%TO.N,L*%
X175956000Y-54349000D03*
%TO.P,RL1,5*%
%TO.N,L_OUT*%
X180956000Y-54349000D03*
%TO.P,RL1,4*%
X180956000Y-61849000D03*
%TO.P,RL1,3*%
%TO.N,L*%
X175956000Y-61849000D03*
%TO.P,RL1,2*%
%TO.N,Net-(RL1-Pad2)*%
X170956000Y-61849000D03*
D10*
%TO.P,RL1,1*%
%TO.N,+5V*%
X155956000Y-61849000D03*
%TD*%
D12*
%TO.P,Q3,3*%
%TO.N,RELE_D*%
X162433000Y-45450000D03*
%TO.P,Q3,2*%
%TO.N,GND*%
X161483000Y-43450000D03*
%TO.P,Q3,1*%
%TO.N,Net-(Q3-Pad1)*%
X163383000Y-43450000D03*
%TD*%
D13*
%TO.P,J3,1*%
%TO.N,+5V*%
X156718000Y-47879000D03*
D14*
%TO.P,J3,2*%
%TO.N,RELE_D*%
X154178000Y-47879000D03*
%TO.P,J3,3*%
%TO.N,GPIO14*%
X151638000Y-47879000D03*
%TO.P,J3,4*%
%TO.N,GND*%
X149098000Y-47879000D03*
%TD*%
D15*
%TO.P,Q4,1*%
%TO.N,Net-(Q4-Pad1)*%
X143367000Y-46416000D03*
%TO.P,Q4,2*%
%TO.N,GND*%
X143367000Y-44516000D03*
%TO.P,Q4,3*%
%TO.N,Net-(D4-Pad2)*%
X141367000Y-45466000D03*
%TD*%
%TO.P,R12,1*%
%TO.N,Net-(R12-Pad1)*%
%TA.AperFunction,SMDPad,CuDef*%
G36*
G01*
X147673000Y-44138002D02*
X147673000Y-43237998D01*
G75*
G02*
X147922998Y-42988000I249998J0D01*
G01*
X148448002Y-42988000D01*
G75*
G02*
X148698000Y-43237998I0J-249998D01*
G01*
X148698000Y-44138002D01*
G75*
G02*
X148448002Y-44388000I-249998J0D01*
G01*
X147922998Y-44388000D01*
G75*
G02*
X147673000Y-44138002I0J249998D01*
G01*
G37*
%TD.AperFunction*%
%TO.P,R12,2*%
%TO.N,GPIO14*%
%TA.AperFunction,SMDPad,CuDef*%
G36*
G01*
X149498000Y-44138002D02*
X149498000Y-43237998D01*
G75*
G02*
X149747998Y-42988000I249998J0D01*
G01*
X150273002Y-42988000D01*
G75*
G02*
X150523000Y-43237998I0J-249998D01*
G01*
X150523000Y-44138002D01*
G75*
G02*
X150273002Y-44388000I-249998J0D01*
G01*
X149747998Y-44388000D01*
G75*
G02*
X149498000Y-44138002I0J249998D01*
G01*
G37*
%TD.AperFunction*%
%TD*%
D16*
%TO.P,J7,2*%
%TO.N,N*%
X131953000Y-72136000D03*
D17*
%TO.P,J7,1*%
%TO.N,N_OUT*%
X126873000Y-72136000D03*
%TD*%
%TO.P,J8,1*%
%TO.N,L*%
X173863000Y-72136000D03*
D16*
%TO.P,J8,2*%
%TO.N,L_OUT*%
X178943000Y-72136000D03*
%TD*%
D18*
%TO.P,PS1,9*%
%TO.N,GND*%
X147654000Y-69883000D03*
%TO.P,PS1,1*%
%TO.N,N*%
X142654000Y-89883000D03*
%TO.P,PS1,5*%
%TO.N,L*%
X162654000Y-89883000D03*
%TO.P,PS1,7*%
%TO.N,+5V*%
X157654000Y-69883000D03*
%TD*%
D19*
%TO.N,GND*%
X159385000Y-45974000D03*
%TO.N,Net-(Q4-Pad1)*%
X146558000Y-49911000D03*
%TO.N,Net-(R12-Pad1)*%
X138938000Y-43688000D03*
%TO.N,Net-(Q3-Pad1)*%
X165608000Y-45212000D03*
%TO.N,Net-(R13-Pad1)*%
X159639000Y-43688000D03*
%TD*%
D20*
%TO.N,GND*%
X147654000Y-69883000D02*
X152654000Y-64883000D01*
X152654000Y-64883000D02*
X152654000Y-50927000D01*
X152654000Y-50927000D02*
X149860000Y-50927000D01*
X149098000Y-50165000D02*
X149098000Y-47879000D01*
X149860000Y-50927000D02*
X149098000Y-50165000D01*
D21*
X145735000Y-44516000D02*
X149098000Y-47879000D01*
X143367000Y-44516000D02*
X145735000Y-44516000D01*
X161483000Y-43876000D02*
X159385000Y-45974000D01*
X161483000Y-43450000D02*
X161483000Y-43876000D01*
%TO.N,Net-(Q4-Pad1)*%
X143367000Y-46720000D02*
X146558000Y-49911000D01*
X143367000Y-46416000D02*
X143367000Y-46720000D01*
%TO.N,GPIO14*%
X151638000Y-45315500D02*
X150010500Y-43688000D01*
X151638000Y-47879000D02*
X151638000Y-45315500D01*
X151638000Y-47879000D02*
X151638000Y-45593000D01*
X153543000Y-43688000D02*
X155932500Y-43688000D01*
X151638000Y-45593000D02*
X153543000Y-43688000D01*
%TO.N,Net-(R12-Pad1)*%
X139010001Y-43615999D02*
X138938000Y-43688000D01*
X148113499Y-43615999D02*
X139010001Y-43615999D01*
X148185500Y-43688000D02*
X148113499Y-43615999D01*
%TO.N,RELE_D*%
X154178000Y-52571000D02*
X155956000Y-54349000D01*
X154178000Y-47879000D02*
X154178000Y-52571000D01*
X155956000Y-51927000D02*
X162433000Y-45450000D01*
X155956000Y-54349000D02*
X155956000Y-51927000D01*
%TO.N,Net-(D4-Pad2)*%
X149384000Y-54483000D02*
X149479000Y-54483000D01*
X141367000Y-46466000D02*
X149384000Y-54483000D01*
X141367000Y-45466000D02*
X141367000Y-46466000D01*
%TO.N,Net-(Q3-Pad1)*%
X163383000Y-43450000D02*
X163846000Y-43450000D01*
X163846000Y-43450000D02*
X165608000Y-45212000D01*
%TO.N,Net-(R13-Pad1)*%
X159639000Y-43688000D02*
X157757500Y-43688000D01*
%TD*%
M02*
