M48
; DRILL file {KiCad (5.1.7)-1} date 02/24/21 18:36:56
; FORMAT={-:-/ absolute / inch / decimal}
; #@! TF.CreationDate,2021-02-24T18:36:56+01:00
; #@! TF.GenerationSoftware,Kicad,Pcbnew,(5.1.7)-1
FMAT,2
INCH
T1C0.0157
T2C0.0197
T3C0.0217
T4C0.0394
%
G90
G05
T1
X5.065Y-3.62
X5.115Y-3.31
X5.165Y-3.12
X5.295Y-3.335
X5.31Y-3.135
X5.495Y-3.125
T4
X4.97Y-2.895
X5.07Y-2.895
X5.17Y-2.895
X5.27Y-2.895
X5.37Y-2.895
X5.47Y-2.895
X5.57Y-2.895
T2
G00X5.1572Y-3.7234
M15
G01X5.1572Y-3.749
M16
G05
G00X5.4328Y-3.7234
M15
G01X5.4328Y-3.749
M16
G05
T3
G00X5.1907Y-3.6299
M15
G01X5.2025Y-3.6299
M16
G05
G00X5.3875Y-3.6299
M15
G01X5.3993Y-3.6299
M16
G05
T0
M30
