%TF.GenerationSoftware,KiCad,Pcbnew,(5.1.7)-1*%
%TF.CreationDate,2021-02-24T18:36:54+01:00*%
%TF.ProjectId,Temperature-controller-with-ESP8266,54656d70-6572-4617-9475-72652d636f6e,rev?*%
%TF.SameCoordinates,Original*%
%TF.FileFunction,Legend,Top*%
%TF.FilePolarity,Positive*%
%FSLAX46Y46*%
G04 Gerber Fmt 4.6, Leading zero omitted, Abs format (unit mm)*
G04 Created by KiCad (PCBNEW (5.1.7)-1) date 2021-02-24 18:36:54*
%MOMM*%
%LPD*%
G01*
G04 APERTURE LIST*
%ADD10C,0.150000*%
%ADD11C,0.120000*%
G04 APERTURE END LIST*
D10*
X140676380Y-95741285D02*
X141485904Y-95741285D01*
X141581142Y-95693666D01*
X141628761Y-95646047D01*
X141676380Y-95550809D01*
X141676380Y-95360333D01*
X141628761Y-95265095D01*
X141581142Y-95217476D01*
X141485904Y-95169857D01*
X140676380Y-95169857D01*
X141628761Y-94741285D02*
X141676380Y-94598428D01*
X141676380Y-94360333D01*
X141628761Y-94265095D01*
X141581142Y-94217476D01*
X141485904Y-94169857D01*
X141390666Y-94169857D01*
X141295428Y-94217476D01*
X141247809Y-94265095D01*
X141200190Y-94360333D01*
X141152571Y-94550809D01*
X141104952Y-94646047D01*
X141057333Y-94693666D01*
X140962095Y-94741285D01*
X140866857Y-94741285D01*
X140771619Y-94693666D01*
X140724000Y-94646047D01*
X140676380Y-94550809D01*
X140676380Y-94312714D01*
X140724000Y-94169857D01*
X141152571Y-93407952D02*
X141200190Y-93265095D01*
X141247809Y-93217476D01*
X141343047Y-93169857D01*
X141485904Y-93169857D01*
X141581142Y-93217476D01*
X141628761Y-93265095D01*
X141676380Y-93360333D01*
X141676380Y-93741285D01*
X140676380Y-93741285D01*
X140676380Y-93407952D01*
X140724000Y-93312714D01*
X140771619Y-93265095D01*
X140866857Y-93217476D01*
X140962095Y-93217476D01*
X141057333Y-93265095D01*
X141104952Y-93312714D01*
X141152571Y-93407952D01*
X141152571Y-93741285D01*
X140676380Y-92122238D02*
X140676380Y-91550809D01*
X141676380Y-91836523D02*
X140676380Y-91836523D01*
X140676380Y-91027000D02*
X140676380Y-90836523D01*
X140724000Y-90741285D01*
X140819238Y-90646047D01*
X141009714Y-90598428D01*
X141343047Y-90598428D01*
X141533523Y-90646047D01*
X141628761Y-90741285D01*
X141676380Y-90836523D01*
X141676380Y-91027000D01*
X141628761Y-91122238D01*
X141533523Y-91217476D01*
X141343047Y-91265095D01*
X141009714Y-91265095D01*
X140819238Y-91217476D01*
X140724000Y-91122238D01*
X140676380Y-91027000D01*
X140676380Y-89407952D02*
X141485904Y-89407952D01*
X141581142Y-89360333D01*
X141628761Y-89312714D01*
X141676380Y-89217476D01*
X141676380Y-89027000D01*
X141628761Y-88931761D01*
X141581142Y-88884142D01*
X141485904Y-88836523D01*
X140676380Y-88836523D01*
X141390666Y-88407952D02*
X141390666Y-87931761D01*
X141676380Y-88503190D02*
X140676380Y-88169857D01*
X141676380Y-87836523D01*
X141676380Y-86931761D02*
X141200190Y-87265095D01*
X141676380Y-87503190D02*
X140676380Y-87503190D01*
X140676380Y-87122238D01*
X140724000Y-87027000D01*
X140771619Y-86979380D01*
X140866857Y-86931761D01*
X141009714Y-86931761D01*
X141104952Y-86979380D01*
X141152571Y-87027000D01*
X141200190Y-87122238D01*
X141200190Y-87503190D01*
X140676380Y-86646047D02*
X140676380Y-86074619D01*
X141676380Y-86360333D02*
X140676380Y-86360333D01*
X141009714Y-85074619D02*
X141676380Y-84836523D01*
X141009714Y-84598428D01*
X141676380Y-83693666D02*
X141676380Y-84265095D01*
X141676380Y-83979380D02*
X140676380Y-83979380D01*
X140819238Y-84074619D01*
X140914476Y-84169857D01*
X140962095Y-84265095D01*
X141581142Y-83265095D02*
X141628761Y-83217476D01*
X141676380Y-83265095D01*
X141628761Y-83312714D01*
X141581142Y-83265095D01*
X141676380Y-83265095D01*
X140676380Y-82598428D02*
X140676380Y-82503190D01*
X140724000Y-82407952D01*
X140771619Y-82360333D01*
X140866857Y-82312714D01*
X141057333Y-82265095D01*
X141295428Y-82265095D01*
X141485904Y-82312714D01*
X141581142Y-82360333D01*
X141628761Y-82407952D01*
X141676380Y-82503190D01*
X141676380Y-82598428D01*
X141628761Y-82693666D01*
X141581142Y-82741285D01*
X141485904Y-82788904D01*
X141295428Y-82836523D01*
X141057333Y-82836523D01*
X140866857Y-82788904D01*
X140771619Y-82741285D01*
X140724000Y-82693666D01*
X140676380Y-82598428D01*
D11*
X134217210Y-80899000D02*
G75*
G03*
X134217210Y-80899000I-359210J0D01*
G01*
D10*
X138199904Y-72080380D02*
X138199904Y-71080380D01*
X138580857Y-71080380D01*
X138676095Y-71128000D01*
X138723714Y-71175619D01*
X138771333Y-71270857D01*
X138771333Y-71413714D01*
X138723714Y-71508952D01*
X138676095Y-71556571D01*
X138580857Y-71604190D01*
X138199904Y-71604190D01*
X139390380Y-71080380D02*
X139485619Y-71080380D01*
X139580857Y-71128000D01*
X139628476Y-71175619D01*
X139676095Y-71270857D01*
X139723714Y-71461333D01*
X139723714Y-71699428D01*
X139676095Y-71889904D01*
X139628476Y-71985142D01*
X139580857Y-72032761D01*
X139485619Y-72080380D01*
X139390380Y-72080380D01*
X139295142Y-72032761D01*
X139247523Y-71985142D01*
X139199904Y-71889904D01*
X139152285Y-71699428D01*
X139152285Y-71461333D01*
X139199904Y-71270857D01*
X139247523Y-71175619D01*
X139295142Y-71128000D01*
X139390380Y-71080380D01*
X135850380Y-72080380D02*
X135517047Y-71604190D01*
X135278952Y-72080380D02*
X135278952Y-71080380D01*
X135659904Y-71080380D01*
X135755142Y-71128000D01*
X135802761Y-71175619D01*
X135850380Y-71270857D01*
X135850380Y-71413714D01*
X135802761Y-71508952D01*
X135755142Y-71556571D01*
X135659904Y-71604190D01*
X135278952Y-71604190D01*
X136231333Y-72032761D02*
X136374190Y-72080380D01*
X136612285Y-72080380D01*
X136707523Y-72032761D01*
X136755142Y-71985142D01*
X136802761Y-71889904D01*
X136802761Y-71794666D01*
X136755142Y-71699428D01*
X136707523Y-71651809D01*
X136612285Y-71604190D01*
X136421809Y-71556571D01*
X136326571Y-71508952D01*
X136278952Y-71461333D01*
X136231333Y-71366095D01*
X136231333Y-71270857D01*
X136278952Y-71175619D01*
X136326571Y-71128000D01*
X136421809Y-71080380D01*
X136659904Y-71080380D01*
X136802761Y-71128000D01*
X137088476Y-71080380D02*
X137659904Y-71080380D01*
X137374190Y-72080380D02*
X137374190Y-71080380D01*
X133096095Y-71080380D02*
X133667523Y-71080380D01*
X133381809Y-72080380D02*
X133381809Y-71080380D01*
X133905619Y-71080380D02*
X134572285Y-72080380D01*
X134572285Y-71080380D02*
X133905619Y-72080380D01*
X131278333Y-72080380D02*
X130945000Y-71604190D01*
X130706904Y-72080380D02*
X130706904Y-71080380D01*
X131087857Y-71080380D01*
X131183095Y-71128000D01*
X131230714Y-71175619D01*
X131278333Y-71270857D01*
X131278333Y-71413714D01*
X131230714Y-71508952D01*
X131183095Y-71556571D01*
X131087857Y-71604190D01*
X130706904Y-71604190D01*
X131611666Y-71080380D02*
X132278333Y-72080380D01*
X132278333Y-71080380D02*
X131611666Y-72080380D01*
X127539904Y-71080380D02*
X128158952Y-71080380D01*
X127825619Y-71461333D01*
X127968476Y-71461333D01*
X128063714Y-71508952D01*
X128111333Y-71556571D01*
X128158952Y-71651809D01*
X128158952Y-71889904D01*
X128111333Y-71985142D01*
X128063714Y-72032761D01*
X127968476Y-72080380D01*
X127682761Y-72080380D01*
X127587523Y-72032761D01*
X127539904Y-71985142D01*
X128444666Y-71080380D02*
X128778000Y-72080380D01*
X129111333Y-71080380D01*
X129349428Y-71080380D02*
X129968476Y-71080380D01*
X129635142Y-71461333D01*
X129778000Y-71461333D01*
X129873238Y-71508952D01*
X129920857Y-71556571D01*
X129968476Y-71651809D01*
X129968476Y-71889904D01*
X129920857Y-71985142D01*
X129873238Y-72032761D01*
X129778000Y-72080380D01*
X129492285Y-72080380D01*
X129397047Y-72032761D01*
X129349428Y-71985142D01*
X125793523Y-71080380D02*
X125317333Y-71080380D01*
X125269714Y-71556571D01*
X125317333Y-71508952D01*
X125412571Y-71461333D01*
X125650666Y-71461333D01*
X125745904Y-71508952D01*
X125793523Y-71556571D01*
X125841142Y-71651809D01*
X125841142Y-71889904D01*
X125793523Y-71985142D01*
X125745904Y-72032761D01*
X125650666Y-72080380D01*
X125412571Y-72080380D01*
X125317333Y-72032761D01*
X125269714Y-71985142D01*
X126126857Y-71080380D02*
X126460190Y-72080380D01*
X126793523Y-71080380D01*
X140716095Y-71128000D02*
X140620857Y-71080380D01*
X140478000Y-71080380D01*
X140335142Y-71128000D01*
X140239904Y-71223238D01*
X140192285Y-71318476D01*
X140144666Y-71508952D01*
X140144666Y-71651809D01*
X140192285Y-71842285D01*
X140239904Y-71937523D01*
X140335142Y-72032761D01*
X140478000Y-72080380D01*
X140573238Y-72080380D01*
X140716095Y-72032761D01*
X140763714Y-71985142D01*
X140763714Y-71651809D01*
X140573238Y-71651809D01*
X141192285Y-72080380D02*
X141192285Y-71080380D01*
X141763714Y-72080380D01*
X141763714Y-71080380D01*
X142239904Y-72080380D02*
X142239904Y-71080380D01*
X142478000Y-71080380D01*
X142620857Y-71128000D01*
X142716095Y-71223238D01*
X142763714Y-71318476D01*
X142811333Y-71508952D01*
X142811333Y-71651809D01*
X142763714Y-71842285D01*
X142716095Y-71937523D01*
X142620857Y-72032761D01*
X142478000Y-72080380D01*
X142239904Y-72080380D01*
D11*
%TO.C,C5*%
X127769252Y-88038000D02*
X127246748Y-88038000D01*
X127769252Y-89508000D02*
X127246748Y-89508000D01*
%TO.C,C6*%
X127312748Y-81053000D02*
X127835252Y-81053000D01*
X127312748Y-82523000D02*
X127835252Y-82523000D01*
%TO.C,J11*%
X132733000Y-91709000D02*
X132733000Y-91259000D01*
X133183000Y-91259000D02*
X132733000Y-91259000D01*
X130733000Y-91939000D02*
X131153000Y-91939000D01*
X130733000Y-93919000D02*
X130733000Y-91939000D01*
X130733000Y-96289000D02*
X130733000Y-95889000D01*
X138253000Y-95889000D02*
X138253000Y-96289000D01*
X138253000Y-91939000D02*
X137833000Y-91939000D01*
X138253000Y-93919000D02*
X138253000Y-91939000D01*
%TO.C,Q5*%
X132336000Y-75382000D02*
X133796000Y-75382000D01*
X132336000Y-78542000D02*
X134496000Y-78542000D01*
X132336000Y-78542000D02*
X132336000Y-77612000D01*
X132336000Y-75382000D02*
X132336000Y-76312000D01*
%TO.C,Q6*%
X141222000Y-78542000D02*
X141222000Y-77612000D01*
X141222000Y-75382000D02*
X141222000Y-76312000D01*
X141222000Y-75382000D02*
X139062000Y-75382000D01*
X141222000Y-78542000D02*
X139762000Y-78542000D01*
%TO.C,R18*%
X127481000Y-76734936D02*
X127481000Y-77189064D01*
X126011000Y-76734936D02*
X126011000Y-77189064D01*
%TO.C,R19*%
X130275000Y-77189064D02*
X130275000Y-76734936D01*
X128805000Y-77189064D02*
X128805000Y-76734936D01*
%TO.C,R20*%
X136551936Y-77243000D02*
X137006064Y-77243000D01*
X136551936Y-78713000D02*
X137006064Y-78713000D01*
%TO.C,R21*%
X137006064Y-75211000D02*
X136551936Y-75211000D01*
X137006064Y-76681000D02*
X136551936Y-76681000D01*
%TO.C,U7*%
X134366000Y-90150000D02*
X136316000Y-90150000D01*
X134366000Y-90150000D02*
X132416000Y-90150000D01*
X134366000Y-80030000D02*
X136316000Y-80030000D01*
X134366000Y-80030000D02*
X130916000Y-80030000D01*
%TO.C,Y2*%
X125758000Y-87317000D02*
X129258000Y-87317000D01*
X129258000Y-87317000D02*
X129258000Y-83117000D01*
%TO.C,J12*%
X140208000Y-72203000D02*
X140208000Y-74863000D01*
X140208000Y-72203000D02*
X124908000Y-72203000D01*
X124908000Y-72203000D02*
X124908000Y-74863000D01*
X140208000Y-74863000D02*
X124908000Y-74863000D01*
X142808000Y-74863000D02*
X141478000Y-74863000D01*
X142808000Y-73533000D02*
X142808000Y-74863000D01*
%TD*%
%TO.C,C5*%
D10*
X125579142Y-88939666D02*
X125626761Y-88987285D01*
X125674380Y-89130142D01*
X125674380Y-89225380D01*
X125626761Y-89368238D01*
X125531523Y-89463476D01*
X125436285Y-89511095D01*
X125245809Y-89558714D01*
X125102952Y-89558714D01*
X124912476Y-89511095D01*
X124817238Y-89463476D01*
X124722000Y-89368238D01*
X124674380Y-89225380D01*
X124674380Y-89130142D01*
X124722000Y-88987285D01*
X124769619Y-88939666D01*
X124674380Y-88034904D02*
X124674380Y-88511095D01*
X125150571Y-88558714D01*
X125102952Y-88511095D01*
X125055333Y-88415857D01*
X125055333Y-88177761D01*
X125102952Y-88082523D01*
X125150571Y-88034904D01*
X125245809Y-87987285D01*
X125483904Y-87987285D01*
X125579142Y-88034904D01*
X125626761Y-88082523D01*
X125674380Y-88177761D01*
X125674380Y-88415857D01*
X125626761Y-88511095D01*
X125579142Y-88558714D01*
%TO.C,C6*%
X125579142Y-81827666D02*
X125626761Y-81875285D01*
X125674380Y-82018142D01*
X125674380Y-82113380D01*
X125626761Y-82256238D01*
X125531523Y-82351476D01*
X125436285Y-82399095D01*
X125245809Y-82446714D01*
X125102952Y-82446714D01*
X124912476Y-82399095D01*
X124817238Y-82351476D01*
X124722000Y-82256238D01*
X124674380Y-82113380D01*
X124674380Y-82018142D01*
X124722000Y-81875285D01*
X124769619Y-81827666D01*
X124674380Y-80970523D02*
X124674380Y-81161000D01*
X124722000Y-81256238D01*
X124769619Y-81303857D01*
X124912476Y-81399095D01*
X125102952Y-81446714D01*
X125483904Y-81446714D01*
X125579142Y-81399095D01*
X125626761Y-81351476D01*
X125674380Y-81256238D01*
X125674380Y-81065761D01*
X125626761Y-80970523D01*
X125579142Y-80922904D01*
X125483904Y-80875285D01*
X125245809Y-80875285D01*
X125150571Y-80922904D01*
X125102952Y-80970523D01*
X125055333Y-81065761D01*
X125055333Y-81256238D01*
X125102952Y-81351476D01*
X125150571Y-81399095D01*
X125245809Y-81446714D01*
%TO.C,J11*%
X128349476Y-93051380D02*
X128349476Y-93765666D01*
X128301857Y-93908523D01*
X128206619Y-94003761D01*
X128063761Y-94051380D01*
X127968523Y-94051380D01*
X129349476Y-94051380D02*
X128778047Y-94051380D01*
X129063761Y-94051380D02*
X129063761Y-93051380D01*
X128968523Y-93194238D01*
X128873285Y-93289476D01*
X128778047Y-93337095D01*
X130301857Y-94051380D02*
X129730428Y-94051380D01*
X130016142Y-94051380D02*
X130016142Y-93051380D01*
X129920904Y-93194238D01*
X129825666Y-93289476D01*
X129730428Y-93337095D01*
%TO.C,Q5*%
X132365761Y-79922619D02*
X132270523Y-79875000D01*
X132175285Y-79779761D01*
X132032428Y-79636904D01*
X131937190Y-79589285D01*
X131841952Y-79589285D01*
X131889571Y-79827380D02*
X131794333Y-79779761D01*
X131699095Y-79684523D01*
X131651476Y-79494047D01*
X131651476Y-79160714D01*
X131699095Y-78970238D01*
X131794333Y-78875000D01*
X131889571Y-78827380D01*
X132080047Y-78827380D01*
X132175285Y-78875000D01*
X132270523Y-78970238D01*
X132318142Y-79160714D01*
X132318142Y-79494047D01*
X132270523Y-79684523D01*
X132175285Y-79779761D01*
X132080047Y-79827380D01*
X131889571Y-79827380D01*
X133222904Y-78827380D02*
X132746714Y-78827380D01*
X132699095Y-79303571D01*
X132746714Y-79255952D01*
X132841952Y-79208333D01*
X133080047Y-79208333D01*
X133175285Y-79255952D01*
X133222904Y-79303571D01*
X133270523Y-79398809D01*
X133270523Y-79636904D01*
X133222904Y-79732142D01*
X133175285Y-79779761D01*
X133080047Y-79827380D01*
X132841952Y-79827380D01*
X132746714Y-79779761D01*
X132699095Y-79732142D01*
%TO.C,Q6*%
X141636761Y-80049619D02*
X141541523Y-80002000D01*
X141446285Y-79906761D01*
X141303428Y-79763904D01*
X141208190Y-79716285D01*
X141112952Y-79716285D01*
X141160571Y-79954380D02*
X141065333Y-79906761D01*
X140970095Y-79811523D01*
X140922476Y-79621047D01*
X140922476Y-79287714D01*
X140970095Y-79097238D01*
X141065333Y-79002000D01*
X141160571Y-78954380D01*
X141351047Y-78954380D01*
X141446285Y-79002000D01*
X141541523Y-79097238D01*
X141589142Y-79287714D01*
X141589142Y-79621047D01*
X141541523Y-79811523D01*
X141446285Y-79906761D01*
X141351047Y-79954380D01*
X141160571Y-79954380D01*
X142446285Y-78954380D02*
X142255809Y-78954380D01*
X142160571Y-79002000D01*
X142112952Y-79049619D01*
X142017714Y-79192476D01*
X141970095Y-79382952D01*
X141970095Y-79763904D01*
X142017714Y-79859142D01*
X142065333Y-79906761D01*
X142160571Y-79954380D01*
X142351047Y-79954380D01*
X142446285Y-79906761D01*
X142493904Y-79859142D01*
X142541523Y-79763904D01*
X142541523Y-79525809D01*
X142493904Y-79430571D01*
X142446285Y-79382952D01*
X142351047Y-79335333D01*
X142160571Y-79335333D01*
X142065333Y-79382952D01*
X142017714Y-79430571D01*
X141970095Y-79525809D01*
%TO.C,R18*%
X125674380Y-77604857D02*
X125198190Y-77938190D01*
X125674380Y-78176285D02*
X124674380Y-78176285D01*
X124674380Y-77795333D01*
X124722000Y-77700095D01*
X124769619Y-77652476D01*
X124864857Y-77604857D01*
X125007714Y-77604857D01*
X125102952Y-77652476D01*
X125150571Y-77700095D01*
X125198190Y-77795333D01*
X125198190Y-78176285D01*
X125674380Y-76652476D02*
X125674380Y-77223904D01*
X125674380Y-76938190D02*
X124674380Y-76938190D01*
X124817238Y-77033428D01*
X124912476Y-77128666D01*
X124960095Y-77223904D01*
X125102952Y-76081047D02*
X125055333Y-76176285D01*
X125007714Y-76223904D01*
X124912476Y-76271523D01*
X124864857Y-76271523D01*
X124769619Y-76223904D01*
X124722000Y-76176285D01*
X124674380Y-76081047D01*
X124674380Y-75890571D01*
X124722000Y-75795333D01*
X124769619Y-75747714D01*
X124864857Y-75700095D01*
X124912476Y-75700095D01*
X125007714Y-75747714D01*
X125055333Y-75795333D01*
X125102952Y-75890571D01*
X125102952Y-76081047D01*
X125150571Y-76176285D01*
X125198190Y-76223904D01*
X125293428Y-76271523D01*
X125483904Y-76271523D01*
X125579142Y-76223904D01*
X125626761Y-76176285D01*
X125674380Y-76081047D01*
X125674380Y-75890571D01*
X125626761Y-75795333D01*
X125579142Y-75747714D01*
X125483904Y-75700095D01*
X125293428Y-75700095D01*
X125198190Y-75747714D01*
X125150571Y-75795333D01*
X125102952Y-75890571D01*
%TO.C,R19*%
X128516142Y-79700380D02*
X128182809Y-79224190D01*
X127944714Y-79700380D02*
X127944714Y-78700380D01*
X128325666Y-78700380D01*
X128420904Y-78748000D01*
X128468523Y-78795619D01*
X128516142Y-78890857D01*
X128516142Y-79033714D01*
X128468523Y-79128952D01*
X128420904Y-79176571D01*
X128325666Y-79224190D01*
X127944714Y-79224190D01*
X129468523Y-79700380D02*
X128897095Y-79700380D01*
X129182809Y-79700380D02*
X129182809Y-78700380D01*
X129087571Y-78843238D01*
X128992333Y-78938476D01*
X128897095Y-78986095D01*
X129944714Y-79700380D02*
X130135190Y-79700380D01*
X130230428Y-79652761D01*
X130278047Y-79605142D01*
X130373285Y-79462285D01*
X130420904Y-79271809D01*
X130420904Y-78890857D01*
X130373285Y-78795619D01*
X130325666Y-78748000D01*
X130230428Y-78700380D01*
X130039952Y-78700380D01*
X129944714Y-78748000D01*
X129897095Y-78795619D01*
X129849476Y-78890857D01*
X129849476Y-79128952D01*
X129897095Y-79224190D01*
X129944714Y-79271809D01*
X130039952Y-79319428D01*
X130230428Y-79319428D01*
X130325666Y-79271809D01*
X130373285Y-79224190D01*
X130420904Y-79128952D01*
%TO.C,R20*%
X134612142Y-79827380D02*
X134278809Y-79351190D01*
X134040714Y-79827380D02*
X134040714Y-78827380D01*
X134421666Y-78827380D01*
X134516904Y-78875000D01*
X134564523Y-78922619D01*
X134612142Y-79017857D01*
X134612142Y-79160714D01*
X134564523Y-79255952D01*
X134516904Y-79303571D01*
X134421666Y-79351190D01*
X134040714Y-79351190D01*
X134993095Y-78922619D02*
X135040714Y-78875000D01*
X135135952Y-78827380D01*
X135374047Y-78827380D01*
X135469285Y-78875000D01*
X135516904Y-78922619D01*
X135564523Y-79017857D01*
X135564523Y-79113095D01*
X135516904Y-79255952D01*
X134945476Y-79827380D01*
X135564523Y-79827380D01*
X136183571Y-78827380D02*
X136278809Y-78827380D01*
X136374047Y-78875000D01*
X136421666Y-78922619D01*
X136469285Y-79017857D01*
X136516904Y-79208333D01*
X136516904Y-79446428D01*
X136469285Y-79636904D01*
X136421666Y-79732142D01*
X136374047Y-79779761D01*
X136278809Y-79827380D01*
X136183571Y-79827380D01*
X136088333Y-79779761D01*
X136040714Y-79732142D01*
X135993095Y-79636904D01*
X135945476Y-79446428D01*
X135945476Y-79208333D01*
X135993095Y-79017857D01*
X136040714Y-78922619D01*
X136088333Y-78875000D01*
X136183571Y-78827380D01*
%TO.C,R21*%
X137914142Y-79827380D02*
X137580809Y-79351190D01*
X137342714Y-79827380D02*
X137342714Y-78827380D01*
X137723666Y-78827380D01*
X137818904Y-78875000D01*
X137866523Y-78922619D01*
X137914142Y-79017857D01*
X137914142Y-79160714D01*
X137866523Y-79255952D01*
X137818904Y-79303571D01*
X137723666Y-79351190D01*
X137342714Y-79351190D01*
X138295095Y-78922619D02*
X138342714Y-78875000D01*
X138437952Y-78827380D01*
X138676047Y-78827380D01*
X138771285Y-78875000D01*
X138818904Y-78922619D01*
X138866523Y-79017857D01*
X138866523Y-79113095D01*
X138818904Y-79255952D01*
X138247476Y-79827380D01*
X138866523Y-79827380D01*
X139818904Y-79827380D02*
X139247476Y-79827380D01*
X139533190Y-79827380D02*
X139533190Y-78827380D01*
X139437952Y-78970238D01*
X139342714Y-79065476D01*
X139247476Y-79113095D01*
%TO.C,U7*%
X133604095Y-84542380D02*
X133604095Y-85351904D01*
X133651714Y-85447142D01*
X133699333Y-85494761D01*
X133794571Y-85542380D01*
X133985047Y-85542380D01*
X134080285Y-85494761D01*
X134127904Y-85447142D01*
X134175523Y-85351904D01*
X134175523Y-84542380D01*
X134556476Y-84542380D02*
X135223142Y-84542380D01*
X134794571Y-85542380D01*
%TO.C,Y2*%
X125071190Y-85693190D02*
X125547380Y-85693190D01*
X124547380Y-86026523D02*
X125071190Y-85693190D01*
X124547380Y-85359857D01*
X124642619Y-85074142D02*
X124595000Y-85026523D01*
X124547380Y-84931285D01*
X124547380Y-84693190D01*
X124595000Y-84597952D01*
X124642619Y-84550333D01*
X124737857Y-84502714D01*
X124833095Y-84502714D01*
X124975952Y-84550333D01*
X125547380Y-85121761D01*
X125547380Y-84502714D01*
%TO.C,J12*%
X141692380Y-77644523D02*
X142406666Y-77644523D01*
X142549523Y-77692142D01*
X142644761Y-77787380D01*
X142692380Y-77930238D01*
X142692380Y-78025476D01*
X142692380Y-76644523D02*
X142692380Y-77215952D01*
X142692380Y-76930238D02*
X141692380Y-76930238D01*
X141835238Y-77025476D01*
X141930476Y-77120714D01*
X141978095Y-77215952D01*
X141787619Y-76263571D02*
X141740000Y-76215952D01*
X141692380Y-76120714D01*
X141692380Y-75882619D01*
X141740000Y-75787380D01*
X141787619Y-75739761D01*
X141882857Y-75692142D01*
X141978095Y-75692142D01*
X142120952Y-75739761D01*
X142692380Y-76311190D01*
X142692380Y-75692142D01*
%TD*%
M02*
