%TF.GenerationSoftware,KiCad,Pcbnew,(5.1.7)-1*%
%TF.CreationDate,2021-02-24T18:36:54+01:00*%
%TF.ProjectId,Temperature-controller-with-ESP8266,54656d70-6572-4617-9475-72652d636f6e,rev?*%
%TF.SameCoordinates,Original*%
%TF.FileFunction,Copper,L1,Top*%
%TF.FilePolarity,Positive*%
%FSLAX46Y46*%
G04 Gerber Fmt 4.6, Leading zero omitted, Abs format (unit mm)*
G04 Created by KiCad (PCBNEW (5.1.7)-1) date 2021-02-24 18:36:54*
%MOMM*%
%LPD*%
G01*
G04 APERTURE LIST*
%TA.AperFunction,SMDPad,CuDef*%
%ADD10R,0.400000X1.350000*%
%TD*%
%TA.AperFunction,ComponentPad*%
%ADD11O,1.250000X0.950000*%
%TD*%
%TA.AperFunction,SMDPad,CuDef*%
%ADD12R,1.500000X1.550000*%
%TD*%
%TA.AperFunction,SMDPad,CuDef*%
%ADD13R,1.200000X1.550000*%
%TD*%
%TA.AperFunction,ComponentPad*%
%ADD14O,0.890000X1.550000*%
%TD*%
%TA.AperFunction,SMDPad,CuDef*%
%ADD15R,0.900000X0.800000*%
%TD*%
%TA.AperFunction,SMDPad,CuDef*%
%ADD16R,1.200000X1.400000*%
%TD*%
%TA.AperFunction,ComponentPad*%
%ADD17R,1.700000X1.700000*%
%TD*%
%TA.AperFunction,ComponentPad*%
%ADD18O,1.700000X1.700000*%
%TD*%
%TA.AperFunction,ViaPad*%
%ADD19C,0.800000*%
%TD*%
%TA.AperFunction,Conductor*%
%ADD20C,0.400000*%
%TD*%
%TA.AperFunction,Conductor*%
%ADD21C,0.600000*%
%TD*%
%TA.AperFunction,Conductor*%
%ADD22C,0.254000*%
%TD*%
%TA.AperFunction,Conductor*%
%ADD23C,0.100000*%
%TD*%
G04 APERTURE END LIST*
%TO.P,C5,2*%
%TO.N,Net-(C5-Pad2)*%
%TA.AperFunction,SMDPad,CuDef*%
G36*
G01*
X127058000Y-88298000D02*
X127058000Y-89248000D01*
G75*
G02*
X126808000Y-89498000I-250000J0D01*
G01*
X126308000Y-89498000D01*
G75*
G02*
X126058000Y-89248000I0J250000D01*
G01*
X126058000Y-88298000D01*
G75*
G02*
X126308000Y-88048000I250000J0D01*
G01*
X126808000Y-88048000D01*
G75*
G02*
X127058000Y-88298000I0J-250000D01*
G01*
G37*
%TD.AperFunction*%
%TO.P,C5,1*%
%TO.N,Net-(C5-Pad1)*%
%TA.AperFunction,SMDPad,CuDef*%
G36*
G01*
X128958000Y-88298000D02*
X128958000Y-89248000D01*
G75*
G02*
X128708000Y-89498000I-250000J0D01*
G01*
X128208000Y-89498000D01*
G75*
G02*
X127958000Y-89248000I0J250000D01*
G01*
X127958000Y-88298000D01*
G75*
G02*
X128208000Y-88048000I250000J0D01*
G01*
X128708000Y-88048000D01*
G75*
G02*
X128958000Y-88298000I0J-250000D01*
G01*
G37*
%TD.AperFunction*%
%TD*%
%TO.P,C6,1*%
%TO.N,Net-(C6-Pad1)*%
%TA.AperFunction,SMDPad,CuDef*%
G36*
G01*
X126124000Y-82263000D02*
X126124000Y-81313000D01*
G75*
G02*
X126374000Y-81063000I250000J0D01*
G01*
X126874000Y-81063000D01*
G75*
G02*
X127124000Y-81313000I0J-250000D01*
G01*
X127124000Y-82263000D01*
G75*
G02*
X126874000Y-82513000I-250000J0D01*
G01*
X126374000Y-82513000D01*
G75*
G02*
X126124000Y-82263000I0J250000D01*
G01*
G37*
%TD.AperFunction*%
%TO.P,C6,2*%
%TO.N,Net-(C5-Pad2)*%
%TA.AperFunction,SMDPad,CuDef*%
G36*
G01*
X128024000Y-82263000D02*
X128024000Y-81313000D01*
G75*
G02*
X128274000Y-81063000I250000J0D01*
G01*
X128774000Y-81063000D01*
G75*
G02*
X129024000Y-81313000I0J-250000D01*
G01*
X129024000Y-82263000D01*
G75*
G02*
X128774000Y-82513000I-250000J0D01*
G01*
X128274000Y-82513000D01*
G75*
G02*
X128024000Y-82263000I0J250000D01*
G01*
G37*
%TD.AperFunction*%
%TD*%
D10*
%TO.P,J11,1*%
%TO.N,Net-(C7-Pad1)*%
X133193000Y-92199000D03*
%TO.P,J11,2*%
%TO.N,Net-(J11-Pad2)*%
X133843000Y-92199000D03*
%TO.P,J11,3*%
%TO.N,Net-(J11-Pad3)*%
X134493000Y-92199000D03*
%TO.P,J11,4*%
%TO.N,N/C*%
X135143000Y-92199000D03*
%TO.P,J11,5*%
%TO.N,Net-(C5-Pad2)*%
X135793000Y-92199000D03*
D11*
%TO.P,J11,6*%
X131993000Y-92199000D03*
X136993000Y-92199000D03*
D12*
X133493000Y-94899000D03*
X135493000Y-94899000D03*
D13*
X131593000Y-94899000D03*
X137393000Y-94899000D03*
D14*
X130993000Y-94899000D03*
X137993000Y-94899000D03*
%TD*%
D15*
%TO.P,Q5,3*%
%TO.N,Net-(J12-Pad3)*%
X132096000Y-76962000D03*
%TO.P,Q5,2*%
%TO.N,RTS1*%
X134096000Y-76012000D03*
%TO.P,Q5,1*%
%TO.N,Net-(Q5-Pad1)*%
X134096000Y-77912000D03*
%TD*%
%TO.P,Q6,1*%
%TO.N,Net-(Q6-Pad1)*%
X139462000Y-76012000D03*
%TO.P,Q6,2*%
%TO.N,DTR1*%
X139462000Y-77912000D03*
%TO.P,Q6,3*%
%TO.N,Net-(J12-Pad2)*%
X141462000Y-76962000D03*
%TD*%
%TO.P,R18,1*%
%TO.N,Net-(J12-Pad5)*%
%TA.AperFunction,SMDPad,CuDef*%
G36*
G01*
X126295998Y-75537000D02*
X127196002Y-75537000D01*
G75*
G02*
X127446000Y-75786998I0J-249998D01*
G01*
X127446000Y-76312002D01*
G75*
G02*
X127196002Y-76562000I-249998J0D01*
G01*
X126295998Y-76562000D01*
G75*
G02*
X126046000Y-76312002I0J249998D01*
G01*
X126046000Y-75786998D01*
G75*
G02*
X126295998Y-75537000I249998J0D01*
G01*
G37*
%TD.AperFunction*%
%TO.P,R18,2*%
%TO.N,Net-(R18-Pad2)*%
%TA.AperFunction,SMDPad,CuDef*%
G36*
G01*
X126295998Y-77362000D02*
X127196002Y-77362000D01*
G75*
G02*
X127446000Y-77611998I0J-249998D01*
G01*
X127446000Y-78137002D01*
G75*
G02*
X127196002Y-78387000I-249998J0D01*
G01*
X126295998Y-78387000D01*
G75*
G02*
X126046000Y-78137002I0J249998D01*
G01*
X126046000Y-77611998D01*
G75*
G02*
X126295998Y-77362000I249998J0D01*
G01*
G37*
%TD.AperFunction*%
%TD*%
%TO.P,R19,2*%
%TO.N,Net-(J12-Pad4)*%
%TA.AperFunction,SMDPad,CuDef*%
G36*
G01*
X129990002Y-76562000D02*
X129089998Y-76562000D01*
G75*
G02*
X128840000Y-76312002I0J249998D01*
G01*
X128840000Y-75786998D01*
G75*
G02*
X129089998Y-75537000I249998J0D01*
G01*
X129990002Y-75537000D01*
G75*
G02*
X130240000Y-75786998I0J-249998D01*
G01*
X130240000Y-76312002D01*
G75*
G02*
X129990002Y-76562000I-249998J0D01*
G01*
G37*
%TD.AperFunction*%
%TO.P,R19,1*%
%TO.N,Net-(R19-Pad1)*%
%TA.AperFunction,SMDPad,CuDef*%
G36*
G01*
X129990002Y-78387000D02*
X129089998Y-78387000D01*
G75*
G02*
X128840000Y-78137002I0J249998D01*
G01*
X128840000Y-77611998D01*
G75*
G02*
X129089998Y-77362000I249998J0D01*
G01*
X129990002Y-77362000D01*
G75*
G02*
X130240000Y-77611998I0J-249998D01*
G01*
X130240000Y-78137002D01*
G75*
G02*
X129990002Y-78387000I-249998J0D01*
G01*
G37*
%TD.AperFunction*%
%TD*%
%TO.P,R20,1*%
%TO.N,Net-(Q5-Pad1)*%
%TA.AperFunction,SMDPad,CuDef*%
G36*
G01*
X135354000Y-78428002D02*
X135354000Y-77527998D01*
G75*
G02*
X135603998Y-77278000I249998J0D01*
G01*
X136129002Y-77278000D01*
G75*
G02*
X136379000Y-77527998I0J-249998D01*
G01*
X136379000Y-78428002D01*
G75*
G02*
X136129002Y-78678000I-249998J0D01*
G01*
X135603998Y-78678000D01*
G75*
G02*
X135354000Y-78428002I0J249998D01*
G01*
G37*
%TD.AperFunction*%
%TO.P,R20,2*%
%TO.N,DTR1*%
%TA.AperFunction,SMDPad,CuDef*%
G36*
G01*
X137179000Y-78428002D02*
X137179000Y-77527998D01*
G75*
G02*
X137428998Y-77278000I249998J0D01*
G01*
X137954002Y-77278000D01*
G75*
G02*
X138204000Y-77527998I0J-249998D01*
G01*
X138204000Y-78428002D01*
G75*
G02*
X137954002Y-78678000I-249998J0D01*
G01*
X137428998Y-78678000D01*
G75*
G02*
X137179000Y-78428002I0J249998D01*
G01*
G37*
%TD.AperFunction*%
%TD*%
%TO.P,R21,2*%
%TO.N,RTS1*%
%TA.AperFunction,SMDPad,CuDef*%
G36*
G01*
X136379000Y-75495998D02*
X136379000Y-76396002D01*
G75*
G02*
X136129002Y-76646000I-249998J0D01*
G01*
X135603998Y-76646000D01*
G75*
G02*
X135354000Y-76396002I0J249998D01*
G01*
X135354000Y-75495998D01*
G75*
G02*
X135603998Y-75246000I249998J0D01*
G01*
X136129002Y-75246000D01*
G75*
G02*
X136379000Y-75495998I0J-249998D01*
G01*
G37*
%TD.AperFunction*%
%TO.P,R21,1*%
%TO.N,Net-(Q6-Pad1)*%
%TA.AperFunction,SMDPad,CuDef*%
G36*
G01*
X138204000Y-75495998D02*
X138204000Y-76396002D01*
G75*
G02*
X137954002Y-76646000I-249998J0D01*
G01*
X137428998Y-76646000D01*
G75*
G02*
X137179000Y-76396002I0J249998D01*
G01*
X137179000Y-75495998D01*
G75*
G02*
X137428998Y-75246000I249998J0D01*
G01*
X137954002Y-75246000D01*
G75*
G02*
X138204000Y-75495998I0J-249998D01*
G01*
G37*
%TD.AperFunction*%
%TD*%
%TO.P,U7,1*%
%TO.N,Net-(C5-Pad2)*%
%TA.AperFunction,SMDPad,CuDef*%
G36*
G01*
X130916000Y-80795000D02*
X130916000Y-80495000D01*
G75*
G02*
X131066000Y-80345000I150000J0D01*
G01*
X132716000Y-80345000D01*
G75*
G02*
X132866000Y-80495000I0J-150000D01*
G01*
X132866000Y-80795000D01*
G75*
G02*
X132716000Y-80945000I-150000J0D01*
G01*
X131066000Y-80945000D01*
G75*
G02*
X130916000Y-80795000I0J150000D01*
G01*
G37*
%TD.AperFunction*%
%TO.P,U7,2*%
%TO.N,Net-(R18-Pad2)*%
%TA.AperFunction,SMDPad,CuDef*%
G36*
G01*
X130916000Y-82065000D02*
X130916000Y-81765000D01*
G75*
G02*
X131066000Y-81615000I150000J0D01*
G01*
X132716000Y-81615000D01*
G75*
G02*
X132866000Y-81765000I0J-150000D01*
G01*
X132866000Y-82065000D01*
G75*
G02*
X132716000Y-82215000I-150000J0D01*
G01*
X131066000Y-82215000D01*
G75*
G02*
X130916000Y-82065000I0J150000D01*
G01*
G37*
%TD.AperFunction*%
%TO.P,U7,3*%
%TO.N,Net-(R19-Pad1)*%
%TA.AperFunction,SMDPad,CuDef*%
G36*
G01*
X130916000Y-83335000D02*
X130916000Y-83035000D01*
G75*
G02*
X131066000Y-82885000I150000J0D01*
G01*
X132716000Y-82885000D01*
G75*
G02*
X132866000Y-83035000I0J-150000D01*
G01*
X132866000Y-83335000D01*
G75*
G02*
X132716000Y-83485000I-150000J0D01*
G01*
X131066000Y-83485000D01*
G75*
G02*
X130916000Y-83335000I0J150000D01*
G01*
G37*
%TD.AperFunction*%
%TO.P,U7,4*%
%TO.N,Net-(C8-Pad1)*%
%TA.AperFunction,SMDPad,CuDef*%
G36*
G01*
X130916000Y-84605000D02*
X130916000Y-84305000D01*
G75*
G02*
X131066000Y-84155000I150000J0D01*
G01*
X132716000Y-84155000D01*
G75*
G02*
X132866000Y-84305000I0J-150000D01*
G01*
X132866000Y-84605000D01*
G75*
G02*
X132716000Y-84755000I-150000J0D01*
G01*
X131066000Y-84755000D01*
G75*
G02*
X130916000Y-84605000I0J150000D01*
G01*
G37*
%TD.AperFunction*%
%TO.P,U7,5*%
%TO.N,Net-(J11-Pad3)*%
%TA.AperFunction,SMDPad,CuDef*%
G36*
G01*
X130916000Y-85875000D02*
X130916000Y-85575000D01*
G75*
G02*
X131066000Y-85425000I150000J0D01*
G01*
X132716000Y-85425000D01*
G75*
G02*
X132866000Y-85575000I0J-150000D01*
G01*
X132866000Y-85875000D01*
G75*
G02*
X132716000Y-86025000I-150000J0D01*
G01*
X131066000Y-86025000D01*
G75*
G02*
X130916000Y-85875000I0J150000D01*
G01*
G37*
%TD.AperFunction*%
%TO.P,U7,6*%
%TO.N,Net-(J11-Pad2)*%
%TA.AperFunction,SMDPad,CuDef*%
G36*
G01*
X130916000Y-87145000D02*
X130916000Y-86845000D01*
G75*
G02*
X131066000Y-86695000I150000J0D01*
G01*
X132716000Y-86695000D01*
G75*
G02*
X132866000Y-86845000I0J-150000D01*
G01*
X132866000Y-87145000D01*
G75*
G02*
X132716000Y-87295000I-150000J0D01*
G01*
X131066000Y-87295000D01*
G75*
G02*
X130916000Y-87145000I0J150000D01*
G01*
G37*
%TD.AperFunction*%
%TO.P,U7,7*%
%TO.N,Net-(C5-Pad1)*%
%TA.AperFunction,SMDPad,CuDef*%
G36*
G01*
X130916000Y-88415000D02*
X130916000Y-88115000D01*
G75*
G02*
X131066000Y-87965000I150000J0D01*
G01*
X132716000Y-87965000D01*
G75*
G02*
X132866000Y-88115000I0J-150000D01*
G01*
X132866000Y-88415000D01*
G75*
G02*
X132716000Y-88565000I-150000J0D01*
G01*
X131066000Y-88565000D01*
G75*
G02*
X130916000Y-88415000I0J150000D01*
G01*
G37*
%TD.AperFunction*%
%TO.P,U7,8*%
%TO.N,Net-(C6-Pad1)*%
%TA.AperFunction,SMDPad,CuDef*%
G36*
G01*
X130916000Y-89685000D02*
X130916000Y-89385000D01*
G75*
G02*
X131066000Y-89235000I150000J0D01*
G01*
X132716000Y-89235000D01*
G75*
G02*
X132866000Y-89385000I0J-150000D01*
G01*
X132866000Y-89685000D01*
G75*
G02*
X132716000Y-89835000I-150000J0D01*
G01*
X131066000Y-89835000D01*
G75*
G02*
X130916000Y-89685000I0J150000D01*
G01*
G37*
%TD.AperFunction*%
%TO.P,U7,9*%
%TO.N,N/C*%
%TA.AperFunction,SMDPad,CuDef*%
G36*
G01*
X135866000Y-89685000D02*
X135866000Y-89385000D01*
G75*
G02*
X136016000Y-89235000I150000J0D01*
G01*
X137666000Y-89235000D01*
G75*
G02*
X137816000Y-89385000I0J-150000D01*
G01*
X137816000Y-89685000D01*
G75*
G02*
X137666000Y-89835000I-150000J0D01*
G01*
X136016000Y-89835000D01*
G75*
G02*
X135866000Y-89685000I0J150000D01*
G01*
G37*
%TD.AperFunction*%
%TO.P,U7,10*%
%TA.AperFunction,SMDPad,CuDef*%
G36*
G01*
X135866000Y-88415000D02*
X135866000Y-88115000D01*
G75*
G02*
X136016000Y-87965000I150000J0D01*
G01*
X137666000Y-87965000D01*
G75*
G02*
X137816000Y-88115000I0J-150000D01*
G01*
X137816000Y-88415000D01*
G75*
G02*
X137666000Y-88565000I-150000J0D01*
G01*
X136016000Y-88565000D01*
G75*
G02*
X135866000Y-88415000I0J150000D01*
G01*
G37*
%TD.AperFunction*%
%TO.P,U7,11*%
%TA.AperFunction,SMDPad,CuDef*%
G36*
G01*
X135866000Y-87145000D02*
X135866000Y-86845000D01*
G75*
G02*
X136016000Y-86695000I150000J0D01*
G01*
X137666000Y-86695000D01*
G75*
G02*
X137816000Y-86845000I0J-150000D01*
G01*
X137816000Y-87145000D01*
G75*
G02*
X137666000Y-87295000I-150000J0D01*
G01*
X136016000Y-87295000D01*
G75*
G02*
X135866000Y-87145000I0J150000D01*
G01*
G37*
%TD.AperFunction*%
%TO.P,U7,12*%
%TA.AperFunction,SMDPad,CuDef*%
G36*
G01*
X135866000Y-85875000D02*
X135866000Y-85575000D01*
G75*
G02*
X136016000Y-85425000I150000J0D01*
G01*
X137666000Y-85425000D01*
G75*
G02*
X137816000Y-85575000I0J-150000D01*
G01*
X137816000Y-85875000D01*
G75*
G02*
X137666000Y-86025000I-150000J0D01*
G01*
X136016000Y-86025000D01*
G75*
G02*
X135866000Y-85875000I0J150000D01*
G01*
G37*
%TD.AperFunction*%
%TO.P,U7,13*%
%TO.N,DTR1*%
%TA.AperFunction,SMDPad,CuDef*%
G36*
G01*
X135866000Y-84605000D02*
X135866000Y-84305000D01*
G75*
G02*
X136016000Y-84155000I150000J0D01*
G01*
X137666000Y-84155000D01*
G75*
G02*
X137816000Y-84305000I0J-150000D01*
G01*
X137816000Y-84605000D01*
G75*
G02*
X137666000Y-84755000I-150000J0D01*
G01*
X136016000Y-84755000D01*
G75*
G02*
X135866000Y-84605000I0J150000D01*
G01*
G37*
%TD.AperFunction*%
%TO.P,U7,14*%
%TO.N,RTS1*%
%TA.AperFunction,SMDPad,CuDef*%
G36*
G01*
X135866000Y-83335000D02*
X135866000Y-83035000D01*
G75*
G02*
X136016000Y-82885000I150000J0D01*
G01*
X137666000Y-82885000D01*
G75*
G02*
X137816000Y-83035000I0J-150000D01*
G01*
X137816000Y-83335000D01*
G75*
G02*
X137666000Y-83485000I-150000J0D01*
G01*
X136016000Y-83485000D01*
G75*
G02*
X135866000Y-83335000I0J150000D01*
G01*
G37*
%TD.AperFunction*%
%TO.P,U7,15*%
%TO.N,N/C*%
%TA.AperFunction,SMDPad,CuDef*%
G36*
G01*
X135866000Y-82065000D02*
X135866000Y-81765000D01*
G75*
G02*
X136016000Y-81615000I150000J0D01*
G01*
X137666000Y-81615000D01*
G75*
G02*
X137816000Y-81765000I0J-150000D01*
G01*
X137816000Y-82065000D01*
G75*
G02*
X137666000Y-82215000I-150000J0D01*
G01*
X136016000Y-82215000D01*
G75*
G02*
X135866000Y-82065000I0J150000D01*
G01*
G37*
%TD.AperFunction*%
%TO.P,U7,16*%
%TO.N,Net-(C8-Pad1)*%
%TA.AperFunction,SMDPad,CuDef*%
G36*
G01*
X135866000Y-80795000D02*
X135866000Y-80495000D01*
G75*
G02*
X136016000Y-80345000I150000J0D01*
G01*
X137666000Y-80345000D01*
G75*
G02*
X137816000Y-80495000I0J-150000D01*
G01*
X137816000Y-80795000D01*
G75*
G02*
X137666000Y-80945000I-150000J0D01*
G01*
X136016000Y-80945000D01*
G75*
G02*
X135866000Y-80795000I0J150000D01*
G01*
G37*
%TD.AperFunction*%
%TD*%
D16*
%TO.P,Y2,1*%
%TO.N,Net-(C5-Pad1)*%
X128458000Y-86417000D03*
%TO.P,Y2,2*%
%TO.N,Net-(C5-Pad2)*%
X128458000Y-84017000D03*
%TO.P,Y2,3*%
%TO.N,Net-(C6-Pad1)*%
X126558000Y-84017000D03*
%TO.P,Y2,4*%
%TO.N,Net-(C5-Pad2)*%
X126558000Y-86417000D03*
%TD*%
D17*
%TO.P,J12,1*%
%TO.N,Net-(C5-Pad2)*%
X141478000Y-73533000D03*
D18*
%TO.P,J12,2*%
%TO.N,Net-(J12-Pad2)*%
X138938000Y-73533000D03*
%TO.P,J12,3*%
%TO.N,Net-(J12-Pad3)*%
X136398000Y-73533000D03*
%TO.P,J12,4*%
%TO.N,Net-(J12-Pad4)*%
X133858000Y-73533000D03*
%TO.P,J12,5*%
%TO.N,Net-(J12-Pad5)*%
X131318000Y-73533000D03*
%TO.P,J12,6*%
%TO.N,Net-(C8-Pad1)*%
X128778000Y-73533000D03*
%TO.P,J12,7*%
%TO.N,Net-(C7-Pad1)*%
X126238000Y-73533000D03*
%TD*%
D19*
%TO.N,Net-(C7-Pad1)*%
X128651000Y-91948000D03*
%TO.N,Net-(C8-Pad1)*%
X134874000Y-79629000D03*
X134493000Y-84709000D03*
%TO.N,Net-(C5-Pad2)*%
X139573000Y-79375000D03*
X129921000Y-84074000D03*
X131191000Y-79248000D03*
%TD*%
D20*
%TO.N,Net-(C5-Pad1)*%
X128458000Y-86417000D02*
X128458000Y-88773000D01*
X130306000Y-88265000D02*
X128458000Y-86417000D01*
X131891000Y-88265000D02*
X130306000Y-88265000D01*
%TO.N,Net-(C6-Pad1)*%
X126558000Y-81854000D02*
X126624000Y-81788000D01*
X126558000Y-84017000D02*
X126558000Y-81854000D01*
X125557999Y-85017001D02*
X126558000Y-84017000D01*
X125557999Y-89417255D02*
X125557999Y-85017001D01*
X126038754Y-89898010D02*
X125557999Y-89417255D01*
X131527990Y-89898010D02*
X126038754Y-89898010D01*
X131891000Y-89535000D02*
X131527990Y-89898010D01*
%TO.N,Net-(C7-Pad1)*%
X128651000Y-91948000D02*
X129794000Y-90805000D01*
X133193000Y-91124000D02*
X133193000Y-92199000D01*
X132874000Y-90805000D02*
X133193000Y-91124000D01*
X129794000Y-90805000D02*
X132874000Y-90805000D01*
%TO.N,Net-(C8-Pad1)*%
X135890000Y-80645000D02*
X134874000Y-79629000D01*
X136841000Y-80645000D02*
X135890000Y-80645000D01*
X134239000Y-84455000D02*
X134493000Y-84709000D01*
X131891000Y-84455000D02*
X134239000Y-84455000D01*
%TO.N,Net-(J11-Pad2)*%
X132866000Y-86995000D02*
X131891000Y-86995000D01*
X133843000Y-87972000D02*
X132866000Y-86995000D01*
X133843000Y-92199000D02*
X133843000Y-87972000D01*
%TO.N,Net-(J11-Pad3)*%
X132866000Y-85725000D02*
X131891000Y-85725000D01*
X134493000Y-87352000D02*
X132866000Y-85725000D01*
X134493000Y-92199000D02*
X134493000Y-87352000D01*
%TO.N,Net-(J12-Pad2)*%
X141462000Y-76057000D02*
X141462000Y-76962000D01*
X138938000Y-73533000D02*
X141462000Y-76057000D01*
%TO.N,Net-(J12-Pad3)*%
X135147999Y-74783001D02*
X136398000Y-73533000D01*
X133474999Y-74783001D02*
X135147999Y-74783001D01*
X132096000Y-76162000D02*
X133474999Y-74783001D01*
X132096000Y-76962000D02*
X132096000Y-76162000D01*
%TO.N,Net-(J12-Pad4)*%
X131341500Y-76049500D02*
X133858000Y-73533000D01*
X129540000Y-76049500D02*
X131341500Y-76049500D01*
%TO.N,Net-(J12-Pad5)*%
X129714010Y-75136990D02*
X131318000Y-73533000D01*
X127658510Y-75136990D02*
X129714010Y-75136990D01*
X126746000Y-76049500D02*
X127658510Y-75136990D01*
%TO.N,RTS1*%
X135800500Y-76012000D02*
X135866500Y-75946000D01*
X134096000Y-76012000D02*
X135800500Y-76012000D01*
X133245999Y-76862001D02*
X134096000Y-76012000D01*
X133866020Y-79252022D02*
X133245999Y-78632001D01*
X133866020Y-81185020D02*
X133866020Y-79252022D01*
X135866000Y-83185000D02*
X133866020Y-81185020D01*
X133245999Y-78632001D02*
X133245999Y-76862001D01*
X136841000Y-83185000D02*
X135866000Y-83185000D01*
%TO.N,Net-(Q5-Pad1)*%
X135800500Y-77912000D02*
X135866500Y-77978000D01*
X134096000Y-77912000D02*
X135800500Y-77912000D01*
%TO.N,Net-(Q6-Pad1)*%
X139396000Y-75946000D02*
X139462000Y-76012000D01*
X137691500Y-75946000D02*
X139396000Y-75946000D01*
%TO.N,DTR1*%
X139396000Y-77978000D02*
X139462000Y-77912000D01*
X137691500Y-77978000D02*
X139396000Y-77978000D01*
X137323834Y-84455000D02*
X136841000Y-84455000D01*
X138216010Y-83562824D02*
X137323834Y-84455000D01*
X138216010Y-78502510D02*
X138216010Y-83562824D01*
X137691500Y-77978000D02*
X138216010Y-78502510D01*
%TO.N,Net-(C5-Pad2)*%
X126558000Y-86417000D02*
X126558000Y-88773000D01*
X128458000Y-81854000D02*
X128524000Y-81788000D01*
X128458000Y-84017000D02*
X128458000Y-81854000D01*
X126558000Y-85917000D02*
X128458000Y-84017000D01*
X126558000Y-86417000D02*
X126558000Y-85917000D01*
X136993000Y-92199000D02*
X135793000Y-92199000D01*
D21*
X131891000Y-79948000D02*
X131191000Y-79248000D01*
X131891000Y-80645000D02*
X131891000Y-79948000D01*
D20*
%TO.N,Net-(R18-Pad2)*%
X130786500Y-81915000D02*
X126746000Y-77874500D01*
X131891000Y-81915000D02*
X130786500Y-81915000D01*
%TO.N,Net-(R19-Pad1)*%
X132866000Y-83185000D02*
X131891000Y-83185000D01*
X133266010Y-82784990D02*
X132866000Y-83185000D01*
X133266010Y-79545010D02*
X133266010Y-82784990D01*
X131595500Y-77874500D02*
X133266010Y-79545010D01*
X129540000Y-77874500D02*
X131595500Y-77874500D01*
%TD*%
D22*
%TO.N,Net-(C5-Pad2)*%
X141997875Y-71555234D02*
X142253622Y-71632448D01*
X142489504Y-71757869D01*
X142696530Y-71926716D01*
X142866813Y-72132554D01*
X142993879Y-72367556D01*
X143072876Y-72622756D01*
X143104001Y-72918891D01*
X143104000Y-95344721D01*
X143074766Y-95642876D01*
X142997551Y-95898624D01*
X142872131Y-96134504D01*
X142703289Y-96341525D01*
X142497446Y-96511813D01*
X142262444Y-96638879D01*
X142007240Y-96717877D01*
X141711118Y-96749000D01*
X126016279Y-96749000D01*
X125718124Y-96719766D01*
X125462376Y-96642551D01*
X125226496Y-96517131D01*
X125019475Y-96348289D01*
X124849187Y-96142446D01*
X124722121Y-95907444D01*
X124643123Y-95652240D01*
X124612000Y-95356118D01*
X124612000Y-95026000D01*
X129913000Y-95026000D01*
X129913000Y-95356000D01*
X129958528Y-95564257D01*
X130043810Y-95759631D01*
X130165569Y-95934613D01*
X130319126Y-96082479D01*
X130498580Y-96197546D01*
X130699787Y-96268435D01*
X130723770Y-96250113D01*
X130748820Y-96263502D01*
X130865998Y-96299048D01*
X130865998Y-96309000D01*
X130961808Y-96309000D01*
X130993000Y-96312072D01*
X131307250Y-96309000D01*
X131381325Y-96234925D01*
X131487420Y-96197546D01*
X131666874Y-96082479D01*
X131720000Y-96031322D01*
X131720000Y-96150250D01*
X131878750Y-96309000D01*
X132193000Y-96312072D01*
X132317482Y-96299812D01*
X132437180Y-96263502D01*
X132468000Y-96247028D01*
X132498820Y-96263502D01*
X132618518Y-96299812D01*
X132743000Y-96312072D01*
X133207250Y-96309000D01*
X133366000Y-96150250D01*
X133366000Y-95026000D01*
X133620000Y-95026000D01*
X133620000Y-96150250D01*
X133778750Y-96309000D01*
X134243000Y-96312072D01*
X134367482Y-96299812D01*
X134487180Y-96263502D01*
X134493000Y-96260391D01*
X134498820Y-96263502D01*
X134618518Y-96299812D01*
X134743000Y-96312072D01*
X135207250Y-96309000D01*
X135366000Y-96150250D01*
X135366000Y-95026000D01*
X135620000Y-95026000D01*
X135620000Y-96150250D01*
X135778750Y-96309000D01*
X136243000Y-96312072D01*
X136367482Y-96299812D01*
X136487180Y-96263502D01*
X136518000Y-96247028D01*
X136548820Y-96263502D01*
X136668518Y-96299812D01*
X136793000Y-96312072D01*
X137107250Y-96309000D01*
X137266000Y-96150250D01*
X137266000Y-96031322D01*
X137319126Y-96082479D01*
X137498580Y-96197546D01*
X137604675Y-96234925D01*
X137678750Y-96309000D01*
X137993000Y-96312072D01*
X138024192Y-96309000D01*
X138120002Y-96309000D01*
X138120002Y-96299048D01*
X138237180Y-96263502D01*
X138262230Y-96250113D01*
X138286213Y-96268435D01*
X138487420Y-96197546D01*
X138666874Y-96082479D01*
X138820431Y-95934613D01*
X138942190Y-95759631D01*
X139027472Y-95564257D01*
X139073000Y-95356000D01*
X139073000Y-95026000D01*
X135620000Y-95026000D01*
X135366000Y-95026000D01*
X133620000Y-95026000D01*
X133366000Y-95026000D01*
X129913000Y-95026000D01*
X124612000Y-95026000D01*
X124612000Y-85017001D01*
X124718959Y-85017001D01*
X124723000Y-85058029D01*
X124722999Y-89376236D01*
X124718959Y-89417255D01*
X124722999Y-89458273D01*
X124735081Y-89580943D01*
X124782827Y-89738341D01*
X124860363Y-89883400D01*
X124964708Y-90010546D01*
X124996578Y-90036701D01*
X125419308Y-90459431D01*
X125445463Y-90491301D01*
X125572608Y-90595646D01*
X125717667Y-90673182D01*
X125875065Y-90720928D01*
X125997735Y-90733010D01*
X125997737Y-90733010D01*
X126038753Y-90737050D01*
X126079769Y-90733010D01*
X128685122Y-90733010D01*
X128494225Y-90923907D01*
X128349102Y-90952774D01*
X128160744Y-91030795D01*
X127991226Y-91144063D01*
X127847063Y-91288226D01*
X127733795Y-91457744D01*
X127655774Y-91646102D01*
X127616000Y-91846061D01*
X127616000Y-92049939D01*
X127655774Y-92249898D01*
X127733795Y-92438256D01*
X127847063Y-92607774D01*
X127991226Y-92751937D01*
X128160744Y-92865205D01*
X128349102Y-92943226D01*
X128549061Y-92983000D01*
X128752939Y-92983000D01*
X128952898Y-92943226D01*
X129141256Y-92865205D01*
X129310774Y-92751937D01*
X129454937Y-92607774D01*
X129528995Y-92496938D01*
X130773732Y-92496938D01*
X130843397Y-92685150D01*
X130957447Y-92870822D01*
X131105529Y-93030676D01*
X131281951Y-93158569D01*
X131479934Y-93249586D01*
X131691869Y-93300230D01*
X131866000Y-93151564D01*
X131866000Y-92326000D01*
X130900266Y-92326000D01*
X130773732Y-92496938D01*
X129528995Y-92496938D01*
X129568205Y-92438256D01*
X129646226Y-92249898D01*
X129675093Y-92104775D01*
X130139868Y-91640000D01*
X130888145Y-91640000D01*
X130843397Y-91712850D01*
X130773732Y-91901062D01*
X130900266Y-92072000D01*
X131866000Y-92072000D01*
X131866000Y-92052000D01*
X132120000Y-92052000D01*
X132120000Y-92072000D01*
X132140000Y-92072000D01*
X132140000Y-92326000D01*
X132120000Y-92326000D01*
X132120000Y-93151564D01*
X132294131Y-93300230D01*
X132484084Y-93254839D01*
X132541815Y-93325185D01*
X132638506Y-93404537D01*
X132748820Y-93463502D01*
X132824527Y-93486467D01*
X132743000Y-93485928D01*
X132618518Y-93498188D01*
X132498820Y-93534498D01*
X132468000Y-93550972D01*
X132437180Y-93534498D01*
X132317482Y-93498188D01*
X132193000Y-93485928D01*
X131878750Y-93489000D01*
X131720000Y-93647750D01*
X131720000Y-93766678D01*
X131666874Y-93715521D01*
X131487420Y-93600454D01*
X131381325Y-93563075D01*
X131307250Y-93489000D01*
X130993000Y-93485928D01*
X130961808Y-93489000D01*
X130865998Y-93489000D01*
X130865998Y-93498952D01*
X130748820Y-93534498D01*
X130723770Y-93547887D01*
X130699787Y-93529565D01*
X130498580Y-93600454D01*
X130319126Y-93715521D01*
X130165569Y-93863387D01*
X130043810Y-94038369D01*
X129958528Y-94233743D01*
X129913000Y-94442000D01*
X129913000Y-94772000D01*
X133366000Y-94772000D01*
X133366000Y-94752000D01*
X133620000Y-94752000D01*
X133620000Y-94772000D01*
X135366000Y-94772000D01*
X135366000Y-94752000D01*
X135620000Y-94752000D01*
X135620000Y-94772000D01*
X139073000Y-94772000D01*
X139073000Y-94442000D01*
X139027472Y-94233743D01*
X138942190Y-94038369D01*
X138820431Y-93863387D01*
X138666874Y-93715521D01*
X138487420Y-93600454D01*
X138286213Y-93529565D01*
X138262230Y-93547887D01*
X138237180Y-93534498D01*
X138120002Y-93498952D01*
X138120002Y-93489000D01*
X138024192Y-93489000D01*
X137993000Y-93485928D01*
X137678750Y-93489000D01*
X137604675Y-93563075D01*
X137498580Y-93600454D01*
X137319126Y-93715521D01*
X137266000Y-93766678D01*
X137266000Y-93647750D01*
X137107250Y-93489000D01*
X136793000Y-93485928D01*
X136668518Y-93498188D01*
X136548820Y-93534498D01*
X136518000Y-93550972D01*
X136487180Y-93534498D01*
X136367482Y-93498188D01*
X136243000Y-93485928D01*
X136162629Y-93486460D01*
X136246576Y-93459521D01*
X136355933Y-93398800D01*
X136451343Y-93317912D01*
X136501515Y-93254743D01*
X136691869Y-93300230D01*
X136866000Y-93151564D01*
X136866000Y-92326000D01*
X137120000Y-92326000D01*
X137120000Y-93151564D01*
X137294131Y-93300230D01*
X137506066Y-93249586D01*
X137704049Y-93158569D01*
X137880471Y-93030676D01*
X138028553Y-92870822D01*
X138142603Y-92685150D01*
X138212268Y-92496938D01*
X138085734Y-92326000D01*
X137120000Y-92326000D01*
X136866000Y-92326000D01*
X136846000Y-92326000D01*
X136846000Y-92072000D01*
X136866000Y-92072000D01*
X136866000Y-91246436D01*
X137120000Y-91246436D01*
X137120000Y-92072000D01*
X138085734Y-92072000D01*
X138212268Y-91901062D01*
X138142603Y-91712850D01*
X138028553Y-91527178D01*
X137880471Y-91367324D01*
X137704049Y-91239431D01*
X137506066Y-91148414D01*
X137294131Y-91097770D01*
X137120000Y-91246436D01*
X136866000Y-91246436D01*
X136691869Y-91097770D01*
X136501515Y-91143257D01*
X136451343Y-91080088D01*
X136355933Y-90999200D01*
X136246576Y-90938479D01*
X136127474Y-90900259D01*
X136024750Y-90889000D01*
X135866000Y-91047750D01*
X135866000Y-91160322D01*
X135794185Y-91072815D01*
X135697494Y-90993463D01*
X135629218Y-90956968D01*
X135561250Y-90889000D01*
X135470120Y-90898988D01*
X135467482Y-90898188D01*
X135343000Y-90885928D01*
X135328000Y-90885928D01*
X135328000Y-90061573D01*
X135360742Y-90122829D01*
X135458749Y-90242251D01*
X135578171Y-90340258D01*
X135714418Y-90413084D01*
X135862255Y-90457929D01*
X136016000Y-90473072D01*
X137666000Y-90473072D01*
X137819745Y-90457929D01*
X137967582Y-90413084D01*
X138103829Y-90340258D01*
X138223251Y-90242251D01*
X138321258Y-90122829D01*
X138394084Y-89986582D01*
X138438929Y-89838745D01*
X138454072Y-89685000D01*
X138454072Y-89385000D01*
X138438929Y-89231255D01*
X138394084Y-89083418D01*
X138321258Y-88947171D01*
X138282546Y-88900000D01*
X138321258Y-88852829D01*
X138394084Y-88716582D01*
X138438929Y-88568745D01*
X138454072Y-88415000D01*
X138454072Y-88115000D01*
X138438929Y-87961255D01*
X138394084Y-87813418D01*
X138321258Y-87677171D01*
X138282546Y-87630000D01*
X138321258Y-87582829D01*
X138394084Y-87446582D01*
X138438929Y-87298745D01*
X138454072Y-87145000D01*
X138454072Y-86845000D01*
X138438929Y-86691255D01*
X138394084Y-86543418D01*
X138321258Y-86407171D01*
X138282546Y-86360000D01*
X138321258Y-86312829D01*
X138394084Y-86176582D01*
X138438929Y-86028745D01*
X138454072Y-85875000D01*
X138454072Y-85575000D01*
X138438929Y-85421255D01*
X138394084Y-85273418D01*
X138321258Y-85137171D01*
X138282546Y-85090000D01*
X138321258Y-85042829D01*
X138394084Y-84906582D01*
X138438929Y-84758745D01*
X138454072Y-84605000D01*
X138454072Y-84505630D01*
X138777436Y-84182266D01*
X138809301Y-84156115D01*
X138913646Y-84028970D01*
X138991182Y-83883911D01*
X139038928Y-83726513D01*
X139051010Y-83603843D01*
X139051010Y-83603833D01*
X139055049Y-83562825D01*
X139051010Y-83521817D01*
X139051010Y-78950072D01*
X139912000Y-78950072D01*
X140036482Y-78937812D01*
X140156180Y-78901502D01*
X140266494Y-78842537D01*
X140363185Y-78763185D01*
X140442537Y-78666494D01*
X140501502Y-78556180D01*
X140537812Y-78436482D01*
X140550072Y-78312000D01*
X140550072Y-77800095D01*
X140560815Y-77813185D01*
X140657506Y-77892537D01*
X140767820Y-77951502D01*
X140887518Y-77987812D01*
X141012000Y-78000072D01*
X141912000Y-78000072D01*
X142036482Y-77987812D01*
X142156180Y-77951502D01*
X142266494Y-77892537D01*
X142363185Y-77813185D01*
X142442537Y-77716494D01*
X142501502Y-77606180D01*
X142537812Y-77486482D01*
X142550072Y-77362000D01*
X142550072Y-76562000D01*
X142537812Y-76437518D01*
X142501502Y-76317820D01*
X142442537Y-76207506D01*
X142363185Y-76110815D01*
X142300783Y-76059604D01*
X142301040Y-76056999D01*
X142284918Y-75893311D01*
X142237172Y-75735913D01*
X142159636Y-75590854D01*
X142122706Y-75545855D01*
X142055291Y-75463709D01*
X142023428Y-75437560D01*
X141603868Y-75018000D01*
X141605002Y-75018000D01*
X141605002Y-74859252D01*
X141763750Y-75018000D01*
X142328000Y-75021072D01*
X142452482Y-75008812D01*
X142572180Y-74972502D01*
X142682494Y-74913537D01*
X142779185Y-74834185D01*
X142858537Y-74737494D01*
X142917502Y-74627180D01*
X142953812Y-74507482D01*
X142966072Y-74383000D01*
X142963000Y-73818750D01*
X142804250Y-73660000D01*
X141605000Y-73660000D01*
X141605000Y-73680000D01*
X141351000Y-73680000D01*
X141351000Y-73660000D01*
X141331000Y-73660000D01*
X141331000Y-73406000D01*
X141351000Y-73406000D01*
X141351000Y-72206750D01*
X141605000Y-72206750D01*
X141605000Y-73406000D01*
X142804250Y-73406000D01*
X142963000Y-73247250D01*
X142966072Y-72683000D01*
X142953812Y-72558518D01*
X142917502Y-72438820D01*
X142858537Y-72328506D01*
X142779185Y-72231815D01*
X142682494Y-72152463D01*
X142572180Y-72093498D01*
X142452482Y-72057188D01*
X142328000Y-72044928D01*
X141763750Y-72048000D01*
X141605000Y-72206750D01*
X141351000Y-72206750D01*
X141192250Y-72048000D01*
X140628000Y-72044928D01*
X140503518Y-72057188D01*
X140383820Y-72093498D01*
X140273506Y-72152463D01*
X140176815Y-72231815D01*
X140097463Y-72328506D01*
X140038498Y-72438820D01*
X140016487Y-72511380D01*
X139884632Y-72379525D01*
X139641411Y-72217010D01*
X139371158Y-72105068D01*
X139084260Y-72048000D01*
X138791740Y-72048000D01*
X138504842Y-72105068D01*
X138234589Y-72217010D01*
X137991368Y-72379525D01*
X137784525Y-72586368D01*
X137668000Y-72760760D01*
X137551475Y-72586368D01*
X137344632Y-72379525D01*
X137101411Y-72217010D01*
X136831158Y-72105068D01*
X136544260Y-72048000D01*
X136251740Y-72048000D01*
X135964842Y-72105068D01*
X135694589Y-72217010D01*
X135451368Y-72379525D01*
X135244525Y-72586368D01*
X135128000Y-72760760D01*
X135011475Y-72586368D01*
X134804632Y-72379525D01*
X134561411Y-72217010D01*
X134291158Y-72105068D01*
X134004260Y-72048000D01*
X133711740Y-72048000D01*
X133424842Y-72105068D01*
X133154589Y-72217010D01*
X132911368Y-72379525D01*
X132704525Y-72586368D01*
X132588000Y-72760760D01*
X132471475Y-72586368D01*
X132264632Y-72379525D01*
X132021411Y-72217010D01*
X131751158Y-72105068D01*
X131464260Y-72048000D01*
X131171740Y-72048000D01*
X130884842Y-72105068D01*
X130614589Y-72217010D01*
X130371368Y-72379525D01*
X130164525Y-72586368D01*
X130048000Y-72760760D01*
X129931475Y-72586368D01*
X129724632Y-72379525D01*
X129481411Y-72217010D01*
X129211158Y-72105068D01*
X128924260Y-72048000D01*
X128631740Y-72048000D01*
X128344842Y-72105068D01*
X128074589Y-72217010D01*
X127831368Y-72379525D01*
X127624525Y-72586368D01*
X127508000Y-72760760D01*
X127391475Y-72586368D01*
X127184632Y-72379525D01*
X126941411Y-72217010D01*
X126671158Y-72105068D01*
X126384260Y-72048000D01*
X126091740Y-72048000D01*
X125804842Y-72105068D01*
X125534589Y-72217010D01*
X125291368Y-72379525D01*
X125084525Y-72586368D01*
X124922010Y-72829589D01*
X124810068Y-73099842D01*
X124753000Y-73386740D01*
X124753000Y-73679260D01*
X124810068Y-73966158D01*
X124922010Y-74236411D01*
X125084525Y-74479632D01*
X125291368Y-74686475D01*
X125534589Y-74848990D01*
X125804842Y-74960932D01*
X125922742Y-74984384D01*
X125802613Y-75048595D01*
X125668038Y-75159038D01*
X125557595Y-75293613D01*
X125475528Y-75447148D01*
X125424992Y-75613744D01*
X125407928Y-75786998D01*
X125407928Y-76312002D01*
X125424992Y-76485256D01*
X125475528Y-76651852D01*
X125557595Y-76805387D01*
X125668038Y-76939962D01*
X125694891Y-76962000D01*
X125668038Y-76984038D01*
X125557595Y-77118613D01*
X125475528Y-77272148D01*
X125424992Y-77438744D01*
X125407928Y-77611998D01*
X125407928Y-78137002D01*
X125424992Y-78310256D01*
X125475528Y-78476852D01*
X125557595Y-78630387D01*
X125668038Y-78764962D01*
X125802613Y-78875405D01*
X125956148Y-78957472D01*
X126122744Y-79008008D01*
X126295998Y-79025072D01*
X126715705Y-79025072D01*
X128116892Y-80426260D01*
X128024000Y-80424928D01*
X127899518Y-80437188D01*
X127779820Y-80473498D01*
X127669506Y-80532463D01*
X127572815Y-80611815D01*
X127507342Y-80691594D01*
X127501962Y-80685038D01*
X127367386Y-80574595D01*
X127213850Y-80492528D01*
X127047254Y-80441992D01*
X126874000Y-80424928D01*
X126374000Y-80424928D01*
X126200746Y-80441992D01*
X126034150Y-80492528D01*
X125880614Y-80574595D01*
X125746038Y-80685038D01*
X125635595Y-80819614D01*
X125553528Y-80973150D01*
X125502992Y-81139746D01*
X125485928Y-81313000D01*
X125485928Y-82263000D01*
X125502992Y-82436254D01*
X125553528Y-82602850D01*
X125635595Y-82756386D01*
X125642968Y-82765370D01*
X125603506Y-82786463D01*
X125506815Y-82865815D01*
X125427463Y-82962506D01*
X125368498Y-83072820D01*
X125332188Y-83192518D01*
X125319928Y-83317000D01*
X125319928Y-84074205D01*
X124996573Y-84397560D01*
X124964709Y-84423710D01*
X124938561Y-84455572D01*
X124860363Y-84550856D01*
X124782827Y-84695915D01*
X124735081Y-84853313D01*
X124718959Y-85017001D01*
X124612000Y-85017001D01*
X124612000Y-72930279D01*
X124641234Y-72632125D01*
X124718448Y-72376378D01*
X124843869Y-72140496D01*
X125012716Y-71933470D01*
X125218554Y-71763187D01*
X125453556Y-71636121D01*
X125708756Y-71557124D01*
X126004882Y-71526000D01*
X141699721Y-71526000D01*
X141997875Y-71555234D01*
%TA.AperFunction,Conductor*%
D23*
G36*
X141997875Y-71555234D02*
G01*
X142253622Y-71632448D01*
X142489504Y-71757869D01*
X142696530Y-71926716D01*
X142866813Y-72132554D01*
X142993879Y-72367556D01*
X143072876Y-72622756D01*
X143104001Y-72918891D01*
X143104000Y-95344721D01*
X143074766Y-95642876D01*
X142997551Y-95898624D01*
X142872131Y-96134504D01*
X142703289Y-96341525D01*
X142497446Y-96511813D01*
X142262444Y-96638879D01*
X142007240Y-96717877D01*
X141711118Y-96749000D01*
X126016279Y-96749000D01*
X125718124Y-96719766D01*
X125462376Y-96642551D01*
X125226496Y-96517131D01*
X125019475Y-96348289D01*
X124849187Y-96142446D01*
X124722121Y-95907444D01*
X124643123Y-95652240D01*
X124612000Y-95356118D01*
X124612000Y-95026000D01*
X129913000Y-95026000D01*
X129913000Y-95356000D01*
X129958528Y-95564257D01*
X130043810Y-95759631D01*
X130165569Y-95934613D01*
X130319126Y-96082479D01*
X130498580Y-96197546D01*
X130699787Y-96268435D01*
X130723770Y-96250113D01*
X130748820Y-96263502D01*
X130865998Y-96299048D01*
X130865998Y-96309000D01*
X130961808Y-96309000D01*
X130993000Y-96312072D01*
X131307250Y-96309000D01*
X131381325Y-96234925D01*
X131487420Y-96197546D01*
X131666874Y-96082479D01*
X131720000Y-96031322D01*
X131720000Y-96150250D01*
X131878750Y-96309000D01*
X132193000Y-96312072D01*
X132317482Y-96299812D01*
X132437180Y-96263502D01*
X132468000Y-96247028D01*
X132498820Y-96263502D01*
X132618518Y-96299812D01*
X132743000Y-96312072D01*
X133207250Y-96309000D01*
X133366000Y-96150250D01*
X133366000Y-95026000D01*
X133620000Y-95026000D01*
X133620000Y-96150250D01*
X133778750Y-96309000D01*
X134243000Y-96312072D01*
X134367482Y-96299812D01*
X134487180Y-96263502D01*
X134493000Y-96260391D01*
X134498820Y-96263502D01*
X134618518Y-96299812D01*
X134743000Y-96312072D01*
X135207250Y-96309000D01*
X135366000Y-96150250D01*
X135366000Y-95026000D01*
X135620000Y-95026000D01*
X135620000Y-96150250D01*
X135778750Y-96309000D01*
X136243000Y-96312072D01*
X136367482Y-96299812D01*
X136487180Y-96263502D01*
X136518000Y-96247028D01*
X136548820Y-96263502D01*
X136668518Y-96299812D01*
X136793000Y-96312072D01*
X137107250Y-96309000D01*
X137266000Y-96150250D01*
X137266000Y-96031322D01*
X137319126Y-96082479D01*
X137498580Y-96197546D01*
X137604675Y-96234925D01*
X137678750Y-96309000D01*
X137993000Y-96312072D01*
X138024192Y-96309000D01*
X138120002Y-96309000D01*
X138120002Y-96299048D01*
X138237180Y-96263502D01*
X138262230Y-96250113D01*
X138286213Y-96268435D01*
X138487420Y-96197546D01*
X138666874Y-96082479D01*
X138820431Y-95934613D01*
X138942190Y-95759631D01*
X139027472Y-95564257D01*
X139073000Y-95356000D01*
X139073000Y-95026000D01*
X135620000Y-95026000D01*
X135366000Y-95026000D01*
X133620000Y-95026000D01*
X133366000Y-95026000D01*
X129913000Y-95026000D01*
X124612000Y-95026000D01*
X124612000Y-85017001D01*
X124718959Y-85017001D01*
X124723000Y-85058029D01*
X124722999Y-89376236D01*
X124718959Y-89417255D01*
X124722999Y-89458273D01*
X124735081Y-89580943D01*
X124782827Y-89738341D01*
X124860363Y-89883400D01*
X124964708Y-90010546D01*
X124996578Y-90036701D01*
X125419308Y-90459431D01*
X125445463Y-90491301D01*
X125572608Y-90595646D01*
X125717667Y-90673182D01*
X125875065Y-90720928D01*
X125997735Y-90733010D01*
X125997737Y-90733010D01*
X126038753Y-90737050D01*
X126079769Y-90733010D01*
X128685122Y-90733010D01*
X128494225Y-90923907D01*
X128349102Y-90952774D01*
X128160744Y-91030795D01*
X127991226Y-91144063D01*
X127847063Y-91288226D01*
X127733795Y-91457744D01*
X127655774Y-91646102D01*
X127616000Y-91846061D01*
X127616000Y-92049939D01*
X127655774Y-92249898D01*
X127733795Y-92438256D01*
X127847063Y-92607774D01*
X127991226Y-92751937D01*
X128160744Y-92865205D01*
X128349102Y-92943226D01*
X128549061Y-92983000D01*
X128752939Y-92983000D01*
X128952898Y-92943226D01*
X129141256Y-92865205D01*
X129310774Y-92751937D01*
X129454937Y-92607774D01*
X129528995Y-92496938D01*
X130773732Y-92496938D01*
X130843397Y-92685150D01*
X130957447Y-92870822D01*
X131105529Y-93030676D01*
X131281951Y-93158569D01*
X131479934Y-93249586D01*
X131691869Y-93300230D01*
X131866000Y-93151564D01*
X131866000Y-92326000D01*
X130900266Y-92326000D01*
X130773732Y-92496938D01*
X129528995Y-92496938D01*
X129568205Y-92438256D01*
X129646226Y-92249898D01*
X129675093Y-92104775D01*
X130139868Y-91640000D01*
X130888145Y-91640000D01*
X130843397Y-91712850D01*
X130773732Y-91901062D01*
X130900266Y-92072000D01*
X131866000Y-92072000D01*
X131866000Y-92052000D01*
X132120000Y-92052000D01*
X132120000Y-92072000D01*
X132140000Y-92072000D01*
X132140000Y-92326000D01*
X132120000Y-92326000D01*
X132120000Y-93151564D01*
X132294131Y-93300230D01*
X132484084Y-93254839D01*
X132541815Y-93325185D01*
X132638506Y-93404537D01*
X132748820Y-93463502D01*
X132824527Y-93486467D01*
X132743000Y-93485928D01*
X132618518Y-93498188D01*
X132498820Y-93534498D01*
X132468000Y-93550972D01*
X132437180Y-93534498D01*
X132317482Y-93498188D01*
X132193000Y-93485928D01*
X131878750Y-93489000D01*
X131720000Y-93647750D01*
X131720000Y-93766678D01*
X131666874Y-93715521D01*
X131487420Y-93600454D01*
X131381325Y-93563075D01*
X131307250Y-93489000D01*
X130993000Y-93485928D01*
X130961808Y-93489000D01*
X130865998Y-93489000D01*
X130865998Y-93498952D01*
X130748820Y-93534498D01*
X130723770Y-93547887D01*
X130699787Y-93529565D01*
X130498580Y-93600454D01*
X130319126Y-93715521D01*
X130165569Y-93863387D01*
X130043810Y-94038369D01*
X129958528Y-94233743D01*
X129913000Y-94442000D01*
X129913000Y-94772000D01*
X133366000Y-94772000D01*
X133366000Y-94752000D01*
X133620000Y-94752000D01*
X133620000Y-94772000D01*
X135366000Y-94772000D01*
X135366000Y-94752000D01*
X135620000Y-94752000D01*
X135620000Y-94772000D01*
X139073000Y-94772000D01*
X139073000Y-94442000D01*
X139027472Y-94233743D01*
X138942190Y-94038369D01*
X138820431Y-93863387D01*
X138666874Y-93715521D01*
X138487420Y-93600454D01*
X138286213Y-93529565D01*
X138262230Y-93547887D01*
X138237180Y-93534498D01*
X138120002Y-93498952D01*
X138120002Y-93489000D01*
X138024192Y-93489000D01*
X137993000Y-93485928D01*
X137678750Y-93489000D01*
X137604675Y-93563075D01*
X137498580Y-93600454D01*
X137319126Y-93715521D01*
X137266000Y-93766678D01*
X137266000Y-93647750D01*
X137107250Y-93489000D01*
X136793000Y-93485928D01*
X136668518Y-93498188D01*
X136548820Y-93534498D01*
X136518000Y-93550972D01*
X136487180Y-93534498D01*
X136367482Y-93498188D01*
X136243000Y-93485928D01*
X136162629Y-93486460D01*
X136246576Y-93459521D01*
X136355933Y-93398800D01*
X136451343Y-93317912D01*
X136501515Y-93254743D01*
X136691869Y-93300230D01*
X136866000Y-93151564D01*
X136866000Y-92326000D01*
X137120000Y-92326000D01*
X137120000Y-93151564D01*
X137294131Y-93300230D01*
X137506066Y-93249586D01*
X137704049Y-93158569D01*
X137880471Y-93030676D01*
X138028553Y-92870822D01*
X138142603Y-92685150D01*
X138212268Y-92496938D01*
X138085734Y-92326000D01*
X137120000Y-92326000D01*
X136866000Y-92326000D01*
X136846000Y-92326000D01*
X136846000Y-92072000D01*
X136866000Y-92072000D01*
X136866000Y-91246436D01*
X137120000Y-91246436D01*
X137120000Y-92072000D01*
X138085734Y-92072000D01*
X138212268Y-91901062D01*
X138142603Y-91712850D01*
X138028553Y-91527178D01*
X137880471Y-91367324D01*
X137704049Y-91239431D01*
X137506066Y-91148414D01*
X137294131Y-91097770D01*
X137120000Y-91246436D01*
X136866000Y-91246436D01*
X136691869Y-91097770D01*
X136501515Y-91143257D01*
X136451343Y-91080088D01*
X136355933Y-90999200D01*
X136246576Y-90938479D01*
X136127474Y-90900259D01*
X136024750Y-90889000D01*
X135866000Y-91047750D01*
X135866000Y-91160322D01*
X135794185Y-91072815D01*
X135697494Y-90993463D01*
X135629218Y-90956968D01*
X135561250Y-90889000D01*
X135470120Y-90898988D01*
X135467482Y-90898188D01*
X135343000Y-90885928D01*
X135328000Y-90885928D01*
X135328000Y-90061573D01*
X135360742Y-90122829D01*
X135458749Y-90242251D01*
X135578171Y-90340258D01*
X135714418Y-90413084D01*
X135862255Y-90457929D01*
X136016000Y-90473072D01*
X137666000Y-90473072D01*
X137819745Y-90457929D01*
X137967582Y-90413084D01*
X138103829Y-90340258D01*
X138223251Y-90242251D01*
X138321258Y-90122829D01*
X138394084Y-89986582D01*
X138438929Y-89838745D01*
X138454072Y-89685000D01*
X138454072Y-89385000D01*
X138438929Y-89231255D01*
X138394084Y-89083418D01*
X138321258Y-88947171D01*
X138282546Y-88900000D01*
X138321258Y-88852829D01*
X138394084Y-88716582D01*
X138438929Y-88568745D01*
X138454072Y-88415000D01*
X138454072Y-88115000D01*
X138438929Y-87961255D01*
X138394084Y-87813418D01*
X138321258Y-87677171D01*
X138282546Y-87630000D01*
X138321258Y-87582829D01*
X138394084Y-87446582D01*
X138438929Y-87298745D01*
X138454072Y-87145000D01*
X138454072Y-86845000D01*
X138438929Y-86691255D01*
X138394084Y-86543418D01*
X138321258Y-86407171D01*
X138282546Y-86360000D01*
X138321258Y-86312829D01*
X138394084Y-86176582D01*
X138438929Y-86028745D01*
X138454072Y-85875000D01*
X138454072Y-85575000D01*
X138438929Y-85421255D01*
X138394084Y-85273418D01*
X138321258Y-85137171D01*
X138282546Y-85090000D01*
X138321258Y-85042829D01*
X138394084Y-84906582D01*
X138438929Y-84758745D01*
X138454072Y-84605000D01*
X138454072Y-84505630D01*
X138777436Y-84182266D01*
X138809301Y-84156115D01*
X138913646Y-84028970D01*
X138991182Y-83883911D01*
X139038928Y-83726513D01*
X139051010Y-83603843D01*
X139051010Y-83603833D01*
X139055049Y-83562825D01*
X139051010Y-83521817D01*
X139051010Y-78950072D01*
X139912000Y-78950072D01*
X140036482Y-78937812D01*
X140156180Y-78901502D01*
X140266494Y-78842537D01*
X140363185Y-78763185D01*
X140442537Y-78666494D01*
X140501502Y-78556180D01*
X140537812Y-78436482D01*
X140550072Y-78312000D01*
X140550072Y-77800095D01*
X140560815Y-77813185D01*
X140657506Y-77892537D01*
X140767820Y-77951502D01*
X140887518Y-77987812D01*
X141012000Y-78000072D01*
X141912000Y-78000072D01*
X142036482Y-77987812D01*
X142156180Y-77951502D01*
X142266494Y-77892537D01*
X142363185Y-77813185D01*
X142442537Y-77716494D01*
X142501502Y-77606180D01*
X142537812Y-77486482D01*
X142550072Y-77362000D01*
X142550072Y-76562000D01*
X142537812Y-76437518D01*
X142501502Y-76317820D01*
X142442537Y-76207506D01*
X142363185Y-76110815D01*
X142300783Y-76059604D01*
X142301040Y-76056999D01*
X142284918Y-75893311D01*
X142237172Y-75735913D01*
X142159636Y-75590854D01*
X142122706Y-75545855D01*
X142055291Y-75463709D01*
X142023428Y-75437560D01*
X141603868Y-75018000D01*
X141605002Y-75018000D01*
X141605002Y-74859252D01*
X141763750Y-75018000D01*
X142328000Y-75021072D01*
X142452482Y-75008812D01*
X142572180Y-74972502D01*
X142682494Y-74913537D01*
X142779185Y-74834185D01*
X142858537Y-74737494D01*
X142917502Y-74627180D01*
X142953812Y-74507482D01*
X142966072Y-74383000D01*
X142963000Y-73818750D01*
X142804250Y-73660000D01*
X141605000Y-73660000D01*
X141605000Y-73680000D01*
X141351000Y-73680000D01*
X141351000Y-73660000D01*
X141331000Y-73660000D01*
X141331000Y-73406000D01*
X141351000Y-73406000D01*
X141351000Y-72206750D01*
X141605000Y-72206750D01*
X141605000Y-73406000D01*
X142804250Y-73406000D01*
X142963000Y-73247250D01*
X142966072Y-72683000D01*
X142953812Y-72558518D01*
X142917502Y-72438820D01*
X142858537Y-72328506D01*
X142779185Y-72231815D01*
X142682494Y-72152463D01*
X142572180Y-72093498D01*
X142452482Y-72057188D01*
X142328000Y-72044928D01*
X141763750Y-72048000D01*
X141605000Y-72206750D01*
X141351000Y-72206750D01*
X141192250Y-72048000D01*
X140628000Y-72044928D01*
X140503518Y-72057188D01*
X140383820Y-72093498D01*
X140273506Y-72152463D01*
X140176815Y-72231815D01*
X140097463Y-72328506D01*
X140038498Y-72438820D01*
X140016487Y-72511380D01*
X139884632Y-72379525D01*
X139641411Y-72217010D01*
X139371158Y-72105068D01*
X139084260Y-72048000D01*
X138791740Y-72048000D01*
X138504842Y-72105068D01*
X138234589Y-72217010D01*
X137991368Y-72379525D01*
X137784525Y-72586368D01*
X137668000Y-72760760D01*
X137551475Y-72586368D01*
X137344632Y-72379525D01*
X137101411Y-72217010D01*
X136831158Y-72105068D01*
X136544260Y-72048000D01*
X136251740Y-72048000D01*
X135964842Y-72105068D01*
X135694589Y-72217010D01*
X135451368Y-72379525D01*
X135244525Y-72586368D01*
X135128000Y-72760760D01*
X135011475Y-72586368D01*
X134804632Y-72379525D01*
X134561411Y-72217010D01*
X134291158Y-72105068D01*
X134004260Y-72048000D01*
X133711740Y-72048000D01*
X133424842Y-72105068D01*
X133154589Y-72217010D01*
X132911368Y-72379525D01*
X132704525Y-72586368D01*
X132588000Y-72760760D01*
X132471475Y-72586368D01*
X132264632Y-72379525D01*
X132021411Y-72217010D01*
X131751158Y-72105068D01*
X131464260Y-72048000D01*
X131171740Y-72048000D01*
X130884842Y-72105068D01*
X130614589Y-72217010D01*
X130371368Y-72379525D01*
X130164525Y-72586368D01*
X130048000Y-72760760D01*
X129931475Y-72586368D01*
X129724632Y-72379525D01*
X129481411Y-72217010D01*
X129211158Y-72105068D01*
X128924260Y-72048000D01*
X128631740Y-72048000D01*
X128344842Y-72105068D01*
X128074589Y-72217010D01*
X127831368Y-72379525D01*
X127624525Y-72586368D01*
X127508000Y-72760760D01*
X127391475Y-72586368D01*
X127184632Y-72379525D01*
X126941411Y-72217010D01*
X126671158Y-72105068D01*
X126384260Y-72048000D01*
X126091740Y-72048000D01*
X125804842Y-72105068D01*
X125534589Y-72217010D01*
X125291368Y-72379525D01*
X125084525Y-72586368D01*
X124922010Y-72829589D01*
X124810068Y-73099842D01*
X124753000Y-73386740D01*
X124753000Y-73679260D01*
X124810068Y-73966158D01*
X124922010Y-74236411D01*
X125084525Y-74479632D01*
X125291368Y-74686475D01*
X125534589Y-74848990D01*
X125804842Y-74960932D01*
X125922742Y-74984384D01*
X125802613Y-75048595D01*
X125668038Y-75159038D01*
X125557595Y-75293613D01*
X125475528Y-75447148D01*
X125424992Y-75613744D01*
X125407928Y-75786998D01*
X125407928Y-76312002D01*
X125424992Y-76485256D01*
X125475528Y-76651852D01*
X125557595Y-76805387D01*
X125668038Y-76939962D01*
X125694891Y-76962000D01*
X125668038Y-76984038D01*
X125557595Y-77118613D01*
X125475528Y-77272148D01*
X125424992Y-77438744D01*
X125407928Y-77611998D01*
X125407928Y-78137002D01*
X125424992Y-78310256D01*
X125475528Y-78476852D01*
X125557595Y-78630387D01*
X125668038Y-78764962D01*
X125802613Y-78875405D01*
X125956148Y-78957472D01*
X126122744Y-79008008D01*
X126295998Y-79025072D01*
X126715705Y-79025072D01*
X128116892Y-80426260D01*
X128024000Y-80424928D01*
X127899518Y-80437188D01*
X127779820Y-80473498D01*
X127669506Y-80532463D01*
X127572815Y-80611815D01*
X127507342Y-80691594D01*
X127501962Y-80685038D01*
X127367386Y-80574595D01*
X127213850Y-80492528D01*
X127047254Y-80441992D01*
X126874000Y-80424928D01*
X126374000Y-80424928D01*
X126200746Y-80441992D01*
X126034150Y-80492528D01*
X125880614Y-80574595D01*
X125746038Y-80685038D01*
X125635595Y-80819614D01*
X125553528Y-80973150D01*
X125502992Y-81139746D01*
X125485928Y-81313000D01*
X125485928Y-82263000D01*
X125502992Y-82436254D01*
X125553528Y-82602850D01*
X125635595Y-82756386D01*
X125642968Y-82765370D01*
X125603506Y-82786463D01*
X125506815Y-82865815D01*
X125427463Y-82962506D01*
X125368498Y-83072820D01*
X125332188Y-83192518D01*
X125319928Y-83317000D01*
X125319928Y-84074205D01*
X124996573Y-84397560D01*
X124964709Y-84423710D01*
X124938561Y-84455572D01*
X124860363Y-84550856D01*
X124782827Y-84695915D01*
X124735081Y-84853313D01*
X124718959Y-85017001D01*
X124612000Y-85017001D01*
X124612000Y-72930279D01*
X124641234Y-72632125D01*
X124718448Y-72376378D01*
X124843869Y-72140496D01*
X125012716Y-71933470D01*
X125218554Y-71763187D01*
X125453556Y-71636121D01*
X125708756Y-71557124D01*
X126004882Y-71526000D01*
X141699721Y-71526000D01*
X141997875Y-71555234D01*
G37*
%TD.AperFunction*%
D22*
X126685000Y-86290000D02*
X126705000Y-86290000D01*
X126705000Y-86544000D01*
X126685000Y-86544000D01*
X126685000Y-88646000D01*
X126705000Y-88646000D01*
X126705000Y-88900000D01*
X126685000Y-88900000D01*
X126685000Y-88920000D01*
X126431000Y-88920000D01*
X126431000Y-88900000D01*
X126411000Y-88900000D01*
X126411000Y-88646000D01*
X126431000Y-88646000D01*
X126431000Y-86544000D01*
X126411000Y-86544000D01*
X126411000Y-86290000D01*
X126431000Y-86290000D01*
X126431000Y-86270000D01*
X126685000Y-86270000D01*
X126685000Y-86290000D01*
%TA.AperFunction,Conductor*%
D23*
G36*
X126685000Y-86290000D02*
G01*
X126705000Y-86290000D01*
X126705000Y-86544000D01*
X126685000Y-86544000D01*
X126685000Y-88646000D01*
X126705000Y-88646000D01*
X126705000Y-88900000D01*
X126685000Y-88900000D01*
X126685000Y-88920000D01*
X126431000Y-88920000D01*
X126431000Y-88900000D01*
X126411000Y-88900000D01*
X126411000Y-88646000D01*
X126431000Y-88646000D01*
X126431000Y-86544000D01*
X126411000Y-86544000D01*
X126411000Y-86290000D01*
X126431000Y-86290000D01*
X126431000Y-86270000D01*
X126685000Y-86270000D01*
X126685000Y-86290000D01*
G37*
%TD.AperFunction*%
D22*
X128651000Y-81661000D02*
X128671000Y-81661000D01*
X128671000Y-81915000D01*
X128651000Y-81915000D01*
X128651000Y-82774750D01*
X128585000Y-82840750D01*
X128585000Y-83890000D01*
X129534250Y-83890000D01*
X129693000Y-83731250D01*
X129696072Y-83317000D01*
X129683812Y-83192518D01*
X129647502Y-83072820D01*
X129588537Y-82962506D01*
X129532550Y-82894285D01*
X129554537Y-82867494D01*
X129613502Y-82757180D01*
X129649812Y-82637482D01*
X129662072Y-82513000D01*
X129659000Y-82073750D01*
X129500252Y-81915002D01*
X129605633Y-81915002D01*
X130167063Y-82476432D01*
X130193209Y-82508291D01*
X130225068Y-82534437D01*
X130225070Y-82534439D01*
X130320354Y-82612636D01*
X130384227Y-82646777D01*
X130337916Y-82733418D01*
X130293071Y-82881255D01*
X130277928Y-83035000D01*
X130277928Y-83335000D01*
X130293071Y-83488745D01*
X130337916Y-83636582D01*
X130410742Y-83772829D01*
X130449454Y-83820000D01*
X130410742Y-83867171D01*
X130337916Y-84003418D01*
X130293071Y-84151255D01*
X130277928Y-84305000D01*
X130277928Y-84605000D01*
X130293071Y-84758745D01*
X130337916Y-84906582D01*
X130410742Y-85042829D01*
X130449454Y-85090000D01*
X130410742Y-85137171D01*
X130337916Y-85273418D01*
X130293071Y-85421255D01*
X130277928Y-85575000D01*
X130277928Y-85875000D01*
X130293071Y-86028745D01*
X130337916Y-86176582D01*
X130410742Y-86312829D01*
X130449454Y-86360000D01*
X130410742Y-86407171D01*
X130337916Y-86543418D01*
X130293071Y-86691255D01*
X130277928Y-86845000D01*
X130277928Y-87056060D01*
X129696072Y-86474204D01*
X129696072Y-85717000D01*
X129683812Y-85592518D01*
X129647502Y-85472820D01*
X129588537Y-85362506D01*
X129509185Y-85265815D01*
X129449704Y-85217000D01*
X129509185Y-85168185D01*
X129588537Y-85071494D01*
X129647502Y-84961180D01*
X129683812Y-84841482D01*
X129696072Y-84717000D01*
X129693000Y-84302750D01*
X129534250Y-84144000D01*
X128585000Y-84144000D01*
X128585000Y-84164000D01*
X128331000Y-84164000D01*
X128331000Y-84144000D01*
X128311000Y-84144000D01*
X128311000Y-83890000D01*
X128331000Y-83890000D01*
X128331000Y-83055250D01*
X128397000Y-82989250D01*
X128397000Y-81915000D01*
X128377000Y-81915000D01*
X128377000Y-81661000D01*
X128397000Y-81661000D01*
X128397000Y-81641000D01*
X128651000Y-81641000D01*
X128651000Y-81661000D01*
%TA.AperFunction,Conductor*%
D23*
G36*
X128651000Y-81661000D02*
G01*
X128671000Y-81661000D01*
X128671000Y-81915000D01*
X128651000Y-81915000D01*
X128651000Y-82774750D01*
X128585000Y-82840750D01*
X128585000Y-83890000D01*
X129534250Y-83890000D01*
X129693000Y-83731250D01*
X129696072Y-83317000D01*
X129683812Y-83192518D01*
X129647502Y-83072820D01*
X129588537Y-82962506D01*
X129532550Y-82894285D01*
X129554537Y-82867494D01*
X129613502Y-82757180D01*
X129649812Y-82637482D01*
X129662072Y-82513000D01*
X129659000Y-82073750D01*
X129500252Y-81915002D01*
X129605633Y-81915002D01*
X130167063Y-82476432D01*
X130193209Y-82508291D01*
X130225068Y-82534437D01*
X130225070Y-82534439D01*
X130320354Y-82612636D01*
X130384227Y-82646777D01*
X130337916Y-82733418D01*
X130293071Y-82881255D01*
X130277928Y-83035000D01*
X130277928Y-83335000D01*
X130293071Y-83488745D01*
X130337916Y-83636582D01*
X130410742Y-83772829D01*
X130449454Y-83820000D01*
X130410742Y-83867171D01*
X130337916Y-84003418D01*
X130293071Y-84151255D01*
X130277928Y-84305000D01*
X130277928Y-84605000D01*
X130293071Y-84758745D01*
X130337916Y-84906582D01*
X130410742Y-85042829D01*
X130449454Y-85090000D01*
X130410742Y-85137171D01*
X130337916Y-85273418D01*
X130293071Y-85421255D01*
X130277928Y-85575000D01*
X130277928Y-85875000D01*
X130293071Y-86028745D01*
X130337916Y-86176582D01*
X130410742Y-86312829D01*
X130449454Y-86360000D01*
X130410742Y-86407171D01*
X130337916Y-86543418D01*
X130293071Y-86691255D01*
X130277928Y-86845000D01*
X130277928Y-87056060D01*
X129696072Y-86474204D01*
X129696072Y-85717000D01*
X129683812Y-85592518D01*
X129647502Y-85472820D01*
X129588537Y-85362506D01*
X129509185Y-85265815D01*
X129449704Y-85217000D01*
X129509185Y-85168185D01*
X129588537Y-85071494D01*
X129647502Y-84961180D01*
X129683812Y-84841482D01*
X129696072Y-84717000D01*
X129693000Y-84302750D01*
X129534250Y-84144000D01*
X128585000Y-84144000D01*
X128585000Y-84164000D01*
X128331000Y-84164000D01*
X128331000Y-84144000D01*
X128311000Y-84144000D01*
X128311000Y-83890000D01*
X128331000Y-83890000D01*
X128331000Y-83055250D01*
X128397000Y-82989250D01*
X128397000Y-81915000D01*
X128377000Y-81915000D01*
X128377000Y-81661000D01*
X128397000Y-81661000D01*
X128397000Y-81641000D01*
X128651000Y-81641000D01*
X128651000Y-81661000D01*
G37*
%TD.AperFunction*%
D22*
X132249806Y-79709674D02*
X132176750Y-79710000D01*
X132018000Y-79868750D01*
X132018000Y-80518000D01*
X132038000Y-80518000D01*
X132038000Y-80772000D01*
X132018000Y-80772000D01*
X132018000Y-80792000D01*
X131764000Y-80792000D01*
X131764000Y-80772000D01*
X131744000Y-80772000D01*
X131744000Y-80518000D01*
X131764000Y-80518000D01*
X131764000Y-79868750D01*
X131605250Y-79710000D01*
X130916000Y-79706928D01*
X130791518Y-79719188D01*
X130671820Y-79755498D01*
X130561506Y-79814463D01*
X130464815Y-79893815D01*
X130385463Y-79990506D01*
X130326498Y-80100820D01*
X130290188Y-80220518D01*
X130288637Y-80236268D01*
X129076068Y-79023700D01*
X129089998Y-79025072D01*
X129990002Y-79025072D01*
X130163256Y-79008008D01*
X130329852Y-78957472D01*
X130483387Y-78875405D01*
X130617962Y-78764962D01*
X130663479Y-78709500D01*
X131249633Y-78709500D01*
X132249806Y-79709674D01*
%TA.AperFunction,Conductor*%
D23*
G36*
X132249806Y-79709674D02*
G01*
X132176750Y-79710000D01*
X132018000Y-79868750D01*
X132018000Y-80518000D01*
X132038000Y-80518000D01*
X132038000Y-80772000D01*
X132018000Y-80772000D01*
X132018000Y-80792000D01*
X131764000Y-80792000D01*
X131764000Y-80772000D01*
X131744000Y-80772000D01*
X131744000Y-80518000D01*
X131764000Y-80518000D01*
X131764000Y-79868750D01*
X131605250Y-79710000D01*
X130916000Y-79706928D01*
X130791518Y-79719188D01*
X130671820Y-79755498D01*
X130561506Y-79814463D01*
X130464815Y-79893815D01*
X130385463Y-79990506D01*
X130326498Y-80100820D01*
X130290188Y-80220518D01*
X130288637Y-80236268D01*
X129076068Y-79023700D01*
X129089998Y-79025072D01*
X129990002Y-79025072D01*
X130163256Y-79008008D01*
X130329852Y-78957472D01*
X130483387Y-78875405D01*
X130617962Y-78764962D01*
X130663479Y-78709500D01*
X131249633Y-78709500D01*
X132249806Y-79709674D01*
G37*
%TD.AperFunction*%
%TD*%
M02*
