%TF.GenerationSoftware,KiCad,Pcbnew,(5.1.7)-1*%
%TF.CreationDate,2021-02-24T18:36:54+01:00*%
%TF.ProjectId,Temperature-controller-with-ESP8266,54656d70-6572-4617-9475-72652d636f6e,rev?*%
%TF.SameCoordinates,Original*%
%TF.FileFunction,Copper,L2,Bot*%
%TF.FilePolarity,Positive*%
%FSLAX46Y46*%
G04 Gerber Fmt 4.6, Leading zero omitted, Abs format (unit mm)*
G04 Created by KiCad (PCBNEW (5.1.7)-1) date 2021-02-24 18:36:54*
%MOMM*%
%LPD*%
G01*
G04 APERTURE LIST*
%TA.AperFunction,ComponentPad*%
%ADD10O,1.250000X0.950000*%
%TD*%
%TA.AperFunction,ComponentPad*%
%ADD11O,0.890000X1.550000*%
%TD*%
%TA.AperFunction,SMDPad,CuDef*%
%ADD12R,2.000000X3.800000*%
%TD*%
%TA.AperFunction,SMDPad,CuDef*%
%ADD13R,2.000000X1.500000*%
%TD*%
%TA.AperFunction,ComponentPad*%
%ADD14R,1.700000X1.700000*%
%TD*%
%TA.AperFunction,ComponentPad*%
%ADD15O,1.700000X1.700000*%
%TD*%
%TA.AperFunction,ViaPad*%
%ADD16C,0.800000*%
%TD*%
%TA.AperFunction,Conductor*%
%ADD17C,0.400000*%
%TD*%
%TA.AperFunction,Conductor*%
%ADD18C,0.254000*%
%TD*%
%TA.AperFunction,Conductor*%
%ADD19C,0.100000*%
%TD*%
G04 APERTURE END LIST*
%TO.P,C7,1*%
%TO.N,Net-(C7-Pad1)*%
%TA.AperFunction,SMDPad,CuDef*%
G36*
G01*
X131646000Y-89756000D02*
X131646000Y-88806000D01*
G75*
G02*
X131896000Y-88556000I250000J0D01*
G01*
X132396000Y-88556000D01*
G75*
G02*
X132646000Y-88806000I0J-250000D01*
G01*
X132646000Y-89756000D01*
G75*
G02*
X132396000Y-90006000I-250000J0D01*
G01*
X131896000Y-90006000D01*
G75*
G02*
X131646000Y-89756000I0J250000D01*
G01*
G37*
%TD.AperFunction*%
%TO.P,C7,2*%
%TO.N,Net-(C5-Pad2)*%
%TA.AperFunction,SMDPad,CuDef*%
G36*
G01*
X133546000Y-89756000D02*
X133546000Y-88806000D01*
G75*
G02*
X133796000Y-88556000I250000J0D01*
G01*
X134296000Y-88556000D01*
G75*
G02*
X134546000Y-88806000I0J-250000D01*
G01*
X134546000Y-89756000D01*
G75*
G02*
X134296000Y-90006000I-250000J0D01*
G01*
X133796000Y-90006000D01*
G75*
G02*
X133546000Y-89756000I0J250000D01*
G01*
G37*
%TD.AperFunction*%
%TD*%
%TO.P,C8,2*%
%TO.N,Net-(C5-Pad2)*%
%TA.AperFunction,SMDPad,CuDef*%
G36*
G01*
X137610000Y-89756000D02*
X137610000Y-88806000D01*
G75*
G02*
X137860000Y-88556000I250000J0D01*
G01*
X138360000Y-88556000D01*
G75*
G02*
X138610000Y-88806000I0J-250000D01*
G01*
X138610000Y-89756000D01*
G75*
G02*
X138360000Y-90006000I-250000J0D01*
G01*
X137860000Y-90006000D01*
G75*
G02*
X137610000Y-89756000I0J250000D01*
G01*
G37*
%TD.AperFunction*%
%TO.P,C8,1*%
%TO.N,Net-(C8-Pad1)*%
%TA.AperFunction,SMDPad,CuDef*%
G36*
G01*
X135710000Y-89756000D02*
X135710000Y-88806000D01*
G75*
G02*
X135960000Y-88556000I250000J0D01*
G01*
X136460000Y-88556000D01*
G75*
G02*
X136710000Y-88806000I0J-250000D01*
G01*
X136710000Y-89756000D01*
G75*
G02*
X136460000Y-90006000I-250000J0D01*
G01*
X135960000Y-90006000D01*
G75*
G02*
X135710000Y-89756000I0J250000D01*
G01*
G37*
%TD.AperFunction*%
%TD*%
D10*
%TO.P,J11,6*%
%TO.N,Net-(C5-Pad2)*%
X131993000Y-92199000D03*
X136993000Y-92199000D03*
D11*
X130993000Y-94899000D03*
X137993000Y-94899000D03*
%TD*%
D12*
%TO.P,U8,2*%
%TO.N,Net-(C8-Pad1)*%
X138405000Y-83820000D03*
D13*
X132105000Y-83820000D03*
%TO.P,U8,3*%
%TO.N,Net-(C7-Pad1)*%
X132105000Y-81520000D03*
%TO.P,U8,1*%
%TO.N,Net-(C5-Pad2)*%
X132105000Y-86120000D03*
%TD*%
D14*
%TO.P,J12,1*%
%TO.N,Net-(C5-Pad2)*%
X141478000Y-73533000D03*
D15*
%TO.P,J12,2*%
%TO.N,Net-(J12-Pad2)*%
X138938000Y-73533000D03*
%TO.P,J12,3*%
%TO.N,Net-(J12-Pad3)*%
X136398000Y-73533000D03*
%TO.P,J12,4*%
%TO.N,Net-(J12-Pad4)*%
X133858000Y-73533000D03*
%TO.P,J12,5*%
%TO.N,Net-(J12-Pad5)*%
X131318000Y-73533000D03*
%TO.P,J12,6*%
%TO.N,Net-(C8-Pad1)*%
X128778000Y-73533000D03*
%TO.P,J12,7*%
%TO.N,Net-(C7-Pad1)*%
X126238000Y-73533000D03*
%TD*%
D16*
%TO.N,Net-(C7-Pad1)*%
X128651000Y-91948000D03*
%TO.N,Net-(C8-Pad1)*%
X134874000Y-79629000D03*
X134493000Y-84709000D03*
%TO.N,Net-(C5-Pad2)*%
X139573000Y-79375000D03*
X129921000Y-84074000D03*
X131191000Y-79248000D03*
%TD*%
D17*
%TO.N,Net-(C7-Pad1)*%
X132105000Y-81520000D02*
X128383000Y-81520000D01*
X128383000Y-81520000D02*
X126238000Y-79375000D01*
X131318000Y-89281000D02*
X128651000Y-91948000D01*
X132146000Y-89281000D02*
X131318000Y-89281000D01*
X128383000Y-91680000D02*
X128651000Y-91948000D01*
X128383000Y-81520000D02*
X128383000Y-91680000D01*
X126238000Y-73533000D02*
X126238000Y-79375000D01*
%TO.N,Net-(C8-Pad1)*%
X136210000Y-86015000D02*
X138405000Y-83820000D01*
X136210000Y-89281000D02*
X136210000Y-86015000D01*
X138405000Y-83160000D02*
X134874000Y-79629000D01*
X138405000Y-83820000D02*
X138405000Y-83160000D01*
X129790999Y-80175001D02*
X128778000Y-79162002D01*
X134327999Y-80175001D02*
X129790999Y-80175001D01*
X134874000Y-79629000D02*
X134327999Y-80175001D01*
X134493000Y-83947000D02*
X134620000Y-83820000D01*
X134493000Y-84709000D02*
X134493000Y-83947000D01*
X134620000Y-83820000D02*
X138405000Y-83820000D01*
X132105000Y-83820000D02*
X134620000Y-83820000D01*
X128778000Y-73533000D02*
X128778000Y-79162002D01*
%TO.N,Net-(C5-Pad2)*%
X138110000Y-91082000D02*
X136993000Y-92199000D01*
X138110000Y-89281000D02*
X138110000Y-91082000D01*
X134046000Y-88061000D02*
X132105000Y-86120000D01*
X134046000Y-89281000D02*
X134046000Y-88061000D01*
%TD*%
D18*
%TO.N,Net-(C5-Pad2)*%
X141997875Y-71555234D02*
X142253622Y-71632448D01*
X142489504Y-71757869D01*
X142696530Y-71926716D01*
X142866813Y-72132554D01*
X142993879Y-72367556D01*
X143072876Y-72622756D01*
X143104001Y-72918891D01*
X143104000Y-95344721D01*
X143074766Y-95642876D01*
X142997551Y-95898624D01*
X142872131Y-96134504D01*
X142703289Y-96341525D01*
X142497446Y-96511813D01*
X142262444Y-96638879D01*
X142007240Y-96717877D01*
X141711118Y-96749000D01*
X126016279Y-96749000D01*
X125718124Y-96719766D01*
X125462376Y-96642551D01*
X125226496Y-96517131D01*
X125019475Y-96348289D01*
X124849187Y-96142446D01*
X124722121Y-95907444D01*
X124643123Y-95652240D01*
X124612000Y-95356118D01*
X124612000Y-95026000D01*
X129913000Y-95026000D01*
X129913000Y-95356000D01*
X129958528Y-95564257D01*
X130043810Y-95759631D01*
X130165569Y-95934613D01*
X130319126Y-96082479D01*
X130498580Y-96197546D01*
X130699787Y-96268435D01*
X130866000Y-96141454D01*
X130866000Y-95026000D01*
X131120000Y-95026000D01*
X131120000Y-96141454D01*
X131286213Y-96268435D01*
X131487420Y-96197546D01*
X131666874Y-96082479D01*
X131820431Y-95934613D01*
X131942190Y-95759631D01*
X132027472Y-95564257D01*
X132073000Y-95356000D01*
X132073000Y-95026000D01*
X136913000Y-95026000D01*
X136913000Y-95356000D01*
X136958528Y-95564257D01*
X137043810Y-95759631D01*
X137165569Y-95934613D01*
X137319126Y-96082479D01*
X137498580Y-96197546D01*
X137699787Y-96268435D01*
X137866000Y-96141454D01*
X137866000Y-95026000D01*
X138120000Y-95026000D01*
X138120000Y-96141454D01*
X138286213Y-96268435D01*
X138487420Y-96197546D01*
X138666874Y-96082479D01*
X138820431Y-95934613D01*
X138942190Y-95759631D01*
X139027472Y-95564257D01*
X139073000Y-95356000D01*
X139073000Y-95026000D01*
X138120000Y-95026000D01*
X137866000Y-95026000D01*
X136913000Y-95026000D01*
X132073000Y-95026000D01*
X131120000Y-95026000D01*
X130866000Y-95026000D01*
X129913000Y-95026000D01*
X124612000Y-95026000D01*
X124612000Y-94442000D01*
X129913000Y-94442000D01*
X129913000Y-94772000D01*
X130866000Y-94772000D01*
X130866000Y-93656546D01*
X131120000Y-93656546D01*
X131120000Y-94772000D01*
X132073000Y-94772000D01*
X132073000Y-94442000D01*
X136913000Y-94442000D01*
X136913000Y-94772000D01*
X137866000Y-94772000D01*
X137866000Y-93656546D01*
X138120000Y-93656546D01*
X138120000Y-94772000D01*
X139073000Y-94772000D01*
X139073000Y-94442000D01*
X139027472Y-94233743D01*
X138942190Y-94038369D01*
X138820431Y-93863387D01*
X138666874Y-93715521D01*
X138487420Y-93600454D01*
X138286213Y-93529565D01*
X138120000Y-93656546D01*
X137866000Y-93656546D01*
X137699787Y-93529565D01*
X137498580Y-93600454D01*
X137319126Y-93715521D01*
X137165569Y-93863387D01*
X137043810Y-94038369D01*
X136958528Y-94233743D01*
X136913000Y-94442000D01*
X132073000Y-94442000D01*
X132027472Y-94233743D01*
X131942190Y-94038369D01*
X131820431Y-93863387D01*
X131666874Y-93715521D01*
X131487420Y-93600454D01*
X131286213Y-93529565D01*
X131120000Y-93656546D01*
X130866000Y-93656546D01*
X130699787Y-93529565D01*
X130498580Y-93600454D01*
X130319126Y-93715521D01*
X130165569Y-93863387D01*
X130043810Y-94038369D01*
X129958528Y-94233743D01*
X129913000Y-94442000D01*
X124612000Y-94442000D01*
X124612000Y-73386740D01*
X124753000Y-73386740D01*
X124753000Y-73679260D01*
X124810068Y-73966158D01*
X124922010Y-74236411D01*
X125084525Y-74479632D01*
X125291368Y-74686475D01*
X125403000Y-74761065D01*
X125403001Y-79333972D01*
X125398960Y-79375000D01*
X125415082Y-79538688D01*
X125462828Y-79696086D01*
X125514464Y-79792689D01*
X125540365Y-79841146D01*
X125644710Y-79968291D01*
X125676574Y-79994441D01*
X127548000Y-81865868D01*
X127548001Y-91638971D01*
X127543960Y-91680000D01*
X127560082Y-91843688D01*
X127607828Y-92001086D01*
X127616000Y-92016375D01*
X127616000Y-92049939D01*
X127655774Y-92249898D01*
X127733795Y-92438256D01*
X127847063Y-92607774D01*
X127991226Y-92751937D01*
X128160744Y-92865205D01*
X128349102Y-92943226D01*
X128549061Y-92983000D01*
X128752939Y-92983000D01*
X128952898Y-92943226D01*
X129141256Y-92865205D01*
X129310774Y-92751937D01*
X129454937Y-92607774D01*
X129528995Y-92496938D01*
X130773732Y-92496938D01*
X130843397Y-92685150D01*
X130957447Y-92870822D01*
X131105529Y-93030676D01*
X131281951Y-93158569D01*
X131479934Y-93249586D01*
X131691869Y-93300230D01*
X131866000Y-93151564D01*
X131866000Y-92326000D01*
X132120000Y-92326000D01*
X132120000Y-93151564D01*
X132294131Y-93300230D01*
X132506066Y-93249586D01*
X132704049Y-93158569D01*
X132880471Y-93030676D01*
X133028553Y-92870822D01*
X133142603Y-92685150D01*
X133212268Y-92496938D01*
X135773732Y-92496938D01*
X135843397Y-92685150D01*
X135957447Y-92870822D01*
X136105529Y-93030676D01*
X136281951Y-93158569D01*
X136479934Y-93249586D01*
X136691869Y-93300230D01*
X136866000Y-93151564D01*
X136866000Y-92326000D01*
X137120000Y-92326000D01*
X137120000Y-93151564D01*
X137294131Y-93300230D01*
X137506066Y-93249586D01*
X137704049Y-93158569D01*
X137880471Y-93030676D01*
X138028553Y-92870822D01*
X138142603Y-92685150D01*
X138212268Y-92496938D01*
X138085734Y-92326000D01*
X137120000Y-92326000D01*
X136866000Y-92326000D01*
X135900266Y-92326000D01*
X135773732Y-92496938D01*
X133212268Y-92496938D01*
X133085734Y-92326000D01*
X132120000Y-92326000D01*
X131866000Y-92326000D01*
X130900266Y-92326000D01*
X130773732Y-92496938D01*
X129528995Y-92496938D01*
X129568205Y-92438256D01*
X129646226Y-92249898D01*
X129675093Y-92104775D01*
X129878806Y-91901062D01*
X130773732Y-91901062D01*
X130900266Y-92072000D01*
X131866000Y-92072000D01*
X131866000Y-91246436D01*
X132120000Y-91246436D01*
X132120000Y-92072000D01*
X133085734Y-92072000D01*
X133212268Y-91901062D01*
X135773732Y-91901062D01*
X135900266Y-92072000D01*
X136866000Y-92072000D01*
X136866000Y-91246436D01*
X137120000Y-91246436D01*
X137120000Y-92072000D01*
X138085734Y-92072000D01*
X138212268Y-91901062D01*
X138142603Y-91712850D01*
X138028553Y-91527178D01*
X137880471Y-91367324D01*
X137704049Y-91239431D01*
X137506066Y-91148414D01*
X137294131Y-91097770D01*
X137120000Y-91246436D01*
X136866000Y-91246436D01*
X136691869Y-91097770D01*
X136479934Y-91148414D01*
X136281951Y-91239431D01*
X136105529Y-91367324D01*
X135957447Y-91527178D01*
X135843397Y-91712850D01*
X135773732Y-91901062D01*
X133212268Y-91901062D01*
X133142603Y-91712850D01*
X133028553Y-91527178D01*
X132880471Y-91367324D01*
X132704049Y-91239431D01*
X132506066Y-91148414D01*
X132294131Y-91097770D01*
X132120000Y-91246436D01*
X131866000Y-91246436D01*
X131691869Y-91097770D01*
X131479934Y-91148414D01*
X131281951Y-91239431D01*
X131105529Y-91367324D01*
X130957447Y-91527178D01*
X130843397Y-91712850D01*
X130773732Y-91901062D01*
X129878806Y-91901062D01*
X131338269Y-90441599D01*
X131402614Y-90494405D01*
X131556150Y-90576472D01*
X131722746Y-90627008D01*
X131896000Y-90644072D01*
X132396000Y-90644072D01*
X132569254Y-90627008D01*
X132735850Y-90576472D01*
X132889386Y-90494405D01*
X133023962Y-90383962D01*
X133029342Y-90377406D01*
X133094815Y-90457185D01*
X133191506Y-90536537D01*
X133301820Y-90595502D01*
X133421518Y-90631812D01*
X133546000Y-90644072D01*
X133760250Y-90641000D01*
X133919000Y-90482250D01*
X133919000Y-89408000D01*
X133899000Y-89408000D01*
X133899000Y-89154000D01*
X133919000Y-89154000D01*
X133919000Y-88079750D01*
X133760250Y-87921000D01*
X133546000Y-87917928D01*
X133421518Y-87930188D01*
X133301820Y-87966498D01*
X133191506Y-88025463D01*
X133094815Y-88104815D01*
X133029342Y-88184594D01*
X133023962Y-88178038D01*
X132889386Y-88067595D01*
X132735850Y-87985528D01*
X132569254Y-87934992D01*
X132396000Y-87917928D01*
X131896000Y-87917928D01*
X131722746Y-87934992D01*
X131556150Y-87985528D01*
X131402614Y-88067595D01*
X131268038Y-88178038D01*
X131157595Y-88312614D01*
X131075528Y-88466150D01*
X131070239Y-88483585D01*
X130996913Y-88505828D01*
X130851854Y-88583364D01*
X130724709Y-88687709D01*
X130698563Y-88719568D01*
X129218000Y-90200132D01*
X129218000Y-86870000D01*
X130466928Y-86870000D01*
X130479188Y-86994482D01*
X130515498Y-87114180D01*
X130574463Y-87224494D01*
X130653815Y-87321185D01*
X130750506Y-87400537D01*
X130860820Y-87459502D01*
X130980518Y-87495812D01*
X131105000Y-87508072D01*
X131819250Y-87505000D01*
X131978000Y-87346250D01*
X131978000Y-86247000D01*
X132232000Y-86247000D01*
X132232000Y-87346250D01*
X132390750Y-87505000D01*
X133105000Y-87508072D01*
X133229482Y-87495812D01*
X133349180Y-87459502D01*
X133459494Y-87400537D01*
X133556185Y-87321185D01*
X133635537Y-87224494D01*
X133694502Y-87114180D01*
X133730812Y-86994482D01*
X133743072Y-86870000D01*
X133740000Y-86405750D01*
X133581250Y-86247000D01*
X132232000Y-86247000D01*
X131978000Y-86247000D01*
X130628750Y-86247000D01*
X130470000Y-86405750D01*
X130466928Y-86870000D01*
X129218000Y-86870000D01*
X129218000Y-82355000D01*
X130475299Y-82355000D01*
X130479188Y-82394482D01*
X130515498Y-82514180D01*
X130574463Y-82624494D01*
X130611809Y-82670000D01*
X130574463Y-82715506D01*
X130515498Y-82825820D01*
X130479188Y-82945518D01*
X130466928Y-83070000D01*
X130466928Y-84570000D01*
X130479188Y-84694482D01*
X130515498Y-84814180D01*
X130574463Y-84924494D01*
X130611809Y-84970000D01*
X130574463Y-85015506D01*
X130515498Y-85125820D01*
X130479188Y-85245518D01*
X130466928Y-85370000D01*
X130470000Y-85834250D01*
X130628750Y-85993000D01*
X131978000Y-85993000D01*
X131978000Y-85973000D01*
X132232000Y-85973000D01*
X132232000Y-85993000D01*
X133581250Y-85993000D01*
X133740000Y-85834250D01*
X133742725Y-85422436D01*
X133833226Y-85512937D01*
X134002744Y-85626205D01*
X134191102Y-85704226D01*
X134391061Y-85744000D01*
X134594939Y-85744000D01*
X134794898Y-85704226D01*
X134983256Y-85626205D01*
X135152774Y-85512937D01*
X135296937Y-85368774D01*
X135410205Y-85199256D01*
X135488226Y-85010898D01*
X135528000Y-84810939D01*
X135528000Y-84655000D01*
X136389132Y-84655000D01*
X135648574Y-85395559D01*
X135616710Y-85421709D01*
X135590562Y-85453571D01*
X135512364Y-85548855D01*
X135434828Y-85693914D01*
X135387082Y-85851312D01*
X135370960Y-86015000D01*
X135375001Y-86056028D01*
X135375000Y-88142780D01*
X135332038Y-88178038D01*
X135221595Y-88312614D01*
X135166826Y-88415080D01*
X135135502Y-88311820D01*
X135076537Y-88201506D01*
X134997185Y-88104815D01*
X134900494Y-88025463D01*
X134790180Y-87966498D01*
X134670482Y-87930188D01*
X134546000Y-87917928D01*
X134331750Y-87921000D01*
X134173000Y-88079750D01*
X134173000Y-89154000D01*
X134193000Y-89154000D01*
X134193000Y-89408000D01*
X134173000Y-89408000D01*
X134173000Y-90482250D01*
X134331750Y-90641000D01*
X134546000Y-90644072D01*
X134670482Y-90631812D01*
X134790180Y-90595502D01*
X134900494Y-90536537D01*
X134997185Y-90457185D01*
X135076537Y-90360494D01*
X135135502Y-90250180D01*
X135166826Y-90146920D01*
X135221595Y-90249386D01*
X135332038Y-90383962D01*
X135466614Y-90494405D01*
X135620150Y-90576472D01*
X135786746Y-90627008D01*
X135960000Y-90644072D01*
X136460000Y-90644072D01*
X136633254Y-90627008D01*
X136799850Y-90576472D01*
X136953386Y-90494405D01*
X137087962Y-90383962D01*
X137093342Y-90377406D01*
X137158815Y-90457185D01*
X137255506Y-90536537D01*
X137365820Y-90595502D01*
X137485518Y-90631812D01*
X137610000Y-90644072D01*
X137824250Y-90641000D01*
X137983000Y-90482250D01*
X137983000Y-89408000D01*
X138237000Y-89408000D01*
X138237000Y-90482250D01*
X138395750Y-90641000D01*
X138610000Y-90644072D01*
X138734482Y-90631812D01*
X138854180Y-90595502D01*
X138964494Y-90536537D01*
X139061185Y-90457185D01*
X139140537Y-90360494D01*
X139199502Y-90250180D01*
X139235812Y-90130482D01*
X139248072Y-90006000D01*
X139245000Y-89566750D01*
X139086250Y-89408000D01*
X138237000Y-89408000D01*
X137983000Y-89408000D01*
X137963000Y-89408000D01*
X137963000Y-89154000D01*
X137983000Y-89154000D01*
X137983000Y-88079750D01*
X138237000Y-88079750D01*
X138237000Y-89154000D01*
X139086250Y-89154000D01*
X139245000Y-88995250D01*
X139248072Y-88556000D01*
X139235812Y-88431518D01*
X139199502Y-88311820D01*
X139140537Y-88201506D01*
X139061185Y-88104815D01*
X138964494Y-88025463D01*
X138854180Y-87966498D01*
X138734482Y-87930188D01*
X138610000Y-87917928D01*
X138395750Y-87921000D01*
X138237000Y-88079750D01*
X137983000Y-88079750D01*
X137824250Y-87921000D01*
X137610000Y-87917928D01*
X137485518Y-87930188D01*
X137365820Y-87966498D01*
X137255506Y-88025463D01*
X137158815Y-88104815D01*
X137093342Y-88184594D01*
X137087962Y-88178038D01*
X137045000Y-88142780D01*
X137045000Y-86360867D01*
X137118817Y-86287050D01*
X137160820Y-86309502D01*
X137280518Y-86345812D01*
X137405000Y-86358072D01*
X139405000Y-86358072D01*
X139529482Y-86345812D01*
X139649180Y-86309502D01*
X139759494Y-86250537D01*
X139856185Y-86171185D01*
X139935537Y-86074494D01*
X139994502Y-85964180D01*
X140030812Y-85844482D01*
X140043072Y-85720000D01*
X140043072Y-81920000D01*
X140030812Y-81795518D01*
X139994502Y-81675820D01*
X139935537Y-81565506D01*
X139856185Y-81468815D01*
X139759494Y-81389463D01*
X139649180Y-81330498D01*
X139529482Y-81294188D01*
X139405000Y-81281928D01*
X137707796Y-81281928D01*
X135898093Y-79472225D01*
X135869226Y-79327102D01*
X135791205Y-79138744D01*
X135677937Y-78969226D01*
X135533774Y-78825063D01*
X135364256Y-78711795D01*
X135175898Y-78633774D01*
X134975939Y-78594000D01*
X134772061Y-78594000D01*
X134572102Y-78633774D01*
X134383744Y-78711795D01*
X134214226Y-78825063D01*
X134070063Y-78969226D01*
X133956795Y-79138744D01*
X133878774Y-79327102D01*
X133876208Y-79340001D01*
X130136867Y-79340001D01*
X129613000Y-78816134D01*
X129613000Y-74761065D01*
X129724632Y-74686475D01*
X129931475Y-74479632D01*
X130048000Y-74305240D01*
X130164525Y-74479632D01*
X130371368Y-74686475D01*
X130614589Y-74848990D01*
X130884842Y-74960932D01*
X131171740Y-75018000D01*
X131464260Y-75018000D01*
X131751158Y-74960932D01*
X132021411Y-74848990D01*
X132264632Y-74686475D01*
X132471475Y-74479632D01*
X132588000Y-74305240D01*
X132704525Y-74479632D01*
X132911368Y-74686475D01*
X133154589Y-74848990D01*
X133424842Y-74960932D01*
X133711740Y-75018000D01*
X134004260Y-75018000D01*
X134291158Y-74960932D01*
X134561411Y-74848990D01*
X134804632Y-74686475D01*
X135011475Y-74479632D01*
X135128000Y-74305240D01*
X135244525Y-74479632D01*
X135451368Y-74686475D01*
X135694589Y-74848990D01*
X135964842Y-74960932D01*
X136251740Y-75018000D01*
X136544260Y-75018000D01*
X136831158Y-74960932D01*
X137101411Y-74848990D01*
X137344632Y-74686475D01*
X137551475Y-74479632D01*
X137668000Y-74305240D01*
X137784525Y-74479632D01*
X137991368Y-74686475D01*
X138234589Y-74848990D01*
X138504842Y-74960932D01*
X138791740Y-75018000D01*
X139084260Y-75018000D01*
X139371158Y-74960932D01*
X139641411Y-74848990D01*
X139884632Y-74686475D01*
X140016487Y-74554620D01*
X140038498Y-74627180D01*
X140097463Y-74737494D01*
X140176815Y-74834185D01*
X140273506Y-74913537D01*
X140383820Y-74972502D01*
X140503518Y-75008812D01*
X140628000Y-75021072D01*
X141192250Y-75018000D01*
X141351000Y-74859250D01*
X141351000Y-73660000D01*
X141605000Y-73660000D01*
X141605000Y-74859250D01*
X141763750Y-75018000D01*
X142328000Y-75021072D01*
X142452482Y-75008812D01*
X142572180Y-74972502D01*
X142682494Y-74913537D01*
X142779185Y-74834185D01*
X142858537Y-74737494D01*
X142917502Y-74627180D01*
X142953812Y-74507482D01*
X142966072Y-74383000D01*
X142963000Y-73818750D01*
X142804250Y-73660000D01*
X141605000Y-73660000D01*
X141351000Y-73660000D01*
X141331000Y-73660000D01*
X141331000Y-73406000D01*
X141351000Y-73406000D01*
X141351000Y-72206750D01*
X141605000Y-72206750D01*
X141605000Y-73406000D01*
X142804250Y-73406000D01*
X142963000Y-73247250D01*
X142966072Y-72683000D01*
X142953812Y-72558518D01*
X142917502Y-72438820D01*
X142858537Y-72328506D01*
X142779185Y-72231815D01*
X142682494Y-72152463D01*
X142572180Y-72093498D01*
X142452482Y-72057188D01*
X142328000Y-72044928D01*
X141763750Y-72048000D01*
X141605000Y-72206750D01*
X141351000Y-72206750D01*
X141192250Y-72048000D01*
X140628000Y-72044928D01*
X140503518Y-72057188D01*
X140383820Y-72093498D01*
X140273506Y-72152463D01*
X140176815Y-72231815D01*
X140097463Y-72328506D01*
X140038498Y-72438820D01*
X140016487Y-72511380D01*
X139884632Y-72379525D01*
X139641411Y-72217010D01*
X139371158Y-72105068D01*
X139084260Y-72048000D01*
X138791740Y-72048000D01*
X138504842Y-72105068D01*
X138234589Y-72217010D01*
X137991368Y-72379525D01*
X137784525Y-72586368D01*
X137668000Y-72760760D01*
X137551475Y-72586368D01*
X137344632Y-72379525D01*
X137101411Y-72217010D01*
X136831158Y-72105068D01*
X136544260Y-72048000D01*
X136251740Y-72048000D01*
X135964842Y-72105068D01*
X135694589Y-72217010D01*
X135451368Y-72379525D01*
X135244525Y-72586368D01*
X135128000Y-72760760D01*
X135011475Y-72586368D01*
X134804632Y-72379525D01*
X134561411Y-72217010D01*
X134291158Y-72105068D01*
X134004260Y-72048000D01*
X133711740Y-72048000D01*
X133424842Y-72105068D01*
X133154589Y-72217010D01*
X132911368Y-72379525D01*
X132704525Y-72586368D01*
X132588000Y-72760760D01*
X132471475Y-72586368D01*
X132264632Y-72379525D01*
X132021411Y-72217010D01*
X131751158Y-72105068D01*
X131464260Y-72048000D01*
X131171740Y-72048000D01*
X130884842Y-72105068D01*
X130614589Y-72217010D01*
X130371368Y-72379525D01*
X130164525Y-72586368D01*
X130048000Y-72760760D01*
X129931475Y-72586368D01*
X129724632Y-72379525D01*
X129481411Y-72217010D01*
X129211158Y-72105068D01*
X128924260Y-72048000D01*
X128631740Y-72048000D01*
X128344842Y-72105068D01*
X128074589Y-72217010D01*
X127831368Y-72379525D01*
X127624525Y-72586368D01*
X127508000Y-72760760D01*
X127391475Y-72586368D01*
X127184632Y-72379525D01*
X126941411Y-72217010D01*
X126671158Y-72105068D01*
X126384260Y-72048000D01*
X126091740Y-72048000D01*
X125804842Y-72105068D01*
X125534589Y-72217010D01*
X125291368Y-72379525D01*
X125084525Y-72586368D01*
X124922010Y-72829589D01*
X124810068Y-73099842D01*
X124753000Y-73386740D01*
X124612000Y-73386740D01*
X124612000Y-72930279D01*
X124641234Y-72632125D01*
X124718448Y-72376378D01*
X124843869Y-72140496D01*
X125012716Y-71933470D01*
X125218554Y-71763187D01*
X125453556Y-71636121D01*
X125708756Y-71557124D01*
X126004882Y-71526000D01*
X141699721Y-71526000D01*
X141997875Y-71555234D01*
%TA.AperFunction,Conductor*%
D19*
G36*
X141997875Y-71555234D02*
G01*
X142253622Y-71632448D01*
X142489504Y-71757869D01*
X142696530Y-71926716D01*
X142866813Y-72132554D01*
X142993879Y-72367556D01*
X143072876Y-72622756D01*
X143104001Y-72918891D01*
X143104000Y-95344721D01*
X143074766Y-95642876D01*
X142997551Y-95898624D01*
X142872131Y-96134504D01*
X142703289Y-96341525D01*
X142497446Y-96511813D01*
X142262444Y-96638879D01*
X142007240Y-96717877D01*
X141711118Y-96749000D01*
X126016279Y-96749000D01*
X125718124Y-96719766D01*
X125462376Y-96642551D01*
X125226496Y-96517131D01*
X125019475Y-96348289D01*
X124849187Y-96142446D01*
X124722121Y-95907444D01*
X124643123Y-95652240D01*
X124612000Y-95356118D01*
X124612000Y-95026000D01*
X129913000Y-95026000D01*
X129913000Y-95356000D01*
X129958528Y-95564257D01*
X130043810Y-95759631D01*
X130165569Y-95934613D01*
X130319126Y-96082479D01*
X130498580Y-96197546D01*
X130699787Y-96268435D01*
X130866000Y-96141454D01*
X130866000Y-95026000D01*
X131120000Y-95026000D01*
X131120000Y-96141454D01*
X131286213Y-96268435D01*
X131487420Y-96197546D01*
X131666874Y-96082479D01*
X131820431Y-95934613D01*
X131942190Y-95759631D01*
X132027472Y-95564257D01*
X132073000Y-95356000D01*
X132073000Y-95026000D01*
X136913000Y-95026000D01*
X136913000Y-95356000D01*
X136958528Y-95564257D01*
X137043810Y-95759631D01*
X137165569Y-95934613D01*
X137319126Y-96082479D01*
X137498580Y-96197546D01*
X137699787Y-96268435D01*
X137866000Y-96141454D01*
X137866000Y-95026000D01*
X138120000Y-95026000D01*
X138120000Y-96141454D01*
X138286213Y-96268435D01*
X138487420Y-96197546D01*
X138666874Y-96082479D01*
X138820431Y-95934613D01*
X138942190Y-95759631D01*
X139027472Y-95564257D01*
X139073000Y-95356000D01*
X139073000Y-95026000D01*
X138120000Y-95026000D01*
X137866000Y-95026000D01*
X136913000Y-95026000D01*
X132073000Y-95026000D01*
X131120000Y-95026000D01*
X130866000Y-95026000D01*
X129913000Y-95026000D01*
X124612000Y-95026000D01*
X124612000Y-94442000D01*
X129913000Y-94442000D01*
X129913000Y-94772000D01*
X130866000Y-94772000D01*
X130866000Y-93656546D01*
X131120000Y-93656546D01*
X131120000Y-94772000D01*
X132073000Y-94772000D01*
X132073000Y-94442000D01*
X136913000Y-94442000D01*
X136913000Y-94772000D01*
X137866000Y-94772000D01*
X137866000Y-93656546D01*
X138120000Y-93656546D01*
X138120000Y-94772000D01*
X139073000Y-94772000D01*
X139073000Y-94442000D01*
X139027472Y-94233743D01*
X138942190Y-94038369D01*
X138820431Y-93863387D01*
X138666874Y-93715521D01*
X138487420Y-93600454D01*
X138286213Y-93529565D01*
X138120000Y-93656546D01*
X137866000Y-93656546D01*
X137699787Y-93529565D01*
X137498580Y-93600454D01*
X137319126Y-93715521D01*
X137165569Y-93863387D01*
X137043810Y-94038369D01*
X136958528Y-94233743D01*
X136913000Y-94442000D01*
X132073000Y-94442000D01*
X132027472Y-94233743D01*
X131942190Y-94038369D01*
X131820431Y-93863387D01*
X131666874Y-93715521D01*
X131487420Y-93600454D01*
X131286213Y-93529565D01*
X131120000Y-93656546D01*
X130866000Y-93656546D01*
X130699787Y-93529565D01*
X130498580Y-93600454D01*
X130319126Y-93715521D01*
X130165569Y-93863387D01*
X130043810Y-94038369D01*
X129958528Y-94233743D01*
X129913000Y-94442000D01*
X124612000Y-94442000D01*
X124612000Y-73386740D01*
X124753000Y-73386740D01*
X124753000Y-73679260D01*
X124810068Y-73966158D01*
X124922010Y-74236411D01*
X125084525Y-74479632D01*
X125291368Y-74686475D01*
X125403000Y-74761065D01*
X125403001Y-79333972D01*
X125398960Y-79375000D01*
X125415082Y-79538688D01*
X125462828Y-79696086D01*
X125514464Y-79792689D01*
X125540365Y-79841146D01*
X125644710Y-79968291D01*
X125676574Y-79994441D01*
X127548000Y-81865868D01*
X127548001Y-91638971D01*
X127543960Y-91680000D01*
X127560082Y-91843688D01*
X127607828Y-92001086D01*
X127616000Y-92016375D01*
X127616000Y-92049939D01*
X127655774Y-92249898D01*
X127733795Y-92438256D01*
X127847063Y-92607774D01*
X127991226Y-92751937D01*
X128160744Y-92865205D01*
X128349102Y-92943226D01*
X128549061Y-92983000D01*
X128752939Y-92983000D01*
X128952898Y-92943226D01*
X129141256Y-92865205D01*
X129310774Y-92751937D01*
X129454937Y-92607774D01*
X129528995Y-92496938D01*
X130773732Y-92496938D01*
X130843397Y-92685150D01*
X130957447Y-92870822D01*
X131105529Y-93030676D01*
X131281951Y-93158569D01*
X131479934Y-93249586D01*
X131691869Y-93300230D01*
X131866000Y-93151564D01*
X131866000Y-92326000D01*
X132120000Y-92326000D01*
X132120000Y-93151564D01*
X132294131Y-93300230D01*
X132506066Y-93249586D01*
X132704049Y-93158569D01*
X132880471Y-93030676D01*
X133028553Y-92870822D01*
X133142603Y-92685150D01*
X133212268Y-92496938D01*
X135773732Y-92496938D01*
X135843397Y-92685150D01*
X135957447Y-92870822D01*
X136105529Y-93030676D01*
X136281951Y-93158569D01*
X136479934Y-93249586D01*
X136691869Y-93300230D01*
X136866000Y-93151564D01*
X136866000Y-92326000D01*
X137120000Y-92326000D01*
X137120000Y-93151564D01*
X137294131Y-93300230D01*
X137506066Y-93249586D01*
X137704049Y-93158569D01*
X137880471Y-93030676D01*
X138028553Y-92870822D01*
X138142603Y-92685150D01*
X138212268Y-92496938D01*
X138085734Y-92326000D01*
X137120000Y-92326000D01*
X136866000Y-92326000D01*
X135900266Y-92326000D01*
X135773732Y-92496938D01*
X133212268Y-92496938D01*
X133085734Y-92326000D01*
X132120000Y-92326000D01*
X131866000Y-92326000D01*
X130900266Y-92326000D01*
X130773732Y-92496938D01*
X129528995Y-92496938D01*
X129568205Y-92438256D01*
X129646226Y-92249898D01*
X129675093Y-92104775D01*
X129878806Y-91901062D01*
X130773732Y-91901062D01*
X130900266Y-92072000D01*
X131866000Y-92072000D01*
X131866000Y-91246436D01*
X132120000Y-91246436D01*
X132120000Y-92072000D01*
X133085734Y-92072000D01*
X133212268Y-91901062D01*
X135773732Y-91901062D01*
X135900266Y-92072000D01*
X136866000Y-92072000D01*
X136866000Y-91246436D01*
X137120000Y-91246436D01*
X137120000Y-92072000D01*
X138085734Y-92072000D01*
X138212268Y-91901062D01*
X138142603Y-91712850D01*
X138028553Y-91527178D01*
X137880471Y-91367324D01*
X137704049Y-91239431D01*
X137506066Y-91148414D01*
X137294131Y-91097770D01*
X137120000Y-91246436D01*
X136866000Y-91246436D01*
X136691869Y-91097770D01*
X136479934Y-91148414D01*
X136281951Y-91239431D01*
X136105529Y-91367324D01*
X135957447Y-91527178D01*
X135843397Y-91712850D01*
X135773732Y-91901062D01*
X133212268Y-91901062D01*
X133142603Y-91712850D01*
X133028553Y-91527178D01*
X132880471Y-91367324D01*
X132704049Y-91239431D01*
X132506066Y-91148414D01*
X132294131Y-91097770D01*
X132120000Y-91246436D01*
X131866000Y-91246436D01*
X131691869Y-91097770D01*
X131479934Y-91148414D01*
X131281951Y-91239431D01*
X131105529Y-91367324D01*
X130957447Y-91527178D01*
X130843397Y-91712850D01*
X130773732Y-91901062D01*
X129878806Y-91901062D01*
X131338269Y-90441599D01*
X131402614Y-90494405D01*
X131556150Y-90576472D01*
X131722746Y-90627008D01*
X131896000Y-90644072D01*
X132396000Y-90644072D01*
X132569254Y-90627008D01*
X132735850Y-90576472D01*
X132889386Y-90494405D01*
X133023962Y-90383962D01*
X133029342Y-90377406D01*
X133094815Y-90457185D01*
X133191506Y-90536537D01*
X133301820Y-90595502D01*
X133421518Y-90631812D01*
X133546000Y-90644072D01*
X133760250Y-90641000D01*
X133919000Y-90482250D01*
X133919000Y-89408000D01*
X133899000Y-89408000D01*
X133899000Y-89154000D01*
X133919000Y-89154000D01*
X133919000Y-88079750D01*
X133760250Y-87921000D01*
X133546000Y-87917928D01*
X133421518Y-87930188D01*
X133301820Y-87966498D01*
X133191506Y-88025463D01*
X133094815Y-88104815D01*
X133029342Y-88184594D01*
X133023962Y-88178038D01*
X132889386Y-88067595D01*
X132735850Y-87985528D01*
X132569254Y-87934992D01*
X132396000Y-87917928D01*
X131896000Y-87917928D01*
X131722746Y-87934992D01*
X131556150Y-87985528D01*
X131402614Y-88067595D01*
X131268038Y-88178038D01*
X131157595Y-88312614D01*
X131075528Y-88466150D01*
X131070239Y-88483585D01*
X130996913Y-88505828D01*
X130851854Y-88583364D01*
X130724709Y-88687709D01*
X130698563Y-88719568D01*
X129218000Y-90200132D01*
X129218000Y-86870000D01*
X130466928Y-86870000D01*
X130479188Y-86994482D01*
X130515498Y-87114180D01*
X130574463Y-87224494D01*
X130653815Y-87321185D01*
X130750506Y-87400537D01*
X130860820Y-87459502D01*
X130980518Y-87495812D01*
X131105000Y-87508072D01*
X131819250Y-87505000D01*
X131978000Y-87346250D01*
X131978000Y-86247000D01*
X132232000Y-86247000D01*
X132232000Y-87346250D01*
X132390750Y-87505000D01*
X133105000Y-87508072D01*
X133229482Y-87495812D01*
X133349180Y-87459502D01*
X133459494Y-87400537D01*
X133556185Y-87321185D01*
X133635537Y-87224494D01*
X133694502Y-87114180D01*
X133730812Y-86994482D01*
X133743072Y-86870000D01*
X133740000Y-86405750D01*
X133581250Y-86247000D01*
X132232000Y-86247000D01*
X131978000Y-86247000D01*
X130628750Y-86247000D01*
X130470000Y-86405750D01*
X130466928Y-86870000D01*
X129218000Y-86870000D01*
X129218000Y-82355000D01*
X130475299Y-82355000D01*
X130479188Y-82394482D01*
X130515498Y-82514180D01*
X130574463Y-82624494D01*
X130611809Y-82670000D01*
X130574463Y-82715506D01*
X130515498Y-82825820D01*
X130479188Y-82945518D01*
X130466928Y-83070000D01*
X130466928Y-84570000D01*
X130479188Y-84694482D01*
X130515498Y-84814180D01*
X130574463Y-84924494D01*
X130611809Y-84970000D01*
X130574463Y-85015506D01*
X130515498Y-85125820D01*
X130479188Y-85245518D01*
X130466928Y-85370000D01*
X130470000Y-85834250D01*
X130628750Y-85993000D01*
X131978000Y-85993000D01*
X131978000Y-85973000D01*
X132232000Y-85973000D01*
X132232000Y-85993000D01*
X133581250Y-85993000D01*
X133740000Y-85834250D01*
X133742725Y-85422436D01*
X133833226Y-85512937D01*
X134002744Y-85626205D01*
X134191102Y-85704226D01*
X134391061Y-85744000D01*
X134594939Y-85744000D01*
X134794898Y-85704226D01*
X134983256Y-85626205D01*
X135152774Y-85512937D01*
X135296937Y-85368774D01*
X135410205Y-85199256D01*
X135488226Y-85010898D01*
X135528000Y-84810939D01*
X135528000Y-84655000D01*
X136389132Y-84655000D01*
X135648574Y-85395559D01*
X135616710Y-85421709D01*
X135590562Y-85453571D01*
X135512364Y-85548855D01*
X135434828Y-85693914D01*
X135387082Y-85851312D01*
X135370960Y-86015000D01*
X135375001Y-86056028D01*
X135375000Y-88142780D01*
X135332038Y-88178038D01*
X135221595Y-88312614D01*
X135166826Y-88415080D01*
X135135502Y-88311820D01*
X135076537Y-88201506D01*
X134997185Y-88104815D01*
X134900494Y-88025463D01*
X134790180Y-87966498D01*
X134670482Y-87930188D01*
X134546000Y-87917928D01*
X134331750Y-87921000D01*
X134173000Y-88079750D01*
X134173000Y-89154000D01*
X134193000Y-89154000D01*
X134193000Y-89408000D01*
X134173000Y-89408000D01*
X134173000Y-90482250D01*
X134331750Y-90641000D01*
X134546000Y-90644072D01*
X134670482Y-90631812D01*
X134790180Y-90595502D01*
X134900494Y-90536537D01*
X134997185Y-90457185D01*
X135076537Y-90360494D01*
X135135502Y-90250180D01*
X135166826Y-90146920D01*
X135221595Y-90249386D01*
X135332038Y-90383962D01*
X135466614Y-90494405D01*
X135620150Y-90576472D01*
X135786746Y-90627008D01*
X135960000Y-90644072D01*
X136460000Y-90644072D01*
X136633254Y-90627008D01*
X136799850Y-90576472D01*
X136953386Y-90494405D01*
X137087962Y-90383962D01*
X137093342Y-90377406D01*
X137158815Y-90457185D01*
X137255506Y-90536537D01*
X137365820Y-90595502D01*
X137485518Y-90631812D01*
X137610000Y-90644072D01*
X137824250Y-90641000D01*
X137983000Y-90482250D01*
X137983000Y-89408000D01*
X138237000Y-89408000D01*
X138237000Y-90482250D01*
X138395750Y-90641000D01*
X138610000Y-90644072D01*
X138734482Y-90631812D01*
X138854180Y-90595502D01*
X138964494Y-90536537D01*
X139061185Y-90457185D01*
X139140537Y-90360494D01*
X139199502Y-90250180D01*
X139235812Y-90130482D01*
X139248072Y-90006000D01*
X139245000Y-89566750D01*
X139086250Y-89408000D01*
X138237000Y-89408000D01*
X137983000Y-89408000D01*
X137963000Y-89408000D01*
X137963000Y-89154000D01*
X137983000Y-89154000D01*
X137983000Y-88079750D01*
X138237000Y-88079750D01*
X138237000Y-89154000D01*
X139086250Y-89154000D01*
X139245000Y-88995250D01*
X139248072Y-88556000D01*
X139235812Y-88431518D01*
X139199502Y-88311820D01*
X139140537Y-88201506D01*
X139061185Y-88104815D01*
X138964494Y-88025463D01*
X138854180Y-87966498D01*
X138734482Y-87930188D01*
X138610000Y-87917928D01*
X138395750Y-87921000D01*
X138237000Y-88079750D01*
X137983000Y-88079750D01*
X137824250Y-87921000D01*
X137610000Y-87917928D01*
X137485518Y-87930188D01*
X137365820Y-87966498D01*
X137255506Y-88025463D01*
X137158815Y-88104815D01*
X137093342Y-88184594D01*
X137087962Y-88178038D01*
X137045000Y-88142780D01*
X137045000Y-86360867D01*
X137118817Y-86287050D01*
X137160820Y-86309502D01*
X137280518Y-86345812D01*
X137405000Y-86358072D01*
X139405000Y-86358072D01*
X139529482Y-86345812D01*
X139649180Y-86309502D01*
X139759494Y-86250537D01*
X139856185Y-86171185D01*
X139935537Y-86074494D01*
X139994502Y-85964180D01*
X140030812Y-85844482D01*
X140043072Y-85720000D01*
X140043072Y-81920000D01*
X140030812Y-81795518D01*
X139994502Y-81675820D01*
X139935537Y-81565506D01*
X139856185Y-81468815D01*
X139759494Y-81389463D01*
X139649180Y-81330498D01*
X139529482Y-81294188D01*
X139405000Y-81281928D01*
X137707796Y-81281928D01*
X135898093Y-79472225D01*
X135869226Y-79327102D01*
X135791205Y-79138744D01*
X135677937Y-78969226D01*
X135533774Y-78825063D01*
X135364256Y-78711795D01*
X135175898Y-78633774D01*
X134975939Y-78594000D01*
X134772061Y-78594000D01*
X134572102Y-78633774D01*
X134383744Y-78711795D01*
X134214226Y-78825063D01*
X134070063Y-78969226D01*
X133956795Y-79138744D01*
X133878774Y-79327102D01*
X133876208Y-79340001D01*
X130136867Y-79340001D01*
X129613000Y-78816134D01*
X129613000Y-74761065D01*
X129724632Y-74686475D01*
X129931475Y-74479632D01*
X130048000Y-74305240D01*
X130164525Y-74479632D01*
X130371368Y-74686475D01*
X130614589Y-74848990D01*
X130884842Y-74960932D01*
X131171740Y-75018000D01*
X131464260Y-75018000D01*
X131751158Y-74960932D01*
X132021411Y-74848990D01*
X132264632Y-74686475D01*
X132471475Y-74479632D01*
X132588000Y-74305240D01*
X132704525Y-74479632D01*
X132911368Y-74686475D01*
X133154589Y-74848990D01*
X133424842Y-74960932D01*
X133711740Y-75018000D01*
X134004260Y-75018000D01*
X134291158Y-74960932D01*
X134561411Y-74848990D01*
X134804632Y-74686475D01*
X135011475Y-74479632D01*
X135128000Y-74305240D01*
X135244525Y-74479632D01*
X135451368Y-74686475D01*
X135694589Y-74848990D01*
X135964842Y-74960932D01*
X136251740Y-75018000D01*
X136544260Y-75018000D01*
X136831158Y-74960932D01*
X137101411Y-74848990D01*
X137344632Y-74686475D01*
X137551475Y-74479632D01*
X137668000Y-74305240D01*
X137784525Y-74479632D01*
X137991368Y-74686475D01*
X138234589Y-74848990D01*
X138504842Y-74960932D01*
X138791740Y-75018000D01*
X139084260Y-75018000D01*
X139371158Y-74960932D01*
X139641411Y-74848990D01*
X139884632Y-74686475D01*
X140016487Y-74554620D01*
X140038498Y-74627180D01*
X140097463Y-74737494D01*
X140176815Y-74834185D01*
X140273506Y-74913537D01*
X140383820Y-74972502D01*
X140503518Y-75008812D01*
X140628000Y-75021072D01*
X141192250Y-75018000D01*
X141351000Y-74859250D01*
X141351000Y-73660000D01*
X141605000Y-73660000D01*
X141605000Y-74859250D01*
X141763750Y-75018000D01*
X142328000Y-75021072D01*
X142452482Y-75008812D01*
X142572180Y-74972502D01*
X142682494Y-74913537D01*
X142779185Y-74834185D01*
X142858537Y-74737494D01*
X142917502Y-74627180D01*
X142953812Y-74507482D01*
X142966072Y-74383000D01*
X142963000Y-73818750D01*
X142804250Y-73660000D01*
X141605000Y-73660000D01*
X141351000Y-73660000D01*
X141331000Y-73660000D01*
X141331000Y-73406000D01*
X141351000Y-73406000D01*
X141351000Y-72206750D01*
X141605000Y-72206750D01*
X141605000Y-73406000D01*
X142804250Y-73406000D01*
X142963000Y-73247250D01*
X142966072Y-72683000D01*
X142953812Y-72558518D01*
X142917502Y-72438820D01*
X142858537Y-72328506D01*
X142779185Y-72231815D01*
X142682494Y-72152463D01*
X142572180Y-72093498D01*
X142452482Y-72057188D01*
X142328000Y-72044928D01*
X141763750Y-72048000D01*
X141605000Y-72206750D01*
X141351000Y-72206750D01*
X141192250Y-72048000D01*
X140628000Y-72044928D01*
X140503518Y-72057188D01*
X140383820Y-72093498D01*
X140273506Y-72152463D01*
X140176815Y-72231815D01*
X140097463Y-72328506D01*
X140038498Y-72438820D01*
X140016487Y-72511380D01*
X139884632Y-72379525D01*
X139641411Y-72217010D01*
X139371158Y-72105068D01*
X139084260Y-72048000D01*
X138791740Y-72048000D01*
X138504842Y-72105068D01*
X138234589Y-72217010D01*
X137991368Y-72379525D01*
X137784525Y-72586368D01*
X137668000Y-72760760D01*
X137551475Y-72586368D01*
X137344632Y-72379525D01*
X137101411Y-72217010D01*
X136831158Y-72105068D01*
X136544260Y-72048000D01*
X136251740Y-72048000D01*
X135964842Y-72105068D01*
X135694589Y-72217010D01*
X135451368Y-72379525D01*
X135244525Y-72586368D01*
X135128000Y-72760760D01*
X135011475Y-72586368D01*
X134804632Y-72379525D01*
X134561411Y-72217010D01*
X134291158Y-72105068D01*
X134004260Y-72048000D01*
X133711740Y-72048000D01*
X133424842Y-72105068D01*
X133154589Y-72217010D01*
X132911368Y-72379525D01*
X132704525Y-72586368D01*
X132588000Y-72760760D01*
X132471475Y-72586368D01*
X132264632Y-72379525D01*
X132021411Y-72217010D01*
X131751158Y-72105068D01*
X131464260Y-72048000D01*
X131171740Y-72048000D01*
X130884842Y-72105068D01*
X130614589Y-72217010D01*
X130371368Y-72379525D01*
X130164525Y-72586368D01*
X130048000Y-72760760D01*
X129931475Y-72586368D01*
X129724632Y-72379525D01*
X129481411Y-72217010D01*
X129211158Y-72105068D01*
X128924260Y-72048000D01*
X128631740Y-72048000D01*
X128344842Y-72105068D01*
X128074589Y-72217010D01*
X127831368Y-72379525D01*
X127624525Y-72586368D01*
X127508000Y-72760760D01*
X127391475Y-72586368D01*
X127184632Y-72379525D01*
X126941411Y-72217010D01*
X126671158Y-72105068D01*
X126384260Y-72048000D01*
X126091740Y-72048000D01*
X125804842Y-72105068D01*
X125534589Y-72217010D01*
X125291368Y-72379525D01*
X125084525Y-72586368D01*
X124922010Y-72829589D01*
X124810068Y-73099842D01*
X124753000Y-73386740D01*
X124612000Y-73386740D01*
X124612000Y-72930279D01*
X124641234Y-72632125D01*
X124718448Y-72376378D01*
X124843869Y-72140496D01*
X125012716Y-71933470D01*
X125218554Y-71763187D01*
X125453556Y-71636121D01*
X125708756Y-71557124D01*
X126004882Y-71526000D01*
X141699721Y-71526000D01*
X141997875Y-71555234D01*
G37*
%TD.AperFunction*%
%TD*%
M02*
