%TF.GenerationSoftware,KiCad,Pcbnew,(5.1.7)-1*%
%TF.CreationDate,2021-02-24T18:36:54+01:00*%
%TF.ProjectId,Temperature-controller-with-ESP8266,54656d70-6572-4617-9475-72652d636f6e,rev?*%
%TF.SameCoordinates,Original*%
%TF.FileFunction,Soldermask,Bot*%
%TF.FilePolarity,Negative*%
%FSLAX46Y46*%
G04 Gerber Fmt 4.6, Leading zero omitted, Abs format (unit mm)*
G04 Created by KiCad (PCBNEW (5.1.7)-1) date 2021-02-24 18:36:54*
%MOMM*%
%LPD*%
G01*
G04 APERTURE LIST*
%ADD10O,1.250000X0.950000*%
%ADD11O,0.890000X1.550000*%
%ADD12R,2.000000X3.800000*%
%ADD13R,2.000000X1.500000*%
%ADD14R,1.700000X1.700000*%
%ADD15O,1.700000X1.700000*%
G04 APERTURE END LIST*
%TO.C,C7*%
G36*
G01*
X131646000Y-89756000D02*
X131646000Y-88806000D01*
G75*
G02*
X131896000Y-88556000I250000J0D01*
G01*
X132396000Y-88556000D01*
G75*
G02*
X132646000Y-88806000I0J-250000D01*
G01*
X132646000Y-89756000D01*
G75*
G02*
X132396000Y-90006000I-250000J0D01*
G01*
X131896000Y-90006000D01*
G75*
G02*
X131646000Y-89756000I0J250000D01*
G01*
G37*
G36*
G01*
X133546000Y-89756000D02*
X133546000Y-88806000D01*
G75*
G02*
X133796000Y-88556000I250000J0D01*
G01*
X134296000Y-88556000D01*
G75*
G02*
X134546000Y-88806000I0J-250000D01*
G01*
X134546000Y-89756000D01*
G75*
G02*
X134296000Y-90006000I-250000J0D01*
G01*
X133796000Y-90006000D01*
G75*
G02*
X133546000Y-89756000I0J250000D01*
G01*
G37*
%TD*%
%TO.C,C8*%
G36*
G01*
X137610000Y-89756000D02*
X137610000Y-88806000D01*
G75*
G02*
X137860000Y-88556000I250000J0D01*
G01*
X138360000Y-88556000D01*
G75*
G02*
X138610000Y-88806000I0J-250000D01*
G01*
X138610000Y-89756000D01*
G75*
G02*
X138360000Y-90006000I-250000J0D01*
G01*
X137860000Y-90006000D01*
G75*
G02*
X137610000Y-89756000I0J250000D01*
G01*
G37*
G36*
G01*
X135710000Y-89756000D02*
X135710000Y-88806000D01*
G75*
G02*
X135960000Y-88556000I250000J0D01*
G01*
X136460000Y-88556000D01*
G75*
G02*
X136710000Y-88806000I0J-250000D01*
G01*
X136710000Y-89756000D01*
G75*
G02*
X136460000Y-90006000I-250000J0D01*
G01*
X135960000Y-90006000D01*
G75*
G02*
X135710000Y-89756000I0J250000D01*
G01*
G37*
%TD*%
D10*
%TO.C,J11*%
X131993000Y-92199000D03*
X136993000Y-92199000D03*
D11*
X130993000Y-94899000D03*
X137993000Y-94899000D03*
%TD*%
D12*
%TO.C,U8*%
X138405000Y-83820000D03*
D13*
X132105000Y-83820000D03*
X132105000Y-81520000D03*
X132105000Y-86120000D03*
%TD*%
D14*
%TO.C,J12*%
X141478000Y-73533000D03*
D15*
X138938000Y-73533000D03*
X136398000Y-73533000D03*
X133858000Y-73533000D03*
X131318000Y-73533000D03*
X128778000Y-73533000D03*
X126238000Y-73533000D03*
%TD*%
M02*
