%TF.GenerationSoftware,KiCad,Pcbnew,(5.1.7)-1*%
%TF.CreationDate,2021-02-24T18:36:54+01:00*%
%TF.ProjectId,Temperature-controller-with-ESP8266,54656d70-6572-4617-9475-72652d636f6e,rev?*%
%TF.SameCoordinates,Original*%
%TF.FileFunction,Soldermask,Top*%
%TF.FilePolarity,Negative*%
%FSLAX46Y46*%
G04 Gerber Fmt 4.6, Leading zero omitted, Abs format (unit mm)*
G04 Created by KiCad (PCBNEW (5.1.7)-1) date 2021-02-24 18:36:54*
%MOMM*%
%LPD*%
G01*
G04 APERTURE LIST*
%ADD10R,0.400000X1.350000*%
%ADD11O,1.250000X0.950000*%
%ADD12R,1.500000X1.550000*%
%ADD13R,1.200000X1.550000*%
%ADD14O,0.890000X1.550000*%
%ADD15R,0.900000X0.800000*%
%ADD16R,1.200000X1.400000*%
%ADD17R,1.700000X1.700000*%
%ADD18O,1.700000X1.700000*%
G04 APERTURE END LIST*
%TO.C,C5*%
G36*
G01*
X127058000Y-88298000D02*
X127058000Y-89248000D01*
G75*
G02*
X126808000Y-89498000I-250000J0D01*
G01*
X126308000Y-89498000D01*
G75*
G02*
X126058000Y-89248000I0J250000D01*
G01*
X126058000Y-88298000D01*
G75*
G02*
X126308000Y-88048000I250000J0D01*
G01*
X126808000Y-88048000D01*
G75*
G02*
X127058000Y-88298000I0J-250000D01*
G01*
G37*
G36*
G01*
X128958000Y-88298000D02*
X128958000Y-89248000D01*
G75*
G02*
X128708000Y-89498000I-250000J0D01*
G01*
X128208000Y-89498000D01*
G75*
G02*
X127958000Y-89248000I0J250000D01*
G01*
X127958000Y-88298000D01*
G75*
G02*
X128208000Y-88048000I250000J0D01*
G01*
X128708000Y-88048000D01*
G75*
G02*
X128958000Y-88298000I0J-250000D01*
G01*
G37*
%TD*%
%TO.C,C6*%
G36*
G01*
X126124000Y-82263000D02*
X126124000Y-81313000D01*
G75*
G02*
X126374000Y-81063000I250000J0D01*
G01*
X126874000Y-81063000D01*
G75*
G02*
X127124000Y-81313000I0J-250000D01*
G01*
X127124000Y-82263000D01*
G75*
G02*
X126874000Y-82513000I-250000J0D01*
G01*
X126374000Y-82513000D01*
G75*
G02*
X126124000Y-82263000I0J250000D01*
G01*
G37*
G36*
G01*
X128024000Y-82263000D02*
X128024000Y-81313000D01*
G75*
G02*
X128274000Y-81063000I250000J0D01*
G01*
X128774000Y-81063000D01*
G75*
G02*
X129024000Y-81313000I0J-250000D01*
G01*
X129024000Y-82263000D01*
G75*
G02*
X128774000Y-82513000I-250000J0D01*
G01*
X128274000Y-82513000D01*
G75*
G02*
X128024000Y-82263000I0J250000D01*
G01*
G37*
%TD*%
D10*
%TO.C,J11*%
X133193000Y-92199000D03*
X133843000Y-92199000D03*
X134493000Y-92199000D03*
X135143000Y-92199000D03*
X135793000Y-92199000D03*
D11*
X131993000Y-92199000D03*
X136993000Y-92199000D03*
D12*
X133493000Y-94899000D03*
X135493000Y-94899000D03*
D13*
X131593000Y-94899000D03*
X137393000Y-94899000D03*
D14*
X130993000Y-94899000D03*
X137993000Y-94899000D03*
%TD*%
D15*
%TO.C,Q5*%
X132096000Y-76962000D03*
X134096000Y-76012000D03*
X134096000Y-77912000D03*
%TD*%
%TO.C,Q6*%
X139462000Y-76012000D03*
X139462000Y-77912000D03*
X141462000Y-76962000D03*
%TD*%
%TO.C,R18*%
G36*
G01*
X126295998Y-75537000D02*
X127196002Y-75537000D01*
G75*
G02*
X127446000Y-75786998I0J-249998D01*
G01*
X127446000Y-76312002D01*
G75*
G02*
X127196002Y-76562000I-249998J0D01*
G01*
X126295998Y-76562000D01*
G75*
G02*
X126046000Y-76312002I0J249998D01*
G01*
X126046000Y-75786998D01*
G75*
G02*
X126295998Y-75537000I249998J0D01*
G01*
G37*
G36*
G01*
X126295998Y-77362000D02*
X127196002Y-77362000D01*
G75*
G02*
X127446000Y-77611998I0J-249998D01*
G01*
X127446000Y-78137002D01*
G75*
G02*
X127196002Y-78387000I-249998J0D01*
G01*
X126295998Y-78387000D01*
G75*
G02*
X126046000Y-78137002I0J249998D01*
G01*
X126046000Y-77611998D01*
G75*
G02*
X126295998Y-77362000I249998J0D01*
G01*
G37*
%TD*%
%TO.C,R19*%
G36*
G01*
X129990002Y-76562000D02*
X129089998Y-76562000D01*
G75*
G02*
X128840000Y-76312002I0J249998D01*
G01*
X128840000Y-75786998D01*
G75*
G02*
X129089998Y-75537000I249998J0D01*
G01*
X129990002Y-75537000D01*
G75*
G02*
X130240000Y-75786998I0J-249998D01*
G01*
X130240000Y-76312002D01*
G75*
G02*
X129990002Y-76562000I-249998J0D01*
G01*
G37*
G36*
G01*
X129990002Y-78387000D02*
X129089998Y-78387000D01*
G75*
G02*
X128840000Y-78137002I0J249998D01*
G01*
X128840000Y-77611998D01*
G75*
G02*
X129089998Y-77362000I249998J0D01*
G01*
X129990002Y-77362000D01*
G75*
G02*
X130240000Y-77611998I0J-249998D01*
G01*
X130240000Y-78137002D01*
G75*
G02*
X129990002Y-78387000I-249998J0D01*
G01*
G37*
%TD*%
%TO.C,R20*%
G36*
G01*
X135354000Y-78428002D02*
X135354000Y-77527998D01*
G75*
G02*
X135603998Y-77278000I249998J0D01*
G01*
X136129002Y-77278000D01*
G75*
G02*
X136379000Y-77527998I0J-249998D01*
G01*
X136379000Y-78428002D01*
G75*
G02*
X136129002Y-78678000I-249998J0D01*
G01*
X135603998Y-78678000D01*
G75*
G02*
X135354000Y-78428002I0J249998D01*
G01*
G37*
G36*
G01*
X137179000Y-78428002D02*
X137179000Y-77527998D01*
G75*
G02*
X137428998Y-77278000I249998J0D01*
G01*
X137954002Y-77278000D01*
G75*
G02*
X138204000Y-77527998I0J-249998D01*
G01*
X138204000Y-78428002D01*
G75*
G02*
X137954002Y-78678000I-249998J0D01*
G01*
X137428998Y-78678000D01*
G75*
G02*
X137179000Y-78428002I0J249998D01*
G01*
G37*
%TD*%
%TO.C,R21*%
G36*
G01*
X136379000Y-75495998D02*
X136379000Y-76396002D01*
G75*
G02*
X136129002Y-76646000I-249998J0D01*
G01*
X135603998Y-76646000D01*
G75*
G02*
X135354000Y-76396002I0J249998D01*
G01*
X135354000Y-75495998D01*
G75*
G02*
X135603998Y-75246000I249998J0D01*
G01*
X136129002Y-75246000D01*
G75*
G02*
X136379000Y-75495998I0J-249998D01*
G01*
G37*
G36*
G01*
X138204000Y-75495998D02*
X138204000Y-76396002D01*
G75*
G02*
X137954002Y-76646000I-249998J0D01*
G01*
X137428998Y-76646000D01*
G75*
G02*
X137179000Y-76396002I0J249998D01*
G01*
X137179000Y-75495998D01*
G75*
G02*
X137428998Y-75246000I249998J0D01*
G01*
X137954002Y-75246000D01*
G75*
G02*
X138204000Y-75495998I0J-249998D01*
G01*
G37*
%TD*%
%TO.C,U7*%
G36*
G01*
X130916000Y-80795000D02*
X130916000Y-80495000D01*
G75*
G02*
X131066000Y-80345000I150000J0D01*
G01*
X132716000Y-80345000D01*
G75*
G02*
X132866000Y-80495000I0J-150000D01*
G01*
X132866000Y-80795000D01*
G75*
G02*
X132716000Y-80945000I-150000J0D01*
G01*
X131066000Y-80945000D01*
G75*
G02*
X130916000Y-80795000I0J150000D01*
G01*
G37*
G36*
G01*
X130916000Y-82065000D02*
X130916000Y-81765000D01*
G75*
G02*
X131066000Y-81615000I150000J0D01*
G01*
X132716000Y-81615000D01*
G75*
G02*
X132866000Y-81765000I0J-150000D01*
G01*
X132866000Y-82065000D01*
G75*
G02*
X132716000Y-82215000I-150000J0D01*
G01*
X131066000Y-82215000D01*
G75*
G02*
X130916000Y-82065000I0J150000D01*
G01*
G37*
G36*
G01*
X130916000Y-83335000D02*
X130916000Y-83035000D01*
G75*
G02*
X131066000Y-82885000I150000J0D01*
G01*
X132716000Y-82885000D01*
G75*
G02*
X132866000Y-83035000I0J-150000D01*
G01*
X132866000Y-83335000D01*
G75*
G02*
X132716000Y-83485000I-150000J0D01*
G01*
X131066000Y-83485000D01*
G75*
G02*
X130916000Y-83335000I0J150000D01*
G01*
G37*
G36*
G01*
X130916000Y-84605000D02*
X130916000Y-84305000D01*
G75*
G02*
X131066000Y-84155000I150000J0D01*
G01*
X132716000Y-84155000D01*
G75*
G02*
X132866000Y-84305000I0J-150000D01*
G01*
X132866000Y-84605000D01*
G75*
G02*
X132716000Y-84755000I-150000J0D01*
G01*
X131066000Y-84755000D01*
G75*
G02*
X130916000Y-84605000I0J150000D01*
G01*
G37*
G36*
G01*
X130916000Y-85875000D02*
X130916000Y-85575000D01*
G75*
G02*
X131066000Y-85425000I150000J0D01*
G01*
X132716000Y-85425000D01*
G75*
G02*
X132866000Y-85575000I0J-150000D01*
G01*
X132866000Y-85875000D01*
G75*
G02*
X132716000Y-86025000I-150000J0D01*
G01*
X131066000Y-86025000D01*
G75*
G02*
X130916000Y-85875000I0J150000D01*
G01*
G37*
G36*
G01*
X130916000Y-87145000D02*
X130916000Y-86845000D01*
G75*
G02*
X131066000Y-86695000I150000J0D01*
G01*
X132716000Y-86695000D01*
G75*
G02*
X132866000Y-86845000I0J-150000D01*
G01*
X132866000Y-87145000D01*
G75*
G02*
X132716000Y-87295000I-150000J0D01*
G01*
X131066000Y-87295000D01*
G75*
G02*
X130916000Y-87145000I0J150000D01*
G01*
G37*
G36*
G01*
X130916000Y-88415000D02*
X130916000Y-88115000D01*
G75*
G02*
X131066000Y-87965000I150000J0D01*
G01*
X132716000Y-87965000D01*
G75*
G02*
X132866000Y-88115000I0J-150000D01*
G01*
X132866000Y-88415000D01*
G75*
G02*
X132716000Y-88565000I-150000J0D01*
G01*
X131066000Y-88565000D01*
G75*
G02*
X130916000Y-88415000I0J150000D01*
G01*
G37*
G36*
G01*
X130916000Y-89685000D02*
X130916000Y-89385000D01*
G75*
G02*
X131066000Y-89235000I150000J0D01*
G01*
X132716000Y-89235000D01*
G75*
G02*
X132866000Y-89385000I0J-150000D01*
G01*
X132866000Y-89685000D01*
G75*
G02*
X132716000Y-89835000I-150000J0D01*
G01*
X131066000Y-89835000D01*
G75*
G02*
X130916000Y-89685000I0J150000D01*
G01*
G37*
G36*
G01*
X135866000Y-89685000D02*
X135866000Y-89385000D01*
G75*
G02*
X136016000Y-89235000I150000J0D01*
G01*
X137666000Y-89235000D01*
G75*
G02*
X137816000Y-89385000I0J-150000D01*
G01*
X137816000Y-89685000D01*
G75*
G02*
X137666000Y-89835000I-150000J0D01*
G01*
X136016000Y-89835000D01*
G75*
G02*
X135866000Y-89685000I0J150000D01*
G01*
G37*
G36*
G01*
X135866000Y-88415000D02*
X135866000Y-88115000D01*
G75*
G02*
X136016000Y-87965000I150000J0D01*
G01*
X137666000Y-87965000D01*
G75*
G02*
X137816000Y-88115000I0J-150000D01*
G01*
X137816000Y-88415000D01*
G75*
G02*
X137666000Y-88565000I-150000J0D01*
G01*
X136016000Y-88565000D01*
G75*
G02*
X135866000Y-88415000I0J150000D01*
G01*
G37*
G36*
G01*
X135866000Y-87145000D02*
X135866000Y-86845000D01*
G75*
G02*
X136016000Y-86695000I150000J0D01*
G01*
X137666000Y-86695000D01*
G75*
G02*
X137816000Y-86845000I0J-150000D01*
G01*
X137816000Y-87145000D01*
G75*
G02*
X137666000Y-87295000I-150000J0D01*
G01*
X136016000Y-87295000D01*
G75*
G02*
X135866000Y-87145000I0J150000D01*
G01*
G37*
G36*
G01*
X135866000Y-85875000D02*
X135866000Y-85575000D01*
G75*
G02*
X136016000Y-85425000I150000J0D01*
G01*
X137666000Y-85425000D01*
G75*
G02*
X137816000Y-85575000I0J-150000D01*
G01*
X137816000Y-85875000D01*
G75*
G02*
X137666000Y-86025000I-150000J0D01*
G01*
X136016000Y-86025000D01*
G75*
G02*
X135866000Y-85875000I0J150000D01*
G01*
G37*
G36*
G01*
X135866000Y-84605000D02*
X135866000Y-84305000D01*
G75*
G02*
X136016000Y-84155000I150000J0D01*
G01*
X137666000Y-84155000D01*
G75*
G02*
X137816000Y-84305000I0J-150000D01*
G01*
X137816000Y-84605000D01*
G75*
G02*
X137666000Y-84755000I-150000J0D01*
G01*
X136016000Y-84755000D01*
G75*
G02*
X135866000Y-84605000I0J150000D01*
G01*
G37*
G36*
G01*
X135866000Y-83335000D02*
X135866000Y-83035000D01*
G75*
G02*
X136016000Y-82885000I150000J0D01*
G01*
X137666000Y-82885000D01*
G75*
G02*
X137816000Y-83035000I0J-150000D01*
G01*
X137816000Y-83335000D01*
G75*
G02*
X137666000Y-83485000I-150000J0D01*
G01*
X136016000Y-83485000D01*
G75*
G02*
X135866000Y-83335000I0J150000D01*
G01*
G37*
G36*
G01*
X135866000Y-82065000D02*
X135866000Y-81765000D01*
G75*
G02*
X136016000Y-81615000I150000J0D01*
G01*
X137666000Y-81615000D01*
G75*
G02*
X137816000Y-81765000I0J-150000D01*
G01*
X137816000Y-82065000D01*
G75*
G02*
X137666000Y-82215000I-150000J0D01*
G01*
X136016000Y-82215000D01*
G75*
G02*
X135866000Y-82065000I0J150000D01*
G01*
G37*
G36*
G01*
X135866000Y-80795000D02*
X135866000Y-80495000D01*
G75*
G02*
X136016000Y-80345000I150000J0D01*
G01*
X137666000Y-80345000D01*
G75*
G02*
X137816000Y-80495000I0J-150000D01*
G01*
X137816000Y-80795000D01*
G75*
G02*
X137666000Y-80945000I-150000J0D01*
G01*
X136016000Y-80945000D01*
G75*
G02*
X135866000Y-80795000I0J150000D01*
G01*
G37*
%TD*%
D16*
%TO.C,Y2*%
X128458000Y-86417000D03*
X128458000Y-84017000D03*
X126558000Y-84017000D03*
X126558000Y-86417000D03*
%TD*%
D17*
%TO.C,J12*%
X141478000Y-73533000D03*
D18*
X138938000Y-73533000D03*
X136398000Y-73533000D03*
X133858000Y-73533000D03*
X131318000Y-73533000D03*
X128778000Y-73533000D03*
X126238000Y-73533000D03*
%TD*%
M02*
