%TF.GenerationSoftware,KiCad,Pcbnew,(5.1.7)-1*%
%TF.CreationDate,2020-11-03T18:18:40+01:00*%
%TF.ProjectId,Temperature-controller-with-ESP8266,54656d70-6572-4617-9475-72652d636f6e,rev?*%
%TF.SameCoordinates,Original*%
%TF.FileFunction,Soldermask,Top*%
%TF.FilePolarity,Negative*%
%FSLAX46Y46*%
G04 Gerber Fmt 4.6, Leading zero omitted, Abs format (unit mm)*
G04 Created by KiCad (PCBNEW (5.1.7)-1) date 2020-11-03 18:18:40*
%MOMM*%
%LPD*%
G01*
G04 APERTURE LIST*
%TA.AperFunction,Profile*%
%ADD10C,0.050000*%
%TD*%
%ADD11R,1.350000X1.350000*%
%ADD12C,1.800000*%
%ADD13R,1.800000X1.800000*%
%ADD14O,1.700000X1.700000*%
%ADD15R,1.700000X1.700000*%
%ADD16C,1.500000*%
%ADD17C,2.300000*%
%ADD18R,1.500000X1.500000*%
%ADD19C,0.800000*%
%ADD20C,6.400000*%
%ADD21C,2.600000*%
%ADD22R,2.600000X2.600000*%
%ADD23O,3.500000X2.200000*%
%ADD24O,2.500000X1.500000*%
%ADD25R,2.500000X1.500000*%
%ADD26R,1.800000X1.100000*%
%ADD27C,1.000000*%
%ADD28O,2.500000X2.500000*%
%ADD29R,2.500000X2.500000*%
%ADD30O,9.500000X1.700000*%
%ADD31O,6.500000X1.700000*%
%ADD32R,0.800000X0.900000*%
%ADD33R,2.500000X1.000000*%
%ADD34R,1.000000X1.800000*%
G04 APERTURE END LIST*
D10*
X119126000Y-53721000D02*
X132080000Y-53721000D01*
X119126000Y-53721000D02*
G75*
G02*
X118110000Y-54737000I-1016000J0D01*
G01*
X109474000Y-53721000D02*
G75*
G03*
X110490000Y-54737000I1016000J0D01*
G01*
X118110000Y-54737000D02*
X110490000Y-54737000D01*
X86741000Y-121031000D02*
G75*
G02*
X83693000Y-117983000I0J3048000D01*
G01*
X144780000Y-117983000D02*
G75*
G02*
X141732000Y-121031000I-3048000J0D01*
G01*
X83693000Y-68707000D02*
G75*
G02*
X86741000Y-65659000I3048000J0D01*
G01*
X94742000Y-58166000D02*
G75*
G02*
X87249000Y-65659000I-7493000J0D01*
G01*
X83693000Y-68707000D02*
X83693000Y-69215000D01*
X86741000Y-65659000D02*
X87249000Y-65659000D01*
X94742000Y-55372000D02*
G75*
G02*
X96393000Y-53721000I1651000J0D01*
G01*
X132080000Y-53721000D02*
G75*
G02*
X133731000Y-55372000I0J-1651000D01*
G01*
X144780000Y-117983000D02*
X144780000Y-68707000D01*
X141732000Y-65659000D02*
G75*
G02*
X144780000Y-68707000I0J-3048000D01*
G01*
X141224000Y-65659000D02*
G75*
G02*
X133731000Y-58166000I0J7493000D01*
G01*
X141732000Y-65659000D02*
X141224000Y-65659000D01*
X133731000Y-55372000D02*
X133731000Y-58166000D01*
X94742000Y-55372000D02*
X94742000Y-58166000D01*
X96393000Y-53721000D02*
X109474000Y-53721000D01*
X86741000Y-121031000D02*
X141732000Y-121031000D01*
X83693000Y-117983000D02*
X83693000Y-69215000D01*
D11*
%TO.C,H8*%
X85090000Y-107823000D03*
%TD*%
%TO.C,H7*%
X115697000Y-91694000D03*
%TD*%
%TO.C,H6*%
X143256000Y-103929001D03*
%TD*%
%TO.C,H5*%
X141224000Y-91694000D03*
%TD*%
D12*
%TO.C,D1*%
X95504000Y-79756000D03*
D13*
X98044000Y-79756000D03*
%TD*%
D12*
%TO.C,D2*%
X95377000Y-84582000D03*
D13*
X97917000Y-84582000D03*
%TD*%
D14*
%TO.C,J5*%
X102870000Y-63881000D03*
X102870000Y-66421000D03*
X102870000Y-68961000D03*
X102870000Y-71501000D03*
X102870000Y-74041000D03*
X102870000Y-76581000D03*
X102870000Y-79121000D03*
D15*
X102870000Y-81661000D03*
%TD*%
D14*
%TO.C,J4*%
X125730000Y-63881000D03*
X125730000Y-66421000D03*
X125730000Y-68961000D03*
X125730000Y-71501000D03*
X125730000Y-74041000D03*
X125730000Y-76581000D03*
X125730000Y-79121000D03*
D15*
X125730000Y-81661000D03*
%TD*%
D16*
%TO.C,J1*%
X138188000Y-86233000D03*
D17*
X142658000Y-81393000D03*
D16*
X137168000Y-83693000D03*
X136148000Y-86233000D03*
D18*
X135128000Y-83693000D03*
D17*
X130658000Y-81393000D03*
%TD*%
D19*
%TO.C,H4*%
X93044944Y-70404056D03*
X94742000Y-71107000D03*
X96439056Y-70404056D03*
X97142000Y-68707000D03*
X96439056Y-67009944D03*
X94742000Y-66307000D03*
X93044944Y-67009944D03*
X92342000Y-68707000D03*
D20*
X94742000Y-68707000D03*
%TD*%
D19*
%TO.C,H3*%
X132033944Y-70404056D03*
X133731000Y-71107000D03*
X135428056Y-70404056D03*
X136131000Y-68707000D03*
X135428056Y-67009944D03*
X133731000Y-66307000D03*
X132033944Y-67009944D03*
X131331000Y-68707000D03*
D20*
X133731000Y-68707000D03*
%TD*%
D19*
%TO.C,H2*%
X132033944Y-111933056D03*
X133731000Y-112636000D03*
X135428056Y-111933056D03*
X136131000Y-110236000D03*
X135428056Y-108538944D03*
X133731000Y-107836000D03*
X132033944Y-108538944D03*
X131331000Y-110236000D03*
D20*
X133731000Y-110236000D03*
%TD*%
D19*
%TO.C,H1*%
X93044944Y-111933056D03*
X94742000Y-112636000D03*
X96439056Y-111933056D03*
X97142000Y-110236000D03*
X96439056Y-108538944D03*
X94742000Y-107836000D03*
X93044944Y-108538944D03*
X92342000Y-110236000D03*
D20*
X94742000Y-110236000D03*
%TD*%
D21*
%TO.C,J9*%
X112014000Y-112903000D03*
X106934000Y-112903000D03*
D22*
X101854000Y-112903000D03*
%TD*%
D21*
%TO.C,J8*%
X124714000Y-113030000D03*
D22*
X119634000Y-113030000D03*
%TD*%
D23*
%TO.C,SW2*%
X86233000Y-79411000D03*
X86233000Y-71211000D03*
D24*
X86233000Y-77311000D03*
X86233000Y-75311000D03*
D25*
X86233000Y-73311000D03*
%TD*%
D26*
%TO.C,SW1*%
X125170000Y-56189000D03*
X131370000Y-56189000D03*
X125170000Y-59889000D03*
X131370000Y-59889000D03*
%TD*%
D27*
%TO.C,J3*%
X116500000Y-60066000D03*
X112100000Y-60066000D03*
%TD*%
D28*
%TO.C,RL1*%
X86995000Y-95878000D03*
X101995000Y-95878000D03*
X106995000Y-95878000D03*
X111995000Y-95878000D03*
X111995000Y-103378000D03*
X106995000Y-103378000D03*
X101995000Y-103378000D03*
D29*
X86995000Y-103378000D03*
%TD*%
D30*
%TO.C,PS1*%
X120675400Y-104597200D03*
D31*
X137566400Y-104597200D03*
%TD*%
D32*
%TO.C,Q4*%
X92964000Y-91297000D03*
X92014000Y-89297000D03*
X93914000Y-89297000D03*
%TD*%
%TO.C,R14*%
G36*
G01*
X88283202Y-90278000D02*
X87383198Y-90278000D01*
G75*
G02*
X87133200Y-90028002I0J249998D01*
G01*
X87133200Y-89502998D01*
G75*
G02*
X87383198Y-89253000I249998J0D01*
G01*
X88283202Y-89253000D01*
G75*
G02*
X88533200Y-89502998I0J-249998D01*
G01*
X88533200Y-90028002D01*
G75*
G02*
X88283202Y-90278000I-249998J0D01*
G01*
G37*
G36*
G01*
X88283202Y-92103000D02*
X87383198Y-92103000D01*
G75*
G02*
X87133200Y-91853002I0J249998D01*
G01*
X87133200Y-91327998D01*
G75*
G02*
X87383198Y-91078000I249998J0D01*
G01*
X88283202Y-91078000D01*
G75*
G02*
X88533200Y-91327998I0J-249998D01*
G01*
X88533200Y-91853002D01*
G75*
G02*
X88283202Y-92103000I-249998J0D01*
G01*
G37*
%TD*%
D33*
%TO.C,U1*%
X106700000Y-77541000D03*
X106700000Y-75541000D03*
X106700000Y-73541000D03*
X106700000Y-71541000D03*
X106700000Y-69541000D03*
X106700000Y-67541000D03*
X106700000Y-65541000D03*
X106700000Y-63541000D03*
D34*
X109300000Y-62041000D03*
X111300000Y-62041000D03*
X113300000Y-62041000D03*
X115300000Y-62041000D03*
X117300000Y-62041000D03*
X119300000Y-62041000D03*
D33*
X121900000Y-63541000D03*
X121900000Y-65541000D03*
X121900000Y-67541000D03*
X121900000Y-69541000D03*
X121900000Y-71541000D03*
X121900000Y-73541000D03*
X121900000Y-75541000D03*
X121900000Y-77541000D03*
%TD*%
M02*
