%TF.GenerationSoftware,KiCad,Pcbnew,(5.1.7)-1*%
%TF.CreationDate,2020-11-03T18:18:40+01:00*%
%TF.ProjectId,Temperature-controller-with-ESP8266,54656d70-6572-4617-9475-72652d636f6e,rev?*%
%TF.SameCoordinates,Original*%
%TF.FileFunction,Profile,NP*%
%FSLAX46Y46*%
G04 Gerber Fmt 4.6, Leading zero omitted, Abs format (unit mm)*
G04 Created by KiCad (PCBNEW (5.1.7)-1) date 2020-11-03 18:18:40*
%MOMM*%
%LPD*%
G01*
G04 APERTURE LIST*
%TA.AperFunction,Profile*%
%ADD10C,0.050000*%
%TD*%
G04 APERTURE END LIST*
D10*
X119126000Y-53721000D02*
X132080000Y-53721000D01*
X119126000Y-53721000D02*
G75*
G02*
X118110000Y-54737000I-1016000J0D01*
G01*
X109474000Y-53721000D02*
G75*
G03*
X110490000Y-54737000I1016000J0D01*
G01*
X118110000Y-54737000D02*
X110490000Y-54737000D01*
X86741000Y-121031000D02*
G75*
G02*
X83693000Y-117983000I0J3048000D01*
G01*
X144780000Y-117983000D02*
G75*
G02*
X141732000Y-121031000I-3048000J0D01*
G01*
X83693000Y-68707000D02*
G75*
G02*
X86741000Y-65659000I3048000J0D01*
G01*
X94742000Y-58166000D02*
G75*
G02*
X87249000Y-65659000I-7493000J0D01*
G01*
X83693000Y-68707000D02*
X83693000Y-69215000D01*
X86741000Y-65659000D02*
X87249000Y-65659000D01*
X94742000Y-55372000D02*
G75*
G02*
X96393000Y-53721000I1651000J0D01*
G01*
X132080000Y-53721000D02*
G75*
G02*
X133731000Y-55372000I0J-1651000D01*
G01*
X144780000Y-117983000D02*
X144780000Y-68707000D01*
X141732000Y-65659000D02*
G75*
G02*
X144780000Y-68707000I0J-3048000D01*
G01*
X141224000Y-65659000D02*
G75*
G02*
X133731000Y-58166000I0J7493000D01*
G01*
X141732000Y-65659000D02*
X141224000Y-65659000D01*
X133731000Y-55372000D02*
X133731000Y-58166000D01*
X94742000Y-55372000D02*
X94742000Y-58166000D01*
X96393000Y-53721000D02*
X109474000Y-53721000D01*
X86741000Y-121031000D02*
X141732000Y-121031000D01*
X83693000Y-117983000D02*
X83693000Y-69215000D01*
M02*
