%TF.GenerationSoftware,KiCad,Pcbnew,(5.1.7)-1*%
%TF.CreationDate,2020-11-03T18:18:40+01:00*%
%TF.ProjectId,Temperature-controller-with-ESP8266,54656d70-6572-4617-9475-72652d636f6e,rev?*%
%TF.SameCoordinates,Original*%
%TF.FileFunction,Copper,L2,Bot*%
%TF.FilePolarity,Positive*%
%FSLAX46Y46*%
G04 Gerber Fmt 4.6, Leading zero omitted, Abs format (unit mm)*
G04 Created by KiCad (PCBNEW (5.1.7)-1) date 2020-11-03 18:18:40*
%MOMM*%
%LPD*%
G01*
G04 APERTURE LIST*
%TA.AperFunction,Profile*%
%ADD10C,0.050000*%
%TD*%
%TA.AperFunction,ComponentPad*%
%ADD11R,1.350000X1.350000*%
%TD*%
%TA.AperFunction,SMDPad,CuDef*%
%ADD12R,0.900000X0.800000*%
%TD*%
%TA.AperFunction,ComponentPad*%
%ADD13C,1.800000*%
%TD*%
%TA.AperFunction,ComponentPad*%
%ADD14R,1.800000X1.800000*%
%TD*%
%TA.AperFunction,ComponentPad*%
%ADD15O,1.700000X1.700000*%
%TD*%
%TA.AperFunction,ComponentPad*%
%ADD16R,1.700000X1.700000*%
%TD*%
%TA.AperFunction,ComponentPad*%
%ADD17C,1.500000*%
%TD*%
%TA.AperFunction,ComponentPad*%
%ADD18R,1.500000X1.500000*%
%TD*%
%TA.AperFunction,ComponentPad*%
%ADD19C,0.800000*%
%TD*%
%TA.AperFunction,ComponentPad*%
%ADD20C,6.400000*%
%TD*%
%TA.AperFunction,ComponentPad*%
%ADD21C,2.600000*%
%TD*%
%TA.AperFunction,ComponentPad*%
%ADD22R,2.600000X2.600000*%
%TD*%
%TA.AperFunction,SMDPad,CuDef*%
%ADD23R,1.500000X2.000000*%
%TD*%
%TA.AperFunction,SMDPad,CuDef*%
%ADD24R,3.800000X2.000000*%
%TD*%
%TA.AperFunction,SMDPad,CuDef*%
%ADD25R,1.200000X1.400000*%
%TD*%
%TA.AperFunction,ComponentPad*%
%ADD26O,3.500000X2.200000*%
%TD*%
%TA.AperFunction,ComponentPad*%
%ADD27O,2.500000X1.500000*%
%TD*%
%TA.AperFunction,ComponentPad*%
%ADD28R,2.500000X1.500000*%
%TD*%
%TA.AperFunction,SMDPad,CuDef*%
%ADD29R,2.050000X4.000000*%
%TD*%
%TA.AperFunction,SMDPad,CuDef*%
%ADD30R,2.050000X3.500000*%
%TD*%
%TA.AperFunction,SMDPad,CuDef*%
%ADD31R,0.500000X3.000000*%
%TD*%
%TA.AperFunction,ComponentPad*%
%ADD32O,2.500000X2.500000*%
%TD*%
%TA.AperFunction,ComponentPad*%
%ADD33R,2.500000X2.500000*%
%TD*%
%TA.AperFunction,SMDPad,CuDef*%
%ADD34R,3.000000X2.000000*%
%TD*%
%TA.AperFunction,SMDPad,CuDef*%
%ADD35R,2.000000X2.000000*%
%TD*%
%TA.AperFunction,SMDPad,CuDef*%
%ADD36R,1.800000X2.500000*%
%TD*%
%TA.AperFunction,SMDPad,CuDef*%
%ADD37R,2.000000X0.640000*%
%TD*%
%TA.AperFunction,ViaPad*%
%ADD38C,0.800000*%
%TD*%
%TA.AperFunction,Conductor*%
%ADD39C,0.400000*%
%TD*%
%TA.AperFunction,Conductor*%
%ADD40C,0.800000*%
%TD*%
%TA.AperFunction,Conductor*%
%ADD41C,1.500000*%
%TD*%
%TA.AperFunction,Conductor*%
%ADD42C,4.000000*%
%TD*%
%TA.AperFunction,Conductor*%
%ADD43C,0.254000*%
%TD*%
%TA.AperFunction,Conductor*%
%ADD44C,0.150000*%
%TD*%
G04 APERTURE END LIST*
D10*
X119126000Y-53721000D02*
X132080000Y-53721000D01*
X119126000Y-53721000D02*
G75*
G02*
X118110000Y-54737000I-1016000J0D01*
G01*
X109474000Y-53721000D02*
G75*
G03*
X110490000Y-54737000I1016000J0D01*
G01*
X118110000Y-54737000D02*
X110490000Y-54737000D01*
X86741000Y-121031000D02*
G75*
G02*
X83693000Y-117983000I0J3048000D01*
G01*
X144780000Y-117983000D02*
G75*
G02*
X141732000Y-121031000I-3048000J0D01*
G01*
X83693000Y-68707000D02*
G75*
G02*
X86741000Y-65659000I3048000J0D01*
G01*
X94742000Y-58166000D02*
G75*
G02*
X87249000Y-65659000I-7493000J0D01*
G01*
X83693000Y-68707000D02*
X83693000Y-69215000D01*
X86741000Y-65659000D02*
X87249000Y-65659000D01*
X94742000Y-55372000D02*
G75*
G02*
X96393000Y-53721000I1651000J0D01*
G01*
X132080000Y-53721000D02*
G75*
G02*
X133731000Y-55372000I0J-1651000D01*
G01*
X144780000Y-117983000D02*
X144780000Y-68707000D01*
X141732000Y-65659000D02*
G75*
G02*
X144780000Y-68707000I0J-3048000D01*
G01*
X141224000Y-65659000D02*
G75*
G02*
X133731000Y-58166000I0J7493000D01*
G01*
X141732000Y-65659000D02*
X141224000Y-65659000D01*
X133731000Y-55372000D02*
X133731000Y-58166000D01*
X94742000Y-55372000D02*
X94742000Y-58166000D01*
X96393000Y-53721000D02*
X109474000Y-53721000D01*
X86741000Y-121031000D02*
X141732000Y-121031000D01*
X83693000Y-117983000D02*
X83693000Y-69215000D01*
D11*
%TO.P,H8,1*%
%TO.N,GND*%
X85090000Y-107823000D03*
%TD*%
%TO.P,H7,1*%
%TO.N,GND*%
X115697000Y-91694000D03*
%TD*%
%TO.P,H6,1*%
%TO.N,GND*%
X143256000Y-103929001D03*
%TD*%
%TO.P,H5,1*%
%TO.N,GND*%
X141224000Y-91694000D03*
%TD*%
D12*
%TO.P,Q2,3*%
%TO.N,GPIO0*%
X110252000Y-77597000D03*
%TO.P,Q2,2*%
%TO.N,Net-(Q2-Pad2)*%
X112252000Y-78547000D03*
%TO.P,Q2,1*%
%TO.N,DTR*%
X112252000Y-76647000D03*
%TD*%
%TO.P,Q1,3*%
%TO.N,RST*%
X115808000Y-77597000D03*
%TO.P,Q1,2*%
%TO.N,Net-(Q1-Pad2)*%
X113808000Y-76647000D03*
%TO.P,Q1,1*%
%TO.N,RTS*%
X113808000Y-78547000D03*
%TD*%
%TO.P,R12,2*%
%TO.N,GPIO1*%
%TA.AperFunction,SMDPad,CuDef*%
G36*
G01*
X106229998Y-76473000D02*
X107130002Y-76473000D01*
G75*
G02*
X107380000Y-76722998I0J-249998D01*
G01*
X107380000Y-77248002D01*
G75*
G02*
X107130002Y-77498000I-249998J0D01*
G01*
X106229998Y-77498000D01*
G75*
G02*
X105980000Y-77248002I0J249998D01*
G01*
X105980000Y-76722998D01*
G75*
G02*
X106229998Y-76473000I249998J0D01*
G01*
G37*
%TD.AperFunction*%
%TO.P,R12,1*%
%TO.N,Net-(R12-Pad1)*%
%TA.AperFunction,SMDPad,CuDef*%
G36*
G01*
X106229998Y-74648000D02*
X107130002Y-74648000D01*
G75*
G02*
X107380000Y-74897998I0J-249998D01*
G01*
X107380000Y-75423002D01*
G75*
G02*
X107130002Y-75673000I-249998J0D01*
G01*
X106229998Y-75673000D01*
G75*
G02*
X105980000Y-75423002I0J249998D01*
G01*
X105980000Y-74897998D01*
G75*
G02*
X106229998Y-74648000I249998J0D01*
G01*
G37*
%TD.AperFunction*%
%TD*%
%TO.P,R10,2*%
%TO.N,Net-(R10-Pad2)*%
%TA.AperFunction,SMDPad,CuDef*%
G36*
G01*
X105352002Y-75673000D02*
X104451998Y-75673000D01*
G75*
G02*
X104202000Y-75423002I0J249998D01*
G01*
X104202000Y-74897998D01*
G75*
G02*
X104451998Y-74648000I249998J0D01*
G01*
X105352002Y-74648000D01*
G75*
G02*
X105602000Y-74897998I0J-249998D01*
G01*
X105602000Y-75423002D01*
G75*
G02*
X105352002Y-75673000I-249998J0D01*
G01*
G37*
%TD.AperFunction*%
%TO.P,R10,1*%
%TO.N,GPIO3*%
%TA.AperFunction,SMDPad,CuDef*%
G36*
G01*
X105352002Y-77498000D02*
X104451998Y-77498000D01*
G75*
G02*
X104202000Y-77248002I0J249998D01*
G01*
X104202000Y-76722998D01*
G75*
G02*
X104451998Y-76473000I249998J0D01*
G01*
X105352002Y-76473000D01*
G75*
G02*
X105602000Y-76722998I0J-249998D01*
G01*
X105602000Y-77248002D01*
G75*
G02*
X105352002Y-77498000I-249998J0D01*
G01*
G37*
%TD.AperFunction*%
%TD*%
%TO.P,R9,2*%
%TO.N,Net-(D1-Pad2)*%
%TA.AperFunction,SMDPad,CuDef*%
G36*
G01*
X92398002Y-80245000D02*
X91497998Y-80245000D01*
G75*
G02*
X91248000Y-79995002I0J249998D01*
G01*
X91248000Y-79469998D01*
G75*
G02*
X91497998Y-79220000I249998J0D01*
G01*
X92398002Y-79220000D01*
G75*
G02*
X92648000Y-79469998I0J-249998D01*
G01*
X92648000Y-79995002D01*
G75*
G02*
X92398002Y-80245000I-249998J0D01*
G01*
G37*
%TD.AperFunction*%
%TO.P,R9,1*%
%TO.N,+5V*%
%TA.AperFunction,SMDPad,CuDef*%
G36*
G01*
X92398002Y-82070000D02*
X91497998Y-82070000D01*
G75*
G02*
X91248000Y-81820002I0J249998D01*
G01*
X91248000Y-81294998D01*
G75*
G02*
X91497998Y-81045000I249998J0D01*
G01*
X92398002Y-81045000D01*
G75*
G02*
X92648000Y-81294998I0J-249998D01*
G01*
X92648000Y-81820002D01*
G75*
G02*
X92398002Y-82070000I-249998J0D01*
G01*
G37*
%TD.AperFunction*%
%TD*%
D13*
%TO.P,D1,2*%
%TO.N,Net-(D1-Pad2)*%
X95504000Y-79756000D03*
D14*
%TO.P,D1,1*%
%TO.N,Net-(D1-Pad1)*%
X98044000Y-79756000D03*
%TD*%
D13*
%TO.P,D2,2*%
%TO.N,Net-(D2-Pad2)*%
X95377000Y-84582000D03*
D14*
%TO.P,D2,1*%
%TO.N,Net-(D2-Pad1)*%
X97917000Y-84582000D03*
%TD*%
D15*
%TO.P,J5,8*%
%TO.N,GND*%
X102870000Y-63881000D03*
%TO.P,J5,7*%
%TO.N,+5V*%
X102870000Y-66421000D03*
%TO.P,J5,6*%
%TO.N,GPIO2*%
X102870000Y-68961000D03*
%TO.P,J5,5*%
%TO.N,GPIO0*%
X102870000Y-71501000D03*
%TO.P,J5,4*%
%TO.N,GPIO4*%
X102870000Y-74041000D03*
%TO.P,J5,3*%
%TO.N,GPIO5*%
X102870000Y-76581000D03*
%TO.P,J5,2*%
%TO.N,GPIO3*%
X102870000Y-79121000D03*
D16*
%TO.P,J5,1*%
%TO.N,GPIO1*%
X102870000Y-81661000D03*
%TD*%
D15*
%TO.P,J4,8*%
%TO.N,+3V3*%
X125730000Y-63881000D03*
%TO.P,J4,7*%
%TO.N,GPIO15*%
X125730000Y-66421000D03*
%TO.P,J4,6*%
%TO.N,GPIO13*%
X125730000Y-68961000D03*
%TO.P,J4,5*%
%TO.N,DATA*%
X125730000Y-71501000D03*
%TO.P,J4,4*%
%TO.N,GPIO14*%
X125730000Y-74041000D03*
%TO.P,J4,3*%
%TO.N,BUTTON*%
X125730000Y-76581000D03*
%TO.P,J4,2*%
%TO.N,ADC*%
X125730000Y-79121000D03*
D16*
%TO.P,J4,1*%
%TO.N,RST*%
X125730000Y-81661000D03*
%TD*%
D17*
%TO.P,J1,4*%
%TO.N,+3V3*%
X138188000Y-86233000D03*
%TO.P,J1,3*%
%TO.N,N/C*%
X137168000Y-83693000D03*
%TO.P,J1,2*%
%TO.N,DATA*%
X136148000Y-86233000D03*
D18*
%TO.P,J1,1*%
%TO.N,GND*%
X135128000Y-83693000D03*
%TD*%
D19*
%TO.P,H4,1*%
%TO.N,GND*%
X93044944Y-70404056D03*
X94742000Y-71107000D03*
X96439056Y-70404056D03*
X97142000Y-68707000D03*
X96439056Y-67009944D03*
X94742000Y-66307000D03*
X93044944Y-67009944D03*
X92342000Y-68707000D03*
D20*
X94742000Y-68707000D03*
%TD*%
D19*
%TO.P,H3,1*%
%TO.N,GND*%
X132033944Y-70404056D03*
X133731000Y-71107000D03*
X135428056Y-70404056D03*
X136131000Y-68707000D03*
X135428056Y-67009944D03*
X133731000Y-66307000D03*
X132033944Y-67009944D03*
X131331000Y-68707000D03*
D20*
X133731000Y-68707000D03*
%TD*%
D19*
%TO.P,H2,1*%
%TO.N,GND*%
X132033944Y-111933056D03*
X133731000Y-112636000D03*
X135428056Y-111933056D03*
X136131000Y-110236000D03*
X135428056Y-108538944D03*
X133731000Y-107836000D03*
X132033944Y-108538944D03*
X131331000Y-110236000D03*
D20*
X133731000Y-110236000D03*
%TD*%
D19*
%TO.P,H1,1*%
%TO.N,GND*%
X93044944Y-111933056D03*
X94742000Y-112636000D03*
X96439056Y-111933056D03*
X97142000Y-110236000D03*
X96439056Y-108538944D03*
X94742000Y-107836000D03*
X93044944Y-108538944D03*
X92342000Y-110236000D03*
D20*
X94742000Y-110236000D03*
%TD*%
D21*
%TO.P,J9,3*%
%TO.N,NO*%
X112014000Y-112903000D03*
%TO.P,J9,2*%
%TO.N,COM*%
X106934000Y-112903000D03*
D22*
%TO.P,J9,1*%
%TO.N,NC*%
X101854000Y-112903000D03*
%TD*%
D21*
%TO.P,J8,2*%
%TO.N,L*%
X124714000Y-113030000D03*
D22*
%TO.P,J8,1*%
%TO.N,N*%
X119634000Y-113030000D03*
%TD*%
%TO.P,U3,8*%
%TO.N,+3V3*%
%TA.AperFunction,SMDPad,CuDef*%
G36*
G01*
X107720000Y-85321000D02*
X107720000Y-85621000D01*
G75*
G02*
X107570000Y-85771000I-150000J0D01*
G01*
X105920000Y-85771000D01*
G75*
G02*
X105770000Y-85621000I0J150000D01*
G01*
X105770000Y-85321000D01*
G75*
G02*
X105920000Y-85171000I150000J0D01*
G01*
X107570000Y-85171000D01*
G75*
G02*
X107720000Y-85321000I0J-150000D01*
G01*
G37*
%TD.AperFunction*%
%TO.P,U3,7*%
%TO.N,GND*%
%TA.AperFunction,SMDPad,CuDef*%
G36*
G01*
X107720000Y-86591000D02*
X107720000Y-86891000D01*
G75*
G02*
X107570000Y-87041000I-150000J0D01*
G01*
X105920000Y-87041000D01*
G75*
G02*
X105770000Y-86891000I0J150000D01*
G01*
X105770000Y-86591000D01*
G75*
G02*
X105920000Y-86441000I150000J0D01*
G01*
X107570000Y-86441000D01*
G75*
G02*
X107720000Y-86591000I0J-150000D01*
G01*
G37*
%TD.AperFunction*%
%TO.P,U3,6*%
%TO.N,GPIO5*%
%TA.AperFunction,SMDPad,CuDef*%
G36*
G01*
X107720000Y-87861000D02*
X107720000Y-88161000D01*
G75*
G02*
X107570000Y-88311000I-150000J0D01*
G01*
X105920000Y-88311000D01*
G75*
G02*
X105770000Y-88161000I0J150000D01*
G01*
X105770000Y-87861000D01*
G75*
G02*
X105920000Y-87711000I150000J0D01*
G01*
X107570000Y-87711000D01*
G75*
G02*
X107720000Y-87861000I0J-150000D01*
G01*
G37*
%TD.AperFunction*%
%TO.P,U3,5*%
%TO.N,GPIO4*%
%TA.AperFunction,SMDPad,CuDef*%
G36*
G01*
X107720000Y-89131000D02*
X107720000Y-89431000D01*
G75*
G02*
X107570000Y-89581000I-150000J0D01*
G01*
X105920000Y-89581000D01*
G75*
G02*
X105770000Y-89431000I0J150000D01*
G01*
X105770000Y-89131000D01*
G75*
G02*
X105920000Y-88981000I150000J0D01*
G01*
X107570000Y-88981000D01*
G75*
G02*
X107720000Y-89131000I0J-150000D01*
G01*
G37*
%TD.AperFunction*%
%TO.P,U3,4*%
%TO.N,GND*%
%TA.AperFunction,SMDPad,CuDef*%
G36*
G01*
X112670000Y-89131000D02*
X112670000Y-89431000D01*
G75*
G02*
X112520000Y-89581000I-150000J0D01*
G01*
X110870000Y-89581000D01*
G75*
G02*
X110720000Y-89431000I0J150000D01*
G01*
X110720000Y-89131000D01*
G75*
G02*
X110870000Y-88981000I150000J0D01*
G01*
X112520000Y-88981000D01*
G75*
G02*
X112670000Y-89131000I0J-150000D01*
G01*
G37*
%TD.AperFunction*%
%TO.P,U3,3*%
%TA.AperFunction,SMDPad,CuDef*%
G36*
G01*
X112670000Y-87861000D02*
X112670000Y-88161000D01*
G75*
G02*
X112520000Y-88311000I-150000J0D01*
G01*
X110870000Y-88311000D01*
G75*
G02*
X110720000Y-88161000I0J150000D01*
G01*
X110720000Y-87861000D01*
G75*
G02*
X110870000Y-87711000I150000J0D01*
G01*
X112520000Y-87711000D01*
G75*
G02*
X112670000Y-87861000I0J-150000D01*
G01*
G37*
%TD.AperFunction*%
%TO.P,U3,2*%
%TA.AperFunction,SMDPad,CuDef*%
G36*
G01*
X112670000Y-86591000D02*
X112670000Y-86891000D01*
G75*
G02*
X112520000Y-87041000I-150000J0D01*
G01*
X110870000Y-87041000D01*
G75*
G02*
X110720000Y-86891000I0J150000D01*
G01*
X110720000Y-86591000D01*
G75*
G02*
X110870000Y-86441000I150000J0D01*
G01*
X112520000Y-86441000D01*
G75*
G02*
X112670000Y-86591000I0J-150000D01*
G01*
G37*
%TD.AperFunction*%
%TO.P,U3,1*%
%TA.AperFunction,SMDPad,CuDef*%
G36*
G01*
X112670000Y-85321000D02*
X112670000Y-85621000D01*
G75*
G02*
X112520000Y-85771000I-150000J0D01*
G01*
X110870000Y-85771000D01*
G75*
G02*
X110720000Y-85621000I0J150000D01*
G01*
X110720000Y-85321000D01*
G75*
G02*
X110870000Y-85171000I150000J0D01*
G01*
X112520000Y-85171000D01*
G75*
G02*
X112670000Y-85321000I0J-150000D01*
G01*
G37*
%TD.AperFunction*%
%TD*%
D23*
%TO.P,U6,1*%
%TO.N,GND*%
X121045000Y-84811000D03*
%TO.P,U6,3*%
%TO.N,+5V*%
X116445000Y-84811000D03*
%TO.P,U6,2*%
%TO.N,+3V3*%
X118745000Y-84811000D03*
D24*
X118745000Y-78511000D03*
%TD*%
D25*
%TO.P,Y1,4*%
%TO.N,GND*%
X120970000Y-67761000D03*
%TO.P,Y1,3*%
%TO.N,Net-(C5-Pad1)*%
X120970000Y-70161000D03*
%TO.P,Y1,2*%
%TO.N,GND*%
X122870000Y-70161000D03*
%TO.P,Y1,1*%
%TO.N,Net-(C4-Pad1)*%
X122870000Y-67761000D03*
%TD*%
D26*
%TO.P,SW2,*%
%TO.N,*%
X86233000Y-79411000D03*
X86233000Y-71211000D03*
D27*
%TO.P,SW2,3*%
%TO.N,Net-(D1-Pad1)*%
X86233000Y-77311000D03*
%TO.P,SW2,2*%
%TO.N,GND*%
X86233000Y-75311000D03*
D28*
%TO.P,SW2,1*%
%TO.N,BUTTON*%
X86233000Y-73311000D03*
%TD*%
%TO.P,C8,2*%
%TO.N,GND*%
%TA.AperFunction,SMDPad,CuDef*%
G36*
G01*
X117290000Y-87851000D02*
X117290000Y-86901000D01*
G75*
G02*
X117540000Y-86651000I250000J0D01*
G01*
X118040000Y-86651000D01*
G75*
G02*
X118290000Y-86901000I0J-250000D01*
G01*
X118290000Y-87851000D01*
G75*
G02*
X118040000Y-88101000I-250000J0D01*
G01*
X117540000Y-88101000D01*
G75*
G02*
X117290000Y-87851000I0J250000D01*
G01*
G37*
%TD.AperFunction*%
%TO.P,C8,1*%
%TO.N,+5V*%
%TA.AperFunction,SMDPad,CuDef*%
G36*
G01*
X115390000Y-87851000D02*
X115390000Y-86901000D01*
G75*
G02*
X115640000Y-86651000I250000J0D01*
G01*
X116140000Y-86651000D01*
G75*
G02*
X116390000Y-86901000I0J-250000D01*
G01*
X116390000Y-87851000D01*
G75*
G02*
X116140000Y-88101000I-250000J0D01*
G01*
X115640000Y-88101000D01*
G75*
G02*
X115390000Y-87851000I0J250000D01*
G01*
G37*
%TD.AperFunction*%
%TD*%
D29*
%TO.P,J3,6*%
%TO.N,GND*%
X119200000Y-58166000D03*
D30*
X119200000Y-62416000D03*
D29*
X109400000Y-58166000D03*
D30*
X109400000Y-62416000D03*
D31*
%TO.P,J3,5*%
X115900000Y-62416000D03*
%TO.P,J3,4*%
%TO.N,N/C*%
X115100000Y-62416000D03*
%TO.P,J3,3*%
%TO.N,Net-(J3-Pad3)*%
X114300000Y-62416000D03*
%TO.P,J3,2*%
%TO.N,Net-(J3-Pad2)*%
X113500000Y-62416000D03*
%TO.P,J3,1*%
%TO.N,+5V*%
X112700000Y-62416000D03*
%TD*%
%TO.P,R1,2*%
%TO.N,EN*%
%TA.AperFunction,SMDPad,CuDef*%
G36*
G01*
X115970000Y-75253002D02*
X115970000Y-74352998D01*
G75*
G02*
X116219998Y-74103000I249998J0D01*
G01*
X116745002Y-74103000D01*
G75*
G02*
X116995000Y-74352998I0J-249998D01*
G01*
X116995000Y-75253002D01*
G75*
G02*
X116745002Y-75503000I-249998J0D01*
G01*
X116219998Y-75503000D01*
G75*
G02*
X115970000Y-75253002I0J249998D01*
G01*
G37*
%TD.AperFunction*%
%TO.P,R1,1*%
%TO.N,+3V3*%
%TA.AperFunction,SMDPad,CuDef*%
G36*
G01*
X114145000Y-75253002D02*
X114145000Y-74352998D01*
G75*
G02*
X114394998Y-74103000I249998J0D01*
G01*
X114920002Y-74103000D01*
G75*
G02*
X115170000Y-74352998I0J-249998D01*
G01*
X115170000Y-75253002D01*
G75*
G02*
X114920002Y-75503000I-249998J0D01*
G01*
X114394998Y-75503000D01*
G75*
G02*
X114145000Y-75253002I0J249998D01*
G01*
G37*
%TD.AperFunction*%
%TD*%
D32*
%TO.P,RL1,8*%
%TO.N,Net-(D2-Pad1)*%
X86995000Y-95878000D03*
%TO.P,RL1,7*%
%TO.N,NC*%
X101995000Y-95878000D03*
%TO.P,RL1,6*%
%TO.N,COM*%
X106995000Y-95878000D03*
%TO.P,RL1,5*%
%TO.N,NO*%
X111995000Y-95878000D03*
%TO.P,RL1,4*%
X111995000Y-103378000D03*
%TO.P,RL1,3*%
%TO.N,COM*%
X106995000Y-103378000D03*
%TO.P,RL1,2*%
%TO.N,NC*%
X101995000Y-103378000D03*
D33*
%TO.P,RL1,1*%
%TO.N,+5V*%
X86995000Y-103378000D03*
%TD*%
D34*
%TO.P,PS1,4*%
%TO.N,L*%
X118110000Y-102743000D03*
%TO.P,PS1,3*%
%TO.N,N*%
X123190000Y-102743000D03*
D35*
%TO.P,PS1,2*%
%TO.N,+5V*%
X136220200Y-102743000D03*
%TO.P,PS1,1*%
%TO.N,GND*%
X138963400Y-102743000D03*
%TD*%
%TO.P,C4,2*%
%TO.N,GND*%
%TA.AperFunction,SMDPad,CuDef*%
G36*
G01*
X122370000Y-65626000D02*
X122370000Y-64676000D01*
G75*
G02*
X122620000Y-64426000I250000J0D01*
G01*
X123120000Y-64426000D01*
G75*
G02*
X123370000Y-64676000I0J-250000D01*
G01*
X123370000Y-65626000D01*
G75*
G02*
X123120000Y-65876000I-250000J0D01*
G01*
X122620000Y-65876000D01*
G75*
G02*
X122370000Y-65626000I0J250000D01*
G01*
G37*
%TD.AperFunction*%
%TO.P,C4,1*%
%TO.N,Net-(C4-Pad1)*%
%TA.AperFunction,SMDPad,CuDef*%
G36*
G01*
X120470000Y-65626000D02*
X120470000Y-64676000D01*
G75*
G02*
X120720000Y-64426000I250000J0D01*
G01*
X121220000Y-64426000D01*
G75*
G02*
X121470000Y-64676000I0J-250000D01*
G01*
X121470000Y-65626000D01*
G75*
G02*
X121220000Y-65876000I-250000J0D01*
G01*
X120720000Y-65876000D01*
G75*
G02*
X120470000Y-65626000I0J250000D01*
G01*
G37*
%TD.AperFunction*%
%TD*%
%TO.P,C5,2*%
%TO.N,GND*%
%TA.AperFunction,SMDPad,CuDef*%
G36*
G01*
X122370000Y-72611000D02*
X122370000Y-71661000D01*
G75*
G02*
X122620000Y-71411000I250000J0D01*
G01*
X123120000Y-71411000D01*
G75*
G02*
X123370000Y-71661000I0J-250000D01*
G01*
X123370000Y-72611000D01*
G75*
G02*
X123120000Y-72861000I-250000J0D01*
G01*
X122620000Y-72861000D01*
G75*
G02*
X122370000Y-72611000I0J250000D01*
G01*
G37*
%TD.AperFunction*%
%TO.P,C5,1*%
%TO.N,Net-(C5-Pad1)*%
%TA.AperFunction,SMDPad,CuDef*%
G36*
G01*
X120470000Y-72611000D02*
X120470000Y-71661000D01*
G75*
G02*
X120720000Y-71411000I250000J0D01*
G01*
X121220000Y-71411000D01*
G75*
G02*
X121470000Y-71661000I0J-250000D01*
G01*
X121470000Y-72611000D01*
G75*
G02*
X121220000Y-72861000I-250000J0D01*
G01*
X120720000Y-72861000D01*
G75*
G02*
X120470000Y-72611000I0J250000D01*
G01*
G37*
%TD.AperFunction*%
%TD*%
%TO.P,C9,2*%
%TO.N,GND*%
%TA.AperFunction,SMDPad,CuDef*%
G36*
G01*
X121100000Y-87851000D02*
X121100000Y-86901000D01*
G75*
G02*
X121350000Y-86651000I250000J0D01*
G01*
X121850000Y-86651000D01*
G75*
G02*
X122100000Y-86901000I0J-250000D01*
G01*
X122100000Y-87851000D01*
G75*
G02*
X121850000Y-88101000I-250000J0D01*
G01*
X121350000Y-88101000D01*
G75*
G02*
X121100000Y-87851000I0J250000D01*
G01*
G37*
%TD.AperFunction*%
%TO.P,C9,1*%
%TO.N,+3V3*%
%TA.AperFunction,SMDPad,CuDef*%
G36*
G01*
X119200000Y-87851000D02*
X119200000Y-86901000D01*
G75*
G02*
X119450000Y-86651000I250000J0D01*
G01*
X119950000Y-86651000D01*
G75*
G02*
X120200000Y-86901000I0J-250000D01*
G01*
X120200000Y-87851000D01*
G75*
G02*
X119950000Y-88101000I-250000J0D01*
G01*
X119450000Y-88101000D01*
G75*
G02*
X119200000Y-87851000I0J250000D01*
G01*
G37*
%TD.AperFunction*%
%TD*%
D36*
%TO.P,D3,2*%
%TO.N,Net-(D2-Pad1)*%
X91186000Y-97822000D03*
%TO.P,D3,1*%
%TO.N,+5V*%
X91186000Y-101822000D03*
%TD*%
%TO.P,R2,2*%
%TO.N,+3V3*%
%TA.AperFunction,SMDPad,CuDef*%
G36*
G01*
X124060000Y-89465998D02*
X124060000Y-90366002D01*
G75*
G02*
X123810002Y-90616000I-249998J0D01*
G01*
X123284998Y-90616000D01*
G75*
G02*
X123035000Y-90366002I0J249998D01*
G01*
X123035000Y-89465998D01*
G75*
G02*
X123284998Y-89216000I249998J0D01*
G01*
X123810002Y-89216000D01*
G75*
G02*
X124060000Y-89465998I0J-249998D01*
G01*
G37*
%TD.AperFunction*%
%TO.P,R2,1*%
%TO.N,RST*%
%TA.AperFunction,SMDPad,CuDef*%
G36*
G01*
X125885000Y-89465998D02*
X125885000Y-90366002D01*
G75*
G02*
X125635002Y-90616000I-249998J0D01*
G01*
X125109998Y-90616000D01*
G75*
G02*
X124860000Y-90366002I0J249998D01*
G01*
X124860000Y-89465998D01*
G75*
G02*
X125109998Y-89216000I249998J0D01*
G01*
X125635002Y-89216000D01*
G75*
G02*
X125885000Y-89465998I0J-249998D01*
G01*
G37*
%TD.AperFunction*%
%TD*%
%TO.P,R3,2*%
%TO.N,+3V3*%
%TA.AperFunction,SMDPad,CuDef*%
G36*
G01*
X106445000Y-69411002D02*
X106445000Y-68510998D01*
G75*
G02*
X106694998Y-68261000I249998J0D01*
G01*
X107220002Y-68261000D01*
G75*
G02*
X107470000Y-68510998I0J-249998D01*
G01*
X107470000Y-69411002D01*
G75*
G02*
X107220002Y-69661000I-249998J0D01*
G01*
X106694998Y-69661000D01*
G75*
G02*
X106445000Y-69411002I0J249998D01*
G01*
G37*
%TD.AperFunction*%
%TO.P,R3,1*%
%TO.N,GPIO0*%
%TA.AperFunction,SMDPad,CuDef*%
G36*
G01*
X104620000Y-69411002D02*
X104620000Y-68510998D01*
G75*
G02*
X104869998Y-68261000I249998J0D01*
G01*
X105395002Y-68261000D01*
G75*
G02*
X105645000Y-68510998I0J-249998D01*
G01*
X105645000Y-69411002D01*
G75*
G02*
X105395002Y-69661000I-249998J0D01*
G01*
X104869998Y-69661000D01*
G75*
G02*
X104620000Y-69411002I0J249998D01*
G01*
G37*
%TD.AperFunction*%
%TD*%
%TO.P,R4,2*%
%TO.N,+3V3*%
%TA.AperFunction,SMDPad,CuDef*%
G36*
G01*
X106445000Y-66871002D02*
X106445000Y-65970998D01*
G75*
G02*
X106694998Y-65721000I249998J0D01*
G01*
X107220002Y-65721000D01*
G75*
G02*
X107470000Y-65970998I0J-249998D01*
G01*
X107470000Y-66871002D01*
G75*
G02*
X107220002Y-67121000I-249998J0D01*
G01*
X106694998Y-67121000D01*
G75*
G02*
X106445000Y-66871002I0J249998D01*
G01*
G37*
%TD.AperFunction*%
%TO.P,R4,1*%
%TO.N,GPIO2*%
%TA.AperFunction,SMDPad,CuDef*%
G36*
G01*
X104620000Y-66871002D02*
X104620000Y-65970998D01*
G75*
G02*
X104869998Y-65721000I249998J0D01*
G01*
X105395002Y-65721000D01*
G75*
G02*
X105645000Y-65970998I0J-249998D01*
G01*
X105645000Y-66871002D01*
G75*
G02*
X105395002Y-67121000I-249998J0D01*
G01*
X104869998Y-67121000D01*
G75*
G02*
X104620000Y-66871002I0J249998D01*
G01*
G37*
%TD.AperFunction*%
%TD*%
%TO.P,R5,2*%
%TO.N,GND*%
%TA.AperFunction,SMDPad,CuDef*%
G36*
G01*
X121520000Y-73590998D02*
X121520000Y-74491002D01*
G75*
G02*
X121270002Y-74741000I-249998J0D01*
G01*
X120744998Y-74741000D01*
G75*
G02*
X120495000Y-74491002I0J249998D01*
G01*
X120495000Y-73590998D01*
G75*
G02*
X120744998Y-73341000I249998J0D01*
G01*
X121270002Y-73341000D01*
G75*
G02*
X121520000Y-73590998I0J-249998D01*
G01*
G37*
%TD.AperFunction*%
%TO.P,R5,1*%
%TO.N,GPIO15*%
%TA.AperFunction,SMDPad,CuDef*%
G36*
G01*
X123345000Y-73590998D02*
X123345000Y-74491002D01*
G75*
G02*
X123095002Y-74741000I-249998J0D01*
G01*
X122569998Y-74741000D01*
G75*
G02*
X122320000Y-74491002I0J249998D01*
G01*
X122320000Y-73590998D01*
G75*
G02*
X122569998Y-73341000I249998J0D01*
G01*
X123095002Y-73341000D01*
G75*
G02*
X123345000Y-73590998I0J-249998D01*
G01*
G37*
%TD.AperFunction*%
%TD*%
%TO.P,R6,2*%
%TO.N,DATA*%
%TA.AperFunction,SMDPad,CuDef*%
G36*
G01*
X136910500Y-88703998D02*
X136910500Y-89604002D01*
G75*
G02*
X136660502Y-89854000I-249998J0D01*
G01*
X136135498Y-89854000D01*
G75*
G02*
X135885500Y-89604002I0J249998D01*
G01*
X135885500Y-88703998D01*
G75*
G02*
X136135498Y-88454000I249998J0D01*
G01*
X136660502Y-88454000D01*
G75*
G02*
X136910500Y-88703998I0J-249998D01*
G01*
G37*
%TD.AperFunction*%
%TO.P,R6,1*%
%TO.N,+3V3*%
%TA.AperFunction,SMDPad,CuDef*%
G36*
G01*
X138735500Y-88703998D02*
X138735500Y-89604002D01*
G75*
G02*
X138485502Y-89854000I-249998J0D01*
G01*
X137960498Y-89854000D01*
G75*
G02*
X137710500Y-89604002I0J249998D01*
G01*
X137710500Y-88703998D01*
G75*
G02*
X137960498Y-88454000I249998J0D01*
G01*
X138485502Y-88454000D01*
G75*
G02*
X138735500Y-88703998I0J-249998D01*
G01*
G37*
%TD.AperFunction*%
%TD*%
%TO.P,R7,2*%
%TO.N,DTR*%
%TA.AperFunction,SMDPad,CuDef*%
G36*
G01*
X111741000Y-74352998D02*
X111741000Y-75253002D01*
G75*
G02*
X111491002Y-75503000I-249998J0D01*
G01*
X110965998Y-75503000D01*
G75*
G02*
X110716000Y-75253002I0J249998D01*
G01*
X110716000Y-74352998D01*
G75*
G02*
X110965998Y-74103000I249998J0D01*
G01*
X111491002Y-74103000D01*
G75*
G02*
X111741000Y-74352998I0J-249998D01*
G01*
G37*
%TD.AperFunction*%
%TO.P,R7,1*%
%TO.N,Net-(Q1-Pad2)*%
%TA.AperFunction,SMDPad,CuDef*%
G36*
G01*
X113566000Y-74352998D02*
X113566000Y-75253002D01*
G75*
G02*
X113316002Y-75503000I-249998J0D01*
G01*
X112790998Y-75503000D01*
G75*
G02*
X112541000Y-75253002I0J249998D01*
G01*
X112541000Y-74352998D01*
G75*
G02*
X112790998Y-74103000I249998J0D01*
G01*
X113316002Y-74103000D01*
G75*
G02*
X113566000Y-74352998I0J-249998D01*
G01*
G37*
%TD.AperFunction*%
%TD*%
%TO.P,R8,2*%
%TO.N,RTS*%
%TA.AperFunction,SMDPad,CuDef*%
G36*
G01*
X112668000Y-80714002D02*
X112668000Y-79813998D01*
G75*
G02*
X112917998Y-79564000I249998J0D01*
G01*
X113443002Y-79564000D01*
G75*
G02*
X113693000Y-79813998I0J-249998D01*
G01*
X113693000Y-80714002D01*
G75*
G02*
X113443002Y-80964000I-249998J0D01*
G01*
X112917998Y-80964000D01*
G75*
G02*
X112668000Y-80714002I0J249998D01*
G01*
G37*
%TD.AperFunction*%
%TO.P,R8,1*%
%TO.N,Net-(Q2-Pad2)*%
%TA.AperFunction,SMDPad,CuDef*%
G36*
G01*
X110843000Y-80714002D02*
X110843000Y-79813998D01*
G75*
G02*
X111092998Y-79564000I249998J0D01*
G01*
X111618002Y-79564000D01*
G75*
G02*
X111868000Y-79813998I0J-249998D01*
G01*
X111868000Y-80714002D01*
G75*
G02*
X111618002Y-80964000I-249998J0D01*
G01*
X111092998Y-80964000D01*
G75*
G02*
X110843000Y-80714002I0J249998D01*
G01*
G37*
%TD.AperFunction*%
%TD*%
%TO.P,R11,2*%
%TO.N,BUTTON*%
%TA.AperFunction,SMDPad,CuDef*%
G36*
G01*
X122320000Y-76396002D02*
X122320000Y-75495998D01*
G75*
G02*
X122569998Y-75246000I249998J0D01*
G01*
X123095002Y-75246000D01*
G75*
G02*
X123345000Y-75495998I0J-249998D01*
G01*
X123345000Y-76396002D01*
G75*
G02*
X123095002Y-76646000I-249998J0D01*
G01*
X122569998Y-76646000D01*
G75*
G02*
X122320000Y-76396002I0J249998D01*
G01*
G37*
%TD.AperFunction*%
%TO.P,R11,1*%
%TO.N,+3V3*%
%TA.AperFunction,SMDPad,CuDef*%
G36*
G01*
X120495000Y-76396002D02*
X120495000Y-75495998D01*
G75*
G02*
X120744998Y-75246000I249998J0D01*
G01*
X121270002Y-75246000D01*
G75*
G02*
X121520000Y-75495998I0J-249998D01*
G01*
X121520000Y-76396002D01*
G75*
G02*
X121270002Y-76646000I-249998J0D01*
G01*
X120744998Y-76646000D01*
G75*
G02*
X120495000Y-76396002I0J249998D01*
G01*
G37*
%TD.AperFunction*%
%TD*%
%TO.P,R15,2*%
%TO.N,Net-(D2-Pad2)*%
%TA.AperFunction,SMDPad,CuDef*%
G36*
G01*
X92398002Y-84182000D02*
X91497998Y-84182000D01*
G75*
G02*
X91248000Y-83932002I0J249998D01*
G01*
X91248000Y-83406998D01*
G75*
G02*
X91497998Y-83157000I249998J0D01*
G01*
X92398002Y-83157000D01*
G75*
G02*
X92648000Y-83406998I0J-249998D01*
G01*
X92648000Y-83932002D01*
G75*
G02*
X92398002Y-84182000I-249998J0D01*
G01*
G37*
%TD.AperFunction*%
%TO.P,R15,1*%
%TO.N,+5V*%
%TA.AperFunction,SMDPad,CuDef*%
G36*
G01*
X92398002Y-86007000D02*
X91497998Y-86007000D01*
G75*
G02*
X91248000Y-85757002I0J249998D01*
G01*
X91248000Y-85231998D01*
G75*
G02*
X91497998Y-84982000I249998J0D01*
G01*
X92398002Y-84982000D01*
G75*
G02*
X92648000Y-85231998I0J-249998D01*
G01*
X92648000Y-85757002D01*
G75*
G02*
X92398002Y-86007000I-249998J0D01*
G01*
G37*
%TD.AperFunction*%
%TD*%
%TO.P,U2,16*%
%TO.N,+3V3*%
%TA.AperFunction,SMDPad,CuDef*%
G36*
G01*
X109705000Y-70461000D02*
X110005000Y-70461000D01*
G75*
G02*
X110155000Y-70611000I0J-150000D01*
G01*
X110155000Y-72261000D01*
G75*
G02*
X110005000Y-72411000I-150000J0D01*
G01*
X109705000Y-72411000D01*
G75*
G02*
X109555000Y-72261000I0J150000D01*
G01*
X109555000Y-70611000D01*
G75*
G02*
X109705000Y-70461000I150000J0D01*
G01*
G37*
%TD.AperFunction*%
%TO.P,U2,15*%
%TO.N,N/C*%
%TA.AperFunction,SMDPad,CuDef*%
G36*
G01*
X110975000Y-70461000D02*
X111275000Y-70461000D01*
G75*
G02*
X111425000Y-70611000I0J-150000D01*
G01*
X111425000Y-72261000D01*
G75*
G02*
X111275000Y-72411000I-150000J0D01*
G01*
X110975000Y-72411000D01*
G75*
G02*
X110825000Y-72261000I0J150000D01*
G01*
X110825000Y-70611000D01*
G75*
G02*
X110975000Y-70461000I150000J0D01*
G01*
G37*
%TD.AperFunction*%
%TO.P,U2,14*%
%TO.N,RTS*%
%TA.AperFunction,SMDPad,CuDef*%
G36*
G01*
X112245000Y-70461000D02*
X112545000Y-70461000D01*
G75*
G02*
X112695000Y-70611000I0J-150000D01*
G01*
X112695000Y-72261000D01*
G75*
G02*
X112545000Y-72411000I-150000J0D01*
G01*
X112245000Y-72411000D01*
G75*
G02*
X112095000Y-72261000I0J150000D01*
G01*
X112095000Y-70611000D01*
G75*
G02*
X112245000Y-70461000I150000J0D01*
G01*
G37*
%TD.AperFunction*%
%TO.P,U2,13*%
%TO.N,DTR*%
%TA.AperFunction,SMDPad,CuDef*%
G36*
G01*
X113515000Y-70461000D02*
X113815000Y-70461000D01*
G75*
G02*
X113965000Y-70611000I0J-150000D01*
G01*
X113965000Y-72261000D01*
G75*
G02*
X113815000Y-72411000I-150000J0D01*
G01*
X113515000Y-72411000D01*
G75*
G02*
X113365000Y-72261000I0J150000D01*
G01*
X113365000Y-70611000D01*
G75*
G02*
X113515000Y-70461000I150000J0D01*
G01*
G37*
%TD.AperFunction*%
%TO.P,U2,12*%
%TO.N,N/C*%
%TA.AperFunction,SMDPad,CuDef*%
G36*
G01*
X114785000Y-70461000D02*
X115085000Y-70461000D01*
G75*
G02*
X115235000Y-70611000I0J-150000D01*
G01*
X115235000Y-72261000D01*
G75*
G02*
X115085000Y-72411000I-150000J0D01*
G01*
X114785000Y-72411000D01*
G75*
G02*
X114635000Y-72261000I0J150000D01*
G01*
X114635000Y-70611000D01*
G75*
G02*
X114785000Y-70461000I150000J0D01*
G01*
G37*
%TD.AperFunction*%
%TO.P,U2,11*%
%TA.AperFunction,SMDPad,CuDef*%
G36*
G01*
X116055000Y-70461000D02*
X116355000Y-70461000D01*
G75*
G02*
X116505000Y-70611000I0J-150000D01*
G01*
X116505000Y-72261000D01*
G75*
G02*
X116355000Y-72411000I-150000J0D01*
G01*
X116055000Y-72411000D01*
G75*
G02*
X115905000Y-72261000I0J150000D01*
G01*
X115905000Y-70611000D01*
G75*
G02*
X116055000Y-70461000I150000J0D01*
G01*
G37*
%TD.AperFunction*%
%TO.P,U2,10*%
%TA.AperFunction,SMDPad,CuDef*%
G36*
G01*
X117325000Y-70461000D02*
X117625000Y-70461000D01*
G75*
G02*
X117775000Y-70611000I0J-150000D01*
G01*
X117775000Y-72261000D01*
G75*
G02*
X117625000Y-72411000I-150000J0D01*
G01*
X117325000Y-72411000D01*
G75*
G02*
X117175000Y-72261000I0J150000D01*
G01*
X117175000Y-70611000D01*
G75*
G02*
X117325000Y-70461000I150000J0D01*
G01*
G37*
%TD.AperFunction*%
%TO.P,U2,9*%
%TA.AperFunction,SMDPad,CuDef*%
G36*
G01*
X118595000Y-70461000D02*
X118895000Y-70461000D01*
G75*
G02*
X119045000Y-70611000I0J-150000D01*
G01*
X119045000Y-72261000D01*
G75*
G02*
X118895000Y-72411000I-150000J0D01*
G01*
X118595000Y-72411000D01*
G75*
G02*
X118445000Y-72261000I0J150000D01*
G01*
X118445000Y-70611000D01*
G75*
G02*
X118595000Y-70461000I150000J0D01*
G01*
G37*
%TD.AperFunction*%
%TO.P,U2,8*%
%TO.N,Net-(C5-Pad1)*%
%TA.AperFunction,SMDPad,CuDef*%
G36*
G01*
X118595000Y-65511000D02*
X118895000Y-65511000D01*
G75*
G02*
X119045000Y-65661000I0J-150000D01*
G01*
X119045000Y-67311000D01*
G75*
G02*
X118895000Y-67461000I-150000J0D01*
G01*
X118595000Y-67461000D01*
G75*
G02*
X118445000Y-67311000I0J150000D01*
G01*
X118445000Y-65661000D01*
G75*
G02*
X118595000Y-65511000I150000J0D01*
G01*
G37*
%TD.AperFunction*%
%TO.P,U2,7*%
%TO.N,Net-(C4-Pad1)*%
%TA.AperFunction,SMDPad,CuDef*%
G36*
G01*
X117325000Y-65511000D02*
X117625000Y-65511000D01*
G75*
G02*
X117775000Y-65661000I0J-150000D01*
G01*
X117775000Y-67311000D01*
G75*
G02*
X117625000Y-67461000I-150000J0D01*
G01*
X117325000Y-67461000D01*
G75*
G02*
X117175000Y-67311000I0J150000D01*
G01*
X117175000Y-65661000D01*
G75*
G02*
X117325000Y-65511000I150000J0D01*
G01*
G37*
%TD.AperFunction*%
%TO.P,U2,6*%
%TO.N,Net-(J3-Pad2)*%
%TA.AperFunction,SMDPad,CuDef*%
G36*
G01*
X116055000Y-65511000D02*
X116355000Y-65511000D01*
G75*
G02*
X116505000Y-65661000I0J-150000D01*
G01*
X116505000Y-67311000D01*
G75*
G02*
X116355000Y-67461000I-150000J0D01*
G01*
X116055000Y-67461000D01*
G75*
G02*
X115905000Y-67311000I0J150000D01*
G01*
X115905000Y-65661000D01*
G75*
G02*
X116055000Y-65511000I150000J0D01*
G01*
G37*
%TD.AperFunction*%
%TO.P,U2,5*%
%TO.N,Net-(J3-Pad3)*%
%TA.AperFunction,SMDPad,CuDef*%
G36*
G01*
X114785000Y-65511000D02*
X115085000Y-65511000D01*
G75*
G02*
X115235000Y-65661000I0J-150000D01*
G01*
X115235000Y-67311000D01*
G75*
G02*
X115085000Y-67461000I-150000J0D01*
G01*
X114785000Y-67461000D01*
G75*
G02*
X114635000Y-67311000I0J150000D01*
G01*
X114635000Y-65661000D01*
G75*
G02*
X114785000Y-65511000I150000J0D01*
G01*
G37*
%TD.AperFunction*%
%TO.P,U2,4*%
%TO.N,+3V3*%
%TA.AperFunction,SMDPad,CuDef*%
G36*
G01*
X113515000Y-65511000D02*
X113815000Y-65511000D01*
G75*
G02*
X113965000Y-65661000I0J-150000D01*
G01*
X113965000Y-67311000D01*
G75*
G02*
X113815000Y-67461000I-150000J0D01*
G01*
X113515000Y-67461000D01*
G75*
G02*
X113365000Y-67311000I0J150000D01*
G01*
X113365000Y-65661000D01*
G75*
G02*
X113515000Y-65511000I150000J0D01*
G01*
G37*
%TD.AperFunction*%
%TO.P,U2,3*%
%TO.N,Net-(R12-Pad1)*%
%TA.AperFunction,SMDPad,CuDef*%
G36*
G01*
X112245000Y-65511000D02*
X112545000Y-65511000D01*
G75*
G02*
X112695000Y-65661000I0J-150000D01*
G01*
X112695000Y-67311000D01*
G75*
G02*
X112545000Y-67461000I-150000J0D01*
G01*
X112245000Y-67461000D01*
G75*
G02*
X112095000Y-67311000I0J150000D01*
G01*
X112095000Y-65661000D01*
G75*
G02*
X112245000Y-65511000I150000J0D01*
G01*
G37*
%TD.AperFunction*%
%TO.P,U2,2*%
%TO.N,Net-(R10-Pad2)*%
%TA.AperFunction,SMDPad,CuDef*%
G36*
G01*
X110975000Y-65511000D02*
X111275000Y-65511000D01*
G75*
G02*
X111425000Y-65661000I0J-150000D01*
G01*
X111425000Y-67311000D01*
G75*
G02*
X111275000Y-67461000I-150000J0D01*
G01*
X110975000Y-67461000D01*
G75*
G02*
X110825000Y-67311000I0J150000D01*
G01*
X110825000Y-65661000D01*
G75*
G02*
X110975000Y-65511000I150000J0D01*
G01*
G37*
%TD.AperFunction*%
%TO.P,U2,1*%
%TO.N,GND*%
%TA.AperFunction,SMDPad,CuDef*%
G36*
G01*
X109705000Y-65511000D02*
X110005000Y-65511000D01*
G75*
G02*
X110155000Y-65661000I0J-150000D01*
G01*
X110155000Y-67311000D01*
G75*
G02*
X110005000Y-67461000I-150000J0D01*
G01*
X109705000Y-67461000D01*
G75*
G02*
X109555000Y-67311000I0J150000D01*
G01*
X109555000Y-65661000D01*
G75*
G02*
X109705000Y-65511000I150000J0D01*
G01*
G37*
%TD.AperFunction*%
%TD*%
D37*
%TO.P,U4,4*%
%TO.N,+5V*%
X96571000Y-91770200D03*
%TO.P,U4,3*%
%TO.N,Net-(Q4-Pad1)*%
X96571000Y-89230200D03*
%TO.P,U4,2*%
%TO.N,GND*%
X87071000Y-89230200D03*
%TO.P,U4,1*%
%TO.N,Net-(R14-Pad1)*%
X87071000Y-91770200D03*
%TD*%
D38*
%TO.N,+3V3*%
X104775000Y-73406000D03*
X117475000Y-80391000D03*
X108444314Y-78626686D03*
X120015000Y-80391000D03*
%TO.N,GND*%
X90424000Y-89281000D03*
X122428000Y-88392000D03*
X127635000Y-90424000D03*
X111633000Y-90678000D03*
X117094000Y-88900000D03*
%TO.N,+5V*%
X113299997Y-59436000D03*
%TO.N,RST*%
X126365000Y-84836000D03*
X118110000Y-76200000D03*
%TO.N,Net-(J3-Pad3)*%
X114300000Y-59436000D03*
X114935000Y-68326000D03*
%TO.N,GPIO0*%
X109220000Y-74041000D03*
%TO.N,EN*%
X118110000Y-74803000D03*
%TO.N,Net-(Q4-Pad1)*%
X98552000Y-89281000D03*
%TO.N,BUTTON*%
X127381000Y-86106000D03*
%TO.N,Net-(R14-Pad1)*%
X84836000Y-91948000D03*
%TO.N,GPIO14*%
X128651000Y-74041000D03*
%TO.N,Net-(D2-Pad1)*%
X99441000Y-90947001D03*
%TD*%
D39*
%TO.N,+3V3*%
X109855000Y-70953166D02*
X109855000Y-71436000D01*
X113665000Y-67143166D02*
X109855000Y-70953166D01*
X113665000Y-66486000D02*
X113665000Y-67143166D01*
X119737500Y-76248500D02*
X118745000Y-77241000D01*
X120825010Y-91041010D02*
X119700000Y-89916000D01*
X122422490Y-91041010D02*
X120825010Y-91041010D01*
X123547500Y-89916000D02*
X122422490Y-91041010D01*
X119700000Y-89916000D02*
X119700000Y-87376000D01*
X106957500Y-68961000D02*
X106957500Y-66421000D01*
X104775000Y-71143500D02*
X104775000Y-73406000D01*
X106957500Y-68961000D02*
X104775000Y-71143500D01*
X117475000Y-80391000D02*
X118745000Y-80391000D01*
X118745000Y-80391000D02*
X118745000Y-77241000D01*
X107819989Y-78002361D02*
X108444314Y-78626686D01*
X107819989Y-73171011D02*
X107819989Y-78002361D01*
X109555000Y-71436000D02*
X107819989Y-73171011D01*
X109855000Y-71436000D02*
X109555000Y-71436000D01*
X120015000Y-75946000D02*
X119737500Y-76223500D01*
X121007500Y-75946000D02*
X120015000Y-75946000D01*
X119737500Y-76223500D02*
X119737500Y-76248500D01*
X118745000Y-84811000D02*
X118745000Y-78511000D01*
X119700000Y-85766000D02*
X118745000Y-84811000D01*
X119700000Y-87376000D02*
X119700000Y-85766000D01*
X120015000Y-80391000D02*
X118745000Y-80391000D01*
X138188000Y-89119000D02*
X138223000Y-89154000D01*
X138188000Y-86233000D02*
X138188000Y-89119000D01*
X138918010Y-81808468D02*
X127721542Y-70612000D01*
X138918010Y-88458990D02*
X138918010Y-81808468D01*
X138223000Y-89154000D02*
X138918010Y-88458990D01*
X127721542Y-65872542D02*
X125730000Y-63881000D01*
X127721542Y-70612000D02*
X127721542Y-65872542D01*
X108444314Y-83771686D02*
X106745000Y-85471000D01*
X108444314Y-78626686D02*
X108444314Y-83771686D01*
X116909315Y-80391000D02*
X117475000Y-80391000D01*
X114957999Y-78439684D02*
X116909315Y-80391000D01*
X114957999Y-75841999D02*
X114957999Y-78439684D01*
X114657500Y-75541500D02*
X114957999Y-75841999D01*
X114657500Y-74803000D02*
X114657500Y-75541500D01*
%TO.N,GND*%
X119320000Y-62296000D02*
X119200000Y-62416000D01*
X109855000Y-62871000D02*
X109400000Y-62416000D01*
X109855000Y-66486000D02*
X109855000Y-62871000D01*
X122870000Y-72136000D02*
X122870000Y-70161000D01*
X122870000Y-69661000D02*
X120970000Y-67761000D01*
X122870000Y-70161000D02*
X122870000Y-69661000D01*
X120135000Y-62416000D02*
X119200000Y-62416000D01*
X122870000Y-65151000D02*
X120135000Y-62416000D01*
X121045000Y-86186000D02*
X121600000Y-86741000D01*
X117790000Y-87376000D02*
X117790000Y-88326000D01*
X121600000Y-88326000D02*
X121600000Y-87376000D01*
X121600000Y-89916000D02*
X121600000Y-88326000D01*
X121045000Y-86186000D02*
X121045000Y-84811000D01*
X121920000Y-83936000D02*
X121045000Y-84811000D01*
X122870000Y-72136000D02*
X121920000Y-73086000D01*
X123870001Y-69160999D02*
X122870000Y-70161000D01*
X123870001Y-66151001D02*
X123870001Y-69160999D01*
X122870000Y-65151000D02*
X123870001Y-66151001D01*
X111695000Y-86741000D02*
X111695000Y-88011000D01*
X111695000Y-85471000D02*
X111695000Y-86741000D01*
X111695000Y-88011000D02*
X111695000Y-89281000D01*
X106745000Y-86741000D02*
X111695000Y-86741000D01*
X121007500Y-74041000D02*
X121793000Y-74041000D01*
X121920000Y-74168000D02*
X121920000Y-83936000D01*
X121793000Y-74041000D02*
X121920000Y-74168000D01*
X121920000Y-73086000D02*
X121920000Y-74168000D01*
D40*
X117790000Y-89933098D02*
X117790000Y-87376000D01*
X119697922Y-91841020D02*
X117790000Y-89933098D01*
X138963400Y-102743000D02*
X138963400Y-100943000D01*
D39*
X90373200Y-89230200D02*
X90424000Y-89281000D01*
X87071000Y-89230200D02*
X90373200Y-89230200D01*
X133310200Y-85510800D02*
X133310200Y-95289800D01*
X135128000Y-83693000D02*
X133310200Y-85510800D01*
D40*
X133310200Y-95289800D02*
X129861420Y-91841020D01*
X138963400Y-100943000D02*
X133310200Y-95289800D01*
D39*
X122555000Y-86741000D02*
X122555000Y-88265000D01*
X121600000Y-86741000D02*
X122555000Y-86741000D01*
X122555000Y-88265000D02*
X122428000Y-88392000D01*
X122555000Y-86741000D02*
X123510000Y-86741000D01*
X127635000Y-90424000D02*
X127635000Y-91821000D01*
X127635000Y-91821000D02*
X127655020Y-91841020D01*
D40*
X127655020Y-91841020D02*
X119697922Y-91841020D01*
X129861420Y-91841020D02*
X127655020Y-91841020D01*
D39*
X111695000Y-90616000D02*
X111633000Y-90678000D01*
X111695000Y-88011000D02*
X111695000Y-90616000D01*
X117790000Y-88204000D02*
X117094000Y-88900000D01*
X117790000Y-87376000D02*
X117790000Y-88204000D01*
%TO.N,+5V*%
X113299997Y-60198005D02*
X113299997Y-59436000D01*
X112700000Y-60798002D02*
X113299997Y-60198005D01*
X112700000Y-62416000D02*
X112700000Y-60798002D01*
X115890000Y-85366000D02*
X116445000Y-84811000D01*
X115890000Y-87376000D02*
X115890000Y-85366000D01*
D40*
X136220200Y-102743000D02*
X136220200Y-99614026D01*
X115890000Y-89447325D02*
X115890000Y-87376000D01*
X119283705Y-92841030D02*
X115890000Y-89447325D01*
X129447204Y-92841030D02*
X119283705Y-92841030D01*
X136220200Y-99614026D02*
X129447204Y-92841030D01*
D39*
X96571000Y-96437000D02*
X91186000Y-101822000D01*
X96571000Y-91770200D02*
X96571000Y-96437000D01*
X88551000Y-101822000D02*
X86995000Y-103378000D01*
X91186000Y-101822000D02*
X88551000Y-101822000D01*
X113567125Y-91770200D02*
X115890000Y-89447325D01*
X90847990Y-82657510D02*
X90847990Y-84394490D01*
X90847990Y-84394490D02*
X91948000Y-85494500D01*
X91948000Y-81557500D02*
X90847990Y-82657510D01*
X91948000Y-87147200D02*
X96571000Y-91770200D01*
X91948000Y-85494500D02*
X91948000Y-87147200D01*
X100419957Y-89624957D02*
X102565200Y-91770200D01*
X100419957Y-68871043D02*
X100419957Y-89624957D01*
X102870000Y-66421000D02*
X100419957Y-68871043D01*
X102565200Y-91770200D02*
X113567125Y-91770200D01*
X96571000Y-91770200D02*
X102565200Y-91770200D01*
%TO.N,RST*%
X125372500Y-86778500D02*
X125410000Y-86741000D01*
X125372500Y-89916000D02*
X125372500Y-87413500D01*
X125410000Y-81981000D02*
X125730000Y-81661000D01*
X125730000Y-84836000D02*
X125410000Y-84516000D01*
X126365000Y-84836000D02*
X125730000Y-84836000D01*
X125410000Y-84516000D02*
X125410000Y-81981000D01*
X125410000Y-87376000D02*
X125410000Y-84516000D01*
X117205000Y-76200000D02*
X118110000Y-76200000D01*
X115808000Y-77597000D02*
X117205000Y-76200000D01*
%TO.N,Net-(C4-Pad1)*%
X120929990Y-65110990D02*
X120970000Y-65151000D01*
X117875010Y-65110990D02*
X120929990Y-65110990D01*
X117475000Y-65511000D02*
X117875010Y-65110990D01*
X117475000Y-66486000D02*
X117475000Y-65511000D01*
X120970000Y-65861000D02*
X122870000Y-67761000D01*
X120970000Y-65151000D02*
X120970000Y-65861000D01*
%TO.N,Net-(C5-Pad1)*%
X118745000Y-67936000D02*
X120970000Y-70161000D01*
X118745000Y-66486000D02*
X118745000Y-67936000D01*
X120970000Y-70161000D02*
X120970000Y-72136000D01*
%TO.N,Net-(D2-Pad2)*%
X94464500Y-83669500D02*
X95377000Y-84582000D01*
X91948000Y-83669500D02*
X94464500Y-83669500D01*
D41*
%TO.N,L*%
X118855810Y-101997190D02*
X118110000Y-101997190D01*
X126687897Y-99497180D02*
X121355820Y-99497180D01*
X129675419Y-102484702D02*
X126687897Y-99497180D01*
X121355820Y-99497180D02*
X118855810Y-101997190D01*
X129675420Y-106709697D02*
X129675419Y-102484702D01*
X124714000Y-111671117D02*
X129675420Y-106709697D01*
X124714000Y-113030000D02*
X124714000Y-111671117D01*
D39*
%TO.N,Net-(J3-Pad2)*%
X116205000Y-65511000D02*
X116205000Y-66486000D01*
X115804990Y-65110990D02*
X116205000Y-65511000D01*
X114524988Y-65110990D02*
X115804990Y-65110990D01*
X113500000Y-64086002D02*
X114524988Y-65110990D01*
X113500000Y-62416000D02*
X113500000Y-64086002D01*
%TO.N,Net-(J3-Pad3)*%
X114300000Y-62416000D02*
X114300000Y-59436000D01*
X114935000Y-68326000D02*
X114935000Y-66486000D01*
%TO.N,RTS*%
X111719990Y-72811010D02*
X112395000Y-72136000D01*
X109265988Y-72811010D02*
X111719990Y-72811010D01*
X108419999Y-73656999D02*
X109265988Y-72811010D01*
X108419999Y-77470999D02*
X108419999Y-73656999D01*
X112395000Y-72136000D02*
X112395000Y-71436000D01*
X113180500Y-79174500D02*
X113808000Y-78547000D01*
X113180500Y-80264000D02*
X113180500Y-79174500D01*
X109244315Y-78295315D02*
X108419999Y-77470999D01*
X109244315Y-79784571D02*
X109244315Y-78295315D01*
X110823754Y-81364010D02*
X109244315Y-79784571D01*
X112080490Y-81364010D02*
X110823754Y-81364010D01*
X113180500Y-80264000D02*
X112080490Y-81364010D01*
%TO.N,GPIO0*%
X105132500Y-69238500D02*
X102870000Y-71501000D01*
X105132500Y-68961000D02*
X105132500Y-69238500D01*
X110252000Y-75073000D02*
X109220000Y-74041000D01*
X110252000Y-77597000D02*
X110252000Y-75073000D01*
%TO.N,Net-(Q1-Pad2)*%
X113053500Y-75892500D02*
X113808000Y-76647000D01*
X113053500Y-74803000D02*
X113053500Y-75892500D01*
%TO.N,DTR*%
X111228500Y-75623500D02*
X112252000Y-76647000D01*
X111228500Y-74803000D02*
X111228500Y-75623500D01*
X111273000Y-74803000D02*
X111228500Y-74803000D01*
X113665000Y-72411000D02*
X111273000Y-74803000D01*
X113665000Y-71436000D02*
X113665000Y-72411000D01*
%TO.N,EN*%
X116482500Y-74803000D02*
X118110000Y-74803000D01*
%TO.N,Net-(Q4-Pad1)*%
X96621800Y-89281000D02*
X96571000Y-89230200D01*
X98552000Y-89281000D02*
X96621800Y-89281000D01*
%TO.N,GPIO2*%
X105132500Y-66698500D02*
X102870000Y-68961000D01*
X105132500Y-66421000D02*
X105132500Y-66698500D01*
%TO.N,GPIO15*%
X124479999Y-67671001D02*
X125730000Y-66421000D01*
X124479999Y-72393501D02*
X124479999Y-67671001D01*
X122832500Y-74041000D02*
X124479999Y-72393501D01*
%TO.N,BUTTON*%
X125095000Y-75946000D02*
X125730000Y-76581000D01*
X122832500Y-75946000D02*
X125095000Y-75946000D01*
X127381000Y-78232000D02*
X127381000Y-86106000D01*
X125730000Y-76581000D02*
X127381000Y-78232000D01*
%TO.N,Net-(R14-Pad1)*%
X85013800Y-91770200D02*
X84836000Y-91948000D01*
X87071000Y-91770200D02*
X85013800Y-91770200D01*
%TO.N,DATA*%
X136148000Y-88904000D02*
X136398000Y-89154000D01*
X136148000Y-86233000D02*
X136148000Y-88904000D01*
X136398000Y-89154000D02*
X136124998Y-89154000D01*
X125730000Y-71501000D02*
X127762000Y-71501000D01*
X136330002Y-86233000D02*
X136148000Y-86233000D01*
X138318001Y-84245001D02*
X136330002Y-86233000D01*
X138318001Y-82057001D02*
X138318001Y-84245001D01*
X127762000Y-71501000D02*
X138318001Y-82057001D01*
D41*
%TO.N,N*%
X125652359Y-101997190D02*
X123190000Y-101997190D01*
X127175410Y-105674159D02*
X127175410Y-103520241D01*
X125652359Y-107197210D02*
X127175410Y-105674159D01*
X127175410Y-103520241D02*
X125652359Y-101997190D01*
X125466790Y-107197210D02*
X125652359Y-107197210D01*
X119634000Y-113030000D02*
X125466790Y-107197210D01*
D39*
%TO.N,GPIO14*%
X125730000Y-74041000D02*
X128651000Y-74041000D01*
%TO.N,GPIO4*%
X101019966Y-75891034D02*
X102870000Y-74041000D01*
X101019966Y-84109507D02*
X101019966Y-75891034D01*
X106745000Y-89281000D02*
X106191458Y-89281000D01*
X106191458Y-89281000D02*
X101019966Y-84109507D01*
%TO.N,GPIO5*%
X101619999Y-77831001D02*
X102870000Y-76581000D01*
X101619999Y-83860999D02*
X101619999Y-77831001D01*
X106745000Y-88011000D02*
X105770000Y-88011000D01*
X105770000Y-88011000D02*
X101619999Y-83860999D01*
%TO.N,GPIO3*%
X104902000Y-77089000D02*
X102870000Y-79121000D01*
X104902000Y-76985500D02*
X104902000Y-77089000D01*
%TO.N,GPIO1*%
X106680000Y-77851000D02*
X102870000Y-81661000D01*
X106680000Y-76985500D02*
X106680000Y-77851000D01*
D42*
%TO.N,NO*%
X112014000Y-103397000D02*
X111995000Y-103378000D01*
X112014000Y-112903000D02*
X112014000Y-103397000D01*
X111995000Y-103378000D02*
X111995000Y-95878000D01*
%TO.N,COM*%
X106934000Y-103439000D02*
X106995000Y-103378000D01*
X106934000Y-112903000D02*
X106934000Y-103439000D01*
X106995000Y-103378000D02*
X106995000Y-95878000D01*
%TO.N,NC*%
X101854000Y-103519000D02*
X101995000Y-103378000D01*
X101854000Y-112903000D02*
X101854000Y-103519000D01*
X101995000Y-103378000D02*
X101995000Y-95878000D01*
D39*
%TO.N,Net-(D2-Pad1)*%
X88939000Y-97822000D02*
X86995000Y-95878000D01*
X91186000Y-97822000D02*
X88939000Y-97822000D01*
X99441000Y-86106000D02*
X99441000Y-90947001D01*
X97917000Y-84582000D02*
X99441000Y-86106000D01*
%TO.N,Net-(D1-Pad2)*%
X91971500Y-79756000D02*
X91948000Y-79732500D01*
X95504000Y-79756000D02*
X91971500Y-79756000D01*
%TO.N,Net-(R10-Pad2)*%
X105575001Y-72940291D02*
X105575001Y-74487499D01*
X105575001Y-74487499D02*
X104902000Y-75160500D01*
X111125000Y-67390292D02*
X105575001Y-72940291D01*
X111125000Y-66486000D02*
X111125000Y-67390292D01*
%TO.N,Net-(R12-Pad1)*%
X106680000Y-72683834D02*
X106680000Y-75160500D01*
X112395000Y-66968834D02*
X106680000Y-72683834D01*
X112395000Y-66486000D02*
X112395000Y-66968834D01*
%TO.N,Net-(Q2-Pad2)*%
X111355500Y-79443500D02*
X112252000Y-78547000D01*
X111355500Y-80264000D02*
X111355500Y-79443500D01*
%TD*%
D43*
%TO.N,GND*%
X108968493Y-54420492D02*
X108972819Y-54428629D01*
X109067130Y-54603052D01*
X109100575Y-54652636D01*
X109133335Y-54702699D01*
X109139159Y-54709840D01*
X109265554Y-54862624D01*
X109307969Y-54904744D01*
X109349851Y-54947513D01*
X109356952Y-54953387D01*
X109510614Y-55078711D01*
X109560423Y-55111803D01*
X109609795Y-55145610D01*
X109617902Y-55149993D01*
X109792980Y-55243084D01*
X109848275Y-55265875D01*
X109903270Y-55289446D01*
X109912074Y-55292171D01*
X110101900Y-55349482D01*
X110160566Y-55361098D01*
X110219087Y-55373537D01*
X110228252Y-55374500D01*
X110425593Y-55393850D01*
X110425598Y-55393850D01*
X110457581Y-55397000D01*
X118142419Y-55397000D01*
X118170690Y-55394216D01*
X118176911Y-55394259D01*
X118186083Y-55393359D01*
X118383284Y-55372632D01*
X118441834Y-55360613D01*
X118500639Y-55349396D01*
X118509461Y-55346732D01*
X118698882Y-55288097D01*
X118754009Y-55264924D01*
X118809492Y-55242507D01*
X118817629Y-55238181D01*
X118992052Y-55143870D01*
X119041636Y-55110425D01*
X119091699Y-55077665D01*
X119098840Y-55071841D01*
X119251624Y-54945446D01*
X119293744Y-54903031D01*
X119336513Y-54861149D01*
X119342387Y-54854048D01*
X119467711Y-54700386D01*
X119500803Y-54650577D01*
X119534610Y-54601205D01*
X119538993Y-54593098D01*
X119632084Y-54418020D01*
X119647342Y-54381000D01*
X132047721Y-54381000D01*
X132271872Y-54402978D01*
X132456435Y-54458701D01*
X132626660Y-54549212D01*
X132776061Y-54671060D01*
X132898953Y-54819611D01*
X132990650Y-54989202D01*
X133047660Y-55173372D01*
X133071000Y-55395439D01*
X133071001Y-58198419D01*
X133072976Y-58218470D01*
X133128083Y-59119459D01*
X133129580Y-59130603D01*
X133129835Y-59141852D01*
X133139310Y-59206796D01*
X133349029Y-60270831D01*
X133352985Y-60285290D01*
X133355485Y-60300074D01*
X133374236Y-60362971D01*
X133735359Y-61385585D01*
X133741359Y-61399319D01*
X133745968Y-61413589D01*
X133773602Y-61473121D01*
X134278563Y-62432893D01*
X134286481Y-62445615D01*
X134293104Y-62459074D01*
X134329042Y-62513992D01*
X134967263Y-63390818D01*
X134976940Y-63402270D01*
X134985432Y-63414625D01*
X135028921Y-63463780D01*
X135787033Y-64239291D01*
X135798259Y-64249223D01*
X135808448Y-64260226D01*
X135858578Y-64302588D01*
X136720699Y-64960538D01*
X136733241Y-64968745D01*
X136744911Y-64978162D01*
X136800631Y-65012845D01*
X137748701Y-65539451D01*
X137762299Y-65545763D01*
X137775204Y-65553395D01*
X137835347Y-65579670D01*
X138849505Y-65963900D01*
X138863872Y-65968183D01*
X138877743Y-65973872D01*
X138941049Y-65991191D01*
X140000051Y-66224997D01*
X140014887Y-66227161D01*
X140029433Y-66230788D01*
X140094576Y-66238786D01*
X141167798Y-66316658D01*
X141191581Y-66319000D01*
X141699721Y-66319000D01*
X142195216Y-66367584D01*
X142640793Y-66502112D01*
X143051746Y-66720620D01*
X143412434Y-67014788D01*
X143709119Y-67373419D01*
X143930491Y-67782838D01*
X144068126Y-68227465D01*
X144120001Y-68721021D01*
X144120001Y-80368123D01*
X144044500Y-80255129D01*
X143795871Y-80006500D01*
X143503515Y-79811153D01*
X143178665Y-79676596D01*
X142833807Y-79608000D01*
X142482193Y-79608000D01*
X142137335Y-79676596D01*
X141812485Y-79811153D01*
X141520129Y-80006500D01*
X141271500Y-80255129D01*
X141076153Y-80547485D01*
X140941596Y-80872335D01*
X140873000Y-81217193D01*
X140873000Y-81568807D01*
X140941596Y-81913665D01*
X141076153Y-82238515D01*
X141271500Y-82530871D01*
X141520129Y-82779500D01*
X141812485Y-82974847D01*
X142137335Y-83109404D01*
X142482193Y-83178000D01*
X142833807Y-83178000D01*
X143178665Y-83109404D01*
X143503515Y-82974847D01*
X143795871Y-82779500D01*
X144044500Y-82530871D01*
X144120001Y-82417877D01*
X144120000Y-102647760D01*
X144055482Y-102628189D01*
X143931000Y-102615929D01*
X143541750Y-102619001D01*
X143383000Y-102777751D01*
X143383000Y-103802001D01*
X143403000Y-103802001D01*
X143403000Y-104056001D01*
X143383000Y-104056001D01*
X143383000Y-105080251D01*
X143541750Y-105239001D01*
X143931000Y-105242073D01*
X144055482Y-105229813D01*
X144120000Y-105210242D01*
X144120000Y-117950721D01*
X144071416Y-118446216D01*
X143936890Y-118891790D01*
X143718382Y-119302745D01*
X143424209Y-119663436D01*
X143065581Y-119960119D01*
X142656162Y-120181491D01*
X142211535Y-120319126D01*
X141717990Y-120371000D01*
X133477000Y-120371000D01*
X133477000Y-114065393D01*
X133706695Y-114089480D01*
X134458938Y-114020178D01*
X135183208Y-113805452D01*
X135851670Y-113453555D01*
X135892088Y-113426548D01*
X136252276Y-112936881D01*
X133731000Y-110415605D01*
X133716858Y-110429748D01*
X133537253Y-110250143D01*
X133551395Y-110236000D01*
X133910605Y-110236000D01*
X136431881Y-112757276D01*
X136921548Y-112397088D01*
X137281849Y-111733118D01*
X137505694Y-111011615D01*
X137584480Y-110260305D01*
X137515178Y-109508062D01*
X137300452Y-108783792D01*
X136948555Y-108115330D01*
X136921548Y-108074912D01*
X136431881Y-107714724D01*
X133910605Y-110236000D01*
X133551395Y-110236000D01*
X133537253Y-110221858D01*
X133716858Y-110042253D01*
X133731000Y-110056395D01*
X136252276Y-107535119D01*
X135892088Y-107045452D01*
X135228118Y-106685151D01*
X134506615Y-106461306D01*
X133755305Y-106382520D01*
X133477000Y-106408159D01*
X133477000Y-98334537D01*
X135185201Y-100042738D01*
X135185201Y-101108375D01*
X135095718Y-101117188D01*
X134976020Y-101153498D01*
X134865706Y-101212463D01*
X134769015Y-101291815D01*
X134689663Y-101388506D01*
X134630698Y-101498820D01*
X134594388Y-101618518D01*
X134582128Y-101743000D01*
X134582128Y-103225677D01*
X134337386Y-103356494D01*
X134111266Y-103542066D01*
X133925694Y-103768186D01*
X133787801Y-104026166D01*
X133702887Y-104306089D01*
X133674215Y-104597200D01*
X133702887Y-104888311D01*
X133787801Y-105168234D01*
X133925694Y-105426214D01*
X134111266Y-105652334D01*
X134337386Y-105837906D01*
X134595366Y-105975799D01*
X134875289Y-106060713D01*
X135093450Y-106082200D01*
X140039350Y-106082200D01*
X140257511Y-106060713D01*
X140537434Y-105975799D01*
X140795414Y-105837906D01*
X141021534Y-105652334D01*
X141207106Y-105426214D01*
X141344999Y-105168234D01*
X141429913Y-104888311D01*
X141457915Y-104604001D01*
X141942928Y-104604001D01*
X141955188Y-104728483D01*
X141991498Y-104848181D01*
X142050463Y-104958495D01*
X142129815Y-105055186D01*
X142226506Y-105134538D01*
X142336820Y-105193503D01*
X142456518Y-105229813D01*
X142581000Y-105242073D01*
X142970250Y-105239001D01*
X143129000Y-105080251D01*
X143129000Y-104056001D01*
X142104750Y-104056001D01*
X141946000Y-104214751D01*
X141942928Y-104604001D01*
X141457915Y-104604001D01*
X141458585Y-104597200D01*
X141429913Y-104306089D01*
X141344999Y-104026166D01*
X141207106Y-103768186D01*
X141021534Y-103542066D01*
X140795414Y-103356494D01*
X140603663Y-103254001D01*
X141942928Y-103254001D01*
X141946000Y-103643251D01*
X142104750Y-103802001D01*
X143129000Y-103802001D01*
X143129000Y-102777751D01*
X142970250Y-102619001D01*
X142581000Y-102615929D01*
X142456518Y-102628189D01*
X142336820Y-102664499D01*
X142226506Y-102723464D01*
X142129815Y-102802816D01*
X142050463Y-102899507D01*
X141991498Y-103009821D01*
X141955188Y-103129519D01*
X141942928Y-103254001D01*
X140603663Y-103254001D01*
X140599359Y-103251701D01*
X140598400Y-103028750D01*
X140439650Y-102870000D01*
X139090400Y-102870000D01*
X139090400Y-102890000D01*
X138836400Y-102890000D01*
X138836400Y-102870000D01*
X138816400Y-102870000D01*
X138816400Y-102616000D01*
X138836400Y-102616000D01*
X138836400Y-101266750D01*
X139090400Y-101266750D01*
X139090400Y-102616000D01*
X140439650Y-102616000D01*
X140598400Y-102457250D01*
X140601472Y-101743000D01*
X140589212Y-101618518D01*
X140552902Y-101498820D01*
X140493937Y-101388506D01*
X140414585Y-101291815D01*
X140317894Y-101212463D01*
X140207580Y-101153498D01*
X140087882Y-101117188D01*
X139963400Y-101104928D01*
X139249150Y-101108000D01*
X139090400Y-101266750D01*
X138836400Y-101266750D01*
X138677650Y-101108000D01*
X137963400Y-101104928D01*
X137838918Y-101117188D01*
X137719220Y-101153498D01*
X137608906Y-101212463D01*
X137591800Y-101226501D01*
X137574694Y-101212463D01*
X137464380Y-101153498D01*
X137344682Y-101117188D01*
X137255200Y-101108375D01*
X137255200Y-99664861D01*
X137260207Y-99614026D01*
X137251260Y-99523185D01*
X137240224Y-99411131D01*
X137181041Y-99216033D01*
X137104054Y-99072000D01*
X137084934Y-99036228D01*
X136988003Y-98918118D01*
X136955596Y-98878630D01*
X136916108Y-98846223D01*
X130438885Y-92369000D01*
X139910928Y-92369000D01*
X139923188Y-92493482D01*
X139959498Y-92613180D01*
X140018463Y-92723494D01*
X140097815Y-92820185D01*
X140194506Y-92899537D01*
X140304820Y-92958502D01*
X140424518Y-92994812D01*
X140549000Y-93007072D01*
X140938250Y-93004000D01*
X141097000Y-92845250D01*
X141097000Y-91821000D01*
X141351000Y-91821000D01*
X141351000Y-92845250D01*
X141509750Y-93004000D01*
X141899000Y-93007072D01*
X142023482Y-92994812D01*
X142143180Y-92958502D01*
X142253494Y-92899537D01*
X142350185Y-92820185D01*
X142429537Y-92723494D01*
X142488502Y-92613180D01*
X142524812Y-92493482D01*
X142537072Y-92369000D01*
X142534000Y-91979750D01*
X142375250Y-91821000D01*
X141351000Y-91821000D01*
X141097000Y-91821000D01*
X140072750Y-91821000D01*
X139914000Y-91979750D01*
X139910928Y-92369000D01*
X130438885Y-92369000D01*
X130215011Y-92145127D01*
X130182600Y-92105634D01*
X130025001Y-91976296D01*
X129845197Y-91880189D01*
X129650099Y-91821006D01*
X129498042Y-91806030D01*
X129498032Y-91806030D01*
X129447204Y-91801024D01*
X129396376Y-91806030D01*
X122762570Y-91806030D01*
X122888636Y-91738646D01*
X123015781Y-91634301D01*
X123041936Y-91602431D01*
X123390295Y-91254072D01*
X123810002Y-91254072D01*
X123983256Y-91237008D01*
X124149852Y-91186472D01*
X124303387Y-91104405D01*
X124437962Y-90993962D01*
X124460000Y-90967109D01*
X124482038Y-90993962D01*
X124616613Y-91104405D01*
X124770148Y-91186472D01*
X124936744Y-91237008D01*
X125109998Y-91254072D01*
X125635002Y-91254072D01*
X125808256Y-91237008D01*
X125974852Y-91186472D01*
X126128387Y-91104405D01*
X126232453Y-91019000D01*
X139910928Y-91019000D01*
X139914000Y-91408250D01*
X140072750Y-91567000D01*
X141097000Y-91567000D01*
X141097000Y-90542750D01*
X141351000Y-90542750D01*
X141351000Y-91567000D01*
X142375250Y-91567000D01*
X142534000Y-91408250D01*
X142537072Y-91019000D01*
X142524812Y-90894518D01*
X142488502Y-90774820D01*
X142429537Y-90664506D01*
X142350185Y-90567815D01*
X142253494Y-90488463D01*
X142143180Y-90429498D01*
X142023482Y-90393188D01*
X141899000Y-90380928D01*
X141509750Y-90384000D01*
X141351000Y-90542750D01*
X141097000Y-90542750D01*
X140938250Y-90384000D01*
X140549000Y-90380928D01*
X140424518Y-90393188D01*
X140304820Y-90429498D01*
X140194506Y-90488463D01*
X140097815Y-90567815D01*
X140018463Y-90664506D01*
X139959498Y-90774820D01*
X139923188Y-90894518D01*
X139910928Y-91019000D01*
X126232453Y-91019000D01*
X126262962Y-90993962D01*
X126373405Y-90859387D01*
X126455472Y-90705852D01*
X126506008Y-90539256D01*
X126523072Y-90366002D01*
X126523072Y-89465998D01*
X126506008Y-89292744D01*
X126455472Y-89126148D01*
X126373405Y-88972613D01*
X126262962Y-88838038D01*
X126207500Y-88792521D01*
X126207500Y-87623481D01*
X126232918Y-87539689D01*
X126245000Y-87417019D01*
X126245000Y-86782019D01*
X126249040Y-86741001D01*
X126245000Y-86699982D01*
X126245000Y-85867407D01*
X126263061Y-85871000D01*
X126372467Y-85871000D01*
X126346000Y-86004061D01*
X126346000Y-86207939D01*
X126385774Y-86407898D01*
X126463795Y-86596256D01*
X126577063Y-86765774D01*
X126721226Y-86909937D01*
X126890744Y-87023205D01*
X127079102Y-87101226D01*
X127279061Y-87141000D01*
X127482939Y-87141000D01*
X127682898Y-87101226D01*
X127871256Y-87023205D01*
X128040774Y-86909937D01*
X128184937Y-86765774D01*
X128298205Y-86596256D01*
X128376226Y-86407898D01*
X128416000Y-86207939D01*
X128416000Y-86004061D01*
X128376226Y-85804102D01*
X128298205Y-85615744D01*
X128216000Y-85492715D01*
X128216000Y-84443000D01*
X133739928Y-84443000D01*
X133752188Y-84567482D01*
X133788498Y-84687180D01*
X133847463Y-84797494D01*
X133926815Y-84894185D01*
X134023506Y-84973537D01*
X134133820Y-85032502D01*
X134253518Y-85068812D01*
X134378000Y-85081072D01*
X134842250Y-85078000D01*
X135001000Y-84919250D01*
X135001000Y-83820000D01*
X133901750Y-83820000D01*
X133743000Y-83978750D01*
X133739928Y-84443000D01*
X128216000Y-84443000D01*
X128216000Y-81217193D01*
X128873000Y-81217193D01*
X128873000Y-81568807D01*
X128941596Y-81913665D01*
X129076153Y-82238515D01*
X129271500Y-82530871D01*
X129520129Y-82779500D01*
X129812485Y-82974847D01*
X130137335Y-83109404D01*
X130482193Y-83178000D01*
X130833807Y-83178000D01*
X131178665Y-83109404D01*
X131503515Y-82974847D01*
X131551177Y-82943000D01*
X133739928Y-82943000D01*
X133743000Y-83407250D01*
X133901750Y-83566000D01*
X135001000Y-83566000D01*
X135001000Y-82466750D01*
X134842250Y-82308000D01*
X134378000Y-82304928D01*
X134253518Y-82317188D01*
X134133820Y-82353498D01*
X134023506Y-82412463D01*
X133926815Y-82491815D01*
X133847463Y-82588506D01*
X133788498Y-82698820D01*
X133752188Y-82818518D01*
X133739928Y-82943000D01*
X131551177Y-82943000D01*
X131795871Y-82779500D01*
X132044500Y-82530871D01*
X132239847Y-82238515D01*
X132374404Y-81913665D01*
X132443000Y-81568807D01*
X132443000Y-81217193D01*
X132374404Y-80872335D01*
X132239847Y-80547485D01*
X132044500Y-80255129D01*
X131795871Y-80006500D01*
X131503515Y-79811153D01*
X131178665Y-79676596D01*
X130833807Y-79608000D01*
X130482193Y-79608000D01*
X130137335Y-79676596D01*
X129812485Y-79811153D01*
X129520129Y-80006500D01*
X129271500Y-80255129D01*
X129076153Y-80547485D01*
X128941596Y-80872335D01*
X128873000Y-81217193D01*
X128216000Y-81217193D01*
X128216000Y-78273018D01*
X128220040Y-78232000D01*
X128215895Y-78189913D01*
X128203918Y-78068311D01*
X128156172Y-77910913D01*
X128078636Y-77765854D01*
X128059099Y-77742048D01*
X128000439Y-77670570D01*
X128000437Y-77670568D01*
X127974291Y-77638709D01*
X127942433Y-77612564D01*
X127188807Y-76858939D01*
X127215000Y-76727260D01*
X127215000Y-76434740D01*
X127157932Y-76147842D01*
X127045990Y-75877589D01*
X126883475Y-75634368D01*
X126676632Y-75427525D01*
X126502240Y-75311000D01*
X126676632Y-75194475D01*
X126883475Y-74987632D01*
X126958065Y-74876000D01*
X128037715Y-74876000D01*
X128160744Y-74958205D01*
X128349102Y-75036226D01*
X128549061Y-75076000D01*
X128752939Y-75076000D01*
X128952898Y-75036226D01*
X129141256Y-74958205D01*
X129310774Y-74844937D01*
X129454937Y-74700774D01*
X129568205Y-74531256D01*
X129580853Y-74500721D01*
X137408919Y-82328788D01*
X137304411Y-82308000D01*
X137031589Y-82308000D01*
X136764011Y-82361225D01*
X136511957Y-82465629D01*
X136380035Y-82553776D01*
X136329185Y-82491815D01*
X136232494Y-82412463D01*
X136122180Y-82353498D01*
X136002482Y-82317188D01*
X135878000Y-82304928D01*
X135413750Y-82308000D01*
X135255000Y-82466750D01*
X135255000Y-83566000D01*
X135275000Y-83566000D01*
X135275000Y-83820000D01*
X135255000Y-83820000D01*
X135255000Y-84919250D01*
X135401692Y-85065942D01*
X135265114Y-85157201D01*
X135072201Y-85350114D01*
X134920629Y-85576957D01*
X134816225Y-85829011D01*
X134763000Y-86096589D01*
X134763000Y-86369411D01*
X134816225Y-86636989D01*
X134920629Y-86889043D01*
X135072201Y-87115886D01*
X135265114Y-87308799D01*
X135313000Y-87340796D01*
X135313001Y-88370831D01*
X135264492Y-88530744D01*
X135247428Y-88703998D01*
X135247428Y-89604002D01*
X135264492Y-89777256D01*
X135315028Y-89943852D01*
X135397095Y-90097387D01*
X135507538Y-90231962D01*
X135642113Y-90342405D01*
X135795648Y-90424472D01*
X135962244Y-90475008D01*
X136135498Y-90492072D01*
X136660502Y-90492072D01*
X136833756Y-90475008D01*
X137000352Y-90424472D01*
X137153887Y-90342405D01*
X137288462Y-90231962D01*
X137310500Y-90205109D01*
X137332538Y-90231962D01*
X137467113Y-90342405D01*
X137620648Y-90424472D01*
X137787244Y-90475008D01*
X137960498Y-90492072D01*
X138485502Y-90492072D01*
X138658756Y-90475008D01*
X138825352Y-90424472D01*
X138978887Y-90342405D01*
X139113462Y-90231962D01*
X139223905Y-90097387D01*
X139305972Y-89943852D01*
X139356508Y-89777256D01*
X139373572Y-89604002D01*
X139373572Y-89184297D01*
X139479443Y-89078426D01*
X139511301Y-89052281D01*
X139615646Y-88925136D01*
X139693182Y-88780077D01*
X139740928Y-88622679D01*
X139753010Y-88500009D01*
X139753010Y-88500008D01*
X139757050Y-88458990D01*
X139753010Y-88417972D01*
X139753010Y-81849486D01*
X139757050Y-81808468D01*
X139740928Y-81644779D01*
X139693182Y-81487381D01*
X139615646Y-81342322D01*
X139537449Y-81247038D01*
X139537447Y-81247036D01*
X139511301Y-81215177D01*
X139479442Y-81189031D01*
X129698291Y-71407881D01*
X131209724Y-71407881D01*
X131569912Y-71897548D01*
X132233882Y-72257849D01*
X132955385Y-72481694D01*
X133706695Y-72560480D01*
X134458938Y-72491178D01*
X135183208Y-72276452D01*
X135851670Y-71924555D01*
X135892088Y-71897548D01*
X136252276Y-71407881D01*
X133731000Y-68886605D01*
X131209724Y-71407881D01*
X129698291Y-71407881D01*
X128556542Y-70266133D01*
X128556542Y-68682695D01*
X129877520Y-68682695D01*
X129946822Y-69434938D01*
X130161548Y-70159208D01*
X130513445Y-70827670D01*
X130540452Y-70868088D01*
X131030119Y-71228276D01*
X133551395Y-68707000D01*
X133910605Y-68707000D01*
X136431881Y-71228276D01*
X136921548Y-70868088D01*
X137281849Y-70204118D01*
X137505694Y-69482615D01*
X137584480Y-68731305D01*
X137515178Y-67979062D01*
X137300452Y-67254792D01*
X136948555Y-66586330D01*
X136921548Y-66545912D01*
X136431881Y-66185724D01*
X133910605Y-68707000D01*
X133551395Y-68707000D01*
X131030119Y-66185724D01*
X130540452Y-66545912D01*
X130180151Y-67209882D01*
X129956306Y-67931385D01*
X129877520Y-68682695D01*
X128556542Y-68682695D01*
X128556542Y-66006119D01*
X131209724Y-66006119D01*
X133731000Y-68527395D01*
X136252276Y-66006119D01*
X135892088Y-65516452D01*
X135228118Y-65156151D01*
X134506615Y-64932306D01*
X133755305Y-64853520D01*
X133003062Y-64922822D01*
X132278792Y-65137548D01*
X131610330Y-65489445D01*
X131569912Y-65516452D01*
X131209724Y-66006119D01*
X128556542Y-66006119D01*
X128556542Y-65913560D01*
X128560582Y-65872542D01*
X128553591Y-65801562D01*
X128544460Y-65708853D01*
X128496714Y-65551455D01*
X128419178Y-65406396D01*
X128375180Y-65352784D01*
X128340981Y-65311112D01*
X128340979Y-65311110D01*
X128314833Y-65279251D01*
X128282974Y-65253105D01*
X127188807Y-64158939D01*
X127215000Y-64027260D01*
X127215000Y-63734740D01*
X127157932Y-63447842D01*
X127045990Y-63177589D01*
X126883475Y-62934368D01*
X126676632Y-62727525D01*
X126433411Y-62565010D01*
X126163158Y-62453068D01*
X125876260Y-62396000D01*
X125583740Y-62396000D01*
X125296842Y-62453068D01*
X125026589Y-62565010D01*
X124783368Y-62727525D01*
X124576525Y-62934368D01*
X124414010Y-63177589D01*
X124302068Y-63447842D01*
X124245000Y-63734740D01*
X124245000Y-64027260D01*
X124302068Y-64314158D01*
X124414010Y-64584411D01*
X124576525Y-64827632D01*
X124783368Y-65034475D01*
X124957760Y-65151000D01*
X124783368Y-65267525D01*
X124576525Y-65474368D01*
X124414010Y-65717589D01*
X124302068Y-65987842D01*
X124245000Y-66274740D01*
X124245000Y-66567260D01*
X124271193Y-66698940D01*
X124081336Y-66888797D01*
X124059502Y-66816820D01*
X124000537Y-66706506D01*
X123921185Y-66609815D01*
X123824494Y-66530463D01*
X123714180Y-66471498D01*
X123643228Y-66449975D01*
X123724494Y-66406537D01*
X123821185Y-66327185D01*
X123900537Y-66230494D01*
X123959502Y-66120180D01*
X123995812Y-66000482D01*
X124008072Y-65876000D01*
X124005000Y-65436750D01*
X123846250Y-65278000D01*
X122997000Y-65278000D01*
X122997000Y-65298000D01*
X122743000Y-65298000D01*
X122743000Y-65278000D01*
X122723000Y-65278000D01*
X122723000Y-65024000D01*
X122743000Y-65024000D01*
X122743000Y-63949750D01*
X122997000Y-63949750D01*
X122997000Y-65024000D01*
X123846250Y-65024000D01*
X124005000Y-64865250D01*
X124008072Y-64426000D01*
X123995812Y-64301518D01*
X123959502Y-64181820D01*
X123900537Y-64071506D01*
X123821185Y-63974815D01*
X123724494Y-63895463D01*
X123614180Y-63836498D01*
X123494482Y-63800188D01*
X123370000Y-63787928D01*
X123155750Y-63791000D01*
X122997000Y-63949750D01*
X122743000Y-63949750D01*
X122584250Y-63791000D01*
X122370000Y-63787928D01*
X122245518Y-63800188D01*
X122125820Y-63836498D01*
X122015506Y-63895463D01*
X121918815Y-63974815D01*
X121853342Y-64054594D01*
X121847962Y-64048038D01*
X121713386Y-63937595D01*
X121559850Y-63855528D01*
X121393254Y-63804992D01*
X121220000Y-63787928D01*
X120862279Y-63787928D01*
X120860000Y-62701750D01*
X120701250Y-62543000D01*
X119327000Y-62543000D01*
X119327000Y-62563000D01*
X119073000Y-62563000D01*
X119073000Y-62543000D01*
X117698750Y-62543000D01*
X117540000Y-62701750D01*
X117536928Y-64166000D01*
X117549188Y-64290482D01*
X117562181Y-64333313D01*
X117553923Y-64335818D01*
X117408864Y-64413354D01*
X117281719Y-64517699D01*
X117255568Y-64549564D01*
X116913574Y-64891559D01*
X116881710Y-64917709D01*
X116840001Y-64968532D01*
X116798291Y-64917709D01*
X116766427Y-64891559D01*
X116424435Y-64549568D01*
X116398281Y-64517699D01*
X116385906Y-64507543D01*
X116399319Y-64503346D01*
X116509114Y-64443421D01*
X116605109Y-64363227D01*
X116683613Y-64265846D01*
X116741612Y-64155021D01*
X116776875Y-64035011D01*
X116788048Y-63910427D01*
X116785000Y-62701750D01*
X116626250Y-62543000D01*
X116023000Y-62543000D01*
X116023000Y-62563000D01*
X115988072Y-62563000D01*
X115988072Y-62269000D01*
X116023000Y-62269000D01*
X116023000Y-62289000D01*
X116626250Y-62289000D01*
X116785000Y-62130250D01*
X116787431Y-61166063D01*
X116831067Y-61157383D01*
X117037624Y-61071824D01*
X117223520Y-60947612D01*
X117381612Y-60789520D01*
X117505824Y-60603624D01*
X117585753Y-60410658D01*
X117588609Y-60416000D01*
X117585498Y-60421820D01*
X117549188Y-60541518D01*
X117536928Y-60666000D01*
X117540000Y-62130250D01*
X117698750Y-62289000D01*
X119073000Y-62289000D01*
X119073000Y-58293000D01*
X119327000Y-58293000D01*
X119327000Y-62289000D01*
X120701250Y-62289000D01*
X120860000Y-62130250D01*
X120863072Y-60666000D01*
X120850812Y-60541518D01*
X120814502Y-60421820D01*
X120811391Y-60416000D01*
X120814502Y-60410180D01*
X120850812Y-60290482D01*
X120863072Y-60166000D01*
X120860000Y-58451750D01*
X120701250Y-58293000D01*
X119327000Y-58293000D01*
X119073000Y-58293000D01*
X117698750Y-58293000D01*
X117540000Y-58451750D01*
X117537932Y-59605891D01*
X117505824Y-59528376D01*
X117381612Y-59342480D01*
X117223520Y-59184388D01*
X117037624Y-59060176D01*
X116831067Y-58974617D01*
X116611788Y-58931000D01*
X116388212Y-58931000D01*
X116168933Y-58974617D01*
X115962376Y-59060176D01*
X115776480Y-59184388D01*
X115618388Y-59342480D01*
X115494176Y-59528376D01*
X115408617Y-59734933D01*
X115365000Y-59954212D01*
X115365000Y-60177788D01*
X115385617Y-60281436D01*
X115350000Y-60277928D01*
X115135000Y-60277928D01*
X115135000Y-60049285D01*
X115217205Y-59926256D01*
X115295226Y-59737898D01*
X115335000Y-59537939D01*
X115335000Y-59334061D01*
X115295226Y-59134102D01*
X115217205Y-58945744D01*
X115103937Y-58776226D01*
X114959774Y-58632063D01*
X114790256Y-58518795D01*
X114601898Y-58440774D01*
X114401939Y-58401000D01*
X114198061Y-58401000D01*
X113998102Y-58440774D01*
X113809744Y-58518795D01*
X113799998Y-58525307D01*
X113790253Y-58518795D01*
X113601895Y-58440774D01*
X113401936Y-58401000D01*
X113198058Y-58401000D01*
X112998099Y-58440774D01*
X112809741Y-58518795D01*
X112640223Y-58632063D01*
X112496060Y-58776226D01*
X112382792Y-58945744D01*
X112375417Y-58963548D01*
X112211788Y-58931000D01*
X111988212Y-58931000D01*
X111768933Y-58974617D01*
X111562376Y-59060176D01*
X111376480Y-59184388D01*
X111218388Y-59342480D01*
X111094176Y-59528376D01*
X111062068Y-59605891D01*
X111060000Y-58451750D01*
X110901250Y-58293000D01*
X109527000Y-58293000D01*
X109527000Y-62289000D01*
X110901250Y-62289000D01*
X111060000Y-62130250D01*
X111063072Y-60666000D01*
X111050812Y-60541518D01*
X111014502Y-60421820D01*
X111011391Y-60416000D01*
X111014247Y-60410658D01*
X111094176Y-60603624D01*
X111218388Y-60789520D01*
X111376480Y-60947612D01*
X111562376Y-61071824D01*
X111768933Y-61157383D01*
X111811928Y-61165935D01*
X111811928Y-63916000D01*
X111824188Y-64040482D01*
X111860498Y-64160180D01*
X111919463Y-64270494D01*
X111998815Y-64367185D01*
X112095506Y-64446537D01*
X112205820Y-64505502D01*
X112325518Y-64541812D01*
X112450000Y-64554072D01*
X112803944Y-64554072D01*
X112906710Y-64679293D01*
X112938574Y-64705443D01*
X113182547Y-64949417D01*
X113077171Y-65005742D01*
X113030000Y-65044454D01*
X112982829Y-65005742D01*
X112846582Y-64932916D01*
X112698745Y-64888071D01*
X112545000Y-64872928D01*
X112245000Y-64872928D01*
X112091255Y-64888071D01*
X111943418Y-64932916D01*
X111807171Y-65005742D01*
X111760000Y-65044454D01*
X111712829Y-65005742D01*
X111576582Y-64932916D01*
X111428745Y-64888071D01*
X111275000Y-64872928D01*
X110975000Y-64872928D01*
X110821255Y-64888071D01*
X110673418Y-64932916D01*
X110539064Y-65004730D01*
X110509494Y-64980463D01*
X110399180Y-64921498D01*
X110279482Y-64885188D01*
X110155000Y-64872928D01*
X110140750Y-64876000D01*
X109982000Y-65034750D01*
X109982000Y-66359000D01*
X110002000Y-66359000D01*
X110002000Y-66613000D01*
X109982000Y-66613000D01*
X109982000Y-66633000D01*
X109728000Y-66633000D01*
X109728000Y-66613000D01*
X109078750Y-66613000D01*
X108920000Y-66771750D01*
X108916928Y-67461000D01*
X108929188Y-67585482D01*
X108965498Y-67705180D01*
X109024463Y-67815494D01*
X109103815Y-67912185D01*
X109200506Y-67991537D01*
X109293291Y-68041132D01*
X108108072Y-69226352D01*
X108108072Y-68510998D01*
X108091008Y-68337744D01*
X108040472Y-68171148D01*
X107958405Y-68017613D01*
X107847962Y-67883038D01*
X107792500Y-67837521D01*
X107792500Y-67544479D01*
X107847962Y-67498962D01*
X107958405Y-67364387D01*
X108040472Y-67210852D01*
X108091008Y-67044256D01*
X108108072Y-66871002D01*
X108108072Y-65970998D01*
X108091008Y-65797744D01*
X108040472Y-65631148D01*
X107976251Y-65511000D01*
X108916928Y-65511000D01*
X108920000Y-66200250D01*
X109078750Y-66359000D01*
X109728000Y-66359000D01*
X109728000Y-65034750D01*
X109569250Y-64876000D01*
X109555000Y-64872928D01*
X109430518Y-64885188D01*
X109310820Y-64921498D01*
X109200506Y-64980463D01*
X109103815Y-65059815D01*
X109024463Y-65156506D01*
X108965498Y-65266820D01*
X108929188Y-65386518D01*
X108916928Y-65511000D01*
X107976251Y-65511000D01*
X107958405Y-65477613D01*
X107847962Y-65343038D01*
X107713387Y-65232595D01*
X107559852Y-65150528D01*
X107393256Y-65099992D01*
X107220002Y-65082928D01*
X106694998Y-65082928D01*
X106521744Y-65099992D01*
X106355148Y-65150528D01*
X106201613Y-65232595D01*
X106067038Y-65343038D01*
X106045000Y-65369891D01*
X106022962Y-65343038D01*
X105888387Y-65232595D01*
X105734852Y-65150528D01*
X105568256Y-65099992D01*
X105395002Y-65082928D01*
X104869998Y-65082928D01*
X104696744Y-65099992D01*
X104530148Y-65150528D01*
X104376613Y-65232595D01*
X104242038Y-65343038D01*
X104131595Y-65477613D01*
X104084507Y-65565708D01*
X104023475Y-65474368D01*
X103816632Y-65267525D01*
X103634466Y-65145805D01*
X103751355Y-65076178D01*
X103967588Y-64881269D01*
X104141641Y-64647920D01*
X104266825Y-64385099D01*
X104311476Y-64237890D01*
X104273538Y-64166000D01*
X107736928Y-64166000D01*
X107749188Y-64290482D01*
X107785498Y-64410180D01*
X107844463Y-64520494D01*
X107923815Y-64617185D01*
X108020506Y-64696537D01*
X108130820Y-64755502D01*
X108250518Y-64791812D01*
X108375000Y-64804072D01*
X109114250Y-64801000D01*
X109273000Y-64642250D01*
X109273000Y-62543000D01*
X109527000Y-62543000D01*
X109527000Y-64642250D01*
X109685750Y-64801000D01*
X110425000Y-64804072D01*
X110549482Y-64791812D01*
X110669180Y-64755502D01*
X110779494Y-64696537D01*
X110876185Y-64617185D01*
X110955537Y-64520494D01*
X111014502Y-64410180D01*
X111050812Y-64290482D01*
X111063072Y-64166000D01*
X111060000Y-62701750D01*
X110901250Y-62543000D01*
X109527000Y-62543000D01*
X109273000Y-62543000D01*
X107898750Y-62543000D01*
X107740000Y-62701750D01*
X107736928Y-64166000D01*
X104273538Y-64166000D01*
X104190155Y-64008000D01*
X102997000Y-64008000D01*
X102997000Y-64028000D01*
X102743000Y-64028000D01*
X102743000Y-64008000D01*
X101549845Y-64008000D01*
X101428524Y-64237890D01*
X101473175Y-64385099D01*
X101598359Y-64647920D01*
X101772412Y-64881269D01*
X101988645Y-65076178D01*
X102105534Y-65145805D01*
X101923368Y-65267525D01*
X101716525Y-65474368D01*
X101554010Y-65717589D01*
X101442068Y-65987842D01*
X101385000Y-66274740D01*
X101385000Y-66567260D01*
X101411193Y-66698939D01*
X99858536Y-68251597D01*
X99826666Y-68277752D01*
X99722322Y-68404897D01*
X99722321Y-68404898D01*
X99644785Y-68549957D01*
X99597039Y-68707355D01*
X99580917Y-68871043D01*
X99584957Y-68912061D01*
X99584958Y-85069090D01*
X99455072Y-84939204D01*
X99455072Y-83682000D01*
X99442812Y-83557518D01*
X99406502Y-83437820D01*
X99347537Y-83327506D01*
X99268185Y-83230815D01*
X99171494Y-83151463D01*
X99061180Y-83092498D01*
X98941482Y-83056188D01*
X98817000Y-83043928D01*
X97017000Y-83043928D01*
X96892518Y-83056188D01*
X96772820Y-83092498D01*
X96662506Y-83151463D01*
X96565815Y-83230815D01*
X96486463Y-83327506D01*
X96427498Y-83437820D01*
X96421944Y-83456127D01*
X96355505Y-83389688D01*
X96104095Y-83221701D01*
X95824743Y-83105989D01*
X95528184Y-83047000D01*
X95225816Y-83047000D01*
X95060763Y-83079831D01*
X95057791Y-83076209D01*
X94930646Y-82971864D01*
X94785587Y-82894328D01*
X94628189Y-82846582D01*
X94505519Y-82834500D01*
X94505518Y-82834500D01*
X94464500Y-82830460D01*
X94423482Y-82834500D01*
X93071479Y-82834500D01*
X93025962Y-82779038D01*
X92891387Y-82668595D01*
X92788313Y-82613500D01*
X92891387Y-82558405D01*
X93025962Y-82447962D01*
X93136405Y-82313387D01*
X93218472Y-82159852D01*
X93269008Y-81993256D01*
X93286072Y-81820002D01*
X93286072Y-81294998D01*
X93269008Y-81121744D01*
X93218472Y-80955148D01*
X93136405Y-80801613D01*
X93025962Y-80667038D01*
X92999109Y-80645000D01*
X93025962Y-80622962D01*
X93052193Y-80591000D01*
X94215801Y-80591000D01*
X94311688Y-80734505D01*
X94525495Y-80948312D01*
X94776905Y-81116299D01*
X95056257Y-81232011D01*
X95352816Y-81291000D01*
X95655184Y-81291000D01*
X95951743Y-81232011D01*
X96231095Y-81116299D01*
X96482505Y-80948312D01*
X96548944Y-80881873D01*
X96554498Y-80900180D01*
X96613463Y-81010494D01*
X96692815Y-81107185D01*
X96789506Y-81186537D01*
X96899820Y-81245502D01*
X97019518Y-81281812D01*
X97144000Y-81294072D01*
X98944000Y-81294072D01*
X99068482Y-81281812D01*
X99188180Y-81245502D01*
X99298494Y-81186537D01*
X99395185Y-81107185D01*
X99474537Y-81010494D01*
X99533502Y-80900180D01*
X99569812Y-80780482D01*
X99582072Y-80656000D01*
X99582072Y-78856000D01*
X99569812Y-78731518D01*
X99533502Y-78611820D01*
X99474537Y-78501506D01*
X99395185Y-78404815D01*
X99298494Y-78325463D01*
X99188180Y-78266498D01*
X99068482Y-78230188D01*
X98944000Y-78217928D01*
X97144000Y-78217928D01*
X97019518Y-78230188D01*
X96899820Y-78266498D01*
X96789506Y-78325463D01*
X96692815Y-78404815D01*
X96613463Y-78501506D01*
X96554498Y-78611820D01*
X96548944Y-78630127D01*
X96482505Y-78563688D01*
X96231095Y-78395701D01*
X95951743Y-78279989D01*
X95655184Y-78221000D01*
X95352816Y-78221000D01*
X95056257Y-78279989D01*
X94776905Y-78395701D01*
X94525495Y-78563688D01*
X94311688Y-78777495D01*
X94215801Y-78921000D01*
X93090765Y-78921000D01*
X93025962Y-78842038D01*
X92891387Y-78731595D01*
X92737852Y-78649528D01*
X92571256Y-78598992D01*
X92398002Y-78581928D01*
X91497998Y-78581928D01*
X91324744Y-78598992D01*
X91158148Y-78649528D01*
X91004613Y-78731595D01*
X90870038Y-78842038D01*
X90759595Y-78976613D01*
X90677528Y-79130148D01*
X90626992Y-79296744D01*
X90609928Y-79469998D01*
X90609928Y-79995002D01*
X90626992Y-80168256D01*
X90677528Y-80334852D01*
X90759595Y-80488387D01*
X90870038Y-80622962D01*
X90896891Y-80645000D01*
X90870038Y-80667038D01*
X90759595Y-80801613D01*
X90677528Y-80955148D01*
X90626992Y-81121744D01*
X90609928Y-81294998D01*
X90609928Y-81714705D01*
X90286569Y-82038064D01*
X90254699Y-82064219D01*
X90176216Y-82159852D01*
X90150354Y-82191365D01*
X90072818Y-82336424D01*
X90025072Y-82493822D01*
X90008950Y-82657510D01*
X90012990Y-82698529D01*
X90012991Y-84353462D01*
X90008950Y-84394490D01*
X90025072Y-84558178D01*
X90072818Y-84715576D01*
X90145749Y-84852019D01*
X90150355Y-84860636D01*
X90254700Y-84987781D01*
X90286564Y-85013931D01*
X90609928Y-85337295D01*
X90609928Y-85757002D01*
X90626992Y-85930256D01*
X90677528Y-86096852D01*
X90759595Y-86250387D01*
X90870038Y-86384962D01*
X91004613Y-86495405D01*
X91113001Y-86553340D01*
X91113001Y-87106172D01*
X91108960Y-87147200D01*
X91125082Y-87310888D01*
X91172828Y-87468286D01*
X91250364Y-87613345D01*
X91269016Y-87636072D01*
X91354710Y-87740491D01*
X91386574Y-87766641D01*
X94945296Y-91325363D01*
X94945188Y-91325718D01*
X94932928Y-91450200D01*
X94932928Y-92090200D01*
X94945188Y-92214682D01*
X94981498Y-92334380D01*
X95040463Y-92444694D01*
X95119815Y-92541385D01*
X95216506Y-92620737D01*
X95326820Y-92679702D01*
X95446518Y-92716012D01*
X95571000Y-92728272D01*
X95736000Y-92728272D01*
X95736001Y-96091131D01*
X92720679Y-99106454D01*
X92724072Y-99072000D01*
X92724072Y-96572000D01*
X92711812Y-96447518D01*
X92675502Y-96327820D01*
X92616537Y-96217506D01*
X92537185Y-96120815D01*
X92440494Y-96041463D01*
X92330180Y-95982498D01*
X92210482Y-95946188D01*
X92086000Y-95933928D01*
X90286000Y-95933928D01*
X90161518Y-95946188D01*
X90041820Y-95982498D01*
X89931506Y-96041463D01*
X89834815Y-96120815D01*
X89755463Y-96217506D01*
X89696498Y-96327820D01*
X89660188Y-96447518D01*
X89647928Y-96572000D01*
X89647928Y-96987000D01*
X89284868Y-96987000D01*
X88783585Y-96485717D01*
X88807561Y-96427834D01*
X88880000Y-96063656D01*
X88880000Y-95692344D01*
X88807561Y-95328166D01*
X88665466Y-94985118D01*
X88459175Y-94676382D01*
X88196618Y-94413825D01*
X87887882Y-94207534D01*
X87544834Y-94065439D01*
X87180656Y-93993000D01*
X86809344Y-93993000D01*
X86445166Y-94065439D01*
X86102118Y-94207534D01*
X85793382Y-94413825D01*
X85530825Y-94676382D01*
X85324534Y-94985118D01*
X85182439Y-95328166D01*
X85110000Y-95692344D01*
X85110000Y-96063656D01*
X85182439Y-96427834D01*
X85324534Y-96770882D01*
X85530825Y-97079618D01*
X85793382Y-97342175D01*
X86102118Y-97548466D01*
X86445166Y-97690561D01*
X86809344Y-97763000D01*
X87180656Y-97763000D01*
X87544834Y-97690561D01*
X87602717Y-97666585D01*
X88319559Y-98383427D01*
X88345709Y-98415291D01*
X88387185Y-98449329D01*
X88472854Y-98519636D01*
X88617913Y-98597172D01*
X88775311Y-98644918D01*
X88938999Y-98661040D01*
X88980018Y-98657000D01*
X89647928Y-98657000D01*
X89647928Y-99072000D01*
X89660188Y-99196482D01*
X89696498Y-99316180D01*
X89755463Y-99426494D01*
X89834815Y-99523185D01*
X89931506Y-99602537D01*
X90041820Y-99661502D01*
X90161518Y-99697812D01*
X90286000Y-99710072D01*
X92086000Y-99710072D01*
X92120454Y-99706679D01*
X91893205Y-99933928D01*
X90286000Y-99933928D01*
X90161518Y-99946188D01*
X90041820Y-99982498D01*
X89931506Y-100041463D01*
X89834815Y-100120815D01*
X89755463Y-100217506D01*
X89696498Y-100327820D01*
X89660188Y-100447518D01*
X89647928Y-100572000D01*
X89647928Y-100987000D01*
X88592007Y-100987000D01*
X88550999Y-100982961D01*
X88509991Y-100987000D01*
X88509981Y-100987000D01*
X88387311Y-100999082D01*
X88229913Y-101046828D01*
X88084854Y-101124364D01*
X87957709Y-101228709D01*
X87931561Y-101260571D01*
X87702204Y-101489928D01*
X85745000Y-101489928D01*
X85620518Y-101502188D01*
X85500820Y-101538498D01*
X85390506Y-101597463D01*
X85293815Y-101676815D01*
X85214463Y-101773506D01*
X85155498Y-101883820D01*
X85119188Y-102003518D01*
X85106928Y-102128000D01*
X85106928Y-104628000D01*
X85119188Y-104752482D01*
X85155498Y-104872180D01*
X85214463Y-104982494D01*
X85293815Y-105079185D01*
X85390506Y-105158537D01*
X85500820Y-105217502D01*
X85620518Y-105253812D01*
X85745000Y-105266072D01*
X88245000Y-105266072D01*
X88369482Y-105253812D01*
X88489180Y-105217502D01*
X88599494Y-105158537D01*
X88696185Y-105079185D01*
X88775537Y-104982494D01*
X88834502Y-104872180D01*
X88870812Y-104752482D01*
X88883072Y-104628000D01*
X88883072Y-102670796D01*
X88896868Y-102657000D01*
X89647928Y-102657000D01*
X89647928Y-103072000D01*
X89660188Y-103196482D01*
X89696498Y-103316180D01*
X89755463Y-103426494D01*
X89834815Y-103523185D01*
X89931506Y-103602537D01*
X90041820Y-103661502D01*
X90161518Y-103697812D01*
X90286000Y-103710072D01*
X92086000Y-103710072D01*
X92210482Y-103697812D01*
X92330180Y-103661502D01*
X92440494Y-103602537D01*
X92537185Y-103523185D01*
X92616537Y-103426494D01*
X92675502Y-103316180D01*
X92711812Y-103196482D01*
X92724072Y-103072000D01*
X92724072Y-101464795D01*
X97132427Y-97056441D01*
X97164291Y-97030291D01*
X97268636Y-96903146D01*
X97346172Y-96758087D01*
X97393918Y-96600689D01*
X97406000Y-96478019D01*
X97410040Y-96437001D01*
X97406000Y-96395982D01*
X97406000Y-92728272D01*
X97571000Y-92728272D01*
X97695482Y-92716012D01*
X97815180Y-92679702D01*
X97925494Y-92620737D01*
X97944426Y-92605200D01*
X98353472Y-92605200D01*
X98335197Y-92620197D01*
X98319403Y-92639443D01*
X98307667Y-92661399D01*
X98300440Y-92685224D01*
X98298000Y-92710000D01*
X98298000Y-108758239D01*
X97959555Y-108115330D01*
X97932548Y-108074912D01*
X97442881Y-107714724D01*
X94921605Y-110236000D01*
X97442881Y-112757276D01*
X97932548Y-112397088D01*
X98292849Y-111733118D01*
X98298000Y-111716515D01*
X98298000Y-120371000D01*
X86773279Y-120371000D01*
X86277784Y-120322416D01*
X85832210Y-120187890D01*
X85421255Y-119969382D01*
X85060564Y-119675209D01*
X84763881Y-119316581D01*
X84542509Y-118907162D01*
X84404874Y-118462535D01*
X84353000Y-117968990D01*
X84353000Y-112936881D01*
X92220724Y-112936881D01*
X92580912Y-113426548D01*
X93244882Y-113786849D01*
X93966385Y-114010694D01*
X94717695Y-114089480D01*
X95469938Y-114020178D01*
X96194208Y-113805452D01*
X96862670Y-113453555D01*
X96903088Y-113426548D01*
X97263276Y-112936881D01*
X94742000Y-110415605D01*
X92220724Y-112936881D01*
X84353000Y-112936881D01*
X84353000Y-110211695D01*
X90888520Y-110211695D01*
X90957822Y-110963938D01*
X91172548Y-111688208D01*
X91524445Y-112356670D01*
X91551452Y-112397088D01*
X92041119Y-112757276D01*
X94562395Y-110236000D01*
X92041119Y-107714724D01*
X91551452Y-108074912D01*
X91191151Y-108738882D01*
X90967306Y-109460385D01*
X90888520Y-110211695D01*
X84353000Y-110211695D01*
X84353000Y-109129966D01*
X84415000Y-109136072D01*
X84804250Y-109133000D01*
X84963000Y-108974250D01*
X84963000Y-107950000D01*
X85217000Y-107950000D01*
X85217000Y-108974250D01*
X85375750Y-109133000D01*
X85765000Y-109136072D01*
X85889482Y-109123812D01*
X86009180Y-109087502D01*
X86119494Y-109028537D01*
X86216185Y-108949185D01*
X86295537Y-108852494D01*
X86354502Y-108742180D01*
X86390812Y-108622482D01*
X86403072Y-108498000D01*
X86400000Y-108108750D01*
X86241250Y-107950000D01*
X85217000Y-107950000D01*
X84963000Y-107950000D01*
X84943000Y-107950000D01*
X84943000Y-107696000D01*
X84963000Y-107696000D01*
X84963000Y-106671750D01*
X85217000Y-106671750D01*
X85217000Y-107696000D01*
X86241250Y-107696000D01*
X86400000Y-107537250D01*
X86400016Y-107535119D01*
X92220724Y-107535119D01*
X94742000Y-110056395D01*
X97263276Y-107535119D01*
X96903088Y-107045452D01*
X96239118Y-106685151D01*
X95517615Y-106461306D01*
X94766305Y-106382520D01*
X94014062Y-106451822D01*
X93289792Y-106666548D01*
X92621330Y-107018445D01*
X92580912Y-107045452D01*
X92220724Y-107535119D01*
X86400016Y-107535119D01*
X86403072Y-107148000D01*
X86390812Y-107023518D01*
X86354502Y-106903820D01*
X86295537Y-106793506D01*
X86216185Y-106696815D01*
X86119494Y-106617463D01*
X86009180Y-106558498D01*
X85889482Y-106522188D01*
X85765000Y-106509928D01*
X85375750Y-106513000D01*
X85217000Y-106671750D01*
X84963000Y-106671750D01*
X84804250Y-106513000D01*
X84415000Y-106509928D01*
X84353000Y-106516034D01*
X84353000Y-92868211D01*
X84534102Y-92943226D01*
X84734061Y-92983000D01*
X84937939Y-92983000D01*
X85137898Y-92943226D01*
X85326256Y-92865205D01*
X85495774Y-92751937D01*
X85639937Y-92607774D01*
X85641657Y-92605200D01*
X85697574Y-92605200D01*
X85716506Y-92620737D01*
X85826820Y-92679702D01*
X85946518Y-92716012D01*
X86071000Y-92728272D01*
X88071000Y-92728272D01*
X88195482Y-92716012D01*
X88315180Y-92679702D01*
X88425494Y-92620737D01*
X88522185Y-92541385D01*
X88601537Y-92444694D01*
X88660502Y-92334380D01*
X88696812Y-92214682D01*
X88709072Y-92090200D01*
X88709072Y-91450200D01*
X88696812Y-91325718D01*
X88660502Y-91206020D01*
X88601537Y-91095706D01*
X88522185Y-90999015D01*
X88425494Y-90919663D01*
X88315180Y-90860698D01*
X88195482Y-90824388D01*
X88071000Y-90812128D01*
X86071000Y-90812128D01*
X85946518Y-90824388D01*
X85826820Y-90860698D01*
X85716506Y-90919663D01*
X85697574Y-90935200D01*
X85054818Y-90935200D01*
X85044377Y-90934172D01*
X84937939Y-90913000D01*
X84734061Y-90913000D01*
X84534102Y-90952774D01*
X84353000Y-91027789D01*
X84353000Y-89550200D01*
X85432928Y-89550200D01*
X85445188Y-89674682D01*
X85481498Y-89794380D01*
X85540463Y-89904694D01*
X85619815Y-90001385D01*
X85716506Y-90080737D01*
X85826820Y-90139702D01*
X85946518Y-90176012D01*
X86071000Y-90188272D01*
X86785250Y-90185200D01*
X86944000Y-90026450D01*
X86944000Y-89357200D01*
X87198000Y-89357200D01*
X87198000Y-90026450D01*
X87356750Y-90185200D01*
X88071000Y-90188272D01*
X88195482Y-90176012D01*
X88315180Y-90139702D01*
X88425494Y-90080737D01*
X88522185Y-90001385D01*
X88601537Y-89904694D01*
X88660502Y-89794380D01*
X88696812Y-89674682D01*
X88709072Y-89550200D01*
X88706000Y-89515950D01*
X88547250Y-89357200D01*
X87198000Y-89357200D01*
X86944000Y-89357200D01*
X85594750Y-89357200D01*
X85436000Y-89515950D01*
X85432928Y-89550200D01*
X84353000Y-89550200D01*
X84353000Y-88910200D01*
X85432928Y-88910200D01*
X85436000Y-88944450D01*
X85594750Y-89103200D01*
X86944000Y-89103200D01*
X86944000Y-88433950D01*
X87198000Y-88433950D01*
X87198000Y-89103200D01*
X88547250Y-89103200D01*
X88706000Y-88944450D01*
X88709072Y-88910200D01*
X88696812Y-88785718D01*
X88660502Y-88666020D01*
X88601537Y-88555706D01*
X88522185Y-88459015D01*
X88425494Y-88379663D01*
X88315180Y-88320698D01*
X88195482Y-88284388D01*
X88071000Y-88272128D01*
X87356750Y-88275200D01*
X87198000Y-88433950D01*
X86944000Y-88433950D01*
X86785250Y-88275200D01*
X86071000Y-88272128D01*
X85946518Y-88284388D01*
X85826820Y-88320698D01*
X85716506Y-88379663D01*
X85619815Y-88459015D01*
X85540463Y-88555706D01*
X85481498Y-88666020D01*
X85445188Y-88785718D01*
X85432928Y-88910200D01*
X84353000Y-88910200D01*
X84353000Y-80646036D01*
X84614422Y-80860579D01*
X84915832Y-81021686D01*
X85242881Y-81120895D01*
X85497775Y-81146000D01*
X86968225Y-81146000D01*
X87223119Y-81120895D01*
X87550168Y-81021686D01*
X87851578Y-80860579D01*
X88115766Y-80643766D01*
X88332579Y-80379578D01*
X88493686Y-80078168D01*
X88592895Y-79751119D01*
X88626394Y-79411000D01*
X88592895Y-79070881D01*
X88493686Y-78743832D01*
X88332579Y-78442422D01*
X88115766Y-78178234D01*
X87924006Y-78020861D01*
X88018764Y-77843581D01*
X88097960Y-77582507D01*
X88124701Y-77311000D01*
X88097960Y-77039493D01*
X88018764Y-76778419D01*
X87890157Y-76537812D01*
X87717081Y-76326919D01*
X87693591Y-76307642D01*
X87802145Y-76200540D01*
X87955142Y-75974868D01*
X88061173Y-75723684D01*
X88075318Y-75652185D01*
X87952656Y-75438000D01*
X86360000Y-75438000D01*
X86360000Y-75458000D01*
X86106000Y-75458000D01*
X86106000Y-75438000D01*
X86086000Y-75438000D01*
X86086000Y-75184000D01*
X86106000Y-75184000D01*
X86106000Y-75164000D01*
X86360000Y-75164000D01*
X86360000Y-75184000D01*
X87952656Y-75184000D01*
X88075318Y-74969815D01*
X88061173Y-74898316D01*
X87955142Y-74647132D01*
X87888867Y-74549376D01*
X87934185Y-74512185D01*
X88013537Y-74415494D01*
X88072502Y-74305180D01*
X88108812Y-74185482D01*
X88121072Y-74061000D01*
X88121072Y-72561000D01*
X88109992Y-72448504D01*
X88115766Y-72443766D01*
X88332579Y-72179578D01*
X88493686Y-71878168D01*
X88592895Y-71551119D01*
X88607002Y-71407881D01*
X92220724Y-71407881D01*
X92580912Y-71897548D01*
X93244882Y-72257849D01*
X93966385Y-72481694D01*
X94717695Y-72560480D01*
X95469938Y-72491178D01*
X96194208Y-72276452D01*
X96862670Y-71924555D01*
X96903088Y-71897548D01*
X97263276Y-71407881D01*
X94742000Y-68886605D01*
X92220724Y-71407881D01*
X88607002Y-71407881D01*
X88626394Y-71211000D01*
X88592895Y-70870881D01*
X88493686Y-70543832D01*
X88332579Y-70242422D01*
X88115766Y-69978234D01*
X87851578Y-69761421D01*
X87550168Y-69600314D01*
X87223119Y-69501105D01*
X86968225Y-69476000D01*
X85497775Y-69476000D01*
X85242881Y-69501105D01*
X84915832Y-69600314D01*
X84614422Y-69761421D01*
X84353000Y-69975964D01*
X84353000Y-68739279D01*
X84358548Y-68682695D01*
X90888520Y-68682695D01*
X90957822Y-69434938D01*
X91172548Y-70159208D01*
X91524445Y-70827670D01*
X91551452Y-70868088D01*
X92041119Y-71228276D01*
X94562395Y-68707000D01*
X94921605Y-68707000D01*
X97442881Y-71228276D01*
X97932548Y-70868088D01*
X98292849Y-70204118D01*
X98516694Y-69482615D01*
X98595480Y-68731305D01*
X98526178Y-67979062D01*
X98311452Y-67254792D01*
X97959555Y-66586330D01*
X97932548Y-66545912D01*
X97442881Y-66185724D01*
X94921605Y-68707000D01*
X94562395Y-68707000D01*
X92041119Y-66185724D01*
X91551452Y-66545912D01*
X91191151Y-67209882D01*
X90967306Y-67931385D01*
X90888520Y-68682695D01*
X84358548Y-68682695D01*
X84401584Y-68243784D01*
X84536112Y-67798207D01*
X84754620Y-67387254D01*
X85048788Y-67026566D01*
X85407419Y-66729881D01*
X85816838Y-66508509D01*
X86261465Y-66370874D01*
X86755011Y-66319000D01*
X87281419Y-66319000D01*
X87301497Y-66317022D01*
X88202459Y-66261917D01*
X88213603Y-66260420D01*
X88224852Y-66260165D01*
X88289796Y-66250690D01*
X89353831Y-66040971D01*
X89368290Y-66037015D01*
X89383074Y-66034515D01*
X89445971Y-66015764D01*
X89473283Y-66006119D01*
X92220724Y-66006119D01*
X94742000Y-68527395D01*
X97263276Y-66006119D01*
X96903088Y-65516452D01*
X96239118Y-65156151D01*
X95517615Y-64932306D01*
X94766305Y-64853520D01*
X94014062Y-64922822D01*
X93289792Y-65137548D01*
X92621330Y-65489445D01*
X92580912Y-65516452D01*
X92220724Y-66006119D01*
X89473283Y-66006119D01*
X90468585Y-65654641D01*
X90482319Y-65648641D01*
X90496589Y-65644032D01*
X90556121Y-65616398D01*
X91515893Y-65111437D01*
X91528615Y-65103519D01*
X91542074Y-65096896D01*
X91596992Y-65060958D01*
X92473818Y-64422737D01*
X92485270Y-64413060D01*
X92497625Y-64404568D01*
X92546780Y-64361079D01*
X93322291Y-63602967D01*
X93332223Y-63591741D01*
X93343226Y-63581552D01*
X93385588Y-63531422D01*
X93391168Y-63524110D01*
X101428524Y-63524110D01*
X101549845Y-63754000D01*
X102743000Y-63754000D01*
X102743000Y-62560186D01*
X102997000Y-62560186D01*
X102997000Y-63754000D01*
X104190155Y-63754000D01*
X104311476Y-63524110D01*
X104266825Y-63376901D01*
X104141641Y-63114080D01*
X103967588Y-62880731D01*
X103751355Y-62685822D01*
X103501252Y-62536843D01*
X103226891Y-62439519D01*
X102997000Y-62560186D01*
X102743000Y-62560186D01*
X102513109Y-62439519D01*
X102238748Y-62536843D01*
X101988645Y-62685822D01*
X101772412Y-62880731D01*
X101598359Y-63114080D01*
X101473175Y-63376901D01*
X101428524Y-63524110D01*
X93391168Y-63524110D01*
X94043538Y-62669301D01*
X94051745Y-62656759D01*
X94061162Y-62645089D01*
X94095845Y-62589369D01*
X94622451Y-61641299D01*
X94628763Y-61627701D01*
X94636395Y-61614796D01*
X94662670Y-61554653D01*
X95046900Y-60540495D01*
X95051183Y-60526128D01*
X95056872Y-60512257D01*
X95074191Y-60448951D01*
X95136660Y-60166000D01*
X107736928Y-60166000D01*
X107749188Y-60290482D01*
X107785498Y-60410180D01*
X107788609Y-60416000D01*
X107785498Y-60421820D01*
X107749188Y-60541518D01*
X107736928Y-60666000D01*
X107740000Y-62130250D01*
X107898750Y-62289000D01*
X109273000Y-62289000D01*
X109273000Y-58293000D01*
X107898750Y-58293000D01*
X107740000Y-58451750D01*
X107736928Y-60166000D01*
X95136660Y-60166000D01*
X95307997Y-59389949D01*
X95310161Y-59375113D01*
X95313788Y-59360567D01*
X95321786Y-59295424D01*
X95399658Y-58222202D01*
X95402000Y-58198419D01*
X95402000Y-56166000D01*
X107736928Y-56166000D01*
X107740000Y-57880250D01*
X107898750Y-58039000D01*
X109273000Y-58039000D01*
X109273000Y-55689750D01*
X109527000Y-55689750D01*
X109527000Y-58039000D01*
X110901250Y-58039000D01*
X111060000Y-57880250D01*
X111063072Y-56166000D01*
X117536928Y-56166000D01*
X117540000Y-57880250D01*
X117698750Y-58039000D01*
X119073000Y-58039000D01*
X119073000Y-55689750D01*
X119327000Y-55689750D01*
X119327000Y-58039000D01*
X120701250Y-58039000D01*
X120860000Y-57880250D01*
X120863072Y-56166000D01*
X120850812Y-56041518D01*
X120814502Y-55921820D01*
X120755537Y-55811506D01*
X120676185Y-55714815D01*
X120579494Y-55635463D01*
X120469180Y-55576498D01*
X120349482Y-55540188D01*
X120225000Y-55527928D01*
X119485750Y-55531000D01*
X119327000Y-55689750D01*
X119073000Y-55689750D01*
X118914250Y-55531000D01*
X118175000Y-55527928D01*
X118050518Y-55540188D01*
X117930820Y-55576498D01*
X117820506Y-55635463D01*
X117723815Y-55714815D01*
X117644463Y-55811506D01*
X117585498Y-55921820D01*
X117549188Y-56041518D01*
X117536928Y-56166000D01*
X111063072Y-56166000D01*
X111050812Y-56041518D01*
X111014502Y-55921820D01*
X110955537Y-55811506D01*
X110876185Y-55714815D01*
X110779494Y-55635463D01*
X110669180Y-55576498D01*
X110549482Y-55540188D01*
X110425000Y-55527928D01*
X109685750Y-55531000D01*
X109527000Y-55689750D01*
X109273000Y-55689750D01*
X109114250Y-55531000D01*
X108375000Y-55527928D01*
X108250518Y-55540188D01*
X108130820Y-55576498D01*
X108020506Y-55635463D01*
X107923815Y-55714815D01*
X107844463Y-55811506D01*
X107785498Y-55921820D01*
X107749188Y-56041518D01*
X107736928Y-56166000D01*
X95402000Y-56166000D01*
X95402000Y-55404279D01*
X95423978Y-55180128D01*
X95479701Y-54995565D01*
X95570212Y-54825340D01*
X95692060Y-54675939D01*
X95840611Y-54553047D01*
X96010202Y-54461350D01*
X96194372Y-54404340D01*
X96416439Y-54381000D01*
X108952537Y-54381000D01*
X108968493Y-54420492D01*
%TA.AperFunction,Conductor*%
D44*
G36*
X108968493Y-54420492D02*
G01*
X108972819Y-54428629D01*
X109067130Y-54603052D01*
X109100575Y-54652636D01*
X109133335Y-54702699D01*
X109139159Y-54709840D01*
X109265554Y-54862624D01*
X109307969Y-54904744D01*
X109349851Y-54947513D01*
X109356952Y-54953387D01*
X109510614Y-55078711D01*
X109560423Y-55111803D01*
X109609795Y-55145610D01*
X109617902Y-55149993D01*
X109792980Y-55243084D01*
X109848275Y-55265875D01*
X109903270Y-55289446D01*
X109912074Y-55292171D01*
X110101900Y-55349482D01*
X110160566Y-55361098D01*
X110219087Y-55373537D01*
X110228252Y-55374500D01*
X110425593Y-55393850D01*
X110425598Y-55393850D01*
X110457581Y-55397000D01*
X118142419Y-55397000D01*
X118170690Y-55394216D01*
X118176911Y-55394259D01*
X118186083Y-55393359D01*
X118383284Y-55372632D01*
X118441834Y-55360613D01*
X118500639Y-55349396D01*
X118509461Y-55346732D01*
X118698882Y-55288097D01*
X118754009Y-55264924D01*
X118809492Y-55242507D01*
X118817629Y-55238181D01*
X118992052Y-55143870D01*
X119041636Y-55110425D01*
X119091699Y-55077665D01*
X119098840Y-55071841D01*
X119251624Y-54945446D01*
X119293744Y-54903031D01*
X119336513Y-54861149D01*
X119342387Y-54854048D01*
X119467711Y-54700386D01*
X119500803Y-54650577D01*
X119534610Y-54601205D01*
X119538993Y-54593098D01*
X119632084Y-54418020D01*
X119647342Y-54381000D01*
X132047721Y-54381000D01*
X132271872Y-54402978D01*
X132456435Y-54458701D01*
X132626660Y-54549212D01*
X132776061Y-54671060D01*
X132898953Y-54819611D01*
X132990650Y-54989202D01*
X133047660Y-55173372D01*
X133071000Y-55395439D01*
X133071001Y-58198419D01*
X133072976Y-58218470D01*
X133128083Y-59119459D01*
X133129580Y-59130603D01*
X133129835Y-59141852D01*
X133139310Y-59206796D01*
X133349029Y-60270831D01*
X133352985Y-60285290D01*
X133355485Y-60300074D01*
X133374236Y-60362971D01*
X133735359Y-61385585D01*
X133741359Y-61399319D01*
X133745968Y-61413589D01*
X133773602Y-61473121D01*
X134278563Y-62432893D01*
X134286481Y-62445615D01*
X134293104Y-62459074D01*
X134329042Y-62513992D01*
X134967263Y-63390818D01*
X134976940Y-63402270D01*
X134985432Y-63414625D01*
X135028921Y-63463780D01*
X135787033Y-64239291D01*
X135798259Y-64249223D01*
X135808448Y-64260226D01*
X135858578Y-64302588D01*
X136720699Y-64960538D01*
X136733241Y-64968745D01*
X136744911Y-64978162D01*
X136800631Y-65012845D01*
X137748701Y-65539451D01*
X137762299Y-65545763D01*
X137775204Y-65553395D01*
X137835347Y-65579670D01*
X138849505Y-65963900D01*
X138863872Y-65968183D01*
X138877743Y-65973872D01*
X138941049Y-65991191D01*
X140000051Y-66224997D01*
X140014887Y-66227161D01*
X140029433Y-66230788D01*
X140094576Y-66238786D01*
X141167798Y-66316658D01*
X141191581Y-66319000D01*
X141699721Y-66319000D01*
X142195216Y-66367584D01*
X142640793Y-66502112D01*
X143051746Y-66720620D01*
X143412434Y-67014788D01*
X143709119Y-67373419D01*
X143930491Y-67782838D01*
X144068126Y-68227465D01*
X144120001Y-68721021D01*
X144120001Y-80368123D01*
X144044500Y-80255129D01*
X143795871Y-80006500D01*
X143503515Y-79811153D01*
X143178665Y-79676596D01*
X142833807Y-79608000D01*
X142482193Y-79608000D01*
X142137335Y-79676596D01*
X141812485Y-79811153D01*
X141520129Y-80006500D01*
X141271500Y-80255129D01*
X141076153Y-80547485D01*
X140941596Y-80872335D01*
X140873000Y-81217193D01*
X140873000Y-81568807D01*
X140941596Y-81913665D01*
X141076153Y-82238515D01*
X141271500Y-82530871D01*
X141520129Y-82779500D01*
X141812485Y-82974847D01*
X142137335Y-83109404D01*
X142482193Y-83178000D01*
X142833807Y-83178000D01*
X143178665Y-83109404D01*
X143503515Y-82974847D01*
X143795871Y-82779500D01*
X144044500Y-82530871D01*
X144120001Y-82417877D01*
X144120000Y-102647760D01*
X144055482Y-102628189D01*
X143931000Y-102615929D01*
X143541750Y-102619001D01*
X143383000Y-102777751D01*
X143383000Y-103802001D01*
X143403000Y-103802001D01*
X143403000Y-104056001D01*
X143383000Y-104056001D01*
X143383000Y-105080251D01*
X143541750Y-105239001D01*
X143931000Y-105242073D01*
X144055482Y-105229813D01*
X144120000Y-105210242D01*
X144120000Y-117950721D01*
X144071416Y-118446216D01*
X143936890Y-118891790D01*
X143718382Y-119302745D01*
X143424209Y-119663436D01*
X143065581Y-119960119D01*
X142656162Y-120181491D01*
X142211535Y-120319126D01*
X141717990Y-120371000D01*
X133477000Y-120371000D01*
X133477000Y-114065393D01*
X133706695Y-114089480D01*
X134458938Y-114020178D01*
X135183208Y-113805452D01*
X135851670Y-113453555D01*
X135892088Y-113426548D01*
X136252276Y-112936881D01*
X133731000Y-110415605D01*
X133716858Y-110429748D01*
X133537253Y-110250143D01*
X133551395Y-110236000D01*
X133910605Y-110236000D01*
X136431881Y-112757276D01*
X136921548Y-112397088D01*
X137281849Y-111733118D01*
X137505694Y-111011615D01*
X137584480Y-110260305D01*
X137515178Y-109508062D01*
X137300452Y-108783792D01*
X136948555Y-108115330D01*
X136921548Y-108074912D01*
X136431881Y-107714724D01*
X133910605Y-110236000D01*
X133551395Y-110236000D01*
X133537253Y-110221858D01*
X133716858Y-110042253D01*
X133731000Y-110056395D01*
X136252276Y-107535119D01*
X135892088Y-107045452D01*
X135228118Y-106685151D01*
X134506615Y-106461306D01*
X133755305Y-106382520D01*
X133477000Y-106408159D01*
X133477000Y-98334537D01*
X135185201Y-100042738D01*
X135185201Y-101108375D01*
X135095718Y-101117188D01*
X134976020Y-101153498D01*
X134865706Y-101212463D01*
X134769015Y-101291815D01*
X134689663Y-101388506D01*
X134630698Y-101498820D01*
X134594388Y-101618518D01*
X134582128Y-101743000D01*
X134582128Y-103225677D01*
X134337386Y-103356494D01*
X134111266Y-103542066D01*
X133925694Y-103768186D01*
X133787801Y-104026166D01*
X133702887Y-104306089D01*
X133674215Y-104597200D01*
X133702887Y-104888311D01*
X133787801Y-105168234D01*
X133925694Y-105426214D01*
X134111266Y-105652334D01*
X134337386Y-105837906D01*
X134595366Y-105975799D01*
X134875289Y-106060713D01*
X135093450Y-106082200D01*
X140039350Y-106082200D01*
X140257511Y-106060713D01*
X140537434Y-105975799D01*
X140795414Y-105837906D01*
X141021534Y-105652334D01*
X141207106Y-105426214D01*
X141344999Y-105168234D01*
X141429913Y-104888311D01*
X141457915Y-104604001D01*
X141942928Y-104604001D01*
X141955188Y-104728483D01*
X141991498Y-104848181D01*
X142050463Y-104958495D01*
X142129815Y-105055186D01*
X142226506Y-105134538D01*
X142336820Y-105193503D01*
X142456518Y-105229813D01*
X142581000Y-105242073D01*
X142970250Y-105239001D01*
X143129000Y-105080251D01*
X143129000Y-104056001D01*
X142104750Y-104056001D01*
X141946000Y-104214751D01*
X141942928Y-104604001D01*
X141457915Y-104604001D01*
X141458585Y-104597200D01*
X141429913Y-104306089D01*
X141344999Y-104026166D01*
X141207106Y-103768186D01*
X141021534Y-103542066D01*
X140795414Y-103356494D01*
X140603663Y-103254001D01*
X141942928Y-103254001D01*
X141946000Y-103643251D01*
X142104750Y-103802001D01*
X143129000Y-103802001D01*
X143129000Y-102777751D01*
X142970250Y-102619001D01*
X142581000Y-102615929D01*
X142456518Y-102628189D01*
X142336820Y-102664499D01*
X142226506Y-102723464D01*
X142129815Y-102802816D01*
X142050463Y-102899507D01*
X141991498Y-103009821D01*
X141955188Y-103129519D01*
X141942928Y-103254001D01*
X140603663Y-103254001D01*
X140599359Y-103251701D01*
X140598400Y-103028750D01*
X140439650Y-102870000D01*
X139090400Y-102870000D01*
X139090400Y-102890000D01*
X138836400Y-102890000D01*
X138836400Y-102870000D01*
X138816400Y-102870000D01*
X138816400Y-102616000D01*
X138836400Y-102616000D01*
X138836400Y-101266750D01*
X139090400Y-101266750D01*
X139090400Y-102616000D01*
X140439650Y-102616000D01*
X140598400Y-102457250D01*
X140601472Y-101743000D01*
X140589212Y-101618518D01*
X140552902Y-101498820D01*
X140493937Y-101388506D01*
X140414585Y-101291815D01*
X140317894Y-101212463D01*
X140207580Y-101153498D01*
X140087882Y-101117188D01*
X139963400Y-101104928D01*
X139249150Y-101108000D01*
X139090400Y-101266750D01*
X138836400Y-101266750D01*
X138677650Y-101108000D01*
X137963400Y-101104928D01*
X137838918Y-101117188D01*
X137719220Y-101153498D01*
X137608906Y-101212463D01*
X137591800Y-101226501D01*
X137574694Y-101212463D01*
X137464380Y-101153498D01*
X137344682Y-101117188D01*
X137255200Y-101108375D01*
X137255200Y-99664861D01*
X137260207Y-99614026D01*
X137251260Y-99523185D01*
X137240224Y-99411131D01*
X137181041Y-99216033D01*
X137104054Y-99072000D01*
X137084934Y-99036228D01*
X136988003Y-98918118D01*
X136955596Y-98878630D01*
X136916108Y-98846223D01*
X130438885Y-92369000D01*
X139910928Y-92369000D01*
X139923188Y-92493482D01*
X139959498Y-92613180D01*
X140018463Y-92723494D01*
X140097815Y-92820185D01*
X140194506Y-92899537D01*
X140304820Y-92958502D01*
X140424518Y-92994812D01*
X140549000Y-93007072D01*
X140938250Y-93004000D01*
X141097000Y-92845250D01*
X141097000Y-91821000D01*
X141351000Y-91821000D01*
X141351000Y-92845250D01*
X141509750Y-93004000D01*
X141899000Y-93007072D01*
X142023482Y-92994812D01*
X142143180Y-92958502D01*
X142253494Y-92899537D01*
X142350185Y-92820185D01*
X142429537Y-92723494D01*
X142488502Y-92613180D01*
X142524812Y-92493482D01*
X142537072Y-92369000D01*
X142534000Y-91979750D01*
X142375250Y-91821000D01*
X141351000Y-91821000D01*
X141097000Y-91821000D01*
X140072750Y-91821000D01*
X139914000Y-91979750D01*
X139910928Y-92369000D01*
X130438885Y-92369000D01*
X130215011Y-92145127D01*
X130182600Y-92105634D01*
X130025001Y-91976296D01*
X129845197Y-91880189D01*
X129650099Y-91821006D01*
X129498042Y-91806030D01*
X129498032Y-91806030D01*
X129447204Y-91801024D01*
X129396376Y-91806030D01*
X122762570Y-91806030D01*
X122888636Y-91738646D01*
X123015781Y-91634301D01*
X123041936Y-91602431D01*
X123390295Y-91254072D01*
X123810002Y-91254072D01*
X123983256Y-91237008D01*
X124149852Y-91186472D01*
X124303387Y-91104405D01*
X124437962Y-90993962D01*
X124460000Y-90967109D01*
X124482038Y-90993962D01*
X124616613Y-91104405D01*
X124770148Y-91186472D01*
X124936744Y-91237008D01*
X125109998Y-91254072D01*
X125635002Y-91254072D01*
X125808256Y-91237008D01*
X125974852Y-91186472D01*
X126128387Y-91104405D01*
X126232453Y-91019000D01*
X139910928Y-91019000D01*
X139914000Y-91408250D01*
X140072750Y-91567000D01*
X141097000Y-91567000D01*
X141097000Y-90542750D01*
X141351000Y-90542750D01*
X141351000Y-91567000D01*
X142375250Y-91567000D01*
X142534000Y-91408250D01*
X142537072Y-91019000D01*
X142524812Y-90894518D01*
X142488502Y-90774820D01*
X142429537Y-90664506D01*
X142350185Y-90567815D01*
X142253494Y-90488463D01*
X142143180Y-90429498D01*
X142023482Y-90393188D01*
X141899000Y-90380928D01*
X141509750Y-90384000D01*
X141351000Y-90542750D01*
X141097000Y-90542750D01*
X140938250Y-90384000D01*
X140549000Y-90380928D01*
X140424518Y-90393188D01*
X140304820Y-90429498D01*
X140194506Y-90488463D01*
X140097815Y-90567815D01*
X140018463Y-90664506D01*
X139959498Y-90774820D01*
X139923188Y-90894518D01*
X139910928Y-91019000D01*
X126232453Y-91019000D01*
X126262962Y-90993962D01*
X126373405Y-90859387D01*
X126455472Y-90705852D01*
X126506008Y-90539256D01*
X126523072Y-90366002D01*
X126523072Y-89465998D01*
X126506008Y-89292744D01*
X126455472Y-89126148D01*
X126373405Y-88972613D01*
X126262962Y-88838038D01*
X126207500Y-88792521D01*
X126207500Y-87623481D01*
X126232918Y-87539689D01*
X126245000Y-87417019D01*
X126245000Y-86782019D01*
X126249040Y-86741001D01*
X126245000Y-86699982D01*
X126245000Y-85867407D01*
X126263061Y-85871000D01*
X126372467Y-85871000D01*
X126346000Y-86004061D01*
X126346000Y-86207939D01*
X126385774Y-86407898D01*
X126463795Y-86596256D01*
X126577063Y-86765774D01*
X126721226Y-86909937D01*
X126890744Y-87023205D01*
X127079102Y-87101226D01*
X127279061Y-87141000D01*
X127482939Y-87141000D01*
X127682898Y-87101226D01*
X127871256Y-87023205D01*
X128040774Y-86909937D01*
X128184937Y-86765774D01*
X128298205Y-86596256D01*
X128376226Y-86407898D01*
X128416000Y-86207939D01*
X128416000Y-86004061D01*
X128376226Y-85804102D01*
X128298205Y-85615744D01*
X128216000Y-85492715D01*
X128216000Y-84443000D01*
X133739928Y-84443000D01*
X133752188Y-84567482D01*
X133788498Y-84687180D01*
X133847463Y-84797494D01*
X133926815Y-84894185D01*
X134023506Y-84973537D01*
X134133820Y-85032502D01*
X134253518Y-85068812D01*
X134378000Y-85081072D01*
X134842250Y-85078000D01*
X135001000Y-84919250D01*
X135001000Y-83820000D01*
X133901750Y-83820000D01*
X133743000Y-83978750D01*
X133739928Y-84443000D01*
X128216000Y-84443000D01*
X128216000Y-81217193D01*
X128873000Y-81217193D01*
X128873000Y-81568807D01*
X128941596Y-81913665D01*
X129076153Y-82238515D01*
X129271500Y-82530871D01*
X129520129Y-82779500D01*
X129812485Y-82974847D01*
X130137335Y-83109404D01*
X130482193Y-83178000D01*
X130833807Y-83178000D01*
X131178665Y-83109404D01*
X131503515Y-82974847D01*
X131551177Y-82943000D01*
X133739928Y-82943000D01*
X133743000Y-83407250D01*
X133901750Y-83566000D01*
X135001000Y-83566000D01*
X135001000Y-82466750D01*
X134842250Y-82308000D01*
X134378000Y-82304928D01*
X134253518Y-82317188D01*
X134133820Y-82353498D01*
X134023506Y-82412463D01*
X133926815Y-82491815D01*
X133847463Y-82588506D01*
X133788498Y-82698820D01*
X133752188Y-82818518D01*
X133739928Y-82943000D01*
X131551177Y-82943000D01*
X131795871Y-82779500D01*
X132044500Y-82530871D01*
X132239847Y-82238515D01*
X132374404Y-81913665D01*
X132443000Y-81568807D01*
X132443000Y-81217193D01*
X132374404Y-80872335D01*
X132239847Y-80547485D01*
X132044500Y-80255129D01*
X131795871Y-80006500D01*
X131503515Y-79811153D01*
X131178665Y-79676596D01*
X130833807Y-79608000D01*
X130482193Y-79608000D01*
X130137335Y-79676596D01*
X129812485Y-79811153D01*
X129520129Y-80006500D01*
X129271500Y-80255129D01*
X129076153Y-80547485D01*
X128941596Y-80872335D01*
X128873000Y-81217193D01*
X128216000Y-81217193D01*
X128216000Y-78273018D01*
X128220040Y-78232000D01*
X128215895Y-78189913D01*
X128203918Y-78068311D01*
X128156172Y-77910913D01*
X128078636Y-77765854D01*
X128059099Y-77742048D01*
X128000439Y-77670570D01*
X128000437Y-77670568D01*
X127974291Y-77638709D01*
X127942433Y-77612564D01*
X127188807Y-76858939D01*
X127215000Y-76727260D01*
X127215000Y-76434740D01*
X127157932Y-76147842D01*
X127045990Y-75877589D01*
X126883475Y-75634368D01*
X126676632Y-75427525D01*
X126502240Y-75311000D01*
X126676632Y-75194475D01*
X126883475Y-74987632D01*
X126958065Y-74876000D01*
X128037715Y-74876000D01*
X128160744Y-74958205D01*
X128349102Y-75036226D01*
X128549061Y-75076000D01*
X128752939Y-75076000D01*
X128952898Y-75036226D01*
X129141256Y-74958205D01*
X129310774Y-74844937D01*
X129454937Y-74700774D01*
X129568205Y-74531256D01*
X129580853Y-74500721D01*
X137408919Y-82328788D01*
X137304411Y-82308000D01*
X137031589Y-82308000D01*
X136764011Y-82361225D01*
X136511957Y-82465629D01*
X136380035Y-82553776D01*
X136329185Y-82491815D01*
X136232494Y-82412463D01*
X136122180Y-82353498D01*
X136002482Y-82317188D01*
X135878000Y-82304928D01*
X135413750Y-82308000D01*
X135255000Y-82466750D01*
X135255000Y-83566000D01*
X135275000Y-83566000D01*
X135275000Y-83820000D01*
X135255000Y-83820000D01*
X135255000Y-84919250D01*
X135401692Y-85065942D01*
X135265114Y-85157201D01*
X135072201Y-85350114D01*
X134920629Y-85576957D01*
X134816225Y-85829011D01*
X134763000Y-86096589D01*
X134763000Y-86369411D01*
X134816225Y-86636989D01*
X134920629Y-86889043D01*
X135072201Y-87115886D01*
X135265114Y-87308799D01*
X135313000Y-87340796D01*
X135313001Y-88370831D01*
X135264492Y-88530744D01*
X135247428Y-88703998D01*
X135247428Y-89604002D01*
X135264492Y-89777256D01*
X135315028Y-89943852D01*
X135397095Y-90097387D01*
X135507538Y-90231962D01*
X135642113Y-90342405D01*
X135795648Y-90424472D01*
X135962244Y-90475008D01*
X136135498Y-90492072D01*
X136660502Y-90492072D01*
X136833756Y-90475008D01*
X137000352Y-90424472D01*
X137153887Y-90342405D01*
X137288462Y-90231962D01*
X137310500Y-90205109D01*
X137332538Y-90231962D01*
X137467113Y-90342405D01*
X137620648Y-90424472D01*
X137787244Y-90475008D01*
X137960498Y-90492072D01*
X138485502Y-90492072D01*
X138658756Y-90475008D01*
X138825352Y-90424472D01*
X138978887Y-90342405D01*
X139113462Y-90231962D01*
X139223905Y-90097387D01*
X139305972Y-89943852D01*
X139356508Y-89777256D01*
X139373572Y-89604002D01*
X139373572Y-89184297D01*
X139479443Y-89078426D01*
X139511301Y-89052281D01*
X139615646Y-88925136D01*
X139693182Y-88780077D01*
X139740928Y-88622679D01*
X139753010Y-88500009D01*
X139753010Y-88500008D01*
X139757050Y-88458990D01*
X139753010Y-88417972D01*
X139753010Y-81849486D01*
X139757050Y-81808468D01*
X139740928Y-81644779D01*
X139693182Y-81487381D01*
X139615646Y-81342322D01*
X139537449Y-81247038D01*
X139537447Y-81247036D01*
X139511301Y-81215177D01*
X139479442Y-81189031D01*
X129698291Y-71407881D01*
X131209724Y-71407881D01*
X131569912Y-71897548D01*
X132233882Y-72257849D01*
X132955385Y-72481694D01*
X133706695Y-72560480D01*
X134458938Y-72491178D01*
X135183208Y-72276452D01*
X135851670Y-71924555D01*
X135892088Y-71897548D01*
X136252276Y-71407881D01*
X133731000Y-68886605D01*
X131209724Y-71407881D01*
X129698291Y-71407881D01*
X128556542Y-70266133D01*
X128556542Y-68682695D01*
X129877520Y-68682695D01*
X129946822Y-69434938D01*
X130161548Y-70159208D01*
X130513445Y-70827670D01*
X130540452Y-70868088D01*
X131030119Y-71228276D01*
X133551395Y-68707000D01*
X133910605Y-68707000D01*
X136431881Y-71228276D01*
X136921548Y-70868088D01*
X137281849Y-70204118D01*
X137505694Y-69482615D01*
X137584480Y-68731305D01*
X137515178Y-67979062D01*
X137300452Y-67254792D01*
X136948555Y-66586330D01*
X136921548Y-66545912D01*
X136431881Y-66185724D01*
X133910605Y-68707000D01*
X133551395Y-68707000D01*
X131030119Y-66185724D01*
X130540452Y-66545912D01*
X130180151Y-67209882D01*
X129956306Y-67931385D01*
X129877520Y-68682695D01*
X128556542Y-68682695D01*
X128556542Y-66006119D01*
X131209724Y-66006119D01*
X133731000Y-68527395D01*
X136252276Y-66006119D01*
X135892088Y-65516452D01*
X135228118Y-65156151D01*
X134506615Y-64932306D01*
X133755305Y-64853520D01*
X133003062Y-64922822D01*
X132278792Y-65137548D01*
X131610330Y-65489445D01*
X131569912Y-65516452D01*
X131209724Y-66006119D01*
X128556542Y-66006119D01*
X128556542Y-65913560D01*
X128560582Y-65872542D01*
X128553591Y-65801562D01*
X128544460Y-65708853D01*
X128496714Y-65551455D01*
X128419178Y-65406396D01*
X128375180Y-65352784D01*
X128340981Y-65311112D01*
X128340979Y-65311110D01*
X128314833Y-65279251D01*
X128282974Y-65253105D01*
X127188807Y-64158939D01*
X127215000Y-64027260D01*
X127215000Y-63734740D01*
X127157932Y-63447842D01*
X127045990Y-63177589D01*
X126883475Y-62934368D01*
X126676632Y-62727525D01*
X126433411Y-62565010D01*
X126163158Y-62453068D01*
X125876260Y-62396000D01*
X125583740Y-62396000D01*
X125296842Y-62453068D01*
X125026589Y-62565010D01*
X124783368Y-62727525D01*
X124576525Y-62934368D01*
X124414010Y-63177589D01*
X124302068Y-63447842D01*
X124245000Y-63734740D01*
X124245000Y-64027260D01*
X124302068Y-64314158D01*
X124414010Y-64584411D01*
X124576525Y-64827632D01*
X124783368Y-65034475D01*
X124957760Y-65151000D01*
X124783368Y-65267525D01*
X124576525Y-65474368D01*
X124414010Y-65717589D01*
X124302068Y-65987842D01*
X124245000Y-66274740D01*
X124245000Y-66567260D01*
X124271193Y-66698940D01*
X124081336Y-66888797D01*
X124059502Y-66816820D01*
X124000537Y-66706506D01*
X123921185Y-66609815D01*
X123824494Y-66530463D01*
X123714180Y-66471498D01*
X123643228Y-66449975D01*
X123724494Y-66406537D01*
X123821185Y-66327185D01*
X123900537Y-66230494D01*
X123959502Y-66120180D01*
X123995812Y-66000482D01*
X124008072Y-65876000D01*
X124005000Y-65436750D01*
X123846250Y-65278000D01*
X122997000Y-65278000D01*
X122997000Y-65298000D01*
X122743000Y-65298000D01*
X122743000Y-65278000D01*
X122723000Y-65278000D01*
X122723000Y-65024000D01*
X122743000Y-65024000D01*
X122743000Y-63949750D01*
X122997000Y-63949750D01*
X122997000Y-65024000D01*
X123846250Y-65024000D01*
X124005000Y-64865250D01*
X124008072Y-64426000D01*
X123995812Y-64301518D01*
X123959502Y-64181820D01*
X123900537Y-64071506D01*
X123821185Y-63974815D01*
X123724494Y-63895463D01*
X123614180Y-63836498D01*
X123494482Y-63800188D01*
X123370000Y-63787928D01*
X123155750Y-63791000D01*
X122997000Y-63949750D01*
X122743000Y-63949750D01*
X122584250Y-63791000D01*
X122370000Y-63787928D01*
X122245518Y-63800188D01*
X122125820Y-63836498D01*
X122015506Y-63895463D01*
X121918815Y-63974815D01*
X121853342Y-64054594D01*
X121847962Y-64048038D01*
X121713386Y-63937595D01*
X121559850Y-63855528D01*
X121393254Y-63804992D01*
X121220000Y-63787928D01*
X120862279Y-63787928D01*
X120860000Y-62701750D01*
X120701250Y-62543000D01*
X119327000Y-62543000D01*
X119327000Y-62563000D01*
X119073000Y-62563000D01*
X119073000Y-62543000D01*
X117698750Y-62543000D01*
X117540000Y-62701750D01*
X117536928Y-64166000D01*
X117549188Y-64290482D01*
X117562181Y-64333313D01*
X117553923Y-64335818D01*
X117408864Y-64413354D01*
X117281719Y-64517699D01*
X117255568Y-64549564D01*
X116913574Y-64891559D01*
X116881710Y-64917709D01*
X116840001Y-64968532D01*
X116798291Y-64917709D01*
X116766427Y-64891559D01*
X116424435Y-64549568D01*
X116398281Y-64517699D01*
X116385906Y-64507543D01*
X116399319Y-64503346D01*
X116509114Y-64443421D01*
X116605109Y-64363227D01*
X116683613Y-64265846D01*
X116741612Y-64155021D01*
X116776875Y-64035011D01*
X116788048Y-63910427D01*
X116785000Y-62701750D01*
X116626250Y-62543000D01*
X116023000Y-62543000D01*
X116023000Y-62563000D01*
X115988072Y-62563000D01*
X115988072Y-62269000D01*
X116023000Y-62269000D01*
X116023000Y-62289000D01*
X116626250Y-62289000D01*
X116785000Y-62130250D01*
X116787431Y-61166063D01*
X116831067Y-61157383D01*
X117037624Y-61071824D01*
X117223520Y-60947612D01*
X117381612Y-60789520D01*
X117505824Y-60603624D01*
X117585753Y-60410658D01*
X117588609Y-60416000D01*
X117585498Y-60421820D01*
X117549188Y-60541518D01*
X117536928Y-60666000D01*
X117540000Y-62130250D01*
X117698750Y-62289000D01*
X119073000Y-62289000D01*
X119073000Y-58293000D01*
X119327000Y-58293000D01*
X119327000Y-62289000D01*
X120701250Y-62289000D01*
X120860000Y-62130250D01*
X120863072Y-60666000D01*
X120850812Y-60541518D01*
X120814502Y-60421820D01*
X120811391Y-60416000D01*
X120814502Y-60410180D01*
X120850812Y-60290482D01*
X120863072Y-60166000D01*
X120860000Y-58451750D01*
X120701250Y-58293000D01*
X119327000Y-58293000D01*
X119073000Y-58293000D01*
X117698750Y-58293000D01*
X117540000Y-58451750D01*
X117537932Y-59605891D01*
X117505824Y-59528376D01*
X117381612Y-59342480D01*
X117223520Y-59184388D01*
X117037624Y-59060176D01*
X116831067Y-58974617D01*
X116611788Y-58931000D01*
X116388212Y-58931000D01*
X116168933Y-58974617D01*
X115962376Y-59060176D01*
X115776480Y-59184388D01*
X115618388Y-59342480D01*
X115494176Y-59528376D01*
X115408617Y-59734933D01*
X115365000Y-59954212D01*
X115365000Y-60177788D01*
X115385617Y-60281436D01*
X115350000Y-60277928D01*
X115135000Y-60277928D01*
X115135000Y-60049285D01*
X115217205Y-59926256D01*
X115295226Y-59737898D01*
X115335000Y-59537939D01*
X115335000Y-59334061D01*
X115295226Y-59134102D01*
X115217205Y-58945744D01*
X115103937Y-58776226D01*
X114959774Y-58632063D01*
X114790256Y-58518795D01*
X114601898Y-58440774D01*
X114401939Y-58401000D01*
X114198061Y-58401000D01*
X113998102Y-58440774D01*
X113809744Y-58518795D01*
X113799998Y-58525307D01*
X113790253Y-58518795D01*
X113601895Y-58440774D01*
X113401936Y-58401000D01*
X113198058Y-58401000D01*
X112998099Y-58440774D01*
X112809741Y-58518795D01*
X112640223Y-58632063D01*
X112496060Y-58776226D01*
X112382792Y-58945744D01*
X112375417Y-58963548D01*
X112211788Y-58931000D01*
X111988212Y-58931000D01*
X111768933Y-58974617D01*
X111562376Y-59060176D01*
X111376480Y-59184388D01*
X111218388Y-59342480D01*
X111094176Y-59528376D01*
X111062068Y-59605891D01*
X111060000Y-58451750D01*
X110901250Y-58293000D01*
X109527000Y-58293000D01*
X109527000Y-62289000D01*
X110901250Y-62289000D01*
X111060000Y-62130250D01*
X111063072Y-60666000D01*
X111050812Y-60541518D01*
X111014502Y-60421820D01*
X111011391Y-60416000D01*
X111014247Y-60410658D01*
X111094176Y-60603624D01*
X111218388Y-60789520D01*
X111376480Y-60947612D01*
X111562376Y-61071824D01*
X111768933Y-61157383D01*
X111811928Y-61165935D01*
X111811928Y-63916000D01*
X111824188Y-64040482D01*
X111860498Y-64160180D01*
X111919463Y-64270494D01*
X111998815Y-64367185D01*
X112095506Y-64446537D01*
X112205820Y-64505502D01*
X112325518Y-64541812D01*
X112450000Y-64554072D01*
X112803944Y-64554072D01*
X112906710Y-64679293D01*
X112938574Y-64705443D01*
X113182547Y-64949417D01*
X113077171Y-65005742D01*
X113030000Y-65044454D01*
X112982829Y-65005742D01*
X112846582Y-64932916D01*
X112698745Y-64888071D01*
X112545000Y-64872928D01*
X112245000Y-64872928D01*
X112091255Y-64888071D01*
X111943418Y-64932916D01*
X111807171Y-65005742D01*
X111760000Y-65044454D01*
X111712829Y-65005742D01*
X111576582Y-64932916D01*
X111428745Y-64888071D01*
X111275000Y-64872928D01*
X110975000Y-64872928D01*
X110821255Y-64888071D01*
X110673418Y-64932916D01*
X110539064Y-65004730D01*
X110509494Y-64980463D01*
X110399180Y-64921498D01*
X110279482Y-64885188D01*
X110155000Y-64872928D01*
X110140750Y-64876000D01*
X109982000Y-65034750D01*
X109982000Y-66359000D01*
X110002000Y-66359000D01*
X110002000Y-66613000D01*
X109982000Y-66613000D01*
X109982000Y-66633000D01*
X109728000Y-66633000D01*
X109728000Y-66613000D01*
X109078750Y-66613000D01*
X108920000Y-66771750D01*
X108916928Y-67461000D01*
X108929188Y-67585482D01*
X108965498Y-67705180D01*
X109024463Y-67815494D01*
X109103815Y-67912185D01*
X109200506Y-67991537D01*
X109293291Y-68041132D01*
X108108072Y-69226352D01*
X108108072Y-68510998D01*
X108091008Y-68337744D01*
X108040472Y-68171148D01*
X107958405Y-68017613D01*
X107847962Y-67883038D01*
X107792500Y-67837521D01*
X107792500Y-67544479D01*
X107847962Y-67498962D01*
X107958405Y-67364387D01*
X108040472Y-67210852D01*
X108091008Y-67044256D01*
X108108072Y-66871002D01*
X108108072Y-65970998D01*
X108091008Y-65797744D01*
X108040472Y-65631148D01*
X107976251Y-65511000D01*
X108916928Y-65511000D01*
X108920000Y-66200250D01*
X109078750Y-66359000D01*
X109728000Y-66359000D01*
X109728000Y-65034750D01*
X109569250Y-64876000D01*
X109555000Y-64872928D01*
X109430518Y-64885188D01*
X109310820Y-64921498D01*
X109200506Y-64980463D01*
X109103815Y-65059815D01*
X109024463Y-65156506D01*
X108965498Y-65266820D01*
X108929188Y-65386518D01*
X108916928Y-65511000D01*
X107976251Y-65511000D01*
X107958405Y-65477613D01*
X107847962Y-65343038D01*
X107713387Y-65232595D01*
X107559852Y-65150528D01*
X107393256Y-65099992D01*
X107220002Y-65082928D01*
X106694998Y-65082928D01*
X106521744Y-65099992D01*
X106355148Y-65150528D01*
X106201613Y-65232595D01*
X106067038Y-65343038D01*
X106045000Y-65369891D01*
X106022962Y-65343038D01*
X105888387Y-65232595D01*
X105734852Y-65150528D01*
X105568256Y-65099992D01*
X105395002Y-65082928D01*
X104869998Y-65082928D01*
X104696744Y-65099992D01*
X104530148Y-65150528D01*
X104376613Y-65232595D01*
X104242038Y-65343038D01*
X104131595Y-65477613D01*
X104084507Y-65565708D01*
X104023475Y-65474368D01*
X103816632Y-65267525D01*
X103634466Y-65145805D01*
X103751355Y-65076178D01*
X103967588Y-64881269D01*
X104141641Y-64647920D01*
X104266825Y-64385099D01*
X104311476Y-64237890D01*
X104273538Y-64166000D01*
X107736928Y-64166000D01*
X107749188Y-64290482D01*
X107785498Y-64410180D01*
X107844463Y-64520494D01*
X107923815Y-64617185D01*
X108020506Y-64696537D01*
X108130820Y-64755502D01*
X108250518Y-64791812D01*
X108375000Y-64804072D01*
X109114250Y-64801000D01*
X109273000Y-64642250D01*
X109273000Y-62543000D01*
X109527000Y-62543000D01*
X109527000Y-64642250D01*
X109685750Y-64801000D01*
X110425000Y-64804072D01*
X110549482Y-64791812D01*
X110669180Y-64755502D01*
X110779494Y-64696537D01*
X110876185Y-64617185D01*
X110955537Y-64520494D01*
X111014502Y-64410180D01*
X111050812Y-64290482D01*
X111063072Y-64166000D01*
X111060000Y-62701750D01*
X110901250Y-62543000D01*
X109527000Y-62543000D01*
X109273000Y-62543000D01*
X107898750Y-62543000D01*
X107740000Y-62701750D01*
X107736928Y-64166000D01*
X104273538Y-64166000D01*
X104190155Y-64008000D01*
X102997000Y-64008000D01*
X102997000Y-64028000D01*
X102743000Y-64028000D01*
X102743000Y-64008000D01*
X101549845Y-64008000D01*
X101428524Y-64237890D01*
X101473175Y-64385099D01*
X101598359Y-64647920D01*
X101772412Y-64881269D01*
X101988645Y-65076178D01*
X102105534Y-65145805D01*
X101923368Y-65267525D01*
X101716525Y-65474368D01*
X101554010Y-65717589D01*
X101442068Y-65987842D01*
X101385000Y-66274740D01*
X101385000Y-66567260D01*
X101411193Y-66698939D01*
X99858536Y-68251597D01*
X99826666Y-68277752D01*
X99722322Y-68404897D01*
X99722321Y-68404898D01*
X99644785Y-68549957D01*
X99597039Y-68707355D01*
X99580917Y-68871043D01*
X99584957Y-68912061D01*
X99584958Y-85069090D01*
X99455072Y-84939204D01*
X99455072Y-83682000D01*
X99442812Y-83557518D01*
X99406502Y-83437820D01*
X99347537Y-83327506D01*
X99268185Y-83230815D01*
X99171494Y-83151463D01*
X99061180Y-83092498D01*
X98941482Y-83056188D01*
X98817000Y-83043928D01*
X97017000Y-83043928D01*
X96892518Y-83056188D01*
X96772820Y-83092498D01*
X96662506Y-83151463D01*
X96565815Y-83230815D01*
X96486463Y-83327506D01*
X96427498Y-83437820D01*
X96421944Y-83456127D01*
X96355505Y-83389688D01*
X96104095Y-83221701D01*
X95824743Y-83105989D01*
X95528184Y-83047000D01*
X95225816Y-83047000D01*
X95060763Y-83079831D01*
X95057791Y-83076209D01*
X94930646Y-82971864D01*
X94785587Y-82894328D01*
X94628189Y-82846582D01*
X94505519Y-82834500D01*
X94505518Y-82834500D01*
X94464500Y-82830460D01*
X94423482Y-82834500D01*
X93071479Y-82834500D01*
X93025962Y-82779038D01*
X92891387Y-82668595D01*
X92788313Y-82613500D01*
X92891387Y-82558405D01*
X93025962Y-82447962D01*
X93136405Y-82313387D01*
X93218472Y-82159852D01*
X93269008Y-81993256D01*
X93286072Y-81820002D01*
X93286072Y-81294998D01*
X93269008Y-81121744D01*
X93218472Y-80955148D01*
X93136405Y-80801613D01*
X93025962Y-80667038D01*
X92999109Y-80645000D01*
X93025962Y-80622962D01*
X93052193Y-80591000D01*
X94215801Y-80591000D01*
X94311688Y-80734505D01*
X94525495Y-80948312D01*
X94776905Y-81116299D01*
X95056257Y-81232011D01*
X95352816Y-81291000D01*
X95655184Y-81291000D01*
X95951743Y-81232011D01*
X96231095Y-81116299D01*
X96482505Y-80948312D01*
X96548944Y-80881873D01*
X96554498Y-80900180D01*
X96613463Y-81010494D01*
X96692815Y-81107185D01*
X96789506Y-81186537D01*
X96899820Y-81245502D01*
X97019518Y-81281812D01*
X97144000Y-81294072D01*
X98944000Y-81294072D01*
X99068482Y-81281812D01*
X99188180Y-81245502D01*
X99298494Y-81186537D01*
X99395185Y-81107185D01*
X99474537Y-81010494D01*
X99533502Y-80900180D01*
X99569812Y-80780482D01*
X99582072Y-80656000D01*
X99582072Y-78856000D01*
X99569812Y-78731518D01*
X99533502Y-78611820D01*
X99474537Y-78501506D01*
X99395185Y-78404815D01*
X99298494Y-78325463D01*
X99188180Y-78266498D01*
X99068482Y-78230188D01*
X98944000Y-78217928D01*
X97144000Y-78217928D01*
X97019518Y-78230188D01*
X96899820Y-78266498D01*
X96789506Y-78325463D01*
X96692815Y-78404815D01*
X96613463Y-78501506D01*
X96554498Y-78611820D01*
X96548944Y-78630127D01*
X96482505Y-78563688D01*
X96231095Y-78395701D01*
X95951743Y-78279989D01*
X95655184Y-78221000D01*
X95352816Y-78221000D01*
X95056257Y-78279989D01*
X94776905Y-78395701D01*
X94525495Y-78563688D01*
X94311688Y-78777495D01*
X94215801Y-78921000D01*
X93090765Y-78921000D01*
X93025962Y-78842038D01*
X92891387Y-78731595D01*
X92737852Y-78649528D01*
X92571256Y-78598992D01*
X92398002Y-78581928D01*
X91497998Y-78581928D01*
X91324744Y-78598992D01*
X91158148Y-78649528D01*
X91004613Y-78731595D01*
X90870038Y-78842038D01*
X90759595Y-78976613D01*
X90677528Y-79130148D01*
X90626992Y-79296744D01*
X90609928Y-79469998D01*
X90609928Y-79995002D01*
X90626992Y-80168256D01*
X90677528Y-80334852D01*
X90759595Y-80488387D01*
X90870038Y-80622962D01*
X90896891Y-80645000D01*
X90870038Y-80667038D01*
X90759595Y-80801613D01*
X90677528Y-80955148D01*
X90626992Y-81121744D01*
X90609928Y-81294998D01*
X90609928Y-81714705D01*
X90286569Y-82038064D01*
X90254699Y-82064219D01*
X90176216Y-82159852D01*
X90150354Y-82191365D01*
X90072818Y-82336424D01*
X90025072Y-82493822D01*
X90008950Y-82657510D01*
X90012990Y-82698529D01*
X90012991Y-84353462D01*
X90008950Y-84394490D01*
X90025072Y-84558178D01*
X90072818Y-84715576D01*
X90145749Y-84852019D01*
X90150355Y-84860636D01*
X90254700Y-84987781D01*
X90286564Y-85013931D01*
X90609928Y-85337295D01*
X90609928Y-85757002D01*
X90626992Y-85930256D01*
X90677528Y-86096852D01*
X90759595Y-86250387D01*
X90870038Y-86384962D01*
X91004613Y-86495405D01*
X91113001Y-86553340D01*
X91113001Y-87106172D01*
X91108960Y-87147200D01*
X91125082Y-87310888D01*
X91172828Y-87468286D01*
X91250364Y-87613345D01*
X91269016Y-87636072D01*
X91354710Y-87740491D01*
X91386574Y-87766641D01*
X94945296Y-91325363D01*
X94945188Y-91325718D01*
X94932928Y-91450200D01*
X94932928Y-92090200D01*
X94945188Y-92214682D01*
X94981498Y-92334380D01*
X95040463Y-92444694D01*
X95119815Y-92541385D01*
X95216506Y-92620737D01*
X95326820Y-92679702D01*
X95446518Y-92716012D01*
X95571000Y-92728272D01*
X95736000Y-92728272D01*
X95736001Y-96091131D01*
X92720679Y-99106454D01*
X92724072Y-99072000D01*
X92724072Y-96572000D01*
X92711812Y-96447518D01*
X92675502Y-96327820D01*
X92616537Y-96217506D01*
X92537185Y-96120815D01*
X92440494Y-96041463D01*
X92330180Y-95982498D01*
X92210482Y-95946188D01*
X92086000Y-95933928D01*
X90286000Y-95933928D01*
X90161518Y-95946188D01*
X90041820Y-95982498D01*
X89931506Y-96041463D01*
X89834815Y-96120815D01*
X89755463Y-96217506D01*
X89696498Y-96327820D01*
X89660188Y-96447518D01*
X89647928Y-96572000D01*
X89647928Y-96987000D01*
X89284868Y-96987000D01*
X88783585Y-96485717D01*
X88807561Y-96427834D01*
X88880000Y-96063656D01*
X88880000Y-95692344D01*
X88807561Y-95328166D01*
X88665466Y-94985118D01*
X88459175Y-94676382D01*
X88196618Y-94413825D01*
X87887882Y-94207534D01*
X87544834Y-94065439D01*
X87180656Y-93993000D01*
X86809344Y-93993000D01*
X86445166Y-94065439D01*
X86102118Y-94207534D01*
X85793382Y-94413825D01*
X85530825Y-94676382D01*
X85324534Y-94985118D01*
X85182439Y-95328166D01*
X85110000Y-95692344D01*
X85110000Y-96063656D01*
X85182439Y-96427834D01*
X85324534Y-96770882D01*
X85530825Y-97079618D01*
X85793382Y-97342175D01*
X86102118Y-97548466D01*
X86445166Y-97690561D01*
X86809344Y-97763000D01*
X87180656Y-97763000D01*
X87544834Y-97690561D01*
X87602717Y-97666585D01*
X88319559Y-98383427D01*
X88345709Y-98415291D01*
X88387185Y-98449329D01*
X88472854Y-98519636D01*
X88617913Y-98597172D01*
X88775311Y-98644918D01*
X88938999Y-98661040D01*
X88980018Y-98657000D01*
X89647928Y-98657000D01*
X89647928Y-99072000D01*
X89660188Y-99196482D01*
X89696498Y-99316180D01*
X89755463Y-99426494D01*
X89834815Y-99523185D01*
X89931506Y-99602537D01*
X90041820Y-99661502D01*
X90161518Y-99697812D01*
X90286000Y-99710072D01*
X92086000Y-99710072D01*
X92120454Y-99706679D01*
X91893205Y-99933928D01*
X90286000Y-99933928D01*
X90161518Y-99946188D01*
X90041820Y-99982498D01*
X89931506Y-100041463D01*
X89834815Y-100120815D01*
X89755463Y-100217506D01*
X89696498Y-100327820D01*
X89660188Y-100447518D01*
X89647928Y-100572000D01*
X89647928Y-100987000D01*
X88592007Y-100987000D01*
X88550999Y-100982961D01*
X88509991Y-100987000D01*
X88509981Y-100987000D01*
X88387311Y-100999082D01*
X88229913Y-101046828D01*
X88084854Y-101124364D01*
X87957709Y-101228709D01*
X87931561Y-101260571D01*
X87702204Y-101489928D01*
X85745000Y-101489928D01*
X85620518Y-101502188D01*
X85500820Y-101538498D01*
X85390506Y-101597463D01*
X85293815Y-101676815D01*
X85214463Y-101773506D01*
X85155498Y-101883820D01*
X85119188Y-102003518D01*
X85106928Y-102128000D01*
X85106928Y-104628000D01*
X85119188Y-104752482D01*
X85155498Y-104872180D01*
X85214463Y-104982494D01*
X85293815Y-105079185D01*
X85390506Y-105158537D01*
X85500820Y-105217502D01*
X85620518Y-105253812D01*
X85745000Y-105266072D01*
X88245000Y-105266072D01*
X88369482Y-105253812D01*
X88489180Y-105217502D01*
X88599494Y-105158537D01*
X88696185Y-105079185D01*
X88775537Y-104982494D01*
X88834502Y-104872180D01*
X88870812Y-104752482D01*
X88883072Y-104628000D01*
X88883072Y-102670796D01*
X88896868Y-102657000D01*
X89647928Y-102657000D01*
X89647928Y-103072000D01*
X89660188Y-103196482D01*
X89696498Y-103316180D01*
X89755463Y-103426494D01*
X89834815Y-103523185D01*
X89931506Y-103602537D01*
X90041820Y-103661502D01*
X90161518Y-103697812D01*
X90286000Y-103710072D01*
X92086000Y-103710072D01*
X92210482Y-103697812D01*
X92330180Y-103661502D01*
X92440494Y-103602537D01*
X92537185Y-103523185D01*
X92616537Y-103426494D01*
X92675502Y-103316180D01*
X92711812Y-103196482D01*
X92724072Y-103072000D01*
X92724072Y-101464795D01*
X97132427Y-97056441D01*
X97164291Y-97030291D01*
X97268636Y-96903146D01*
X97346172Y-96758087D01*
X97393918Y-96600689D01*
X97406000Y-96478019D01*
X97410040Y-96437001D01*
X97406000Y-96395982D01*
X97406000Y-92728272D01*
X97571000Y-92728272D01*
X97695482Y-92716012D01*
X97815180Y-92679702D01*
X97925494Y-92620737D01*
X97944426Y-92605200D01*
X98353472Y-92605200D01*
X98335197Y-92620197D01*
X98319403Y-92639443D01*
X98307667Y-92661399D01*
X98300440Y-92685224D01*
X98298000Y-92710000D01*
X98298000Y-108758239D01*
X97959555Y-108115330D01*
X97932548Y-108074912D01*
X97442881Y-107714724D01*
X94921605Y-110236000D01*
X97442881Y-112757276D01*
X97932548Y-112397088D01*
X98292849Y-111733118D01*
X98298000Y-111716515D01*
X98298000Y-120371000D01*
X86773279Y-120371000D01*
X86277784Y-120322416D01*
X85832210Y-120187890D01*
X85421255Y-119969382D01*
X85060564Y-119675209D01*
X84763881Y-119316581D01*
X84542509Y-118907162D01*
X84404874Y-118462535D01*
X84353000Y-117968990D01*
X84353000Y-112936881D01*
X92220724Y-112936881D01*
X92580912Y-113426548D01*
X93244882Y-113786849D01*
X93966385Y-114010694D01*
X94717695Y-114089480D01*
X95469938Y-114020178D01*
X96194208Y-113805452D01*
X96862670Y-113453555D01*
X96903088Y-113426548D01*
X97263276Y-112936881D01*
X94742000Y-110415605D01*
X92220724Y-112936881D01*
X84353000Y-112936881D01*
X84353000Y-110211695D01*
X90888520Y-110211695D01*
X90957822Y-110963938D01*
X91172548Y-111688208D01*
X91524445Y-112356670D01*
X91551452Y-112397088D01*
X92041119Y-112757276D01*
X94562395Y-110236000D01*
X92041119Y-107714724D01*
X91551452Y-108074912D01*
X91191151Y-108738882D01*
X90967306Y-109460385D01*
X90888520Y-110211695D01*
X84353000Y-110211695D01*
X84353000Y-109129966D01*
X84415000Y-109136072D01*
X84804250Y-109133000D01*
X84963000Y-108974250D01*
X84963000Y-107950000D01*
X85217000Y-107950000D01*
X85217000Y-108974250D01*
X85375750Y-109133000D01*
X85765000Y-109136072D01*
X85889482Y-109123812D01*
X86009180Y-109087502D01*
X86119494Y-109028537D01*
X86216185Y-108949185D01*
X86295537Y-108852494D01*
X86354502Y-108742180D01*
X86390812Y-108622482D01*
X86403072Y-108498000D01*
X86400000Y-108108750D01*
X86241250Y-107950000D01*
X85217000Y-107950000D01*
X84963000Y-107950000D01*
X84943000Y-107950000D01*
X84943000Y-107696000D01*
X84963000Y-107696000D01*
X84963000Y-106671750D01*
X85217000Y-106671750D01*
X85217000Y-107696000D01*
X86241250Y-107696000D01*
X86400000Y-107537250D01*
X86400016Y-107535119D01*
X92220724Y-107535119D01*
X94742000Y-110056395D01*
X97263276Y-107535119D01*
X96903088Y-107045452D01*
X96239118Y-106685151D01*
X95517615Y-106461306D01*
X94766305Y-106382520D01*
X94014062Y-106451822D01*
X93289792Y-106666548D01*
X92621330Y-107018445D01*
X92580912Y-107045452D01*
X92220724Y-107535119D01*
X86400016Y-107535119D01*
X86403072Y-107148000D01*
X86390812Y-107023518D01*
X86354502Y-106903820D01*
X86295537Y-106793506D01*
X86216185Y-106696815D01*
X86119494Y-106617463D01*
X86009180Y-106558498D01*
X85889482Y-106522188D01*
X85765000Y-106509928D01*
X85375750Y-106513000D01*
X85217000Y-106671750D01*
X84963000Y-106671750D01*
X84804250Y-106513000D01*
X84415000Y-106509928D01*
X84353000Y-106516034D01*
X84353000Y-92868211D01*
X84534102Y-92943226D01*
X84734061Y-92983000D01*
X84937939Y-92983000D01*
X85137898Y-92943226D01*
X85326256Y-92865205D01*
X85495774Y-92751937D01*
X85639937Y-92607774D01*
X85641657Y-92605200D01*
X85697574Y-92605200D01*
X85716506Y-92620737D01*
X85826820Y-92679702D01*
X85946518Y-92716012D01*
X86071000Y-92728272D01*
X88071000Y-92728272D01*
X88195482Y-92716012D01*
X88315180Y-92679702D01*
X88425494Y-92620737D01*
X88522185Y-92541385D01*
X88601537Y-92444694D01*
X88660502Y-92334380D01*
X88696812Y-92214682D01*
X88709072Y-92090200D01*
X88709072Y-91450200D01*
X88696812Y-91325718D01*
X88660502Y-91206020D01*
X88601537Y-91095706D01*
X88522185Y-90999015D01*
X88425494Y-90919663D01*
X88315180Y-90860698D01*
X88195482Y-90824388D01*
X88071000Y-90812128D01*
X86071000Y-90812128D01*
X85946518Y-90824388D01*
X85826820Y-90860698D01*
X85716506Y-90919663D01*
X85697574Y-90935200D01*
X85054818Y-90935200D01*
X85044377Y-90934172D01*
X84937939Y-90913000D01*
X84734061Y-90913000D01*
X84534102Y-90952774D01*
X84353000Y-91027789D01*
X84353000Y-89550200D01*
X85432928Y-89550200D01*
X85445188Y-89674682D01*
X85481498Y-89794380D01*
X85540463Y-89904694D01*
X85619815Y-90001385D01*
X85716506Y-90080737D01*
X85826820Y-90139702D01*
X85946518Y-90176012D01*
X86071000Y-90188272D01*
X86785250Y-90185200D01*
X86944000Y-90026450D01*
X86944000Y-89357200D01*
X87198000Y-89357200D01*
X87198000Y-90026450D01*
X87356750Y-90185200D01*
X88071000Y-90188272D01*
X88195482Y-90176012D01*
X88315180Y-90139702D01*
X88425494Y-90080737D01*
X88522185Y-90001385D01*
X88601537Y-89904694D01*
X88660502Y-89794380D01*
X88696812Y-89674682D01*
X88709072Y-89550200D01*
X88706000Y-89515950D01*
X88547250Y-89357200D01*
X87198000Y-89357200D01*
X86944000Y-89357200D01*
X85594750Y-89357200D01*
X85436000Y-89515950D01*
X85432928Y-89550200D01*
X84353000Y-89550200D01*
X84353000Y-88910200D01*
X85432928Y-88910200D01*
X85436000Y-88944450D01*
X85594750Y-89103200D01*
X86944000Y-89103200D01*
X86944000Y-88433950D01*
X87198000Y-88433950D01*
X87198000Y-89103200D01*
X88547250Y-89103200D01*
X88706000Y-88944450D01*
X88709072Y-88910200D01*
X88696812Y-88785718D01*
X88660502Y-88666020D01*
X88601537Y-88555706D01*
X88522185Y-88459015D01*
X88425494Y-88379663D01*
X88315180Y-88320698D01*
X88195482Y-88284388D01*
X88071000Y-88272128D01*
X87356750Y-88275200D01*
X87198000Y-88433950D01*
X86944000Y-88433950D01*
X86785250Y-88275200D01*
X86071000Y-88272128D01*
X85946518Y-88284388D01*
X85826820Y-88320698D01*
X85716506Y-88379663D01*
X85619815Y-88459015D01*
X85540463Y-88555706D01*
X85481498Y-88666020D01*
X85445188Y-88785718D01*
X85432928Y-88910200D01*
X84353000Y-88910200D01*
X84353000Y-80646036D01*
X84614422Y-80860579D01*
X84915832Y-81021686D01*
X85242881Y-81120895D01*
X85497775Y-81146000D01*
X86968225Y-81146000D01*
X87223119Y-81120895D01*
X87550168Y-81021686D01*
X87851578Y-80860579D01*
X88115766Y-80643766D01*
X88332579Y-80379578D01*
X88493686Y-80078168D01*
X88592895Y-79751119D01*
X88626394Y-79411000D01*
X88592895Y-79070881D01*
X88493686Y-78743832D01*
X88332579Y-78442422D01*
X88115766Y-78178234D01*
X87924006Y-78020861D01*
X88018764Y-77843581D01*
X88097960Y-77582507D01*
X88124701Y-77311000D01*
X88097960Y-77039493D01*
X88018764Y-76778419D01*
X87890157Y-76537812D01*
X87717081Y-76326919D01*
X87693591Y-76307642D01*
X87802145Y-76200540D01*
X87955142Y-75974868D01*
X88061173Y-75723684D01*
X88075318Y-75652185D01*
X87952656Y-75438000D01*
X86360000Y-75438000D01*
X86360000Y-75458000D01*
X86106000Y-75458000D01*
X86106000Y-75438000D01*
X86086000Y-75438000D01*
X86086000Y-75184000D01*
X86106000Y-75184000D01*
X86106000Y-75164000D01*
X86360000Y-75164000D01*
X86360000Y-75184000D01*
X87952656Y-75184000D01*
X88075318Y-74969815D01*
X88061173Y-74898316D01*
X87955142Y-74647132D01*
X87888867Y-74549376D01*
X87934185Y-74512185D01*
X88013537Y-74415494D01*
X88072502Y-74305180D01*
X88108812Y-74185482D01*
X88121072Y-74061000D01*
X88121072Y-72561000D01*
X88109992Y-72448504D01*
X88115766Y-72443766D01*
X88332579Y-72179578D01*
X88493686Y-71878168D01*
X88592895Y-71551119D01*
X88607002Y-71407881D01*
X92220724Y-71407881D01*
X92580912Y-71897548D01*
X93244882Y-72257849D01*
X93966385Y-72481694D01*
X94717695Y-72560480D01*
X95469938Y-72491178D01*
X96194208Y-72276452D01*
X96862670Y-71924555D01*
X96903088Y-71897548D01*
X97263276Y-71407881D01*
X94742000Y-68886605D01*
X92220724Y-71407881D01*
X88607002Y-71407881D01*
X88626394Y-71211000D01*
X88592895Y-70870881D01*
X88493686Y-70543832D01*
X88332579Y-70242422D01*
X88115766Y-69978234D01*
X87851578Y-69761421D01*
X87550168Y-69600314D01*
X87223119Y-69501105D01*
X86968225Y-69476000D01*
X85497775Y-69476000D01*
X85242881Y-69501105D01*
X84915832Y-69600314D01*
X84614422Y-69761421D01*
X84353000Y-69975964D01*
X84353000Y-68739279D01*
X84358548Y-68682695D01*
X90888520Y-68682695D01*
X90957822Y-69434938D01*
X91172548Y-70159208D01*
X91524445Y-70827670D01*
X91551452Y-70868088D01*
X92041119Y-71228276D01*
X94562395Y-68707000D01*
X94921605Y-68707000D01*
X97442881Y-71228276D01*
X97932548Y-70868088D01*
X98292849Y-70204118D01*
X98516694Y-69482615D01*
X98595480Y-68731305D01*
X98526178Y-67979062D01*
X98311452Y-67254792D01*
X97959555Y-66586330D01*
X97932548Y-66545912D01*
X97442881Y-66185724D01*
X94921605Y-68707000D01*
X94562395Y-68707000D01*
X92041119Y-66185724D01*
X91551452Y-66545912D01*
X91191151Y-67209882D01*
X90967306Y-67931385D01*
X90888520Y-68682695D01*
X84358548Y-68682695D01*
X84401584Y-68243784D01*
X84536112Y-67798207D01*
X84754620Y-67387254D01*
X85048788Y-67026566D01*
X85407419Y-66729881D01*
X85816838Y-66508509D01*
X86261465Y-66370874D01*
X86755011Y-66319000D01*
X87281419Y-66319000D01*
X87301497Y-66317022D01*
X88202459Y-66261917D01*
X88213603Y-66260420D01*
X88224852Y-66260165D01*
X88289796Y-66250690D01*
X89353831Y-66040971D01*
X89368290Y-66037015D01*
X89383074Y-66034515D01*
X89445971Y-66015764D01*
X89473283Y-66006119D01*
X92220724Y-66006119D01*
X94742000Y-68527395D01*
X97263276Y-66006119D01*
X96903088Y-65516452D01*
X96239118Y-65156151D01*
X95517615Y-64932306D01*
X94766305Y-64853520D01*
X94014062Y-64922822D01*
X93289792Y-65137548D01*
X92621330Y-65489445D01*
X92580912Y-65516452D01*
X92220724Y-66006119D01*
X89473283Y-66006119D01*
X90468585Y-65654641D01*
X90482319Y-65648641D01*
X90496589Y-65644032D01*
X90556121Y-65616398D01*
X91515893Y-65111437D01*
X91528615Y-65103519D01*
X91542074Y-65096896D01*
X91596992Y-65060958D01*
X92473818Y-64422737D01*
X92485270Y-64413060D01*
X92497625Y-64404568D01*
X92546780Y-64361079D01*
X93322291Y-63602967D01*
X93332223Y-63591741D01*
X93343226Y-63581552D01*
X93385588Y-63531422D01*
X93391168Y-63524110D01*
X101428524Y-63524110D01*
X101549845Y-63754000D01*
X102743000Y-63754000D01*
X102743000Y-62560186D01*
X102997000Y-62560186D01*
X102997000Y-63754000D01*
X104190155Y-63754000D01*
X104311476Y-63524110D01*
X104266825Y-63376901D01*
X104141641Y-63114080D01*
X103967588Y-62880731D01*
X103751355Y-62685822D01*
X103501252Y-62536843D01*
X103226891Y-62439519D01*
X102997000Y-62560186D01*
X102743000Y-62560186D01*
X102513109Y-62439519D01*
X102238748Y-62536843D01*
X101988645Y-62685822D01*
X101772412Y-62880731D01*
X101598359Y-63114080D01*
X101473175Y-63376901D01*
X101428524Y-63524110D01*
X93391168Y-63524110D01*
X94043538Y-62669301D01*
X94051745Y-62656759D01*
X94061162Y-62645089D01*
X94095845Y-62589369D01*
X94622451Y-61641299D01*
X94628763Y-61627701D01*
X94636395Y-61614796D01*
X94662670Y-61554653D01*
X95046900Y-60540495D01*
X95051183Y-60526128D01*
X95056872Y-60512257D01*
X95074191Y-60448951D01*
X95136660Y-60166000D01*
X107736928Y-60166000D01*
X107749188Y-60290482D01*
X107785498Y-60410180D01*
X107788609Y-60416000D01*
X107785498Y-60421820D01*
X107749188Y-60541518D01*
X107736928Y-60666000D01*
X107740000Y-62130250D01*
X107898750Y-62289000D01*
X109273000Y-62289000D01*
X109273000Y-58293000D01*
X107898750Y-58293000D01*
X107740000Y-58451750D01*
X107736928Y-60166000D01*
X95136660Y-60166000D01*
X95307997Y-59389949D01*
X95310161Y-59375113D01*
X95313788Y-59360567D01*
X95321786Y-59295424D01*
X95399658Y-58222202D01*
X95402000Y-58198419D01*
X95402000Y-56166000D01*
X107736928Y-56166000D01*
X107740000Y-57880250D01*
X107898750Y-58039000D01*
X109273000Y-58039000D01*
X109273000Y-55689750D01*
X109527000Y-55689750D01*
X109527000Y-58039000D01*
X110901250Y-58039000D01*
X111060000Y-57880250D01*
X111063072Y-56166000D01*
X117536928Y-56166000D01*
X117540000Y-57880250D01*
X117698750Y-58039000D01*
X119073000Y-58039000D01*
X119073000Y-55689750D01*
X119327000Y-55689750D01*
X119327000Y-58039000D01*
X120701250Y-58039000D01*
X120860000Y-57880250D01*
X120863072Y-56166000D01*
X120850812Y-56041518D01*
X120814502Y-55921820D01*
X120755537Y-55811506D01*
X120676185Y-55714815D01*
X120579494Y-55635463D01*
X120469180Y-55576498D01*
X120349482Y-55540188D01*
X120225000Y-55527928D01*
X119485750Y-55531000D01*
X119327000Y-55689750D01*
X119073000Y-55689750D01*
X118914250Y-55531000D01*
X118175000Y-55527928D01*
X118050518Y-55540188D01*
X117930820Y-55576498D01*
X117820506Y-55635463D01*
X117723815Y-55714815D01*
X117644463Y-55811506D01*
X117585498Y-55921820D01*
X117549188Y-56041518D01*
X117536928Y-56166000D01*
X111063072Y-56166000D01*
X111050812Y-56041518D01*
X111014502Y-55921820D01*
X110955537Y-55811506D01*
X110876185Y-55714815D01*
X110779494Y-55635463D01*
X110669180Y-55576498D01*
X110549482Y-55540188D01*
X110425000Y-55527928D01*
X109685750Y-55531000D01*
X109527000Y-55689750D01*
X109273000Y-55689750D01*
X109114250Y-55531000D01*
X108375000Y-55527928D01*
X108250518Y-55540188D01*
X108130820Y-55576498D01*
X108020506Y-55635463D01*
X107923815Y-55714815D01*
X107844463Y-55811506D01*
X107785498Y-55921820D01*
X107749188Y-56041518D01*
X107736928Y-56166000D01*
X95402000Y-56166000D01*
X95402000Y-55404279D01*
X95423978Y-55180128D01*
X95479701Y-54995565D01*
X95570212Y-54825340D01*
X95692060Y-54675939D01*
X95840611Y-54553047D01*
X96010202Y-54461350D01*
X96194372Y-54404340D01*
X96416439Y-54381000D01*
X108952537Y-54381000D01*
X108968493Y-54420492D01*
G37*
%TD.AperFunction*%
D43*
X115824000Y-91567000D02*
X115844000Y-91567000D01*
X115844000Y-91821000D01*
X115824000Y-91821000D01*
X115824000Y-91841000D01*
X115570000Y-91841000D01*
X115570000Y-91821000D01*
X115550000Y-91821000D01*
X115550000Y-91567000D01*
X115570000Y-91567000D01*
X115570000Y-91547000D01*
X115824000Y-91547000D01*
X115824000Y-91567000D01*
%TA.AperFunction,Conductor*%
D44*
G36*
X115824000Y-91567000D02*
G01*
X115844000Y-91567000D01*
X115844000Y-91821000D01*
X115824000Y-91821000D01*
X115824000Y-91841000D01*
X115570000Y-91841000D01*
X115570000Y-91821000D01*
X115550000Y-91821000D01*
X115550000Y-91567000D01*
X115570000Y-91567000D01*
X115570000Y-91547000D01*
X115824000Y-91547000D01*
X115824000Y-91567000D01*
G37*
%TD.AperFunction*%
D43*
X117917000Y-87249000D02*
X117937000Y-87249000D01*
X117937000Y-87503000D01*
X117917000Y-87503000D01*
X117917000Y-88577250D01*
X118075750Y-88736000D01*
X118290000Y-88739072D01*
X118414482Y-88726812D01*
X118534180Y-88690502D01*
X118644494Y-88631537D01*
X118741185Y-88552185D01*
X118811658Y-88466313D01*
X118822038Y-88478962D01*
X118865001Y-88514220D01*
X118865000Y-89874981D01*
X118860960Y-89916000D01*
X118865000Y-89957018D01*
X118877082Y-90079688D01*
X118924828Y-90237086D01*
X119002364Y-90382145D01*
X119106709Y-90509291D01*
X119138579Y-90535446D01*
X120205568Y-91602436D01*
X120231719Y-91634301D01*
X120358864Y-91738646D01*
X120484930Y-91806030D01*
X119712416Y-91806030D01*
X116925000Y-89018615D01*
X116925000Y-88622915D01*
X116935506Y-88631537D01*
X117045820Y-88690502D01*
X117165518Y-88726812D01*
X117290000Y-88739072D01*
X117504250Y-88736000D01*
X117663000Y-88577250D01*
X117663000Y-87503000D01*
X117643000Y-87503000D01*
X117643000Y-87249000D01*
X117663000Y-87249000D01*
X117663000Y-87229000D01*
X117917000Y-87229000D01*
X117917000Y-87249000D01*
%TA.AperFunction,Conductor*%
D44*
G36*
X117917000Y-87249000D02*
G01*
X117937000Y-87249000D01*
X117937000Y-87503000D01*
X117917000Y-87503000D01*
X117917000Y-88577250D01*
X118075750Y-88736000D01*
X118290000Y-88739072D01*
X118414482Y-88726812D01*
X118534180Y-88690502D01*
X118644494Y-88631537D01*
X118741185Y-88552185D01*
X118811658Y-88466313D01*
X118822038Y-88478962D01*
X118865001Y-88514220D01*
X118865000Y-89874981D01*
X118860960Y-89916000D01*
X118865000Y-89957018D01*
X118877082Y-90079688D01*
X118924828Y-90237086D01*
X119002364Y-90382145D01*
X119106709Y-90509291D01*
X119138579Y-90535446D01*
X120205568Y-91602436D01*
X120231719Y-91634301D01*
X120358864Y-91738646D01*
X120484930Y-91806030D01*
X119712416Y-91806030D01*
X116925000Y-89018615D01*
X116925000Y-88622915D01*
X116935506Y-88631537D01*
X117045820Y-88690502D01*
X117165518Y-88726812D01*
X117290000Y-88739072D01*
X117504250Y-88736000D01*
X117663000Y-88577250D01*
X117663000Y-87503000D01*
X117643000Y-87503000D01*
X117643000Y-87249000D01*
X117663000Y-87249000D01*
X117663000Y-87229000D01*
X117917000Y-87229000D01*
X117917000Y-87249000D01*
G37*
%TD.AperFunction*%
D43*
X116289878Y-80952432D02*
X116316024Y-80984291D01*
X116347883Y-81010437D01*
X116347885Y-81010439D01*
X116361590Y-81021686D01*
X116443169Y-81088636D01*
X116588228Y-81166172D01*
X116745626Y-81213918D01*
X116860577Y-81225240D01*
X116984744Y-81308205D01*
X117173102Y-81386226D01*
X117373061Y-81426000D01*
X117576939Y-81426000D01*
X117776898Y-81386226D01*
X117910001Y-81331093D01*
X117910000Y-83181299D01*
X117870518Y-83185188D01*
X117750820Y-83221498D01*
X117640506Y-83280463D01*
X117595000Y-83317809D01*
X117549494Y-83280463D01*
X117439180Y-83221498D01*
X117319482Y-83185188D01*
X117195000Y-83172928D01*
X115695000Y-83172928D01*
X115570518Y-83185188D01*
X115450820Y-83221498D01*
X115340506Y-83280463D01*
X115243815Y-83359815D01*
X115164463Y-83456506D01*
X115105498Y-83566820D01*
X115069188Y-83686518D01*
X115056928Y-83811000D01*
X115056928Y-85305406D01*
X115050960Y-85366000D01*
X115055001Y-85407028D01*
X115055001Y-86237780D01*
X115012038Y-86273038D01*
X114901595Y-86407614D01*
X114819528Y-86561150D01*
X114768992Y-86727746D01*
X114751928Y-86901000D01*
X114751928Y-87851000D01*
X114768992Y-88024254D01*
X114819528Y-88190850D01*
X114855001Y-88257214D01*
X114855000Y-89301457D01*
X113221258Y-90935200D01*
X102911069Y-90935200D01*
X101254957Y-89279090D01*
X101254957Y-85525366D01*
X105131928Y-89402339D01*
X105131928Y-89431000D01*
X105147071Y-89584745D01*
X105191916Y-89732582D01*
X105264742Y-89868829D01*
X105362749Y-89988251D01*
X105482171Y-90086258D01*
X105618418Y-90159084D01*
X105766255Y-90203929D01*
X105920000Y-90219072D01*
X107570000Y-90219072D01*
X107723745Y-90203929D01*
X107871582Y-90159084D01*
X108007829Y-90086258D01*
X108127251Y-89988251D01*
X108225258Y-89868829D01*
X108298084Y-89732582D01*
X108342929Y-89584745D01*
X108343297Y-89581000D01*
X110081928Y-89581000D01*
X110094188Y-89705482D01*
X110130498Y-89825180D01*
X110189463Y-89935494D01*
X110268815Y-90032185D01*
X110365506Y-90111537D01*
X110475820Y-90170502D01*
X110595518Y-90206812D01*
X110720000Y-90219072D01*
X111409250Y-90216000D01*
X111568000Y-90057250D01*
X111568000Y-89408000D01*
X111822000Y-89408000D01*
X111822000Y-90057250D01*
X111980750Y-90216000D01*
X112670000Y-90219072D01*
X112794482Y-90206812D01*
X112914180Y-90170502D01*
X113024494Y-90111537D01*
X113121185Y-90032185D01*
X113200537Y-89935494D01*
X113259502Y-89825180D01*
X113295812Y-89705482D01*
X113308072Y-89581000D01*
X113305000Y-89566750D01*
X113146250Y-89408000D01*
X111822000Y-89408000D01*
X111568000Y-89408000D01*
X110243750Y-89408000D01*
X110085000Y-89566750D01*
X110081928Y-89581000D01*
X108343297Y-89581000D01*
X108358072Y-89431000D01*
X108358072Y-89131000D01*
X108342929Y-88977255D01*
X108298084Y-88829418D01*
X108225258Y-88693171D01*
X108186546Y-88646000D01*
X108225258Y-88598829D01*
X108298084Y-88462582D01*
X108342929Y-88314745D01*
X108343297Y-88311000D01*
X110081928Y-88311000D01*
X110094188Y-88435482D01*
X110130498Y-88555180D01*
X110179043Y-88646000D01*
X110130498Y-88736820D01*
X110094188Y-88856518D01*
X110081928Y-88981000D01*
X110085000Y-88995250D01*
X110243750Y-89154000D01*
X111568000Y-89154000D01*
X111568000Y-88138000D01*
X111822000Y-88138000D01*
X111822000Y-89154000D01*
X113146250Y-89154000D01*
X113305000Y-88995250D01*
X113308072Y-88981000D01*
X113295812Y-88856518D01*
X113259502Y-88736820D01*
X113210957Y-88646000D01*
X113259502Y-88555180D01*
X113295812Y-88435482D01*
X113308072Y-88311000D01*
X113305000Y-88296750D01*
X113146250Y-88138000D01*
X111822000Y-88138000D01*
X111568000Y-88138000D01*
X110243750Y-88138000D01*
X110085000Y-88296750D01*
X110081928Y-88311000D01*
X108343297Y-88311000D01*
X108358072Y-88161000D01*
X108358072Y-87861000D01*
X108342929Y-87707255D01*
X108298084Y-87559418D01*
X108226270Y-87425064D01*
X108250537Y-87395494D01*
X108309502Y-87285180D01*
X108345812Y-87165482D01*
X108358072Y-87041000D01*
X110081928Y-87041000D01*
X110094188Y-87165482D01*
X110130498Y-87285180D01*
X110179043Y-87376000D01*
X110130498Y-87466820D01*
X110094188Y-87586518D01*
X110081928Y-87711000D01*
X110085000Y-87725250D01*
X110243750Y-87884000D01*
X111568000Y-87884000D01*
X111568000Y-86868000D01*
X111822000Y-86868000D01*
X111822000Y-87884000D01*
X113146250Y-87884000D01*
X113305000Y-87725250D01*
X113308072Y-87711000D01*
X113295812Y-87586518D01*
X113259502Y-87466820D01*
X113210957Y-87376000D01*
X113259502Y-87285180D01*
X113295812Y-87165482D01*
X113308072Y-87041000D01*
X113305000Y-87026750D01*
X113146250Y-86868000D01*
X111822000Y-86868000D01*
X111568000Y-86868000D01*
X110243750Y-86868000D01*
X110085000Y-87026750D01*
X110081928Y-87041000D01*
X108358072Y-87041000D01*
X108355000Y-87026750D01*
X108196250Y-86868000D01*
X106872000Y-86868000D01*
X106872000Y-86888000D01*
X106618000Y-86888000D01*
X106618000Y-86868000D01*
X106598000Y-86868000D01*
X106598000Y-86614000D01*
X106618000Y-86614000D01*
X106618000Y-86594000D01*
X106872000Y-86594000D01*
X106872000Y-86614000D01*
X108196250Y-86614000D01*
X108355000Y-86455250D01*
X108358072Y-86441000D01*
X108345812Y-86316518D01*
X108309502Y-86196820D01*
X108250537Y-86086506D01*
X108226270Y-86056936D01*
X108298084Y-85922582D01*
X108342929Y-85774745D01*
X108343297Y-85771000D01*
X110081928Y-85771000D01*
X110094188Y-85895482D01*
X110130498Y-86015180D01*
X110179043Y-86106000D01*
X110130498Y-86196820D01*
X110094188Y-86316518D01*
X110081928Y-86441000D01*
X110085000Y-86455250D01*
X110243750Y-86614000D01*
X111568000Y-86614000D01*
X111568000Y-85598000D01*
X111822000Y-85598000D01*
X111822000Y-86614000D01*
X113146250Y-86614000D01*
X113305000Y-86455250D01*
X113308072Y-86441000D01*
X113295812Y-86316518D01*
X113259502Y-86196820D01*
X113210957Y-86106000D01*
X113259502Y-86015180D01*
X113295812Y-85895482D01*
X113308072Y-85771000D01*
X113305000Y-85756750D01*
X113146250Y-85598000D01*
X111822000Y-85598000D01*
X111568000Y-85598000D01*
X110243750Y-85598000D01*
X110085000Y-85756750D01*
X110081928Y-85771000D01*
X108343297Y-85771000D01*
X108358072Y-85621000D01*
X108358072Y-85321000D01*
X108343298Y-85171000D01*
X110081928Y-85171000D01*
X110085000Y-85185250D01*
X110243750Y-85344000D01*
X111568000Y-85344000D01*
X111568000Y-84694750D01*
X111822000Y-84694750D01*
X111822000Y-85344000D01*
X113146250Y-85344000D01*
X113305000Y-85185250D01*
X113308072Y-85171000D01*
X113295812Y-85046518D01*
X113259502Y-84926820D01*
X113200537Y-84816506D01*
X113121185Y-84719815D01*
X113024494Y-84640463D01*
X112914180Y-84581498D01*
X112794482Y-84545188D01*
X112670000Y-84532928D01*
X111980750Y-84536000D01*
X111822000Y-84694750D01*
X111568000Y-84694750D01*
X111409250Y-84536000D01*
X110720000Y-84532928D01*
X110595518Y-84545188D01*
X110475820Y-84581498D01*
X110365506Y-84640463D01*
X110268815Y-84719815D01*
X110189463Y-84816506D01*
X110130498Y-84926820D01*
X110094188Y-85046518D01*
X110081928Y-85171000D01*
X108343298Y-85171000D01*
X108342929Y-85167255D01*
X108316556Y-85080312D01*
X109005746Y-84391123D01*
X109037605Y-84364977D01*
X109112929Y-84273195D01*
X109141950Y-84237832D01*
X109219486Y-84092773D01*
X109267232Y-83935375D01*
X109277669Y-83829411D01*
X109279314Y-83812705D01*
X109283354Y-83771686D01*
X109279314Y-83730668D01*
X109279314Y-81000437D01*
X110204313Y-81925436D01*
X110230463Y-81957301D01*
X110311305Y-82023646D01*
X110357608Y-82061646D01*
X110502667Y-82139182D01*
X110660065Y-82186928D01*
X110823753Y-82203050D01*
X110864772Y-82199010D01*
X112039472Y-82199010D01*
X112080490Y-82203050D01*
X112121508Y-82199010D01*
X112121509Y-82199010D01*
X112244179Y-82186928D01*
X112401577Y-82139182D01*
X112546636Y-82061646D01*
X112673781Y-81957301D01*
X112699936Y-81925431D01*
X113023295Y-81602072D01*
X113443002Y-81602072D01*
X113616256Y-81585008D01*
X113782852Y-81534472D01*
X113936387Y-81452405D01*
X114070962Y-81341962D01*
X114181405Y-81207387D01*
X114263472Y-81053852D01*
X114314008Y-80887256D01*
X114331072Y-80714002D01*
X114331072Y-79813998D01*
X114314008Y-79640744D01*
X114295985Y-79581331D01*
X114382482Y-79572812D01*
X114502180Y-79536502D01*
X114612494Y-79477537D01*
X114709185Y-79398185D01*
X114721106Y-79383659D01*
X116289878Y-80952432D01*
%TA.AperFunction,Conductor*%
D44*
G36*
X116289878Y-80952432D02*
G01*
X116316024Y-80984291D01*
X116347883Y-81010437D01*
X116347885Y-81010439D01*
X116361590Y-81021686D01*
X116443169Y-81088636D01*
X116588228Y-81166172D01*
X116745626Y-81213918D01*
X116860577Y-81225240D01*
X116984744Y-81308205D01*
X117173102Y-81386226D01*
X117373061Y-81426000D01*
X117576939Y-81426000D01*
X117776898Y-81386226D01*
X117910001Y-81331093D01*
X117910000Y-83181299D01*
X117870518Y-83185188D01*
X117750820Y-83221498D01*
X117640506Y-83280463D01*
X117595000Y-83317809D01*
X117549494Y-83280463D01*
X117439180Y-83221498D01*
X117319482Y-83185188D01*
X117195000Y-83172928D01*
X115695000Y-83172928D01*
X115570518Y-83185188D01*
X115450820Y-83221498D01*
X115340506Y-83280463D01*
X115243815Y-83359815D01*
X115164463Y-83456506D01*
X115105498Y-83566820D01*
X115069188Y-83686518D01*
X115056928Y-83811000D01*
X115056928Y-85305406D01*
X115050960Y-85366000D01*
X115055001Y-85407028D01*
X115055001Y-86237780D01*
X115012038Y-86273038D01*
X114901595Y-86407614D01*
X114819528Y-86561150D01*
X114768992Y-86727746D01*
X114751928Y-86901000D01*
X114751928Y-87851000D01*
X114768992Y-88024254D01*
X114819528Y-88190850D01*
X114855001Y-88257214D01*
X114855000Y-89301457D01*
X113221258Y-90935200D01*
X102911069Y-90935200D01*
X101254957Y-89279090D01*
X101254957Y-85525366D01*
X105131928Y-89402339D01*
X105131928Y-89431000D01*
X105147071Y-89584745D01*
X105191916Y-89732582D01*
X105264742Y-89868829D01*
X105362749Y-89988251D01*
X105482171Y-90086258D01*
X105618418Y-90159084D01*
X105766255Y-90203929D01*
X105920000Y-90219072D01*
X107570000Y-90219072D01*
X107723745Y-90203929D01*
X107871582Y-90159084D01*
X108007829Y-90086258D01*
X108127251Y-89988251D01*
X108225258Y-89868829D01*
X108298084Y-89732582D01*
X108342929Y-89584745D01*
X108343297Y-89581000D01*
X110081928Y-89581000D01*
X110094188Y-89705482D01*
X110130498Y-89825180D01*
X110189463Y-89935494D01*
X110268815Y-90032185D01*
X110365506Y-90111537D01*
X110475820Y-90170502D01*
X110595518Y-90206812D01*
X110720000Y-90219072D01*
X111409250Y-90216000D01*
X111568000Y-90057250D01*
X111568000Y-89408000D01*
X111822000Y-89408000D01*
X111822000Y-90057250D01*
X111980750Y-90216000D01*
X112670000Y-90219072D01*
X112794482Y-90206812D01*
X112914180Y-90170502D01*
X113024494Y-90111537D01*
X113121185Y-90032185D01*
X113200537Y-89935494D01*
X113259502Y-89825180D01*
X113295812Y-89705482D01*
X113308072Y-89581000D01*
X113305000Y-89566750D01*
X113146250Y-89408000D01*
X111822000Y-89408000D01*
X111568000Y-89408000D01*
X110243750Y-89408000D01*
X110085000Y-89566750D01*
X110081928Y-89581000D01*
X108343297Y-89581000D01*
X108358072Y-89431000D01*
X108358072Y-89131000D01*
X108342929Y-88977255D01*
X108298084Y-88829418D01*
X108225258Y-88693171D01*
X108186546Y-88646000D01*
X108225258Y-88598829D01*
X108298084Y-88462582D01*
X108342929Y-88314745D01*
X108343297Y-88311000D01*
X110081928Y-88311000D01*
X110094188Y-88435482D01*
X110130498Y-88555180D01*
X110179043Y-88646000D01*
X110130498Y-88736820D01*
X110094188Y-88856518D01*
X110081928Y-88981000D01*
X110085000Y-88995250D01*
X110243750Y-89154000D01*
X111568000Y-89154000D01*
X111568000Y-88138000D01*
X111822000Y-88138000D01*
X111822000Y-89154000D01*
X113146250Y-89154000D01*
X113305000Y-88995250D01*
X113308072Y-88981000D01*
X113295812Y-88856518D01*
X113259502Y-88736820D01*
X113210957Y-88646000D01*
X113259502Y-88555180D01*
X113295812Y-88435482D01*
X113308072Y-88311000D01*
X113305000Y-88296750D01*
X113146250Y-88138000D01*
X111822000Y-88138000D01*
X111568000Y-88138000D01*
X110243750Y-88138000D01*
X110085000Y-88296750D01*
X110081928Y-88311000D01*
X108343297Y-88311000D01*
X108358072Y-88161000D01*
X108358072Y-87861000D01*
X108342929Y-87707255D01*
X108298084Y-87559418D01*
X108226270Y-87425064D01*
X108250537Y-87395494D01*
X108309502Y-87285180D01*
X108345812Y-87165482D01*
X108358072Y-87041000D01*
X110081928Y-87041000D01*
X110094188Y-87165482D01*
X110130498Y-87285180D01*
X110179043Y-87376000D01*
X110130498Y-87466820D01*
X110094188Y-87586518D01*
X110081928Y-87711000D01*
X110085000Y-87725250D01*
X110243750Y-87884000D01*
X111568000Y-87884000D01*
X111568000Y-86868000D01*
X111822000Y-86868000D01*
X111822000Y-87884000D01*
X113146250Y-87884000D01*
X113305000Y-87725250D01*
X113308072Y-87711000D01*
X113295812Y-87586518D01*
X113259502Y-87466820D01*
X113210957Y-87376000D01*
X113259502Y-87285180D01*
X113295812Y-87165482D01*
X113308072Y-87041000D01*
X113305000Y-87026750D01*
X113146250Y-86868000D01*
X111822000Y-86868000D01*
X111568000Y-86868000D01*
X110243750Y-86868000D01*
X110085000Y-87026750D01*
X110081928Y-87041000D01*
X108358072Y-87041000D01*
X108355000Y-87026750D01*
X108196250Y-86868000D01*
X106872000Y-86868000D01*
X106872000Y-86888000D01*
X106618000Y-86888000D01*
X106618000Y-86868000D01*
X106598000Y-86868000D01*
X106598000Y-86614000D01*
X106618000Y-86614000D01*
X106618000Y-86594000D01*
X106872000Y-86594000D01*
X106872000Y-86614000D01*
X108196250Y-86614000D01*
X108355000Y-86455250D01*
X108358072Y-86441000D01*
X108345812Y-86316518D01*
X108309502Y-86196820D01*
X108250537Y-86086506D01*
X108226270Y-86056936D01*
X108298084Y-85922582D01*
X108342929Y-85774745D01*
X108343297Y-85771000D01*
X110081928Y-85771000D01*
X110094188Y-85895482D01*
X110130498Y-86015180D01*
X110179043Y-86106000D01*
X110130498Y-86196820D01*
X110094188Y-86316518D01*
X110081928Y-86441000D01*
X110085000Y-86455250D01*
X110243750Y-86614000D01*
X111568000Y-86614000D01*
X111568000Y-85598000D01*
X111822000Y-85598000D01*
X111822000Y-86614000D01*
X113146250Y-86614000D01*
X113305000Y-86455250D01*
X113308072Y-86441000D01*
X113295812Y-86316518D01*
X113259502Y-86196820D01*
X113210957Y-86106000D01*
X113259502Y-86015180D01*
X113295812Y-85895482D01*
X113308072Y-85771000D01*
X113305000Y-85756750D01*
X113146250Y-85598000D01*
X111822000Y-85598000D01*
X111568000Y-85598000D01*
X110243750Y-85598000D01*
X110085000Y-85756750D01*
X110081928Y-85771000D01*
X108343297Y-85771000D01*
X108358072Y-85621000D01*
X108358072Y-85321000D01*
X108343298Y-85171000D01*
X110081928Y-85171000D01*
X110085000Y-85185250D01*
X110243750Y-85344000D01*
X111568000Y-85344000D01*
X111568000Y-84694750D01*
X111822000Y-84694750D01*
X111822000Y-85344000D01*
X113146250Y-85344000D01*
X113305000Y-85185250D01*
X113308072Y-85171000D01*
X113295812Y-85046518D01*
X113259502Y-84926820D01*
X113200537Y-84816506D01*
X113121185Y-84719815D01*
X113024494Y-84640463D01*
X112914180Y-84581498D01*
X112794482Y-84545188D01*
X112670000Y-84532928D01*
X111980750Y-84536000D01*
X111822000Y-84694750D01*
X111568000Y-84694750D01*
X111409250Y-84536000D01*
X110720000Y-84532928D01*
X110595518Y-84545188D01*
X110475820Y-84581498D01*
X110365506Y-84640463D01*
X110268815Y-84719815D01*
X110189463Y-84816506D01*
X110130498Y-84926820D01*
X110094188Y-85046518D01*
X110081928Y-85171000D01*
X108343298Y-85171000D01*
X108342929Y-85167255D01*
X108316556Y-85080312D01*
X109005746Y-84391123D01*
X109037605Y-84364977D01*
X109112929Y-84273195D01*
X109141950Y-84237832D01*
X109219486Y-84092773D01*
X109267232Y-83935375D01*
X109277669Y-83829411D01*
X109279314Y-83812705D01*
X109283354Y-83771686D01*
X109279314Y-83730668D01*
X109279314Y-81000437D01*
X110204313Y-81925436D01*
X110230463Y-81957301D01*
X110311305Y-82023646D01*
X110357608Y-82061646D01*
X110502667Y-82139182D01*
X110660065Y-82186928D01*
X110823753Y-82203050D01*
X110864772Y-82199010D01*
X112039472Y-82199010D01*
X112080490Y-82203050D01*
X112121508Y-82199010D01*
X112121509Y-82199010D01*
X112244179Y-82186928D01*
X112401577Y-82139182D01*
X112546636Y-82061646D01*
X112673781Y-81957301D01*
X112699936Y-81925431D01*
X113023295Y-81602072D01*
X113443002Y-81602072D01*
X113616256Y-81585008D01*
X113782852Y-81534472D01*
X113936387Y-81452405D01*
X114070962Y-81341962D01*
X114181405Y-81207387D01*
X114263472Y-81053852D01*
X114314008Y-80887256D01*
X114331072Y-80714002D01*
X114331072Y-79813998D01*
X114314008Y-79640744D01*
X114295985Y-79581331D01*
X114382482Y-79572812D01*
X114502180Y-79536502D01*
X114612494Y-79477537D01*
X114709185Y-79398185D01*
X114721106Y-79383659D01*
X116289878Y-80952432D01*
G37*
%TD.AperFunction*%
D43*
X124302068Y-77014158D02*
X124414010Y-77284411D01*
X124576525Y-77527632D01*
X124783368Y-77734475D01*
X124957760Y-77851000D01*
X124783368Y-77967525D01*
X124576525Y-78174368D01*
X124414010Y-78417589D01*
X124302068Y-78687842D01*
X124245000Y-78974740D01*
X124245000Y-79267260D01*
X124302068Y-79554158D01*
X124414010Y-79824411D01*
X124576525Y-80067632D01*
X124708380Y-80199487D01*
X124635820Y-80221498D01*
X124525506Y-80280463D01*
X124428815Y-80359815D01*
X124349463Y-80456506D01*
X124290498Y-80566820D01*
X124254188Y-80686518D01*
X124241928Y-80811000D01*
X124241928Y-82511000D01*
X124254188Y-82635482D01*
X124290498Y-82755180D01*
X124349463Y-82865494D01*
X124428815Y-82962185D01*
X124525506Y-83041537D01*
X124575001Y-83067993D01*
X124575000Y-84474981D01*
X124570960Y-84516000D01*
X124575001Y-84557028D01*
X124575000Y-86531019D01*
X124549582Y-86614812D01*
X124533460Y-86778500D01*
X124549582Y-86942188D01*
X124575000Y-87025981D01*
X124575000Y-87166022D01*
X124549583Y-87249811D01*
X124537501Y-87372481D01*
X124537500Y-88792521D01*
X124482038Y-88838038D01*
X124460000Y-88864891D01*
X124437962Y-88838038D01*
X124303387Y-88727595D01*
X124149852Y-88645528D01*
X123983256Y-88594992D01*
X123810002Y-88577928D01*
X123284998Y-88577928D01*
X123111744Y-88594992D01*
X122945148Y-88645528D01*
X122791613Y-88727595D01*
X122657038Y-88838038D01*
X122546595Y-88972613D01*
X122464528Y-89126148D01*
X122413992Y-89292744D01*
X122396928Y-89465998D01*
X122396928Y-89885704D01*
X122076623Y-90206010D01*
X121170878Y-90206010D01*
X120535000Y-89570133D01*
X120535000Y-88514220D01*
X120577962Y-88478962D01*
X120583342Y-88472406D01*
X120648815Y-88552185D01*
X120745506Y-88631537D01*
X120855820Y-88690502D01*
X120975518Y-88726812D01*
X121100000Y-88739072D01*
X121314250Y-88736000D01*
X121473000Y-88577250D01*
X121473000Y-87503000D01*
X121727000Y-87503000D01*
X121727000Y-88577250D01*
X121885750Y-88736000D01*
X122100000Y-88739072D01*
X122224482Y-88726812D01*
X122344180Y-88690502D01*
X122454494Y-88631537D01*
X122551185Y-88552185D01*
X122630537Y-88455494D01*
X122689502Y-88345180D01*
X122725812Y-88225482D01*
X122738072Y-88101000D01*
X122735000Y-87661750D01*
X122576250Y-87503000D01*
X121727000Y-87503000D01*
X121473000Y-87503000D01*
X121453000Y-87503000D01*
X121453000Y-87249000D01*
X121473000Y-87249000D01*
X121473000Y-87229000D01*
X121727000Y-87229000D01*
X121727000Y-87249000D01*
X122576250Y-87249000D01*
X122735000Y-87090250D01*
X122738072Y-86651000D01*
X122725812Y-86526518D01*
X122689502Y-86406820D01*
X122630537Y-86296506D01*
X122551185Y-86199815D01*
X122454494Y-86120463D01*
X122372915Y-86076857D01*
X122384502Y-86055180D01*
X122420812Y-85935482D01*
X122433072Y-85811000D01*
X122430000Y-85096750D01*
X122271250Y-84938000D01*
X121172000Y-84938000D01*
X121172000Y-84958000D01*
X120918000Y-84958000D01*
X120918000Y-84938000D01*
X120898000Y-84938000D01*
X120898000Y-84684000D01*
X120918000Y-84684000D01*
X120918000Y-83334750D01*
X121172000Y-83334750D01*
X121172000Y-84684000D01*
X122271250Y-84684000D01*
X122430000Y-84525250D01*
X122433072Y-83811000D01*
X122420812Y-83686518D01*
X122384502Y-83566820D01*
X122325537Y-83456506D01*
X122246185Y-83359815D01*
X122149494Y-83280463D01*
X122039180Y-83221498D01*
X121919482Y-83185188D01*
X121795000Y-83172928D01*
X121330750Y-83176000D01*
X121172000Y-83334750D01*
X120918000Y-83334750D01*
X120759250Y-83176000D01*
X120295000Y-83172928D01*
X120170518Y-83185188D01*
X120050820Y-83221498D01*
X119940506Y-83280463D01*
X119895000Y-83317809D01*
X119849494Y-83280463D01*
X119739180Y-83221498D01*
X119619482Y-83185188D01*
X119580000Y-83181299D01*
X119580000Y-81331093D01*
X119713102Y-81386226D01*
X119913061Y-81426000D01*
X120116939Y-81426000D01*
X120316898Y-81386226D01*
X120505256Y-81308205D01*
X120674774Y-81194937D01*
X120818937Y-81050774D01*
X120932205Y-80881256D01*
X121010226Y-80692898D01*
X121050000Y-80492939D01*
X121050000Y-80289061D01*
X121010226Y-80089102D01*
X120992150Y-80045463D01*
X120999494Y-80041537D01*
X121096185Y-79962185D01*
X121175537Y-79865494D01*
X121234502Y-79755180D01*
X121270812Y-79635482D01*
X121283072Y-79511000D01*
X121283072Y-77511000D01*
X121270812Y-77386518D01*
X121239735Y-77284072D01*
X121270002Y-77284072D01*
X121443256Y-77267008D01*
X121609852Y-77216472D01*
X121763387Y-77134405D01*
X121897962Y-77023962D01*
X121920000Y-76997109D01*
X121942038Y-77023962D01*
X122076613Y-77134405D01*
X122230148Y-77216472D01*
X122396744Y-77267008D01*
X122569998Y-77284072D01*
X123095002Y-77284072D01*
X123268256Y-77267008D01*
X123434852Y-77216472D01*
X123588387Y-77134405D01*
X123722962Y-77023962D01*
X123833405Y-76889387D01*
X123891340Y-76781000D01*
X124255690Y-76781000D01*
X124302068Y-77014158D01*
%TA.AperFunction,Conductor*%
D44*
G36*
X124302068Y-77014158D02*
G01*
X124414010Y-77284411D01*
X124576525Y-77527632D01*
X124783368Y-77734475D01*
X124957760Y-77851000D01*
X124783368Y-77967525D01*
X124576525Y-78174368D01*
X124414010Y-78417589D01*
X124302068Y-78687842D01*
X124245000Y-78974740D01*
X124245000Y-79267260D01*
X124302068Y-79554158D01*
X124414010Y-79824411D01*
X124576525Y-80067632D01*
X124708380Y-80199487D01*
X124635820Y-80221498D01*
X124525506Y-80280463D01*
X124428815Y-80359815D01*
X124349463Y-80456506D01*
X124290498Y-80566820D01*
X124254188Y-80686518D01*
X124241928Y-80811000D01*
X124241928Y-82511000D01*
X124254188Y-82635482D01*
X124290498Y-82755180D01*
X124349463Y-82865494D01*
X124428815Y-82962185D01*
X124525506Y-83041537D01*
X124575001Y-83067993D01*
X124575000Y-84474981D01*
X124570960Y-84516000D01*
X124575001Y-84557028D01*
X124575000Y-86531019D01*
X124549582Y-86614812D01*
X124533460Y-86778500D01*
X124549582Y-86942188D01*
X124575000Y-87025981D01*
X124575000Y-87166022D01*
X124549583Y-87249811D01*
X124537501Y-87372481D01*
X124537500Y-88792521D01*
X124482038Y-88838038D01*
X124460000Y-88864891D01*
X124437962Y-88838038D01*
X124303387Y-88727595D01*
X124149852Y-88645528D01*
X123983256Y-88594992D01*
X123810002Y-88577928D01*
X123284998Y-88577928D01*
X123111744Y-88594992D01*
X122945148Y-88645528D01*
X122791613Y-88727595D01*
X122657038Y-88838038D01*
X122546595Y-88972613D01*
X122464528Y-89126148D01*
X122413992Y-89292744D01*
X122396928Y-89465998D01*
X122396928Y-89885704D01*
X122076623Y-90206010D01*
X121170878Y-90206010D01*
X120535000Y-89570133D01*
X120535000Y-88514220D01*
X120577962Y-88478962D01*
X120583342Y-88472406D01*
X120648815Y-88552185D01*
X120745506Y-88631537D01*
X120855820Y-88690502D01*
X120975518Y-88726812D01*
X121100000Y-88739072D01*
X121314250Y-88736000D01*
X121473000Y-88577250D01*
X121473000Y-87503000D01*
X121727000Y-87503000D01*
X121727000Y-88577250D01*
X121885750Y-88736000D01*
X122100000Y-88739072D01*
X122224482Y-88726812D01*
X122344180Y-88690502D01*
X122454494Y-88631537D01*
X122551185Y-88552185D01*
X122630537Y-88455494D01*
X122689502Y-88345180D01*
X122725812Y-88225482D01*
X122738072Y-88101000D01*
X122735000Y-87661750D01*
X122576250Y-87503000D01*
X121727000Y-87503000D01*
X121473000Y-87503000D01*
X121453000Y-87503000D01*
X121453000Y-87249000D01*
X121473000Y-87249000D01*
X121473000Y-87229000D01*
X121727000Y-87229000D01*
X121727000Y-87249000D01*
X122576250Y-87249000D01*
X122735000Y-87090250D01*
X122738072Y-86651000D01*
X122725812Y-86526518D01*
X122689502Y-86406820D01*
X122630537Y-86296506D01*
X122551185Y-86199815D01*
X122454494Y-86120463D01*
X122372915Y-86076857D01*
X122384502Y-86055180D01*
X122420812Y-85935482D01*
X122433072Y-85811000D01*
X122430000Y-85096750D01*
X122271250Y-84938000D01*
X121172000Y-84938000D01*
X121172000Y-84958000D01*
X120918000Y-84958000D01*
X120918000Y-84938000D01*
X120898000Y-84938000D01*
X120898000Y-84684000D01*
X120918000Y-84684000D01*
X120918000Y-83334750D01*
X121172000Y-83334750D01*
X121172000Y-84684000D01*
X122271250Y-84684000D01*
X122430000Y-84525250D01*
X122433072Y-83811000D01*
X122420812Y-83686518D01*
X122384502Y-83566820D01*
X122325537Y-83456506D01*
X122246185Y-83359815D01*
X122149494Y-83280463D01*
X122039180Y-83221498D01*
X121919482Y-83185188D01*
X121795000Y-83172928D01*
X121330750Y-83176000D01*
X121172000Y-83334750D01*
X120918000Y-83334750D01*
X120759250Y-83176000D01*
X120295000Y-83172928D01*
X120170518Y-83185188D01*
X120050820Y-83221498D01*
X119940506Y-83280463D01*
X119895000Y-83317809D01*
X119849494Y-83280463D01*
X119739180Y-83221498D01*
X119619482Y-83185188D01*
X119580000Y-83181299D01*
X119580000Y-81331093D01*
X119713102Y-81386226D01*
X119913061Y-81426000D01*
X120116939Y-81426000D01*
X120316898Y-81386226D01*
X120505256Y-81308205D01*
X120674774Y-81194937D01*
X120818937Y-81050774D01*
X120932205Y-80881256D01*
X121010226Y-80692898D01*
X121050000Y-80492939D01*
X121050000Y-80289061D01*
X121010226Y-80089102D01*
X120992150Y-80045463D01*
X120999494Y-80041537D01*
X121096185Y-79962185D01*
X121175537Y-79865494D01*
X121234502Y-79755180D01*
X121270812Y-79635482D01*
X121283072Y-79511000D01*
X121283072Y-77511000D01*
X121270812Y-77386518D01*
X121239735Y-77284072D01*
X121270002Y-77284072D01*
X121443256Y-77267008D01*
X121609852Y-77216472D01*
X121763387Y-77134405D01*
X121897962Y-77023962D01*
X121920000Y-76997109D01*
X121942038Y-77023962D01*
X122076613Y-77134405D01*
X122230148Y-77216472D01*
X122396744Y-77267008D01*
X122569998Y-77284072D01*
X123095002Y-77284072D01*
X123268256Y-77267008D01*
X123434852Y-77216472D01*
X123588387Y-77134405D01*
X123722962Y-77023962D01*
X123833405Y-76889387D01*
X123891340Y-76781000D01*
X124255690Y-76781000D01*
X124302068Y-77014158D01*
G37*
%TD.AperFunction*%
D43*
X116887171Y-67966258D02*
X117023418Y-68039084D01*
X117171255Y-68083929D01*
X117325000Y-68099072D01*
X117625000Y-68099072D01*
X117778745Y-68083929D01*
X117916417Y-68042168D01*
X117922082Y-68099688D01*
X117969828Y-68257086D01*
X118047364Y-68402145D01*
X118058392Y-68415582D01*
X118151710Y-68529291D01*
X118183574Y-68555441D01*
X119731928Y-70103796D01*
X119731928Y-70861000D01*
X119744188Y-70985482D01*
X119780498Y-71105180D01*
X119839463Y-71215494D01*
X119910037Y-71301489D01*
X119899528Y-71321150D01*
X119848992Y-71487746D01*
X119831928Y-71661000D01*
X119831928Y-72611000D01*
X119848992Y-72784254D01*
X119899528Y-72950850D01*
X119941525Y-73029420D01*
X119905498Y-73096820D01*
X119869188Y-73216518D01*
X119856928Y-73341000D01*
X119860000Y-73755250D01*
X120018750Y-73914000D01*
X120880500Y-73914000D01*
X120880500Y-73894000D01*
X121134500Y-73894000D01*
X121134500Y-73914000D01*
X121154500Y-73914000D01*
X121154500Y-74168000D01*
X121134500Y-74168000D01*
X121134500Y-74188000D01*
X120880500Y-74188000D01*
X120880500Y-74168000D01*
X120018750Y-74168000D01*
X119860000Y-74326750D01*
X119856928Y-74741000D01*
X119869188Y-74865482D01*
X119905498Y-74985180D01*
X119960706Y-75088465D01*
X119947253Y-75113632D01*
X119851311Y-75123082D01*
X119693913Y-75170828D01*
X119548854Y-75248364D01*
X119421709Y-75352709D01*
X119395554Y-75384579D01*
X119176079Y-75604054D01*
X119144209Y-75630209D01*
X119048865Y-75746387D01*
X119044557Y-75751636D01*
X119027205Y-75709744D01*
X118913937Y-75540226D01*
X118875211Y-75501500D01*
X118913937Y-75462774D01*
X119027205Y-75293256D01*
X119105226Y-75104898D01*
X119145000Y-74904939D01*
X119145000Y-74701061D01*
X119105226Y-74501102D01*
X119027205Y-74312744D01*
X118913937Y-74143226D01*
X118769774Y-73999063D01*
X118600256Y-73885795D01*
X118411898Y-73807774D01*
X118211939Y-73768000D01*
X118008061Y-73768000D01*
X117808102Y-73807774D01*
X117619744Y-73885795D01*
X117529596Y-73946030D01*
X117483405Y-73859613D01*
X117372962Y-73725038D01*
X117238387Y-73614595D01*
X117084852Y-73532528D01*
X116918256Y-73481992D01*
X116745002Y-73464928D01*
X116219998Y-73464928D01*
X116046744Y-73481992D01*
X115880148Y-73532528D01*
X115726613Y-73614595D01*
X115592038Y-73725038D01*
X115570000Y-73751891D01*
X115547962Y-73725038D01*
X115413387Y-73614595D01*
X115259852Y-73532528D01*
X115093256Y-73481992D01*
X114920002Y-73464928D01*
X114394998Y-73464928D01*
X114221744Y-73481992D01*
X114055148Y-73532528D01*
X113901613Y-73614595D01*
X113855500Y-73652439D01*
X113809387Y-73614595D01*
X113700484Y-73556385D01*
X114226432Y-73030437D01*
X114258291Y-73004291D01*
X114292147Y-72963038D01*
X114337232Y-72908101D01*
X114347171Y-72916258D01*
X114483418Y-72989084D01*
X114631255Y-73033929D01*
X114785000Y-73049072D01*
X115085000Y-73049072D01*
X115238745Y-73033929D01*
X115386582Y-72989084D01*
X115522829Y-72916258D01*
X115570000Y-72877546D01*
X115617171Y-72916258D01*
X115753418Y-72989084D01*
X115901255Y-73033929D01*
X116055000Y-73049072D01*
X116355000Y-73049072D01*
X116508745Y-73033929D01*
X116656582Y-72989084D01*
X116792829Y-72916258D01*
X116840000Y-72877546D01*
X116887171Y-72916258D01*
X117023418Y-72989084D01*
X117171255Y-73033929D01*
X117325000Y-73049072D01*
X117625000Y-73049072D01*
X117778745Y-73033929D01*
X117926582Y-72989084D01*
X118062829Y-72916258D01*
X118110000Y-72877546D01*
X118157171Y-72916258D01*
X118293418Y-72989084D01*
X118441255Y-73033929D01*
X118595000Y-73049072D01*
X118895000Y-73049072D01*
X119048745Y-73033929D01*
X119196582Y-72989084D01*
X119332829Y-72916258D01*
X119452251Y-72818251D01*
X119550258Y-72698829D01*
X119623084Y-72562582D01*
X119667929Y-72414745D01*
X119683072Y-72261000D01*
X119683072Y-70611000D01*
X119667929Y-70457255D01*
X119623084Y-70309418D01*
X119550258Y-70173171D01*
X119452251Y-70053749D01*
X119332829Y-69955742D01*
X119196582Y-69882916D01*
X119048745Y-69838071D01*
X118895000Y-69822928D01*
X118595000Y-69822928D01*
X118441255Y-69838071D01*
X118293418Y-69882916D01*
X118157171Y-69955742D01*
X118110000Y-69994454D01*
X118062829Y-69955742D01*
X117926582Y-69882916D01*
X117778745Y-69838071D01*
X117625000Y-69822928D01*
X117325000Y-69822928D01*
X117171255Y-69838071D01*
X117023418Y-69882916D01*
X116887171Y-69955742D01*
X116840000Y-69994454D01*
X116792829Y-69955742D01*
X116656582Y-69882916D01*
X116508745Y-69838071D01*
X116355000Y-69822928D01*
X116055000Y-69822928D01*
X115901255Y-69838071D01*
X115753418Y-69882916D01*
X115617171Y-69955742D01*
X115570000Y-69994454D01*
X115522829Y-69955742D01*
X115386582Y-69882916D01*
X115238745Y-69838071D01*
X115085000Y-69822928D01*
X114785000Y-69822928D01*
X114631255Y-69838071D01*
X114483418Y-69882916D01*
X114347171Y-69955742D01*
X114300000Y-69994454D01*
X114252829Y-69955742D01*
X114116582Y-69882916D01*
X113968745Y-69838071D01*
X113815000Y-69822928D01*
X113515000Y-69822928D01*
X113361255Y-69838071D01*
X113213418Y-69882916D01*
X113077171Y-69955742D01*
X113030000Y-69994454D01*
X112982829Y-69955742D01*
X112846582Y-69882916D01*
X112698745Y-69838071D01*
X112545000Y-69822928D01*
X112245000Y-69822928D01*
X112157486Y-69831548D01*
X113898153Y-68090882D01*
X113927057Y-68088035D01*
X113900000Y-68224061D01*
X113900000Y-68427939D01*
X113939774Y-68627898D01*
X114017795Y-68816256D01*
X114131063Y-68985774D01*
X114275226Y-69129937D01*
X114444744Y-69243205D01*
X114633102Y-69321226D01*
X114833061Y-69361000D01*
X115036939Y-69361000D01*
X115236898Y-69321226D01*
X115425256Y-69243205D01*
X115594774Y-69129937D01*
X115738937Y-68985774D01*
X115852205Y-68816256D01*
X115930226Y-68627898D01*
X115970000Y-68427939D01*
X115970000Y-68224061D01*
X115942943Y-68088035D01*
X116055000Y-68099072D01*
X116355000Y-68099072D01*
X116508745Y-68083929D01*
X116656582Y-68039084D01*
X116792829Y-67966258D01*
X116840000Y-67927546D01*
X116887171Y-67966258D01*
%TA.AperFunction,Conductor*%
D44*
G36*
X116887171Y-67966258D02*
G01*
X117023418Y-68039084D01*
X117171255Y-68083929D01*
X117325000Y-68099072D01*
X117625000Y-68099072D01*
X117778745Y-68083929D01*
X117916417Y-68042168D01*
X117922082Y-68099688D01*
X117969828Y-68257086D01*
X118047364Y-68402145D01*
X118058392Y-68415582D01*
X118151710Y-68529291D01*
X118183574Y-68555441D01*
X119731928Y-70103796D01*
X119731928Y-70861000D01*
X119744188Y-70985482D01*
X119780498Y-71105180D01*
X119839463Y-71215494D01*
X119910037Y-71301489D01*
X119899528Y-71321150D01*
X119848992Y-71487746D01*
X119831928Y-71661000D01*
X119831928Y-72611000D01*
X119848992Y-72784254D01*
X119899528Y-72950850D01*
X119941525Y-73029420D01*
X119905498Y-73096820D01*
X119869188Y-73216518D01*
X119856928Y-73341000D01*
X119860000Y-73755250D01*
X120018750Y-73914000D01*
X120880500Y-73914000D01*
X120880500Y-73894000D01*
X121134500Y-73894000D01*
X121134500Y-73914000D01*
X121154500Y-73914000D01*
X121154500Y-74168000D01*
X121134500Y-74168000D01*
X121134500Y-74188000D01*
X120880500Y-74188000D01*
X120880500Y-74168000D01*
X120018750Y-74168000D01*
X119860000Y-74326750D01*
X119856928Y-74741000D01*
X119869188Y-74865482D01*
X119905498Y-74985180D01*
X119960706Y-75088465D01*
X119947253Y-75113632D01*
X119851311Y-75123082D01*
X119693913Y-75170828D01*
X119548854Y-75248364D01*
X119421709Y-75352709D01*
X119395554Y-75384579D01*
X119176079Y-75604054D01*
X119144209Y-75630209D01*
X119048865Y-75746387D01*
X119044557Y-75751636D01*
X119027205Y-75709744D01*
X118913937Y-75540226D01*
X118875211Y-75501500D01*
X118913937Y-75462774D01*
X119027205Y-75293256D01*
X119105226Y-75104898D01*
X119145000Y-74904939D01*
X119145000Y-74701061D01*
X119105226Y-74501102D01*
X119027205Y-74312744D01*
X118913937Y-74143226D01*
X118769774Y-73999063D01*
X118600256Y-73885795D01*
X118411898Y-73807774D01*
X118211939Y-73768000D01*
X118008061Y-73768000D01*
X117808102Y-73807774D01*
X117619744Y-73885795D01*
X117529596Y-73946030D01*
X117483405Y-73859613D01*
X117372962Y-73725038D01*
X117238387Y-73614595D01*
X117084852Y-73532528D01*
X116918256Y-73481992D01*
X116745002Y-73464928D01*
X116219998Y-73464928D01*
X116046744Y-73481992D01*
X115880148Y-73532528D01*
X115726613Y-73614595D01*
X115592038Y-73725038D01*
X115570000Y-73751891D01*
X115547962Y-73725038D01*
X115413387Y-73614595D01*
X115259852Y-73532528D01*
X115093256Y-73481992D01*
X114920002Y-73464928D01*
X114394998Y-73464928D01*
X114221744Y-73481992D01*
X114055148Y-73532528D01*
X113901613Y-73614595D01*
X113855500Y-73652439D01*
X113809387Y-73614595D01*
X113700484Y-73556385D01*
X114226432Y-73030437D01*
X114258291Y-73004291D01*
X114292147Y-72963038D01*
X114337232Y-72908101D01*
X114347171Y-72916258D01*
X114483418Y-72989084D01*
X114631255Y-73033929D01*
X114785000Y-73049072D01*
X115085000Y-73049072D01*
X115238745Y-73033929D01*
X115386582Y-72989084D01*
X115522829Y-72916258D01*
X115570000Y-72877546D01*
X115617171Y-72916258D01*
X115753418Y-72989084D01*
X115901255Y-73033929D01*
X116055000Y-73049072D01*
X116355000Y-73049072D01*
X116508745Y-73033929D01*
X116656582Y-72989084D01*
X116792829Y-72916258D01*
X116840000Y-72877546D01*
X116887171Y-72916258D01*
X117023418Y-72989084D01*
X117171255Y-73033929D01*
X117325000Y-73049072D01*
X117625000Y-73049072D01*
X117778745Y-73033929D01*
X117926582Y-72989084D01*
X118062829Y-72916258D01*
X118110000Y-72877546D01*
X118157171Y-72916258D01*
X118293418Y-72989084D01*
X118441255Y-73033929D01*
X118595000Y-73049072D01*
X118895000Y-73049072D01*
X119048745Y-73033929D01*
X119196582Y-72989084D01*
X119332829Y-72916258D01*
X119452251Y-72818251D01*
X119550258Y-72698829D01*
X119623084Y-72562582D01*
X119667929Y-72414745D01*
X119683072Y-72261000D01*
X119683072Y-70611000D01*
X119667929Y-70457255D01*
X119623084Y-70309418D01*
X119550258Y-70173171D01*
X119452251Y-70053749D01*
X119332829Y-69955742D01*
X119196582Y-69882916D01*
X119048745Y-69838071D01*
X118895000Y-69822928D01*
X118595000Y-69822928D01*
X118441255Y-69838071D01*
X118293418Y-69882916D01*
X118157171Y-69955742D01*
X118110000Y-69994454D01*
X118062829Y-69955742D01*
X117926582Y-69882916D01*
X117778745Y-69838071D01*
X117625000Y-69822928D01*
X117325000Y-69822928D01*
X117171255Y-69838071D01*
X117023418Y-69882916D01*
X116887171Y-69955742D01*
X116840000Y-69994454D01*
X116792829Y-69955742D01*
X116656582Y-69882916D01*
X116508745Y-69838071D01*
X116355000Y-69822928D01*
X116055000Y-69822928D01*
X115901255Y-69838071D01*
X115753418Y-69882916D01*
X115617171Y-69955742D01*
X115570000Y-69994454D01*
X115522829Y-69955742D01*
X115386582Y-69882916D01*
X115238745Y-69838071D01*
X115085000Y-69822928D01*
X114785000Y-69822928D01*
X114631255Y-69838071D01*
X114483418Y-69882916D01*
X114347171Y-69955742D01*
X114300000Y-69994454D01*
X114252829Y-69955742D01*
X114116582Y-69882916D01*
X113968745Y-69838071D01*
X113815000Y-69822928D01*
X113515000Y-69822928D01*
X113361255Y-69838071D01*
X113213418Y-69882916D01*
X113077171Y-69955742D01*
X113030000Y-69994454D01*
X112982829Y-69955742D01*
X112846582Y-69882916D01*
X112698745Y-69838071D01*
X112545000Y-69822928D01*
X112245000Y-69822928D01*
X112157486Y-69831548D01*
X113898153Y-68090882D01*
X113927057Y-68088035D01*
X113900000Y-68224061D01*
X113900000Y-68427939D01*
X113939774Y-68627898D01*
X114017795Y-68816256D01*
X114131063Y-68985774D01*
X114275226Y-69129937D01*
X114444744Y-69243205D01*
X114633102Y-69321226D01*
X114833061Y-69361000D01*
X115036939Y-69361000D01*
X115236898Y-69321226D01*
X115425256Y-69243205D01*
X115594774Y-69129937D01*
X115738937Y-68985774D01*
X115852205Y-68816256D01*
X115930226Y-68627898D01*
X115970000Y-68427939D01*
X115970000Y-68224061D01*
X115942943Y-68088035D01*
X116055000Y-68099072D01*
X116355000Y-68099072D01*
X116508745Y-68083929D01*
X116656582Y-68039084D01*
X116792829Y-67966258D01*
X116840000Y-67927546D01*
X116887171Y-67966258D01*
G37*
%TD.AperFunction*%
D43*
X122997000Y-70034000D02*
X123017000Y-70034000D01*
X123017000Y-70288000D01*
X122997000Y-70288000D01*
X122997000Y-72009000D01*
X123017000Y-72009000D01*
X123017000Y-72263000D01*
X122997000Y-72263000D01*
X122997000Y-72283000D01*
X122743000Y-72283000D01*
X122743000Y-72263000D01*
X122723000Y-72263000D01*
X122723000Y-72009000D01*
X122743000Y-72009000D01*
X122743000Y-70288000D01*
X122723000Y-70288000D01*
X122723000Y-70034000D01*
X122743000Y-70034000D01*
X122743000Y-70014000D01*
X122997000Y-70014000D01*
X122997000Y-70034000D01*
%TA.AperFunction,Conductor*%
D44*
G36*
X122997000Y-70034000D02*
G01*
X123017000Y-70034000D01*
X123017000Y-70288000D01*
X122997000Y-70288000D01*
X122997000Y-72009000D01*
X123017000Y-72009000D01*
X123017000Y-72263000D01*
X122997000Y-72263000D01*
X122997000Y-72283000D01*
X122743000Y-72283000D01*
X122743000Y-72263000D01*
X122723000Y-72263000D01*
X122723000Y-72009000D01*
X122743000Y-72009000D01*
X122743000Y-70288000D01*
X122723000Y-70288000D01*
X122723000Y-70034000D01*
X122743000Y-70034000D01*
X122743000Y-70014000D01*
X122997000Y-70014000D01*
X122997000Y-70034000D01*
G37*
%TD.AperFunction*%
D43*
X121097000Y-67634000D02*
X121117000Y-67634000D01*
X121117000Y-67888000D01*
X121097000Y-67888000D01*
X121097000Y-67908000D01*
X120843000Y-67908000D01*
X120843000Y-67888000D01*
X120823000Y-67888000D01*
X120823000Y-67634000D01*
X120843000Y-67634000D01*
X120843000Y-67614000D01*
X121097000Y-67614000D01*
X121097000Y-67634000D01*
%TA.AperFunction,Conductor*%
D44*
G36*
X121097000Y-67634000D02*
G01*
X121117000Y-67634000D01*
X121117000Y-67888000D01*
X121097000Y-67888000D01*
X121097000Y-67908000D01*
X120843000Y-67908000D01*
X120843000Y-67888000D01*
X120823000Y-67888000D01*
X120823000Y-67634000D01*
X120843000Y-67634000D01*
X120843000Y-67614000D01*
X121097000Y-67614000D01*
X121097000Y-67634000D01*
G37*
%TD.AperFunction*%
%TD*%
M02*
