%TF.GenerationSoftware,KiCad,Pcbnew,(5.1.7)-1*%
%TF.CreationDate,2020-11-03T18:18:40+01:00*%
%TF.ProjectId,Temperature-controller-with-ESP8266,54656d70-6572-4617-9475-72652d636f6e,rev?*%
%TF.SameCoordinates,Original*%
%TF.FileFunction,Legend,Top*%
%TF.FilePolarity,Positive*%
%FSLAX46Y46*%
G04 Gerber Fmt 4.6, Leading zero omitted, Abs format (unit mm)*
G04 Created by KiCad (PCBNEW (5.1.7)-1) date 2020-11-03 18:18:40*
%MOMM*%
%LPD*%
G01*
G04 APERTURE LIST*
%ADD10C,0.300000*%
%TA.AperFunction,Profile*%
%ADD11C,0.050000*%
%TD*%
%ADD12C,0.010000*%
%ADD13C,0.120000*%
%ADD14C,0.150000*%
G04 APERTURE END LIST*
D10*
X100294428Y-120058571D02*
X100294428Y-118558571D01*
X101151571Y-120058571D01*
X101151571Y-118558571D01*
X102723000Y-119915714D02*
X102651571Y-119987142D01*
X102437285Y-120058571D01*
X102294428Y-120058571D01*
X102080142Y-119987142D01*
X101937285Y-119844285D01*
X101865857Y-119701428D01*
X101794428Y-119415714D01*
X101794428Y-119201428D01*
X101865857Y-118915714D01*
X101937285Y-118772857D01*
X102080142Y-118630000D01*
X102294428Y-118558571D01*
X102437285Y-118558571D01*
X102651571Y-118630000D01*
X102723000Y-118701428D01*
X111561714Y-120058571D02*
X111561714Y-118558571D01*
X112418857Y-120058571D01*
X112418857Y-118558571D01*
X113418857Y-118558571D02*
X113704571Y-118558571D01*
X113847428Y-118630000D01*
X113990285Y-118772857D01*
X114061714Y-119058571D01*
X114061714Y-119558571D01*
X113990285Y-119844285D01*
X113847428Y-119987142D01*
X113704571Y-120058571D01*
X113418857Y-120058571D01*
X113276000Y-119987142D01*
X113133142Y-119844285D01*
X113061714Y-119558571D01*
X113061714Y-119058571D01*
X113133142Y-118772857D01*
X113276000Y-118630000D01*
X113418857Y-118558571D01*
X105755428Y-119915714D02*
X105684000Y-119987142D01*
X105469714Y-120058571D01*
X105326857Y-120058571D01*
X105112571Y-119987142D01*
X104969714Y-119844285D01*
X104898285Y-119701428D01*
X104826857Y-119415714D01*
X104826857Y-119201428D01*
X104898285Y-118915714D01*
X104969714Y-118772857D01*
X105112571Y-118630000D01*
X105326857Y-118558571D01*
X105469714Y-118558571D01*
X105684000Y-118630000D01*
X105755428Y-118701428D01*
X106684000Y-118558571D02*
X106969714Y-118558571D01*
X107112571Y-118630000D01*
X107255428Y-118772857D01*
X107326857Y-119058571D01*
X107326857Y-119558571D01*
X107255428Y-119844285D01*
X107112571Y-119987142D01*
X106969714Y-120058571D01*
X106684000Y-120058571D01*
X106541142Y-119987142D01*
X106398285Y-119844285D01*
X106326857Y-119558571D01*
X106326857Y-119058571D01*
X106398285Y-118772857D01*
X106541142Y-118630000D01*
X106684000Y-118558571D01*
X107969714Y-120058571D02*
X107969714Y-118558571D01*
X108469714Y-119630000D01*
X108969714Y-118558571D01*
X108969714Y-120058571D01*
X124924285Y-120185571D02*
X124210000Y-120185571D01*
X124210000Y-118685571D01*
X119078428Y-120185571D02*
X119078428Y-118685571D01*
X119935571Y-120185571D01*
X119935571Y-118685571D01*
D11*
X119126000Y-53721000D02*
X132080000Y-53721000D01*
X119126000Y-53721000D02*
G75*
G02*
X118110000Y-54737000I-1016000J0D01*
G01*
X109474000Y-53721000D02*
G75*
G03*
X110490000Y-54737000I1016000J0D01*
G01*
X118110000Y-54737000D02*
X110490000Y-54737000D01*
X86741000Y-121031000D02*
G75*
G02*
X83693000Y-117983000I0J3048000D01*
G01*
X144780000Y-117983000D02*
G75*
G02*
X141732000Y-121031000I-3048000J0D01*
G01*
X83693000Y-68707000D02*
G75*
G02*
X86741000Y-65659000I3048000J0D01*
G01*
X94742000Y-58166000D02*
G75*
G02*
X87249000Y-65659000I-7493000J0D01*
G01*
X83693000Y-68707000D02*
X83693000Y-69215000D01*
X86741000Y-65659000D02*
X87249000Y-65659000D01*
X94742000Y-55372000D02*
G75*
G02*
X96393000Y-53721000I1651000J0D01*
G01*
X132080000Y-53721000D02*
G75*
G02*
X133731000Y-55372000I0J-1651000D01*
G01*
X144780000Y-117983000D02*
X144780000Y-68707000D01*
X141732000Y-65659000D02*
G75*
G02*
X144780000Y-68707000I0J-3048000D01*
G01*
X141224000Y-65659000D02*
G75*
G02*
X133731000Y-58166000I0J7493000D01*
G01*
X141732000Y-65659000D02*
X141224000Y-65659000D01*
X133731000Y-55372000D02*
X133731000Y-58166000D01*
X94742000Y-55372000D02*
X94742000Y-58166000D01*
X96393000Y-53721000D02*
X109474000Y-53721000D01*
X86741000Y-121031000D02*
X141732000Y-121031000D01*
X83693000Y-117983000D02*
X83693000Y-69215000D01*
D12*
%TO.C,G\u002A\u002A\u002A*%
G36*
X99384556Y-58293000D02*
G01*
X96872778Y-58293000D01*
X96872778Y-57900838D01*
X98058111Y-57900838D01*
X98206278Y-57892308D01*
X98354444Y-57883777D01*
X98361561Y-57347555D01*
X98364437Y-57142690D01*
X98369622Y-56987387D01*
X98381186Y-56874791D01*
X98403200Y-56798046D01*
X98439732Y-56750298D01*
X98494853Y-56724691D01*
X98572633Y-56714370D01*
X98677142Y-56712480D01*
X98738571Y-56712555D01*
X98989444Y-56712555D01*
X98989444Y-56458555D01*
X98058111Y-56458555D01*
X98058111Y-57900838D01*
X96872778Y-57900838D01*
X96872778Y-56458555D01*
X97264939Y-56458555D01*
X98058111Y-56458555D01*
X98058111Y-56146518D01*
X97670056Y-56154370D01*
X97282000Y-56162222D01*
X97273470Y-56310388D01*
X97264939Y-56458555D01*
X96872778Y-56458555D01*
X96872778Y-55781222D01*
X99384556Y-55781222D01*
X99384556Y-58293000D01*
G37*
X99384556Y-58293000D02*
X96872778Y-58293000D01*
X96872778Y-57900838D01*
X98058111Y-57900838D01*
X98206278Y-57892308D01*
X98354444Y-57883777D01*
X98361561Y-57347555D01*
X98364437Y-57142690D01*
X98369622Y-56987387D01*
X98381186Y-56874791D01*
X98403200Y-56798046D01*
X98439732Y-56750298D01*
X98494853Y-56724691D01*
X98572633Y-56714370D01*
X98677142Y-56712480D01*
X98738571Y-56712555D01*
X98989444Y-56712555D01*
X98989444Y-56458555D01*
X98058111Y-56458555D01*
X98058111Y-57900838D01*
X96872778Y-57900838D01*
X96872778Y-56458555D01*
X97264939Y-56458555D01*
X98058111Y-56458555D01*
X98058111Y-56146518D01*
X97670056Y-56154370D01*
X97282000Y-56162222D01*
X97273470Y-56310388D01*
X97264939Y-56458555D01*
X96872778Y-56458555D01*
X96872778Y-55781222D01*
X99384556Y-55781222D01*
X99384556Y-58293000D01*
G36*
X105057222Y-58293000D02*
G01*
X99497444Y-58293000D01*
X99497444Y-56317444D01*
X100033667Y-56317444D01*
X100033667Y-57700333D01*
X100287667Y-57700333D01*
X100287667Y-57107666D01*
X100823889Y-57107666D01*
X100823889Y-56910111D01*
X100287667Y-56910111D01*
X100287667Y-56515000D01*
X100852111Y-56515000D01*
X100852111Y-56317444D01*
X101134333Y-56317444D01*
X101134333Y-57700333D01*
X102009222Y-57700333D01*
X102009222Y-57502777D01*
X101388333Y-57502777D01*
X101388333Y-57107666D01*
X101952778Y-57107666D01*
X101952778Y-56910111D01*
X101388333Y-56910111D01*
X101388333Y-56515000D01*
X102009222Y-56515000D01*
X102009222Y-56317444D01*
X102347889Y-56317444D01*
X102347889Y-57700333D01*
X102573667Y-57700333D01*
X102574426Y-57495722D01*
X102577357Y-57383376D01*
X102588461Y-57308409D01*
X102612735Y-57251844D01*
X102652995Y-57197324D01*
X102730804Y-57103537D01*
X102913291Y-57391413D01*
X102986648Y-57504118D01*
X103051540Y-57598274D01*
X103100937Y-57664041D01*
X103127806Y-57691583D01*
X103127827Y-57691591D01*
X103174641Y-57697372D01*
X103251730Y-57696610D01*
X103276336Y-57695058D01*
X103392796Y-57686222D01*
X103139860Y-57293492D01*
X102886925Y-56900762D01*
X102940472Y-56827825D01*
X102981307Y-56773814D01*
X103046267Y-56689654D01*
X103124433Y-56589445D01*
X103166287Y-56536166D01*
X103338556Y-56317444D01*
X103533222Y-56317444D01*
X103533222Y-56515000D01*
X103928333Y-56515000D01*
X103928333Y-57700333D01*
X104182333Y-57700333D01*
X104182333Y-56515000D01*
X104577444Y-56515000D01*
X104577444Y-56317444D01*
X103533222Y-56317444D01*
X103338556Y-56317444D01*
X103067556Y-56319170D01*
X102827667Y-56632348D01*
X102587778Y-56945525D01*
X102579798Y-56631484D01*
X102571818Y-56317444D01*
X102347889Y-56317444D01*
X102009222Y-56317444D01*
X101134333Y-56317444D01*
X100852111Y-56317444D01*
X100033667Y-56317444D01*
X99497444Y-56317444D01*
X99497444Y-55781222D01*
X105057222Y-55781222D01*
X105057222Y-58293000D01*
G37*
X105057222Y-58293000D02*
X99497444Y-58293000D01*
X99497444Y-56317444D01*
X100033667Y-56317444D01*
X100033667Y-57700333D01*
X100287667Y-57700333D01*
X100287667Y-57107666D01*
X100823889Y-57107666D01*
X100823889Y-56910111D01*
X100287667Y-56910111D01*
X100287667Y-56515000D01*
X100852111Y-56515000D01*
X100852111Y-56317444D01*
X101134333Y-56317444D01*
X101134333Y-57700333D01*
X102009222Y-57700333D01*
X102009222Y-57502777D01*
X101388333Y-57502777D01*
X101388333Y-57107666D01*
X101952778Y-57107666D01*
X101952778Y-56910111D01*
X101388333Y-56910111D01*
X101388333Y-56515000D01*
X102009222Y-56515000D01*
X102009222Y-56317444D01*
X102347889Y-56317444D01*
X102347889Y-57700333D01*
X102573667Y-57700333D01*
X102574426Y-57495722D01*
X102577357Y-57383376D01*
X102588461Y-57308409D01*
X102612735Y-57251844D01*
X102652995Y-57197324D01*
X102730804Y-57103537D01*
X102913291Y-57391413D01*
X102986648Y-57504118D01*
X103051540Y-57598274D01*
X103100937Y-57664041D01*
X103127806Y-57691583D01*
X103127827Y-57691591D01*
X103174641Y-57697372D01*
X103251730Y-57696610D01*
X103276336Y-57695058D01*
X103392796Y-57686222D01*
X103139860Y-57293492D01*
X102886925Y-56900762D01*
X102940472Y-56827825D01*
X102981307Y-56773814D01*
X103046267Y-56689654D01*
X103124433Y-56589445D01*
X103166287Y-56536166D01*
X103338556Y-56317444D01*
X103533222Y-56317444D01*
X103533222Y-56515000D01*
X103928333Y-56515000D01*
X103928333Y-57700333D01*
X104182333Y-57700333D01*
X104182333Y-56515000D01*
X104577444Y-56515000D01*
X104577444Y-56317444D01*
X103533222Y-56317444D01*
X103338556Y-56317444D01*
X103067556Y-56319170D01*
X102827667Y-56632348D01*
X102587778Y-56945525D01*
X102579798Y-56631484D01*
X102571818Y-56317444D01*
X102347889Y-56317444D01*
X102009222Y-56317444D01*
X101134333Y-56317444D01*
X100852111Y-56317444D01*
X100033667Y-56317444D01*
X99497444Y-56317444D01*
X99497444Y-55781222D01*
X105057222Y-55781222D01*
X105057222Y-58293000D01*
D13*
%TO.C,H8*%
X84030000Y-108883000D02*
X86150000Y-108883000D01*
X84030000Y-108823000D02*
X84030000Y-108883000D01*
X86150000Y-108823000D02*
X86150000Y-108883000D01*
X84030000Y-108823000D02*
X86150000Y-108823000D01*
X84030000Y-107823000D02*
X84030000Y-106763000D01*
X84030000Y-106763000D02*
X85090000Y-106763000D01*
%TO.C,H7*%
X114637000Y-92754000D02*
X116757000Y-92754000D01*
X114637000Y-92694000D02*
X114637000Y-92754000D01*
X116757000Y-92694000D02*
X116757000Y-92754000D01*
X114637000Y-92694000D02*
X116757000Y-92694000D01*
X114637000Y-91694000D02*
X114637000Y-90634000D01*
X114637000Y-90634000D02*
X115697000Y-90634000D01*
%TO.C,H6*%
X142196000Y-104989001D02*
X144316000Y-104989001D01*
X142196000Y-104929001D02*
X142196000Y-104989001D01*
X144316000Y-104929001D02*
X144316000Y-104989001D01*
X142196000Y-104929001D02*
X144316000Y-104929001D01*
X142196000Y-103929001D02*
X142196000Y-102869001D01*
X142196000Y-102869001D02*
X143256000Y-102869001D01*
%TO.C,H5*%
X140164000Y-92754000D02*
X142284000Y-92754000D01*
X140164000Y-92694000D02*
X140164000Y-92754000D01*
X142284000Y-92694000D02*
X142284000Y-92754000D01*
X140164000Y-92694000D02*
X142284000Y-92694000D01*
X140164000Y-91694000D02*
X140164000Y-90634000D01*
X140164000Y-90634000D02*
X141224000Y-90634000D01*
%TO.C,D1*%
X98334000Y-80992000D02*
X98334000Y-80836000D01*
X98334000Y-78676000D02*
X98334000Y-78520000D01*
X95732870Y-78676163D02*
G75*
G02*
X97814961Y-78676000I1041130J-1079837D01*
G01*
X95732870Y-80835837D02*
G75*
G03*
X97814961Y-80836000I1041130J1079837D01*
G01*
X95101665Y-78677392D02*
G75*
G02*
X98334000Y-78520484I1672335J-1078608D01*
G01*
X95101665Y-80834608D02*
G75*
G03*
X98334000Y-80991516I1672335J1078608D01*
G01*
%TO.C,D2*%
X98207000Y-85818000D02*
X98207000Y-85662000D01*
X98207000Y-83502000D02*
X98207000Y-83346000D01*
X95605870Y-83502163D02*
G75*
G02*
X97687961Y-83502000I1041130J-1079837D01*
G01*
X95605870Y-85661837D02*
G75*
G03*
X97687961Y-85662000I1041130J1079837D01*
G01*
X94974665Y-83503392D02*
G75*
G02*
X98207000Y-83346484I1672335J-1078608D01*
G01*
X94974665Y-85660608D02*
G75*
G03*
X98207000Y-85817516I1672335J1078608D01*
G01*
%TO.C,J5*%
X104200000Y-80391000D02*
X101540000Y-80391000D01*
X104200000Y-80391000D02*
X104200000Y-62551000D01*
X104200000Y-62551000D02*
X101540000Y-62551000D01*
X101540000Y-80391000D02*
X101540000Y-62551000D01*
X101540000Y-82991000D02*
X101540000Y-81661000D01*
X102870000Y-82991000D02*
X101540000Y-82991000D01*
%TO.C,J4*%
X127060000Y-80391000D02*
X124400000Y-80391000D01*
X127060000Y-80391000D02*
X127060000Y-62551000D01*
X127060000Y-62551000D02*
X124400000Y-62551000D01*
X124400000Y-80391000D02*
X124400000Y-62551000D01*
X124400000Y-82991000D02*
X124400000Y-81661000D01*
X125730000Y-82991000D02*
X124400000Y-82991000D01*
%TO.C,J1*%
X129848000Y-84193000D02*
X129848000Y-83193000D01*
X130348000Y-83693000D02*
X129848000Y-84193000D01*
X129848000Y-83193000D02*
X130348000Y-83693000D01*
X142858000Y-83123000D02*
X142858000Y-88593000D01*
X142858000Y-75193000D02*
X142858000Y-79663000D01*
X130458000Y-75193000D02*
X142858000Y-75193000D01*
X130458000Y-75193000D02*
X130458000Y-79663000D01*
X130458000Y-88593000D02*
X130458000Y-83123000D01*
X142858000Y-88593000D02*
X130458000Y-88593000D01*
%TO.C,J9*%
X108614000Y-112903000D02*
G75*
G03*
X108614000Y-112903000I-1680000J0D01*
G01*
X113694000Y-112903000D02*
G75*
G03*
X113694000Y-112903000I-1680000J0D01*
G01*
X99254000Y-117003000D02*
X114614000Y-117003000D01*
X99254000Y-115503000D02*
X114614000Y-115503000D01*
X99254000Y-110602000D02*
X114614000Y-110602000D01*
X99254000Y-107642000D02*
X114614000Y-107642000D01*
X99254000Y-117563000D02*
X114614000Y-117563000D01*
X99254000Y-107642000D02*
X99254000Y-117563000D01*
X114614000Y-107642000D02*
X114614000Y-117563000D01*
X108209000Y-111834000D02*
X108162000Y-111880000D01*
X105900000Y-114142000D02*
X105865000Y-114177000D01*
X108004000Y-111628000D02*
X107969000Y-111664000D01*
X105707000Y-113926000D02*
X105660000Y-113972000D01*
X113289000Y-111834000D02*
X113242000Y-111880000D01*
X110980000Y-114142000D02*
X110945000Y-114177000D01*
X113084000Y-111628000D02*
X113049000Y-111664000D01*
X110787000Y-113926000D02*
X110740000Y-113972000D01*
X99014000Y-117063000D02*
X99014000Y-117803000D01*
X99014000Y-117803000D02*
X99514000Y-117803000D01*
X101882805Y-114583253D02*
G75*
G02*
X101170000Y-114438000I-28805J1680253D01*
G01*
X100318574Y-113586042D02*
G75*
G02*
X100319000Y-112219000I1535426J683042D01*
G01*
X101170958Y-111367574D02*
G75*
G02*
X102538000Y-111368000I683042J-1535426D01*
G01*
X103389426Y-112219958D02*
G75*
G02*
X103389000Y-113587000I-1535426J-683042D01*
G01*
X102537318Y-114437756D02*
G75*
G02*
X101854000Y-114583000I-683318J1534756D01*
G01*
%TO.C,J8*%
X126394000Y-113030000D02*
G75*
G03*
X126394000Y-113030000I-1680000J0D01*
G01*
X117034000Y-117130000D02*
X127314000Y-117130000D01*
X117034000Y-115630000D02*
X127314000Y-115630000D01*
X117034000Y-110729000D02*
X127314000Y-110729000D01*
X117034000Y-107769000D02*
X127314000Y-107769000D01*
X117034000Y-117690000D02*
X127314000Y-117690000D01*
X117034000Y-107769000D02*
X117034000Y-117690000D01*
X127314000Y-107769000D02*
X127314000Y-117690000D01*
X125989000Y-111961000D02*
X125942000Y-112007000D01*
X123680000Y-114269000D02*
X123645000Y-114304000D01*
X125784000Y-111755000D02*
X125749000Y-111791000D01*
X123487000Y-114053000D02*
X123440000Y-114099000D01*
X116794000Y-117190000D02*
X116794000Y-117930000D01*
X116794000Y-117930000D02*
X117294000Y-117930000D01*
X119662805Y-114710253D02*
G75*
G02*
X118950000Y-114565000I-28805J1680253D01*
G01*
X118098574Y-113713042D02*
G75*
G02*
X118099000Y-112346000I1535426J683042D01*
G01*
X118950958Y-111494574D02*
G75*
G02*
X120318000Y-111495000I683042J-1535426D01*
G01*
X121169426Y-112346958D02*
G75*
G02*
X121169000Y-113714000I-1535426J-683042D01*
G01*
X120317318Y-114564756D02*
G75*
G02*
X119634000Y-114710000I-683318J1534756D01*
G01*
D14*
%TO.C,SW2*%
X88533000Y-71011000D02*
X88533000Y-79611000D01*
X83933000Y-71011000D02*
X83933000Y-73211000D01*
X83933000Y-77311000D02*
X83933000Y-79611000D01*
D13*
%TO.C,SW1*%
X130990000Y-56999000D02*
X130990000Y-59079000D01*
X126820000Y-60759000D02*
X126330000Y-60269000D01*
X125550000Y-56999000D02*
X125550000Y-59079000D01*
X129720000Y-60759000D02*
X130210000Y-60269000D01*
X129720000Y-60759000D02*
X126820000Y-60759000D01*
X129720000Y-55319000D02*
X130210000Y-55809000D01*
X129720000Y-55319000D02*
X126820000Y-55319000D01*
X126820000Y-55319000D02*
X126330000Y-55809000D01*
%TO.C,RL1*%
X113595000Y-93278000D02*
X84595000Y-93278000D01*
X84595000Y-93278000D02*
X84595000Y-105978000D01*
X84595000Y-105978000D02*
X113595000Y-105978000D01*
X113595000Y-105978000D02*
X113595000Y-93278000D01*
X87195000Y-99978000D02*
X86795000Y-99278000D01*
X87595000Y-99278000D02*
X86395000Y-99278000D01*
X86395000Y-99278000D02*
X86395000Y-99978000D01*
X86395000Y-99978000D02*
X87595000Y-99978000D01*
X87595000Y-99978000D02*
X87595000Y-99278000D01*
X86695000Y-106218000D02*
X84355000Y-106218000D01*
X84355000Y-106218000D02*
X84355000Y-104028000D01*
%TO.C,PS1*%
X141054800Y-93370400D02*
X141054800Y-106000800D01*
X115824000Y-93370400D02*
X141054800Y-93370400D01*
X115815400Y-106000800D02*
X115824000Y-93370400D01*
X141054800Y-106000800D02*
X115815400Y-106000800D01*
%TO.C,Q4*%
X91384000Y-91057000D02*
X92314000Y-91057000D01*
X94544000Y-91057000D02*
X93614000Y-91057000D01*
X94544000Y-91057000D02*
X94544000Y-88897000D01*
X91384000Y-91057000D02*
X91384000Y-89597000D01*
%TO.C,R14*%
X87098200Y-90905064D02*
X87098200Y-90450936D01*
X88568200Y-90905064D02*
X88568200Y-90450936D01*
%TO.C,U1*%
X122420000Y-86161000D02*
X106180000Y-86161000D01*
X106180000Y-86161000D02*
X106180000Y-78541000D01*
X106180000Y-62541000D02*
X106180000Y-61921000D01*
X106180000Y-61921000D02*
X108300000Y-61921000D01*
X120300000Y-61921000D02*
X122420000Y-61921000D01*
X122420000Y-61921000D02*
X122420000Y-62541000D01*
X122420000Y-78541000D02*
X122420000Y-86161000D01*
X122420000Y-78541000D02*
X123030000Y-78541000D01*
%TD*%
%TO.C,D1*%
D14*
X96035904Y-83168380D02*
X96035904Y-82168380D01*
X96274000Y-82168380D01*
X96416857Y-82216000D01*
X96512095Y-82311238D01*
X96559714Y-82406476D01*
X96607333Y-82596952D01*
X96607333Y-82739809D01*
X96559714Y-82930285D01*
X96512095Y-83025523D01*
X96416857Y-83120761D01*
X96274000Y-83168380D01*
X96035904Y-83168380D01*
X97559714Y-83168380D02*
X96988285Y-83168380D01*
X97274000Y-83168380D02*
X97274000Y-82168380D01*
X97178761Y-82311238D01*
X97083523Y-82406476D01*
X96988285Y-82454095D01*
%TO.C,D2*%
X95908904Y-87994380D02*
X95908904Y-86994380D01*
X96147000Y-86994380D01*
X96289857Y-87042000D01*
X96385095Y-87137238D01*
X96432714Y-87232476D01*
X96480333Y-87422952D01*
X96480333Y-87565809D01*
X96432714Y-87756285D01*
X96385095Y-87851523D01*
X96289857Y-87946761D01*
X96147000Y-87994380D01*
X95908904Y-87994380D01*
X96861285Y-87089619D02*
X96908904Y-87042000D01*
X97004142Y-86994380D01*
X97242238Y-86994380D01*
X97337476Y-87042000D01*
X97385095Y-87089619D01*
X97432714Y-87184857D01*
X97432714Y-87280095D01*
X97385095Y-87422952D01*
X96813666Y-87994380D01*
X97432714Y-87994380D01*
%TO.C,J5*%
X102536666Y-83883380D02*
X102536666Y-84597666D01*
X102489047Y-84740523D01*
X102393809Y-84835761D01*
X102250952Y-84883380D01*
X102155714Y-84883380D01*
X103489047Y-83883380D02*
X103012857Y-83883380D01*
X102965238Y-84359571D01*
X103012857Y-84311952D01*
X103108095Y-84264333D01*
X103346190Y-84264333D01*
X103441428Y-84311952D01*
X103489047Y-84359571D01*
X103536666Y-84454809D01*
X103536666Y-84692904D01*
X103489047Y-84788142D01*
X103441428Y-84835761D01*
X103346190Y-84883380D01*
X103108095Y-84883380D01*
X103012857Y-84835761D01*
X102965238Y-84788142D01*
%TO.C,J4*%
X125396666Y-83883380D02*
X125396666Y-84597666D01*
X125349047Y-84740523D01*
X125253809Y-84835761D01*
X125110952Y-84883380D01*
X125015714Y-84883380D01*
X126301428Y-84216714D02*
X126301428Y-84883380D01*
X126063333Y-83835761D02*
X125825238Y-84550047D01*
X126444285Y-84550047D01*
%TO.C,J1*%
X131594666Y-73505380D02*
X131594666Y-74219666D01*
X131547047Y-74362523D01*
X131451809Y-74457761D01*
X131308952Y-74505380D01*
X131213714Y-74505380D01*
X132594666Y-74505380D02*
X132023238Y-74505380D01*
X132308952Y-74505380D02*
X132308952Y-73505380D01*
X132213714Y-73648238D01*
X132118476Y-73743476D01*
X132023238Y-73791095D01*
%TO.C,J9*%
X106600666Y-106095380D02*
X106600666Y-106809666D01*
X106553047Y-106952523D01*
X106457809Y-107047761D01*
X106314952Y-107095380D01*
X106219714Y-107095380D01*
X107124476Y-107095380D02*
X107314952Y-107095380D01*
X107410190Y-107047761D01*
X107457809Y-107000142D01*
X107553047Y-106857285D01*
X107600666Y-106666809D01*
X107600666Y-106285857D01*
X107553047Y-106190619D01*
X107505428Y-106143000D01*
X107410190Y-106095380D01*
X107219714Y-106095380D01*
X107124476Y-106143000D01*
X107076857Y-106190619D01*
X107029238Y-106285857D01*
X107029238Y-106523952D01*
X107076857Y-106619190D01*
X107124476Y-106666809D01*
X107219714Y-106714428D01*
X107410190Y-106714428D01*
X107505428Y-106666809D01*
X107553047Y-106619190D01*
X107600666Y-106523952D01*
%TO.C,J8*%
X121840666Y-106222380D02*
X121840666Y-106936666D01*
X121793047Y-107079523D01*
X121697809Y-107174761D01*
X121554952Y-107222380D01*
X121459714Y-107222380D01*
X122459714Y-106650952D02*
X122364476Y-106603333D01*
X122316857Y-106555714D01*
X122269238Y-106460476D01*
X122269238Y-106412857D01*
X122316857Y-106317619D01*
X122364476Y-106270000D01*
X122459714Y-106222380D01*
X122650190Y-106222380D01*
X122745428Y-106270000D01*
X122793047Y-106317619D01*
X122840666Y-106412857D01*
X122840666Y-106460476D01*
X122793047Y-106555714D01*
X122745428Y-106603333D01*
X122650190Y-106650952D01*
X122459714Y-106650952D01*
X122364476Y-106698571D01*
X122316857Y-106746190D01*
X122269238Y-106841428D01*
X122269238Y-107031904D01*
X122316857Y-107127142D01*
X122364476Y-107174761D01*
X122459714Y-107222380D01*
X122650190Y-107222380D01*
X122745428Y-107174761D01*
X122793047Y-107127142D01*
X122840666Y-107031904D01*
X122840666Y-106841428D01*
X122793047Y-106746190D01*
X122745428Y-106698571D01*
X122650190Y-106650952D01*
%TO.C,SW2*%
X90237761Y-76044333D02*
X90285380Y-75901476D01*
X90285380Y-75663380D01*
X90237761Y-75568142D01*
X90190142Y-75520523D01*
X90094904Y-75472904D01*
X89999666Y-75472904D01*
X89904428Y-75520523D01*
X89856809Y-75568142D01*
X89809190Y-75663380D01*
X89761571Y-75853857D01*
X89713952Y-75949095D01*
X89666333Y-75996714D01*
X89571095Y-76044333D01*
X89475857Y-76044333D01*
X89380619Y-75996714D01*
X89333000Y-75949095D01*
X89285380Y-75853857D01*
X89285380Y-75615761D01*
X89333000Y-75472904D01*
X89285380Y-75139571D02*
X90285380Y-74901476D01*
X89571095Y-74711000D01*
X90285380Y-74520523D01*
X89285380Y-74282428D01*
X89380619Y-73949095D02*
X89333000Y-73901476D01*
X89285380Y-73806238D01*
X89285380Y-73568142D01*
X89333000Y-73472904D01*
X89380619Y-73425285D01*
X89475857Y-73377666D01*
X89571095Y-73377666D01*
X89713952Y-73425285D01*
X90285380Y-73996714D01*
X90285380Y-73377666D01*
%TO.C,SW1*%
X126936666Y-62043761D02*
X127079523Y-62091380D01*
X127317619Y-62091380D01*
X127412857Y-62043761D01*
X127460476Y-61996142D01*
X127508095Y-61900904D01*
X127508095Y-61805666D01*
X127460476Y-61710428D01*
X127412857Y-61662809D01*
X127317619Y-61615190D01*
X127127142Y-61567571D01*
X127031904Y-61519952D01*
X126984285Y-61472333D01*
X126936666Y-61377095D01*
X126936666Y-61281857D01*
X126984285Y-61186619D01*
X127031904Y-61139000D01*
X127127142Y-61091380D01*
X127365238Y-61091380D01*
X127508095Y-61139000D01*
X127841428Y-61091380D02*
X128079523Y-62091380D01*
X128270000Y-61377095D01*
X128460476Y-62091380D01*
X128698571Y-61091380D01*
X129603333Y-62091380D02*
X129031904Y-62091380D01*
X129317619Y-62091380D02*
X129317619Y-61091380D01*
X129222380Y-61234238D01*
X129127142Y-61329476D01*
X129031904Y-61377095D01*
%TO.C,RL1*%
X94932571Y-105100380D02*
X94599238Y-104624190D01*
X94361142Y-105100380D02*
X94361142Y-104100380D01*
X94742095Y-104100380D01*
X94837333Y-104148000D01*
X94884952Y-104195619D01*
X94932571Y-104290857D01*
X94932571Y-104433714D01*
X94884952Y-104528952D01*
X94837333Y-104576571D01*
X94742095Y-104624190D01*
X94361142Y-104624190D01*
X95837333Y-105100380D02*
X95361142Y-105100380D01*
X95361142Y-104100380D01*
X96694476Y-105100380D02*
X96123047Y-105100380D01*
X96408761Y-105100380D02*
X96408761Y-104100380D01*
X96313523Y-104243238D01*
X96218285Y-104338476D01*
X96123047Y-104386095D01*
%TO.C,PS1*%
X128452714Y-105354380D02*
X128452714Y-104354380D01*
X128833666Y-104354380D01*
X128928904Y-104402000D01*
X128976523Y-104449619D01*
X129024142Y-104544857D01*
X129024142Y-104687714D01*
X128976523Y-104782952D01*
X128928904Y-104830571D01*
X128833666Y-104878190D01*
X128452714Y-104878190D01*
X129405095Y-105306761D02*
X129547952Y-105354380D01*
X129786047Y-105354380D01*
X129881285Y-105306761D01*
X129928904Y-105259142D01*
X129976523Y-105163904D01*
X129976523Y-105068666D01*
X129928904Y-104973428D01*
X129881285Y-104925809D01*
X129786047Y-104878190D01*
X129595571Y-104830571D01*
X129500333Y-104782952D01*
X129452714Y-104735333D01*
X129405095Y-104640095D01*
X129405095Y-104544857D01*
X129452714Y-104449619D01*
X129500333Y-104402000D01*
X129595571Y-104354380D01*
X129833666Y-104354380D01*
X129976523Y-104402000D01*
X130928904Y-105354380D02*
X130357476Y-105354380D01*
X130643190Y-105354380D02*
X130643190Y-104354380D01*
X130547952Y-104497238D01*
X130452714Y-104592476D01*
X130357476Y-104640095D01*
%TO.C,Q4*%
X90971619Y-90900238D02*
X90924000Y-90995476D01*
X90828761Y-91090714D01*
X90685904Y-91233571D01*
X90638285Y-91328809D01*
X90638285Y-91424047D01*
X90876380Y-91376428D02*
X90828761Y-91471666D01*
X90733523Y-91566904D01*
X90543047Y-91614523D01*
X90209714Y-91614523D01*
X90019238Y-91566904D01*
X89924000Y-91471666D01*
X89876380Y-91376428D01*
X89876380Y-91185952D01*
X89924000Y-91090714D01*
X90019238Y-90995476D01*
X90209714Y-90947857D01*
X90543047Y-90947857D01*
X90733523Y-90995476D01*
X90828761Y-91090714D01*
X90876380Y-91185952D01*
X90876380Y-91376428D01*
X90209714Y-90090714D02*
X90876380Y-90090714D01*
X89828761Y-90328809D02*
X90543047Y-90566904D01*
X90543047Y-89947857D01*
%TO.C,R14*%
X86635580Y-91320857D02*
X86159390Y-91654190D01*
X86635580Y-91892285D02*
X85635580Y-91892285D01*
X85635580Y-91511333D01*
X85683200Y-91416095D01*
X85730819Y-91368476D01*
X85826057Y-91320857D01*
X85968914Y-91320857D01*
X86064152Y-91368476D01*
X86111771Y-91416095D01*
X86159390Y-91511333D01*
X86159390Y-91892285D01*
X86635580Y-90368476D02*
X86635580Y-90939904D01*
X86635580Y-90654190D02*
X85635580Y-90654190D01*
X85778438Y-90749428D01*
X85873676Y-90844666D01*
X85921295Y-90939904D01*
X85968914Y-89511333D02*
X86635580Y-89511333D01*
X85587961Y-89749428D02*
X86302247Y-89987523D01*
X86302247Y-89368476D01*
%TO.C,U1*%
X114808095Y-72731380D02*
X114808095Y-73540904D01*
X114855714Y-73636142D01*
X114903333Y-73683761D01*
X114998571Y-73731380D01*
X115189047Y-73731380D01*
X115284285Y-73683761D01*
X115331904Y-73636142D01*
X115379523Y-73540904D01*
X115379523Y-72731380D01*
X116379523Y-73731380D02*
X115808095Y-73731380D01*
X116093809Y-73731380D02*
X116093809Y-72731380D01*
X115998571Y-72874238D01*
X115903333Y-72969476D01*
X115808095Y-73017095D01*
%TD*%
M02*
