G04 #@! TF.GenerationSoftware,KiCad,Pcbnew,(5.1.7)-1*
G04 #@! TF.CreationDate,2021-03-31T14:02:48+02:00*
G04 #@! TF.ProjectId,Temperature-controller-with-ESP8266,54656d70-6572-4617-9475-72652d636f6e,rev?*
G04 #@! TF.SameCoordinates,Original*
G04 #@! TF.FileFunction,Soldermask,Top*
G04 #@! TF.FilePolarity,Negative*
%FSLAX46Y46*%
G04 Gerber Fmt 4.6, Leading zero omitted, Abs format (unit mm)*
G04 Created by KiCad (PCBNEW (5.1.7)-1) date 2021-03-31 14:02:48*
%MOMM*%
%LPD*%
G01*
G04 APERTURE LIST*
%ADD10C,1.000000*%
%ADD11R,2.050000X4.000000*%
%ADD12R,2.050000X3.500000*%
%ADD13R,0.500000X3.000000*%
%ADD14O,1.700000X1.700000*%
%ADD15R,1.700000X1.700000*%
%ADD16R,2.500000X1.000000*%
%ADD17R,1.000000X1.800000*%
%ADD18R,1.100000X1.800000*%
%ADD19C,2.300000*%
%ADD20R,1.500000X1.500000*%
%ADD21C,1.500000*%
%ADD22R,1.500000X2.000000*%
%ADD23R,3.800000X2.000000*%
%ADD24C,1.800000*%
%ADD25R,1.800000X1.800000*%
%ADD26R,1.200000X1.400000*%
%ADD27O,2.200000X3.500000*%
%ADD28O,1.500000X2.500000*%
%ADD29R,1.500000X2.500000*%
%ADD30R,0.800000X0.900000*%
%ADD31C,3.200000*%
G04 APERTURE END LIST*
D10*
X128692000Y-116845000D03*
X124292000Y-116845000D03*
D11*
X131392000Y-118745000D03*
D12*
X131392000Y-114495000D03*
D11*
X121592000Y-118745000D03*
D12*
X121592000Y-114495000D03*
D13*
X128092000Y-114495000D03*
X127292000Y-114495000D03*
X126492000Y-114495000D03*
X125692000Y-114495000D03*
X124892000Y-114495000D03*
G36*
G01*
X151535000Y-88115000D02*
X151535000Y-88415000D01*
G75*
G02*
X151385000Y-88565000I-150000J0D01*
G01*
X149735000Y-88565000D01*
G75*
G02*
X149585000Y-88415000I0J150000D01*
G01*
X149585000Y-88115000D01*
G75*
G02*
X149735000Y-87965000I150000J0D01*
G01*
X151385000Y-87965000D01*
G75*
G02*
X151535000Y-88115000I0J-150000D01*
G01*
G37*
G36*
G01*
X151535000Y-86845000D02*
X151535000Y-87145000D01*
G75*
G02*
X151385000Y-87295000I-150000J0D01*
G01*
X149735000Y-87295000D01*
G75*
G02*
X149585000Y-87145000I0J150000D01*
G01*
X149585000Y-86845000D01*
G75*
G02*
X149735000Y-86695000I150000J0D01*
G01*
X151385000Y-86695000D01*
G75*
G02*
X151535000Y-86845000I0J-150000D01*
G01*
G37*
G36*
G01*
X151535000Y-85575000D02*
X151535000Y-85875000D01*
G75*
G02*
X151385000Y-86025000I-150000J0D01*
G01*
X149735000Y-86025000D01*
G75*
G02*
X149585000Y-85875000I0J150000D01*
G01*
X149585000Y-85575000D01*
G75*
G02*
X149735000Y-85425000I150000J0D01*
G01*
X151385000Y-85425000D01*
G75*
G02*
X151535000Y-85575000I0J-150000D01*
G01*
G37*
G36*
G01*
X151535000Y-84305000D02*
X151535000Y-84605000D01*
G75*
G02*
X151385000Y-84755000I-150000J0D01*
G01*
X149735000Y-84755000D01*
G75*
G02*
X149585000Y-84605000I0J150000D01*
G01*
X149585000Y-84305000D01*
G75*
G02*
X149735000Y-84155000I150000J0D01*
G01*
X151385000Y-84155000D01*
G75*
G02*
X151535000Y-84305000I0J-150000D01*
G01*
G37*
G36*
G01*
X156485000Y-84305000D02*
X156485000Y-84605000D01*
G75*
G02*
X156335000Y-84755000I-150000J0D01*
G01*
X154685000Y-84755000D01*
G75*
G02*
X154535000Y-84605000I0J150000D01*
G01*
X154535000Y-84305000D01*
G75*
G02*
X154685000Y-84155000I150000J0D01*
G01*
X156335000Y-84155000D01*
G75*
G02*
X156485000Y-84305000I0J-150000D01*
G01*
G37*
G36*
G01*
X156485000Y-85575000D02*
X156485000Y-85875000D01*
G75*
G02*
X156335000Y-86025000I-150000J0D01*
G01*
X154685000Y-86025000D01*
G75*
G02*
X154535000Y-85875000I0J150000D01*
G01*
X154535000Y-85575000D01*
G75*
G02*
X154685000Y-85425000I150000J0D01*
G01*
X156335000Y-85425000D01*
G75*
G02*
X156485000Y-85575000I0J-150000D01*
G01*
G37*
G36*
G01*
X156485000Y-86845000D02*
X156485000Y-87145000D01*
G75*
G02*
X156335000Y-87295000I-150000J0D01*
G01*
X154685000Y-87295000D01*
G75*
G02*
X154535000Y-87145000I0J150000D01*
G01*
X154535000Y-86845000D01*
G75*
G02*
X154685000Y-86695000I150000J0D01*
G01*
X156335000Y-86695000D01*
G75*
G02*
X156485000Y-86845000I0J-150000D01*
G01*
G37*
G36*
G01*
X156485000Y-88115000D02*
X156485000Y-88415000D01*
G75*
G02*
X156335000Y-88565000I-150000J0D01*
G01*
X154685000Y-88565000D01*
G75*
G02*
X154535000Y-88415000I0J150000D01*
G01*
X154535000Y-88115000D01*
G75*
G02*
X154685000Y-87965000I150000J0D01*
G01*
X156335000Y-87965000D01*
G75*
G02*
X156485000Y-88115000I0J-150000D01*
G01*
G37*
D14*
X147066000Y-90170000D03*
X147066000Y-92710000D03*
X147066000Y-95250000D03*
X147066000Y-97790000D03*
X147066000Y-100330000D03*
X147066000Y-102870000D03*
X147066000Y-105410000D03*
D15*
X147066000Y-107950000D03*
D16*
X143363000Y-92004000D03*
X143363000Y-94004000D03*
X143363000Y-96004000D03*
X143363000Y-98004000D03*
X143363000Y-100004000D03*
X143363000Y-102004000D03*
X143363000Y-104004000D03*
X143363000Y-106004000D03*
D17*
X140763000Y-107504000D03*
X138763000Y-107504000D03*
X136763000Y-107504000D03*
X134763000Y-107504000D03*
X132763000Y-107504000D03*
X130763000Y-107504000D03*
D16*
X128163000Y-106004000D03*
X128163000Y-104004000D03*
X128163000Y-102004000D03*
X128163000Y-100004000D03*
X128163000Y-98004000D03*
X128163000Y-96004000D03*
X128163000Y-94004000D03*
X128163000Y-92004000D03*
G36*
G01*
X127795000Y-81222000D02*
X128745000Y-81222000D01*
G75*
G02*
X128995000Y-81472000I0J-250000D01*
G01*
X128995000Y-81972000D01*
G75*
G02*
X128745000Y-82222000I-250000J0D01*
G01*
X127795000Y-82222000D01*
G75*
G02*
X127545000Y-81972000I0J250000D01*
G01*
X127545000Y-81472000D01*
G75*
G02*
X127795000Y-81222000I250000J0D01*
G01*
G37*
G36*
G01*
X127795000Y-79322000D02*
X128745000Y-79322000D01*
G75*
G02*
X128995000Y-79572000I0J-250000D01*
G01*
X128995000Y-80072000D01*
G75*
G02*
X128745000Y-80322000I-250000J0D01*
G01*
X127795000Y-80322000D01*
G75*
G02*
X127545000Y-80072000I0J250000D01*
G01*
X127545000Y-79572000D01*
G75*
G02*
X127795000Y-79322000I250000J0D01*
G01*
G37*
D18*
X125548000Y-80085000D03*
X125548000Y-86285000D03*
X121848000Y-80085000D03*
X121848000Y-86285000D03*
D19*
X147218000Y-65772000D03*
D20*
X142748000Y-68072000D03*
D21*
X141728000Y-70612000D03*
X140708000Y-68072000D03*
D19*
X135218000Y-65772000D03*
D21*
X139688000Y-70612000D03*
G36*
G01*
X117875000Y-95573002D02*
X117875000Y-94672998D01*
G75*
G02*
X118124998Y-94423000I249998J0D01*
G01*
X118650002Y-94423000D01*
G75*
G02*
X118900000Y-94672998I0J-249998D01*
G01*
X118900000Y-95573002D01*
G75*
G02*
X118650002Y-95823000I-249998J0D01*
G01*
X118124998Y-95823000D01*
G75*
G02*
X117875000Y-95573002I0J249998D01*
G01*
G37*
G36*
G01*
X116050000Y-95573002D02*
X116050000Y-94672998D01*
G75*
G02*
X116299998Y-94423000I249998J0D01*
G01*
X116825002Y-94423000D01*
G75*
G02*
X117075000Y-94672998I0J-249998D01*
G01*
X117075000Y-95573002D01*
G75*
G02*
X116825002Y-95823000I-249998J0D01*
G01*
X116299998Y-95823000D01*
G75*
G02*
X116050000Y-95573002I0J249998D01*
G01*
G37*
G36*
G01*
X153143000Y-93656998D02*
X153143000Y-94557002D01*
G75*
G02*
X152893002Y-94807000I-249998J0D01*
G01*
X152367998Y-94807000D01*
G75*
G02*
X152118000Y-94557002I0J249998D01*
G01*
X152118000Y-93656998D01*
G75*
G02*
X152367998Y-93407000I249998J0D01*
G01*
X152893002Y-93407000D01*
G75*
G02*
X153143000Y-93656998I0J-249998D01*
G01*
G37*
G36*
G01*
X154968000Y-93656998D02*
X154968000Y-94557002D01*
G75*
G02*
X154718002Y-94807000I-249998J0D01*
G01*
X154192998Y-94807000D01*
G75*
G02*
X153943000Y-94557002I0J249998D01*
G01*
X153943000Y-93656998D01*
G75*
G02*
X154192998Y-93407000I249998J0D01*
G01*
X154718002Y-93407000D01*
G75*
G02*
X154968000Y-93656998I0J-249998D01*
G01*
G37*
G36*
G01*
X153943000Y-97986002D02*
X153943000Y-97085998D01*
G75*
G02*
X154192998Y-96836000I249998J0D01*
G01*
X154718002Y-96836000D01*
G75*
G02*
X154968000Y-97085998I0J-249998D01*
G01*
X154968000Y-97986002D01*
G75*
G02*
X154718002Y-98236000I-249998J0D01*
G01*
X154192998Y-98236000D01*
G75*
G02*
X153943000Y-97986002I0J249998D01*
G01*
G37*
G36*
G01*
X152118000Y-97986002D02*
X152118000Y-97085998D01*
G75*
G02*
X152367998Y-96836000I249998J0D01*
G01*
X152893002Y-96836000D01*
G75*
G02*
X153143000Y-97085998I0J-249998D01*
G01*
X153143000Y-97986002D01*
G75*
G02*
X152893002Y-98236000I-249998J0D01*
G01*
X152367998Y-98236000D01*
G75*
G02*
X152118000Y-97986002I0J249998D01*
G01*
G37*
G36*
G01*
X153689000Y-104590002D02*
X153689000Y-103689998D01*
G75*
G02*
X153938998Y-103440000I249998J0D01*
G01*
X154464002Y-103440000D01*
G75*
G02*
X154714000Y-103689998I0J-249998D01*
G01*
X154714000Y-104590002D01*
G75*
G02*
X154464002Y-104840000I-249998J0D01*
G01*
X153938998Y-104840000D01*
G75*
G02*
X153689000Y-104590002I0J249998D01*
G01*
G37*
G36*
G01*
X151864000Y-104590002D02*
X151864000Y-103689998D01*
G75*
G02*
X152113998Y-103440000I249998J0D01*
G01*
X152639002Y-103440000D01*
G75*
G02*
X152889000Y-103689998I0J-249998D01*
G01*
X152889000Y-104590002D01*
G75*
G02*
X152639002Y-104840000I-249998J0D01*
G01*
X152113998Y-104840000D01*
G75*
G02*
X151864000Y-104590002I0J249998D01*
G01*
G37*
G36*
G01*
X117851500Y-98240002D02*
X117851500Y-97339998D01*
G75*
G02*
X118101498Y-97090000I249998J0D01*
G01*
X118626502Y-97090000D01*
G75*
G02*
X118876500Y-97339998I0J-249998D01*
G01*
X118876500Y-98240002D01*
G75*
G02*
X118626502Y-98490000I-249998J0D01*
G01*
X118101498Y-98490000D01*
G75*
G02*
X117851500Y-98240002I0J249998D01*
G01*
G37*
G36*
G01*
X116026500Y-98240002D02*
X116026500Y-97339998D01*
G75*
G02*
X116276498Y-97090000I249998J0D01*
G01*
X116801502Y-97090000D01*
G75*
G02*
X117051500Y-97339998I0J-249998D01*
G01*
X117051500Y-98240002D01*
G75*
G02*
X116801502Y-98490000I-249998J0D01*
G01*
X116276498Y-98490000D01*
G75*
G02*
X116026500Y-98240002I0J249998D01*
G01*
G37*
G36*
G01*
X153816000Y-101288002D02*
X153816000Y-100387998D01*
G75*
G02*
X154065998Y-100138000I249998J0D01*
G01*
X154591002Y-100138000D01*
G75*
G02*
X154841000Y-100387998I0J-249998D01*
G01*
X154841000Y-101288002D01*
G75*
G02*
X154591002Y-101538000I-249998J0D01*
G01*
X154065998Y-101538000D01*
G75*
G02*
X153816000Y-101288002I0J249998D01*
G01*
G37*
G36*
G01*
X151991000Y-101288002D02*
X151991000Y-100387998D01*
G75*
G02*
X152240998Y-100138000I249998J0D01*
G01*
X152766002Y-100138000D01*
G75*
G02*
X153016000Y-100387998I0J-249998D01*
G01*
X153016000Y-101288002D01*
G75*
G02*
X152766002Y-101538000I-249998J0D01*
G01*
X152240998Y-101538000D01*
G75*
G02*
X151991000Y-101288002I0J249998D01*
G01*
G37*
D14*
X131699000Y-80645000D03*
X134239000Y-80645000D03*
X136779000Y-80645000D03*
D15*
X139319000Y-80645000D03*
D22*
X121779000Y-76556000D03*
X126379000Y-76556000D03*
X124079000Y-76556000D03*
D23*
X124079000Y-70256000D03*
D24*
X144018000Y-74676000D03*
D25*
X146558000Y-74676000D03*
D26*
X146370000Y-117151000D03*
X146370000Y-114751000D03*
X148270000Y-114751000D03*
X148270000Y-117151000D03*
D27*
X115280000Y-65913000D03*
X123480000Y-65913000D03*
D28*
X117380000Y-65913000D03*
X119380000Y-65913000D03*
D29*
X121380000Y-65913000D03*
G36*
G01*
X117875000Y-92144002D02*
X117875000Y-91243998D01*
G75*
G02*
X118124998Y-90994000I249998J0D01*
G01*
X118650002Y-90994000D01*
G75*
G02*
X118900000Y-91243998I0J-249998D01*
G01*
X118900000Y-92144002D01*
G75*
G02*
X118650002Y-92394000I-249998J0D01*
G01*
X118124998Y-92394000D01*
G75*
G02*
X117875000Y-92144002I0J249998D01*
G01*
G37*
G36*
G01*
X116050000Y-92144002D02*
X116050000Y-91243998D01*
G75*
G02*
X116299998Y-90994000I249998J0D01*
G01*
X116825002Y-90994000D01*
G75*
G02*
X117075000Y-91243998I0J-249998D01*
G01*
X117075000Y-92144002D01*
G75*
G02*
X116825002Y-92394000I-249998J0D01*
G01*
X116299998Y-92394000D01*
G75*
G02*
X116050000Y-92144002I0J249998D01*
G01*
G37*
G36*
G01*
X146870000Y-118905000D02*
X146870000Y-119855000D01*
G75*
G02*
X146620000Y-120105000I-250000J0D01*
G01*
X146120000Y-120105000D01*
G75*
G02*
X145870000Y-119855000I0J250000D01*
G01*
X145870000Y-118905000D01*
G75*
G02*
X146120000Y-118655000I250000J0D01*
G01*
X146620000Y-118655000D01*
G75*
G02*
X146870000Y-118905000I0J-250000D01*
G01*
G37*
G36*
G01*
X148770000Y-118905000D02*
X148770000Y-119855000D01*
G75*
G02*
X148520000Y-120105000I-250000J0D01*
G01*
X148020000Y-120105000D01*
G75*
G02*
X147770000Y-119855000I0J250000D01*
G01*
X147770000Y-118905000D01*
G75*
G02*
X148020000Y-118655000I250000J0D01*
G01*
X148520000Y-118655000D01*
G75*
G02*
X148770000Y-118905000I0J-250000D01*
G01*
G37*
G36*
G01*
X147770000Y-113124000D02*
X147770000Y-112174000D01*
G75*
G02*
X148020000Y-111924000I250000J0D01*
G01*
X148520000Y-111924000D01*
G75*
G02*
X148770000Y-112174000I0J-250000D01*
G01*
X148770000Y-113124000D01*
G75*
G02*
X148520000Y-113374000I-250000J0D01*
G01*
X148020000Y-113374000D01*
G75*
G02*
X147770000Y-113124000I0J250000D01*
G01*
G37*
G36*
G01*
X145870000Y-113124000D02*
X145870000Y-112174000D01*
G75*
G02*
X146120000Y-111924000I250000J0D01*
G01*
X146620000Y-111924000D01*
G75*
G02*
X146870000Y-112174000I0J-250000D01*
G01*
X146870000Y-113124000D01*
G75*
G02*
X146620000Y-113374000I-250000J0D01*
G01*
X146120000Y-113374000D01*
G75*
G02*
X145870000Y-113124000I0J250000D01*
G01*
G37*
G36*
G01*
X115349000Y-72078000D02*
X116299000Y-72078000D01*
G75*
G02*
X116549000Y-72328000I0J-250000D01*
G01*
X116549000Y-72828000D01*
G75*
G02*
X116299000Y-73078000I-250000J0D01*
G01*
X115349000Y-73078000D01*
G75*
G02*
X115099000Y-72828000I0J250000D01*
G01*
X115099000Y-72328000D01*
G75*
G02*
X115349000Y-72078000I250000J0D01*
G01*
G37*
G36*
G01*
X115349000Y-70178000D02*
X116299000Y-70178000D01*
G75*
G02*
X116549000Y-70428000I0J-250000D01*
G01*
X116549000Y-70928000D01*
G75*
G02*
X116299000Y-71178000I-250000J0D01*
G01*
X115349000Y-71178000D01*
G75*
G02*
X115099000Y-70928000I0J250000D01*
G01*
X115099000Y-70428000D01*
G75*
G02*
X115349000Y-70178000I250000J0D01*
G01*
G37*
G36*
G01*
X117051500Y-87941998D02*
X117051500Y-88842002D01*
G75*
G02*
X116801502Y-89092000I-249998J0D01*
G01*
X116276498Y-89092000D01*
G75*
G02*
X116026500Y-88842002I0J249998D01*
G01*
X116026500Y-87941998D01*
G75*
G02*
X116276498Y-87692000I249998J0D01*
G01*
X116801502Y-87692000D01*
G75*
G02*
X117051500Y-87941998I0J-249998D01*
G01*
G37*
G36*
G01*
X118876500Y-87941998D02*
X118876500Y-88842002D01*
G75*
G02*
X118626502Y-89092000I-249998J0D01*
G01*
X118101498Y-89092000D01*
G75*
G02*
X117851500Y-88842002I0J249998D01*
G01*
X117851500Y-87941998D01*
G75*
G02*
X118101498Y-87692000I249998J0D01*
G01*
X118626502Y-87692000D01*
G75*
G02*
X118876500Y-87941998I0J-249998D01*
G01*
G37*
G36*
G01*
X118941002Y-104756000D02*
X118040998Y-104756000D01*
G75*
G02*
X117791000Y-104506002I0J249998D01*
G01*
X117791000Y-103980998D01*
G75*
G02*
X118040998Y-103731000I249998J0D01*
G01*
X118941002Y-103731000D01*
G75*
G02*
X119191000Y-103980998I0J-249998D01*
G01*
X119191000Y-104506002D01*
G75*
G02*
X118941002Y-104756000I-249998J0D01*
G01*
G37*
G36*
G01*
X118941002Y-106581000D02*
X118040998Y-106581000D01*
G75*
G02*
X117791000Y-106331002I0J249998D01*
G01*
X117791000Y-105805998D01*
G75*
G02*
X118040998Y-105556000I249998J0D01*
G01*
X118941002Y-105556000D01*
G75*
G02*
X119191000Y-105805998I0J-249998D01*
G01*
X119191000Y-106331002D01*
G75*
G02*
X118941002Y-106581000I-249998J0D01*
G01*
G37*
G36*
G01*
X115881998Y-105556000D02*
X116782002Y-105556000D01*
G75*
G02*
X117032000Y-105805998I0J-249998D01*
G01*
X117032000Y-106331002D01*
G75*
G02*
X116782002Y-106581000I-249998J0D01*
G01*
X115881998Y-106581000D01*
G75*
G02*
X115632000Y-106331002I0J249998D01*
G01*
X115632000Y-105805998D01*
G75*
G02*
X115881998Y-105556000I249998J0D01*
G01*
G37*
G36*
G01*
X115881998Y-103731000D02*
X116782002Y-103731000D01*
G75*
G02*
X117032000Y-103980998I0J-249998D01*
G01*
X117032000Y-104506002D01*
G75*
G02*
X116782002Y-104756000I-249998J0D01*
G01*
X115881998Y-104756000D01*
G75*
G02*
X115632000Y-104506002I0J249998D01*
G01*
X115632000Y-103980998D01*
G75*
G02*
X115881998Y-103731000I249998J0D01*
G01*
G37*
G36*
G01*
X149040002Y-74403000D02*
X148139998Y-74403000D01*
G75*
G02*
X147890000Y-74153002I0J249998D01*
G01*
X147890000Y-73627998D01*
G75*
G02*
X148139998Y-73378000I249998J0D01*
G01*
X149040002Y-73378000D01*
G75*
G02*
X149290000Y-73627998I0J-249998D01*
G01*
X149290000Y-74153002D01*
G75*
G02*
X149040002Y-74403000I-249998J0D01*
G01*
G37*
G36*
G01*
X149040002Y-76228000D02*
X148139998Y-76228000D01*
G75*
G02*
X147890000Y-75978002I0J249998D01*
G01*
X147890000Y-75452998D01*
G75*
G02*
X148139998Y-75203000I249998J0D01*
G01*
X149040002Y-75203000D01*
G75*
G02*
X149290000Y-75452998I0J-249998D01*
G01*
X149290000Y-75978002D01*
G75*
G02*
X149040002Y-76228000I-249998J0D01*
G01*
G37*
G36*
G01*
X135405000Y-114451000D02*
X135105000Y-114451000D01*
G75*
G02*
X134955000Y-114301000I0J150000D01*
G01*
X134955000Y-112651000D01*
G75*
G02*
X135105000Y-112501000I150000J0D01*
G01*
X135405000Y-112501000D01*
G75*
G02*
X135555000Y-112651000I0J-150000D01*
G01*
X135555000Y-114301000D01*
G75*
G02*
X135405000Y-114451000I-150000J0D01*
G01*
G37*
G36*
G01*
X136675000Y-114451000D02*
X136375000Y-114451000D01*
G75*
G02*
X136225000Y-114301000I0J150000D01*
G01*
X136225000Y-112651000D01*
G75*
G02*
X136375000Y-112501000I150000J0D01*
G01*
X136675000Y-112501000D01*
G75*
G02*
X136825000Y-112651000I0J-150000D01*
G01*
X136825000Y-114301000D01*
G75*
G02*
X136675000Y-114451000I-150000J0D01*
G01*
G37*
G36*
G01*
X137945000Y-114451000D02*
X137645000Y-114451000D01*
G75*
G02*
X137495000Y-114301000I0J150000D01*
G01*
X137495000Y-112651000D01*
G75*
G02*
X137645000Y-112501000I150000J0D01*
G01*
X137945000Y-112501000D01*
G75*
G02*
X138095000Y-112651000I0J-150000D01*
G01*
X138095000Y-114301000D01*
G75*
G02*
X137945000Y-114451000I-150000J0D01*
G01*
G37*
G36*
G01*
X139215000Y-114451000D02*
X138915000Y-114451000D01*
G75*
G02*
X138765000Y-114301000I0J150000D01*
G01*
X138765000Y-112651000D01*
G75*
G02*
X138915000Y-112501000I150000J0D01*
G01*
X139215000Y-112501000D01*
G75*
G02*
X139365000Y-112651000I0J-150000D01*
G01*
X139365000Y-114301000D01*
G75*
G02*
X139215000Y-114451000I-150000J0D01*
G01*
G37*
G36*
G01*
X140485000Y-114451000D02*
X140185000Y-114451000D01*
G75*
G02*
X140035000Y-114301000I0J150000D01*
G01*
X140035000Y-112651000D01*
G75*
G02*
X140185000Y-112501000I150000J0D01*
G01*
X140485000Y-112501000D01*
G75*
G02*
X140635000Y-112651000I0J-150000D01*
G01*
X140635000Y-114301000D01*
G75*
G02*
X140485000Y-114451000I-150000J0D01*
G01*
G37*
G36*
G01*
X141755000Y-114451000D02*
X141455000Y-114451000D01*
G75*
G02*
X141305000Y-114301000I0J150000D01*
G01*
X141305000Y-112651000D01*
G75*
G02*
X141455000Y-112501000I150000J0D01*
G01*
X141755000Y-112501000D01*
G75*
G02*
X141905000Y-112651000I0J-150000D01*
G01*
X141905000Y-114301000D01*
G75*
G02*
X141755000Y-114451000I-150000J0D01*
G01*
G37*
G36*
G01*
X143025000Y-114451000D02*
X142725000Y-114451000D01*
G75*
G02*
X142575000Y-114301000I0J150000D01*
G01*
X142575000Y-112651000D01*
G75*
G02*
X142725000Y-112501000I150000J0D01*
G01*
X143025000Y-112501000D01*
G75*
G02*
X143175000Y-112651000I0J-150000D01*
G01*
X143175000Y-114301000D01*
G75*
G02*
X143025000Y-114451000I-150000J0D01*
G01*
G37*
G36*
G01*
X144295000Y-114451000D02*
X143995000Y-114451000D01*
G75*
G02*
X143845000Y-114301000I0J150000D01*
G01*
X143845000Y-112651000D01*
G75*
G02*
X143995000Y-112501000I150000J0D01*
G01*
X144295000Y-112501000D01*
G75*
G02*
X144445000Y-112651000I0J-150000D01*
G01*
X144445000Y-114301000D01*
G75*
G02*
X144295000Y-114451000I-150000J0D01*
G01*
G37*
G36*
G01*
X144295000Y-119401000D02*
X143995000Y-119401000D01*
G75*
G02*
X143845000Y-119251000I0J150000D01*
G01*
X143845000Y-117601000D01*
G75*
G02*
X143995000Y-117451000I150000J0D01*
G01*
X144295000Y-117451000D01*
G75*
G02*
X144445000Y-117601000I0J-150000D01*
G01*
X144445000Y-119251000D01*
G75*
G02*
X144295000Y-119401000I-150000J0D01*
G01*
G37*
G36*
G01*
X143025000Y-119401000D02*
X142725000Y-119401000D01*
G75*
G02*
X142575000Y-119251000I0J150000D01*
G01*
X142575000Y-117601000D01*
G75*
G02*
X142725000Y-117451000I150000J0D01*
G01*
X143025000Y-117451000D01*
G75*
G02*
X143175000Y-117601000I0J-150000D01*
G01*
X143175000Y-119251000D01*
G75*
G02*
X143025000Y-119401000I-150000J0D01*
G01*
G37*
G36*
G01*
X141755000Y-119401000D02*
X141455000Y-119401000D01*
G75*
G02*
X141305000Y-119251000I0J150000D01*
G01*
X141305000Y-117601000D01*
G75*
G02*
X141455000Y-117451000I150000J0D01*
G01*
X141755000Y-117451000D01*
G75*
G02*
X141905000Y-117601000I0J-150000D01*
G01*
X141905000Y-119251000D01*
G75*
G02*
X141755000Y-119401000I-150000J0D01*
G01*
G37*
G36*
G01*
X140485000Y-119401000D02*
X140185000Y-119401000D01*
G75*
G02*
X140035000Y-119251000I0J150000D01*
G01*
X140035000Y-117601000D01*
G75*
G02*
X140185000Y-117451000I150000J0D01*
G01*
X140485000Y-117451000D01*
G75*
G02*
X140635000Y-117601000I0J-150000D01*
G01*
X140635000Y-119251000D01*
G75*
G02*
X140485000Y-119401000I-150000J0D01*
G01*
G37*
G36*
G01*
X139215000Y-119401000D02*
X138915000Y-119401000D01*
G75*
G02*
X138765000Y-119251000I0J150000D01*
G01*
X138765000Y-117601000D01*
G75*
G02*
X138915000Y-117451000I150000J0D01*
G01*
X139215000Y-117451000D01*
G75*
G02*
X139365000Y-117601000I0J-150000D01*
G01*
X139365000Y-119251000D01*
G75*
G02*
X139215000Y-119401000I-150000J0D01*
G01*
G37*
G36*
G01*
X137945000Y-119401000D02*
X137645000Y-119401000D01*
G75*
G02*
X137495000Y-119251000I0J150000D01*
G01*
X137495000Y-117601000D01*
G75*
G02*
X137645000Y-117451000I150000J0D01*
G01*
X137945000Y-117451000D01*
G75*
G02*
X138095000Y-117601000I0J-150000D01*
G01*
X138095000Y-119251000D01*
G75*
G02*
X137945000Y-119401000I-150000J0D01*
G01*
G37*
G36*
G01*
X136675000Y-119401000D02*
X136375000Y-119401000D01*
G75*
G02*
X136225000Y-119251000I0J150000D01*
G01*
X136225000Y-117601000D01*
G75*
G02*
X136375000Y-117451000I150000J0D01*
G01*
X136675000Y-117451000D01*
G75*
G02*
X136825000Y-117601000I0J-150000D01*
G01*
X136825000Y-119251000D01*
G75*
G02*
X136675000Y-119401000I-150000J0D01*
G01*
G37*
G36*
G01*
X135405000Y-119401000D02*
X135105000Y-119401000D01*
G75*
G02*
X134955000Y-119251000I0J150000D01*
G01*
X134955000Y-117601000D01*
G75*
G02*
X135105000Y-117451000I150000J0D01*
G01*
X135405000Y-117451000D01*
G75*
G02*
X135555000Y-117601000I0J-150000D01*
G01*
X135555000Y-119251000D01*
G75*
G02*
X135405000Y-119401000I-150000J0D01*
G01*
G37*
D30*
X117475000Y-110093000D03*
X116525000Y-108093000D03*
X118425000Y-108093000D03*
X116525000Y-102092000D03*
X118425000Y-102092000D03*
X117475000Y-100092000D03*
G36*
G01*
X148913002Y-71656000D02*
X148012998Y-71656000D01*
G75*
G02*
X147763000Y-71406002I0J249998D01*
G01*
X147763000Y-70880998D01*
G75*
G02*
X148012998Y-70631000I249998J0D01*
G01*
X148913002Y-70631000D01*
G75*
G02*
X149163000Y-70880998I0J-249998D01*
G01*
X149163000Y-71406002D01*
G75*
G02*
X148913002Y-71656000I-249998J0D01*
G01*
G37*
G36*
G01*
X148913002Y-69831000D02*
X148012998Y-69831000D01*
G75*
G02*
X147763000Y-69581002I0J249998D01*
G01*
X147763000Y-69055998D01*
G75*
G02*
X148012998Y-68806000I249998J0D01*
G01*
X148913002Y-68806000D01*
G75*
G02*
X149163000Y-69055998I0J-249998D01*
G01*
X149163000Y-69581002D01*
G75*
G02*
X148913002Y-69831000I-249998J0D01*
G01*
G37*
D31*
X115824000Y-78359000D03*
X115824000Y-119888000D03*
X154813000Y-78359000D03*
X154813000Y-119888000D03*
D15*
X124206000Y-107950000D03*
D14*
X124206000Y-105410000D03*
X124206000Y-102870000D03*
X124206000Y-100330000D03*
X124206000Y-97790000D03*
X124206000Y-95250000D03*
X124206000Y-92710000D03*
X124206000Y-90170000D03*
G36*
G01*
X148659002Y-85325000D02*
X147758998Y-85325000D01*
G75*
G02*
X147509000Y-85075002I0J249998D01*
G01*
X147509000Y-84549998D01*
G75*
G02*
X147758998Y-84300000I249998J0D01*
G01*
X148659002Y-84300000D01*
G75*
G02*
X148909000Y-84549998I0J-249998D01*
G01*
X148909000Y-85075002D01*
G75*
G02*
X148659002Y-85325000I-249998J0D01*
G01*
G37*
G36*
G01*
X148659002Y-87150000D02*
X147758998Y-87150000D01*
G75*
G02*
X147509000Y-86900002I0J249998D01*
G01*
X147509000Y-86374998D01*
G75*
G02*
X147758998Y-86125000I249998J0D01*
G01*
X148659002Y-86125000D01*
G75*
G02*
X148909000Y-86374998I0J-249998D01*
G01*
X148909000Y-86900002D01*
G75*
G02*
X148659002Y-87150000I-249998J0D01*
G01*
G37*
G36*
G01*
X146246002Y-88039000D02*
X145345998Y-88039000D01*
G75*
G02*
X145096000Y-87789002I0J249998D01*
G01*
X145096000Y-87263998D01*
G75*
G02*
X145345998Y-87014000I249998J0D01*
G01*
X146246002Y-87014000D01*
G75*
G02*
X146496000Y-87263998I0J-249998D01*
G01*
X146496000Y-87789002D01*
G75*
G02*
X146246002Y-88039000I-249998J0D01*
G01*
G37*
G36*
G01*
X146246002Y-86214000D02*
X145345998Y-86214000D01*
G75*
G02*
X145096000Y-85964002I0J249998D01*
G01*
X145096000Y-85438998D01*
G75*
G02*
X145345998Y-85189000I249998J0D01*
G01*
X146246002Y-85189000D01*
G75*
G02*
X146496000Y-85438998I0J-249998D01*
G01*
X146496000Y-85964002D01*
G75*
G02*
X146246002Y-86214000I-249998J0D01*
G01*
G37*
X154813000Y-66548000D03*
X154813000Y-69088000D03*
D15*
X154813000Y-71628000D03*
X152273000Y-71628000D03*
D14*
X152273000Y-69088000D03*
X152273000Y-66548000D03*
D24*
X130429000Y-74676000D03*
D25*
X132969000Y-74676000D03*
X139700000Y-74803000D03*
D24*
X137160000Y-74803000D03*
D30*
X135824000Y-68977000D03*
X133924000Y-68977000D03*
X134874000Y-70977000D03*
G36*
G01*
X129343999Y-70250000D02*
X130244001Y-70250000D01*
G75*
G02*
X130494000Y-70499999I0J-249999D01*
G01*
X130494000Y-71025001D01*
G75*
G02*
X130244001Y-71275000I-249999J0D01*
G01*
X129343999Y-71275000D01*
G75*
G02*
X129094000Y-71025001I0J249999D01*
G01*
X129094000Y-70499999D01*
G75*
G02*
X129343999Y-70250000I249999J0D01*
G01*
G37*
G36*
G01*
X129343999Y-68425000D02*
X130244001Y-68425000D01*
G75*
G02*
X130494000Y-68674999I0J-249999D01*
G01*
X130494000Y-69200001D01*
G75*
G02*
X130244001Y-69450000I-249999J0D01*
G01*
X129343999Y-69450000D01*
G75*
G02*
X129094000Y-69200001I0J249999D01*
G01*
X129094000Y-68674999D01*
G75*
G02*
X129343999Y-68425000I249999J0D01*
G01*
G37*
G36*
G01*
X135451001Y-77498000D02*
X134550999Y-77498000D01*
G75*
G02*
X134301000Y-77248001I0J249999D01*
G01*
X134301000Y-76722999D01*
G75*
G02*
X134550999Y-76473000I249999J0D01*
G01*
X135451001Y-76473000D01*
G75*
G02*
X135701000Y-76722999I0J-249999D01*
G01*
X135701000Y-77248001D01*
G75*
G02*
X135451001Y-77498000I-249999J0D01*
G01*
G37*
G36*
G01*
X135451001Y-75673000D02*
X134550999Y-75673000D01*
G75*
G02*
X134301000Y-75423001I0J249999D01*
G01*
X134301000Y-74897999D01*
G75*
G02*
X134550999Y-74648000I249999J0D01*
G01*
X135451001Y-74648000D01*
G75*
G02*
X135701000Y-74897999I0J-249999D01*
G01*
X135701000Y-75423001D01*
G75*
G02*
X135451001Y-75673000I-249999J0D01*
G01*
G37*
G36*
G01*
X141535999Y-74775000D02*
X142436001Y-74775000D01*
G75*
G02*
X142686000Y-75024999I0J-249999D01*
G01*
X142686000Y-75550001D01*
G75*
G02*
X142436001Y-75800000I-249999J0D01*
G01*
X141535999Y-75800000D01*
G75*
G02*
X141286000Y-75550001I0J249999D01*
G01*
X141286000Y-75024999D01*
G75*
G02*
X141535999Y-74775000I249999J0D01*
G01*
G37*
G36*
G01*
X141535999Y-76600000D02*
X142436001Y-76600000D01*
G75*
G02*
X142686000Y-76849999I0J-249999D01*
G01*
X142686000Y-77375001D01*
G75*
G02*
X142436001Y-77625000I-249999J0D01*
G01*
X141535999Y-77625000D01*
G75*
G02*
X141286000Y-77375001I0J249999D01*
G01*
X141286000Y-76849999D01*
G75*
G02*
X141535999Y-76600000I249999J0D01*
G01*
G37*
M02*
