%TF.GenerationSoftware,KiCad,Pcbnew,(5.1.7)-1*%
%TF.CreationDate,2021-02-24T18:28:04+01:00*%
%TF.ProjectId,Temperature-controller-with-ESP8266,54656d70-6572-4617-9475-72652d636f6e,rev?*%
%TF.SameCoordinates,Original*%
%TF.FileFunction,Legend,Bot*%
%TF.FilePolarity,Positive*%
%FSLAX46Y46*%
G04 Gerber Fmt 4.6, Leading zero omitted, Abs format (unit mm)*
G04 Created by KiCad (PCBNEW (5.1.7)-1) date 2021-02-24 18:28:04*
%MOMM*%
%LPD*%
G01*
G04 APERTURE LIST*
%ADD10C,0.150000*%
%ADD11C,0.120000*%
G04 APERTURE END LIST*
D10*
X157098904Y-63127000D02*
X157194142Y-63079380D01*
X157337000Y-63079380D01*
X157479857Y-63127000D01*
X157575095Y-63222238D01*
X157622714Y-63317476D01*
X157670333Y-63507952D01*
X157670333Y-63650809D01*
X157622714Y-63841285D01*
X157575095Y-63936523D01*
X157479857Y-64031761D01*
X157337000Y-64079380D01*
X157241761Y-64079380D01*
X157098904Y-64031761D01*
X157051285Y-63984142D01*
X157051285Y-63650809D01*
X157241761Y-63650809D01*
X156622714Y-64079380D02*
X156622714Y-63079380D01*
X156051285Y-64079380D01*
X156051285Y-63079380D01*
X155575095Y-64079380D02*
X155575095Y-63079380D01*
X155337000Y-63079380D01*
X155194142Y-63127000D01*
X155098904Y-63222238D01*
X155051285Y-63317476D01*
X155003666Y-63507952D01*
X155003666Y-63650809D01*
X155051285Y-63841285D01*
X155098904Y-63936523D01*
X155194142Y-64031761D01*
X155337000Y-64079380D01*
X155575095Y-64079380D01*
X157575095Y-65746380D02*
X156956047Y-65746380D01*
X157289380Y-66127333D01*
X157146523Y-66127333D01*
X157051285Y-66174952D01*
X157003666Y-66222571D01*
X156956047Y-66317809D01*
X156956047Y-66555904D01*
X157003666Y-66651142D01*
X157051285Y-66698761D01*
X157146523Y-66746380D01*
X157432238Y-66746380D01*
X157527476Y-66698761D01*
X157575095Y-66651142D01*
X156670333Y-65746380D02*
X156337000Y-66746380D01*
X156003666Y-65746380D01*
X155765571Y-65746380D02*
X155146523Y-65746380D01*
X155479857Y-66127333D01*
X155337000Y-66127333D01*
X155241761Y-66174952D01*
X155194142Y-66222571D01*
X155146523Y-66317809D01*
X155146523Y-66555904D01*
X155194142Y-66651142D01*
X155241761Y-66698761D01*
X155337000Y-66746380D01*
X155622714Y-66746380D01*
X155717952Y-66698761D01*
X155765571Y-66651142D01*
X157051285Y-68873666D02*
X156575095Y-68873666D01*
X157146523Y-69159380D02*
X156813190Y-68159380D01*
X156479857Y-69159380D01*
X155956047Y-68159380D02*
X155860809Y-68159380D01*
X155765571Y-68207000D01*
X155717952Y-68254619D01*
X155670333Y-68349857D01*
X155622714Y-68540333D01*
X155622714Y-68778428D01*
X155670333Y-68968904D01*
X155717952Y-69064142D01*
X155765571Y-69111761D01*
X155860809Y-69159380D01*
X155956047Y-69159380D01*
X156051285Y-69111761D01*
X156098904Y-69064142D01*
X156146523Y-68968904D01*
X156194142Y-68778428D01*
X156194142Y-68540333D01*
X156146523Y-68349857D01*
X156098904Y-68254619D01*
X156051285Y-68207000D01*
X155956047Y-68159380D01*
X148812095Y-65746380D02*
X148193047Y-65746380D01*
X148526380Y-66127333D01*
X148383523Y-66127333D01*
X148288285Y-66174952D01*
X148240666Y-66222571D01*
X148193047Y-66317809D01*
X148193047Y-66555904D01*
X148240666Y-66651142D01*
X148288285Y-66698761D01*
X148383523Y-66746380D01*
X148669238Y-66746380D01*
X148764476Y-66698761D01*
X148812095Y-66651142D01*
X147907333Y-65746380D02*
X147574000Y-66746380D01*
X147240666Y-65746380D01*
X147002571Y-65746380D02*
X146383523Y-65746380D01*
X146716857Y-66127333D01*
X146574000Y-66127333D01*
X146478761Y-66174952D01*
X146431142Y-66222571D01*
X146383523Y-66317809D01*
X146383523Y-66555904D01*
X146431142Y-66651142D01*
X146478761Y-66698761D01*
X146574000Y-66746380D01*
X146859714Y-66746380D01*
X146954952Y-66698761D01*
X147002571Y-66651142D01*
X148335904Y-63127000D02*
X148431142Y-63079380D01*
X148574000Y-63079380D01*
X148716857Y-63127000D01*
X148812095Y-63222238D01*
X148859714Y-63317476D01*
X148907333Y-63507952D01*
X148907333Y-63650809D01*
X148859714Y-63841285D01*
X148812095Y-63936523D01*
X148716857Y-64031761D01*
X148574000Y-64079380D01*
X148478761Y-64079380D01*
X148335904Y-64031761D01*
X148288285Y-63984142D01*
X148288285Y-63650809D01*
X148478761Y-63650809D01*
X147859714Y-64079380D02*
X147859714Y-63079380D01*
X147288285Y-64079380D01*
X147288285Y-63079380D01*
X146812095Y-64079380D02*
X146812095Y-63079380D01*
X146574000Y-63079380D01*
X146431142Y-63127000D01*
X146335904Y-63222238D01*
X146288285Y-63317476D01*
X146240666Y-63507952D01*
X146240666Y-63650809D01*
X146288285Y-63841285D01*
X146335904Y-63936523D01*
X146431142Y-64031761D01*
X146574000Y-64079380D01*
X146812095Y-64079380D01*
X148312095Y-69159380D02*
X148312095Y-68159380D01*
X148074000Y-68159380D01*
X147931142Y-68207000D01*
X147835904Y-68302238D01*
X147788285Y-68397476D01*
X147740666Y-68587952D01*
X147740666Y-68730809D01*
X147788285Y-68921285D01*
X147835904Y-69016523D01*
X147931142Y-69111761D01*
X148074000Y-69159380D01*
X148312095Y-69159380D01*
X146883523Y-68159380D02*
X147074000Y-68159380D01*
X147169238Y-68207000D01*
X147216857Y-68254619D01*
X147312095Y-68397476D01*
X147359714Y-68587952D01*
X147359714Y-68968904D01*
X147312095Y-69064142D01*
X147264476Y-69111761D01*
X147169238Y-69159380D01*
X146978761Y-69159380D01*
X146883523Y-69111761D01*
X146835904Y-69064142D01*
X146788285Y-68968904D01*
X146788285Y-68730809D01*
X146835904Y-68635571D01*
X146883523Y-68587952D01*
X146978761Y-68540333D01*
X147169238Y-68540333D01*
X147264476Y-68587952D01*
X147312095Y-68635571D01*
X147359714Y-68730809D01*
X138898380Y-83883523D02*
X138898380Y-83407333D01*
X139374571Y-83359714D01*
X139326952Y-83407333D01*
X139279333Y-83502571D01*
X139279333Y-83740666D01*
X139326952Y-83835904D01*
X139374571Y-83883523D01*
X139469809Y-83931142D01*
X139707904Y-83931142D01*
X139803142Y-83883523D01*
X139850761Y-83835904D01*
X139898380Y-83740666D01*
X139898380Y-83502571D01*
X139850761Y-83407333D01*
X139803142Y-83359714D01*
X138898380Y-84216857D02*
X139898380Y-84550190D01*
X138898380Y-84883523D01*
X137358380Y-83558142D02*
X137358380Y-83081952D01*
X136358380Y-83081952D01*
X136834571Y-83891476D02*
X136834571Y-84224809D01*
X137358380Y-84367666D02*
X137358380Y-83891476D01*
X136358380Y-83891476D01*
X136358380Y-84367666D01*
X137358380Y-84796238D02*
X136358380Y-84796238D01*
X136358380Y-85034333D01*
X136406000Y-85177190D01*
X136501238Y-85272428D01*
X136596476Y-85320047D01*
X136786952Y-85367666D01*
X136929809Y-85367666D01*
X137120285Y-85320047D01*
X137215523Y-85272428D01*
X137310761Y-85177190D01*
X137358380Y-85034333D01*
X137358380Y-84796238D01*
X134818380Y-83201000D02*
X134342190Y-82867666D01*
X134818380Y-82629571D02*
X133818380Y-82629571D01*
X133818380Y-83010523D01*
X133866000Y-83105761D01*
X133913619Y-83153380D01*
X134008857Y-83201000D01*
X134151714Y-83201000D01*
X134246952Y-83153380D01*
X134294571Y-83105761D01*
X134342190Y-83010523D01*
X134342190Y-82629571D01*
X134294571Y-83629571D02*
X134294571Y-83962904D01*
X134818380Y-84105761D02*
X134818380Y-83629571D01*
X133818380Y-83629571D01*
X133818380Y-84105761D01*
X134818380Y-85010523D02*
X134818380Y-84534333D01*
X133818380Y-84534333D01*
X134294571Y-85343857D02*
X134294571Y-85677190D01*
X134818380Y-85820047D02*
X134818380Y-85343857D01*
X133818380Y-85343857D01*
X133818380Y-85820047D01*
X131072000Y-83439095D02*
X131024380Y-83343857D01*
X131024380Y-83201000D01*
X131072000Y-83058142D01*
X131167238Y-82962904D01*
X131262476Y-82915285D01*
X131452952Y-82867666D01*
X131595809Y-82867666D01*
X131786285Y-82915285D01*
X131881523Y-82962904D01*
X131976761Y-83058142D01*
X132024380Y-83201000D01*
X132024380Y-83296238D01*
X131976761Y-83439095D01*
X131929142Y-83486714D01*
X131595809Y-83486714D01*
X131595809Y-83296238D01*
X132024380Y-83915285D02*
X131024380Y-83915285D01*
X132024380Y-84486714D01*
X131024380Y-84486714D01*
X132024380Y-84962904D02*
X131024380Y-84962904D01*
X131024380Y-85201000D01*
X131072000Y-85343857D01*
X131167238Y-85439095D01*
X131262476Y-85486714D01*
X131452952Y-85534333D01*
X131595809Y-85534333D01*
X131786285Y-85486714D01*
X131881523Y-85439095D01*
X131976761Y-85343857D01*
X132024380Y-85201000D01*
X132024380Y-84962904D01*
X143827476Y-107656380D02*
X144303666Y-107656380D01*
X144351285Y-108132571D01*
X144303666Y-108084952D01*
X144208428Y-108037333D01*
X143970333Y-108037333D01*
X143875095Y-108084952D01*
X143827476Y-108132571D01*
X143779857Y-108227809D01*
X143779857Y-108465904D01*
X143827476Y-108561142D01*
X143875095Y-108608761D01*
X143970333Y-108656380D01*
X144208428Y-108656380D01*
X144303666Y-108608761D01*
X144351285Y-108561142D01*
X143494142Y-107656380D02*
X143160809Y-108656380D01*
X142827476Y-107656380D01*
X144502095Y-98369380D02*
X144502095Y-97369380D01*
X144264000Y-97369380D01*
X144121142Y-97417000D01*
X144025904Y-97512238D01*
X143978285Y-97607476D01*
X143930666Y-97797952D01*
X143930666Y-97940809D01*
X143978285Y-98131285D01*
X144025904Y-98226523D01*
X144121142Y-98321761D01*
X144264000Y-98369380D01*
X144502095Y-98369380D01*
X143549714Y-97464619D02*
X143502095Y-97417000D01*
X143406857Y-97369380D01*
X143168761Y-97369380D01*
X143073523Y-97417000D01*
X143025904Y-97464619D01*
X142978285Y-97559857D01*
X142978285Y-97655095D01*
X143025904Y-97797952D01*
X143597333Y-98369380D01*
X142978285Y-98369380D01*
X143930666Y-93289380D02*
X144264000Y-92813190D01*
X144502095Y-93289380D02*
X144502095Y-92289380D01*
X144121142Y-92289380D01*
X144025904Y-92337000D01*
X143978285Y-92384619D01*
X143930666Y-92479857D01*
X143930666Y-92622714D01*
X143978285Y-92717952D01*
X144025904Y-92765571D01*
X144121142Y-92813190D01*
X144502095Y-92813190D01*
X143597333Y-92289380D02*
X142930666Y-93289380D01*
X142930666Y-92289380D02*
X143597333Y-93289380D01*
X144525904Y-89749380D02*
X143954476Y-89749380D01*
X144240190Y-90749380D02*
X144240190Y-89749380D01*
X143716380Y-89749380D02*
X143049714Y-90749380D01*
X143049714Y-89749380D02*
X143716380Y-90749380D01*
X144502095Y-101036380D02*
X144502095Y-100036380D01*
X144264000Y-100036380D01*
X144121142Y-100084000D01*
X144025904Y-100179238D01*
X143978285Y-100274476D01*
X143930666Y-100464952D01*
X143930666Y-100607809D01*
X143978285Y-100798285D01*
X144025904Y-100893523D01*
X144121142Y-100988761D01*
X144264000Y-101036380D01*
X144502095Y-101036380D01*
X143597333Y-100036380D02*
X142978285Y-100036380D01*
X143311619Y-100417333D01*
X143168761Y-100417333D01*
X143073523Y-100464952D01*
X143025904Y-100512571D01*
X142978285Y-100607809D01*
X142978285Y-100845904D01*
X143025904Y-100941142D01*
X143073523Y-100988761D01*
X143168761Y-101036380D01*
X143454476Y-101036380D01*
X143549714Y-100988761D01*
X143597333Y-100941142D01*
X144525904Y-105037000D02*
X144621142Y-104989380D01*
X144764000Y-104989380D01*
X144906857Y-105037000D01*
X145002095Y-105132238D01*
X145049714Y-105227476D01*
X145097333Y-105417952D01*
X145097333Y-105560809D01*
X145049714Y-105751285D01*
X145002095Y-105846523D01*
X144906857Y-105941761D01*
X144764000Y-105989380D01*
X144668761Y-105989380D01*
X144525904Y-105941761D01*
X144478285Y-105894142D01*
X144478285Y-105560809D01*
X144668761Y-105560809D01*
X144049714Y-105989380D02*
X144049714Y-104989380D01*
X143478285Y-105989380D01*
X143478285Y-104989380D01*
X143002095Y-105989380D02*
X143002095Y-104989380D01*
X142764000Y-104989380D01*
X142621142Y-105037000D01*
X142525904Y-105132238D01*
X142478285Y-105227476D01*
X142430666Y-105417952D01*
X142430666Y-105560809D01*
X142478285Y-105751285D01*
X142525904Y-105846523D01*
X142621142Y-105941761D01*
X142764000Y-105989380D01*
X143002095Y-105989380D01*
X144502095Y-103576380D02*
X144502095Y-102576380D01*
X144264000Y-102576380D01*
X144121142Y-102624000D01*
X144025904Y-102719238D01*
X143978285Y-102814476D01*
X143930666Y-103004952D01*
X143930666Y-103147809D01*
X143978285Y-103338285D01*
X144025904Y-103433523D01*
X144121142Y-103528761D01*
X144264000Y-103576380D01*
X144502095Y-103576380D01*
X143073523Y-102909714D02*
X143073523Y-103576380D01*
X143311619Y-102528761D02*
X143549714Y-103243047D01*
X142930666Y-103243047D01*
X144502095Y-95829380D02*
X144502095Y-94829380D01*
X144264000Y-94829380D01*
X144121142Y-94877000D01*
X144025904Y-94972238D01*
X143978285Y-95067476D01*
X143930666Y-95257952D01*
X143930666Y-95400809D01*
X143978285Y-95591285D01*
X144025904Y-95686523D01*
X144121142Y-95781761D01*
X144264000Y-95829380D01*
X144502095Y-95829380D01*
X142978285Y-95829380D02*
X143549714Y-95829380D01*
X143264000Y-95829380D02*
X143264000Y-94829380D01*
X143359238Y-94972238D01*
X143454476Y-95067476D01*
X143549714Y-95115095D01*
X128873095Y-107656380D02*
X128254047Y-107656380D01*
X128587380Y-108037333D01*
X128444523Y-108037333D01*
X128349285Y-108084952D01*
X128301666Y-108132571D01*
X128254047Y-108227809D01*
X128254047Y-108465904D01*
X128301666Y-108561142D01*
X128349285Y-108608761D01*
X128444523Y-108656380D01*
X128730238Y-108656380D01*
X128825476Y-108608761D01*
X128873095Y-108561142D01*
X127968333Y-107656380D02*
X127635000Y-108656380D01*
X127301666Y-107656380D01*
X127063571Y-107656380D02*
X126444523Y-107656380D01*
X126777857Y-108037333D01*
X126635000Y-108037333D01*
X126539761Y-108084952D01*
X126492142Y-108132571D01*
X126444523Y-108227809D01*
X126444523Y-108465904D01*
X126492142Y-108561142D01*
X126539761Y-108608761D01*
X126635000Y-108656380D01*
X126920714Y-108656380D01*
X127015952Y-108608761D01*
X127063571Y-108561142D01*
X128500095Y-98496380D02*
X128500095Y-97496380D01*
X128262000Y-97496380D01*
X128119142Y-97544000D01*
X128023904Y-97639238D01*
X127976285Y-97734476D01*
X127928666Y-97924952D01*
X127928666Y-98067809D01*
X127976285Y-98258285D01*
X128023904Y-98353523D01*
X128119142Y-98448761D01*
X128262000Y-98496380D01*
X128500095Y-98496380D01*
X127023904Y-97496380D02*
X127500095Y-97496380D01*
X127547714Y-97972571D01*
X127500095Y-97924952D01*
X127404857Y-97877333D01*
X127166761Y-97877333D01*
X127071523Y-97924952D01*
X127023904Y-97972571D01*
X126976285Y-98067809D01*
X126976285Y-98305904D01*
X127023904Y-98401142D01*
X127071523Y-98448761D01*
X127166761Y-98496380D01*
X127404857Y-98496380D01*
X127500095Y-98448761D01*
X127547714Y-98401142D01*
X128500095Y-95956380D02*
X128500095Y-94956380D01*
X128262000Y-94956380D01*
X128119142Y-95004000D01*
X128023904Y-95099238D01*
X127976285Y-95194476D01*
X127928666Y-95384952D01*
X127928666Y-95527809D01*
X127976285Y-95718285D01*
X128023904Y-95813523D01*
X128119142Y-95908761D01*
X128262000Y-95956380D01*
X128500095Y-95956380D01*
X127309619Y-94956380D02*
X127214380Y-94956380D01*
X127119142Y-95004000D01*
X127071523Y-95051619D01*
X127023904Y-95146857D01*
X126976285Y-95337333D01*
X126976285Y-95575428D01*
X127023904Y-95765904D01*
X127071523Y-95861142D01*
X127119142Y-95908761D01*
X127214380Y-95956380D01*
X127309619Y-95956380D01*
X127404857Y-95908761D01*
X127452476Y-95861142D01*
X127500095Y-95765904D01*
X127547714Y-95575428D01*
X127547714Y-95337333D01*
X127500095Y-95146857D01*
X127452476Y-95051619D01*
X127404857Y-95004000D01*
X127309619Y-94956380D01*
X128500095Y-103449380D02*
X128500095Y-102449380D01*
X128262000Y-102449380D01*
X128119142Y-102497000D01*
X128023904Y-102592238D01*
X127976285Y-102687476D01*
X127928666Y-102877952D01*
X127928666Y-103020809D01*
X127976285Y-103211285D01*
X128023904Y-103306523D01*
X128119142Y-103401761D01*
X128262000Y-103449380D01*
X128500095Y-103449380D01*
X127595333Y-102449380D02*
X126928666Y-102449380D01*
X127357238Y-103449380D01*
X128476285Y-93130666D02*
X128000095Y-93130666D01*
X128571523Y-93416380D02*
X128238190Y-92416380D01*
X127904857Y-93416380D01*
X127381047Y-92416380D02*
X127285809Y-92416380D01*
X127190571Y-92464000D01*
X127142952Y-92511619D01*
X127095333Y-92606857D01*
X127047714Y-92797333D01*
X127047714Y-93035428D01*
X127095333Y-93225904D01*
X127142952Y-93321142D01*
X127190571Y-93368761D01*
X127285809Y-93416380D01*
X127381047Y-93416380D01*
X127476285Y-93368761D01*
X127523904Y-93321142D01*
X127571523Y-93225904D01*
X127619142Y-93035428D01*
X127619142Y-92797333D01*
X127571523Y-92606857D01*
X127523904Y-92511619D01*
X127476285Y-92464000D01*
X127381047Y-92416380D01*
X128309619Y-90622380D02*
X128642952Y-90146190D01*
X128881047Y-90622380D02*
X128881047Y-89622380D01*
X128500095Y-89622380D01*
X128404857Y-89670000D01*
X128357238Y-89717619D01*
X128309619Y-89812857D01*
X128309619Y-89955714D01*
X128357238Y-90050952D01*
X128404857Y-90098571D01*
X128500095Y-90146190D01*
X128881047Y-90146190D01*
X127928666Y-90574761D02*
X127785809Y-90622380D01*
X127547714Y-90622380D01*
X127452476Y-90574761D01*
X127404857Y-90527142D01*
X127357238Y-90431904D01*
X127357238Y-90336666D01*
X127404857Y-90241428D01*
X127452476Y-90193809D01*
X127547714Y-90146190D01*
X127738190Y-90098571D01*
X127833428Y-90050952D01*
X127881047Y-90003333D01*
X127928666Y-89908095D01*
X127928666Y-89812857D01*
X127881047Y-89717619D01*
X127833428Y-89670000D01*
X127738190Y-89622380D01*
X127500095Y-89622380D01*
X127357238Y-89670000D01*
X127071523Y-89622380D02*
X126500095Y-89622380D01*
X126785809Y-90622380D02*
X126785809Y-89622380D01*
X128500095Y-100909380D02*
X128500095Y-99909380D01*
X128262000Y-99909380D01*
X128119142Y-99957000D01*
X128023904Y-100052238D01*
X127976285Y-100147476D01*
X127928666Y-100337952D01*
X127928666Y-100480809D01*
X127976285Y-100671285D01*
X128023904Y-100766523D01*
X128119142Y-100861761D01*
X128262000Y-100909380D01*
X128500095Y-100909380D01*
X127071523Y-99909380D02*
X127262000Y-99909380D01*
X127357238Y-99957000D01*
X127404857Y-100004619D01*
X127500095Y-100147476D01*
X127547714Y-100337952D01*
X127547714Y-100718904D01*
X127500095Y-100814142D01*
X127452476Y-100861761D01*
X127357238Y-100909380D01*
X127166761Y-100909380D01*
X127071523Y-100861761D01*
X127023904Y-100814142D01*
X126976285Y-100718904D01*
X126976285Y-100480809D01*
X127023904Y-100385571D01*
X127071523Y-100337952D01*
X127166761Y-100290333D01*
X127357238Y-100290333D01*
X127452476Y-100337952D01*
X127500095Y-100385571D01*
X127547714Y-100480809D01*
X128500095Y-105989380D02*
X128500095Y-104989380D01*
X128262000Y-104989380D01*
X128119142Y-105037000D01*
X128023904Y-105132238D01*
X127976285Y-105227476D01*
X127928666Y-105417952D01*
X127928666Y-105560809D01*
X127976285Y-105751285D01*
X128023904Y-105846523D01*
X128119142Y-105941761D01*
X128262000Y-105989380D01*
X128500095Y-105989380D01*
X127357238Y-105417952D02*
X127452476Y-105370333D01*
X127500095Y-105322714D01*
X127547714Y-105227476D01*
X127547714Y-105179857D01*
X127500095Y-105084619D01*
X127452476Y-105037000D01*
X127357238Y-104989380D01*
X127166761Y-104989380D01*
X127071523Y-105037000D01*
X127023904Y-105084619D01*
X126976285Y-105179857D01*
X126976285Y-105227476D01*
X127023904Y-105322714D01*
X127071523Y-105370333D01*
X127166761Y-105417952D01*
X127357238Y-105417952D01*
X127452476Y-105465571D01*
X127500095Y-105513190D01*
X127547714Y-105608428D01*
X127547714Y-105798904D01*
X127500095Y-105894142D01*
X127452476Y-105941761D01*
X127357238Y-105989380D01*
X127166761Y-105989380D01*
X127071523Y-105941761D01*
X127023904Y-105894142D01*
X126976285Y-105798904D01*
X126976285Y-105608428D01*
X127023904Y-105513190D01*
X127071523Y-105465571D01*
X127166761Y-105417952D01*
D11*
%TO.C,J5*%
X133367000Y-69416000D02*
X145767000Y-69416000D01*
X145767000Y-69416000D02*
X145767000Y-63946000D01*
X145767000Y-56016000D02*
X145767000Y-60486000D01*
X145767000Y-56016000D02*
X133367000Y-56016000D01*
X133367000Y-56016000D02*
X133367000Y-60486000D01*
X133367000Y-63946000D02*
X133367000Y-69416000D01*
X146377000Y-64016000D02*
X145877000Y-64516000D01*
X145877000Y-64516000D02*
X146377000Y-65016000D01*
X146377000Y-65016000D02*
X146377000Y-64016000D01*
%TD*%
%TO.C,J5*%
D10*
X132032333Y-64857380D02*
X132032333Y-65571666D01*
X132079952Y-65714523D01*
X132175190Y-65809761D01*
X132318047Y-65857380D01*
X132413285Y-65857380D01*
X131079952Y-64857380D02*
X131556142Y-64857380D01*
X131603761Y-65333571D01*
X131556142Y-65285952D01*
X131460904Y-65238333D01*
X131222809Y-65238333D01*
X131127571Y-65285952D01*
X131079952Y-65333571D01*
X131032333Y-65428809D01*
X131032333Y-65666904D01*
X131079952Y-65762142D01*
X131127571Y-65809761D01*
X131222809Y-65857380D01*
X131460904Y-65857380D01*
X131556142Y-65809761D01*
X131603761Y-65762142D01*
%TD*%
M02*
