%TF.GenerationSoftware,KiCad,Pcbnew,(5.1.7)-1*%
%TF.CreationDate,2021-02-24T18:28:04+01:00*%
%TF.ProjectId,Temperature-controller-with-ESP8266,54656d70-6572-4617-9475-72652d636f6e,rev?*%
%TF.SameCoordinates,Original*%
%TF.FileFunction,Copper,L1,Top*%
%TF.FilePolarity,Positive*%
%FSLAX46Y46*%
G04 Gerber Fmt 4.6, Leading zero omitted, Abs format (unit mm)*
G04 Created by KiCad (PCBNEW (5.1.7)-1) date 2021-02-24 18:28:04*
%MOMM*%
%LPD*%
G01*
G04 APERTURE LIST*
%TA.AperFunction,SMDPad,CuDef*%
%ADD10R,1.800000X1.100000*%
%TD*%
%TA.AperFunction,ComponentPad*%
%ADD11R,1.500000X1.500000*%
%TD*%
%TA.AperFunction,ComponentPad*%
%ADD12C,1.500000*%
%TD*%
%TA.AperFunction,ComponentPad*%
%ADD13O,1.700000X1.700000*%
%TD*%
%TA.AperFunction,ComponentPad*%
%ADD14R,1.700000X1.700000*%
%TD*%
%TA.AperFunction,SMDPad,CuDef*%
%ADD15R,2.500000X1.000000*%
%TD*%
%TA.AperFunction,SMDPad,CuDef*%
%ADD16R,1.000000X1.800000*%
%TD*%
%TA.AperFunction,SMDPad,CuDef*%
%ADD17R,1.500000X2.000000*%
%TD*%
%TA.AperFunction,SMDPad,CuDef*%
%ADD18R,3.800000X2.000000*%
%TD*%
%TA.AperFunction,SMDPad,CuDef*%
%ADD19R,2.050000X4.000000*%
%TD*%
%TA.AperFunction,SMDPad,CuDef*%
%ADD20R,2.050000X3.500000*%
%TD*%
%TA.AperFunction,SMDPad,CuDef*%
%ADD21R,0.500000X3.000000*%
%TD*%
%TA.AperFunction,ComponentPad*%
%ADD22C,1.800000*%
%TD*%
%TA.AperFunction,ComponentPad*%
%ADD23R,1.800000X1.800000*%
%TD*%
%TA.AperFunction,SMDPad,CuDef*%
%ADD24R,1.200000X1.400000*%
%TD*%
%TA.AperFunction,ComponentPad*%
%ADD25O,2.200000X3.500000*%
%TD*%
%TA.AperFunction,ComponentPad*%
%ADD26O,1.500000X2.500000*%
%TD*%
%TA.AperFunction,ComponentPad*%
%ADD27R,1.500000X2.500000*%
%TD*%
%TA.AperFunction,SMDPad,CuDef*%
%ADD28R,0.800000X0.900000*%
%TD*%
%TA.AperFunction,ViaPad*%
%ADD29C,0.800000*%
%TD*%
%TA.AperFunction,Conductor*%
%ADD30C,0.300000*%
%TD*%
%TA.AperFunction,Conductor*%
%ADD31C,0.800000*%
%TD*%
%TA.AperFunction,Conductor*%
%ADD32C,1.500000*%
%TD*%
%TA.AperFunction,Conductor*%
%ADD33C,0.254000*%
%TD*%
%TA.AperFunction,Conductor*%
%ADD34C,0.100000*%
%TD*%
G04 APERTURE END LIST*
%TO.P,C3,2*%
%TO.N,GND*%
%TA.AperFunction,SMDPad,CuDef*%
G36*
G01*
X124010000Y-78646000D02*
X124010000Y-79596000D01*
G75*
G02*
X123760000Y-79846000I-250000J0D01*
G01*
X123260000Y-79846000D01*
G75*
G02*
X123010000Y-79596000I0J250000D01*
G01*
X123010000Y-78646000D01*
G75*
G02*
X123260000Y-78396000I250000J0D01*
G01*
X123760000Y-78396000D01*
G75*
G02*
X124010000Y-78646000I0J-250000D01*
G01*
G37*
%TD.AperFunction*%
%TO.P,C3,1*%
%TO.N,+5V*%
%TA.AperFunction,SMDPad,CuDef*%
G36*
G01*
X125910000Y-78646000D02*
X125910000Y-79596000D01*
G75*
G02*
X125660000Y-79846000I-250000J0D01*
G01*
X125160000Y-79846000D01*
G75*
G02*
X124910000Y-79596000I0J250000D01*
G01*
X124910000Y-78646000D01*
G75*
G02*
X125160000Y-78396000I250000J0D01*
G01*
X125660000Y-78396000D01*
G75*
G02*
X125910000Y-78646000I0J-250000D01*
G01*
G37*
%TD.AperFunction*%
%TD*%
D10*
%TO.P,SW1,2*%
%TO.N,RST*%
X125782000Y-86813000D03*
X119582000Y-86813000D03*
%TO.P,SW1,1*%
%TO.N,GND*%
X125782000Y-83113000D03*
X119582000Y-83113000D03*
%TD*%
D11*
%TO.P,J5,1*%
%TO.N,GND*%
X141097000Y-64516000D03*
D12*
%TO.P,J5,2*%
%TO.N,DATA*%
X140077000Y-67056000D03*
%TO.P,J5,3*%
%TO.N,N/C*%
X139057000Y-64516000D03*
%TO.P,J5,4*%
%TO.N,+3V3*%
X138037000Y-67056000D03*
%TD*%
%TO.P,R8,2*%
%TO.N,BUTTON*%
%TA.AperFunction,SMDPad,CuDef*%
G36*
G01*
X117240000Y-97097002D02*
X117240000Y-96196998D01*
G75*
G02*
X117489998Y-95947000I249998J0D01*
G01*
X118015002Y-95947000D01*
G75*
G02*
X118265000Y-96196998I0J-249998D01*
G01*
X118265000Y-97097002D01*
G75*
G02*
X118015002Y-97347000I-249998J0D01*
G01*
X117489998Y-97347000D01*
G75*
G02*
X117240000Y-97097002I0J249998D01*
G01*
G37*
%TD.AperFunction*%
%TO.P,R8,1*%
%TO.N,+3V3*%
%TA.AperFunction,SMDPad,CuDef*%
G36*
G01*
X115415000Y-97097002D02*
X115415000Y-96196998D01*
G75*
G02*
X115664998Y-95947000I249998J0D01*
G01*
X116190002Y-95947000D01*
G75*
G02*
X116440000Y-96196998I0J-249998D01*
G01*
X116440000Y-97097002D01*
G75*
G02*
X116190002Y-97347000I-249998J0D01*
G01*
X115664998Y-97347000D01*
G75*
G02*
X115415000Y-97097002I0J249998D01*
G01*
G37*
%TD.AperFunction*%
%TD*%
%TO.P,U6,8*%
%TO.N,+3V3*%
%TA.AperFunction,SMDPad,CuDef*%
G36*
G01*
X152678000Y-87607000D02*
X152678000Y-87907000D01*
G75*
G02*
X152528000Y-88057000I-150000J0D01*
G01*
X150878000Y-88057000D01*
G75*
G02*
X150728000Y-87907000I0J150000D01*
G01*
X150728000Y-87607000D01*
G75*
G02*
X150878000Y-87457000I150000J0D01*
G01*
X152528000Y-87457000D01*
G75*
G02*
X152678000Y-87607000I0J-150000D01*
G01*
G37*
%TD.AperFunction*%
%TO.P,U6,7*%
%TO.N,GND*%
%TA.AperFunction,SMDPad,CuDef*%
G36*
G01*
X152678000Y-86337000D02*
X152678000Y-86637000D01*
G75*
G02*
X152528000Y-86787000I-150000J0D01*
G01*
X150878000Y-86787000D01*
G75*
G02*
X150728000Y-86637000I0J150000D01*
G01*
X150728000Y-86337000D01*
G75*
G02*
X150878000Y-86187000I150000J0D01*
G01*
X152528000Y-86187000D01*
G75*
G02*
X152678000Y-86337000I0J-150000D01*
G01*
G37*
%TD.AperFunction*%
%TO.P,U6,6*%
%TO.N,GPIO5*%
%TA.AperFunction,SMDPad,CuDef*%
G36*
G01*
X152678000Y-85067000D02*
X152678000Y-85367000D01*
G75*
G02*
X152528000Y-85517000I-150000J0D01*
G01*
X150878000Y-85517000D01*
G75*
G02*
X150728000Y-85367000I0J150000D01*
G01*
X150728000Y-85067000D01*
G75*
G02*
X150878000Y-84917000I150000J0D01*
G01*
X152528000Y-84917000D01*
G75*
G02*
X152678000Y-85067000I0J-150000D01*
G01*
G37*
%TD.AperFunction*%
%TO.P,U6,5*%
%TO.N,GPIO4*%
%TA.AperFunction,SMDPad,CuDef*%
G36*
G01*
X152678000Y-83797000D02*
X152678000Y-84097000D01*
G75*
G02*
X152528000Y-84247000I-150000J0D01*
G01*
X150878000Y-84247000D01*
G75*
G02*
X150728000Y-84097000I0J150000D01*
G01*
X150728000Y-83797000D01*
G75*
G02*
X150878000Y-83647000I150000J0D01*
G01*
X152528000Y-83647000D01*
G75*
G02*
X152678000Y-83797000I0J-150000D01*
G01*
G37*
%TD.AperFunction*%
%TO.P,U6,4*%
%TO.N,GND*%
%TA.AperFunction,SMDPad,CuDef*%
G36*
G01*
X157628000Y-83797000D02*
X157628000Y-84097000D01*
G75*
G02*
X157478000Y-84247000I-150000J0D01*
G01*
X155828000Y-84247000D01*
G75*
G02*
X155678000Y-84097000I0J150000D01*
G01*
X155678000Y-83797000D01*
G75*
G02*
X155828000Y-83647000I150000J0D01*
G01*
X157478000Y-83647000D01*
G75*
G02*
X157628000Y-83797000I0J-150000D01*
G01*
G37*
%TD.AperFunction*%
%TO.P,U6,3*%
%TA.AperFunction,SMDPad,CuDef*%
G36*
G01*
X157628000Y-85067000D02*
X157628000Y-85367000D01*
G75*
G02*
X157478000Y-85517000I-150000J0D01*
G01*
X155828000Y-85517000D01*
G75*
G02*
X155678000Y-85367000I0J150000D01*
G01*
X155678000Y-85067000D01*
G75*
G02*
X155828000Y-84917000I150000J0D01*
G01*
X157478000Y-84917000D01*
G75*
G02*
X157628000Y-85067000I0J-150000D01*
G01*
G37*
%TD.AperFunction*%
%TO.P,U6,2*%
%TA.AperFunction,SMDPad,CuDef*%
G36*
G01*
X157628000Y-86337000D02*
X157628000Y-86637000D01*
G75*
G02*
X157478000Y-86787000I-150000J0D01*
G01*
X155828000Y-86787000D01*
G75*
G02*
X155678000Y-86637000I0J150000D01*
G01*
X155678000Y-86337000D01*
G75*
G02*
X155828000Y-86187000I150000J0D01*
G01*
X157478000Y-86187000D01*
G75*
G02*
X157628000Y-86337000I0J-150000D01*
G01*
G37*
%TD.AperFunction*%
%TO.P,U6,1*%
%TA.AperFunction,SMDPad,CuDef*%
G36*
G01*
X157628000Y-87607000D02*
X157628000Y-87907000D01*
G75*
G02*
X157478000Y-88057000I-150000J0D01*
G01*
X155828000Y-88057000D01*
G75*
G02*
X155678000Y-87907000I0J150000D01*
G01*
X155678000Y-87607000D01*
G75*
G02*
X155828000Y-87457000I150000J0D01*
G01*
X157478000Y-87457000D01*
G75*
G02*
X157628000Y-87607000I0J-150000D01*
G01*
G37*
%TD.AperFunction*%
%TD*%
%TO.P,R4,2*%
%TO.N,GPIO1*%
%TA.AperFunction,SMDPad,CuDef*%
G36*
G01*
X153270000Y-92132998D02*
X153270000Y-93033002D01*
G75*
G02*
X153020002Y-93283000I-249998J0D01*
G01*
X152494998Y-93283000D01*
G75*
G02*
X152245000Y-93033002I0J249998D01*
G01*
X152245000Y-92132998D01*
G75*
G02*
X152494998Y-91883000I249998J0D01*
G01*
X153020002Y-91883000D01*
G75*
G02*
X153270000Y-92132998I0J-249998D01*
G01*
G37*
%TD.AperFunction*%
%TO.P,R4,1*%
%TO.N,Net-(R4-Pad1)*%
%TA.AperFunction,SMDPad,CuDef*%
G36*
G01*
X155095000Y-92132998D02*
X155095000Y-93033002D01*
G75*
G02*
X154845002Y-93283000I-249998J0D01*
G01*
X154319998Y-93283000D01*
G75*
G02*
X154070000Y-93033002I0J249998D01*
G01*
X154070000Y-92132998D01*
G75*
G02*
X154319998Y-91883000I249998J0D01*
G01*
X154845002Y-91883000D01*
G75*
G02*
X155095000Y-92132998I0J-249998D01*
G01*
G37*
%TD.AperFunction*%
%TD*%
%TO.P,R3,2*%
%TO.N,Net-(R3-Pad2)*%
%TA.AperFunction,SMDPad,CuDef*%
G36*
G01*
X154070000Y-96970002D02*
X154070000Y-96069998D01*
G75*
G02*
X154319998Y-95820000I249998J0D01*
G01*
X154845002Y-95820000D01*
G75*
G02*
X155095000Y-96069998I0J-249998D01*
G01*
X155095000Y-96970002D01*
G75*
G02*
X154845002Y-97220000I-249998J0D01*
G01*
X154319998Y-97220000D01*
G75*
G02*
X154070000Y-96970002I0J249998D01*
G01*
G37*
%TD.AperFunction*%
%TO.P,R3,1*%
%TO.N,GPIO3*%
%TA.AperFunction,SMDPad,CuDef*%
G36*
G01*
X152245000Y-96970002D02*
X152245000Y-96069998D01*
G75*
G02*
X152494998Y-95820000I249998J0D01*
G01*
X153020002Y-95820000D01*
G75*
G02*
X153270000Y-96069998I0J-249998D01*
G01*
X153270000Y-96970002D01*
G75*
G02*
X153020002Y-97220000I-249998J0D01*
G01*
X152494998Y-97220000D01*
G75*
G02*
X152245000Y-96970002I0J249998D01*
G01*
G37*
%TD.AperFunction*%
%TD*%
%TO.P,R10,2*%
%TO.N,+3V3*%
%TA.AperFunction,SMDPad,CuDef*%
G36*
G01*
X154070000Y-105098002D02*
X154070000Y-104197998D01*
G75*
G02*
X154319998Y-103948000I249998J0D01*
G01*
X154845002Y-103948000D01*
G75*
G02*
X155095000Y-104197998I0J-249998D01*
G01*
X155095000Y-105098002D01*
G75*
G02*
X154845002Y-105348000I-249998J0D01*
G01*
X154319998Y-105348000D01*
G75*
G02*
X154070000Y-105098002I0J249998D01*
G01*
G37*
%TD.AperFunction*%
%TO.P,R10,1*%
%TO.N,GPIO2*%
%TA.AperFunction,SMDPad,CuDef*%
G36*
G01*
X152245000Y-105098002D02*
X152245000Y-104197998D01*
G75*
G02*
X152494998Y-103948000I249998J0D01*
G01*
X153020002Y-103948000D01*
G75*
G02*
X153270000Y-104197998I0J-249998D01*
G01*
X153270000Y-105098002D01*
G75*
G02*
X153020002Y-105348000I-249998J0D01*
G01*
X152494998Y-105348000D01*
G75*
G02*
X152245000Y-105098002I0J249998D01*
G01*
G37*
%TD.AperFunction*%
%TD*%
%TO.P,R9,2*%
%TO.N,GND*%
%TA.AperFunction,SMDPad,CuDef*%
G36*
G01*
X141751000Y-110813002D02*
X141751000Y-109912998D01*
G75*
G02*
X142000998Y-109663000I249998J0D01*
G01*
X142526002Y-109663000D01*
G75*
G02*
X142776000Y-109912998I0J-249998D01*
G01*
X142776000Y-110813002D01*
G75*
G02*
X142526002Y-111063000I-249998J0D01*
G01*
X142000998Y-111063000D01*
G75*
G02*
X141751000Y-110813002I0J249998D01*
G01*
G37*
%TD.AperFunction*%
%TO.P,R9,1*%
%TO.N,GPIO15*%
%TA.AperFunction,SMDPad,CuDef*%
G36*
G01*
X139926000Y-110813002D02*
X139926000Y-109912998D01*
G75*
G02*
X140175998Y-109663000I249998J0D01*
G01*
X140701002Y-109663000D01*
G75*
G02*
X140951000Y-109912998I0J-249998D01*
G01*
X140951000Y-110813002D01*
G75*
G02*
X140701002Y-111063000I-249998J0D01*
G01*
X140175998Y-111063000D01*
G75*
G02*
X139926000Y-110813002I0J249998D01*
G01*
G37*
%TD.AperFunction*%
%TD*%
%TO.P,R7,2*%
%TO.N,+3V3*%
%TA.AperFunction,SMDPad,CuDef*%
G36*
G01*
X154070000Y-101161002D02*
X154070000Y-100260998D01*
G75*
G02*
X154319998Y-100011000I249998J0D01*
G01*
X154845002Y-100011000D01*
G75*
G02*
X155095000Y-100260998I0J-249998D01*
G01*
X155095000Y-101161002D01*
G75*
G02*
X154845002Y-101411000I-249998J0D01*
G01*
X154319998Y-101411000D01*
G75*
G02*
X154070000Y-101161002I0J249998D01*
G01*
G37*
%TD.AperFunction*%
%TO.P,R7,1*%
%TO.N,GPIO0*%
%TA.AperFunction,SMDPad,CuDef*%
G36*
G01*
X152245000Y-101161002D02*
X152245000Y-100260998D01*
G75*
G02*
X152494998Y-100011000I249998J0D01*
G01*
X153020002Y-100011000D01*
G75*
G02*
X153270000Y-100260998I0J-249998D01*
G01*
X153270000Y-101161002D01*
G75*
G02*
X153020002Y-101411000I-249998J0D01*
G01*
X152494998Y-101411000D01*
G75*
G02*
X152245000Y-101161002I0J249998D01*
G01*
G37*
%TD.AperFunction*%
%TD*%
D13*
%TO.P,J2,4*%
%TO.N,GND*%
X131699000Y-80645000D03*
%TO.P,J2,3*%
%TO.N,GPIO14*%
X134239000Y-80645000D03*
%TO.P,J2,2*%
%TO.N,RELE_D*%
X136779000Y-80645000D03*
D14*
%TO.P,J2,1*%
%TO.N,+5V*%
X139319000Y-80645000D03*
%TD*%
D15*
%TO.P,U1,22*%
%TO.N,GPIO1*%
X143363000Y-92004000D03*
%TO.P,U1,21*%
%TO.N,GPIO3*%
X143363000Y-94004000D03*
%TO.P,U1,20*%
%TO.N,GPIO5*%
X143363000Y-96004000D03*
%TO.P,U1,19*%
%TO.N,GPIO4*%
X143363000Y-98004000D03*
%TO.P,U1,18*%
%TO.N,GPIO0*%
X143363000Y-100004000D03*
%TO.P,U1,17*%
%TO.N,GPIO2*%
X143363000Y-102004000D03*
%TO.P,U1,16*%
%TO.N,GPIO15*%
X143363000Y-104004000D03*
%TO.P,U1,15*%
%TO.N,GND*%
X143363000Y-106004000D03*
D16*
%TO.P,U1,14*%
%TO.N,N/C*%
X140763000Y-107504000D03*
%TO.P,U1,13*%
X138763000Y-107504000D03*
%TO.P,U1,12*%
X136763000Y-107504000D03*
%TO.P,U1,11*%
X134763000Y-107504000D03*
%TO.P,U1,10*%
X132763000Y-107504000D03*
%TO.P,U1,9*%
X130763000Y-107504000D03*
D15*
%TO.P,U1,8*%
%TO.N,+3V3*%
X128163000Y-106004000D03*
%TO.P,U1,7*%
%TO.N,GPIO13*%
X128163000Y-104004000D03*
%TO.P,U1,6*%
%TO.N,DATA*%
X128163000Y-102004000D03*
%TO.P,U1,5*%
%TO.N,GPIO14*%
X128163000Y-100004000D03*
%TO.P,U1,4*%
%TO.N,N/C*%
X128163000Y-98004000D03*
%TO.P,U1,3*%
%TO.N,Net-(R2-Pad2)*%
X128163000Y-96004000D03*
%TO.P,U1,2*%
%TO.N,ADC*%
X128163000Y-94004000D03*
%TO.P,U1,1*%
%TO.N,RST*%
X128163000Y-92004000D03*
%TD*%
D17*
%TO.P,U5,1*%
%TO.N,GND*%
X121144000Y-73762000D03*
%TO.P,U5,3*%
%TO.N,+5V*%
X125744000Y-73762000D03*
%TO.P,U5,2*%
%TO.N,+3V3*%
X123444000Y-73762000D03*
D18*
X123444000Y-67462000D03*
%TD*%
D19*
%TO.P,J1,6*%
%TO.N,GND*%
X131392000Y-118745000D03*
D20*
X131392000Y-114495000D03*
D19*
X121592000Y-118745000D03*
D20*
X121592000Y-114495000D03*
D21*
%TO.P,J1,5*%
X128092000Y-114495000D03*
%TO.P,J1,4*%
%TO.N,N/C*%
X127292000Y-114495000D03*
%TO.P,J1,3*%
%TO.N,Net-(J1-Pad3)*%
X126492000Y-114495000D03*
%TO.P,J1,2*%
%TO.N,Net-(J1-Pad2)*%
X125692000Y-114495000D03*
%TO.P,J1,1*%
%TO.N,+5V*%
X124892000Y-114495000D03*
%TD*%
%TO.P,R11,2*%
%TO.N,Net-(D1-Pad2)*%
%TA.AperFunction,SMDPad,CuDef*%
G36*
G01*
X131006002Y-74426500D02*
X130105998Y-74426500D01*
G75*
G02*
X129856000Y-74176502I0J249998D01*
G01*
X129856000Y-73651498D01*
G75*
G02*
X130105998Y-73401500I249998J0D01*
G01*
X131006002Y-73401500D01*
G75*
G02*
X131256000Y-73651498I0J-249998D01*
G01*
X131256000Y-74176502D01*
G75*
G02*
X131006002Y-74426500I-249998J0D01*
G01*
G37*
%TD.AperFunction*%
%TO.P,R11,1*%
%TO.N,+5V*%
%TA.AperFunction,SMDPad,CuDef*%
G36*
G01*
X131006002Y-76251500D02*
X130105998Y-76251500D01*
G75*
G02*
X129856000Y-76001502I0J249998D01*
G01*
X129856000Y-75476498D01*
G75*
G02*
X130105998Y-75226500I249998J0D01*
G01*
X131006002Y-75226500D01*
G75*
G02*
X131256000Y-75476498I0J-249998D01*
G01*
X131256000Y-76001502D01*
G75*
G02*
X131006002Y-76251500I-249998J0D01*
G01*
G37*
%TD.AperFunction*%
%TD*%
D22*
%TO.P,D1,2*%
%TO.N,Net-(D1-Pad2)*%
X134874000Y-73406000D03*
D23*
%TO.P,D1,1*%
%TO.N,Net-(D1-Pad1)*%
X134874000Y-75946000D03*
%TD*%
D22*
%TO.P,D2,2*%
%TO.N,Net-(D2-Pad2)*%
X146558000Y-73533000D03*
D23*
%TO.P,D2,1*%
%TO.N,RELE_D*%
X146558000Y-76073000D03*
%TD*%
D24*
%TO.P,Y1,4*%
%TO.N,GND*%
X146370000Y-117151000D03*
%TO.P,Y1,3*%
%TO.N,Net-(C2-Pad1)*%
X146370000Y-114751000D03*
%TO.P,Y1,2*%
%TO.N,GND*%
X148270000Y-114751000D03*
%TO.P,Y1,1*%
%TO.N,Net-(C1-Pad1)*%
X148270000Y-117151000D03*
%TD*%
D25*
%TO.P,SW2,*%
%TO.N,*%
X116201000Y-61722000D03*
X124401000Y-61722000D03*
D26*
%TO.P,SW2,3*%
%TO.N,Net-(D1-Pad1)*%
X118301000Y-61722000D03*
%TO.P,SW2,2*%
%TO.N,GND*%
X120301000Y-61722000D03*
D27*
%TO.P,SW2,1*%
%TO.N,BUTTON*%
X122301000Y-61722000D03*
%TD*%
%TO.P,R2,2*%
%TO.N,Net-(R2-Pad2)*%
%TA.AperFunction,SMDPad,CuDef*%
G36*
G01*
X117240000Y-93922002D02*
X117240000Y-93021998D01*
G75*
G02*
X117489998Y-92772000I249998J0D01*
G01*
X118015002Y-92772000D01*
G75*
G02*
X118265000Y-93021998I0J-249998D01*
G01*
X118265000Y-93922002D01*
G75*
G02*
X118015002Y-94172000I-249998J0D01*
G01*
X117489998Y-94172000D01*
G75*
G02*
X117240000Y-93922002I0J249998D01*
G01*
G37*
%TD.AperFunction*%
%TO.P,R2,1*%
%TO.N,+3V3*%
%TA.AperFunction,SMDPad,CuDef*%
G36*
G01*
X115415000Y-93922002D02*
X115415000Y-93021998D01*
G75*
G02*
X115664998Y-92772000I249998J0D01*
G01*
X116190002Y-92772000D01*
G75*
G02*
X116440000Y-93021998I0J-249998D01*
G01*
X116440000Y-93922002D01*
G75*
G02*
X116190002Y-94172000I-249998J0D01*
G01*
X115664998Y-94172000D01*
G75*
G02*
X115415000Y-93922002I0J249998D01*
G01*
G37*
%TD.AperFunction*%
%TD*%
%TO.P,C1,2*%
%TO.N,GND*%
%TA.AperFunction,SMDPad,CuDef*%
G36*
G01*
X146870000Y-118905000D02*
X146870000Y-119855000D01*
G75*
G02*
X146620000Y-120105000I-250000J0D01*
G01*
X146120000Y-120105000D01*
G75*
G02*
X145870000Y-119855000I0J250000D01*
G01*
X145870000Y-118905000D01*
G75*
G02*
X146120000Y-118655000I250000J0D01*
G01*
X146620000Y-118655000D01*
G75*
G02*
X146870000Y-118905000I0J-250000D01*
G01*
G37*
%TD.AperFunction*%
%TO.P,C1,1*%
%TO.N,Net-(C1-Pad1)*%
%TA.AperFunction,SMDPad,CuDef*%
G36*
G01*
X148770000Y-118905000D02*
X148770000Y-119855000D01*
G75*
G02*
X148520000Y-120105000I-250000J0D01*
G01*
X148020000Y-120105000D01*
G75*
G02*
X147770000Y-119855000I0J250000D01*
G01*
X147770000Y-118905000D01*
G75*
G02*
X148020000Y-118655000I250000J0D01*
G01*
X148520000Y-118655000D01*
G75*
G02*
X148770000Y-118905000I0J-250000D01*
G01*
G37*
%TD.AperFunction*%
%TD*%
%TO.P,C2,2*%
%TO.N,GND*%
%TA.AperFunction,SMDPad,CuDef*%
G36*
G01*
X147770000Y-113124000D02*
X147770000Y-112174000D01*
G75*
G02*
X148020000Y-111924000I250000J0D01*
G01*
X148520000Y-111924000D01*
G75*
G02*
X148770000Y-112174000I0J-250000D01*
G01*
X148770000Y-113124000D01*
G75*
G02*
X148520000Y-113374000I-250000J0D01*
G01*
X148020000Y-113374000D01*
G75*
G02*
X147770000Y-113124000I0J250000D01*
G01*
G37*
%TD.AperFunction*%
%TO.P,C2,1*%
%TO.N,Net-(C2-Pad1)*%
%TA.AperFunction,SMDPad,CuDef*%
G36*
G01*
X145870000Y-113124000D02*
X145870000Y-112174000D01*
G75*
G02*
X146120000Y-111924000I250000J0D01*
G01*
X146620000Y-111924000D01*
G75*
G02*
X146870000Y-112174000I0J-250000D01*
G01*
X146870000Y-113124000D01*
G75*
G02*
X146620000Y-113374000I-250000J0D01*
G01*
X146120000Y-113374000D01*
G75*
G02*
X145870000Y-113124000I0J250000D01*
G01*
G37*
%TD.AperFunction*%
%TD*%
%TO.P,C4,2*%
%TO.N,GND*%
%TA.AperFunction,SMDPad,CuDef*%
G36*
G01*
X116492000Y-69411000D02*
X117442000Y-69411000D01*
G75*
G02*
X117692000Y-69661000I0J-250000D01*
G01*
X117692000Y-70161000D01*
G75*
G02*
X117442000Y-70411000I-250000J0D01*
G01*
X116492000Y-70411000D01*
G75*
G02*
X116242000Y-70161000I0J250000D01*
G01*
X116242000Y-69661000D01*
G75*
G02*
X116492000Y-69411000I250000J0D01*
G01*
G37*
%TD.AperFunction*%
%TO.P,C4,1*%
%TO.N,+3V3*%
%TA.AperFunction,SMDPad,CuDef*%
G36*
G01*
X116492000Y-67511000D02*
X117442000Y-67511000D01*
G75*
G02*
X117692000Y-67761000I0J-250000D01*
G01*
X117692000Y-68261000D01*
G75*
G02*
X117442000Y-68511000I-250000J0D01*
G01*
X116492000Y-68511000D01*
G75*
G02*
X116242000Y-68261000I0J250000D01*
G01*
X116242000Y-67761000D01*
G75*
G02*
X116492000Y-67511000I250000J0D01*
G01*
G37*
%TD.AperFunction*%
%TD*%
%TO.P,R1,2*%
%TO.N,+3V3*%
%TA.AperFunction,SMDPad,CuDef*%
G36*
G01*
X116440000Y-90100998D02*
X116440000Y-91001002D01*
G75*
G02*
X116190002Y-91251000I-249998J0D01*
G01*
X115664998Y-91251000D01*
G75*
G02*
X115415000Y-91001002I0J249998D01*
G01*
X115415000Y-90100998D01*
G75*
G02*
X115664998Y-89851000I249998J0D01*
G01*
X116190002Y-89851000D01*
G75*
G02*
X116440000Y-90100998I0J-249998D01*
G01*
G37*
%TD.AperFunction*%
%TO.P,R1,1*%
%TO.N,RST*%
%TA.AperFunction,SMDPad,CuDef*%
G36*
G01*
X118265000Y-90100998D02*
X118265000Y-91001002D01*
G75*
G02*
X118015002Y-91251000I-249998J0D01*
G01*
X117489998Y-91251000D01*
G75*
G02*
X117240000Y-91001002I0J249998D01*
G01*
X117240000Y-90100998D01*
G75*
G02*
X117489998Y-89851000I249998J0D01*
G01*
X118015002Y-89851000D01*
G75*
G02*
X118265000Y-90100998I0J-249998D01*
G01*
G37*
%TD.AperFunction*%
%TD*%
%TO.P,R5,2*%
%TO.N,DTR*%
%TA.AperFunction,SMDPad,CuDef*%
G36*
G01*
X118306002Y-104248000D02*
X117405998Y-104248000D01*
G75*
G02*
X117156000Y-103998002I0J249998D01*
G01*
X117156000Y-103472998D01*
G75*
G02*
X117405998Y-103223000I249998J0D01*
G01*
X118306002Y-103223000D01*
G75*
G02*
X118556000Y-103472998I0J-249998D01*
G01*
X118556000Y-103998002D01*
G75*
G02*
X118306002Y-104248000I-249998J0D01*
G01*
G37*
%TD.AperFunction*%
%TO.P,R5,1*%
%TO.N,Net-(Q1-Pad1)*%
%TA.AperFunction,SMDPad,CuDef*%
G36*
G01*
X118306002Y-106073000D02*
X117405998Y-106073000D01*
G75*
G02*
X117156000Y-105823002I0J249998D01*
G01*
X117156000Y-105297998D01*
G75*
G02*
X117405998Y-105048000I249998J0D01*
G01*
X118306002Y-105048000D01*
G75*
G02*
X118556000Y-105297998I0J-249998D01*
G01*
X118556000Y-105823002D01*
G75*
G02*
X118306002Y-106073000I-249998J0D01*
G01*
G37*
%TD.AperFunction*%
%TD*%
%TO.P,R6,2*%
%TO.N,RTS*%
%TA.AperFunction,SMDPad,CuDef*%
G36*
G01*
X115246998Y-105048000D02*
X116147002Y-105048000D01*
G75*
G02*
X116397000Y-105297998I0J-249998D01*
G01*
X116397000Y-105823002D01*
G75*
G02*
X116147002Y-106073000I-249998J0D01*
G01*
X115246998Y-106073000D01*
G75*
G02*
X114997000Y-105823002I0J249998D01*
G01*
X114997000Y-105297998D01*
G75*
G02*
X115246998Y-105048000I249998J0D01*
G01*
G37*
%TD.AperFunction*%
%TO.P,R6,1*%
%TO.N,Net-(Q2-Pad1)*%
%TA.AperFunction,SMDPad,CuDef*%
G36*
G01*
X115246998Y-103223000D02*
X116147002Y-103223000D01*
G75*
G02*
X116397000Y-103472998I0J-249998D01*
G01*
X116397000Y-103998002D01*
G75*
G02*
X116147002Y-104248000I-249998J0D01*
G01*
X115246998Y-104248000D01*
G75*
G02*
X114997000Y-103998002I0J249998D01*
G01*
X114997000Y-103472998D01*
G75*
G02*
X115246998Y-103223000I249998J0D01*
G01*
G37*
%TD.AperFunction*%
%TD*%
%TO.P,R15,2*%
%TO.N,Net-(D2-Pad2)*%
%TA.AperFunction,SMDPad,CuDef*%
G36*
G01*
X140912002Y-74276000D02*
X140011998Y-74276000D01*
G75*
G02*
X139762000Y-74026002I0J249998D01*
G01*
X139762000Y-73500998D01*
G75*
G02*
X140011998Y-73251000I249998J0D01*
G01*
X140912002Y-73251000D01*
G75*
G02*
X141162000Y-73500998I0J-249998D01*
G01*
X141162000Y-74026002D01*
G75*
G02*
X140912002Y-74276000I-249998J0D01*
G01*
G37*
%TD.AperFunction*%
%TO.P,R15,1*%
%TO.N,+5V*%
%TA.AperFunction,SMDPad,CuDef*%
G36*
G01*
X140912002Y-76101000D02*
X140011998Y-76101000D01*
G75*
G02*
X139762000Y-75851002I0J249998D01*
G01*
X139762000Y-75325998D01*
G75*
G02*
X140011998Y-75076000I249998J0D01*
G01*
X140912002Y-75076000D01*
G75*
G02*
X141162000Y-75325998I0J-249998D01*
G01*
X141162000Y-75851002D01*
G75*
G02*
X140912002Y-76101000I-249998J0D01*
G01*
G37*
%TD.AperFunction*%
%TD*%
%TO.P,U2,16*%
%TO.N,+3V3*%
%TA.AperFunction,SMDPad,CuDef*%
G36*
G01*
X135405000Y-114451000D02*
X135105000Y-114451000D01*
G75*
G02*
X134955000Y-114301000I0J150000D01*
G01*
X134955000Y-112651000D01*
G75*
G02*
X135105000Y-112501000I150000J0D01*
G01*
X135405000Y-112501000D01*
G75*
G02*
X135555000Y-112651000I0J-150000D01*
G01*
X135555000Y-114301000D01*
G75*
G02*
X135405000Y-114451000I-150000J0D01*
G01*
G37*
%TD.AperFunction*%
%TO.P,U2,15*%
%TO.N,N/C*%
%TA.AperFunction,SMDPad,CuDef*%
G36*
G01*
X136675000Y-114451000D02*
X136375000Y-114451000D01*
G75*
G02*
X136225000Y-114301000I0J150000D01*
G01*
X136225000Y-112651000D01*
G75*
G02*
X136375000Y-112501000I150000J0D01*
G01*
X136675000Y-112501000D01*
G75*
G02*
X136825000Y-112651000I0J-150000D01*
G01*
X136825000Y-114301000D01*
G75*
G02*
X136675000Y-114451000I-150000J0D01*
G01*
G37*
%TD.AperFunction*%
%TO.P,U2,14*%
%TO.N,RTS*%
%TA.AperFunction,SMDPad,CuDef*%
G36*
G01*
X137945000Y-114451000D02*
X137645000Y-114451000D01*
G75*
G02*
X137495000Y-114301000I0J150000D01*
G01*
X137495000Y-112651000D01*
G75*
G02*
X137645000Y-112501000I150000J0D01*
G01*
X137945000Y-112501000D01*
G75*
G02*
X138095000Y-112651000I0J-150000D01*
G01*
X138095000Y-114301000D01*
G75*
G02*
X137945000Y-114451000I-150000J0D01*
G01*
G37*
%TD.AperFunction*%
%TO.P,U2,13*%
%TO.N,DTR*%
%TA.AperFunction,SMDPad,CuDef*%
G36*
G01*
X139215000Y-114451000D02*
X138915000Y-114451000D01*
G75*
G02*
X138765000Y-114301000I0J150000D01*
G01*
X138765000Y-112651000D01*
G75*
G02*
X138915000Y-112501000I150000J0D01*
G01*
X139215000Y-112501000D01*
G75*
G02*
X139365000Y-112651000I0J-150000D01*
G01*
X139365000Y-114301000D01*
G75*
G02*
X139215000Y-114451000I-150000J0D01*
G01*
G37*
%TD.AperFunction*%
%TO.P,U2,12*%
%TO.N,N/C*%
%TA.AperFunction,SMDPad,CuDef*%
G36*
G01*
X140485000Y-114451000D02*
X140185000Y-114451000D01*
G75*
G02*
X140035000Y-114301000I0J150000D01*
G01*
X140035000Y-112651000D01*
G75*
G02*
X140185000Y-112501000I150000J0D01*
G01*
X140485000Y-112501000D01*
G75*
G02*
X140635000Y-112651000I0J-150000D01*
G01*
X140635000Y-114301000D01*
G75*
G02*
X140485000Y-114451000I-150000J0D01*
G01*
G37*
%TD.AperFunction*%
%TO.P,U2,11*%
%TA.AperFunction,SMDPad,CuDef*%
G36*
G01*
X141755000Y-114451000D02*
X141455000Y-114451000D01*
G75*
G02*
X141305000Y-114301000I0J150000D01*
G01*
X141305000Y-112651000D01*
G75*
G02*
X141455000Y-112501000I150000J0D01*
G01*
X141755000Y-112501000D01*
G75*
G02*
X141905000Y-112651000I0J-150000D01*
G01*
X141905000Y-114301000D01*
G75*
G02*
X141755000Y-114451000I-150000J0D01*
G01*
G37*
%TD.AperFunction*%
%TO.P,U2,10*%
%TA.AperFunction,SMDPad,CuDef*%
G36*
G01*
X143025000Y-114451000D02*
X142725000Y-114451000D01*
G75*
G02*
X142575000Y-114301000I0J150000D01*
G01*
X142575000Y-112651000D01*
G75*
G02*
X142725000Y-112501000I150000J0D01*
G01*
X143025000Y-112501000D01*
G75*
G02*
X143175000Y-112651000I0J-150000D01*
G01*
X143175000Y-114301000D01*
G75*
G02*
X143025000Y-114451000I-150000J0D01*
G01*
G37*
%TD.AperFunction*%
%TO.P,U2,9*%
%TA.AperFunction,SMDPad,CuDef*%
G36*
G01*
X144295000Y-114451000D02*
X143995000Y-114451000D01*
G75*
G02*
X143845000Y-114301000I0J150000D01*
G01*
X143845000Y-112651000D01*
G75*
G02*
X143995000Y-112501000I150000J0D01*
G01*
X144295000Y-112501000D01*
G75*
G02*
X144445000Y-112651000I0J-150000D01*
G01*
X144445000Y-114301000D01*
G75*
G02*
X144295000Y-114451000I-150000J0D01*
G01*
G37*
%TD.AperFunction*%
%TO.P,U2,8*%
%TO.N,Net-(C2-Pad1)*%
%TA.AperFunction,SMDPad,CuDef*%
G36*
G01*
X144295000Y-119401000D02*
X143995000Y-119401000D01*
G75*
G02*
X143845000Y-119251000I0J150000D01*
G01*
X143845000Y-117601000D01*
G75*
G02*
X143995000Y-117451000I150000J0D01*
G01*
X144295000Y-117451000D01*
G75*
G02*
X144445000Y-117601000I0J-150000D01*
G01*
X144445000Y-119251000D01*
G75*
G02*
X144295000Y-119401000I-150000J0D01*
G01*
G37*
%TD.AperFunction*%
%TO.P,U2,7*%
%TO.N,Net-(C1-Pad1)*%
%TA.AperFunction,SMDPad,CuDef*%
G36*
G01*
X143025000Y-119401000D02*
X142725000Y-119401000D01*
G75*
G02*
X142575000Y-119251000I0J150000D01*
G01*
X142575000Y-117601000D01*
G75*
G02*
X142725000Y-117451000I150000J0D01*
G01*
X143025000Y-117451000D01*
G75*
G02*
X143175000Y-117601000I0J-150000D01*
G01*
X143175000Y-119251000D01*
G75*
G02*
X143025000Y-119401000I-150000J0D01*
G01*
G37*
%TD.AperFunction*%
%TO.P,U2,6*%
%TO.N,Net-(J1-Pad2)*%
%TA.AperFunction,SMDPad,CuDef*%
G36*
G01*
X141755000Y-119401000D02*
X141455000Y-119401000D01*
G75*
G02*
X141305000Y-119251000I0J150000D01*
G01*
X141305000Y-117601000D01*
G75*
G02*
X141455000Y-117451000I150000J0D01*
G01*
X141755000Y-117451000D01*
G75*
G02*
X141905000Y-117601000I0J-150000D01*
G01*
X141905000Y-119251000D01*
G75*
G02*
X141755000Y-119401000I-150000J0D01*
G01*
G37*
%TD.AperFunction*%
%TO.P,U2,5*%
%TO.N,Net-(J1-Pad3)*%
%TA.AperFunction,SMDPad,CuDef*%
G36*
G01*
X140485000Y-119401000D02*
X140185000Y-119401000D01*
G75*
G02*
X140035000Y-119251000I0J150000D01*
G01*
X140035000Y-117601000D01*
G75*
G02*
X140185000Y-117451000I150000J0D01*
G01*
X140485000Y-117451000D01*
G75*
G02*
X140635000Y-117601000I0J-150000D01*
G01*
X140635000Y-119251000D01*
G75*
G02*
X140485000Y-119401000I-150000J0D01*
G01*
G37*
%TD.AperFunction*%
%TO.P,U2,4*%
%TO.N,+3V3*%
%TA.AperFunction,SMDPad,CuDef*%
G36*
G01*
X139215000Y-119401000D02*
X138915000Y-119401000D01*
G75*
G02*
X138765000Y-119251000I0J150000D01*
G01*
X138765000Y-117601000D01*
G75*
G02*
X138915000Y-117451000I150000J0D01*
G01*
X139215000Y-117451000D01*
G75*
G02*
X139365000Y-117601000I0J-150000D01*
G01*
X139365000Y-119251000D01*
G75*
G02*
X139215000Y-119401000I-150000J0D01*
G01*
G37*
%TD.AperFunction*%
%TO.P,U2,3*%
%TO.N,Net-(R4-Pad1)*%
%TA.AperFunction,SMDPad,CuDef*%
G36*
G01*
X137945000Y-119401000D02*
X137645000Y-119401000D01*
G75*
G02*
X137495000Y-119251000I0J150000D01*
G01*
X137495000Y-117601000D01*
G75*
G02*
X137645000Y-117451000I150000J0D01*
G01*
X137945000Y-117451000D01*
G75*
G02*
X138095000Y-117601000I0J-150000D01*
G01*
X138095000Y-119251000D01*
G75*
G02*
X137945000Y-119401000I-150000J0D01*
G01*
G37*
%TD.AperFunction*%
%TO.P,U2,2*%
%TO.N,Net-(R3-Pad2)*%
%TA.AperFunction,SMDPad,CuDef*%
G36*
G01*
X136675000Y-119401000D02*
X136375000Y-119401000D01*
G75*
G02*
X136225000Y-119251000I0J150000D01*
G01*
X136225000Y-117601000D01*
G75*
G02*
X136375000Y-117451000I150000J0D01*
G01*
X136675000Y-117451000D01*
G75*
G02*
X136825000Y-117601000I0J-150000D01*
G01*
X136825000Y-119251000D01*
G75*
G02*
X136675000Y-119401000I-150000J0D01*
G01*
G37*
%TD.AperFunction*%
%TO.P,U2,1*%
%TO.N,GND*%
%TA.AperFunction,SMDPad,CuDef*%
G36*
G01*
X135405000Y-119401000D02*
X135105000Y-119401000D01*
G75*
G02*
X134955000Y-119251000I0J150000D01*
G01*
X134955000Y-117601000D01*
G75*
G02*
X135105000Y-117451000I150000J0D01*
G01*
X135405000Y-117451000D01*
G75*
G02*
X135555000Y-117601000I0J-150000D01*
G01*
X135555000Y-119251000D01*
G75*
G02*
X135405000Y-119401000I-150000J0D01*
G01*
G37*
%TD.AperFunction*%
%TD*%
D28*
%TO.P,Q1,3*%
%TO.N,RST*%
X116713000Y-110347000D03*
%TO.P,Q1,2*%
%TO.N,RTS*%
X115763000Y-108347000D03*
%TO.P,Q1,1*%
%TO.N,Net-(Q1-Pad1)*%
X117663000Y-108347000D03*
%TD*%
%TO.P,Q2,1*%
%TO.N,Net-(Q2-Pad1)*%
X115890000Y-101203000D03*
%TO.P,Q2,2*%
%TO.N,DTR*%
X117790000Y-101203000D03*
%TO.P,Q2,3*%
%TO.N,GPIO0*%
X116840000Y-99203000D03*
%TD*%
%TO.P,R14,1*%
%TO.N,+3V3*%
%TA.AperFunction,SMDPad,CuDef*%
G36*
G01*
X144341002Y-68862000D02*
X143440998Y-68862000D01*
G75*
G02*
X143191000Y-68612002I0J249998D01*
G01*
X143191000Y-68086998D01*
G75*
G02*
X143440998Y-67837000I249998J0D01*
G01*
X144341002Y-67837000D01*
G75*
G02*
X144591000Y-68086998I0J-249998D01*
G01*
X144591000Y-68612002D01*
G75*
G02*
X144341002Y-68862000I-249998J0D01*
G01*
G37*
%TD.AperFunction*%
%TO.P,R14,2*%
%TO.N,DATA*%
%TA.AperFunction,SMDPad,CuDef*%
G36*
G01*
X144341002Y-67037000D02*
X143440998Y-67037000D01*
G75*
G02*
X143191000Y-66787002I0J249998D01*
G01*
X143191000Y-66261998D01*
G75*
G02*
X143440998Y-66012000I249998J0D01*
G01*
X144341002Y-66012000D01*
G75*
G02*
X144591000Y-66261998I0J-249998D01*
G01*
X144591000Y-66787002D01*
G75*
G02*
X144341002Y-67037000I-249998J0D01*
G01*
G37*
%TD.AperFunction*%
%TD*%
D14*
%TO.P,J9,1*%
%TO.N,+3V3*%
X124206000Y-107950000D03*
D13*
%TO.P,J9,2*%
%TO.N,GPIO15*%
X124206000Y-105410000D03*
%TO.P,J9,3*%
%TO.N,GPIO13*%
X124206000Y-102870000D03*
%TO.P,J9,4*%
%TO.N,DATA*%
X124206000Y-100330000D03*
%TO.P,J9,5*%
%TO.N,GPIO14*%
X124206000Y-97790000D03*
%TO.P,J9,6*%
%TO.N,BUTTON*%
X124206000Y-95250000D03*
%TO.P,J9,7*%
%TO.N,ADC*%
X124206000Y-92710000D03*
%TO.P,J9,8*%
%TO.N,RST*%
X124206000Y-90170000D03*
%TD*%
%TO.P,J10,8*%
%TO.N,GPIO1*%
X147066000Y-90170000D03*
%TO.P,J10,7*%
%TO.N,GPIO3*%
X147066000Y-92710000D03*
%TO.P,J10,6*%
%TO.N,GPIO5*%
X147066000Y-95250000D03*
%TO.P,J10,5*%
%TO.N,GPIO4*%
X147066000Y-97790000D03*
%TO.P,J10,4*%
%TO.N,GPIO0*%
X147066000Y-100330000D03*
%TO.P,J10,3*%
%TO.N,GPIO2*%
X147066000Y-102870000D03*
%TO.P,J10,2*%
%TO.N,+5V*%
X147066000Y-105410000D03*
D14*
%TO.P,J10,1*%
%TO.N,GND*%
X147066000Y-107950000D03*
%TD*%
%TO.P,R16,2*%
%TO.N,GPIO4*%
%TA.AperFunction,SMDPad,CuDef*%
G36*
G01*
X143948998Y-80537000D02*
X144849002Y-80537000D01*
G75*
G02*
X145099000Y-80786998I0J-249998D01*
G01*
X145099000Y-81312002D01*
G75*
G02*
X144849002Y-81562000I-249998J0D01*
G01*
X143948998Y-81562000D01*
G75*
G02*
X143699000Y-81312002I0J249998D01*
G01*
X143699000Y-80786998D01*
G75*
G02*
X143948998Y-80537000I249998J0D01*
G01*
G37*
%TD.AperFunction*%
%TO.P,R16,1*%
%TO.N,+3V3*%
%TA.AperFunction,SMDPad,CuDef*%
G36*
G01*
X143948998Y-78712000D02*
X144849002Y-78712000D01*
G75*
G02*
X145099000Y-78961998I0J-249998D01*
G01*
X145099000Y-79487002D01*
G75*
G02*
X144849002Y-79737000I-249998J0D01*
G01*
X143948998Y-79737000D01*
G75*
G02*
X143699000Y-79487002I0J249998D01*
G01*
X143699000Y-78961998D01*
G75*
G02*
X143948998Y-78712000I249998J0D01*
G01*
G37*
%TD.AperFunction*%
%TD*%
%TO.P,R17,1*%
%TO.N,+3V3*%
%TA.AperFunction,SMDPad,CuDef*%
G36*
G01*
X147377998Y-78585000D02*
X148278002Y-78585000D01*
G75*
G02*
X148528000Y-78834998I0J-249998D01*
G01*
X148528000Y-79360002D01*
G75*
G02*
X148278002Y-79610000I-249998J0D01*
G01*
X147377998Y-79610000D01*
G75*
G02*
X147128000Y-79360002I0J249998D01*
G01*
X147128000Y-78834998D01*
G75*
G02*
X147377998Y-78585000I249998J0D01*
G01*
G37*
%TD.AperFunction*%
%TO.P,R17,2*%
%TO.N,GPIO5*%
%TA.AperFunction,SMDPad,CuDef*%
G36*
G01*
X147377998Y-80410000D02*
X148278002Y-80410000D01*
G75*
G02*
X148528000Y-80659998I0J-249998D01*
G01*
X148528000Y-81185002D01*
G75*
G02*
X148278002Y-81435000I-249998J0D01*
G01*
X147377998Y-81435000D01*
G75*
G02*
X147128000Y-81185002I0J249998D01*
G01*
X147128000Y-80659998D01*
G75*
G02*
X147377998Y-80410000I249998J0D01*
G01*
G37*
%TD.AperFunction*%
%TD*%
D13*
%TO.P,J4,3*%
%TO.N,GND*%
X153289000Y-63627000D03*
%TO.P,J4,2*%
%TO.N,+3V3*%
X153289000Y-66167000D03*
D14*
%TO.P,J4,1*%
%TO.N,ADC*%
X153289000Y-68707000D03*
%TD*%
%TO.P,J6,1*%
%TO.N,DATA*%
X150749000Y-68707000D03*
D13*
%TO.P,J6,2*%
%TO.N,+3V3*%
X150749000Y-66167000D03*
%TO.P,J6,3*%
%TO.N,GND*%
X150749000Y-63627000D03*
%TD*%
D29*
%TO.N,GND*%
X115316000Y-113919000D03*
X116332000Y-113919000D03*
X115316000Y-114935000D03*
X116332000Y-114935000D03*
X114935000Y-71882000D03*
X115951000Y-71882000D03*
X114935000Y-73025000D03*
X115951000Y-73025000D03*
X136652000Y-115570000D03*
X147828000Y-110871000D03*
X146812000Y-110871000D03*
X145796000Y-110871000D03*
X144653000Y-110871000D03*
X154305000Y-113919000D03*
X155448000Y-113919000D03*
X154305000Y-114935000D03*
X155448000Y-114935000D03*
%TO.N,RST*%
X119126000Y-108966000D03*
%TO.N,RTS*%
X114681000Y-106934000D03*
X136652000Y-110998000D03*
%TO.N,DTR*%
X120142000Y-104267000D03*
X138176000Y-110998000D03*
%TO.N,GPIO14*%
X132080000Y-92329000D03*
%TO.N,GPIO4*%
X148209000Y-83058000D03*
%TO.N,GPIO5*%
X149479000Y-84582000D03*
%TO.N,Net-(D1-Pad1)*%
X131826000Y-76835000D03*
%TO.N,ADC*%
X141986000Y-82423000D03*
%TO.N,RELE_D*%
X143510000Y-76835000D03*
%TO.N,Net-(R3-Pad2)*%
X137795000Y-116205000D03*
X151130000Y-98171000D03*
%TO.N,Net-(R4-Pad1)*%
X152781000Y-90170000D03*
X140970000Y-116586000D03*
%TD*%
D30*
%TO.N,+3V3*%
X146073500Y-79097500D02*
X144526000Y-79097500D01*
X147828000Y-79097500D02*
X146073500Y-79097500D01*
D31*
X122895000Y-68011000D02*
X123444000Y-67462000D01*
X116967000Y-68011000D02*
X122895000Y-68011000D01*
X123850000Y-67056000D02*
X123444000Y-67462000D01*
X138037000Y-67056000D02*
X123850000Y-67056000D01*
X144526000Y-79097500D02*
X144399000Y-79224500D01*
X145899500Y-82928500D02*
X145899500Y-79097500D01*
X150728000Y-87757000D02*
X145899500Y-82928500D01*
X151703000Y-87757000D02*
X150728000Y-87757000D01*
X145899500Y-79097500D02*
X144526000Y-79097500D01*
X147828000Y-79097500D02*
X145899500Y-79097500D01*
X154582500Y-100711000D02*
X154582500Y-104648000D01*
X139065000Y-119401000D02*
X138197000Y-120269000D01*
X139065000Y-118426000D02*
X139065000Y-119401000D01*
X138197000Y-120269000D02*
X134874000Y-120269000D01*
X134874000Y-120269000D02*
X133731000Y-119126000D01*
X133731000Y-112268000D02*
X131953000Y-110490000D01*
X126746000Y-110490000D02*
X124206000Y-107950000D01*
X131953000Y-110490000D02*
X126746000Y-110490000D01*
X126217000Y-107950000D02*
X128163000Y-106004000D01*
X124206000Y-107950000D02*
X126217000Y-107950000D01*
X133793000Y-113476000D02*
X133731000Y-113538000D01*
X135255000Y-113476000D02*
X133793000Y-113476000D01*
X133731000Y-113538000D02*
X133731000Y-112268000D01*
X133731000Y-119126000D02*
X133731000Y-113538000D01*
X123444000Y-75562000D02*
X123444000Y-73762000D01*
X113680999Y-85325001D02*
X123444000Y-75562000D01*
X115832999Y-111397001D02*
X113680999Y-109245001D01*
X120758999Y-111397001D02*
X115832999Y-111397001D01*
X124206000Y-107950000D02*
X120758999Y-111397001D01*
D32*
X123444000Y-67462000D02*
X123444000Y-73762000D01*
D31*
X114046000Y-90551000D02*
X113680999Y-90185999D01*
X115927500Y-90551000D02*
X114046000Y-90551000D01*
X113680999Y-90185999D02*
X113680999Y-85325001D01*
X113919000Y-93472000D02*
X113680999Y-93710001D01*
X115927500Y-93472000D02*
X113919000Y-93472000D01*
X113680999Y-93710001D02*
X113680999Y-90185999D01*
X113919000Y-96647000D02*
X113680999Y-96408999D01*
X115927500Y-96647000D02*
X113919000Y-96647000D01*
X113680999Y-96408999D02*
X113680999Y-93710001D01*
X113680999Y-109245001D02*
X113680999Y-96408999D01*
X152678000Y-87757000D02*
X151703000Y-87757000D01*
X155695010Y-90774010D02*
X152678000Y-87757000D01*
X155695010Y-99598490D02*
X155695010Y-90774010D01*
X154582500Y-100711000D02*
X155695010Y-99598490D01*
X138037000Y-69330000D02*
X140081000Y-71374000D01*
X138037000Y-67056000D02*
X138037000Y-69330000D01*
X150749000Y-66167000D02*
X153289000Y-66167000D01*
X150114000Y-76811500D02*
X150114000Y-71374000D01*
X147828000Y-79097500D02*
X150114000Y-76811500D01*
X150114000Y-71374000D02*
X147955000Y-71374000D01*
X150114000Y-71374000D02*
X155448000Y-71374000D01*
X155448000Y-71374000D02*
X156464000Y-70358000D01*
X154491081Y-66167000D02*
X153289000Y-66167000D01*
X156464000Y-68139919D02*
X154491081Y-66167000D01*
X156464000Y-70358000D02*
X156464000Y-68139919D01*
X143891000Y-71247000D02*
X144018000Y-71374000D01*
X143891000Y-68349500D02*
X143891000Y-71247000D01*
X144018000Y-71374000D02*
X147955000Y-71374000D01*
X140081000Y-71374000D02*
X144018000Y-71374000D01*
D30*
%TO.N,GND*%
X148270000Y-112649000D02*
X148270000Y-114751000D01*
X128092000Y-114495000D02*
X131392000Y-114495000D01*
X131392000Y-118745000D02*
X131392000Y-114495000D01*
X121592000Y-114495000D02*
X121592000Y-118745000D01*
X148270000Y-115251000D02*
X146370000Y-117151000D01*
X148270000Y-114751000D02*
X148270000Y-115251000D01*
X146370000Y-117151000D02*
X146370000Y-119380000D01*
X135255000Y-116967000D02*
X136652000Y-115570000D01*
X135255000Y-118426000D02*
X135255000Y-116967000D01*
X142771500Y-110871000D02*
X142263500Y-110363000D01*
X144653000Y-110871000D02*
X142771500Y-110871000D01*
X148270000Y-111313000D02*
X147828000Y-110871000D01*
X148270000Y-112649000D02*
X148270000Y-111313000D01*
D31*
%TO.N,+5V*%
X139319000Y-80645000D02*
X139319000Y-79502000D01*
X139319000Y-79502000D02*
X138049000Y-78232000D01*
X125744000Y-75833000D02*
X125744000Y-73762000D01*
X128143000Y-78232000D02*
X125744000Y-75833000D01*
X138049000Y-78001500D02*
X140462000Y-75588500D01*
X138049000Y-78232000D02*
X138049000Y-78001500D01*
X130556000Y-75739000D02*
X130556000Y-78232000D01*
X130556000Y-78232000D02*
X128143000Y-78232000D01*
X138049000Y-78232000D02*
X130556000Y-78232000D01*
X127254000Y-79121000D02*
X128143000Y-78232000D01*
X125410000Y-79121000D02*
X127254000Y-79121000D01*
D30*
X144526000Y-107950000D02*
X147066000Y-105410000D01*
X144526000Y-109855000D02*
X144526000Y-107950000D01*
X148336000Y-109855000D02*
X144526000Y-109855000D01*
X149220001Y-110739001D02*
X148336000Y-109855000D01*
X128284019Y-122095021D02*
X147128525Y-122095021D01*
X147128525Y-122095021D02*
X149220001Y-120003545D01*
X123441999Y-117253001D02*
X128284019Y-122095021D01*
X149220001Y-120003545D02*
X149220001Y-110739001D01*
X123441999Y-115395001D02*
X123441999Y-117253001D01*
X124342000Y-114495000D02*
X123441999Y-115395001D01*
X124892000Y-114495000D02*
X124342000Y-114495000D01*
%TO.N,RST*%
X126329000Y-90170000D02*
X128163000Y-92004000D01*
X117752500Y-90170000D02*
X124206000Y-90170000D01*
X117745000Y-110347000D02*
X119126000Y-108966000D01*
X116713000Y-110347000D02*
X117745000Y-110347000D01*
D31*
X125782000Y-86813000D02*
X119582000Y-86813000D01*
D30*
X125782000Y-90095000D02*
X125857000Y-90170000D01*
X125782000Y-86813000D02*
X125782000Y-90095000D01*
X125857000Y-90170000D02*
X126329000Y-90170000D01*
X124206000Y-90170000D02*
X125857000Y-90170000D01*
D31*
%TO.N,Net-(D2-Pad2)*%
X146327500Y-73763500D02*
X146558000Y-73533000D01*
X140462000Y-73763500D02*
X146327500Y-73763500D01*
D30*
%TO.N,RTS*%
X115763000Y-105626500D02*
X115697000Y-105560500D01*
X115763000Y-108347000D02*
X115763000Y-105626500D01*
X115763000Y-108016000D02*
X114681000Y-106934000D01*
X115763000Y-108347000D02*
X115763000Y-108016000D01*
X137795000Y-112141000D02*
X137795000Y-113476000D01*
X136652000Y-110998000D02*
X137795000Y-112141000D01*
%TO.N,GPIO0*%
X143689000Y-100330000D02*
X143363000Y-100004000D01*
X147066000Y-100330000D02*
X143689000Y-100330000D01*
X116913001Y-99129999D02*
X116840000Y-99203000D01*
X124782001Y-99129999D02*
X116913001Y-99129999D01*
X126506003Y-100854001D02*
X124782001Y-99129999D01*
X142512999Y-100854001D02*
X126506003Y-100854001D01*
X143363000Y-100004000D02*
X142512999Y-100854001D01*
X152376500Y-100330000D02*
X152757500Y-100711000D01*
X147066000Y-100330000D02*
X152376500Y-100330000D01*
%TO.N,DTR*%
X117856000Y-101269000D02*
X117790000Y-101203000D01*
X117856000Y-103735500D02*
X117856000Y-101269000D01*
X119610500Y-103735500D02*
X120142000Y-104267000D01*
X117856000Y-103735500D02*
X119610500Y-103735500D01*
X139065000Y-111887000D02*
X139065000Y-113476000D01*
X138176000Y-110998000D02*
X139065000Y-111887000D01*
%TO.N,GPIO2*%
X146200000Y-102004000D02*
X147066000Y-102870000D01*
X143363000Y-102004000D02*
X146200000Y-102004000D01*
X150979500Y-102870000D02*
X152757500Y-104648000D01*
X147066000Y-102870000D02*
X150979500Y-102870000D01*
%TO.N,GPIO15*%
X143363000Y-104004000D02*
X138947000Y-104004000D01*
X124462001Y-105153999D02*
X124206000Y-105410000D01*
X137797001Y-105153999D02*
X124462001Y-105153999D01*
X138947000Y-104004000D02*
X137797001Y-105153999D01*
X141813000Y-104004000D02*
X143363000Y-104004000D01*
X141613001Y-104203999D02*
X141813000Y-104004000D01*
X141613001Y-109188499D02*
X141613001Y-104203999D01*
X140438500Y-110363000D02*
X141613001Y-109188499D01*
%TO.N,BUTTON*%
X122809000Y-96647000D02*
X124206000Y-95250000D01*
X117752500Y-96647000D02*
X122809000Y-96647000D01*
%TO.N,DATA*%
X125880000Y-102004000D02*
X128163000Y-102004000D01*
X124206000Y-100330000D02*
X125880000Y-102004000D01*
X148566500Y-66524500D02*
X150749000Y-68707000D01*
X143891000Y-66524500D02*
X148566500Y-66524500D01*
X140608500Y-66524500D02*
X140077000Y-67056000D01*
X143891000Y-66524500D02*
X140608500Y-66524500D01*
%TO.N,GPIO14*%
X126420000Y-100004000D02*
X128163000Y-100004000D01*
X124206000Y-97790000D02*
X126420000Y-100004000D01*
X132080000Y-94467002D02*
X132080000Y-92329000D01*
X129693001Y-96854001D02*
X132080000Y-94467002D01*
X125141999Y-96854001D02*
X129693001Y-96854001D01*
X124206000Y-97790000D02*
X125141999Y-96854001D01*
%TO.N,GPIO4*%
X143577000Y-97790000D02*
X143363000Y-98004000D01*
X147066000Y-97790000D02*
X143577000Y-97790000D01*
X141813000Y-98004000D02*
X143363000Y-98004000D01*
X141262989Y-97453989D02*
X141813000Y-98004000D01*
X141262989Y-91016889D02*
X141262989Y-97453989D01*
X144399000Y-87757000D02*
X144460939Y-87818939D01*
X144399000Y-81049500D02*
X144399000Y-87757000D01*
X144460939Y-87818939D02*
X141262989Y-91016889D01*
X150814000Y-83058000D02*
X148209000Y-83058000D01*
X151703000Y-83947000D02*
X150814000Y-83058000D01*
%TO.N,GPIO5*%
X146312000Y-96004000D02*
X147066000Y-95250000D01*
X143363000Y-96004000D02*
X146312000Y-96004000D01*
X152678000Y-85217000D02*
X151703000Y-85217000D01*
X153028010Y-84866990D02*
X152678000Y-85217000D01*
X153028010Y-83589886D02*
X153028010Y-84866990D01*
X150360624Y-80922500D02*
X153028010Y-83589886D01*
X147828000Y-80922500D02*
X150360624Y-80922500D01*
X150114000Y-85217000D02*
X149479000Y-84582000D01*
X151703000Y-85217000D02*
X150114000Y-85217000D01*
%TO.N,GPIO3*%
X145772000Y-94004000D02*
X143363000Y-94004000D01*
X147066000Y-92710000D02*
X145772000Y-94004000D01*
X148947500Y-92710000D02*
X152757500Y-96520000D01*
X147066000Y-92710000D02*
X148947500Y-92710000D01*
%TO.N,GPIO1*%
X145232000Y-92004000D02*
X147066000Y-90170000D01*
X143363000Y-92004000D02*
X145232000Y-92004000D01*
X150344500Y-90170000D02*
X152757500Y-92583000D01*
X147066000Y-90170000D02*
X150344500Y-90170000D01*
D31*
%TO.N,Net-(D1-Pad2)*%
X134366000Y-73914000D02*
X134874000Y-73406000D01*
X130556000Y-73914000D02*
X134366000Y-73914000D01*
D30*
%TO.N,Net-(D1-Pad1)*%
X132715000Y-75946000D02*
X131826000Y-76835000D01*
X134874000Y-75946000D02*
X132715000Y-75946000D01*
%TO.N,Net-(Q1-Pad1)*%
X117663000Y-105753500D02*
X117856000Y-105560500D01*
X117663000Y-108347000D02*
X117663000Y-105753500D01*
%TO.N,Net-(Q2-Pad1)*%
X115890000Y-103542500D02*
X115697000Y-103735500D01*
X115890000Y-101203000D02*
X115890000Y-103542500D01*
%TO.N,GPIO13*%
X125340000Y-104004000D02*
X124206000Y-102870000D01*
X128163000Y-104004000D02*
X125340000Y-104004000D01*
%TO.N,ADC*%
X125500000Y-94004000D02*
X128163000Y-94004000D01*
X124206000Y-92710000D02*
X125500000Y-94004000D01*
X140124002Y-82423000D02*
X130810000Y-91737002D01*
X141986000Y-82423000D02*
X140124002Y-82423000D01*
X130810000Y-91737002D02*
X130810000Y-93599000D01*
X130405000Y-94004000D02*
X128163000Y-94004000D01*
X130810000Y-93599000D02*
X130405000Y-94004000D01*
%TO.N,Net-(J1-Pad2)*%
X141605000Y-119401000D02*
X141605000Y-118426000D01*
X139410989Y-121595011D02*
X141605000Y-119401000D01*
X129879889Y-121595011D02*
X139410989Y-121595011D01*
X125692000Y-117407122D02*
X129879889Y-121595011D01*
X125692000Y-114495000D02*
X125692000Y-117407122D01*
%TO.N,RELE_D*%
X144272000Y-76073000D02*
X143510000Y-76835000D01*
X146558000Y-76073000D02*
X144272000Y-76073000D01*
%TO.N,Net-(J1-Pad3)*%
X140335000Y-119401000D02*
X140335000Y-118426000D01*
X138640999Y-121095001D02*
X140335000Y-119401000D01*
X130086999Y-121095001D02*
X138640999Y-121095001D01*
X126492000Y-117500002D02*
X130086999Y-121095001D01*
X126492000Y-114495000D02*
X126492000Y-117500002D01*
%TO.N,Net-(C1-Pad1)*%
X148270000Y-117151000D02*
X148270000Y-119380000D01*
X142875000Y-118426000D02*
X142875000Y-120706011D01*
X146619000Y-121031000D02*
X148270000Y-119380000D01*
X143199989Y-121031000D02*
X146619000Y-121031000D01*
X142875000Y-120706011D02*
X143199989Y-121031000D01*
%TO.N,Net-(C2-Pad1)*%
X146370000Y-112649000D02*
X146370000Y-114751000D01*
X144145000Y-116976000D02*
X144145000Y-118426000D01*
X146370000Y-114751000D02*
X144145000Y-116976000D01*
%TO.N,Net-(R2-Pad2)*%
X126792880Y-96004000D02*
X128163000Y-96004000D01*
X124838879Y-94049999D02*
X126792880Y-96004000D01*
X118330499Y-94049999D02*
X124838879Y-94049999D01*
X117752500Y-93472000D02*
X118330499Y-94049999D01*
%TO.N,Net-(R3-Pad2)*%
X136525000Y-117475000D02*
X137795000Y-116205000D01*
X136525000Y-118426000D02*
X136525000Y-117475000D01*
X151130000Y-98171000D02*
X154432000Y-98171000D01*
X154582500Y-98020500D02*
X154582500Y-96520000D01*
X154432000Y-98171000D02*
X154582500Y-98020500D01*
%TO.N,Net-(R4-Pad1)*%
X154582500Y-91971500D02*
X152781000Y-90170000D01*
X154582500Y-92583000D02*
X154582500Y-91971500D01*
X137795000Y-117451000D02*
X137795000Y-118426000D01*
X138660000Y-116586000D02*
X137795000Y-117451000D01*
X140970000Y-116586000D02*
X138660000Y-116586000D01*
%TD*%
D33*
%TO.N,GND*%
X125978196Y-111185907D02*
X126010604Y-111225396D01*
X126050092Y-111257803D01*
X126168202Y-111354734D01*
X126227637Y-111386502D01*
X126348007Y-111450841D01*
X126543105Y-111510024D01*
X126695162Y-111525000D01*
X126695171Y-111525000D01*
X126745999Y-111530006D01*
X126796827Y-111525000D01*
X131524290Y-111525000D01*
X132107504Y-112108214D01*
X131677750Y-112110000D01*
X131519000Y-112268750D01*
X131519000Y-114368000D01*
X131539000Y-114368000D01*
X131539000Y-114622000D01*
X131519000Y-114622000D01*
X131519000Y-118618000D01*
X131539000Y-118618000D01*
X131539000Y-118872000D01*
X131519000Y-118872000D01*
X131519000Y-118892000D01*
X131265000Y-118892000D01*
X131265000Y-118872000D01*
X129890750Y-118872000D01*
X129732000Y-119030750D01*
X129730928Y-119628773D01*
X127277000Y-117174845D01*
X127277000Y-116633072D01*
X127542000Y-116633072D01*
X127577617Y-116629564D01*
X127557000Y-116733212D01*
X127557000Y-116956788D01*
X127600617Y-117176067D01*
X127686176Y-117382624D01*
X127810388Y-117568520D01*
X127968480Y-117726612D01*
X128154376Y-117850824D01*
X128360933Y-117936383D01*
X128580212Y-117980000D01*
X128803788Y-117980000D01*
X129023067Y-117936383D01*
X129229624Y-117850824D01*
X129415520Y-117726612D01*
X129573612Y-117568520D01*
X129697824Y-117382624D01*
X129729932Y-117305109D01*
X129732000Y-118459250D01*
X129890750Y-118618000D01*
X131265000Y-118618000D01*
X131265000Y-114622000D01*
X129890750Y-114622000D01*
X129732000Y-114780750D01*
X129728928Y-116245000D01*
X129741188Y-116369482D01*
X129777498Y-116489180D01*
X129780609Y-116495000D01*
X129777753Y-116500342D01*
X129697824Y-116307376D01*
X129573612Y-116121480D01*
X129415520Y-115963388D01*
X129229624Y-115839176D01*
X129023067Y-115753617D01*
X128979431Y-115744937D01*
X128977000Y-114780750D01*
X128818250Y-114622000D01*
X128215000Y-114622000D01*
X128215000Y-114642000D01*
X128180072Y-114642000D01*
X128180072Y-112995000D01*
X128167812Y-112870518D01*
X128131502Y-112750820D01*
X128072537Y-112640506D01*
X127993185Y-112543815D01*
X127969000Y-112523967D01*
X127969000Y-112518750D01*
X128215000Y-112518750D01*
X128215000Y-114368000D01*
X128818250Y-114368000D01*
X128977000Y-114209250D01*
X128980048Y-113000573D01*
X128968875Y-112875989D01*
X128933612Y-112755979D01*
X128927867Y-112745000D01*
X129728928Y-112745000D01*
X129732000Y-114209250D01*
X129890750Y-114368000D01*
X131265000Y-114368000D01*
X131265000Y-112268750D01*
X131106250Y-112110000D01*
X130367000Y-112106928D01*
X130242518Y-112119188D01*
X130122820Y-112155498D01*
X130012506Y-112214463D01*
X129915815Y-112293815D01*
X129836463Y-112390506D01*
X129777498Y-112500820D01*
X129741188Y-112620518D01*
X129728928Y-112745000D01*
X128927867Y-112745000D01*
X128875613Y-112645154D01*
X128797109Y-112547773D01*
X128701114Y-112467579D01*
X128591319Y-112407654D01*
X128471943Y-112370299D01*
X128373750Y-112360000D01*
X128215000Y-112518750D01*
X127969000Y-112518750D01*
X127810250Y-112360000D01*
X127712057Y-112370299D01*
X127691426Y-112376755D01*
X127666482Y-112369188D01*
X127542000Y-112356928D01*
X127042000Y-112356928D01*
X126917518Y-112369188D01*
X126892000Y-112376929D01*
X126866482Y-112369188D01*
X126742000Y-112356928D01*
X126242000Y-112356928D01*
X126117518Y-112369188D01*
X126092000Y-112376929D01*
X126066482Y-112369188D01*
X125942000Y-112356928D01*
X125442000Y-112356928D01*
X125317518Y-112369188D01*
X125292000Y-112376929D01*
X125266482Y-112369188D01*
X125142000Y-112356928D01*
X124642000Y-112356928D01*
X124517518Y-112369188D01*
X124397820Y-112405498D01*
X124287506Y-112464463D01*
X124190815Y-112543815D01*
X124111463Y-112640506D01*
X124052498Y-112750820D01*
X124016188Y-112870518D01*
X124003928Y-112995000D01*
X124003928Y-113785601D01*
X123903767Y-113839138D01*
X123784236Y-113937236D01*
X123759653Y-113967190D01*
X123252000Y-114474844D01*
X123252000Y-114367998D01*
X123093252Y-114367998D01*
X123252000Y-114209250D01*
X123255072Y-112745000D01*
X123242812Y-112620518D01*
X123206502Y-112500820D01*
X123147537Y-112390506D01*
X123068185Y-112293815D01*
X122971494Y-112214463D01*
X122861180Y-112155498D01*
X122741482Y-112119188D01*
X122617000Y-112106928D01*
X121877750Y-112110000D01*
X121719000Y-112268750D01*
X121719000Y-114368000D01*
X121739000Y-114368000D01*
X121739000Y-114622000D01*
X121719000Y-114622000D01*
X121719000Y-118618000D01*
X123093250Y-118618000D01*
X123252000Y-118459250D01*
X123252512Y-118173671D01*
X127608839Y-122529999D01*
X115856279Y-122529999D01*
X115311448Y-122476578D01*
X114818416Y-122327722D01*
X114363692Y-122085941D01*
X113964591Y-121760442D01*
X113636307Y-121363615D01*
X113391357Y-120910590D01*
X113239063Y-120418608D01*
X113182001Y-119875704D01*
X113182001Y-119667872D01*
X113589000Y-119667872D01*
X113589000Y-120108128D01*
X113674890Y-120539925D01*
X113843369Y-120946669D01*
X114087962Y-121312729D01*
X114399271Y-121624038D01*
X114765331Y-121868631D01*
X115172075Y-122037110D01*
X115603872Y-122123000D01*
X116044128Y-122123000D01*
X116475925Y-122037110D01*
X116882669Y-121868631D01*
X117248729Y-121624038D01*
X117560038Y-121312729D01*
X117804631Y-120946669D01*
X117888165Y-120745000D01*
X119928928Y-120745000D01*
X119941188Y-120869482D01*
X119977498Y-120989180D01*
X120036463Y-121099494D01*
X120115815Y-121196185D01*
X120212506Y-121275537D01*
X120322820Y-121334502D01*
X120442518Y-121370812D01*
X120567000Y-121383072D01*
X121306250Y-121380000D01*
X121465000Y-121221250D01*
X121465000Y-118872000D01*
X121719000Y-118872000D01*
X121719000Y-121221250D01*
X121877750Y-121380000D01*
X122617000Y-121383072D01*
X122741482Y-121370812D01*
X122861180Y-121334502D01*
X122971494Y-121275537D01*
X123068185Y-121196185D01*
X123147537Y-121099494D01*
X123206502Y-120989180D01*
X123242812Y-120869482D01*
X123255072Y-120745000D01*
X123252000Y-119030750D01*
X123093250Y-118872000D01*
X121719000Y-118872000D01*
X121465000Y-118872000D01*
X120090750Y-118872000D01*
X119932000Y-119030750D01*
X119928928Y-120745000D01*
X117888165Y-120745000D01*
X117973110Y-120539925D01*
X118059000Y-120108128D01*
X118059000Y-119667872D01*
X117973110Y-119236075D01*
X117804631Y-118829331D01*
X117560038Y-118463271D01*
X117248729Y-118151962D01*
X116882669Y-117907369D01*
X116475925Y-117738890D01*
X116044128Y-117653000D01*
X115603872Y-117653000D01*
X115172075Y-117738890D01*
X114765331Y-117907369D01*
X114399271Y-118151962D01*
X114087962Y-118463271D01*
X113843369Y-118829331D01*
X113674890Y-119236075D01*
X113589000Y-119667872D01*
X113182001Y-119667872D01*
X113182001Y-116245000D01*
X119928928Y-116245000D01*
X119941188Y-116369482D01*
X119977498Y-116489180D01*
X119980609Y-116495000D01*
X119977498Y-116500820D01*
X119941188Y-116620518D01*
X119928928Y-116745000D01*
X119932000Y-118459250D01*
X120090750Y-118618000D01*
X121465000Y-118618000D01*
X121465000Y-114622000D01*
X120090750Y-114622000D01*
X119932000Y-114780750D01*
X119928928Y-116245000D01*
X113182001Y-116245000D01*
X113182001Y-110209713D01*
X115065196Y-112092909D01*
X115097603Y-112132397D01*
X115137091Y-112164804D01*
X115255201Y-112261735D01*
X115435005Y-112357842D01*
X115472408Y-112369188D01*
X115630104Y-112417025D01*
X115782161Y-112432001D01*
X115782164Y-112432001D01*
X115832999Y-112437008D01*
X115883834Y-112432001D01*
X120014283Y-112432001D01*
X119977498Y-112500820D01*
X119941188Y-112620518D01*
X119928928Y-112745000D01*
X119932000Y-114209250D01*
X120090750Y-114368000D01*
X121465000Y-114368000D01*
X121465000Y-112268750D01*
X121403359Y-112207109D01*
X121494395Y-112132397D01*
X121526806Y-112092904D01*
X124181639Y-109438072D01*
X124230362Y-109438072D01*
X125978196Y-111185907D01*
%TA.AperFunction,Conductor*%
D34*
G36*
X125978196Y-111185907D02*
G01*
X126010604Y-111225396D01*
X126050092Y-111257803D01*
X126168202Y-111354734D01*
X126227637Y-111386502D01*
X126348007Y-111450841D01*
X126543105Y-111510024D01*
X126695162Y-111525000D01*
X126695171Y-111525000D01*
X126745999Y-111530006D01*
X126796827Y-111525000D01*
X131524290Y-111525000D01*
X132107504Y-112108214D01*
X131677750Y-112110000D01*
X131519000Y-112268750D01*
X131519000Y-114368000D01*
X131539000Y-114368000D01*
X131539000Y-114622000D01*
X131519000Y-114622000D01*
X131519000Y-118618000D01*
X131539000Y-118618000D01*
X131539000Y-118872000D01*
X131519000Y-118872000D01*
X131519000Y-118892000D01*
X131265000Y-118892000D01*
X131265000Y-118872000D01*
X129890750Y-118872000D01*
X129732000Y-119030750D01*
X129730928Y-119628773D01*
X127277000Y-117174845D01*
X127277000Y-116633072D01*
X127542000Y-116633072D01*
X127577617Y-116629564D01*
X127557000Y-116733212D01*
X127557000Y-116956788D01*
X127600617Y-117176067D01*
X127686176Y-117382624D01*
X127810388Y-117568520D01*
X127968480Y-117726612D01*
X128154376Y-117850824D01*
X128360933Y-117936383D01*
X128580212Y-117980000D01*
X128803788Y-117980000D01*
X129023067Y-117936383D01*
X129229624Y-117850824D01*
X129415520Y-117726612D01*
X129573612Y-117568520D01*
X129697824Y-117382624D01*
X129729932Y-117305109D01*
X129732000Y-118459250D01*
X129890750Y-118618000D01*
X131265000Y-118618000D01*
X131265000Y-114622000D01*
X129890750Y-114622000D01*
X129732000Y-114780750D01*
X129728928Y-116245000D01*
X129741188Y-116369482D01*
X129777498Y-116489180D01*
X129780609Y-116495000D01*
X129777753Y-116500342D01*
X129697824Y-116307376D01*
X129573612Y-116121480D01*
X129415520Y-115963388D01*
X129229624Y-115839176D01*
X129023067Y-115753617D01*
X128979431Y-115744937D01*
X128977000Y-114780750D01*
X128818250Y-114622000D01*
X128215000Y-114622000D01*
X128215000Y-114642000D01*
X128180072Y-114642000D01*
X128180072Y-112995000D01*
X128167812Y-112870518D01*
X128131502Y-112750820D01*
X128072537Y-112640506D01*
X127993185Y-112543815D01*
X127969000Y-112523967D01*
X127969000Y-112518750D01*
X128215000Y-112518750D01*
X128215000Y-114368000D01*
X128818250Y-114368000D01*
X128977000Y-114209250D01*
X128980048Y-113000573D01*
X128968875Y-112875989D01*
X128933612Y-112755979D01*
X128927867Y-112745000D01*
X129728928Y-112745000D01*
X129732000Y-114209250D01*
X129890750Y-114368000D01*
X131265000Y-114368000D01*
X131265000Y-112268750D01*
X131106250Y-112110000D01*
X130367000Y-112106928D01*
X130242518Y-112119188D01*
X130122820Y-112155498D01*
X130012506Y-112214463D01*
X129915815Y-112293815D01*
X129836463Y-112390506D01*
X129777498Y-112500820D01*
X129741188Y-112620518D01*
X129728928Y-112745000D01*
X128927867Y-112745000D01*
X128875613Y-112645154D01*
X128797109Y-112547773D01*
X128701114Y-112467579D01*
X128591319Y-112407654D01*
X128471943Y-112370299D01*
X128373750Y-112360000D01*
X128215000Y-112518750D01*
X127969000Y-112518750D01*
X127810250Y-112360000D01*
X127712057Y-112370299D01*
X127691426Y-112376755D01*
X127666482Y-112369188D01*
X127542000Y-112356928D01*
X127042000Y-112356928D01*
X126917518Y-112369188D01*
X126892000Y-112376929D01*
X126866482Y-112369188D01*
X126742000Y-112356928D01*
X126242000Y-112356928D01*
X126117518Y-112369188D01*
X126092000Y-112376929D01*
X126066482Y-112369188D01*
X125942000Y-112356928D01*
X125442000Y-112356928D01*
X125317518Y-112369188D01*
X125292000Y-112376929D01*
X125266482Y-112369188D01*
X125142000Y-112356928D01*
X124642000Y-112356928D01*
X124517518Y-112369188D01*
X124397820Y-112405498D01*
X124287506Y-112464463D01*
X124190815Y-112543815D01*
X124111463Y-112640506D01*
X124052498Y-112750820D01*
X124016188Y-112870518D01*
X124003928Y-112995000D01*
X124003928Y-113785601D01*
X123903767Y-113839138D01*
X123784236Y-113937236D01*
X123759653Y-113967190D01*
X123252000Y-114474844D01*
X123252000Y-114367998D01*
X123093252Y-114367998D01*
X123252000Y-114209250D01*
X123255072Y-112745000D01*
X123242812Y-112620518D01*
X123206502Y-112500820D01*
X123147537Y-112390506D01*
X123068185Y-112293815D01*
X122971494Y-112214463D01*
X122861180Y-112155498D01*
X122741482Y-112119188D01*
X122617000Y-112106928D01*
X121877750Y-112110000D01*
X121719000Y-112268750D01*
X121719000Y-114368000D01*
X121739000Y-114368000D01*
X121739000Y-114622000D01*
X121719000Y-114622000D01*
X121719000Y-118618000D01*
X123093250Y-118618000D01*
X123252000Y-118459250D01*
X123252512Y-118173671D01*
X127608839Y-122529999D01*
X115856279Y-122529999D01*
X115311448Y-122476578D01*
X114818416Y-122327722D01*
X114363692Y-122085941D01*
X113964591Y-121760442D01*
X113636307Y-121363615D01*
X113391357Y-120910590D01*
X113239063Y-120418608D01*
X113182001Y-119875704D01*
X113182001Y-119667872D01*
X113589000Y-119667872D01*
X113589000Y-120108128D01*
X113674890Y-120539925D01*
X113843369Y-120946669D01*
X114087962Y-121312729D01*
X114399271Y-121624038D01*
X114765331Y-121868631D01*
X115172075Y-122037110D01*
X115603872Y-122123000D01*
X116044128Y-122123000D01*
X116475925Y-122037110D01*
X116882669Y-121868631D01*
X117248729Y-121624038D01*
X117560038Y-121312729D01*
X117804631Y-120946669D01*
X117888165Y-120745000D01*
X119928928Y-120745000D01*
X119941188Y-120869482D01*
X119977498Y-120989180D01*
X120036463Y-121099494D01*
X120115815Y-121196185D01*
X120212506Y-121275537D01*
X120322820Y-121334502D01*
X120442518Y-121370812D01*
X120567000Y-121383072D01*
X121306250Y-121380000D01*
X121465000Y-121221250D01*
X121465000Y-118872000D01*
X121719000Y-118872000D01*
X121719000Y-121221250D01*
X121877750Y-121380000D01*
X122617000Y-121383072D01*
X122741482Y-121370812D01*
X122861180Y-121334502D01*
X122971494Y-121275537D01*
X123068185Y-121196185D01*
X123147537Y-121099494D01*
X123206502Y-120989180D01*
X123242812Y-120869482D01*
X123255072Y-120745000D01*
X123252000Y-119030750D01*
X123093250Y-118872000D01*
X121719000Y-118872000D01*
X121465000Y-118872000D01*
X120090750Y-118872000D01*
X119932000Y-119030750D01*
X119928928Y-120745000D01*
X117888165Y-120745000D01*
X117973110Y-120539925D01*
X118059000Y-120108128D01*
X118059000Y-119667872D01*
X117973110Y-119236075D01*
X117804631Y-118829331D01*
X117560038Y-118463271D01*
X117248729Y-118151962D01*
X116882669Y-117907369D01*
X116475925Y-117738890D01*
X116044128Y-117653000D01*
X115603872Y-117653000D01*
X115172075Y-117738890D01*
X114765331Y-117907369D01*
X114399271Y-118151962D01*
X114087962Y-118463271D01*
X113843369Y-118829331D01*
X113674890Y-119236075D01*
X113589000Y-119667872D01*
X113182001Y-119667872D01*
X113182001Y-116245000D01*
X119928928Y-116245000D01*
X119941188Y-116369482D01*
X119977498Y-116489180D01*
X119980609Y-116495000D01*
X119977498Y-116500820D01*
X119941188Y-116620518D01*
X119928928Y-116745000D01*
X119932000Y-118459250D01*
X120090750Y-118618000D01*
X121465000Y-118618000D01*
X121465000Y-114622000D01*
X120090750Y-114622000D01*
X119932000Y-114780750D01*
X119928928Y-116245000D01*
X113182001Y-116245000D01*
X113182001Y-110209713D01*
X115065196Y-112092909D01*
X115097603Y-112132397D01*
X115137091Y-112164804D01*
X115255201Y-112261735D01*
X115435005Y-112357842D01*
X115472408Y-112369188D01*
X115630104Y-112417025D01*
X115782161Y-112432001D01*
X115782164Y-112432001D01*
X115832999Y-112437008D01*
X115883834Y-112432001D01*
X120014283Y-112432001D01*
X119977498Y-112500820D01*
X119941188Y-112620518D01*
X119928928Y-112745000D01*
X119932000Y-114209250D01*
X120090750Y-114368000D01*
X121465000Y-114368000D01*
X121465000Y-112268750D01*
X121403359Y-112207109D01*
X121494395Y-112132397D01*
X121526806Y-112092904D01*
X124181639Y-109438072D01*
X124230362Y-109438072D01*
X125978196Y-111185907D01*
G37*
%TD.AperFunction*%
D33*
X157455000Y-83009699D02*
X156938750Y-83012000D01*
X156780000Y-83170750D01*
X156780000Y-83820000D01*
X156800000Y-83820000D01*
X156800000Y-84074000D01*
X156780000Y-84074000D01*
X156780000Y-85090000D01*
X156800000Y-85090000D01*
X156800000Y-85344000D01*
X156780000Y-85344000D01*
X156780000Y-86360000D01*
X156800000Y-86360000D01*
X156800000Y-86614000D01*
X156780000Y-86614000D01*
X156780000Y-87630000D01*
X156800000Y-87630000D01*
X156800000Y-87884000D01*
X156780000Y-87884000D01*
X156780000Y-88533250D01*
X156938750Y-88692000D01*
X157455000Y-88694301D01*
X157454999Y-119855721D01*
X157401578Y-120400552D01*
X157252722Y-120893584D01*
X157010941Y-121348308D01*
X156685442Y-121747409D01*
X156288615Y-122075693D01*
X155835590Y-122320643D01*
X155343608Y-122472937D01*
X154800704Y-122529999D01*
X147803704Y-122529999D01*
X149747812Y-120585891D01*
X149777765Y-120561309D01*
X149875863Y-120441778D01*
X149948755Y-120305405D01*
X149957009Y-120278195D01*
X149993643Y-120157432D01*
X150002637Y-120066104D01*
X150005001Y-120042106D01*
X150005001Y-120042101D01*
X150008798Y-120003545D01*
X150005001Y-119964989D01*
X150005001Y-119667872D01*
X152578000Y-119667872D01*
X152578000Y-120108128D01*
X152663890Y-120539925D01*
X152832369Y-120946669D01*
X153076962Y-121312729D01*
X153388271Y-121624038D01*
X153754331Y-121868631D01*
X154161075Y-122037110D01*
X154592872Y-122123000D01*
X155033128Y-122123000D01*
X155464925Y-122037110D01*
X155871669Y-121868631D01*
X156237729Y-121624038D01*
X156549038Y-121312729D01*
X156793631Y-120946669D01*
X156962110Y-120539925D01*
X157048000Y-120108128D01*
X157048000Y-119667872D01*
X156962110Y-119236075D01*
X156793631Y-118829331D01*
X156549038Y-118463271D01*
X156237729Y-118151962D01*
X155871669Y-117907369D01*
X155464925Y-117738890D01*
X155033128Y-117653000D01*
X154592872Y-117653000D01*
X154161075Y-117738890D01*
X153754331Y-117907369D01*
X153388271Y-118151962D01*
X153076962Y-118463271D01*
X152832369Y-118829331D01*
X152663890Y-119236075D01*
X152578000Y-119667872D01*
X150005001Y-119667872D01*
X150005001Y-110777553D01*
X150008798Y-110739000D01*
X150005001Y-110700447D01*
X150005001Y-110700440D01*
X149993642Y-110585114D01*
X149993230Y-110583754D01*
X149948755Y-110437141D01*
X149948231Y-110436160D01*
X149875863Y-110300768D01*
X149826451Y-110240560D01*
X149802346Y-110211188D01*
X149802343Y-110211185D01*
X149777765Y-110181237D01*
X149747816Y-110156658D01*
X148918347Y-109327190D01*
X148893764Y-109297236D01*
X148774233Y-109199138D01*
X148637860Y-109126246D01*
X148489887Y-109081359D01*
X148485842Y-109080961D01*
X148505502Y-109044180D01*
X148541812Y-108924482D01*
X148554072Y-108800000D01*
X148551000Y-108235750D01*
X148392250Y-108077000D01*
X147193000Y-108077000D01*
X147193000Y-108097000D01*
X146939000Y-108097000D01*
X146939000Y-108077000D01*
X146919000Y-108077000D01*
X146919000Y-107823000D01*
X146939000Y-107823000D01*
X146939000Y-107803000D01*
X147193000Y-107803000D01*
X147193000Y-107823000D01*
X148392250Y-107823000D01*
X148551000Y-107664250D01*
X148554072Y-107100000D01*
X148541812Y-106975518D01*
X148505502Y-106855820D01*
X148446537Y-106745506D01*
X148367185Y-106648815D01*
X148270494Y-106569463D01*
X148160180Y-106510498D01*
X148087620Y-106488487D01*
X148219475Y-106356632D01*
X148381990Y-106113411D01*
X148493932Y-105843158D01*
X148551000Y-105556260D01*
X148551000Y-105263740D01*
X148493932Y-104976842D01*
X148381990Y-104706589D01*
X148219475Y-104463368D01*
X148012632Y-104256525D01*
X147838240Y-104140000D01*
X148012632Y-104023475D01*
X148219475Y-103816632D01*
X148327474Y-103655000D01*
X150654343Y-103655000D01*
X151606928Y-104607585D01*
X151606928Y-105098002D01*
X151623992Y-105271256D01*
X151674528Y-105437852D01*
X151756595Y-105591387D01*
X151867038Y-105725962D01*
X152001613Y-105836405D01*
X152155148Y-105918472D01*
X152321744Y-105969008D01*
X152494998Y-105986072D01*
X153020002Y-105986072D01*
X153193256Y-105969008D01*
X153359852Y-105918472D01*
X153513387Y-105836405D01*
X153647962Y-105725962D01*
X153670000Y-105699109D01*
X153692038Y-105725962D01*
X153826613Y-105836405D01*
X153980148Y-105918472D01*
X154146744Y-105969008D01*
X154319998Y-105986072D01*
X154845002Y-105986072D01*
X155018256Y-105969008D01*
X155184852Y-105918472D01*
X155338387Y-105836405D01*
X155472962Y-105725962D01*
X155583405Y-105591387D01*
X155665472Y-105437852D01*
X155716008Y-105271256D01*
X155733072Y-105098002D01*
X155733072Y-104197998D01*
X155716008Y-104024744D01*
X155665472Y-103858148D01*
X155617500Y-103768400D01*
X155617500Y-101590600D01*
X155665472Y-101500852D01*
X155716008Y-101334256D01*
X155733072Y-101161002D01*
X155733072Y-101024138D01*
X156390918Y-100366293D01*
X156430406Y-100333886D01*
X156462813Y-100294398D01*
X156559744Y-100176288D01*
X156638930Y-100028140D01*
X156655851Y-99996483D01*
X156715034Y-99801385D01*
X156730010Y-99649328D01*
X156730010Y-99649325D01*
X156735017Y-99598490D01*
X156730010Y-99547655D01*
X156730010Y-90824837D01*
X156735016Y-90774009D01*
X156730010Y-90723181D01*
X156730010Y-90723172D01*
X156715034Y-90571115D01*
X156655851Y-90376017D01*
X156559744Y-90196213D01*
X156430406Y-90038614D01*
X156390918Y-90006207D01*
X154441711Y-88057000D01*
X155039928Y-88057000D01*
X155052188Y-88181482D01*
X155088498Y-88301180D01*
X155147463Y-88411494D01*
X155226815Y-88508185D01*
X155323506Y-88587537D01*
X155433820Y-88646502D01*
X155553518Y-88682812D01*
X155678000Y-88695072D01*
X156367250Y-88692000D01*
X156526000Y-88533250D01*
X156526000Y-87884000D01*
X155201750Y-87884000D01*
X155043000Y-88042750D01*
X155039928Y-88057000D01*
X154441711Y-88057000D01*
X153445807Y-87061097D01*
X153413396Y-87021604D01*
X153298909Y-86927647D01*
X153303812Y-86911482D01*
X153316072Y-86787000D01*
X155039928Y-86787000D01*
X155052188Y-86911482D01*
X155088498Y-87031180D01*
X155137043Y-87122000D01*
X155088498Y-87212820D01*
X155052188Y-87332518D01*
X155039928Y-87457000D01*
X155043000Y-87471250D01*
X155201750Y-87630000D01*
X156526000Y-87630000D01*
X156526000Y-86614000D01*
X155201750Y-86614000D01*
X155043000Y-86772750D01*
X155039928Y-86787000D01*
X153316072Y-86787000D01*
X153313000Y-86772750D01*
X153154250Y-86614000D01*
X151830000Y-86614000D01*
X151830000Y-86634000D01*
X151576000Y-86634000D01*
X151576000Y-86614000D01*
X151556000Y-86614000D01*
X151556000Y-86360000D01*
X151576000Y-86360000D01*
X151576000Y-86340000D01*
X151830000Y-86340000D01*
X151830000Y-86360000D01*
X153154250Y-86360000D01*
X153313000Y-86201250D01*
X153316072Y-86187000D01*
X153303812Y-86062518D01*
X153267502Y-85942820D01*
X153208537Y-85832506D01*
X153191179Y-85811355D01*
X153235764Y-85774764D01*
X153260347Y-85744810D01*
X153488157Y-85517000D01*
X155039928Y-85517000D01*
X155052188Y-85641482D01*
X155088498Y-85761180D01*
X155137043Y-85852000D01*
X155088498Y-85942820D01*
X155052188Y-86062518D01*
X155039928Y-86187000D01*
X155043000Y-86201250D01*
X155201750Y-86360000D01*
X156526000Y-86360000D01*
X156526000Y-85344000D01*
X155201750Y-85344000D01*
X155043000Y-85502750D01*
X155039928Y-85517000D01*
X153488157Y-85517000D01*
X153555820Y-85449337D01*
X153585774Y-85424754D01*
X153683872Y-85305223D01*
X153756764Y-85168850D01*
X153780683Y-85090000D01*
X153801652Y-85020877D01*
X153810479Y-84931250D01*
X153813010Y-84905551D01*
X153813010Y-84905546D01*
X153816807Y-84866990D01*
X153813010Y-84828434D01*
X153813010Y-84247000D01*
X155039928Y-84247000D01*
X155052188Y-84371482D01*
X155088498Y-84491180D01*
X155137043Y-84582000D01*
X155088498Y-84672820D01*
X155052188Y-84792518D01*
X155039928Y-84917000D01*
X155043000Y-84931250D01*
X155201750Y-85090000D01*
X156526000Y-85090000D01*
X156526000Y-84074000D01*
X155201750Y-84074000D01*
X155043000Y-84232750D01*
X155039928Y-84247000D01*
X153813010Y-84247000D01*
X153813010Y-83647000D01*
X155039928Y-83647000D01*
X155043000Y-83661250D01*
X155201750Y-83820000D01*
X156526000Y-83820000D01*
X156526000Y-83170750D01*
X156367250Y-83012000D01*
X155678000Y-83008928D01*
X155553518Y-83021188D01*
X155433820Y-83057498D01*
X155323506Y-83116463D01*
X155226815Y-83195815D01*
X155147463Y-83292506D01*
X155088498Y-83402820D01*
X155052188Y-83522518D01*
X155039928Y-83647000D01*
X153813010Y-83647000D01*
X153813010Y-83628438D01*
X153816807Y-83589885D01*
X153813010Y-83551332D01*
X153813010Y-83551325D01*
X153801651Y-83435999D01*
X153796552Y-83419188D01*
X153778566Y-83359898D01*
X153756764Y-83288026D01*
X153683872Y-83151653D01*
X153624133Y-83078862D01*
X153610355Y-83062073D01*
X153610352Y-83062070D01*
X153585774Y-83032122D01*
X153555827Y-83007545D01*
X150942971Y-80394690D01*
X150918388Y-80364736D01*
X150798857Y-80266638D01*
X150662484Y-80193746D01*
X150514511Y-80148859D01*
X150399185Y-80137500D01*
X150399177Y-80137500D01*
X150360624Y-80133703D01*
X150322071Y-80137500D01*
X148992513Y-80137500D01*
X148905962Y-80032038D01*
X148879109Y-80010000D01*
X148905962Y-79987962D01*
X149016405Y-79853387D01*
X149098472Y-79699852D01*
X149149008Y-79533256D01*
X149166072Y-79360002D01*
X149166072Y-79223138D01*
X150250338Y-78138872D01*
X152578000Y-78138872D01*
X152578000Y-78579128D01*
X152663890Y-79010925D01*
X152832369Y-79417669D01*
X153076962Y-79783729D01*
X153388271Y-80095038D01*
X153754331Y-80339631D01*
X154161075Y-80508110D01*
X154592872Y-80594000D01*
X155033128Y-80594000D01*
X155464925Y-80508110D01*
X155871669Y-80339631D01*
X156237729Y-80095038D01*
X156549038Y-79783729D01*
X156793631Y-79417669D01*
X156962110Y-79010925D01*
X157048000Y-78579128D01*
X157048000Y-78138872D01*
X156962110Y-77707075D01*
X156793631Y-77300331D01*
X156549038Y-76934271D01*
X156237729Y-76622962D01*
X155871669Y-76378369D01*
X155464925Y-76209890D01*
X155033128Y-76124000D01*
X154592872Y-76124000D01*
X154161075Y-76209890D01*
X153754331Y-76378369D01*
X153388271Y-76622962D01*
X153076962Y-76934271D01*
X152832369Y-77300331D01*
X152663890Y-77707075D01*
X152578000Y-78138872D01*
X150250338Y-78138872D01*
X150809908Y-77579303D01*
X150849396Y-77546896D01*
X150890670Y-77496604D01*
X150978734Y-77389298D01*
X151073513Y-77211977D01*
X151074841Y-77209493D01*
X151134024Y-77014395D01*
X151149000Y-76862338D01*
X151149000Y-76862329D01*
X151154006Y-76811501D01*
X151149000Y-76760673D01*
X151149000Y-72409000D01*
X155397172Y-72409000D01*
X155448000Y-72414006D01*
X155498828Y-72409000D01*
X155498838Y-72409000D01*
X155650895Y-72394024D01*
X155845993Y-72334841D01*
X156025797Y-72238734D01*
X156183396Y-72109396D01*
X156215807Y-72069903D01*
X157159908Y-71125803D01*
X157199396Y-71093396D01*
X157295735Y-70976007D01*
X157328734Y-70935798D01*
X157403349Y-70796202D01*
X157424841Y-70755993D01*
X157455001Y-70656571D01*
X157455000Y-83009699D01*
%TA.AperFunction,Conductor*%
D34*
G36*
X157455000Y-83009699D02*
G01*
X156938750Y-83012000D01*
X156780000Y-83170750D01*
X156780000Y-83820000D01*
X156800000Y-83820000D01*
X156800000Y-84074000D01*
X156780000Y-84074000D01*
X156780000Y-85090000D01*
X156800000Y-85090000D01*
X156800000Y-85344000D01*
X156780000Y-85344000D01*
X156780000Y-86360000D01*
X156800000Y-86360000D01*
X156800000Y-86614000D01*
X156780000Y-86614000D01*
X156780000Y-87630000D01*
X156800000Y-87630000D01*
X156800000Y-87884000D01*
X156780000Y-87884000D01*
X156780000Y-88533250D01*
X156938750Y-88692000D01*
X157455000Y-88694301D01*
X157454999Y-119855721D01*
X157401578Y-120400552D01*
X157252722Y-120893584D01*
X157010941Y-121348308D01*
X156685442Y-121747409D01*
X156288615Y-122075693D01*
X155835590Y-122320643D01*
X155343608Y-122472937D01*
X154800704Y-122529999D01*
X147803704Y-122529999D01*
X149747812Y-120585891D01*
X149777765Y-120561309D01*
X149875863Y-120441778D01*
X149948755Y-120305405D01*
X149957009Y-120278195D01*
X149993643Y-120157432D01*
X150002637Y-120066104D01*
X150005001Y-120042106D01*
X150005001Y-120042101D01*
X150008798Y-120003545D01*
X150005001Y-119964989D01*
X150005001Y-119667872D01*
X152578000Y-119667872D01*
X152578000Y-120108128D01*
X152663890Y-120539925D01*
X152832369Y-120946669D01*
X153076962Y-121312729D01*
X153388271Y-121624038D01*
X153754331Y-121868631D01*
X154161075Y-122037110D01*
X154592872Y-122123000D01*
X155033128Y-122123000D01*
X155464925Y-122037110D01*
X155871669Y-121868631D01*
X156237729Y-121624038D01*
X156549038Y-121312729D01*
X156793631Y-120946669D01*
X156962110Y-120539925D01*
X157048000Y-120108128D01*
X157048000Y-119667872D01*
X156962110Y-119236075D01*
X156793631Y-118829331D01*
X156549038Y-118463271D01*
X156237729Y-118151962D01*
X155871669Y-117907369D01*
X155464925Y-117738890D01*
X155033128Y-117653000D01*
X154592872Y-117653000D01*
X154161075Y-117738890D01*
X153754331Y-117907369D01*
X153388271Y-118151962D01*
X153076962Y-118463271D01*
X152832369Y-118829331D01*
X152663890Y-119236075D01*
X152578000Y-119667872D01*
X150005001Y-119667872D01*
X150005001Y-110777553D01*
X150008798Y-110739000D01*
X150005001Y-110700447D01*
X150005001Y-110700440D01*
X149993642Y-110585114D01*
X149993230Y-110583754D01*
X149948755Y-110437141D01*
X149948231Y-110436160D01*
X149875863Y-110300768D01*
X149826451Y-110240560D01*
X149802346Y-110211188D01*
X149802343Y-110211185D01*
X149777765Y-110181237D01*
X149747816Y-110156658D01*
X148918347Y-109327190D01*
X148893764Y-109297236D01*
X148774233Y-109199138D01*
X148637860Y-109126246D01*
X148489887Y-109081359D01*
X148485842Y-109080961D01*
X148505502Y-109044180D01*
X148541812Y-108924482D01*
X148554072Y-108800000D01*
X148551000Y-108235750D01*
X148392250Y-108077000D01*
X147193000Y-108077000D01*
X147193000Y-108097000D01*
X146939000Y-108097000D01*
X146939000Y-108077000D01*
X146919000Y-108077000D01*
X146919000Y-107823000D01*
X146939000Y-107823000D01*
X146939000Y-107803000D01*
X147193000Y-107803000D01*
X147193000Y-107823000D01*
X148392250Y-107823000D01*
X148551000Y-107664250D01*
X148554072Y-107100000D01*
X148541812Y-106975518D01*
X148505502Y-106855820D01*
X148446537Y-106745506D01*
X148367185Y-106648815D01*
X148270494Y-106569463D01*
X148160180Y-106510498D01*
X148087620Y-106488487D01*
X148219475Y-106356632D01*
X148381990Y-106113411D01*
X148493932Y-105843158D01*
X148551000Y-105556260D01*
X148551000Y-105263740D01*
X148493932Y-104976842D01*
X148381990Y-104706589D01*
X148219475Y-104463368D01*
X148012632Y-104256525D01*
X147838240Y-104140000D01*
X148012632Y-104023475D01*
X148219475Y-103816632D01*
X148327474Y-103655000D01*
X150654343Y-103655000D01*
X151606928Y-104607585D01*
X151606928Y-105098002D01*
X151623992Y-105271256D01*
X151674528Y-105437852D01*
X151756595Y-105591387D01*
X151867038Y-105725962D01*
X152001613Y-105836405D01*
X152155148Y-105918472D01*
X152321744Y-105969008D01*
X152494998Y-105986072D01*
X153020002Y-105986072D01*
X153193256Y-105969008D01*
X153359852Y-105918472D01*
X153513387Y-105836405D01*
X153647962Y-105725962D01*
X153670000Y-105699109D01*
X153692038Y-105725962D01*
X153826613Y-105836405D01*
X153980148Y-105918472D01*
X154146744Y-105969008D01*
X154319998Y-105986072D01*
X154845002Y-105986072D01*
X155018256Y-105969008D01*
X155184852Y-105918472D01*
X155338387Y-105836405D01*
X155472962Y-105725962D01*
X155583405Y-105591387D01*
X155665472Y-105437852D01*
X155716008Y-105271256D01*
X155733072Y-105098002D01*
X155733072Y-104197998D01*
X155716008Y-104024744D01*
X155665472Y-103858148D01*
X155617500Y-103768400D01*
X155617500Y-101590600D01*
X155665472Y-101500852D01*
X155716008Y-101334256D01*
X155733072Y-101161002D01*
X155733072Y-101024138D01*
X156390918Y-100366293D01*
X156430406Y-100333886D01*
X156462813Y-100294398D01*
X156559744Y-100176288D01*
X156638930Y-100028140D01*
X156655851Y-99996483D01*
X156715034Y-99801385D01*
X156730010Y-99649328D01*
X156730010Y-99649325D01*
X156735017Y-99598490D01*
X156730010Y-99547655D01*
X156730010Y-90824837D01*
X156735016Y-90774009D01*
X156730010Y-90723181D01*
X156730010Y-90723172D01*
X156715034Y-90571115D01*
X156655851Y-90376017D01*
X156559744Y-90196213D01*
X156430406Y-90038614D01*
X156390918Y-90006207D01*
X154441711Y-88057000D01*
X155039928Y-88057000D01*
X155052188Y-88181482D01*
X155088498Y-88301180D01*
X155147463Y-88411494D01*
X155226815Y-88508185D01*
X155323506Y-88587537D01*
X155433820Y-88646502D01*
X155553518Y-88682812D01*
X155678000Y-88695072D01*
X156367250Y-88692000D01*
X156526000Y-88533250D01*
X156526000Y-87884000D01*
X155201750Y-87884000D01*
X155043000Y-88042750D01*
X155039928Y-88057000D01*
X154441711Y-88057000D01*
X153445807Y-87061097D01*
X153413396Y-87021604D01*
X153298909Y-86927647D01*
X153303812Y-86911482D01*
X153316072Y-86787000D01*
X155039928Y-86787000D01*
X155052188Y-86911482D01*
X155088498Y-87031180D01*
X155137043Y-87122000D01*
X155088498Y-87212820D01*
X155052188Y-87332518D01*
X155039928Y-87457000D01*
X155043000Y-87471250D01*
X155201750Y-87630000D01*
X156526000Y-87630000D01*
X156526000Y-86614000D01*
X155201750Y-86614000D01*
X155043000Y-86772750D01*
X155039928Y-86787000D01*
X153316072Y-86787000D01*
X153313000Y-86772750D01*
X153154250Y-86614000D01*
X151830000Y-86614000D01*
X151830000Y-86634000D01*
X151576000Y-86634000D01*
X151576000Y-86614000D01*
X151556000Y-86614000D01*
X151556000Y-86360000D01*
X151576000Y-86360000D01*
X151576000Y-86340000D01*
X151830000Y-86340000D01*
X151830000Y-86360000D01*
X153154250Y-86360000D01*
X153313000Y-86201250D01*
X153316072Y-86187000D01*
X153303812Y-86062518D01*
X153267502Y-85942820D01*
X153208537Y-85832506D01*
X153191179Y-85811355D01*
X153235764Y-85774764D01*
X153260347Y-85744810D01*
X153488157Y-85517000D01*
X155039928Y-85517000D01*
X155052188Y-85641482D01*
X155088498Y-85761180D01*
X155137043Y-85852000D01*
X155088498Y-85942820D01*
X155052188Y-86062518D01*
X155039928Y-86187000D01*
X155043000Y-86201250D01*
X155201750Y-86360000D01*
X156526000Y-86360000D01*
X156526000Y-85344000D01*
X155201750Y-85344000D01*
X155043000Y-85502750D01*
X155039928Y-85517000D01*
X153488157Y-85517000D01*
X153555820Y-85449337D01*
X153585774Y-85424754D01*
X153683872Y-85305223D01*
X153756764Y-85168850D01*
X153780683Y-85090000D01*
X153801652Y-85020877D01*
X153810479Y-84931250D01*
X153813010Y-84905551D01*
X153813010Y-84905546D01*
X153816807Y-84866990D01*
X153813010Y-84828434D01*
X153813010Y-84247000D01*
X155039928Y-84247000D01*
X155052188Y-84371482D01*
X155088498Y-84491180D01*
X155137043Y-84582000D01*
X155088498Y-84672820D01*
X155052188Y-84792518D01*
X155039928Y-84917000D01*
X155043000Y-84931250D01*
X155201750Y-85090000D01*
X156526000Y-85090000D01*
X156526000Y-84074000D01*
X155201750Y-84074000D01*
X155043000Y-84232750D01*
X155039928Y-84247000D01*
X153813010Y-84247000D01*
X153813010Y-83647000D01*
X155039928Y-83647000D01*
X155043000Y-83661250D01*
X155201750Y-83820000D01*
X156526000Y-83820000D01*
X156526000Y-83170750D01*
X156367250Y-83012000D01*
X155678000Y-83008928D01*
X155553518Y-83021188D01*
X155433820Y-83057498D01*
X155323506Y-83116463D01*
X155226815Y-83195815D01*
X155147463Y-83292506D01*
X155088498Y-83402820D01*
X155052188Y-83522518D01*
X155039928Y-83647000D01*
X153813010Y-83647000D01*
X153813010Y-83628438D01*
X153816807Y-83589885D01*
X153813010Y-83551332D01*
X153813010Y-83551325D01*
X153801651Y-83435999D01*
X153796552Y-83419188D01*
X153778566Y-83359898D01*
X153756764Y-83288026D01*
X153683872Y-83151653D01*
X153624133Y-83078862D01*
X153610355Y-83062073D01*
X153610352Y-83062070D01*
X153585774Y-83032122D01*
X153555827Y-83007545D01*
X150942971Y-80394690D01*
X150918388Y-80364736D01*
X150798857Y-80266638D01*
X150662484Y-80193746D01*
X150514511Y-80148859D01*
X150399185Y-80137500D01*
X150399177Y-80137500D01*
X150360624Y-80133703D01*
X150322071Y-80137500D01*
X148992513Y-80137500D01*
X148905962Y-80032038D01*
X148879109Y-80010000D01*
X148905962Y-79987962D01*
X149016405Y-79853387D01*
X149098472Y-79699852D01*
X149149008Y-79533256D01*
X149166072Y-79360002D01*
X149166072Y-79223138D01*
X150250338Y-78138872D01*
X152578000Y-78138872D01*
X152578000Y-78579128D01*
X152663890Y-79010925D01*
X152832369Y-79417669D01*
X153076962Y-79783729D01*
X153388271Y-80095038D01*
X153754331Y-80339631D01*
X154161075Y-80508110D01*
X154592872Y-80594000D01*
X155033128Y-80594000D01*
X155464925Y-80508110D01*
X155871669Y-80339631D01*
X156237729Y-80095038D01*
X156549038Y-79783729D01*
X156793631Y-79417669D01*
X156962110Y-79010925D01*
X157048000Y-78579128D01*
X157048000Y-78138872D01*
X156962110Y-77707075D01*
X156793631Y-77300331D01*
X156549038Y-76934271D01*
X156237729Y-76622962D01*
X155871669Y-76378369D01*
X155464925Y-76209890D01*
X155033128Y-76124000D01*
X154592872Y-76124000D01*
X154161075Y-76209890D01*
X153754331Y-76378369D01*
X153388271Y-76622962D01*
X153076962Y-76934271D01*
X152832369Y-77300331D01*
X152663890Y-77707075D01*
X152578000Y-78138872D01*
X150250338Y-78138872D01*
X150809908Y-77579303D01*
X150849396Y-77546896D01*
X150890670Y-77496604D01*
X150978734Y-77389298D01*
X151073513Y-77211977D01*
X151074841Y-77209493D01*
X151134024Y-77014395D01*
X151149000Y-76862338D01*
X151149000Y-76862329D01*
X151154006Y-76811501D01*
X151149000Y-76760673D01*
X151149000Y-72409000D01*
X155397172Y-72409000D01*
X155448000Y-72414006D01*
X155498828Y-72409000D01*
X155498838Y-72409000D01*
X155650895Y-72394024D01*
X155845993Y-72334841D01*
X156025797Y-72238734D01*
X156183396Y-72109396D01*
X156215807Y-72069903D01*
X157159908Y-71125803D01*
X157199396Y-71093396D01*
X157295735Y-70976007D01*
X157328734Y-70935798D01*
X157403349Y-70796202D01*
X157424841Y-70755993D01*
X157455001Y-70656571D01*
X157455000Y-83009699D01*
G37*
%TD.AperFunction*%
D33*
X145293750Y-117024000D02*
X146243000Y-117024000D01*
X146243000Y-117004000D01*
X146497000Y-117004000D01*
X146497000Y-117024000D01*
X146517000Y-117024000D01*
X146517000Y-117278000D01*
X146497000Y-117278000D01*
X146497000Y-119253000D01*
X146517000Y-119253000D01*
X146517000Y-119507000D01*
X146497000Y-119507000D01*
X146497000Y-119527000D01*
X146243000Y-119527000D01*
X146243000Y-119507000D01*
X145393750Y-119507000D01*
X145235000Y-119665750D01*
X145231928Y-120105000D01*
X145244188Y-120229482D01*
X145249199Y-120246000D01*
X143660000Y-120246000D01*
X143660000Y-119961222D01*
X143693418Y-119979084D01*
X143841255Y-120023929D01*
X143995000Y-120039072D01*
X144295000Y-120039072D01*
X144448745Y-120023929D01*
X144596582Y-119979084D01*
X144732829Y-119906258D01*
X144852251Y-119808251D01*
X144950258Y-119688829D01*
X145023084Y-119552582D01*
X145067929Y-119404745D01*
X145083072Y-119251000D01*
X145083072Y-117851000D01*
X145131928Y-117851000D01*
X145144188Y-117975482D01*
X145180498Y-118095180D01*
X145239463Y-118205494D01*
X145318815Y-118302185D01*
X145332543Y-118313452D01*
X145280498Y-118410820D01*
X145244188Y-118530518D01*
X145231928Y-118655000D01*
X145235000Y-119094250D01*
X145393750Y-119253000D01*
X146243000Y-119253000D01*
X146243000Y-117278000D01*
X145293750Y-117278000D01*
X145135000Y-117436750D01*
X145131928Y-117851000D01*
X145083072Y-117851000D01*
X145083072Y-117601000D01*
X145067929Y-117447255D01*
X145023084Y-117299418D01*
X144991266Y-117239891D01*
X145250454Y-116980704D01*
X145293750Y-117024000D01*
%TA.AperFunction,Conductor*%
D34*
G36*
X145293750Y-117024000D02*
G01*
X146243000Y-117024000D01*
X146243000Y-117004000D01*
X146497000Y-117004000D01*
X146497000Y-117024000D01*
X146517000Y-117024000D01*
X146517000Y-117278000D01*
X146497000Y-117278000D01*
X146497000Y-119253000D01*
X146517000Y-119253000D01*
X146517000Y-119507000D01*
X146497000Y-119507000D01*
X146497000Y-119527000D01*
X146243000Y-119527000D01*
X146243000Y-119507000D01*
X145393750Y-119507000D01*
X145235000Y-119665750D01*
X145231928Y-120105000D01*
X145244188Y-120229482D01*
X145249199Y-120246000D01*
X143660000Y-120246000D01*
X143660000Y-119961222D01*
X143693418Y-119979084D01*
X143841255Y-120023929D01*
X143995000Y-120039072D01*
X144295000Y-120039072D01*
X144448745Y-120023929D01*
X144596582Y-119979084D01*
X144732829Y-119906258D01*
X144852251Y-119808251D01*
X144950258Y-119688829D01*
X145023084Y-119552582D01*
X145067929Y-119404745D01*
X145083072Y-119251000D01*
X145083072Y-117851000D01*
X145131928Y-117851000D01*
X145144188Y-117975482D01*
X145180498Y-118095180D01*
X145239463Y-118205494D01*
X145318815Y-118302185D01*
X145332543Y-118313452D01*
X145280498Y-118410820D01*
X145244188Y-118530518D01*
X145231928Y-118655000D01*
X145235000Y-119094250D01*
X145393750Y-119253000D01*
X146243000Y-119253000D01*
X146243000Y-117278000D01*
X145293750Y-117278000D01*
X145135000Y-117436750D01*
X145131928Y-117851000D01*
X145083072Y-117851000D01*
X145083072Y-117601000D01*
X145067929Y-117447255D01*
X145023084Y-117299418D01*
X144991266Y-117239891D01*
X145250454Y-116980704D01*
X145293750Y-117024000D01*
G37*
%TD.AperFunction*%
D33*
X145581000Y-103016260D02*
X145638068Y-103303158D01*
X145750010Y-103573411D01*
X145912525Y-103816632D01*
X146119368Y-104023475D01*
X146293760Y-104140000D01*
X146119368Y-104256525D01*
X145912525Y-104463368D01*
X145750010Y-104706589D01*
X145638068Y-104976842D01*
X145581000Y-105263740D01*
X145581000Y-105556260D01*
X145618924Y-105746918D01*
X145162046Y-106203796D01*
X145089250Y-106131000D01*
X143490000Y-106131000D01*
X143490000Y-106980250D01*
X143648750Y-107139000D01*
X144225007Y-107140836D01*
X143998185Y-107367658D01*
X143968237Y-107392236D01*
X143943659Y-107422184D01*
X143943655Y-107422188D01*
X143941958Y-107424256D01*
X143870139Y-107511767D01*
X143853709Y-107542506D01*
X143797246Y-107648141D01*
X143752359Y-107796114D01*
X143737203Y-107950000D01*
X143741001Y-107988562D01*
X143741000Y-109816439D01*
X143737202Y-109855000D01*
X143752359Y-110008887D01*
X143797246Y-110156860D01*
X143870138Y-110293233D01*
X143927395Y-110363000D01*
X143968236Y-110412764D01*
X144087767Y-110510862D01*
X144224140Y-110583754D01*
X144372113Y-110628641D01*
X144526000Y-110643798D01*
X144564560Y-110640000D01*
X148010843Y-110640000D01*
X148435002Y-111064160D01*
X148435002Y-111409748D01*
X148397000Y-111447750D01*
X148397000Y-112522000D01*
X148417000Y-112522000D01*
X148417000Y-112776000D01*
X148397000Y-112776000D01*
X148397000Y-114624000D01*
X148417000Y-114624000D01*
X148417000Y-114878000D01*
X148397000Y-114878000D01*
X148397000Y-114898000D01*
X148143000Y-114898000D01*
X148143000Y-114878000D01*
X148123000Y-114878000D01*
X148123000Y-114624000D01*
X148143000Y-114624000D01*
X148143000Y-112776000D01*
X148123000Y-112776000D01*
X148123000Y-112522000D01*
X148143000Y-112522000D01*
X148143000Y-111447750D01*
X147984250Y-111289000D01*
X147770000Y-111285928D01*
X147645518Y-111298188D01*
X147525820Y-111334498D01*
X147415506Y-111393463D01*
X147318815Y-111472815D01*
X147253342Y-111552594D01*
X147247962Y-111546038D01*
X147113386Y-111435595D01*
X146959850Y-111353528D01*
X146793254Y-111302992D01*
X146620000Y-111285928D01*
X146120000Y-111285928D01*
X145946746Y-111302992D01*
X145780150Y-111353528D01*
X145626614Y-111435595D01*
X145492038Y-111546038D01*
X145381595Y-111680614D01*
X145299528Y-111834150D01*
X145248992Y-112000746D01*
X145231928Y-112174000D01*
X145231928Y-113124000D01*
X145248992Y-113297254D01*
X145299528Y-113463850D01*
X145355925Y-113569360D01*
X145318815Y-113599815D01*
X145239463Y-113696506D01*
X145180498Y-113806820D01*
X145144188Y-113926518D01*
X145131928Y-114051000D01*
X145131928Y-114878914D01*
X143617190Y-116393653D01*
X143587236Y-116418236D01*
X143489138Y-116537768D01*
X143416246Y-116674141D01*
X143371359Y-116822114D01*
X143364366Y-116893112D01*
X143326582Y-116872916D01*
X143178745Y-116828071D01*
X143025000Y-116812928D01*
X142725000Y-116812928D01*
X142571255Y-116828071D01*
X142423418Y-116872916D01*
X142287171Y-116945742D01*
X142240000Y-116984454D01*
X142192829Y-116945742D01*
X142056582Y-116872916D01*
X141973235Y-116847633D01*
X142005000Y-116687939D01*
X142005000Y-116484061D01*
X141965226Y-116284102D01*
X141887205Y-116095744D01*
X141773937Y-115926226D01*
X141629774Y-115782063D01*
X141460256Y-115668795D01*
X141271898Y-115590774D01*
X141071939Y-115551000D01*
X140868061Y-115551000D01*
X140668102Y-115590774D01*
X140479744Y-115668795D01*
X140310226Y-115782063D01*
X140291289Y-115801000D01*
X138747934Y-115801000D01*
X138712205Y-115714744D01*
X138598937Y-115545226D01*
X138454774Y-115401063D01*
X138285256Y-115287795D01*
X138096898Y-115209774D01*
X137896939Y-115170000D01*
X137693061Y-115170000D01*
X137493102Y-115209774D01*
X137304744Y-115287795D01*
X137135226Y-115401063D01*
X136991063Y-115545226D01*
X136877795Y-115714744D01*
X136799774Y-115903102D01*
X136760000Y-116103061D01*
X136760000Y-116129842D01*
X135997185Y-116892658D01*
X135967237Y-116917236D01*
X135949056Y-116939389D01*
X135939064Y-116944730D01*
X135909494Y-116920463D01*
X135799180Y-116861498D01*
X135679482Y-116825188D01*
X135555000Y-116812928D01*
X135540750Y-116816000D01*
X135382000Y-116974750D01*
X135382000Y-118299000D01*
X135402000Y-118299000D01*
X135402000Y-118553000D01*
X135382000Y-118553000D01*
X135382000Y-118573000D01*
X135128000Y-118573000D01*
X135128000Y-118553000D01*
X135108000Y-118553000D01*
X135108000Y-118299000D01*
X135128000Y-118299000D01*
X135128000Y-116974750D01*
X134969250Y-116816000D01*
X134955000Y-116812928D01*
X134830518Y-116825188D01*
X134766000Y-116844759D01*
X134766000Y-115009084D01*
X134803418Y-115029084D01*
X134951255Y-115073929D01*
X135105000Y-115089072D01*
X135405000Y-115089072D01*
X135558745Y-115073929D01*
X135706582Y-115029084D01*
X135842829Y-114956258D01*
X135890000Y-114917546D01*
X135937171Y-114956258D01*
X136073418Y-115029084D01*
X136221255Y-115073929D01*
X136375000Y-115089072D01*
X136675000Y-115089072D01*
X136828745Y-115073929D01*
X136976582Y-115029084D01*
X137112829Y-114956258D01*
X137160000Y-114917546D01*
X137207171Y-114956258D01*
X137343418Y-115029084D01*
X137491255Y-115073929D01*
X137645000Y-115089072D01*
X137945000Y-115089072D01*
X138098745Y-115073929D01*
X138246582Y-115029084D01*
X138382829Y-114956258D01*
X138430000Y-114917546D01*
X138477171Y-114956258D01*
X138613418Y-115029084D01*
X138761255Y-115073929D01*
X138915000Y-115089072D01*
X139215000Y-115089072D01*
X139368745Y-115073929D01*
X139516582Y-115029084D01*
X139652829Y-114956258D01*
X139700000Y-114917546D01*
X139747171Y-114956258D01*
X139883418Y-115029084D01*
X140031255Y-115073929D01*
X140185000Y-115089072D01*
X140485000Y-115089072D01*
X140638745Y-115073929D01*
X140786582Y-115029084D01*
X140922829Y-114956258D01*
X140970000Y-114917546D01*
X141017171Y-114956258D01*
X141153418Y-115029084D01*
X141301255Y-115073929D01*
X141455000Y-115089072D01*
X141755000Y-115089072D01*
X141908745Y-115073929D01*
X142056582Y-115029084D01*
X142192829Y-114956258D01*
X142240000Y-114917546D01*
X142287171Y-114956258D01*
X142423418Y-115029084D01*
X142571255Y-115073929D01*
X142725000Y-115089072D01*
X143025000Y-115089072D01*
X143178745Y-115073929D01*
X143326582Y-115029084D01*
X143462829Y-114956258D01*
X143510000Y-114917546D01*
X143557171Y-114956258D01*
X143693418Y-115029084D01*
X143841255Y-115073929D01*
X143995000Y-115089072D01*
X144295000Y-115089072D01*
X144448745Y-115073929D01*
X144596582Y-115029084D01*
X144732829Y-114956258D01*
X144852251Y-114858251D01*
X144950258Y-114738829D01*
X145023084Y-114602582D01*
X145067929Y-114454745D01*
X145083072Y-114301000D01*
X145083072Y-112651000D01*
X145067929Y-112497255D01*
X145023084Y-112349418D01*
X144950258Y-112213171D01*
X144852251Y-112093749D01*
X144732829Y-111995742D01*
X144596582Y-111922916D01*
X144448745Y-111878071D01*
X144295000Y-111862928D01*
X143995000Y-111862928D01*
X143841255Y-111878071D01*
X143693418Y-111922916D01*
X143557171Y-111995742D01*
X143510000Y-112034454D01*
X143462829Y-111995742D01*
X143326582Y-111922916D01*
X143178745Y-111878071D01*
X143025000Y-111862928D01*
X142725000Y-111862928D01*
X142571255Y-111878071D01*
X142423418Y-111922916D01*
X142287171Y-111995742D01*
X142240000Y-112034454D01*
X142192829Y-111995742D01*
X142056582Y-111922916D01*
X141908745Y-111878071D01*
X141755000Y-111862928D01*
X141455000Y-111862928D01*
X141301255Y-111878071D01*
X141153418Y-111922916D01*
X141017171Y-111995742D01*
X140970000Y-112034454D01*
X140922829Y-111995742D01*
X140786582Y-111922916D01*
X140638745Y-111878071D01*
X140485000Y-111862928D01*
X140185000Y-111862928D01*
X140031255Y-111878071D01*
X139883418Y-111922916D01*
X139850000Y-111940778D01*
X139850000Y-111925556D01*
X139853797Y-111887000D01*
X139850000Y-111848440D01*
X139850000Y-111848439D01*
X139844736Y-111794994D01*
X139838642Y-111733113D01*
X139803049Y-111615780D01*
X139836148Y-111633472D01*
X140002744Y-111684008D01*
X140175998Y-111701072D01*
X140701002Y-111701072D01*
X140874256Y-111684008D01*
X141040852Y-111633472D01*
X141194387Y-111551405D01*
X141275637Y-111484724D01*
X141299815Y-111514185D01*
X141396506Y-111593537D01*
X141506820Y-111652502D01*
X141626518Y-111688812D01*
X141751000Y-111701072D01*
X141977750Y-111698000D01*
X142136500Y-111539250D01*
X142136500Y-110490000D01*
X142390500Y-110490000D01*
X142390500Y-111539250D01*
X142549250Y-111698000D01*
X142776000Y-111701072D01*
X142900482Y-111688812D01*
X143020180Y-111652502D01*
X143130494Y-111593537D01*
X143227185Y-111514185D01*
X143306537Y-111417494D01*
X143365502Y-111307180D01*
X143401812Y-111187482D01*
X143414072Y-111063000D01*
X143411000Y-110648750D01*
X143252250Y-110490000D01*
X142390500Y-110490000D01*
X142136500Y-110490000D01*
X142116500Y-110490000D01*
X142116500Y-110236000D01*
X142136500Y-110236000D01*
X142136500Y-110216000D01*
X142390500Y-110216000D01*
X142390500Y-110236000D01*
X143252250Y-110236000D01*
X143411000Y-110077250D01*
X143414072Y-109663000D01*
X143401812Y-109538518D01*
X143365502Y-109418820D01*
X143306537Y-109308506D01*
X143227185Y-109211815D01*
X143130494Y-109132463D01*
X143020180Y-109073498D01*
X142900482Y-109037188D01*
X142776000Y-109024928D01*
X142549250Y-109028000D01*
X142400628Y-109176622D01*
X142398001Y-109149947D01*
X142398001Y-107141164D01*
X143077250Y-107139000D01*
X143236000Y-106980250D01*
X143236000Y-106131000D01*
X143216000Y-106131000D01*
X143216000Y-105877000D01*
X143236000Y-105877000D01*
X143236000Y-105857000D01*
X143490000Y-105857000D01*
X143490000Y-105877000D01*
X145089250Y-105877000D01*
X145248000Y-105718250D01*
X145251072Y-105504000D01*
X145238812Y-105379518D01*
X145202502Y-105259820D01*
X145143537Y-105149506D01*
X145064185Y-105052815D01*
X145004704Y-105004000D01*
X145064185Y-104955185D01*
X145143537Y-104858494D01*
X145202502Y-104748180D01*
X145238812Y-104628482D01*
X145251072Y-104504000D01*
X145251072Y-103504000D01*
X145238812Y-103379518D01*
X145202502Y-103259820D01*
X145143537Y-103149506D01*
X145064185Y-103052815D01*
X145004704Y-103004000D01*
X145064185Y-102955185D01*
X145143537Y-102858494D01*
X145180683Y-102789000D01*
X145581000Y-102789000D01*
X145581000Y-103016260D01*
%TA.AperFunction,Conductor*%
D34*
G36*
X145581000Y-103016260D02*
G01*
X145638068Y-103303158D01*
X145750010Y-103573411D01*
X145912525Y-103816632D01*
X146119368Y-104023475D01*
X146293760Y-104140000D01*
X146119368Y-104256525D01*
X145912525Y-104463368D01*
X145750010Y-104706589D01*
X145638068Y-104976842D01*
X145581000Y-105263740D01*
X145581000Y-105556260D01*
X145618924Y-105746918D01*
X145162046Y-106203796D01*
X145089250Y-106131000D01*
X143490000Y-106131000D01*
X143490000Y-106980250D01*
X143648750Y-107139000D01*
X144225007Y-107140836D01*
X143998185Y-107367658D01*
X143968237Y-107392236D01*
X143943659Y-107422184D01*
X143943655Y-107422188D01*
X143941958Y-107424256D01*
X143870139Y-107511767D01*
X143853709Y-107542506D01*
X143797246Y-107648141D01*
X143752359Y-107796114D01*
X143737203Y-107950000D01*
X143741001Y-107988562D01*
X143741000Y-109816439D01*
X143737202Y-109855000D01*
X143752359Y-110008887D01*
X143797246Y-110156860D01*
X143870138Y-110293233D01*
X143927395Y-110363000D01*
X143968236Y-110412764D01*
X144087767Y-110510862D01*
X144224140Y-110583754D01*
X144372113Y-110628641D01*
X144526000Y-110643798D01*
X144564560Y-110640000D01*
X148010843Y-110640000D01*
X148435002Y-111064160D01*
X148435002Y-111409748D01*
X148397000Y-111447750D01*
X148397000Y-112522000D01*
X148417000Y-112522000D01*
X148417000Y-112776000D01*
X148397000Y-112776000D01*
X148397000Y-114624000D01*
X148417000Y-114624000D01*
X148417000Y-114878000D01*
X148397000Y-114878000D01*
X148397000Y-114898000D01*
X148143000Y-114898000D01*
X148143000Y-114878000D01*
X148123000Y-114878000D01*
X148123000Y-114624000D01*
X148143000Y-114624000D01*
X148143000Y-112776000D01*
X148123000Y-112776000D01*
X148123000Y-112522000D01*
X148143000Y-112522000D01*
X148143000Y-111447750D01*
X147984250Y-111289000D01*
X147770000Y-111285928D01*
X147645518Y-111298188D01*
X147525820Y-111334498D01*
X147415506Y-111393463D01*
X147318815Y-111472815D01*
X147253342Y-111552594D01*
X147247962Y-111546038D01*
X147113386Y-111435595D01*
X146959850Y-111353528D01*
X146793254Y-111302992D01*
X146620000Y-111285928D01*
X146120000Y-111285928D01*
X145946746Y-111302992D01*
X145780150Y-111353528D01*
X145626614Y-111435595D01*
X145492038Y-111546038D01*
X145381595Y-111680614D01*
X145299528Y-111834150D01*
X145248992Y-112000746D01*
X145231928Y-112174000D01*
X145231928Y-113124000D01*
X145248992Y-113297254D01*
X145299528Y-113463850D01*
X145355925Y-113569360D01*
X145318815Y-113599815D01*
X145239463Y-113696506D01*
X145180498Y-113806820D01*
X145144188Y-113926518D01*
X145131928Y-114051000D01*
X145131928Y-114878914D01*
X143617190Y-116393653D01*
X143587236Y-116418236D01*
X143489138Y-116537768D01*
X143416246Y-116674141D01*
X143371359Y-116822114D01*
X143364366Y-116893112D01*
X143326582Y-116872916D01*
X143178745Y-116828071D01*
X143025000Y-116812928D01*
X142725000Y-116812928D01*
X142571255Y-116828071D01*
X142423418Y-116872916D01*
X142287171Y-116945742D01*
X142240000Y-116984454D01*
X142192829Y-116945742D01*
X142056582Y-116872916D01*
X141973235Y-116847633D01*
X142005000Y-116687939D01*
X142005000Y-116484061D01*
X141965226Y-116284102D01*
X141887205Y-116095744D01*
X141773937Y-115926226D01*
X141629774Y-115782063D01*
X141460256Y-115668795D01*
X141271898Y-115590774D01*
X141071939Y-115551000D01*
X140868061Y-115551000D01*
X140668102Y-115590774D01*
X140479744Y-115668795D01*
X140310226Y-115782063D01*
X140291289Y-115801000D01*
X138747934Y-115801000D01*
X138712205Y-115714744D01*
X138598937Y-115545226D01*
X138454774Y-115401063D01*
X138285256Y-115287795D01*
X138096898Y-115209774D01*
X137896939Y-115170000D01*
X137693061Y-115170000D01*
X137493102Y-115209774D01*
X137304744Y-115287795D01*
X137135226Y-115401063D01*
X136991063Y-115545226D01*
X136877795Y-115714744D01*
X136799774Y-115903102D01*
X136760000Y-116103061D01*
X136760000Y-116129842D01*
X135997185Y-116892658D01*
X135967237Y-116917236D01*
X135949056Y-116939389D01*
X135939064Y-116944730D01*
X135909494Y-116920463D01*
X135799180Y-116861498D01*
X135679482Y-116825188D01*
X135555000Y-116812928D01*
X135540750Y-116816000D01*
X135382000Y-116974750D01*
X135382000Y-118299000D01*
X135402000Y-118299000D01*
X135402000Y-118553000D01*
X135382000Y-118553000D01*
X135382000Y-118573000D01*
X135128000Y-118573000D01*
X135128000Y-118553000D01*
X135108000Y-118553000D01*
X135108000Y-118299000D01*
X135128000Y-118299000D01*
X135128000Y-116974750D01*
X134969250Y-116816000D01*
X134955000Y-116812928D01*
X134830518Y-116825188D01*
X134766000Y-116844759D01*
X134766000Y-115009084D01*
X134803418Y-115029084D01*
X134951255Y-115073929D01*
X135105000Y-115089072D01*
X135405000Y-115089072D01*
X135558745Y-115073929D01*
X135706582Y-115029084D01*
X135842829Y-114956258D01*
X135890000Y-114917546D01*
X135937171Y-114956258D01*
X136073418Y-115029084D01*
X136221255Y-115073929D01*
X136375000Y-115089072D01*
X136675000Y-115089072D01*
X136828745Y-115073929D01*
X136976582Y-115029084D01*
X137112829Y-114956258D01*
X137160000Y-114917546D01*
X137207171Y-114956258D01*
X137343418Y-115029084D01*
X137491255Y-115073929D01*
X137645000Y-115089072D01*
X137945000Y-115089072D01*
X138098745Y-115073929D01*
X138246582Y-115029084D01*
X138382829Y-114956258D01*
X138430000Y-114917546D01*
X138477171Y-114956258D01*
X138613418Y-115029084D01*
X138761255Y-115073929D01*
X138915000Y-115089072D01*
X139215000Y-115089072D01*
X139368745Y-115073929D01*
X139516582Y-115029084D01*
X139652829Y-114956258D01*
X139700000Y-114917546D01*
X139747171Y-114956258D01*
X139883418Y-115029084D01*
X140031255Y-115073929D01*
X140185000Y-115089072D01*
X140485000Y-115089072D01*
X140638745Y-115073929D01*
X140786582Y-115029084D01*
X140922829Y-114956258D01*
X140970000Y-114917546D01*
X141017171Y-114956258D01*
X141153418Y-115029084D01*
X141301255Y-115073929D01*
X141455000Y-115089072D01*
X141755000Y-115089072D01*
X141908745Y-115073929D01*
X142056582Y-115029084D01*
X142192829Y-114956258D01*
X142240000Y-114917546D01*
X142287171Y-114956258D01*
X142423418Y-115029084D01*
X142571255Y-115073929D01*
X142725000Y-115089072D01*
X143025000Y-115089072D01*
X143178745Y-115073929D01*
X143326582Y-115029084D01*
X143462829Y-114956258D01*
X143510000Y-114917546D01*
X143557171Y-114956258D01*
X143693418Y-115029084D01*
X143841255Y-115073929D01*
X143995000Y-115089072D01*
X144295000Y-115089072D01*
X144448745Y-115073929D01*
X144596582Y-115029084D01*
X144732829Y-114956258D01*
X144852251Y-114858251D01*
X144950258Y-114738829D01*
X145023084Y-114602582D01*
X145067929Y-114454745D01*
X145083072Y-114301000D01*
X145083072Y-112651000D01*
X145067929Y-112497255D01*
X145023084Y-112349418D01*
X144950258Y-112213171D01*
X144852251Y-112093749D01*
X144732829Y-111995742D01*
X144596582Y-111922916D01*
X144448745Y-111878071D01*
X144295000Y-111862928D01*
X143995000Y-111862928D01*
X143841255Y-111878071D01*
X143693418Y-111922916D01*
X143557171Y-111995742D01*
X143510000Y-112034454D01*
X143462829Y-111995742D01*
X143326582Y-111922916D01*
X143178745Y-111878071D01*
X143025000Y-111862928D01*
X142725000Y-111862928D01*
X142571255Y-111878071D01*
X142423418Y-111922916D01*
X142287171Y-111995742D01*
X142240000Y-112034454D01*
X142192829Y-111995742D01*
X142056582Y-111922916D01*
X141908745Y-111878071D01*
X141755000Y-111862928D01*
X141455000Y-111862928D01*
X141301255Y-111878071D01*
X141153418Y-111922916D01*
X141017171Y-111995742D01*
X140970000Y-112034454D01*
X140922829Y-111995742D01*
X140786582Y-111922916D01*
X140638745Y-111878071D01*
X140485000Y-111862928D01*
X140185000Y-111862928D01*
X140031255Y-111878071D01*
X139883418Y-111922916D01*
X139850000Y-111940778D01*
X139850000Y-111925556D01*
X139853797Y-111887000D01*
X139850000Y-111848440D01*
X139850000Y-111848439D01*
X139844736Y-111794994D01*
X139838642Y-111733113D01*
X139803049Y-111615780D01*
X139836148Y-111633472D01*
X140002744Y-111684008D01*
X140175998Y-111701072D01*
X140701002Y-111701072D01*
X140874256Y-111684008D01*
X141040852Y-111633472D01*
X141194387Y-111551405D01*
X141275637Y-111484724D01*
X141299815Y-111514185D01*
X141396506Y-111593537D01*
X141506820Y-111652502D01*
X141626518Y-111688812D01*
X141751000Y-111701072D01*
X141977750Y-111698000D01*
X142136500Y-111539250D01*
X142136500Y-110490000D01*
X142390500Y-110490000D01*
X142390500Y-111539250D01*
X142549250Y-111698000D01*
X142776000Y-111701072D01*
X142900482Y-111688812D01*
X143020180Y-111652502D01*
X143130494Y-111593537D01*
X143227185Y-111514185D01*
X143306537Y-111417494D01*
X143365502Y-111307180D01*
X143401812Y-111187482D01*
X143414072Y-111063000D01*
X143411000Y-110648750D01*
X143252250Y-110490000D01*
X142390500Y-110490000D01*
X142136500Y-110490000D01*
X142116500Y-110490000D01*
X142116500Y-110236000D01*
X142136500Y-110236000D01*
X142136500Y-110216000D01*
X142390500Y-110216000D01*
X142390500Y-110236000D01*
X143252250Y-110236000D01*
X143411000Y-110077250D01*
X143414072Y-109663000D01*
X143401812Y-109538518D01*
X143365502Y-109418820D01*
X143306537Y-109308506D01*
X143227185Y-109211815D01*
X143130494Y-109132463D01*
X143020180Y-109073498D01*
X142900482Y-109037188D01*
X142776000Y-109024928D01*
X142549250Y-109028000D01*
X142400628Y-109176622D01*
X142398001Y-109149947D01*
X142398001Y-107141164D01*
X143077250Y-107139000D01*
X143236000Y-106980250D01*
X143236000Y-106131000D01*
X143216000Y-106131000D01*
X143216000Y-105877000D01*
X143236000Y-105877000D01*
X143236000Y-105857000D01*
X143490000Y-105857000D01*
X143490000Y-105877000D01*
X145089250Y-105877000D01*
X145248000Y-105718250D01*
X145251072Y-105504000D01*
X145238812Y-105379518D01*
X145202502Y-105259820D01*
X145143537Y-105149506D01*
X145064185Y-105052815D01*
X145004704Y-105004000D01*
X145064185Y-104955185D01*
X145143537Y-104858494D01*
X145202502Y-104748180D01*
X145238812Y-104628482D01*
X145251072Y-104504000D01*
X145251072Y-103504000D01*
X145238812Y-103379518D01*
X145202502Y-103259820D01*
X145143537Y-103149506D01*
X145064185Y-103052815D01*
X145004704Y-103004000D01*
X145064185Y-102955185D01*
X145143537Y-102858494D01*
X145180683Y-102789000D01*
X145581000Y-102789000D01*
X145581000Y-103016260D01*
G37*
%TD.AperFunction*%
D33*
X124639506Y-75292537D02*
X124709000Y-75329683D01*
X124709000Y-75782172D01*
X124703994Y-75833000D01*
X124709000Y-75883828D01*
X124709000Y-75883837D01*
X124723976Y-76035894D01*
X124783159Y-76230992D01*
X124879266Y-76410797D01*
X125008604Y-76568396D01*
X125048097Y-76600807D01*
X126533289Y-78086000D01*
X126343737Y-78086000D01*
X126287962Y-78018038D01*
X126153386Y-77907595D01*
X125999850Y-77825528D01*
X125833254Y-77774992D01*
X125660000Y-77757928D01*
X125160000Y-77757928D01*
X124986746Y-77774992D01*
X124820150Y-77825528D01*
X124666614Y-77907595D01*
X124532038Y-78018038D01*
X124526658Y-78024594D01*
X124461185Y-77944815D01*
X124364494Y-77865463D01*
X124254180Y-77806498D01*
X124134482Y-77770188D01*
X124010000Y-77757928D01*
X123795750Y-77761000D01*
X123637000Y-77919750D01*
X123637000Y-78994000D01*
X123657000Y-78994000D01*
X123657000Y-79248000D01*
X123637000Y-79248000D01*
X123637000Y-80322250D01*
X123795750Y-80481000D01*
X124010000Y-80484072D01*
X124134482Y-80471812D01*
X124254180Y-80435502D01*
X124364494Y-80376537D01*
X124461185Y-80297185D01*
X124526658Y-80217406D01*
X124532038Y-80223962D01*
X124666614Y-80334405D01*
X124820150Y-80416472D01*
X124986746Y-80467008D01*
X125160000Y-80484072D01*
X125660000Y-80484072D01*
X125833254Y-80467008D01*
X125999850Y-80416472D01*
X126153386Y-80334405D01*
X126287962Y-80223962D01*
X126343737Y-80156000D01*
X127203172Y-80156000D01*
X127254000Y-80161006D01*
X127304828Y-80156000D01*
X127304838Y-80156000D01*
X127456895Y-80141024D01*
X127651993Y-80081841D01*
X127831797Y-79985734D01*
X127989396Y-79856396D01*
X128021807Y-79816903D01*
X128571711Y-79267000D01*
X130505162Y-79267000D01*
X130556000Y-79272007D01*
X130606838Y-79267000D01*
X131155378Y-79267000D01*
X130932080Y-79373359D01*
X130698731Y-79547412D01*
X130503822Y-79763645D01*
X130354843Y-80013748D01*
X130257519Y-80288109D01*
X130378186Y-80518000D01*
X131572000Y-80518000D01*
X131572000Y-80498000D01*
X131826000Y-80498000D01*
X131826000Y-80518000D01*
X131846000Y-80518000D01*
X131846000Y-80772000D01*
X131826000Y-80772000D01*
X131826000Y-81965155D01*
X132055890Y-82086476D01*
X132203099Y-82041825D01*
X132465920Y-81916641D01*
X132699269Y-81742588D01*
X132894178Y-81526355D01*
X132963805Y-81409466D01*
X133085525Y-81591632D01*
X133292368Y-81798475D01*
X133535589Y-81960990D01*
X133805842Y-82072932D01*
X134092740Y-82130000D01*
X134385260Y-82130000D01*
X134672158Y-82072932D01*
X134942411Y-81960990D01*
X135185632Y-81798475D01*
X135392475Y-81591632D01*
X135509000Y-81417240D01*
X135625525Y-81591632D01*
X135832368Y-81798475D01*
X136075589Y-81960990D01*
X136345842Y-82072932D01*
X136632740Y-82130000D01*
X136925260Y-82130000D01*
X137212158Y-82072932D01*
X137482411Y-81960990D01*
X137725632Y-81798475D01*
X137857487Y-81666620D01*
X137879498Y-81739180D01*
X137938463Y-81849494D01*
X138017815Y-81946185D01*
X138114506Y-82025537D01*
X138224820Y-82084502D01*
X138344518Y-82120812D01*
X138469000Y-82133072D01*
X139303772Y-82133072D01*
X130282190Y-91154655D01*
X130252236Y-91179238D01*
X130154138Y-91298770D01*
X130081246Y-91435143D01*
X130051072Y-91534614D01*
X130051072Y-91504000D01*
X130038812Y-91379518D01*
X130002502Y-91259820D01*
X129943537Y-91149506D01*
X129864185Y-91052815D01*
X129767494Y-90973463D01*
X129657180Y-90914498D01*
X129537482Y-90878188D01*
X129413000Y-90865928D01*
X128135085Y-90865928D01*
X126911345Y-89642188D01*
X126886764Y-89612236D01*
X126767233Y-89514138D01*
X126630860Y-89441246D01*
X126567000Y-89421874D01*
X126567000Y-88001072D01*
X126682000Y-88001072D01*
X126806482Y-87988812D01*
X126926180Y-87952502D01*
X127036494Y-87893537D01*
X127133185Y-87814185D01*
X127212537Y-87717494D01*
X127271502Y-87607180D01*
X127307812Y-87487482D01*
X127320072Y-87363000D01*
X127320072Y-86263000D01*
X127307812Y-86138518D01*
X127271502Y-86018820D01*
X127212537Y-85908506D01*
X127133185Y-85811815D01*
X127036494Y-85732463D01*
X126926180Y-85673498D01*
X126806482Y-85637188D01*
X126682000Y-85624928D01*
X124882000Y-85624928D01*
X124757518Y-85637188D01*
X124637820Y-85673498D01*
X124527506Y-85732463D01*
X124472019Y-85778000D01*
X120891981Y-85778000D01*
X120836494Y-85732463D01*
X120726180Y-85673498D01*
X120606482Y-85637188D01*
X120482000Y-85624928D01*
X118682000Y-85624928D01*
X118557518Y-85637188D01*
X118437820Y-85673498D01*
X118327506Y-85732463D01*
X118230815Y-85811815D01*
X118151463Y-85908506D01*
X118092498Y-86018820D01*
X118056188Y-86138518D01*
X118043928Y-86263000D01*
X118043928Y-87363000D01*
X118056188Y-87487482D01*
X118092498Y-87607180D01*
X118151463Y-87717494D01*
X118230815Y-87814185D01*
X118327506Y-87893537D01*
X118437820Y-87952502D01*
X118557518Y-87988812D01*
X118682000Y-88001072D01*
X120482000Y-88001072D01*
X120606482Y-87988812D01*
X120726180Y-87952502D01*
X120836494Y-87893537D01*
X120891981Y-87848000D01*
X124472019Y-87848000D01*
X124527506Y-87893537D01*
X124637820Y-87952502D01*
X124757518Y-87988812D01*
X124882000Y-88001072D01*
X124997000Y-88001072D01*
X124997001Y-88912535D01*
X124909411Y-88854010D01*
X124639158Y-88742068D01*
X124352260Y-88685000D01*
X124059740Y-88685000D01*
X123772842Y-88742068D01*
X123502589Y-88854010D01*
X123259368Y-89016525D01*
X123052525Y-89223368D01*
X122944526Y-89385000D01*
X118535688Y-89385000D01*
X118508387Y-89362595D01*
X118354852Y-89280528D01*
X118188256Y-89229992D01*
X118015002Y-89212928D01*
X117489998Y-89212928D01*
X117316744Y-89229992D01*
X117150148Y-89280528D01*
X116996613Y-89362595D01*
X116862038Y-89473038D01*
X116840000Y-89499891D01*
X116817962Y-89473038D01*
X116683387Y-89362595D01*
X116529852Y-89280528D01*
X116363256Y-89229992D01*
X116190002Y-89212928D01*
X115664998Y-89212928D01*
X115491744Y-89229992D01*
X115325148Y-89280528D01*
X115171613Y-89362595D01*
X115037038Y-89473038D01*
X115001780Y-89516000D01*
X114715999Y-89516000D01*
X114715999Y-85753711D01*
X116806710Y-83663000D01*
X118043928Y-83663000D01*
X118056188Y-83787482D01*
X118092498Y-83907180D01*
X118151463Y-84017494D01*
X118230815Y-84114185D01*
X118327506Y-84193537D01*
X118437820Y-84252502D01*
X118557518Y-84288812D01*
X118682000Y-84301072D01*
X119296250Y-84298000D01*
X119455000Y-84139250D01*
X119455000Y-83240000D01*
X119709000Y-83240000D01*
X119709000Y-84139250D01*
X119867750Y-84298000D01*
X120482000Y-84301072D01*
X120606482Y-84288812D01*
X120726180Y-84252502D01*
X120836494Y-84193537D01*
X120933185Y-84114185D01*
X121012537Y-84017494D01*
X121071502Y-83907180D01*
X121107812Y-83787482D01*
X121120072Y-83663000D01*
X124243928Y-83663000D01*
X124256188Y-83787482D01*
X124292498Y-83907180D01*
X124351463Y-84017494D01*
X124430815Y-84114185D01*
X124527506Y-84193537D01*
X124637820Y-84252502D01*
X124757518Y-84288812D01*
X124882000Y-84301072D01*
X125496250Y-84298000D01*
X125655000Y-84139250D01*
X125655000Y-83240000D01*
X125909000Y-83240000D01*
X125909000Y-84139250D01*
X126067750Y-84298000D01*
X126682000Y-84301072D01*
X126806482Y-84288812D01*
X126926180Y-84252502D01*
X127036494Y-84193537D01*
X127133185Y-84114185D01*
X127212537Y-84017494D01*
X127271502Y-83907180D01*
X127307812Y-83787482D01*
X127320072Y-83663000D01*
X127317000Y-83398750D01*
X127158250Y-83240000D01*
X125909000Y-83240000D01*
X125655000Y-83240000D01*
X124405750Y-83240000D01*
X124247000Y-83398750D01*
X124243928Y-83663000D01*
X121120072Y-83663000D01*
X121117000Y-83398750D01*
X120958250Y-83240000D01*
X119709000Y-83240000D01*
X119455000Y-83240000D01*
X118205750Y-83240000D01*
X118047000Y-83398750D01*
X118043928Y-83663000D01*
X116806710Y-83663000D01*
X118067072Y-82402638D01*
X118056188Y-82438518D01*
X118043928Y-82563000D01*
X118047000Y-82827250D01*
X118205750Y-82986000D01*
X119455000Y-82986000D01*
X119455000Y-82086750D01*
X119709000Y-82086750D01*
X119709000Y-82986000D01*
X120958250Y-82986000D01*
X121117000Y-82827250D01*
X121120072Y-82563000D01*
X124243928Y-82563000D01*
X124247000Y-82827250D01*
X124405750Y-82986000D01*
X125655000Y-82986000D01*
X125655000Y-82086750D01*
X125909000Y-82086750D01*
X125909000Y-82986000D01*
X127158250Y-82986000D01*
X127317000Y-82827250D01*
X127320072Y-82563000D01*
X127307812Y-82438518D01*
X127271502Y-82318820D01*
X127212537Y-82208506D01*
X127133185Y-82111815D01*
X127036494Y-82032463D01*
X126926180Y-81973498D01*
X126806482Y-81937188D01*
X126682000Y-81924928D01*
X126067750Y-81928000D01*
X125909000Y-82086750D01*
X125655000Y-82086750D01*
X125496250Y-81928000D01*
X124882000Y-81924928D01*
X124757518Y-81937188D01*
X124637820Y-81973498D01*
X124527506Y-82032463D01*
X124430815Y-82111815D01*
X124351463Y-82208506D01*
X124292498Y-82318820D01*
X124256188Y-82438518D01*
X124243928Y-82563000D01*
X121120072Y-82563000D01*
X121107812Y-82438518D01*
X121071502Y-82318820D01*
X121012537Y-82208506D01*
X120933185Y-82111815D01*
X120836494Y-82032463D01*
X120726180Y-81973498D01*
X120606482Y-81937188D01*
X120482000Y-81924928D01*
X119867750Y-81928000D01*
X119709000Y-82086750D01*
X119455000Y-82086750D01*
X119296250Y-81928000D01*
X118682000Y-81924928D01*
X118557518Y-81937188D01*
X118521638Y-81948072D01*
X119467819Y-81001891D01*
X130257519Y-81001891D01*
X130354843Y-81276252D01*
X130503822Y-81526355D01*
X130698731Y-81742588D01*
X130932080Y-81916641D01*
X131194901Y-82041825D01*
X131342110Y-82086476D01*
X131572000Y-81965155D01*
X131572000Y-80772000D01*
X130378186Y-80772000D01*
X130257519Y-81001891D01*
X119467819Y-81001891D01*
X120623710Y-79846000D01*
X122371928Y-79846000D01*
X122384188Y-79970482D01*
X122420498Y-80090180D01*
X122479463Y-80200494D01*
X122558815Y-80297185D01*
X122655506Y-80376537D01*
X122765820Y-80435502D01*
X122885518Y-80471812D01*
X123010000Y-80484072D01*
X123224250Y-80481000D01*
X123383000Y-80322250D01*
X123383000Y-79248000D01*
X122533750Y-79248000D01*
X122375000Y-79406750D01*
X122371928Y-79846000D01*
X120623710Y-79846000D01*
X122073710Y-78396000D01*
X122371928Y-78396000D01*
X122375000Y-78835250D01*
X122533750Y-78994000D01*
X123383000Y-78994000D01*
X123383000Y-77919750D01*
X123224250Y-77761000D01*
X123010000Y-77757928D01*
X122885518Y-77770188D01*
X122765820Y-77806498D01*
X122655506Y-77865463D01*
X122558815Y-77944815D01*
X122479463Y-78041506D01*
X122420498Y-78151820D01*
X122384188Y-78271518D01*
X122371928Y-78396000D01*
X122073710Y-78396000D01*
X124139908Y-76329803D01*
X124179396Y-76297396D01*
X124220049Y-76247860D01*
X124308734Y-76139798D01*
X124404840Y-75959994D01*
X124404841Y-75959993D01*
X124464024Y-75764895D01*
X124479000Y-75612838D01*
X124479000Y-75612829D01*
X124484006Y-75562001D01*
X124479000Y-75511173D01*
X124479000Y-75329683D01*
X124548494Y-75292537D01*
X124594000Y-75255191D01*
X124639506Y-75292537D01*
%TA.AperFunction,Conductor*%
D34*
G36*
X124639506Y-75292537D02*
G01*
X124709000Y-75329683D01*
X124709000Y-75782172D01*
X124703994Y-75833000D01*
X124709000Y-75883828D01*
X124709000Y-75883837D01*
X124723976Y-76035894D01*
X124783159Y-76230992D01*
X124879266Y-76410797D01*
X125008604Y-76568396D01*
X125048097Y-76600807D01*
X126533289Y-78086000D01*
X126343737Y-78086000D01*
X126287962Y-78018038D01*
X126153386Y-77907595D01*
X125999850Y-77825528D01*
X125833254Y-77774992D01*
X125660000Y-77757928D01*
X125160000Y-77757928D01*
X124986746Y-77774992D01*
X124820150Y-77825528D01*
X124666614Y-77907595D01*
X124532038Y-78018038D01*
X124526658Y-78024594D01*
X124461185Y-77944815D01*
X124364494Y-77865463D01*
X124254180Y-77806498D01*
X124134482Y-77770188D01*
X124010000Y-77757928D01*
X123795750Y-77761000D01*
X123637000Y-77919750D01*
X123637000Y-78994000D01*
X123657000Y-78994000D01*
X123657000Y-79248000D01*
X123637000Y-79248000D01*
X123637000Y-80322250D01*
X123795750Y-80481000D01*
X124010000Y-80484072D01*
X124134482Y-80471812D01*
X124254180Y-80435502D01*
X124364494Y-80376537D01*
X124461185Y-80297185D01*
X124526658Y-80217406D01*
X124532038Y-80223962D01*
X124666614Y-80334405D01*
X124820150Y-80416472D01*
X124986746Y-80467008D01*
X125160000Y-80484072D01*
X125660000Y-80484072D01*
X125833254Y-80467008D01*
X125999850Y-80416472D01*
X126153386Y-80334405D01*
X126287962Y-80223962D01*
X126343737Y-80156000D01*
X127203172Y-80156000D01*
X127254000Y-80161006D01*
X127304828Y-80156000D01*
X127304838Y-80156000D01*
X127456895Y-80141024D01*
X127651993Y-80081841D01*
X127831797Y-79985734D01*
X127989396Y-79856396D01*
X128021807Y-79816903D01*
X128571711Y-79267000D01*
X130505162Y-79267000D01*
X130556000Y-79272007D01*
X130606838Y-79267000D01*
X131155378Y-79267000D01*
X130932080Y-79373359D01*
X130698731Y-79547412D01*
X130503822Y-79763645D01*
X130354843Y-80013748D01*
X130257519Y-80288109D01*
X130378186Y-80518000D01*
X131572000Y-80518000D01*
X131572000Y-80498000D01*
X131826000Y-80498000D01*
X131826000Y-80518000D01*
X131846000Y-80518000D01*
X131846000Y-80772000D01*
X131826000Y-80772000D01*
X131826000Y-81965155D01*
X132055890Y-82086476D01*
X132203099Y-82041825D01*
X132465920Y-81916641D01*
X132699269Y-81742588D01*
X132894178Y-81526355D01*
X132963805Y-81409466D01*
X133085525Y-81591632D01*
X133292368Y-81798475D01*
X133535589Y-81960990D01*
X133805842Y-82072932D01*
X134092740Y-82130000D01*
X134385260Y-82130000D01*
X134672158Y-82072932D01*
X134942411Y-81960990D01*
X135185632Y-81798475D01*
X135392475Y-81591632D01*
X135509000Y-81417240D01*
X135625525Y-81591632D01*
X135832368Y-81798475D01*
X136075589Y-81960990D01*
X136345842Y-82072932D01*
X136632740Y-82130000D01*
X136925260Y-82130000D01*
X137212158Y-82072932D01*
X137482411Y-81960990D01*
X137725632Y-81798475D01*
X137857487Y-81666620D01*
X137879498Y-81739180D01*
X137938463Y-81849494D01*
X138017815Y-81946185D01*
X138114506Y-82025537D01*
X138224820Y-82084502D01*
X138344518Y-82120812D01*
X138469000Y-82133072D01*
X139303772Y-82133072D01*
X130282190Y-91154655D01*
X130252236Y-91179238D01*
X130154138Y-91298770D01*
X130081246Y-91435143D01*
X130051072Y-91534614D01*
X130051072Y-91504000D01*
X130038812Y-91379518D01*
X130002502Y-91259820D01*
X129943537Y-91149506D01*
X129864185Y-91052815D01*
X129767494Y-90973463D01*
X129657180Y-90914498D01*
X129537482Y-90878188D01*
X129413000Y-90865928D01*
X128135085Y-90865928D01*
X126911345Y-89642188D01*
X126886764Y-89612236D01*
X126767233Y-89514138D01*
X126630860Y-89441246D01*
X126567000Y-89421874D01*
X126567000Y-88001072D01*
X126682000Y-88001072D01*
X126806482Y-87988812D01*
X126926180Y-87952502D01*
X127036494Y-87893537D01*
X127133185Y-87814185D01*
X127212537Y-87717494D01*
X127271502Y-87607180D01*
X127307812Y-87487482D01*
X127320072Y-87363000D01*
X127320072Y-86263000D01*
X127307812Y-86138518D01*
X127271502Y-86018820D01*
X127212537Y-85908506D01*
X127133185Y-85811815D01*
X127036494Y-85732463D01*
X126926180Y-85673498D01*
X126806482Y-85637188D01*
X126682000Y-85624928D01*
X124882000Y-85624928D01*
X124757518Y-85637188D01*
X124637820Y-85673498D01*
X124527506Y-85732463D01*
X124472019Y-85778000D01*
X120891981Y-85778000D01*
X120836494Y-85732463D01*
X120726180Y-85673498D01*
X120606482Y-85637188D01*
X120482000Y-85624928D01*
X118682000Y-85624928D01*
X118557518Y-85637188D01*
X118437820Y-85673498D01*
X118327506Y-85732463D01*
X118230815Y-85811815D01*
X118151463Y-85908506D01*
X118092498Y-86018820D01*
X118056188Y-86138518D01*
X118043928Y-86263000D01*
X118043928Y-87363000D01*
X118056188Y-87487482D01*
X118092498Y-87607180D01*
X118151463Y-87717494D01*
X118230815Y-87814185D01*
X118327506Y-87893537D01*
X118437820Y-87952502D01*
X118557518Y-87988812D01*
X118682000Y-88001072D01*
X120482000Y-88001072D01*
X120606482Y-87988812D01*
X120726180Y-87952502D01*
X120836494Y-87893537D01*
X120891981Y-87848000D01*
X124472019Y-87848000D01*
X124527506Y-87893537D01*
X124637820Y-87952502D01*
X124757518Y-87988812D01*
X124882000Y-88001072D01*
X124997000Y-88001072D01*
X124997001Y-88912535D01*
X124909411Y-88854010D01*
X124639158Y-88742068D01*
X124352260Y-88685000D01*
X124059740Y-88685000D01*
X123772842Y-88742068D01*
X123502589Y-88854010D01*
X123259368Y-89016525D01*
X123052525Y-89223368D01*
X122944526Y-89385000D01*
X118535688Y-89385000D01*
X118508387Y-89362595D01*
X118354852Y-89280528D01*
X118188256Y-89229992D01*
X118015002Y-89212928D01*
X117489998Y-89212928D01*
X117316744Y-89229992D01*
X117150148Y-89280528D01*
X116996613Y-89362595D01*
X116862038Y-89473038D01*
X116840000Y-89499891D01*
X116817962Y-89473038D01*
X116683387Y-89362595D01*
X116529852Y-89280528D01*
X116363256Y-89229992D01*
X116190002Y-89212928D01*
X115664998Y-89212928D01*
X115491744Y-89229992D01*
X115325148Y-89280528D01*
X115171613Y-89362595D01*
X115037038Y-89473038D01*
X115001780Y-89516000D01*
X114715999Y-89516000D01*
X114715999Y-85753711D01*
X116806710Y-83663000D01*
X118043928Y-83663000D01*
X118056188Y-83787482D01*
X118092498Y-83907180D01*
X118151463Y-84017494D01*
X118230815Y-84114185D01*
X118327506Y-84193537D01*
X118437820Y-84252502D01*
X118557518Y-84288812D01*
X118682000Y-84301072D01*
X119296250Y-84298000D01*
X119455000Y-84139250D01*
X119455000Y-83240000D01*
X119709000Y-83240000D01*
X119709000Y-84139250D01*
X119867750Y-84298000D01*
X120482000Y-84301072D01*
X120606482Y-84288812D01*
X120726180Y-84252502D01*
X120836494Y-84193537D01*
X120933185Y-84114185D01*
X121012537Y-84017494D01*
X121071502Y-83907180D01*
X121107812Y-83787482D01*
X121120072Y-83663000D01*
X124243928Y-83663000D01*
X124256188Y-83787482D01*
X124292498Y-83907180D01*
X124351463Y-84017494D01*
X124430815Y-84114185D01*
X124527506Y-84193537D01*
X124637820Y-84252502D01*
X124757518Y-84288812D01*
X124882000Y-84301072D01*
X125496250Y-84298000D01*
X125655000Y-84139250D01*
X125655000Y-83240000D01*
X125909000Y-83240000D01*
X125909000Y-84139250D01*
X126067750Y-84298000D01*
X126682000Y-84301072D01*
X126806482Y-84288812D01*
X126926180Y-84252502D01*
X127036494Y-84193537D01*
X127133185Y-84114185D01*
X127212537Y-84017494D01*
X127271502Y-83907180D01*
X127307812Y-83787482D01*
X127320072Y-83663000D01*
X127317000Y-83398750D01*
X127158250Y-83240000D01*
X125909000Y-83240000D01*
X125655000Y-83240000D01*
X124405750Y-83240000D01*
X124247000Y-83398750D01*
X124243928Y-83663000D01*
X121120072Y-83663000D01*
X121117000Y-83398750D01*
X120958250Y-83240000D01*
X119709000Y-83240000D01*
X119455000Y-83240000D01*
X118205750Y-83240000D01*
X118047000Y-83398750D01*
X118043928Y-83663000D01*
X116806710Y-83663000D01*
X118067072Y-82402638D01*
X118056188Y-82438518D01*
X118043928Y-82563000D01*
X118047000Y-82827250D01*
X118205750Y-82986000D01*
X119455000Y-82986000D01*
X119455000Y-82086750D01*
X119709000Y-82086750D01*
X119709000Y-82986000D01*
X120958250Y-82986000D01*
X121117000Y-82827250D01*
X121120072Y-82563000D01*
X124243928Y-82563000D01*
X124247000Y-82827250D01*
X124405750Y-82986000D01*
X125655000Y-82986000D01*
X125655000Y-82086750D01*
X125909000Y-82086750D01*
X125909000Y-82986000D01*
X127158250Y-82986000D01*
X127317000Y-82827250D01*
X127320072Y-82563000D01*
X127307812Y-82438518D01*
X127271502Y-82318820D01*
X127212537Y-82208506D01*
X127133185Y-82111815D01*
X127036494Y-82032463D01*
X126926180Y-81973498D01*
X126806482Y-81937188D01*
X126682000Y-81924928D01*
X126067750Y-81928000D01*
X125909000Y-82086750D01*
X125655000Y-82086750D01*
X125496250Y-81928000D01*
X124882000Y-81924928D01*
X124757518Y-81937188D01*
X124637820Y-81973498D01*
X124527506Y-82032463D01*
X124430815Y-82111815D01*
X124351463Y-82208506D01*
X124292498Y-82318820D01*
X124256188Y-82438518D01*
X124243928Y-82563000D01*
X121120072Y-82563000D01*
X121107812Y-82438518D01*
X121071502Y-82318820D01*
X121012537Y-82208506D01*
X120933185Y-82111815D01*
X120836494Y-82032463D01*
X120726180Y-81973498D01*
X120606482Y-81937188D01*
X120482000Y-81924928D01*
X119867750Y-81928000D01*
X119709000Y-82086750D01*
X119455000Y-82086750D01*
X119296250Y-81928000D01*
X118682000Y-81924928D01*
X118557518Y-81937188D01*
X118521638Y-81948072D01*
X119467819Y-81001891D01*
X130257519Y-81001891D01*
X130354843Y-81276252D01*
X130503822Y-81526355D01*
X130698731Y-81742588D01*
X130932080Y-81916641D01*
X131194901Y-82041825D01*
X131342110Y-82086476D01*
X131572000Y-81965155D01*
X131572000Y-80772000D01*
X130378186Y-80772000D01*
X130257519Y-81001891D01*
X119467819Y-81001891D01*
X120623710Y-79846000D01*
X122371928Y-79846000D01*
X122384188Y-79970482D01*
X122420498Y-80090180D01*
X122479463Y-80200494D01*
X122558815Y-80297185D01*
X122655506Y-80376537D01*
X122765820Y-80435502D01*
X122885518Y-80471812D01*
X123010000Y-80484072D01*
X123224250Y-80481000D01*
X123383000Y-80322250D01*
X123383000Y-79248000D01*
X122533750Y-79248000D01*
X122375000Y-79406750D01*
X122371928Y-79846000D01*
X120623710Y-79846000D01*
X122073710Y-78396000D01*
X122371928Y-78396000D01*
X122375000Y-78835250D01*
X122533750Y-78994000D01*
X123383000Y-78994000D01*
X123383000Y-77919750D01*
X123224250Y-77761000D01*
X123010000Y-77757928D01*
X122885518Y-77770188D01*
X122765820Y-77806498D01*
X122655506Y-77865463D01*
X122558815Y-77944815D01*
X122479463Y-78041506D01*
X122420498Y-78151820D01*
X122384188Y-78271518D01*
X122371928Y-78396000D01*
X122073710Y-78396000D01*
X124139908Y-76329803D01*
X124179396Y-76297396D01*
X124220049Y-76247860D01*
X124308734Y-76139798D01*
X124404840Y-75959994D01*
X124404841Y-75959993D01*
X124464024Y-75764895D01*
X124479000Y-75612838D01*
X124479000Y-75612829D01*
X124484006Y-75562001D01*
X124479000Y-75511173D01*
X124479000Y-75329683D01*
X124548494Y-75292537D01*
X124594000Y-75255191D01*
X124639506Y-75292537D01*
G37*
%TD.AperFunction*%
D33*
X155325552Y-60403422D02*
X155818585Y-60552278D01*
X156273309Y-60794059D01*
X156672410Y-61119558D01*
X157000694Y-61516385D01*
X157245644Y-61969410D01*
X157397938Y-62461392D01*
X157455000Y-63004295D01*
X157455001Y-65118581D01*
X157455001Y-67841349D01*
X157424841Y-67741926D01*
X157352974Y-67607472D01*
X157328734Y-67562121D01*
X157231803Y-67444011D01*
X157199396Y-67404523D01*
X157159908Y-67372116D01*
X155258888Y-65471097D01*
X155226477Y-65431604D01*
X155068878Y-65302266D01*
X154889074Y-65206159D01*
X154693976Y-65146976D01*
X154541919Y-65132000D01*
X154541909Y-65132000D01*
X154491081Y-65126994D01*
X154440253Y-65132000D01*
X154354107Y-65132000D01*
X154235632Y-65013525D01*
X154053466Y-64891805D01*
X154170355Y-64822178D01*
X154386588Y-64627269D01*
X154560641Y-64393920D01*
X154685825Y-64131099D01*
X154730476Y-63983890D01*
X154609155Y-63754000D01*
X153416000Y-63754000D01*
X153416000Y-63774000D01*
X153162000Y-63774000D01*
X153162000Y-63754000D01*
X150876000Y-63754000D01*
X150876000Y-63774000D01*
X150622000Y-63774000D01*
X150622000Y-63754000D01*
X149428845Y-63754000D01*
X149307524Y-63983890D01*
X149352175Y-64131099D01*
X149477359Y-64393920D01*
X149651412Y-64627269D01*
X149867645Y-64822178D01*
X149984534Y-64891805D01*
X149802368Y-65013525D01*
X149595525Y-65220368D01*
X149433010Y-65463589D01*
X149321068Y-65733842D01*
X149264000Y-66020740D01*
X149264000Y-66111843D01*
X149148847Y-65996690D01*
X149124264Y-65966736D01*
X149004733Y-65868638D01*
X148868360Y-65795746D01*
X148720387Y-65750859D01*
X148605061Y-65739500D01*
X148605053Y-65739500D01*
X148566500Y-65735703D01*
X148527947Y-65739500D01*
X145055513Y-65739500D01*
X144968962Y-65634038D01*
X144834387Y-65523595D01*
X144680852Y-65441528D01*
X144514256Y-65390992D01*
X144341002Y-65373928D01*
X143440998Y-65373928D01*
X143267744Y-65390992D01*
X143101148Y-65441528D01*
X142947613Y-65523595D01*
X142813038Y-65634038D01*
X142726487Y-65739500D01*
X142270994Y-65739500D01*
X142298185Y-65717185D01*
X142377537Y-65620494D01*
X142436502Y-65510180D01*
X142472812Y-65390482D01*
X142485072Y-65266000D01*
X142482000Y-64801750D01*
X142323250Y-64643000D01*
X141224000Y-64643000D01*
X141224000Y-64663000D01*
X140970000Y-64663000D01*
X140970000Y-64643000D01*
X140950000Y-64643000D01*
X140950000Y-64389000D01*
X140970000Y-64389000D01*
X140970000Y-63289750D01*
X141224000Y-63289750D01*
X141224000Y-64389000D01*
X142323250Y-64389000D01*
X142482000Y-64230250D01*
X142485072Y-63766000D01*
X142472812Y-63641518D01*
X142436502Y-63521820D01*
X142377537Y-63411506D01*
X142298185Y-63314815D01*
X142201494Y-63235463D01*
X142091180Y-63176498D01*
X141971482Y-63140188D01*
X141847000Y-63127928D01*
X141382750Y-63131000D01*
X141224000Y-63289750D01*
X140970000Y-63289750D01*
X140811250Y-63131000D01*
X140347000Y-63127928D01*
X140222518Y-63140188D01*
X140102820Y-63176498D01*
X139992506Y-63235463D01*
X139895815Y-63314815D01*
X139844965Y-63376776D01*
X139713043Y-63288629D01*
X139460989Y-63184225D01*
X139193411Y-63131000D01*
X138920589Y-63131000D01*
X138653011Y-63184225D01*
X138400957Y-63288629D01*
X138174114Y-63440201D01*
X137981201Y-63633114D01*
X137829629Y-63859957D01*
X137725225Y-64112011D01*
X137672000Y-64379589D01*
X137672000Y-64652411D01*
X137725225Y-64919989D01*
X137829629Y-65172043D01*
X137981201Y-65398886D01*
X138174114Y-65591799D01*
X138343188Y-65704771D01*
X138173411Y-65671000D01*
X137900589Y-65671000D01*
X137633011Y-65724225D01*
X137380957Y-65828629D01*
X137154114Y-65980201D01*
X137113315Y-66021000D01*
X125803544Y-66021000D01*
X125795185Y-66010815D01*
X125698494Y-65931463D01*
X125588180Y-65872498D01*
X125468482Y-65836188D01*
X125344000Y-65823928D01*
X121544000Y-65823928D01*
X121419518Y-65836188D01*
X121299820Y-65872498D01*
X121189506Y-65931463D01*
X121092815Y-66010815D01*
X121013463Y-66107506D01*
X120954498Y-66217820D01*
X120918188Y-66337518D01*
X120905928Y-66462000D01*
X120905928Y-66976000D01*
X117848213Y-66976000D01*
X117781850Y-66940528D01*
X117615254Y-66889992D01*
X117442000Y-66872928D01*
X116492000Y-66872928D01*
X116318746Y-66889992D01*
X116152150Y-66940528D01*
X115998614Y-67022595D01*
X115864038Y-67133038D01*
X115753595Y-67267614D01*
X115671528Y-67421150D01*
X115620992Y-67587746D01*
X115603928Y-67761000D01*
X115603928Y-68261000D01*
X115620992Y-68434254D01*
X115671528Y-68600850D01*
X115753595Y-68754386D01*
X115864038Y-68888962D01*
X115870594Y-68894342D01*
X115790815Y-68959815D01*
X115711463Y-69056506D01*
X115652498Y-69166820D01*
X115616188Y-69286518D01*
X115603928Y-69411000D01*
X115607000Y-69625250D01*
X115765750Y-69784000D01*
X116840000Y-69784000D01*
X116840000Y-69764000D01*
X117094000Y-69764000D01*
X117094000Y-69784000D01*
X118168250Y-69784000D01*
X118327000Y-69625250D01*
X118330072Y-69411000D01*
X118317812Y-69286518D01*
X118281502Y-69166820D01*
X118222537Y-69056506D01*
X118213915Y-69046000D01*
X121289527Y-69046000D01*
X121299820Y-69051502D01*
X121419518Y-69087812D01*
X121544000Y-69100072D01*
X122059000Y-69100072D01*
X122059001Y-72148479D01*
X122018482Y-72136188D01*
X121894000Y-72123928D01*
X121429750Y-72127000D01*
X121271000Y-72285750D01*
X121271000Y-73635000D01*
X121291000Y-73635000D01*
X121291000Y-73889000D01*
X121271000Y-73889000D01*
X121271000Y-75238250D01*
X121429750Y-75397000D01*
X121894000Y-75400072D01*
X122018482Y-75387812D01*
X122138180Y-75351502D01*
X122248494Y-75292537D01*
X122255510Y-75286780D01*
X113182000Y-84360290D01*
X113182000Y-78138872D01*
X113589000Y-78138872D01*
X113589000Y-78579128D01*
X113674890Y-79010925D01*
X113843369Y-79417669D01*
X114087962Y-79783729D01*
X114399271Y-80095038D01*
X114765331Y-80339631D01*
X115172075Y-80508110D01*
X115603872Y-80594000D01*
X116044128Y-80594000D01*
X116475925Y-80508110D01*
X116882669Y-80339631D01*
X117248729Y-80095038D01*
X117560038Y-79783729D01*
X117804631Y-79417669D01*
X117973110Y-79010925D01*
X118059000Y-78579128D01*
X118059000Y-78138872D01*
X117973110Y-77707075D01*
X117804631Y-77300331D01*
X117560038Y-76934271D01*
X117248729Y-76622962D01*
X116882669Y-76378369D01*
X116475925Y-76209890D01*
X116044128Y-76124000D01*
X115603872Y-76124000D01*
X115172075Y-76209890D01*
X114765331Y-76378369D01*
X114399271Y-76622962D01*
X114087962Y-76934271D01*
X113843369Y-77300331D01*
X113674890Y-77707075D01*
X113589000Y-78138872D01*
X113182000Y-78138872D01*
X113182000Y-74762000D01*
X119755928Y-74762000D01*
X119768188Y-74886482D01*
X119804498Y-75006180D01*
X119863463Y-75116494D01*
X119942815Y-75213185D01*
X120039506Y-75292537D01*
X120149820Y-75351502D01*
X120269518Y-75387812D01*
X120394000Y-75400072D01*
X120858250Y-75397000D01*
X121017000Y-75238250D01*
X121017000Y-73889000D01*
X119917750Y-73889000D01*
X119759000Y-74047750D01*
X119755928Y-74762000D01*
X113182000Y-74762000D01*
X113182000Y-72762000D01*
X119755928Y-72762000D01*
X119759000Y-73476250D01*
X119917750Y-73635000D01*
X121017000Y-73635000D01*
X121017000Y-72285750D01*
X120858250Y-72127000D01*
X120394000Y-72123928D01*
X120269518Y-72136188D01*
X120149820Y-72172498D01*
X120039506Y-72231463D01*
X119942815Y-72310815D01*
X119863463Y-72407506D01*
X119804498Y-72517820D01*
X119768188Y-72637518D01*
X119755928Y-72762000D01*
X113182000Y-72762000D01*
X113182000Y-70411000D01*
X115603928Y-70411000D01*
X115616188Y-70535482D01*
X115652498Y-70655180D01*
X115711463Y-70765494D01*
X115790815Y-70862185D01*
X115887506Y-70941537D01*
X115997820Y-71000502D01*
X116117518Y-71036812D01*
X116242000Y-71049072D01*
X116681250Y-71046000D01*
X116840000Y-70887250D01*
X116840000Y-70038000D01*
X117094000Y-70038000D01*
X117094000Y-70887250D01*
X117252750Y-71046000D01*
X117692000Y-71049072D01*
X117816482Y-71036812D01*
X117936180Y-71000502D01*
X118046494Y-70941537D01*
X118143185Y-70862185D01*
X118222537Y-70765494D01*
X118281502Y-70655180D01*
X118317812Y-70535482D01*
X118330072Y-70411000D01*
X118327000Y-70196750D01*
X118168250Y-70038000D01*
X117094000Y-70038000D01*
X116840000Y-70038000D01*
X115765750Y-70038000D01*
X115607000Y-70196750D01*
X115603928Y-70411000D01*
X113182000Y-70411000D01*
X113181999Y-63024289D01*
X113235421Y-62479449D01*
X113384277Y-61986416D01*
X113626058Y-61531692D01*
X113951557Y-61132591D01*
X114348384Y-60804307D01*
X114492826Y-60726207D01*
X114491105Y-60731881D01*
X114466000Y-60986775D01*
X114466000Y-62457224D01*
X114491105Y-62712118D01*
X114590314Y-63039167D01*
X114751421Y-63340577D01*
X114968234Y-63604766D01*
X115232422Y-63821579D01*
X115533832Y-63982686D01*
X115860881Y-64081895D01*
X116201000Y-64115394D01*
X116541118Y-64081895D01*
X116868167Y-63982686D01*
X117169577Y-63821579D01*
X117433766Y-63604766D01*
X117591139Y-63413006D01*
X117768419Y-63507764D01*
X118029493Y-63586960D01*
X118301000Y-63613701D01*
X118572506Y-63586960D01*
X118833580Y-63507764D01*
X119074187Y-63379157D01*
X119285080Y-63206081D01*
X119304358Y-63182591D01*
X119411460Y-63291145D01*
X119637132Y-63444142D01*
X119888316Y-63550173D01*
X119959815Y-63564318D01*
X120174000Y-63441656D01*
X120174000Y-61849000D01*
X120154000Y-61849000D01*
X120154000Y-61595000D01*
X120174000Y-61595000D01*
X120174000Y-61575000D01*
X120428000Y-61575000D01*
X120428000Y-61595000D01*
X120448000Y-61595000D01*
X120448000Y-61849000D01*
X120428000Y-61849000D01*
X120428000Y-63441656D01*
X120642185Y-63564318D01*
X120713684Y-63550173D01*
X120964868Y-63444142D01*
X121062624Y-63377867D01*
X121099815Y-63423185D01*
X121196506Y-63502537D01*
X121306820Y-63561502D01*
X121426518Y-63597812D01*
X121551000Y-63610072D01*
X123051000Y-63610072D01*
X123163496Y-63598992D01*
X123168234Y-63604766D01*
X123432422Y-63821579D01*
X123733832Y-63982686D01*
X124060881Y-64081895D01*
X124401000Y-64115394D01*
X124741118Y-64081895D01*
X125068167Y-63982686D01*
X125369577Y-63821579D01*
X125633766Y-63604766D01*
X125850579Y-63340578D01*
X126011686Y-63039168D01*
X126110895Y-62712119D01*
X126136000Y-62457225D01*
X126136000Y-62040193D01*
X131782000Y-62040193D01*
X131782000Y-62391807D01*
X131850596Y-62736665D01*
X131985153Y-63061515D01*
X132180500Y-63353871D01*
X132429129Y-63602500D01*
X132721485Y-63797847D01*
X133046335Y-63932404D01*
X133391193Y-64001000D01*
X133742807Y-64001000D01*
X134087665Y-63932404D01*
X134412515Y-63797847D01*
X134704871Y-63602500D01*
X134953500Y-63353871D01*
X135148847Y-63061515D01*
X135283404Y-62736665D01*
X135352000Y-62391807D01*
X135352000Y-62040193D01*
X143782000Y-62040193D01*
X143782000Y-62391807D01*
X143850596Y-62736665D01*
X143985153Y-63061515D01*
X144180500Y-63353871D01*
X144429129Y-63602500D01*
X144721485Y-63797847D01*
X145046335Y-63932404D01*
X145391193Y-64001000D01*
X145742807Y-64001000D01*
X146087665Y-63932404D01*
X146412515Y-63797847D01*
X146704871Y-63602500D01*
X146953500Y-63353871D01*
X147009467Y-63270110D01*
X149307524Y-63270110D01*
X149428845Y-63500000D01*
X150622000Y-63500000D01*
X150622000Y-62306186D01*
X150876000Y-62306186D01*
X150876000Y-63500000D01*
X153162000Y-63500000D01*
X153162000Y-62306186D01*
X153416000Y-62306186D01*
X153416000Y-63500000D01*
X154609155Y-63500000D01*
X154730476Y-63270110D01*
X154685825Y-63122901D01*
X154560641Y-62860080D01*
X154386588Y-62626731D01*
X154170355Y-62431822D01*
X153920252Y-62282843D01*
X153645891Y-62185519D01*
X153416000Y-62306186D01*
X153162000Y-62306186D01*
X152932109Y-62185519D01*
X152657748Y-62282843D01*
X152407645Y-62431822D01*
X152191412Y-62626731D01*
X152019000Y-62857880D01*
X151846588Y-62626731D01*
X151630355Y-62431822D01*
X151380252Y-62282843D01*
X151105891Y-62185519D01*
X150876000Y-62306186D01*
X150622000Y-62306186D01*
X150392109Y-62185519D01*
X150117748Y-62282843D01*
X149867645Y-62431822D01*
X149651412Y-62626731D01*
X149477359Y-62860080D01*
X149352175Y-63122901D01*
X149307524Y-63270110D01*
X147009467Y-63270110D01*
X147148847Y-63061515D01*
X147283404Y-62736665D01*
X147352000Y-62391807D01*
X147352000Y-62040193D01*
X147283404Y-61695335D01*
X147148847Y-61370485D01*
X146953500Y-61078129D01*
X146704871Y-60829500D01*
X146412515Y-60634153D01*
X146087665Y-60499596D01*
X145742807Y-60431000D01*
X145391193Y-60431000D01*
X145046335Y-60499596D01*
X144721485Y-60634153D01*
X144429129Y-60829500D01*
X144180500Y-61078129D01*
X143985153Y-61370485D01*
X143850596Y-61695335D01*
X143782000Y-62040193D01*
X135352000Y-62040193D01*
X135283404Y-61695335D01*
X135148847Y-61370485D01*
X134953500Y-61078129D01*
X134704871Y-60829500D01*
X134412515Y-60634153D01*
X134087665Y-60499596D01*
X133742807Y-60431000D01*
X133391193Y-60431000D01*
X133046335Y-60499596D01*
X132721485Y-60634153D01*
X132429129Y-60829500D01*
X132180500Y-61078129D01*
X131985153Y-61370485D01*
X131850596Y-61695335D01*
X131782000Y-62040193D01*
X126136000Y-62040193D01*
X126136000Y-60986775D01*
X126110895Y-60731881D01*
X126011686Y-60404832D01*
X125982378Y-60350000D01*
X154780715Y-60350000D01*
X155325552Y-60403422D01*
%TA.AperFunction,Conductor*%
D34*
G36*
X155325552Y-60403422D02*
G01*
X155818585Y-60552278D01*
X156273309Y-60794059D01*
X156672410Y-61119558D01*
X157000694Y-61516385D01*
X157245644Y-61969410D01*
X157397938Y-62461392D01*
X157455000Y-63004295D01*
X157455001Y-65118581D01*
X157455001Y-67841349D01*
X157424841Y-67741926D01*
X157352974Y-67607472D01*
X157328734Y-67562121D01*
X157231803Y-67444011D01*
X157199396Y-67404523D01*
X157159908Y-67372116D01*
X155258888Y-65471097D01*
X155226477Y-65431604D01*
X155068878Y-65302266D01*
X154889074Y-65206159D01*
X154693976Y-65146976D01*
X154541919Y-65132000D01*
X154541909Y-65132000D01*
X154491081Y-65126994D01*
X154440253Y-65132000D01*
X154354107Y-65132000D01*
X154235632Y-65013525D01*
X154053466Y-64891805D01*
X154170355Y-64822178D01*
X154386588Y-64627269D01*
X154560641Y-64393920D01*
X154685825Y-64131099D01*
X154730476Y-63983890D01*
X154609155Y-63754000D01*
X153416000Y-63754000D01*
X153416000Y-63774000D01*
X153162000Y-63774000D01*
X153162000Y-63754000D01*
X150876000Y-63754000D01*
X150876000Y-63774000D01*
X150622000Y-63774000D01*
X150622000Y-63754000D01*
X149428845Y-63754000D01*
X149307524Y-63983890D01*
X149352175Y-64131099D01*
X149477359Y-64393920D01*
X149651412Y-64627269D01*
X149867645Y-64822178D01*
X149984534Y-64891805D01*
X149802368Y-65013525D01*
X149595525Y-65220368D01*
X149433010Y-65463589D01*
X149321068Y-65733842D01*
X149264000Y-66020740D01*
X149264000Y-66111843D01*
X149148847Y-65996690D01*
X149124264Y-65966736D01*
X149004733Y-65868638D01*
X148868360Y-65795746D01*
X148720387Y-65750859D01*
X148605061Y-65739500D01*
X148605053Y-65739500D01*
X148566500Y-65735703D01*
X148527947Y-65739500D01*
X145055513Y-65739500D01*
X144968962Y-65634038D01*
X144834387Y-65523595D01*
X144680852Y-65441528D01*
X144514256Y-65390992D01*
X144341002Y-65373928D01*
X143440998Y-65373928D01*
X143267744Y-65390992D01*
X143101148Y-65441528D01*
X142947613Y-65523595D01*
X142813038Y-65634038D01*
X142726487Y-65739500D01*
X142270994Y-65739500D01*
X142298185Y-65717185D01*
X142377537Y-65620494D01*
X142436502Y-65510180D01*
X142472812Y-65390482D01*
X142485072Y-65266000D01*
X142482000Y-64801750D01*
X142323250Y-64643000D01*
X141224000Y-64643000D01*
X141224000Y-64663000D01*
X140970000Y-64663000D01*
X140970000Y-64643000D01*
X140950000Y-64643000D01*
X140950000Y-64389000D01*
X140970000Y-64389000D01*
X140970000Y-63289750D01*
X141224000Y-63289750D01*
X141224000Y-64389000D01*
X142323250Y-64389000D01*
X142482000Y-64230250D01*
X142485072Y-63766000D01*
X142472812Y-63641518D01*
X142436502Y-63521820D01*
X142377537Y-63411506D01*
X142298185Y-63314815D01*
X142201494Y-63235463D01*
X142091180Y-63176498D01*
X141971482Y-63140188D01*
X141847000Y-63127928D01*
X141382750Y-63131000D01*
X141224000Y-63289750D01*
X140970000Y-63289750D01*
X140811250Y-63131000D01*
X140347000Y-63127928D01*
X140222518Y-63140188D01*
X140102820Y-63176498D01*
X139992506Y-63235463D01*
X139895815Y-63314815D01*
X139844965Y-63376776D01*
X139713043Y-63288629D01*
X139460989Y-63184225D01*
X139193411Y-63131000D01*
X138920589Y-63131000D01*
X138653011Y-63184225D01*
X138400957Y-63288629D01*
X138174114Y-63440201D01*
X137981201Y-63633114D01*
X137829629Y-63859957D01*
X137725225Y-64112011D01*
X137672000Y-64379589D01*
X137672000Y-64652411D01*
X137725225Y-64919989D01*
X137829629Y-65172043D01*
X137981201Y-65398886D01*
X138174114Y-65591799D01*
X138343188Y-65704771D01*
X138173411Y-65671000D01*
X137900589Y-65671000D01*
X137633011Y-65724225D01*
X137380957Y-65828629D01*
X137154114Y-65980201D01*
X137113315Y-66021000D01*
X125803544Y-66021000D01*
X125795185Y-66010815D01*
X125698494Y-65931463D01*
X125588180Y-65872498D01*
X125468482Y-65836188D01*
X125344000Y-65823928D01*
X121544000Y-65823928D01*
X121419518Y-65836188D01*
X121299820Y-65872498D01*
X121189506Y-65931463D01*
X121092815Y-66010815D01*
X121013463Y-66107506D01*
X120954498Y-66217820D01*
X120918188Y-66337518D01*
X120905928Y-66462000D01*
X120905928Y-66976000D01*
X117848213Y-66976000D01*
X117781850Y-66940528D01*
X117615254Y-66889992D01*
X117442000Y-66872928D01*
X116492000Y-66872928D01*
X116318746Y-66889992D01*
X116152150Y-66940528D01*
X115998614Y-67022595D01*
X115864038Y-67133038D01*
X115753595Y-67267614D01*
X115671528Y-67421150D01*
X115620992Y-67587746D01*
X115603928Y-67761000D01*
X115603928Y-68261000D01*
X115620992Y-68434254D01*
X115671528Y-68600850D01*
X115753595Y-68754386D01*
X115864038Y-68888962D01*
X115870594Y-68894342D01*
X115790815Y-68959815D01*
X115711463Y-69056506D01*
X115652498Y-69166820D01*
X115616188Y-69286518D01*
X115603928Y-69411000D01*
X115607000Y-69625250D01*
X115765750Y-69784000D01*
X116840000Y-69784000D01*
X116840000Y-69764000D01*
X117094000Y-69764000D01*
X117094000Y-69784000D01*
X118168250Y-69784000D01*
X118327000Y-69625250D01*
X118330072Y-69411000D01*
X118317812Y-69286518D01*
X118281502Y-69166820D01*
X118222537Y-69056506D01*
X118213915Y-69046000D01*
X121289527Y-69046000D01*
X121299820Y-69051502D01*
X121419518Y-69087812D01*
X121544000Y-69100072D01*
X122059000Y-69100072D01*
X122059001Y-72148479D01*
X122018482Y-72136188D01*
X121894000Y-72123928D01*
X121429750Y-72127000D01*
X121271000Y-72285750D01*
X121271000Y-73635000D01*
X121291000Y-73635000D01*
X121291000Y-73889000D01*
X121271000Y-73889000D01*
X121271000Y-75238250D01*
X121429750Y-75397000D01*
X121894000Y-75400072D01*
X122018482Y-75387812D01*
X122138180Y-75351502D01*
X122248494Y-75292537D01*
X122255510Y-75286780D01*
X113182000Y-84360290D01*
X113182000Y-78138872D01*
X113589000Y-78138872D01*
X113589000Y-78579128D01*
X113674890Y-79010925D01*
X113843369Y-79417669D01*
X114087962Y-79783729D01*
X114399271Y-80095038D01*
X114765331Y-80339631D01*
X115172075Y-80508110D01*
X115603872Y-80594000D01*
X116044128Y-80594000D01*
X116475925Y-80508110D01*
X116882669Y-80339631D01*
X117248729Y-80095038D01*
X117560038Y-79783729D01*
X117804631Y-79417669D01*
X117973110Y-79010925D01*
X118059000Y-78579128D01*
X118059000Y-78138872D01*
X117973110Y-77707075D01*
X117804631Y-77300331D01*
X117560038Y-76934271D01*
X117248729Y-76622962D01*
X116882669Y-76378369D01*
X116475925Y-76209890D01*
X116044128Y-76124000D01*
X115603872Y-76124000D01*
X115172075Y-76209890D01*
X114765331Y-76378369D01*
X114399271Y-76622962D01*
X114087962Y-76934271D01*
X113843369Y-77300331D01*
X113674890Y-77707075D01*
X113589000Y-78138872D01*
X113182000Y-78138872D01*
X113182000Y-74762000D01*
X119755928Y-74762000D01*
X119768188Y-74886482D01*
X119804498Y-75006180D01*
X119863463Y-75116494D01*
X119942815Y-75213185D01*
X120039506Y-75292537D01*
X120149820Y-75351502D01*
X120269518Y-75387812D01*
X120394000Y-75400072D01*
X120858250Y-75397000D01*
X121017000Y-75238250D01*
X121017000Y-73889000D01*
X119917750Y-73889000D01*
X119759000Y-74047750D01*
X119755928Y-74762000D01*
X113182000Y-74762000D01*
X113182000Y-72762000D01*
X119755928Y-72762000D01*
X119759000Y-73476250D01*
X119917750Y-73635000D01*
X121017000Y-73635000D01*
X121017000Y-72285750D01*
X120858250Y-72127000D01*
X120394000Y-72123928D01*
X120269518Y-72136188D01*
X120149820Y-72172498D01*
X120039506Y-72231463D01*
X119942815Y-72310815D01*
X119863463Y-72407506D01*
X119804498Y-72517820D01*
X119768188Y-72637518D01*
X119755928Y-72762000D01*
X113182000Y-72762000D01*
X113182000Y-70411000D01*
X115603928Y-70411000D01*
X115616188Y-70535482D01*
X115652498Y-70655180D01*
X115711463Y-70765494D01*
X115790815Y-70862185D01*
X115887506Y-70941537D01*
X115997820Y-71000502D01*
X116117518Y-71036812D01*
X116242000Y-71049072D01*
X116681250Y-71046000D01*
X116840000Y-70887250D01*
X116840000Y-70038000D01*
X117094000Y-70038000D01*
X117094000Y-70887250D01*
X117252750Y-71046000D01*
X117692000Y-71049072D01*
X117816482Y-71036812D01*
X117936180Y-71000502D01*
X118046494Y-70941537D01*
X118143185Y-70862185D01*
X118222537Y-70765494D01*
X118281502Y-70655180D01*
X118317812Y-70535482D01*
X118330072Y-70411000D01*
X118327000Y-70196750D01*
X118168250Y-70038000D01*
X117094000Y-70038000D01*
X116840000Y-70038000D01*
X115765750Y-70038000D01*
X115607000Y-70196750D01*
X115603928Y-70411000D01*
X113182000Y-70411000D01*
X113181999Y-63024289D01*
X113235421Y-62479449D01*
X113384277Y-61986416D01*
X113626058Y-61531692D01*
X113951557Y-61132591D01*
X114348384Y-60804307D01*
X114492826Y-60726207D01*
X114491105Y-60731881D01*
X114466000Y-60986775D01*
X114466000Y-62457224D01*
X114491105Y-62712118D01*
X114590314Y-63039167D01*
X114751421Y-63340577D01*
X114968234Y-63604766D01*
X115232422Y-63821579D01*
X115533832Y-63982686D01*
X115860881Y-64081895D01*
X116201000Y-64115394D01*
X116541118Y-64081895D01*
X116868167Y-63982686D01*
X117169577Y-63821579D01*
X117433766Y-63604766D01*
X117591139Y-63413006D01*
X117768419Y-63507764D01*
X118029493Y-63586960D01*
X118301000Y-63613701D01*
X118572506Y-63586960D01*
X118833580Y-63507764D01*
X119074187Y-63379157D01*
X119285080Y-63206081D01*
X119304358Y-63182591D01*
X119411460Y-63291145D01*
X119637132Y-63444142D01*
X119888316Y-63550173D01*
X119959815Y-63564318D01*
X120174000Y-63441656D01*
X120174000Y-61849000D01*
X120154000Y-61849000D01*
X120154000Y-61595000D01*
X120174000Y-61595000D01*
X120174000Y-61575000D01*
X120428000Y-61575000D01*
X120428000Y-61595000D01*
X120448000Y-61595000D01*
X120448000Y-61849000D01*
X120428000Y-61849000D01*
X120428000Y-63441656D01*
X120642185Y-63564318D01*
X120713684Y-63550173D01*
X120964868Y-63444142D01*
X121062624Y-63377867D01*
X121099815Y-63423185D01*
X121196506Y-63502537D01*
X121306820Y-63561502D01*
X121426518Y-63597812D01*
X121551000Y-63610072D01*
X123051000Y-63610072D01*
X123163496Y-63598992D01*
X123168234Y-63604766D01*
X123432422Y-63821579D01*
X123733832Y-63982686D01*
X124060881Y-64081895D01*
X124401000Y-64115394D01*
X124741118Y-64081895D01*
X125068167Y-63982686D01*
X125369577Y-63821579D01*
X125633766Y-63604766D01*
X125850579Y-63340578D01*
X126011686Y-63039168D01*
X126110895Y-62712119D01*
X126136000Y-62457225D01*
X126136000Y-62040193D01*
X131782000Y-62040193D01*
X131782000Y-62391807D01*
X131850596Y-62736665D01*
X131985153Y-63061515D01*
X132180500Y-63353871D01*
X132429129Y-63602500D01*
X132721485Y-63797847D01*
X133046335Y-63932404D01*
X133391193Y-64001000D01*
X133742807Y-64001000D01*
X134087665Y-63932404D01*
X134412515Y-63797847D01*
X134704871Y-63602500D01*
X134953500Y-63353871D01*
X135148847Y-63061515D01*
X135283404Y-62736665D01*
X135352000Y-62391807D01*
X135352000Y-62040193D01*
X143782000Y-62040193D01*
X143782000Y-62391807D01*
X143850596Y-62736665D01*
X143985153Y-63061515D01*
X144180500Y-63353871D01*
X144429129Y-63602500D01*
X144721485Y-63797847D01*
X145046335Y-63932404D01*
X145391193Y-64001000D01*
X145742807Y-64001000D01*
X146087665Y-63932404D01*
X146412515Y-63797847D01*
X146704871Y-63602500D01*
X146953500Y-63353871D01*
X147009467Y-63270110D01*
X149307524Y-63270110D01*
X149428845Y-63500000D01*
X150622000Y-63500000D01*
X150622000Y-62306186D01*
X150876000Y-62306186D01*
X150876000Y-63500000D01*
X153162000Y-63500000D01*
X153162000Y-62306186D01*
X153416000Y-62306186D01*
X153416000Y-63500000D01*
X154609155Y-63500000D01*
X154730476Y-63270110D01*
X154685825Y-63122901D01*
X154560641Y-62860080D01*
X154386588Y-62626731D01*
X154170355Y-62431822D01*
X153920252Y-62282843D01*
X153645891Y-62185519D01*
X153416000Y-62306186D01*
X153162000Y-62306186D01*
X152932109Y-62185519D01*
X152657748Y-62282843D01*
X152407645Y-62431822D01*
X152191412Y-62626731D01*
X152019000Y-62857880D01*
X151846588Y-62626731D01*
X151630355Y-62431822D01*
X151380252Y-62282843D01*
X151105891Y-62185519D01*
X150876000Y-62306186D01*
X150622000Y-62306186D01*
X150392109Y-62185519D01*
X150117748Y-62282843D01*
X149867645Y-62431822D01*
X149651412Y-62626731D01*
X149477359Y-62860080D01*
X149352175Y-63122901D01*
X149307524Y-63270110D01*
X147009467Y-63270110D01*
X147148847Y-63061515D01*
X147283404Y-62736665D01*
X147352000Y-62391807D01*
X147352000Y-62040193D01*
X147283404Y-61695335D01*
X147148847Y-61370485D01*
X146953500Y-61078129D01*
X146704871Y-60829500D01*
X146412515Y-60634153D01*
X146087665Y-60499596D01*
X145742807Y-60431000D01*
X145391193Y-60431000D01*
X145046335Y-60499596D01*
X144721485Y-60634153D01*
X144429129Y-60829500D01*
X144180500Y-61078129D01*
X143985153Y-61370485D01*
X143850596Y-61695335D01*
X143782000Y-62040193D01*
X135352000Y-62040193D01*
X135283404Y-61695335D01*
X135148847Y-61370485D01*
X134953500Y-61078129D01*
X134704871Y-60829500D01*
X134412515Y-60634153D01*
X134087665Y-60499596D01*
X133742807Y-60431000D01*
X133391193Y-60431000D01*
X133046335Y-60499596D01*
X132721485Y-60634153D01*
X132429129Y-60829500D01*
X132180500Y-61078129D01*
X131985153Y-61370485D01*
X131850596Y-61695335D01*
X131782000Y-62040193D01*
X126136000Y-62040193D01*
X126136000Y-60986775D01*
X126110895Y-60731881D01*
X126011686Y-60404832D01*
X125982378Y-60350000D01*
X154780715Y-60350000D01*
X155325552Y-60403422D01*
G37*
%TD.AperFunction*%
%TD*%
M02*
