%TF.GenerationSoftware,KiCad,Pcbnew,(5.1.7)-1*%
%TF.CreationDate,2021-02-24T18:28:04+01:00*%
%TF.ProjectId,Temperature-controller-with-ESP8266,54656d70-6572-4617-9475-72652d636f6e,rev?*%
%TF.SameCoordinates,Original*%
%TF.FileFunction,Copper,L2,Bot*%
%TF.FilePolarity,Positive*%
%FSLAX46Y46*%
G04 Gerber Fmt 4.6, Leading zero omitted, Abs format (unit mm)*
G04 Created by KiCad (PCBNEW (5.1.7)-1) date 2021-02-24 18:28:04*
%MOMM*%
%LPD*%
G01*
G04 APERTURE LIST*
%TA.AperFunction,ComponentPad*%
%ADD10R,1.500000X1.500000*%
%TD*%
%TA.AperFunction,ComponentPad*%
%ADD11C,1.500000*%
%TD*%
%TA.AperFunction,ComponentPad*%
%ADD12O,1.700000X1.700000*%
%TD*%
%TA.AperFunction,ComponentPad*%
%ADD13R,1.700000X1.700000*%
%TD*%
%TA.AperFunction,ComponentPad*%
%ADD14C,1.800000*%
%TD*%
%TA.AperFunction,ComponentPad*%
%ADD15R,1.800000X1.800000*%
%TD*%
%TA.AperFunction,ComponentPad*%
%ADD16O,2.200000X3.500000*%
%TD*%
%TA.AperFunction,ComponentPad*%
%ADD17O,1.500000X2.500000*%
%TD*%
%TA.AperFunction,ComponentPad*%
%ADD18R,1.500000X2.500000*%
%TD*%
%TA.AperFunction,ViaPad*%
%ADD19C,0.800000*%
%TD*%
%TA.AperFunction,Conductor*%
%ADD20C,0.300000*%
%TD*%
%TA.AperFunction,Conductor*%
%ADD21C,0.254000*%
%TD*%
%TA.AperFunction,Conductor*%
%ADD22C,0.100000*%
%TD*%
G04 APERTURE END LIST*
D10*
%TO.P,J5,1*%
%TO.N,GND*%
X141097000Y-64516000D03*
D11*
%TO.P,J5,2*%
%TO.N,DATA*%
X140077000Y-67056000D03*
%TO.P,J5,3*%
%TO.N,N/C*%
X139057000Y-64516000D03*
%TO.P,J5,4*%
%TO.N,+3V3*%
X138037000Y-67056000D03*
%TD*%
D12*
%TO.P,J2,4*%
%TO.N,GND*%
X131699000Y-80645000D03*
%TO.P,J2,3*%
%TO.N,GPIO14*%
X134239000Y-80645000D03*
%TO.P,J2,2*%
%TO.N,RELE_D*%
X136779000Y-80645000D03*
D13*
%TO.P,J2,1*%
%TO.N,+5V*%
X139319000Y-80645000D03*
%TD*%
D14*
%TO.P,D1,2*%
%TO.N,Net-(D1-Pad2)*%
X134874000Y-73406000D03*
D15*
%TO.P,D1,1*%
%TO.N,Net-(D1-Pad1)*%
X134874000Y-75946000D03*
%TD*%
D14*
%TO.P,D2,2*%
%TO.N,Net-(D2-Pad2)*%
X146558000Y-73533000D03*
D15*
%TO.P,D2,1*%
%TO.N,RELE_D*%
X146558000Y-76073000D03*
%TD*%
D16*
%TO.P,SW2,*%
%TO.N,*%
X116201000Y-61722000D03*
X124401000Y-61722000D03*
D17*
%TO.P,SW2,3*%
%TO.N,Net-(D1-Pad1)*%
X118301000Y-61722000D03*
%TO.P,SW2,2*%
%TO.N,GND*%
X120301000Y-61722000D03*
D18*
%TO.P,SW2,1*%
%TO.N,BUTTON*%
X122301000Y-61722000D03*
%TD*%
D13*
%TO.P,J9,1*%
%TO.N,+3V3*%
X124206000Y-107950000D03*
D12*
%TO.P,J9,2*%
%TO.N,GPIO15*%
X124206000Y-105410000D03*
%TO.P,J9,3*%
%TO.N,GPIO13*%
X124206000Y-102870000D03*
%TO.P,J9,4*%
%TO.N,DATA*%
X124206000Y-100330000D03*
%TO.P,J9,5*%
%TO.N,GPIO14*%
X124206000Y-97790000D03*
%TO.P,J9,6*%
%TO.N,BUTTON*%
X124206000Y-95250000D03*
%TO.P,J9,7*%
%TO.N,ADC*%
X124206000Y-92710000D03*
%TO.P,J9,8*%
%TO.N,RST*%
X124206000Y-90170000D03*
%TD*%
%TO.P,J10,8*%
%TO.N,GPIO1*%
X147066000Y-90170000D03*
%TO.P,J10,7*%
%TO.N,GPIO3*%
X147066000Y-92710000D03*
%TO.P,J10,6*%
%TO.N,GPIO5*%
X147066000Y-95250000D03*
%TO.P,J10,5*%
%TO.N,GPIO4*%
X147066000Y-97790000D03*
%TO.P,J10,4*%
%TO.N,GPIO0*%
X147066000Y-100330000D03*
%TO.P,J10,3*%
%TO.N,GPIO2*%
X147066000Y-102870000D03*
%TO.P,J10,2*%
%TO.N,+5V*%
X147066000Y-105410000D03*
D13*
%TO.P,J10,1*%
%TO.N,GND*%
X147066000Y-107950000D03*
%TD*%
D12*
%TO.P,J4,3*%
%TO.N,GND*%
X153289000Y-63627000D03*
%TO.P,J4,2*%
%TO.N,+3V3*%
X153289000Y-66167000D03*
D13*
%TO.P,J4,1*%
%TO.N,ADC*%
X153289000Y-68707000D03*
%TD*%
%TO.P,J6,1*%
%TO.N,DATA*%
X150749000Y-68707000D03*
D12*
%TO.P,J6,2*%
%TO.N,+3V3*%
X150749000Y-66167000D03*
%TO.P,J6,3*%
%TO.N,GND*%
X150749000Y-63627000D03*
%TD*%
D19*
%TO.N,GND*%
X115316000Y-113919000D03*
X116332000Y-113919000D03*
X115316000Y-114935000D03*
X116332000Y-114935000D03*
X114935000Y-71882000D03*
X115951000Y-71882000D03*
X114935000Y-73025000D03*
X115951000Y-73025000D03*
X136652000Y-115570000D03*
X147828000Y-110871000D03*
X146812000Y-110871000D03*
X145796000Y-110871000D03*
X144653000Y-110871000D03*
X154305000Y-113919000D03*
X155448000Y-113919000D03*
X154305000Y-114935000D03*
X155448000Y-114935000D03*
%TO.N,RST*%
X119126000Y-108966000D03*
%TO.N,RTS*%
X114681000Y-106934000D03*
X136652000Y-110998000D03*
%TO.N,DTR*%
X120142000Y-104267000D03*
X138176000Y-110998000D03*
%TO.N,GPIO14*%
X132080000Y-92329000D03*
%TO.N,GPIO4*%
X148209000Y-83058000D03*
%TO.N,GPIO5*%
X149479000Y-84582000D03*
%TO.N,Net-(D1-Pad1)*%
X131826000Y-76835000D03*
%TO.N,ADC*%
X141986000Y-82423000D03*
%TO.N,RELE_D*%
X143510000Y-76835000D03*
%TO.N,Net-(R3-Pad2)*%
X137795000Y-116205000D03*
X151130000Y-98171000D03*
%TO.N,Net-(R4-Pad1)*%
X152781000Y-90170000D03*
X140970000Y-116586000D03*
%TD*%
D20*
%TO.N,+5V*%
X139319000Y-102329002D02*
X139319000Y-80645000D01*
X142399998Y-105410000D02*
X139319000Y-102329002D01*
X147066000Y-105410000D02*
X142399998Y-105410000D01*
%TO.N,RST*%
X123825000Y-90551000D02*
X124206000Y-90170000D01*
X119126000Y-104172998D02*
X119126000Y-90551000D01*
X119126000Y-108966000D02*
X119126000Y-104172998D01*
X119126000Y-90551000D02*
X123825000Y-90551000D01*
%TO.N,RTS*%
X118745000Y-110998000D02*
X136652000Y-110998000D01*
X114681000Y-106934000D02*
X118745000Y-110998000D01*
%TO.N,DTR*%
X120142000Y-104267000D02*
X120142000Y-106216002D01*
X120142000Y-106216002D02*
X120142000Y-110109000D01*
X137287000Y-110109000D02*
X138176000Y-110998000D01*
X120142000Y-110109000D02*
X137287000Y-110109000D01*
%TO.N,BUTTON*%
X122301000Y-63272000D02*
X122301000Y-61722000D01*
X132899001Y-73870001D02*
X122301000Y-63272000D01*
X132899001Y-86556999D02*
X132899001Y-73870001D01*
X124206000Y-95250000D02*
X132899001Y-86556999D01*
%TO.N,DATA*%
X140077000Y-73173002D02*
X140077000Y-67056000D01*
X135578999Y-77671003D02*
X140077000Y-73173002D01*
X135578999Y-90159082D02*
X135578999Y-77671003D01*
X125408081Y-100330000D02*
X135578999Y-90159082D01*
X124206000Y-100330000D02*
X125408081Y-100330000D01*
%TO.N,GPIO14*%
X134239000Y-90170000D02*
X134239000Y-80645000D01*
X132080000Y-92329000D02*
X134239000Y-90170000D01*
%TO.N,GPIO4*%
X150229001Y-84221999D02*
X150229001Y-94626999D01*
X149065002Y-83058000D02*
X150229001Y-84221999D01*
X150229001Y-94626999D02*
X147066000Y-97790000D01*
X148209000Y-83058000D02*
X149065002Y-83058000D01*
%TO.N,GPIO5*%
X149479000Y-92837000D02*
X147066000Y-95250000D01*
X149479000Y-84582000D02*
X149479000Y-92837000D01*
%TO.N,Net-(D1-Pad1)*%
X134874000Y-75946000D02*
X135636000Y-75946000D01*
X118301000Y-63310000D02*
X118301000Y-61722000D01*
X131826000Y-76835000D02*
X118301000Y-63310000D01*
%TO.N,ADC*%
X142638002Y-82423000D02*
X141986000Y-82423000D01*
X153289000Y-71772002D02*
X142638002Y-82423000D01*
X153289000Y-68707000D02*
X153289000Y-71772002D01*
%TO.N,RELE_D*%
X140589000Y-76835000D02*
X136779000Y-80645000D01*
X143510000Y-76835000D02*
X140589000Y-76835000D01*
%TO.N,Net-(R3-Pad2)*%
X137795000Y-116205000D02*
X138303000Y-115697000D01*
X138303000Y-115697000D02*
X146050000Y-115697000D01*
X151130000Y-110617000D02*
X151130000Y-98171000D01*
X146050000Y-115697000D02*
X151130000Y-110617000D01*
%TO.N,Net-(R4-Pad1)*%
X152781000Y-90170000D02*
X152781000Y-110109000D01*
X146304000Y-116586000D02*
X140970000Y-116586000D01*
X152781000Y-110109000D02*
X146304000Y-116586000D01*
%TD*%
D21*
%TO.N,GND*%
X155325552Y-60403422D02*
X155818585Y-60552278D01*
X156273309Y-60794059D01*
X156672410Y-61119558D01*
X157000694Y-61516385D01*
X157245644Y-61969410D01*
X157397938Y-62461392D01*
X157455000Y-63004295D01*
X157455001Y-65118581D01*
X157454999Y-119855721D01*
X157401578Y-120400552D01*
X157252722Y-120893584D01*
X157010941Y-121348308D01*
X156685442Y-121747409D01*
X156288615Y-122075693D01*
X155835590Y-122320643D01*
X155343608Y-122472937D01*
X154800704Y-122529999D01*
X115856279Y-122529999D01*
X115311448Y-122476578D01*
X114818416Y-122327722D01*
X114363692Y-122085941D01*
X113964591Y-121760442D01*
X113636307Y-121363615D01*
X113391357Y-120910590D01*
X113239063Y-120418608D01*
X113182001Y-119875704D01*
X113182001Y-119667872D01*
X113589000Y-119667872D01*
X113589000Y-120108128D01*
X113674890Y-120539925D01*
X113843369Y-120946669D01*
X114087962Y-121312729D01*
X114399271Y-121624038D01*
X114765331Y-121868631D01*
X115172075Y-122037110D01*
X115603872Y-122123000D01*
X116044128Y-122123000D01*
X116475925Y-122037110D01*
X116882669Y-121868631D01*
X117248729Y-121624038D01*
X117560038Y-121312729D01*
X117804631Y-120946669D01*
X117973110Y-120539925D01*
X118059000Y-120108128D01*
X118059000Y-119667872D01*
X152578000Y-119667872D01*
X152578000Y-120108128D01*
X152663890Y-120539925D01*
X152832369Y-120946669D01*
X153076962Y-121312729D01*
X153388271Y-121624038D01*
X153754331Y-121868631D01*
X154161075Y-122037110D01*
X154592872Y-122123000D01*
X155033128Y-122123000D01*
X155464925Y-122037110D01*
X155871669Y-121868631D01*
X156237729Y-121624038D01*
X156549038Y-121312729D01*
X156793631Y-120946669D01*
X156962110Y-120539925D01*
X157048000Y-120108128D01*
X157048000Y-119667872D01*
X156962110Y-119236075D01*
X156793631Y-118829331D01*
X156549038Y-118463271D01*
X156237729Y-118151962D01*
X155871669Y-117907369D01*
X155464925Y-117738890D01*
X155033128Y-117653000D01*
X154592872Y-117653000D01*
X154161075Y-117738890D01*
X153754331Y-117907369D01*
X153388271Y-118151962D01*
X153076962Y-118463271D01*
X152832369Y-118829331D01*
X152663890Y-119236075D01*
X152578000Y-119667872D01*
X118059000Y-119667872D01*
X117973110Y-119236075D01*
X117804631Y-118829331D01*
X117560038Y-118463271D01*
X117248729Y-118151962D01*
X116882669Y-117907369D01*
X116475925Y-117738890D01*
X116044128Y-117653000D01*
X115603872Y-117653000D01*
X115172075Y-117738890D01*
X114765331Y-117907369D01*
X114399271Y-118151962D01*
X114087962Y-118463271D01*
X113843369Y-118829331D01*
X113674890Y-119236075D01*
X113589000Y-119667872D01*
X113182001Y-119667872D01*
X113182001Y-116733212D01*
X123157000Y-116733212D01*
X123157000Y-116956788D01*
X123200617Y-117176067D01*
X123286176Y-117382624D01*
X123410388Y-117568520D01*
X123568480Y-117726612D01*
X123754376Y-117850824D01*
X123960933Y-117936383D01*
X124180212Y-117980000D01*
X124403788Y-117980000D01*
X124623067Y-117936383D01*
X124829624Y-117850824D01*
X125015520Y-117726612D01*
X125173612Y-117568520D01*
X125297824Y-117382624D01*
X125383383Y-117176067D01*
X125427000Y-116956788D01*
X125427000Y-116733212D01*
X127557000Y-116733212D01*
X127557000Y-116956788D01*
X127600617Y-117176067D01*
X127686176Y-117382624D01*
X127810388Y-117568520D01*
X127968480Y-117726612D01*
X128154376Y-117850824D01*
X128360933Y-117936383D01*
X128580212Y-117980000D01*
X128803788Y-117980000D01*
X129023067Y-117936383D01*
X129229624Y-117850824D01*
X129415520Y-117726612D01*
X129573612Y-117568520D01*
X129697824Y-117382624D01*
X129783383Y-117176067D01*
X129827000Y-116956788D01*
X129827000Y-116733212D01*
X129783383Y-116513933D01*
X129697824Y-116307376D01*
X129573612Y-116121480D01*
X129555193Y-116103061D01*
X136760000Y-116103061D01*
X136760000Y-116306939D01*
X136799774Y-116506898D01*
X136877795Y-116695256D01*
X136991063Y-116864774D01*
X137135226Y-117008937D01*
X137304744Y-117122205D01*
X137493102Y-117200226D01*
X137693061Y-117240000D01*
X137896939Y-117240000D01*
X138096898Y-117200226D01*
X138285256Y-117122205D01*
X138454774Y-117008937D01*
X138598937Y-116864774D01*
X138712205Y-116695256D01*
X138790226Y-116506898D01*
X138795178Y-116482000D01*
X139935410Y-116482000D01*
X139935000Y-116484061D01*
X139935000Y-116687939D01*
X139974774Y-116887898D01*
X140052795Y-117076256D01*
X140166063Y-117245774D01*
X140310226Y-117389937D01*
X140479744Y-117503205D01*
X140668102Y-117581226D01*
X140868061Y-117621000D01*
X141071939Y-117621000D01*
X141271898Y-117581226D01*
X141460256Y-117503205D01*
X141629774Y-117389937D01*
X141648711Y-117371000D01*
X146265447Y-117371000D01*
X146304000Y-117374797D01*
X146342553Y-117371000D01*
X146342561Y-117371000D01*
X146457887Y-117359641D01*
X146605860Y-117314754D01*
X146742233Y-117241862D01*
X146861764Y-117143764D01*
X146886347Y-117113810D01*
X153308816Y-110691342D01*
X153338764Y-110666764D01*
X153363346Y-110636812D01*
X153426575Y-110559767D01*
X153436862Y-110547233D01*
X153509754Y-110410860D01*
X153554641Y-110262887D01*
X153566000Y-110147561D01*
X153566000Y-110147554D01*
X153569797Y-110109001D01*
X153566000Y-110070448D01*
X153566000Y-90848711D01*
X153584937Y-90829774D01*
X153698205Y-90660256D01*
X153776226Y-90471898D01*
X153816000Y-90271939D01*
X153816000Y-90068061D01*
X153776226Y-89868102D01*
X153698205Y-89679744D01*
X153584937Y-89510226D01*
X153440774Y-89366063D01*
X153271256Y-89252795D01*
X153082898Y-89174774D01*
X152882939Y-89135000D01*
X152679061Y-89135000D01*
X152479102Y-89174774D01*
X152290744Y-89252795D01*
X152121226Y-89366063D01*
X151977063Y-89510226D01*
X151863795Y-89679744D01*
X151785774Y-89868102D01*
X151746000Y-90068061D01*
X151746000Y-90271939D01*
X151785774Y-90471898D01*
X151863795Y-90660256D01*
X151977063Y-90829774D01*
X151996000Y-90848711D01*
X151996000Y-97604111D01*
X151933937Y-97511226D01*
X151789774Y-97367063D01*
X151620256Y-97253795D01*
X151431898Y-97175774D01*
X151231939Y-97136000D01*
X151028061Y-97136000D01*
X150828102Y-97175774D01*
X150639744Y-97253795D01*
X150470226Y-97367063D01*
X150326063Y-97511226D01*
X150212795Y-97680744D01*
X150134774Y-97869102D01*
X150095000Y-98069061D01*
X150095000Y-98272939D01*
X150134774Y-98472898D01*
X150212795Y-98661256D01*
X150326063Y-98830774D01*
X150345001Y-98849712D01*
X150345000Y-110291842D01*
X145724843Y-114912000D01*
X138341552Y-114912000D01*
X138302999Y-114908203D01*
X138264446Y-114912000D01*
X138264439Y-114912000D01*
X138163490Y-114921943D01*
X138149112Y-114923359D01*
X138114672Y-114933806D01*
X138001140Y-114968246D01*
X137864767Y-115041138D01*
X137745236Y-115139236D01*
X137720655Y-115169188D01*
X137719843Y-115170000D01*
X137693061Y-115170000D01*
X137493102Y-115209774D01*
X137304744Y-115287795D01*
X137135226Y-115401063D01*
X136991063Y-115545226D01*
X136877795Y-115714744D01*
X136799774Y-115903102D01*
X136760000Y-116103061D01*
X129555193Y-116103061D01*
X129415520Y-115963388D01*
X129229624Y-115839176D01*
X129023067Y-115753617D01*
X128803788Y-115710000D01*
X128580212Y-115710000D01*
X128360933Y-115753617D01*
X128154376Y-115839176D01*
X127968480Y-115963388D01*
X127810388Y-116121480D01*
X127686176Y-116307376D01*
X127600617Y-116513933D01*
X127557000Y-116733212D01*
X125427000Y-116733212D01*
X125383383Y-116513933D01*
X125297824Y-116307376D01*
X125173612Y-116121480D01*
X125015520Y-115963388D01*
X124829624Y-115839176D01*
X124623067Y-115753617D01*
X124403788Y-115710000D01*
X124180212Y-115710000D01*
X123960933Y-115753617D01*
X123754376Y-115839176D01*
X123568480Y-115963388D01*
X123410388Y-116121480D01*
X123286176Y-116307376D01*
X123200617Y-116513933D01*
X123157000Y-116733212D01*
X113182001Y-116733212D01*
X113182001Y-81001891D01*
X130257519Y-81001891D01*
X130354843Y-81276252D01*
X130503822Y-81526355D01*
X130698731Y-81742588D01*
X130932080Y-81916641D01*
X131194901Y-82041825D01*
X131342110Y-82086476D01*
X131572000Y-81965155D01*
X131572000Y-80772000D01*
X130378186Y-80772000D01*
X130257519Y-81001891D01*
X113182001Y-81001891D01*
X113182000Y-78138872D01*
X113589000Y-78138872D01*
X113589000Y-78579128D01*
X113674890Y-79010925D01*
X113843369Y-79417669D01*
X114087962Y-79783729D01*
X114399271Y-80095038D01*
X114765331Y-80339631D01*
X115172075Y-80508110D01*
X115603872Y-80594000D01*
X116044128Y-80594000D01*
X116475925Y-80508110D01*
X116882669Y-80339631D01*
X116959777Y-80288109D01*
X130257519Y-80288109D01*
X130378186Y-80518000D01*
X131572000Y-80518000D01*
X131572000Y-79324845D01*
X131342110Y-79203524D01*
X131194901Y-79248175D01*
X130932080Y-79373359D01*
X130698731Y-79547412D01*
X130503822Y-79763645D01*
X130354843Y-80013748D01*
X130257519Y-80288109D01*
X116959777Y-80288109D01*
X117248729Y-80095038D01*
X117560038Y-79783729D01*
X117804631Y-79417669D01*
X117973110Y-79010925D01*
X118059000Y-78579128D01*
X118059000Y-78138872D01*
X117973110Y-77707075D01*
X117804631Y-77300331D01*
X117560038Y-76934271D01*
X117248729Y-76622962D01*
X116882669Y-76378369D01*
X116475925Y-76209890D01*
X116044128Y-76124000D01*
X115603872Y-76124000D01*
X115172075Y-76209890D01*
X114765331Y-76378369D01*
X114399271Y-76622962D01*
X114087962Y-76934271D01*
X113843369Y-77300331D01*
X113674890Y-77707075D01*
X113589000Y-78138872D01*
X113182000Y-78138872D01*
X113181999Y-63024289D01*
X113235421Y-62479449D01*
X113384277Y-61986416D01*
X113626058Y-61531692D01*
X113951557Y-61132591D01*
X114348384Y-60804307D01*
X114492826Y-60726207D01*
X114491105Y-60731881D01*
X114466000Y-60986775D01*
X114466000Y-62457224D01*
X114491105Y-62712118D01*
X114590314Y-63039167D01*
X114751421Y-63340577D01*
X114968234Y-63604766D01*
X115232422Y-63821579D01*
X115533832Y-63982686D01*
X115860881Y-64081895D01*
X116201000Y-64115394D01*
X116541118Y-64081895D01*
X116868167Y-63982686D01*
X117169577Y-63821579D01*
X117433766Y-63604766D01*
X117533303Y-63483480D01*
X117572246Y-63611859D01*
X117645138Y-63748232D01*
X117743236Y-63867764D01*
X117773190Y-63892347D01*
X130791000Y-76910158D01*
X130791000Y-76936939D01*
X130830774Y-77136898D01*
X130908795Y-77325256D01*
X131022063Y-77494774D01*
X131166226Y-77638937D01*
X131335744Y-77752205D01*
X131524102Y-77830226D01*
X131724061Y-77870000D01*
X131927939Y-77870000D01*
X132114002Y-77832990D01*
X132114002Y-79221150D01*
X132055890Y-79203524D01*
X131826000Y-79324845D01*
X131826000Y-80518000D01*
X131846000Y-80518000D01*
X131846000Y-80772000D01*
X131826000Y-80772000D01*
X131826000Y-81965155D01*
X132055890Y-82086476D01*
X132114001Y-82068850D01*
X132114001Y-86231841D01*
X125691000Y-92654843D01*
X125691000Y-92563740D01*
X125633932Y-92276842D01*
X125521990Y-92006589D01*
X125359475Y-91763368D01*
X125152632Y-91556525D01*
X124978240Y-91440000D01*
X125152632Y-91323475D01*
X125359475Y-91116632D01*
X125521990Y-90873411D01*
X125633932Y-90603158D01*
X125691000Y-90316260D01*
X125691000Y-90023740D01*
X125633932Y-89736842D01*
X125521990Y-89466589D01*
X125359475Y-89223368D01*
X125152632Y-89016525D01*
X124909411Y-88854010D01*
X124639158Y-88742068D01*
X124352260Y-88685000D01*
X124059740Y-88685000D01*
X123772842Y-88742068D01*
X123502589Y-88854010D01*
X123259368Y-89016525D01*
X123052525Y-89223368D01*
X122890010Y-89466589D01*
X122778068Y-89736842D01*
X122772268Y-89766000D01*
X119164561Y-89766000D01*
X119126000Y-89762202D01*
X119087440Y-89766000D01*
X119087439Y-89766000D01*
X118972113Y-89777359D01*
X118824140Y-89822246D01*
X118687767Y-89895138D01*
X118568236Y-89993236D01*
X118470138Y-90112767D01*
X118397246Y-90249140D01*
X118352359Y-90397113D01*
X118337202Y-90551000D01*
X118341001Y-90589571D01*
X118341000Y-104211558D01*
X118341001Y-104211568D01*
X118341000Y-108287289D01*
X118322063Y-108306226D01*
X118208795Y-108475744D01*
X118130774Y-108664102D01*
X118091000Y-108864061D01*
X118091000Y-109067939D01*
X118130774Y-109267898D01*
X118134817Y-109277660D01*
X115716000Y-106858843D01*
X115716000Y-106832061D01*
X115676226Y-106632102D01*
X115598205Y-106443744D01*
X115484937Y-106274226D01*
X115340774Y-106130063D01*
X115171256Y-106016795D01*
X114982898Y-105938774D01*
X114782939Y-105899000D01*
X114579061Y-105899000D01*
X114379102Y-105938774D01*
X114190744Y-106016795D01*
X114021226Y-106130063D01*
X113877063Y-106274226D01*
X113763795Y-106443744D01*
X113685774Y-106632102D01*
X113646000Y-106832061D01*
X113646000Y-107035939D01*
X113685774Y-107235898D01*
X113763795Y-107424256D01*
X113877063Y-107593774D01*
X114021226Y-107737937D01*
X114190744Y-107851205D01*
X114379102Y-107929226D01*
X114579061Y-107969000D01*
X114605843Y-107969000D01*
X118162658Y-111525816D01*
X118187236Y-111555764D01*
X118217184Y-111580342D01*
X118217187Y-111580345D01*
X118246559Y-111604450D01*
X118306767Y-111653862D01*
X118443140Y-111726754D01*
X118591113Y-111771642D01*
X118666026Y-111779020D01*
X118706439Y-111783000D01*
X118706444Y-111783000D01*
X118745000Y-111786797D01*
X118783556Y-111783000D01*
X135973289Y-111783000D01*
X135992226Y-111801937D01*
X136161744Y-111915205D01*
X136350102Y-111993226D01*
X136550061Y-112033000D01*
X136753939Y-112033000D01*
X136953898Y-111993226D01*
X137142256Y-111915205D01*
X137311774Y-111801937D01*
X137414000Y-111699711D01*
X137516226Y-111801937D01*
X137685744Y-111915205D01*
X137874102Y-111993226D01*
X138074061Y-112033000D01*
X138277939Y-112033000D01*
X138477898Y-111993226D01*
X138666256Y-111915205D01*
X138835774Y-111801937D01*
X138979937Y-111657774D01*
X139093205Y-111488256D01*
X139171226Y-111299898D01*
X139211000Y-111099939D01*
X139211000Y-110896061D01*
X139171226Y-110696102D01*
X139093205Y-110507744D01*
X138979937Y-110338226D01*
X138835774Y-110194063D01*
X138666256Y-110080795D01*
X138477898Y-110002774D01*
X138277939Y-109963000D01*
X138251157Y-109963000D01*
X137869347Y-109581190D01*
X137844764Y-109551236D01*
X137725233Y-109453138D01*
X137588860Y-109380246D01*
X137440887Y-109335359D01*
X137325561Y-109324000D01*
X137325553Y-109324000D01*
X137287000Y-109320203D01*
X137248447Y-109324000D01*
X125418459Y-109324000D01*
X125507185Y-109251185D01*
X125586537Y-109154494D01*
X125645502Y-109044180D01*
X125681812Y-108924482D01*
X125694072Y-108800000D01*
X145577928Y-108800000D01*
X145590188Y-108924482D01*
X145626498Y-109044180D01*
X145685463Y-109154494D01*
X145764815Y-109251185D01*
X145861506Y-109330537D01*
X145971820Y-109389502D01*
X146091518Y-109425812D01*
X146216000Y-109438072D01*
X146780250Y-109435000D01*
X146939000Y-109276250D01*
X146939000Y-108077000D01*
X147193000Y-108077000D01*
X147193000Y-109276250D01*
X147351750Y-109435000D01*
X147916000Y-109438072D01*
X148040482Y-109425812D01*
X148160180Y-109389502D01*
X148270494Y-109330537D01*
X148367185Y-109251185D01*
X148446537Y-109154494D01*
X148505502Y-109044180D01*
X148541812Y-108924482D01*
X148554072Y-108800000D01*
X148551000Y-108235750D01*
X148392250Y-108077000D01*
X147193000Y-108077000D01*
X146939000Y-108077000D01*
X145739750Y-108077000D01*
X145581000Y-108235750D01*
X145577928Y-108800000D01*
X125694072Y-108800000D01*
X125694072Y-107100000D01*
X125681812Y-106975518D01*
X125645502Y-106855820D01*
X125586537Y-106745506D01*
X125507185Y-106648815D01*
X125410494Y-106569463D01*
X125300180Y-106510498D01*
X125227620Y-106488487D01*
X125359475Y-106356632D01*
X125521990Y-106113411D01*
X125633932Y-105843158D01*
X125691000Y-105556260D01*
X125691000Y-105263740D01*
X125633932Y-104976842D01*
X125521990Y-104706589D01*
X125359475Y-104463368D01*
X125152632Y-104256525D01*
X124978240Y-104140000D01*
X125152632Y-104023475D01*
X125359475Y-103816632D01*
X125521990Y-103573411D01*
X125633932Y-103303158D01*
X125691000Y-103016260D01*
X125691000Y-102723740D01*
X125633932Y-102436842D01*
X125521990Y-102166589D01*
X125359475Y-101923368D01*
X125152632Y-101716525D01*
X124978240Y-101600000D01*
X125152632Y-101483475D01*
X125359475Y-101276632D01*
X125468942Y-101112804D01*
X125561968Y-101103641D01*
X125709941Y-101058754D01*
X125846314Y-100985862D01*
X125965845Y-100887764D01*
X125990428Y-100857810D01*
X136106816Y-90741423D01*
X136136763Y-90716846D01*
X136234861Y-90597315D01*
X136307753Y-90460942D01*
X136349328Y-90323887D01*
X136352640Y-90312970D01*
X136356681Y-90271939D01*
X136363999Y-90197643D01*
X136363999Y-90197636D01*
X136367796Y-90159083D01*
X136363999Y-90120530D01*
X136363999Y-82076544D01*
X136632740Y-82130000D01*
X136925260Y-82130000D01*
X137212158Y-82072932D01*
X137482411Y-81960990D01*
X137725632Y-81798475D01*
X137857487Y-81666620D01*
X137879498Y-81739180D01*
X137938463Y-81849494D01*
X138017815Y-81946185D01*
X138114506Y-82025537D01*
X138224820Y-82084502D01*
X138344518Y-82120812D01*
X138469000Y-82133072D01*
X138534001Y-82133072D01*
X138534000Y-102290449D01*
X138530203Y-102329002D01*
X138534000Y-102367555D01*
X138534000Y-102367562D01*
X138545359Y-102482888D01*
X138590246Y-102630861D01*
X138663138Y-102767234D01*
X138761236Y-102886766D01*
X138791190Y-102911349D01*
X141817656Y-105937816D01*
X141842234Y-105967764D01*
X141872182Y-105992342D01*
X141872185Y-105992345D01*
X141901557Y-106016450D01*
X141961765Y-106065862D01*
X142081878Y-106130063D01*
X142098138Y-106138754D01*
X142246110Y-106183641D01*
X142260488Y-106185057D01*
X142361437Y-106195000D01*
X142361444Y-106195000D01*
X142399997Y-106198797D01*
X142438550Y-106195000D01*
X145804526Y-106195000D01*
X145912525Y-106356632D01*
X146044380Y-106488487D01*
X145971820Y-106510498D01*
X145861506Y-106569463D01*
X145764815Y-106648815D01*
X145685463Y-106745506D01*
X145626498Y-106855820D01*
X145590188Y-106975518D01*
X145577928Y-107100000D01*
X145581000Y-107664250D01*
X145739750Y-107823000D01*
X146939000Y-107823000D01*
X146939000Y-107803000D01*
X147193000Y-107803000D01*
X147193000Y-107823000D01*
X148392250Y-107823000D01*
X148551000Y-107664250D01*
X148554072Y-107100000D01*
X148541812Y-106975518D01*
X148505502Y-106855820D01*
X148446537Y-106745506D01*
X148367185Y-106648815D01*
X148270494Y-106569463D01*
X148160180Y-106510498D01*
X148087620Y-106488487D01*
X148219475Y-106356632D01*
X148381990Y-106113411D01*
X148493932Y-105843158D01*
X148551000Y-105556260D01*
X148551000Y-105263740D01*
X148493932Y-104976842D01*
X148381990Y-104706589D01*
X148219475Y-104463368D01*
X148012632Y-104256525D01*
X147838240Y-104140000D01*
X148012632Y-104023475D01*
X148219475Y-103816632D01*
X148381990Y-103573411D01*
X148493932Y-103303158D01*
X148551000Y-103016260D01*
X148551000Y-102723740D01*
X148493932Y-102436842D01*
X148381990Y-102166589D01*
X148219475Y-101923368D01*
X148012632Y-101716525D01*
X147838240Y-101600000D01*
X148012632Y-101483475D01*
X148219475Y-101276632D01*
X148381990Y-101033411D01*
X148493932Y-100763158D01*
X148551000Y-100476260D01*
X148551000Y-100183740D01*
X148493932Y-99896842D01*
X148381990Y-99626589D01*
X148219475Y-99383368D01*
X148012632Y-99176525D01*
X147838240Y-99060000D01*
X148012632Y-98943475D01*
X148219475Y-98736632D01*
X148381990Y-98493411D01*
X148493932Y-98223158D01*
X148551000Y-97936260D01*
X148551000Y-97643740D01*
X148513075Y-97453082D01*
X150756817Y-95209341D01*
X150786765Y-95184763D01*
X150884863Y-95065232D01*
X150957755Y-94928859D01*
X151002643Y-94780886D01*
X151010021Y-94705973D01*
X151014001Y-94665560D01*
X151014001Y-94665555D01*
X151017798Y-94626999D01*
X151014001Y-94588443D01*
X151014001Y-84260551D01*
X151017798Y-84221998D01*
X151014001Y-84183445D01*
X151014001Y-84183438D01*
X151002642Y-84068112D01*
X150998127Y-84053226D01*
X150957755Y-83920139D01*
X150884863Y-83783766D01*
X150830704Y-83717774D01*
X150811346Y-83694186D01*
X150811343Y-83694183D01*
X150786765Y-83664235D01*
X150756818Y-83639658D01*
X149647349Y-82530190D01*
X149622766Y-82500236D01*
X149503235Y-82402138D01*
X149366862Y-82329246D01*
X149218889Y-82284359D01*
X149103563Y-82273000D01*
X149103555Y-82273000D01*
X149065002Y-82269203D01*
X149026449Y-82273000D01*
X148887711Y-82273000D01*
X148868774Y-82254063D01*
X148699256Y-82140795D01*
X148510898Y-82062774D01*
X148310939Y-82023000D01*
X148107061Y-82023000D01*
X147907102Y-82062774D01*
X147718744Y-82140795D01*
X147549226Y-82254063D01*
X147405063Y-82398226D01*
X147291795Y-82567744D01*
X147213774Y-82756102D01*
X147174000Y-82956061D01*
X147174000Y-83159939D01*
X147213774Y-83359898D01*
X147291795Y-83548256D01*
X147405063Y-83717774D01*
X147549226Y-83861937D01*
X147718744Y-83975205D01*
X147907102Y-84053226D01*
X148107061Y-84093000D01*
X148310939Y-84093000D01*
X148510898Y-84053226D01*
X148616859Y-84009335D01*
X148561795Y-84091744D01*
X148483774Y-84280102D01*
X148444000Y-84480061D01*
X148444000Y-84683939D01*
X148483774Y-84883898D01*
X148561795Y-85072256D01*
X148675063Y-85241774D01*
X148694000Y-85260711D01*
X148694001Y-92511841D01*
X148551000Y-92654842D01*
X148551000Y-92563740D01*
X148493932Y-92276842D01*
X148381990Y-92006589D01*
X148219475Y-91763368D01*
X148012632Y-91556525D01*
X147838240Y-91440000D01*
X148012632Y-91323475D01*
X148219475Y-91116632D01*
X148381990Y-90873411D01*
X148493932Y-90603158D01*
X148551000Y-90316260D01*
X148551000Y-90023740D01*
X148493932Y-89736842D01*
X148381990Y-89466589D01*
X148219475Y-89223368D01*
X148012632Y-89016525D01*
X147769411Y-88854010D01*
X147499158Y-88742068D01*
X147212260Y-88685000D01*
X146919740Y-88685000D01*
X146632842Y-88742068D01*
X146362589Y-88854010D01*
X146119368Y-89016525D01*
X145912525Y-89223368D01*
X145750010Y-89466589D01*
X145638068Y-89736842D01*
X145581000Y-90023740D01*
X145581000Y-90316260D01*
X145638068Y-90603158D01*
X145750010Y-90873411D01*
X145912525Y-91116632D01*
X146119368Y-91323475D01*
X146293760Y-91440000D01*
X146119368Y-91556525D01*
X145912525Y-91763368D01*
X145750010Y-92006589D01*
X145638068Y-92276842D01*
X145581000Y-92563740D01*
X145581000Y-92856260D01*
X145638068Y-93143158D01*
X145750010Y-93413411D01*
X145912525Y-93656632D01*
X146119368Y-93863475D01*
X146293760Y-93980000D01*
X146119368Y-94096525D01*
X145912525Y-94303368D01*
X145750010Y-94546589D01*
X145638068Y-94816842D01*
X145581000Y-95103740D01*
X145581000Y-95396260D01*
X145638068Y-95683158D01*
X145750010Y-95953411D01*
X145912525Y-96196632D01*
X146119368Y-96403475D01*
X146293760Y-96520000D01*
X146119368Y-96636525D01*
X145912525Y-96843368D01*
X145750010Y-97086589D01*
X145638068Y-97356842D01*
X145581000Y-97643740D01*
X145581000Y-97936260D01*
X145638068Y-98223158D01*
X145750010Y-98493411D01*
X145912525Y-98736632D01*
X146119368Y-98943475D01*
X146293760Y-99060000D01*
X146119368Y-99176525D01*
X145912525Y-99383368D01*
X145750010Y-99626589D01*
X145638068Y-99896842D01*
X145581000Y-100183740D01*
X145581000Y-100476260D01*
X145638068Y-100763158D01*
X145750010Y-101033411D01*
X145912525Y-101276632D01*
X146119368Y-101483475D01*
X146293760Y-101600000D01*
X146119368Y-101716525D01*
X145912525Y-101923368D01*
X145750010Y-102166589D01*
X145638068Y-102436842D01*
X145581000Y-102723740D01*
X145581000Y-103016260D01*
X145638068Y-103303158D01*
X145750010Y-103573411D01*
X145912525Y-103816632D01*
X146119368Y-104023475D01*
X146293760Y-104140000D01*
X146119368Y-104256525D01*
X145912525Y-104463368D01*
X145804526Y-104625000D01*
X142725156Y-104625000D01*
X140104000Y-102003845D01*
X140104000Y-82321061D01*
X140951000Y-82321061D01*
X140951000Y-82524939D01*
X140990774Y-82724898D01*
X141068795Y-82913256D01*
X141182063Y-83082774D01*
X141326226Y-83226937D01*
X141495744Y-83340205D01*
X141684102Y-83418226D01*
X141884061Y-83458000D01*
X142087939Y-83458000D01*
X142287898Y-83418226D01*
X142476256Y-83340205D01*
X142645774Y-83226937D01*
X142663417Y-83209294D01*
X142676555Y-83208000D01*
X142676563Y-83208000D01*
X142791889Y-83196641D01*
X142939862Y-83151754D01*
X143076235Y-83078862D01*
X143195766Y-82980764D01*
X143220349Y-82950810D01*
X148032287Y-78138872D01*
X152578000Y-78138872D01*
X152578000Y-78579128D01*
X152663890Y-79010925D01*
X152832369Y-79417669D01*
X153076962Y-79783729D01*
X153388271Y-80095038D01*
X153754331Y-80339631D01*
X154161075Y-80508110D01*
X154592872Y-80594000D01*
X155033128Y-80594000D01*
X155464925Y-80508110D01*
X155871669Y-80339631D01*
X156237729Y-80095038D01*
X156549038Y-79783729D01*
X156793631Y-79417669D01*
X156962110Y-79010925D01*
X157048000Y-78579128D01*
X157048000Y-78138872D01*
X156962110Y-77707075D01*
X156793631Y-77300331D01*
X156549038Y-76934271D01*
X156237729Y-76622962D01*
X155871669Y-76378369D01*
X155464925Y-76209890D01*
X155033128Y-76124000D01*
X154592872Y-76124000D01*
X154161075Y-76209890D01*
X153754331Y-76378369D01*
X153388271Y-76622962D01*
X153076962Y-76934271D01*
X152832369Y-77300331D01*
X152663890Y-77707075D01*
X152578000Y-78138872D01*
X148032287Y-78138872D01*
X153816810Y-72354349D01*
X153846764Y-72329766D01*
X153944862Y-72210235D01*
X154017754Y-72073862D01*
X154026297Y-72045701D01*
X154062642Y-71925889D01*
X154070020Y-71850976D01*
X154074000Y-71810563D01*
X154074000Y-71810558D01*
X154077797Y-71772002D01*
X154074000Y-71733446D01*
X154074000Y-70195072D01*
X154139000Y-70195072D01*
X154263482Y-70182812D01*
X154383180Y-70146502D01*
X154493494Y-70087537D01*
X154590185Y-70008185D01*
X154669537Y-69911494D01*
X154728502Y-69801180D01*
X154764812Y-69681482D01*
X154777072Y-69557000D01*
X154777072Y-67857000D01*
X154764812Y-67732518D01*
X154728502Y-67612820D01*
X154669537Y-67502506D01*
X154590185Y-67405815D01*
X154493494Y-67326463D01*
X154383180Y-67267498D01*
X154310620Y-67245487D01*
X154442475Y-67113632D01*
X154604990Y-66870411D01*
X154716932Y-66600158D01*
X154774000Y-66313260D01*
X154774000Y-66020740D01*
X154716932Y-65733842D01*
X154604990Y-65463589D01*
X154442475Y-65220368D01*
X154235632Y-65013525D01*
X154053466Y-64891805D01*
X154170355Y-64822178D01*
X154386588Y-64627269D01*
X154560641Y-64393920D01*
X154685825Y-64131099D01*
X154730476Y-63983890D01*
X154609155Y-63754000D01*
X153416000Y-63754000D01*
X153416000Y-63774000D01*
X153162000Y-63774000D01*
X153162000Y-63754000D01*
X150876000Y-63754000D01*
X150876000Y-63774000D01*
X150622000Y-63774000D01*
X150622000Y-63754000D01*
X149428845Y-63754000D01*
X149307524Y-63983890D01*
X149352175Y-64131099D01*
X149477359Y-64393920D01*
X149651412Y-64627269D01*
X149867645Y-64822178D01*
X149984534Y-64891805D01*
X149802368Y-65013525D01*
X149595525Y-65220368D01*
X149433010Y-65463589D01*
X149321068Y-65733842D01*
X149264000Y-66020740D01*
X149264000Y-66313260D01*
X149321068Y-66600158D01*
X149433010Y-66870411D01*
X149595525Y-67113632D01*
X149727380Y-67245487D01*
X149654820Y-67267498D01*
X149544506Y-67326463D01*
X149447815Y-67405815D01*
X149368463Y-67502506D01*
X149309498Y-67612820D01*
X149273188Y-67732518D01*
X149260928Y-67857000D01*
X149260928Y-69557000D01*
X149273188Y-69681482D01*
X149309498Y-69801180D01*
X149368463Y-69911494D01*
X149447815Y-70008185D01*
X149544506Y-70087537D01*
X149654820Y-70146502D01*
X149774518Y-70182812D01*
X149899000Y-70195072D01*
X151599000Y-70195072D01*
X151723482Y-70182812D01*
X151843180Y-70146502D01*
X151953494Y-70087537D01*
X152019000Y-70033778D01*
X152084506Y-70087537D01*
X152194820Y-70146502D01*
X152314518Y-70182812D01*
X152439000Y-70195072D01*
X152504000Y-70195072D01*
X152504001Y-71446844D01*
X148096072Y-75854773D01*
X148096072Y-75173000D01*
X148083812Y-75048518D01*
X148047502Y-74928820D01*
X147988537Y-74818506D01*
X147909185Y-74721815D01*
X147812494Y-74642463D01*
X147702180Y-74583498D01*
X147683873Y-74577944D01*
X147750312Y-74511505D01*
X147918299Y-74260095D01*
X148034011Y-73980743D01*
X148093000Y-73684184D01*
X148093000Y-73381816D01*
X148034011Y-73085257D01*
X147918299Y-72805905D01*
X147750312Y-72554495D01*
X147536505Y-72340688D01*
X147285095Y-72172701D01*
X147005743Y-72056989D01*
X146709184Y-71998000D01*
X146406816Y-71998000D01*
X146110257Y-72056989D01*
X145830905Y-72172701D01*
X145579495Y-72340688D01*
X145365688Y-72554495D01*
X145197701Y-72805905D01*
X145081989Y-73085257D01*
X145023000Y-73381816D01*
X145023000Y-73684184D01*
X145081989Y-73980743D01*
X145197701Y-74260095D01*
X145365688Y-74511505D01*
X145432127Y-74577944D01*
X145413820Y-74583498D01*
X145303506Y-74642463D01*
X145206815Y-74721815D01*
X145127463Y-74818506D01*
X145068498Y-74928820D01*
X145032188Y-75048518D01*
X145019928Y-75173000D01*
X145019928Y-76973000D01*
X145032188Y-77097482D01*
X145068498Y-77217180D01*
X145127463Y-77327494D01*
X145206815Y-77424185D01*
X145303506Y-77503537D01*
X145413820Y-77562502D01*
X145533518Y-77598812D01*
X145658000Y-77611072D01*
X146339773Y-77611072D01*
X142454190Y-81496655D01*
X142287898Y-81427774D01*
X142087939Y-81388000D01*
X141884061Y-81388000D01*
X141684102Y-81427774D01*
X141495744Y-81505795D01*
X141326226Y-81619063D01*
X141182063Y-81763226D01*
X141068795Y-81932744D01*
X140990774Y-82121102D01*
X140951000Y-82321061D01*
X140104000Y-82321061D01*
X140104000Y-82133072D01*
X140169000Y-82133072D01*
X140293482Y-82120812D01*
X140413180Y-82084502D01*
X140523494Y-82025537D01*
X140620185Y-81946185D01*
X140699537Y-81849494D01*
X140758502Y-81739180D01*
X140794812Y-81619482D01*
X140807072Y-81495000D01*
X140807072Y-79795000D01*
X140794812Y-79670518D01*
X140758502Y-79550820D01*
X140699537Y-79440506D01*
X140620185Y-79343815D01*
X140523494Y-79264463D01*
X140413180Y-79205498D01*
X140293482Y-79169188D01*
X140169000Y-79156928D01*
X139377229Y-79156928D01*
X140914157Y-77620000D01*
X142831289Y-77620000D01*
X142850226Y-77638937D01*
X143019744Y-77752205D01*
X143208102Y-77830226D01*
X143408061Y-77870000D01*
X143611939Y-77870000D01*
X143811898Y-77830226D01*
X144000256Y-77752205D01*
X144169774Y-77638937D01*
X144313937Y-77494774D01*
X144427205Y-77325256D01*
X144505226Y-77136898D01*
X144545000Y-76936939D01*
X144545000Y-76733061D01*
X144505226Y-76533102D01*
X144427205Y-76344744D01*
X144313937Y-76175226D01*
X144169774Y-76031063D01*
X144000256Y-75917795D01*
X143811898Y-75839774D01*
X143611939Y-75800000D01*
X143408061Y-75800000D01*
X143208102Y-75839774D01*
X143019744Y-75917795D01*
X142850226Y-76031063D01*
X142831289Y-76050000D01*
X140627556Y-76050000D01*
X140589000Y-76046203D01*
X140550444Y-76050000D01*
X140550439Y-76050000D01*
X140510026Y-76053980D01*
X140435113Y-76061358D01*
X140287140Y-76106246D01*
X140150767Y-76179138D01*
X140031236Y-76277236D01*
X140006653Y-76307190D01*
X137115918Y-79197925D01*
X136925260Y-79160000D01*
X136632740Y-79160000D01*
X136363999Y-79213456D01*
X136363999Y-77996160D01*
X140604817Y-73755343D01*
X140634764Y-73730766D01*
X140672994Y-73684184D01*
X140683450Y-73671443D01*
X140732862Y-73611235D01*
X140805754Y-73474862D01*
X140850641Y-73326889D01*
X140862000Y-73211563D01*
X140862000Y-73211556D01*
X140865797Y-73173003D01*
X140862000Y-73134450D01*
X140862000Y-68197204D01*
X140959886Y-68131799D01*
X141152799Y-67938886D01*
X141304371Y-67712043D01*
X141408775Y-67459989D01*
X141462000Y-67192411D01*
X141462000Y-66919589D01*
X141408775Y-66652011D01*
X141304371Y-66399957D01*
X141152799Y-66173114D01*
X140959886Y-65980201D01*
X140823308Y-65888942D01*
X140970000Y-65742250D01*
X140970000Y-64643000D01*
X141224000Y-64643000D01*
X141224000Y-65742250D01*
X141382750Y-65901000D01*
X141847000Y-65904072D01*
X141971482Y-65891812D01*
X142091180Y-65855502D01*
X142201494Y-65796537D01*
X142298185Y-65717185D01*
X142377537Y-65620494D01*
X142436502Y-65510180D01*
X142472812Y-65390482D01*
X142485072Y-65266000D01*
X142482000Y-64801750D01*
X142323250Y-64643000D01*
X141224000Y-64643000D01*
X140970000Y-64643000D01*
X140950000Y-64643000D01*
X140950000Y-64389000D01*
X140970000Y-64389000D01*
X140970000Y-63289750D01*
X141224000Y-63289750D01*
X141224000Y-64389000D01*
X142323250Y-64389000D01*
X142482000Y-64230250D01*
X142485072Y-63766000D01*
X142472812Y-63641518D01*
X142436502Y-63521820D01*
X142377537Y-63411506D01*
X142298185Y-63314815D01*
X142201494Y-63235463D01*
X142091180Y-63176498D01*
X141971482Y-63140188D01*
X141847000Y-63127928D01*
X141382750Y-63131000D01*
X141224000Y-63289750D01*
X140970000Y-63289750D01*
X140811250Y-63131000D01*
X140347000Y-63127928D01*
X140222518Y-63140188D01*
X140102820Y-63176498D01*
X139992506Y-63235463D01*
X139895815Y-63314815D01*
X139844965Y-63376776D01*
X139713043Y-63288629D01*
X139460989Y-63184225D01*
X139193411Y-63131000D01*
X138920589Y-63131000D01*
X138653011Y-63184225D01*
X138400957Y-63288629D01*
X138174114Y-63440201D01*
X137981201Y-63633114D01*
X137829629Y-63859957D01*
X137725225Y-64112011D01*
X137672000Y-64379589D01*
X137672000Y-64652411D01*
X137725225Y-64919989D01*
X137829629Y-65172043D01*
X137981201Y-65398886D01*
X138174114Y-65591799D01*
X138343188Y-65704771D01*
X138173411Y-65671000D01*
X137900589Y-65671000D01*
X137633011Y-65724225D01*
X137380957Y-65828629D01*
X137154114Y-65980201D01*
X136961201Y-66173114D01*
X136809629Y-66399957D01*
X136705225Y-66652011D01*
X136652000Y-66919589D01*
X136652000Y-67192411D01*
X136705225Y-67459989D01*
X136809629Y-67712043D01*
X136961201Y-67938886D01*
X137154114Y-68131799D01*
X137380957Y-68283371D01*
X137633011Y-68387775D01*
X137900589Y-68441000D01*
X138173411Y-68441000D01*
X138440989Y-68387775D01*
X138693043Y-68283371D01*
X138919886Y-68131799D01*
X139057000Y-67994685D01*
X139194114Y-68131799D01*
X139292001Y-68197205D01*
X139292000Y-72847844D01*
X136412072Y-75727773D01*
X136412072Y-75046000D01*
X136399812Y-74921518D01*
X136363502Y-74801820D01*
X136304537Y-74691506D01*
X136225185Y-74594815D01*
X136128494Y-74515463D01*
X136018180Y-74456498D01*
X135999873Y-74450944D01*
X136066312Y-74384505D01*
X136234299Y-74133095D01*
X136350011Y-73853743D01*
X136409000Y-73557184D01*
X136409000Y-73254816D01*
X136350011Y-72958257D01*
X136234299Y-72678905D01*
X136066312Y-72427495D01*
X135852505Y-72213688D01*
X135601095Y-72045701D01*
X135321743Y-71929989D01*
X135025184Y-71871000D01*
X134722816Y-71871000D01*
X134426257Y-71929989D01*
X134146905Y-72045701D01*
X133895495Y-72213688D01*
X133681688Y-72427495D01*
X133513701Y-72678905D01*
X133397989Y-72958257D01*
X133348121Y-73208964D01*
X124238551Y-64099394D01*
X124401000Y-64115394D01*
X124741118Y-64081895D01*
X125068167Y-63982686D01*
X125369577Y-63821579D01*
X125633766Y-63604766D01*
X125850579Y-63340578D01*
X126011686Y-63039168D01*
X126110895Y-62712119D01*
X126136000Y-62457225D01*
X126136000Y-62040193D01*
X131782000Y-62040193D01*
X131782000Y-62391807D01*
X131850596Y-62736665D01*
X131985153Y-63061515D01*
X132180500Y-63353871D01*
X132429129Y-63602500D01*
X132721485Y-63797847D01*
X133046335Y-63932404D01*
X133391193Y-64001000D01*
X133742807Y-64001000D01*
X134087665Y-63932404D01*
X134412515Y-63797847D01*
X134704871Y-63602500D01*
X134953500Y-63353871D01*
X135148847Y-63061515D01*
X135283404Y-62736665D01*
X135352000Y-62391807D01*
X135352000Y-62040193D01*
X143782000Y-62040193D01*
X143782000Y-62391807D01*
X143850596Y-62736665D01*
X143985153Y-63061515D01*
X144180500Y-63353871D01*
X144429129Y-63602500D01*
X144721485Y-63797847D01*
X145046335Y-63932404D01*
X145391193Y-64001000D01*
X145742807Y-64001000D01*
X146087665Y-63932404D01*
X146412515Y-63797847D01*
X146704871Y-63602500D01*
X146953500Y-63353871D01*
X147009467Y-63270110D01*
X149307524Y-63270110D01*
X149428845Y-63500000D01*
X150622000Y-63500000D01*
X150622000Y-62306186D01*
X150876000Y-62306186D01*
X150876000Y-63500000D01*
X153162000Y-63500000D01*
X153162000Y-62306186D01*
X153416000Y-62306186D01*
X153416000Y-63500000D01*
X154609155Y-63500000D01*
X154730476Y-63270110D01*
X154685825Y-63122901D01*
X154560641Y-62860080D01*
X154386588Y-62626731D01*
X154170355Y-62431822D01*
X153920252Y-62282843D01*
X153645891Y-62185519D01*
X153416000Y-62306186D01*
X153162000Y-62306186D01*
X152932109Y-62185519D01*
X152657748Y-62282843D01*
X152407645Y-62431822D01*
X152191412Y-62626731D01*
X152019000Y-62857880D01*
X151846588Y-62626731D01*
X151630355Y-62431822D01*
X151380252Y-62282843D01*
X151105891Y-62185519D01*
X150876000Y-62306186D01*
X150622000Y-62306186D01*
X150392109Y-62185519D01*
X150117748Y-62282843D01*
X149867645Y-62431822D01*
X149651412Y-62626731D01*
X149477359Y-62860080D01*
X149352175Y-63122901D01*
X149307524Y-63270110D01*
X147009467Y-63270110D01*
X147148847Y-63061515D01*
X147283404Y-62736665D01*
X147352000Y-62391807D01*
X147352000Y-62040193D01*
X147283404Y-61695335D01*
X147148847Y-61370485D01*
X146953500Y-61078129D01*
X146704871Y-60829500D01*
X146412515Y-60634153D01*
X146087665Y-60499596D01*
X145742807Y-60431000D01*
X145391193Y-60431000D01*
X145046335Y-60499596D01*
X144721485Y-60634153D01*
X144429129Y-60829500D01*
X144180500Y-61078129D01*
X143985153Y-61370485D01*
X143850596Y-61695335D01*
X143782000Y-62040193D01*
X135352000Y-62040193D01*
X135283404Y-61695335D01*
X135148847Y-61370485D01*
X134953500Y-61078129D01*
X134704871Y-60829500D01*
X134412515Y-60634153D01*
X134087665Y-60499596D01*
X133742807Y-60431000D01*
X133391193Y-60431000D01*
X133046335Y-60499596D01*
X132721485Y-60634153D01*
X132429129Y-60829500D01*
X132180500Y-61078129D01*
X131985153Y-61370485D01*
X131850596Y-61695335D01*
X131782000Y-62040193D01*
X126136000Y-62040193D01*
X126136000Y-60986775D01*
X126110895Y-60731881D01*
X126011686Y-60404832D01*
X125982378Y-60350000D01*
X154780715Y-60350000D01*
X155325552Y-60403422D01*
%TA.AperFunction,Conductor*%
D22*
G36*
X155325552Y-60403422D02*
G01*
X155818585Y-60552278D01*
X156273309Y-60794059D01*
X156672410Y-61119558D01*
X157000694Y-61516385D01*
X157245644Y-61969410D01*
X157397938Y-62461392D01*
X157455000Y-63004295D01*
X157455001Y-65118581D01*
X157454999Y-119855721D01*
X157401578Y-120400552D01*
X157252722Y-120893584D01*
X157010941Y-121348308D01*
X156685442Y-121747409D01*
X156288615Y-122075693D01*
X155835590Y-122320643D01*
X155343608Y-122472937D01*
X154800704Y-122529999D01*
X115856279Y-122529999D01*
X115311448Y-122476578D01*
X114818416Y-122327722D01*
X114363692Y-122085941D01*
X113964591Y-121760442D01*
X113636307Y-121363615D01*
X113391357Y-120910590D01*
X113239063Y-120418608D01*
X113182001Y-119875704D01*
X113182001Y-119667872D01*
X113589000Y-119667872D01*
X113589000Y-120108128D01*
X113674890Y-120539925D01*
X113843369Y-120946669D01*
X114087962Y-121312729D01*
X114399271Y-121624038D01*
X114765331Y-121868631D01*
X115172075Y-122037110D01*
X115603872Y-122123000D01*
X116044128Y-122123000D01*
X116475925Y-122037110D01*
X116882669Y-121868631D01*
X117248729Y-121624038D01*
X117560038Y-121312729D01*
X117804631Y-120946669D01*
X117973110Y-120539925D01*
X118059000Y-120108128D01*
X118059000Y-119667872D01*
X152578000Y-119667872D01*
X152578000Y-120108128D01*
X152663890Y-120539925D01*
X152832369Y-120946669D01*
X153076962Y-121312729D01*
X153388271Y-121624038D01*
X153754331Y-121868631D01*
X154161075Y-122037110D01*
X154592872Y-122123000D01*
X155033128Y-122123000D01*
X155464925Y-122037110D01*
X155871669Y-121868631D01*
X156237729Y-121624038D01*
X156549038Y-121312729D01*
X156793631Y-120946669D01*
X156962110Y-120539925D01*
X157048000Y-120108128D01*
X157048000Y-119667872D01*
X156962110Y-119236075D01*
X156793631Y-118829331D01*
X156549038Y-118463271D01*
X156237729Y-118151962D01*
X155871669Y-117907369D01*
X155464925Y-117738890D01*
X155033128Y-117653000D01*
X154592872Y-117653000D01*
X154161075Y-117738890D01*
X153754331Y-117907369D01*
X153388271Y-118151962D01*
X153076962Y-118463271D01*
X152832369Y-118829331D01*
X152663890Y-119236075D01*
X152578000Y-119667872D01*
X118059000Y-119667872D01*
X117973110Y-119236075D01*
X117804631Y-118829331D01*
X117560038Y-118463271D01*
X117248729Y-118151962D01*
X116882669Y-117907369D01*
X116475925Y-117738890D01*
X116044128Y-117653000D01*
X115603872Y-117653000D01*
X115172075Y-117738890D01*
X114765331Y-117907369D01*
X114399271Y-118151962D01*
X114087962Y-118463271D01*
X113843369Y-118829331D01*
X113674890Y-119236075D01*
X113589000Y-119667872D01*
X113182001Y-119667872D01*
X113182001Y-116733212D01*
X123157000Y-116733212D01*
X123157000Y-116956788D01*
X123200617Y-117176067D01*
X123286176Y-117382624D01*
X123410388Y-117568520D01*
X123568480Y-117726612D01*
X123754376Y-117850824D01*
X123960933Y-117936383D01*
X124180212Y-117980000D01*
X124403788Y-117980000D01*
X124623067Y-117936383D01*
X124829624Y-117850824D01*
X125015520Y-117726612D01*
X125173612Y-117568520D01*
X125297824Y-117382624D01*
X125383383Y-117176067D01*
X125427000Y-116956788D01*
X125427000Y-116733212D01*
X127557000Y-116733212D01*
X127557000Y-116956788D01*
X127600617Y-117176067D01*
X127686176Y-117382624D01*
X127810388Y-117568520D01*
X127968480Y-117726612D01*
X128154376Y-117850824D01*
X128360933Y-117936383D01*
X128580212Y-117980000D01*
X128803788Y-117980000D01*
X129023067Y-117936383D01*
X129229624Y-117850824D01*
X129415520Y-117726612D01*
X129573612Y-117568520D01*
X129697824Y-117382624D01*
X129783383Y-117176067D01*
X129827000Y-116956788D01*
X129827000Y-116733212D01*
X129783383Y-116513933D01*
X129697824Y-116307376D01*
X129573612Y-116121480D01*
X129555193Y-116103061D01*
X136760000Y-116103061D01*
X136760000Y-116306939D01*
X136799774Y-116506898D01*
X136877795Y-116695256D01*
X136991063Y-116864774D01*
X137135226Y-117008937D01*
X137304744Y-117122205D01*
X137493102Y-117200226D01*
X137693061Y-117240000D01*
X137896939Y-117240000D01*
X138096898Y-117200226D01*
X138285256Y-117122205D01*
X138454774Y-117008937D01*
X138598937Y-116864774D01*
X138712205Y-116695256D01*
X138790226Y-116506898D01*
X138795178Y-116482000D01*
X139935410Y-116482000D01*
X139935000Y-116484061D01*
X139935000Y-116687939D01*
X139974774Y-116887898D01*
X140052795Y-117076256D01*
X140166063Y-117245774D01*
X140310226Y-117389937D01*
X140479744Y-117503205D01*
X140668102Y-117581226D01*
X140868061Y-117621000D01*
X141071939Y-117621000D01*
X141271898Y-117581226D01*
X141460256Y-117503205D01*
X141629774Y-117389937D01*
X141648711Y-117371000D01*
X146265447Y-117371000D01*
X146304000Y-117374797D01*
X146342553Y-117371000D01*
X146342561Y-117371000D01*
X146457887Y-117359641D01*
X146605860Y-117314754D01*
X146742233Y-117241862D01*
X146861764Y-117143764D01*
X146886347Y-117113810D01*
X153308816Y-110691342D01*
X153338764Y-110666764D01*
X153363346Y-110636812D01*
X153426575Y-110559767D01*
X153436862Y-110547233D01*
X153509754Y-110410860D01*
X153554641Y-110262887D01*
X153566000Y-110147561D01*
X153566000Y-110147554D01*
X153569797Y-110109001D01*
X153566000Y-110070448D01*
X153566000Y-90848711D01*
X153584937Y-90829774D01*
X153698205Y-90660256D01*
X153776226Y-90471898D01*
X153816000Y-90271939D01*
X153816000Y-90068061D01*
X153776226Y-89868102D01*
X153698205Y-89679744D01*
X153584937Y-89510226D01*
X153440774Y-89366063D01*
X153271256Y-89252795D01*
X153082898Y-89174774D01*
X152882939Y-89135000D01*
X152679061Y-89135000D01*
X152479102Y-89174774D01*
X152290744Y-89252795D01*
X152121226Y-89366063D01*
X151977063Y-89510226D01*
X151863795Y-89679744D01*
X151785774Y-89868102D01*
X151746000Y-90068061D01*
X151746000Y-90271939D01*
X151785774Y-90471898D01*
X151863795Y-90660256D01*
X151977063Y-90829774D01*
X151996000Y-90848711D01*
X151996000Y-97604111D01*
X151933937Y-97511226D01*
X151789774Y-97367063D01*
X151620256Y-97253795D01*
X151431898Y-97175774D01*
X151231939Y-97136000D01*
X151028061Y-97136000D01*
X150828102Y-97175774D01*
X150639744Y-97253795D01*
X150470226Y-97367063D01*
X150326063Y-97511226D01*
X150212795Y-97680744D01*
X150134774Y-97869102D01*
X150095000Y-98069061D01*
X150095000Y-98272939D01*
X150134774Y-98472898D01*
X150212795Y-98661256D01*
X150326063Y-98830774D01*
X150345001Y-98849712D01*
X150345000Y-110291842D01*
X145724843Y-114912000D01*
X138341552Y-114912000D01*
X138302999Y-114908203D01*
X138264446Y-114912000D01*
X138264439Y-114912000D01*
X138163490Y-114921943D01*
X138149112Y-114923359D01*
X138114672Y-114933806D01*
X138001140Y-114968246D01*
X137864767Y-115041138D01*
X137745236Y-115139236D01*
X137720655Y-115169188D01*
X137719843Y-115170000D01*
X137693061Y-115170000D01*
X137493102Y-115209774D01*
X137304744Y-115287795D01*
X137135226Y-115401063D01*
X136991063Y-115545226D01*
X136877795Y-115714744D01*
X136799774Y-115903102D01*
X136760000Y-116103061D01*
X129555193Y-116103061D01*
X129415520Y-115963388D01*
X129229624Y-115839176D01*
X129023067Y-115753617D01*
X128803788Y-115710000D01*
X128580212Y-115710000D01*
X128360933Y-115753617D01*
X128154376Y-115839176D01*
X127968480Y-115963388D01*
X127810388Y-116121480D01*
X127686176Y-116307376D01*
X127600617Y-116513933D01*
X127557000Y-116733212D01*
X125427000Y-116733212D01*
X125383383Y-116513933D01*
X125297824Y-116307376D01*
X125173612Y-116121480D01*
X125015520Y-115963388D01*
X124829624Y-115839176D01*
X124623067Y-115753617D01*
X124403788Y-115710000D01*
X124180212Y-115710000D01*
X123960933Y-115753617D01*
X123754376Y-115839176D01*
X123568480Y-115963388D01*
X123410388Y-116121480D01*
X123286176Y-116307376D01*
X123200617Y-116513933D01*
X123157000Y-116733212D01*
X113182001Y-116733212D01*
X113182001Y-81001891D01*
X130257519Y-81001891D01*
X130354843Y-81276252D01*
X130503822Y-81526355D01*
X130698731Y-81742588D01*
X130932080Y-81916641D01*
X131194901Y-82041825D01*
X131342110Y-82086476D01*
X131572000Y-81965155D01*
X131572000Y-80772000D01*
X130378186Y-80772000D01*
X130257519Y-81001891D01*
X113182001Y-81001891D01*
X113182000Y-78138872D01*
X113589000Y-78138872D01*
X113589000Y-78579128D01*
X113674890Y-79010925D01*
X113843369Y-79417669D01*
X114087962Y-79783729D01*
X114399271Y-80095038D01*
X114765331Y-80339631D01*
X115172075Y-80508110D01*
X115603872Y-80594000D01*
X116044128Y-80594000D01*
X116475925Y-80508110D01*
X116882669Y-80339631D01*
X116959777Y-80288109D01*
X130257519Y-80288109D01*
X130378186Y-80518000D01*
X131572000Y-80518000D01*
X131572000Y-79324845D01*
X131342110Y-79203524D01*
X131194901Y-79248175D01*
X130932080Y-79373359D01*
X130698731Y-79547412D01*
X130503822Y-79763645D01*
X130354843Y-80013748D01*
X130257519Y-80288109D01*
X116959777Y-80288109D01*
X117248729Y-80095038D01*
X117560038Y-79783729D01*
X117804631Y-79417669D01*
X117973110Y-79010925D01*
X118059000Y-78579128D01*
X118059000Y-78138872D01*
X117973110Y-77707075D01*
X117804631Y-77300331D01*
X117560038Y-76934271D01*
X117248729Y-76622962D01*
X116882669Y-76378369D01*
X116475925Y-76209890D01*
X116044128Y-76124000D01*
X115603872Y-76124000D01*
X115172075Y-76209890D01*
X114765331Y-76378369D01*
X114399271Y-76622962D01*
X114087962Y-76934271D01*
X113843369Y-77300331D01*
X113674890Y-77707075D01*
X113589000Y-78138872D01*
X113182000Y-78138872D01*
X113181999Y-63024289D01*
X113235421Y-62479449D01*
X113384277Y-61986416D01*
X113626058Y-61531692D01*
X113951557Y-61132591D01*
X114348384Y-60804307D01*
X114492826Y-60726207D01*
X114491105Y-60731881D01*
X114466000Y-60986775D01*
X114466000Y-62457224D01*
X114491105Y-62712118D01*
X114590314Y-63039167D01*
X114751421Y-63340577D01*
X114968234Y-63604766D01*
X115232422Y-63821579D01*
X115533832Y-63982686D01*
X115860881Y-64081895D01*
X116201000Y-64115394D01*
X116541118Y-64081895D01*
X116868167Y-63982686D01*
X117169577Y-63821579D01*
X117433766Y-63604766D01*
X117533303Y-63483480D01*
X117572246Y-63611859D01*
X117645138Y-63748232D01*
X117743236Y-63867764D01*
X117773190Y-63892347D01*
X130791000Y-76910158D01*
X130791000Y-76936939D01*
X130830774Y-77136898D01*
X130908795Y-77325256D01*
X131022063Y-77494774D01*
X131166226Y-77638937D01*
X131335744Y-77752205D01*
X131524102Y-77830226D01*
X131724061Y-77870000D01*
X131927939Y-77870000D01*
X132114002Y-77832990D01*
X132114002Y-79221150D01*
X132055890Y-79203524D01*
X131826000Y-79324845D01*
X131826000Y-80518000D01*
X131846000Y-80518000D01*
X131846000Y-80772000D01*
X131826000Y-80772000D01*
X131826000Y-81965155D01*
X132055890Y-82086476D01*
X132114001Y-82068850D01*
X132114001Y-86231841D01*
X125691000Y-92654843D01*
X125691000Y-92563740D01*
X125633932Y-92276842D01*
X125521990Y-92006589D01*
X125359475Y-91763368D01*
X125152632Y-91556525D01*
X124978240Y-91440000D01*
X125152632Y-91323475D01*
X125359475Y-91116632D01*
X125521990Y-90873411D01*
X125633932Y-90603158D01*
X125691000Y-90316260D01*
X125691000Y-90023740D01*
X125633932Y-89736842D01*
X125521990Y-89466589D01*
X125359475Y-89223368D01*
X125152632Y-89016525D01*
X124909411Y-88854010D01*
X124639158Y-88742068D01*
X124352260Y-88685000D01*
X124059740Y-88685000D01*
X123772842Y-88742068D01*
X123502589Y-88854010D01*
X123259368Y-89016525D01*
X123052525Y-89223368D01*
X122890010Y-89466589D01*
X122778068Y-89736842D01*
X122772268Y-89766000D01*
X119164561Y-89766000D01*
X119126000Y-89762202D01*
X119087440Y-89766000D01*
X119087439Y-89766000D01*
X118972113Y-89777359D01*
X118824140Y-89822246D01*
X118687767Y-89895138D01*
X118568236Y-89993236D01*
X118470138Y-90112767D01*
X118397246Y-90249140D01*
X118352359Y-90397113D01*
X118337202Y-90551000D01*
X118341001Y-90589571D01*
X118341000Y-104211558D01*
X118341001Y-104211568D01*
X118341000Y-108287289D01*
X118322063Y-108306226D01*
X118208795Y-108475744D01*
X118130774Y-108664102D01*
X118091000Y-108864061D01*
X118091000Y-109067939D01*
X118130774Y-109267898D01*
X118134817Y-109277660D01*
X115716000Y-106858843D01*
X115716000Y-106832061D01*
X115676226Y-106632102D01*
X115598205Y-106443744D01*
X115484937Y-106274226D01*
X115340774Y-106130063D01*
X115171256Y-106016795D01*
X114982898Y-105938774D01*
X114782939Y-105899000D01*
X114579061Y-105899000D01*
X114379102Y-105938774D01*
X114190744Y-106016795D01*
X114021226Y-106130063D01*
X113877063Y-106274226D01*
X113763795Y-106443744D01*
X113685774Y-106632102D01*
X113646000Y-106832061D01*
X113646000Y-107035939D01*
X113685774Y-107235898D01*
X113763795Y-107424256D01*
X113877063Y-107593774D01*
X114021226Y-107737937D01*
X114190744Y-107851205D01*
X114379102Y-107929226D01*
X114579061Y-107969000D01*
X114605843Y-107969000D01*
X118162658Y-111525816D01*
X118187236Y-111555764D01*
X118217184Y-111580342D01*
X118217187Y-111580345D01*
X118246559Y-111604450D01*
X118306767Y-111653862D01*
X118443140Y-111726754D01*
X118591113Y-111771642D01*
X118666026Y-111779020D01*
X118706439Y-111783000D01*
X118706444Y-111783000D01*
X118745000Y-111786797D01*
X118783556Y-111783000D01*
X135973289Y-111783000D01*
X135992226Y-111801937D01*
X136161744Y-111915205D01*
X136350102Y-111993226D01*
X136550061Y-112033000D01*
X136753939Y-112033000D01*
X136953898Y-111993226D01*
X137142256Y-111915205D01*
X137311774Y-111801937D01*
X137414000Y-111699711D01*
X137516226Y-111801937D01*
X137685744Y-111915205D01*
X137874102Y-111993226D01*
X138074061Y-112033000D01*
X138277939Y-112033000D01*
X138477898Y-111993226D01*
X138666256Y-111915205D01*
X138835774Y-111801937D01*
X138979937Y-111657774D01*
X139093205Y-111488256D01*
X139171226Y-111299898D01*
X139211000Y-111099939D01*
X139211000Y-110896061D01*
X139171226Y-110696102D01*
X139093205Y-110507744D01*
X138979937Y-110338226D01*
X138835774Y-110194063D01*
X138666256Y-110080795D01*
X138477898Y-110002774D01*
X138277939Y-109963000D01*
X138251157Y-109963000D01*
X137869347Y-109581190D01*
X137844764Y-109551236D01*
X137725233Y-109453138D01*
X137588860Y-109380246D01*
X137440887Y-109335359D01*
X137325561Y-109324000D01*
X137325553Y-109324000D01*
X137287000Y-109320203D01*
X137248447Y-109324000D01*
X125418459Y-109324000D01*
X125507185Y-109251185D01*
X125586537Y-109154494D01*
X125645502Y-109044180D01*
X125681812Y-108924482D01*
X125694072Y-108800000D01*
X145577928Y-108800000D01*
X145590188Y-108924482D01*
X145626498Y-109044180D01*
X145685463Y-109154494D01*
X145764815Y-109251185D01*
X145861506Y-109330537D01*
X145971820Y-109389502D01*
X146091518Y-109425812D01*
X146216000Y-109438072D01*
X146780250Y-109435000D01*
X146939000Y-109276250D01*
X146939000Y-108077000D01*
X147193000Y-108077000D01*
X147193000Y-109276250D01*
X147351750Y-109435000D01*
X147916000Y-109438072D01*
X148040482Y-109425812D01*
X148160180Y-109389502D01*
X148270494Y-109330537D01*
X148367185Y-109251185D01*
X148446537Y-109154494D01*
X148505502Y-109044180D01*
X148541812Y-108924482D01*
X148554072Y-108800000D01*
X148551000Y-108235750D01*
X148392250Y-108077000D01*
X147193000Y-108077000D01*
X146939000Y-108077000D01*
X145739750Y-108077000D01*
X145581000Y-108235750D01*
X145577928Y-108800000D01*
X125694072Y-108800000D01*
X125694072Y-107100000D01*
X125681812Y-106975518D01*
X125645502Y-106855820D01*
X125586537Y-106745506D01*
X125507185Y-106648815D01*
X125410494Y-106569463D01*
X125300180Y-106510498D01*
X125227620Y-106488487D01*
X125359475Y-106356632D01*
X125521990Y-106113411D01*
X125633932Y-105843158D01*
X125691000Y-105556260D01*
X125691000Y-105263740D01*
X125633932Y-104976842D01*
X125521990Y-104706589D01*
X125359475Y-104463368D01*
X125152632Y-104256525D01*
X124978240Y-104140000D01*
X125152632Y-104023475D01*
X125359475Y-103816632D01*
X125521990Y-103573411D01*
X125633932Y-103303158D01*
X125691000Y-103016260D01*
X125691000Y-102723740D01*
X125633932Y-102436842D01*
X125521990Y-102166589D01*
X125359475Y-101923368D01*
X125152632Y-101716525D01*
X124978240Y-101600000D01*
X125152632Y-101483475D01*
X125359475Y-101276632D01*
X125468942Y-101112804D01*
X125561968Y-101103641D01*
X125709941Y-101058754D01*
X125846314Y-100985862D01*
X125965845Y-100887764D01*
X125990428Y-100857810D01*
X136106816Y-90741423D01*
X136136763Y-90716846D01*
X136234861Y-90597315D01*
X136307753Y-90460942D01*
X136349328Y-90323887D01*
X136352640Y-90312970D01*
X136356681Y-90271939D01*
X136363999Y-90197643D01*
X136363999Y-90197636D01*
X136367796Y-90159083D01*
X136363999Y-90120530D01*
X136363999Y-82076544D01*
X136632740Y-82130000D01*
X136925260Y-82130000D01*
X137212158Y-82072932D01*
X137482411Y-81960990D01*
X137725632Y-81798475D01*
X137857487Y-81666620D01*
X137879498Y-81739180D01*
X137938463Y-81849494D01*
X138017815Y-81946185D01*
X138114506Y-82025537D01*
X138224820Y-82084502D01*
X138344518Y-82120812D01*
X138469000Y-82133072D01*
X138534001Y-82133072D01*
X138534000Y-102290449D01*
X138530203Y-102329002D01*
X138534000Y-102367555D01*
X138534000Y-102367562D01*
X138545359Y-102482888D01*
X138590246Y-102630861D01*
X138663138Y-102767234D01*
X138761236Y-102886766D01*
X138791190Y-102911349D01*
X141817656Y-105937816D01*
X141842234Y-105967764D01*
X141872182Y-105992342D01*
X141872185Y-105992345D01*
X141901557Y-106016450D01*
X141961765Y-106065862D01*
X142081878Y-106130063D01*
X142098138Y-106138754D01*
X142246110Y-106183641D01*
X142260488Y-106185057D01*
X142361437Y-106195000D01*
X142361444Y-106195000D01*
X142399997Y-106198797D01*
X142438550Y-106195000D01*
X145804526Y-106195000D01*
X145912525Y-106356632D01*
X146044380Y-106488487D01*
X145971820Y-106510498D01*
X145861506Y-106569463D01*
X145764815Y-106648815D01*
X145685463Y-106745506D01*
X145626498Y-106855820D01*
X145590188Y-106975518D01*
X145577928Y-107100000D01*
X145581000Y-107664250D01*
X145739750Y-107823000D01*
X146939000Y-107823000D01*
X146939000Y-107803000D01*
X147193000Y-107803000D01*
X147193000Y-107823000D01*
X148392250Y-107823000D01*
X148551000Y-107664250D01*
X148554072Y-107100000D01*
X148541812Y-106975518D01*
X148505502Y-106855820D01*
X148446537Y-106745506D01*
X148367185Y-106648815D01*
X148270494Y-106569463D01*
X148160180Y-106510498D01*
X148087620Y-106488487D01*
X148219475Y-106356632D01*
X148381990Y-106113411D01*
X148493932Y-105843158D01*
X148551000Y-105556260D01*
X148551000Y-105263740D01*
X148493932Y-104976842D01*
X148381990Y-104706589D01*
X148219475Y-104463368D01*
X148012632Y-104256525D01*
X147838240Y-104140000D01*
X148012632Y-104023475D01*
X148219475Y-103816632D01*
X148381990Y-103573411D01*
X148493932Y-103303158D01*
X148551000Y-103016260D01*
X148551000Y-102723740D01*
X148493932Y-102436842D01*
X148381990Y-102166589D01*
X148219475Y-101923368D01*
X148012632Y-101716525D01*
X147838240Y-101600000D01*
X148012632Y-101483475D01*
X148219475Y-101276632D01*
X148381990Y-101033411D01*
X148493932Y-100763158D01*
X148551000Y-100476260D01*
X148551000Y-100183740D01*
X148493932Y-99896842D01*
X148381990Y-99626589D01*
X148219475Y-99383368D01*
X148012632Y-99176525D01*
X147838240Y-99060000D01*
X148012632Y-98943475D01*
X148219475Y-98736632D01*
X148381990Y-98493411D01*
X148493932Y-98223158D01*
X148551000Y-97936260D01*
X148551000Y-97643740D01*
X148513075Y-97453082D01*
X150756817Y-95209341D01*
X150786765Y-95184763D01*
X150884863Y-95065232D01*
X150957755Y-94928859D01*
X151002643Y-94780886D01*
X151010021Y-94705973D01*
X151014001Y-94665560D01*
X151014001Y-94665555D01*
X151017798Y-94626999D01*
X151014001Y-94588443D01*
X151014001Y-84260551D01*
X151017798Y-84221998D01*
X151014001Y-84183445D01*
X151014001Y-84183438D01*
X151002642Y-84068112D01*
X150998127Y-84053226D01*
X150957755Y-83920139D01*
X150884863Y-83783766D01*
X150830704Y-83717774D01*
X150811346Y-83694186D01*
X150811343Y-83694183D01*
X150786765Y-83664235D01*
X150756818Y-83639658D01*
X149647349Y-82530190D01*
X149622766Y-82500236D01*
X149503235Y-82402138D01*
X149366862Y-82329246D01*
X149218889Y-82284359D01*
X149103563Y-82273000D01*
X149103555Y-82273000D01*
X149065002Y-82269203D01*
X149026449Y-82273000D01*
X148887711Y-82273000D01*
X148868774Y-82254063D01*
X148699256Y-82140795D01*
X148510898Y-82062774D01*
X148310939Y-82023000D01*
X148107061Y-82023000D01*
X147907102Y-82062774D01*
X147718744Y-82140795D01*
X147549226Y-82254063D01*
X147405063Y-82398226D01*
X147291795Y-82567744D01*
X147213774Y-82756102D01*
X147174000Y-82956061D01*
X147174000Y-83159939D01*
X147213774Y-83359898D01*
X147291795Y-83548256D01*
X147405063Y-83717774D01*
X147549226Y-83861937D01*
X147718744Y-83975205D01*
X147907102Y-84053226D01*
X148107061Y-84093000D01*
X148310939Y-84093000D01*
X148510898Y-84053226D01*
X148616859Y-84009335D01*
X148561795Y-84091744D01*
X148483774Y-84280102D01*
X148444000Y-84480061D01*
X148444000Y-84683939D01*
X148483774Y-84883898D01*
X148561795Y-85072256D01*
X148675063Y-85241774D01*
X148694000Y-85260711D01*
X148694001Y-92511841D01*
X148551000Y-92654842D01*
X148551000Y-92563740D01*
X148493932Y-92276842D01*
X148381990Y-92006589D01*
X148219475Y-91763368D01*
X148012632Y-91556525D01*
X147838240Y-91440000D01*
X148012632Y-91323475D01*
X148219475Y-91116632D01*
X148381990Y-90873411D01*
X148493932Y-90603158D01*
X148551000Y-90316260D01*
X148551000Y-90023740D01*
X148493932Y-89736842D01*
X148381990Y-89466589D01*
X148219475Y-89223368D01*
X148012632Y-89016525D01*
X147769411Y-88854010D01*
X147499158Y-88742068D01*
X147212260Y-88685000D01*
X146919740Y-88685000D01*
X146632842Y-88742068D01*
X146362589Y-88854010D01*
X146119368Y-89016525D01*
X145912525Y-89223368D01*
X145750010Y-89466589D01*
X145638068Y-89736842D01*
X145581000Y-90023740D01*
X145581000Y-90316260D01*
X145638068Y-90603158D01*
X145750010Y-90873411D01*
X145912525Y-91116632D01*
X146119368Y-91323475D01*
X146293760Y-91440000D01*
X146119368Y-91556525D01*
X145912525Y-91763368D01*
X145750010Y-92006589D01*
X145638068Y-92276842D01*
X145581000Y-92563740D01*
X145581000Y-92856260D01*
X145638068Y-93143158D01*
X145750010Y-93413411D01*
X145912525Y-93656632D01*
X146119368Y-93863475D01*
X146293760Y-93980000D01*
X146119368Y-94096525D01*
X145912525Y-94303368D01*
X145750010Y-94546589D01*
X145638068Y-94816842D01*
X145581000Y-95103740D01*
X145581000Y-95396260D01*
X145638068Y-95683158D01*
X145750010Y-95953411D01*
X145912525Y-96196632D01*
X146119368Y-96403475D01*
X146293760Y-96520000D01*
X146119368Y-96636525D01*
X145912525Y-96843368D01*
X145750010Y-97086589D01*
X145638068Y-97356842D01*
X145581000Y-97643740D01*
X145581000Y-97936260D01*
X145638068Y-98223158D01*
X145750010Y-98493411D01*
X145912525Y-98736632D01*
X146119368Y-98943475D01*
X146293760Y-99060000D01*
X146119368Y-99176525D01*
X145912525Y-99383368D01*
X145750010Y-99626589D01*
X145638068Y-99896842D01*
X145581000Y-100183740D01*
X145581000Y-100476260D01*
X145638068Y-100763158D01*
X145750010Y-101033411D01*
X145912525Y-101276632D01*
X146119368Y-101483475D01*
X146293760Y-101600000D01*
X146119368Y-101716525D01*
X145912525Y-101923368D01*
X145750010Y-102166589D01*
X145638068Y-102436842D01*
X145581000Y-102723740D01*
X145581000Y-103016260D01*
X145638068Y-103303158D01*
X145750010Y-103573411D01*
X145912525Y-103816632D01*
X146119368Y-104023475D01*
X146293760Y-104140000D01*
X146119368Y-104256525D01*
X145912525Y-104463368D01*
X145804526Y-104625000D01*
X142725156Y-104625000D01*
X140104000Y-102003845D01*
X140104000Y-82321061D01*
X140951000Y-82321061D01*
X140951000Y-82524939D01*
X140990774Y-82724898D01*
X141068795Y-82913256D01*
X141182063Y-83082774D01*
X141326226Y-83226937D01*
X141495744Y-83340205D01*
X141684102Y-83418226D01*
X141884061Y-83458000D01*
X142087939Y-83458000D01*
X142287898Y-83418226D01*
X142476256Y-83340205D01*
X142645774Y-83226937D01*
X142663417Y-83209294D01*
X142676555Y-83208000D01*
X142676563Y-83208000D01*
X142791889Y-83196641D01*
X142939862Y-83151754D01*
X143076235Y-83078862D01*
X143195766Y-82980764D01*
X143220349Y-82950810D01*
X148032287Y-78138872D01*
X152578000Y-78138872D01*
X152578000Y-78579128D01*
X152663890Y-79010925D01*
X152832369Y-79417669D01*
X153076962Y-79783729D01*
X153388271Y-80095038D01*
X153754331Y-80339631D01*
X154161075Y-80508110D01*
X154592872Y-80594000D01*
X155033128Y-80594000D01*
X155464925Y-80508110D01*
X155871669Y-80339631D01*
X156237729Y-80095038D01*
X156549038Y-79783729D01*
X156793631Y-79417669D01*
X156962110Y-79010925D01*
X157048000Y-78579128D01*
X157048000Y-78138872D01*
X156962110Y-77707075D01*
X156793631Y-77300331D01*
X156549038Y-76934271D01*
X156237729Y-76622962D01*
X155871669Y-76378369D01*
X155464925Y-76209890D01*
X155033128Y-76124000D01*
X154592872Y-76124000D01*
X154161075Y-76209890D01*
X153754331Y-76378369D01*
X153388271Y-76622962D01*
X153076962Y-76934271D01*
X152832369Y-77300331D01*
X152663890Y-77707075D01*
X152578000Y-78138872D01*
X148032287Y-78138872D01*
X153816810Y-72354349D01*
X153846764Y-72329766D01*
X153944862Y-72210235D01*
X154017754Y-72073862D01*
X154026297Y-72045701D01*
X154062642Y-71925889D01*
X154070020Y-71850976D01*
X154074000Y-71810563D01*
X154074000Y-71810558D01*
X154077797Y-71772002D01*
X154074000Y-71733446D01*
X154074000Y-70195072D01*
X154139000Y-70195072D01*
X154263482Y-70182812D01*
X154383180Y-70146502D01*
X154493494Y-70087537D01*
X154590185Y-70008185D01*
X154669537Y-69911494D01*
X154728502Y-69801180D01*
X154764812Y-69681482D01*
X154777072Y-69557000D01*
X154777072Y-67857000D01*
X154764812Y-67732518D01*
X154728502Y-67612820D01*
X154669537Y-67502506D01*
X154590185Y-67405815D01*
X154493494Y-67326463D01*
X154383180Y-67267498D01*
X154310620Y-67245487D01*
X154442475Y-67113632D01*
X154604990Y-66870411D01*
X154716932Y-66600158D01*
X154774000Y-66313260D01*
X154774000Y-66020740D01*
X154716932Y-65733842D01*
X154604990Y-65463589D01*
X154442475Y-65220368D01*
X154235632Y-65013525D01*
X154053466Y-64891805D01*
X154170355Y-64822178D01*
X154386588Y-64627269D01*
X154560641Y-64393920D01*
X154685825Y-64131099D01*
X154730476Y-63983890D01*
X154609155Y-63754000D01*
X153416000Y-63754000D01*
X153416000Y-63774000D01*
X153162000Y-63774000D01*
X153162000Y-63754000D01*
X150876000Y-63754000D01*
X150876000Y-63774000D01*
X150622000Y-63774000D01*
X150622000Y-63754000D01*
X149428845Y-63754000D01*
X149307524Y-63983890D01*
X149352175Y-64131099D01*
X149477359Y-64393920D01*
X149651412Y-64627269D01*
X149867645Y-64822178D01*
X149984534Y-64891805D01*
X149802368Y-65013525D01*
X149595525Y-65220368D01*
X149433010Y-65463589D01*
X149321068Y-65733842D01*
X149264000Y-66020740D01*
X149264000Y-66313260D01*
X149321068Y-66600158D01*
X149433010Y-66870411D01*
X149595525Y-67113632D01*
X149727380Y-67245487D01*
X149654820Y-67267498D01*
X149544506Y-67326463D01*
X149447815Y-67405815D01*
X149368463Y-67502506D01*
X149309498Y-67612820D01*
X149273188Y-67732518D01*
X149260928Y-67857000D01*
X149260928Y-69557000D01*
X149273188Y-69681482D01*
X149309498Y-69801180D01*
X149368463Y-69911494D01*
X149447815Y-70008185D01*
X149544506Y-70087537D01*
X149654820Y-70146502D01*
X149774518Y-70182812D01*
X149899000Y-70195072D01*
X151599000Y-70195072D01*
X151723482Y-70182812D01*
X151843180Y-70146502D01*
X151953494Y-70087537D01*
X152019000Y-70033778D01*
X152084506Y-70087537D01*
X152194820Y-70146502D01*
X152314518Y-70182812D01*
X152439000Y-70195072D01*
X152504000Y-70195072D01*
X152504001Y-71446844D01*
X148096072Y-75854773D01*
X148096072Y-75173000D01*
X148083812Y-75048518D01*
X148047502Y-74928820D01*
X147988537Y-74818506D01*
X147909185Y-74721815D01*
X147812494Y-74642463D01*
X147702180Y-74583498D01*
X147683873Y-74577944D01*
X147750312Y-74511505D01*
X147918299Y-74260095D01*
X148034011Y-73980743D01*
X148093000Y-73684184D01*
X148093000Y-73381816D01*
X148034011Y-73085257D01*
X147918299Y-72805905D01*
X147750312Y-72554495D01*
X147536505Y-72340688D01*
X147285095Y-72172701D01*
X147005743Y-72056989D01*
X146709184Y-71998000D01*
X146406816Y-71998000D01*
X146110257Y-72056989D01*
X145830905Y-72172701D01*
X145579495Y-72340688D01*
X145365688Y-72554495D01*
X145197701Y-72805905D01*
X145081989Y-73085257D01*
X145023000Y-73381816D01*
X145023000Y-73684184D01*
X145081989Y-73980743D01*
X145197701Y-74260095D01*
X145365688Y-74511505D01*
X145432127Y-74577944D01*
X145413820Y-74583498D01*
X145303506Y-74642463D01*
X145206815Y-74721815D01*
X145127463Y-74818506D01*
X145068498Y-74928820D01*
X145032188Y-75048518D01*
X145019928Y-75173000D01*
X145019928Y-76973000D01*
X145032188Y-77097482D01*
X145068498Y-77217180D01*
X145127463Y-77327494D01*
X145206815Y-77424185D01*
X145303506Y-77503537D01*
X145413820Y-77562502D01*
X145533518Y-77598812D01*
X145658000Y-77611072D01*
X146339773Y-77611072D01*
X142454190Y-81496655D01*
X142287898Y-81427774D01*
X142087939Y-81388000D01*
X141884061Y-81388000D01*
X141684102Y-81427774D01*
X141495744Y-81505795D01*
X141326226Y-81619063D01*
X141182063Y-81763226D01*
X141068795Y-81932744D01*
X140990774Y-82121102D01*
X140951000Y-82321061D01*
X140104000Y-82321061D01*
X140104000Y-82133072D01*
X140169000Y-82133072D01*
X140293482Y-82120812D01*
X140413180Y-82084502D01*
X140523494Y-82025537D01*
X140620185Y-81946185D01*
X140699537Y-81849494D01*
X140758502Y-81739180D01*
X140794812Y-81619482D01*
X140807072Y-81495000D01*
X140807072Y-79795000D01*
X140794812Y-79670518D01*
X140758502Y-79550820D01*
X140699537Y-79440506D01*
X140620185Y-79343815D01*
X140523494Y-79264463D01*
X140413180Y-79205498D01*
X140293482Y-79169188D01*
X140169000Y-79156928D01*
X139377229Y-79156928D01*
X140914157Y-77620000D01*
X142831289Y-77620000D01*
X142850226Y-77638937D01*
X143019744Y-77752205D01*
X143208102Y-77830226D01*
X143408061Y-77870000D01*
X143611939Y-77870000D01*
X143811898Y-77830226D01*
X144000256Y-77752205D01*
X144169774Y-77638937D01*
X144313937Y-77494774D01*
X144427205Y-77325256D01*
X144505226Y-77136898D01*
X144545000Y-76936939D01*
X144545000Y-76733061D01*
X144505226Y-76533102D01*
X144427205Y-76344744D01*
X144313937Y-76175226D01*
X144169774Y-76031063D01*
X144000256Y-75917795D01*
X143811898Y-75839774D01*
X143611939Y-75800000D01*
X143408061Y-75800000D01*
X143208102Y-75839774D01*
X143019744Y-75917795D01*
X142850226Y-76031063D01*
X142831289Y-76050000D01*
X140627556Y-76050000D01*
X140589000Y-76046203D01*
X140550444Y-76050000D01*
X140550439Y-76050000D01*
X140510026Y-76053980D01*
X140435113Y-76061358D01*
X140287140Y-76106246D01*
X140150767Y-76179138D01*
X140031236Y-76277236D01*
X140006653Y-76307190D01*
X137115918Y-79197925D01*
X136925260Y-79160000D01*
X136632740Y-79160000D01*
X136363999Y-79213456D01*
X136363999Y-77996160D01*
X140604817Y-73755343D01*
X140634764Y-73730766D01*
X140672994Y-73684184D01*
X140683450Y-73671443D01*
X140732862Y-73611235D01*
X140805754Y-73474862D01*
X140850641Y-73326889D01*
X140862000Y-73211563D01*
X140862000Y-73211556D01*
X140865797Y-73173003D01*
X140862000Y-73134450D01*
X140862000Y-68197204D01*
X140959886Y-68131799D01*
X141152799Y-67938886D01*
X141304371Y-67712043D01*
X141408775Y-67459989D01*
X141462000Y-67192411D01*
X141462000Y-66919589D01*
X141408775Y-66652011D01*
X141304371Y-66399957D01*
X141152799Y-66173114D01*
X140959886Y-65980201D01*
X140823308Y-65888942D01*
X140970000Y-65742250D01*
X140970000Y-64643000D01*
X141224000Y-64643000D01*
X141224000Y-65742250D01*
X141382750Y-65901000D01*
X141847000Y-65904072D01*
X141971482Y-65891812D01*
X142091180Y-65855502D01*
X142201494Y-65796537D01*
X142298185Y-65717185D01*
X142377537Y-65620494D01*
X142436502Y-65510180D01*
X142472812Y-65390482D01*
X142485072Y-65266000D01*
X142482000Y-64801750D01*
X142323250Y-64643000D01*
X141224000Y-64643000D01*
X140970000Y-64643000D01*
X140950000Y-64643000D01*
X140950000Y-64389000D01*
X140970000Y-64389000D01*
X140970000Y-63289750D01*
X141224000Y-63289750D01*
X141224000Y-64389000D01*
X142323250Y-64389000D01*
X142482000Y-64230250D01*
X142485072Y-63766000D01*
X142472812Y-63641518D01*
X142436502Y-63521820D01*
X142377537Y-63411506D01*
X142298185Y-63314815D01*
X142201494Y-63235463D01*
X142091180Y-63176498D01*
X141971482Y-63140188D01*
X141847000Y-63127928D01*
X141382750Y-63131000D01*
X141224000Y-63289750D01*
X140970000Y-63289750D01*
X140811250Y-63131000D01*
X140347000Y-63127928D01*
X140222518Y-63140188D01*
X140102820Y-63176498D01*
X139992506Y-63235463D01*
X139895815Y-63314815D01*
X139844965Y-63376776D01*
X139713043Y-63288629D01*
X139460989Y-63184225D01*
X139193411Y-63131000D01*
X138920589Y-63131000D01*
X138653011Y-63184225D01*
X138400957Y-63288629D01*
X138174114Y-63440201D01*
X137981201Y-63633114D01*
X137829629Y-63859957D01*
X137725225Y-64112011D01*
X137672000Y-64379589D01*
X137672000Y-64652411D01*
X137725225Y-64919989D01*
X137829629Y-65172043D01*
X137981201Y-65398886D01*
X138174114Y-65591799D01*
X138343188Y-65704771D01*
X138173411Y-65671000D01*
X137900589Y-65671000D01*
X137633011Y-65724225D01*
X137380957Y-65828629D01*
X137154114Y-65980201D01*
X136961201Y-66173114D01*
X136809629Y-66399957D01*
X136705225Y-66652011D01*
X136652000Y-66919589D01*
X136652000Y-67192411D01*
X136705225Y-67459989D01*
X136809629Y-67712043D01*
X136961201Y-67938886D01*
X137154114Y-68131799D01*
X137380957Y-68283371D01*
X137633011Y-68387775D01*
X137900589Y-68441000D01*
X138173411Y-68441000D01*
X138440989Y-68387775D01*
X138693043Y-68283371D01*
X138919886Y-68131799D01*
X139057000Y-67994685D01*
X139194114Y-68131799D01*
X139292001Y-68197205D01*
X139292000Y-72847844D01*
X136412072Y-75727773D01*
X136412072Y-75046000D01*
X136399812Y-74921518D01*
X136363502Y-74801820D01*
X136304537Y-74691506D01*
X136225185Y-74594815D01*
X136128494Y-74515463D01*
X136018180Y-74456498D01*
X135999873Y-74450944D01*
X136066312Y-74384505D01*
X136234299Y-74133095D01*
X136350011Y-73853743D01*
X136409000Y-73557184D01*
X136409000Y-73254816D01*
X136350011Y-72958257D01*
X136234299Y-72678905D01*
X136066312Y-72427495D01*
X135852505Y-72213688D01*
X135601095Y-72045701D01*
X135321743Y-71929989D01*
X135025184Y-71871000D01*
X134722816Y-71871000D01*
X134426257Y-71929989D01*
X134146905Y-72045701D01*
X133895495Y-72213688D01*
X133681688Y-72427495D01*
X133513701Y-72678905D01*
X133397989Y-72958257D01*
X133348121Y-73208964D01*
X124238551Y-64099394D01*
X124401000Y-64115394D01*
X124741118Y-64081895D01*
X125068167Y-63982686D01*
X125369577Y-63821579D01*
X125633766Y-63604766D01*
X125850579Y-63340578D01*
X126011686Y-63039168D01*
X126110895Y-62712119D01*
X126136000Y-62457225D01*
X126136000Y-62040193D01*
X131782000Y-62040193D01*
X131782000Y-62391807D01*
X131850596Y-62736665D01*
X131985153Y-63061515D01*
X132180500Y-63353871D01*
X132429129Y-63602500D01*
X132721485Y-63797847D01*
X133046335Y-63932404D01*
X133391193Y-64001000D01*
X133742807Y-64001000D01*
X134087665Y-63932404D01*
X134412515Y-63797847D01*
X134704871Y-63602500D01*
X134953500Y-63353871D01*
X135148847Y-63061515D01*
X135283404Y-62736665D01*
X135352000Y-62391807D01*
X135352000Y-62040193D01*
X143782000Y-62040193D01*
X143782000Y-62391807D01*
X143850596Y-62736665D01*
X143985153Y-63061515D01*
X144180500Y-63353871D01*
X144429129Y-63602500D01*
X144721485Y-63797847D01*
X145046335Y-63932404D01*
X145391193Y-64001000D01*
X145742807Y-64001000D01*
X146087665Y-63932404D01*
X146412515Y-63797847D01*
X146704871Y-63602500D01*
X146953500Y-63353871D01*
X147009467Y-63270110D01*
X149307524Y-63270110D01*
X149428845Y-63500000D01*
X150622000Y-63500000D01*
X150622000Y-62306186D01*
X150876000Y-62306186D01*
X150876000Y-63500000D01*
X153162000Y-63500000D01*
X153162000Y-62306186D01*
X153416000Y-62306186D01*
X153416000Y-63500000D01*
X154609155Y-63500000D01*
X154730476Y-63270110D01*
X154685825Y-63122901D01*
X154560641Y-62860080D01*
X154386588Y-62626731D01*
X154170355Y-62431822D01*
X153920252Y-62282843D01*
X153645891Y-62185519D01*
X153416000Y-62306186D01*
X153162000Y-62306186D01*
X152932109Y-62185519D01*
X152657748Y-62282843D01*
X152407645Y-62431822D01*
X152191412Y-62626731D01*
X152019000Y-62857880D01*
X151846588Y-62626731D01*
X151630355Y-62431822D01*
X151380252Y-62282843D01*
X151105891Y-62185519D01*
X150876000Y-62306186D01*
X150622000Y-62306186D01*
X150392109Y-62185519D01*
X150117748Y-62282843D01*
X149867645Y-62431822D01*
X149651412Y-62626731D01*
X149477359Y-62860080D01*
X149352175Y-63122901D01*
X149307524Y-63270110D01*
X147009467Y-63270110D01*
X147148847Y-63061515D01*
X147283404Y-62736665D01*
X147352000Y-62391807D01*
X147352000Y-62040193D01*
X147283404Y-61695335D01*
X147148847Y-61370485D01*
X146953500Y-61078129D01*
X146704871Y-60829500D01*
X146412515Y-60634153D01*
X146087665Y-60499596D01*
X145742807Y-60431000D01*
X145391193Y-60431000D01*
X145046335Y-60499596D01*
X144721485Y-60634153D01*
X144429129Y-60829500D01*
X144180500Y-61078129D01*
X143985153Y-61370485D01*
X143850596Y-61695335D01*
X143782000Y-62040193D01*
X135352000Y-62040193D01*
X135283404Y-61695335D01*
X135148847Y-61370485D01*
X134953500Y-61078129D01*
X134704871Y-60829500D01*
X134412515Y-60634153D01*
X134087665Y-60499596D01*
X133742807Y-60431000D01*
X133391193Y-60431000D01*
X133046335Y-60499596D01*
X132721485Y-60634153D01*
X132429129Y-60829500D01*
X132180500Y-61078129D01*
X131985153Y-61370485D01*
X131850596Y-61695335D01*
X131782000Y-62040193D01*
X126136000Y-62040193D01*
X126136000Y-60986775D01*
X126110895Y-60731881D01*
X126011686Y-60404832D01*
X125982378Y-60350000D01*
X154780715Y-60350000D01*
X155325552Y-60403422D01*
G37*
%TD.AperFunction*%
D21*
X120428000Y-61595000D02*
X120448000Y-61595000D01*
X120448000Y-61849000D01*
X120428000Y-61849000D01*
X120428000Y-63441656D01*
X120642185Y-63564318D01*
X120713684Y-63550173D01*
X120964868Y-63444142D01*
X121062624Y-63377867D01*
X121099815Y-63423185D01*
X121196506Y-63502537D01*
X121306820Y-63561502D01*
X121426518Y-63597812D01*
X121551000Y-63610072D01*
X121591602Y-63610072D01*
X121645138Y-63710232D01*
X121743236Y-63829764D01*
X121773190Y-63854347D01*
X132114002Y-74195159D01*
X132114002Y-75837010D01*
X131927939Y-75800000D01*
X131901158Y-75800000D01*
X119295068Y-63193911D01*
X119304358Y-63182591D01*
X119411460Y-63291145D01*
X119637132Y-63444142D01*
X119888316Y-63550173D01*
X119959815Y-63564318D01*
X120174000Y-63441656D01*
X120174000Y-61849000D01*
X120154000Y-61849000D01*
X120154000Y-61595000D01*
X120174000Y-61595000D01*
X120174000Y-61575000D01*
X120428000Y-61575000D01*
X120428000Y-61595000D01*
%TA.AperFunction,Conductor*%
D22*
G36*
X120428000Y-61595000D02*
G01*
X120448000Y-61595000D01*
X120448000Y-61849000D01*
X120428000Y-61849000D01*
X120428000Y-63441656D01*
X120642185Y-63564318D01*
X120713684Y-63550173D01*
X120964868Y-63444142D01*
X121062624Y-63377867D01*
X121099815Y-63423185D01*
X121196506Y-63502537D01*
X121306820Y-63561502D01*
X121426518Y-63597812D01*
X121551000Y-63610072D01*
X121591602Y-63610072D01*
X121645138Y-63710232D01*
X121743236Y-63829764D01*
X121773190Y-63854347D01*
X132114002Y-74195159D01*
X132114002Y-75837010D01*
X131927939Y-75800000D01*
X131901158Y-75800000D01*
X119295068Y-63193911D01*
X119304358Y-63182591D01*
X119411460Y-63291145D01*
X119637132Y-63444142D01*
X119888316Y-63550173D01*
X119959815Y-63564318D01*
X120174000Y-63441656D01*
X120174000Y-61849000D01*
X120154000Y-61849000D01*
X120154000Y-61595000D01*
X120174000Y-61595000D01*
X120174000Y-61575000D01*
X120428000Y-61575000D01*
X120428000Y-61595000D01*
G37*
%TD.AperFunction*%
%TD*%
M02*
