G04 #@! TF.GenerationSoftware,KiCad,Pcbnew,(5.1.7)-1*
G04 #@! TF.CreationDate,2021-03-31T14:02:48+02:00*
G04 #@! TF.ProjectId,Temperature-controller-with-ESP8266,54656d70-6572-4617-9475-72652d636f6e,rev?*
G04 #@! TF.SameCoordinates,Original*
G04 #@! TF.FileFunction,Legend,Top*
G04 #@! TF.FilePolarity,Positive*
%FSLAX46Y46*%
G04 Gerber Fmt 4.6, Leading zero omitted, Abs format (unit mm)*
G04 Created by KiCad (PCBNEW (5.1.7)-1) date 2021-03-31 14:02:48*
%MOMM*%
%LPD*%
G01*
G04 APERTURE LIST*
%ADD10C,0.150000*%
%ADD11C,0.120000*%
%ADD12C,0.010000*%
G04 APERTURE END LIST*
D10*
X136985714Y-116530380D02*
X136985714Y-115530380D01*
X136985714Y-116006571D02*
X137557142Y-116006571D01*
X137557142Y-116530380D02*
X137557142Y-115530380D01*
X138604761Y-116435142D02*
X138557142Y-116482761D01*
X138414285Y-116530380D01*
X138319047Y-116530380D01*
X138176190Y-116482761D01*
X138080952Y-116387523D01*
X138033333Y-116292285D01*
X137985714Y-116101809D01*
X137985714Y-115958952D01*
X138033333Y-115768476D01*
X138080952Y-115673238D01*
X138176190Y-115578000D01*
X138319047Y-115530380D01*
X138414285Y-115530380D01*
X138557142Y-115578000D01*
X138604761Y-115625619D01*
X138938095Y-115530380D02*
X139557142Y-115530380D01*
X139223809Y-115911333D01*
X139366666Y-115911333D01*
X139461904Y-115958952D01*
X139509523Y-116006571D01*
X139557142Y-116101809D01*
X139557142Y-116339904D01*
X139509523Y-116435142D01*
X139461904Y-116482761D01*
X139366666Y-116530380D01*
X139080952Y-116530380D01*
X138985714Y-116482761D01*
X138938095Y-116435142D01*
X140414285Y-115863714D02*
X140414285Y-116530380D01*
X140176190Y-115482761D02*
X139938095Y-116197047D01*
X140557142Y-116197047D01*
X141128571Y-115530380D02*
X141223809Y-115530380D01*
X141319047Y-115578000D01*
X141366666Y-115625619D01*
X141414285Y-115720857D01*
X141461904Y-115911333D01*
X141461904Y-116149428D01*
X141414285Y-116339904D01*
X141366666Y-116435142D01*
X141319047Y-116482761D01*
X141223809Y-116530380D01*
X141128571Y-116530380D01*
X141033333Y-116482761D01*
X140985714Y-116435142D01*
X140938095Y-116339904D01*
X140890476Y-116149428D01*
X140890476Y-115911333D01*
X140938095Y-115720857D01*
X140985714Y-115625619D01*
X141033333Y-115578000D01*
X141128571Y-115530380D01*
X142414285Y-115578000D02*
X142319047Y-115530380D01*
X142176190Y-115530380D01*
X142033333Y-115578000D01*
X141938095Y-115673238D01*
X141890476Y-115768476D01*
X141842857Y-115958952D01*
X141842857Y-116101809D01*
X141890476Y-116292285D01*
X141938095Y-116387523D01*
X142033333Y-116482761D01*
X142176190Y-116530380D01*
X142271428Y-116530380D01*
X142414285Y-116482761D01*
X142461904Y-116435142D01*
X142461904Y-116101809D01*
X142271428Y-116101809D01*
X153501285Y-88395714D02*
X152751285Y-88395714D01*
X153287000Y-88145714D01*
X152751285Y-87895714D01*
X153501285Y-87895714D01*
X152822714Y-87574285D02*
X152787000Y-87538571D01*
X152751285Y-87467142D01*
X152751285Y-87288571D01*
X152787000Y-87217142D01*
X152822714Y-87181428D01*
X152894142Y-87145714D01*
X152965571Y-87145714D01*
X153072714Y-87181428D01*
X153501285Y-87610000D01*
X153501285Y-87145714D01*
X153001285Y-86502857D02*
X153501285Y-86502857D01*
X152715571Y-86681428D02*
X153251285Y-86860000D01*
X153251285Y-86395714D01*
X152751285Y-85752857D02*
X152751285Y-86110000D01*
X153108428Y-86145714D01*
X153072714Y-86110000D01*
X153037000Y-86038571D01*
X153037000Y-85860000D01*
X153072714Y-85788571D01*
X153108428Y-85752857D01*
X153179857Y-85717142D01*
X153358428Y-85717142D01*
X153429857Y-85752857D01*
X153465571Y-85788571D01*
X153501285Y-85860000D01*
X153501285Y-86038571D01*
X153465571Y-86110000D01*
X153429857Y-86145714D01*
X153501285Y-85002857D02*
X153501285Y-85431428D01*
X153501285Y-85217142D02*
X152751285Y-85217142D01*
X152858428Y-85288571D01*
X152929857Y-85360000D01*
X152965571Y-85431428D01*
X152822714Y-84717142D02*
X152787000Y-84681428D01*
X152751285Y-84610000D01*
X152751285Y-84431428D01*
X152787000Y-84360000D01*
X152822714Y-84324285D01*
X152894142Y-84288571D01*
X152965571Y-84288571D01*
X153072714Y-84324285D01*
X153501285Y-84752857D01*
X153501285Y-84288571D01*
X135548714Y-104821428D02*
X135548714Y-103821428D01*
X137120142Y-103392857D02*
X137120142Y-104821428D01*
X134120142Y-104821428D01*
X134120142Y-103392857D01*
X136977285Y-102250000D02*
X137120142Y-101821428D01*
X137120142Y-101107142D01*
X136977285Y-100821428D01*
X136834428Y-100678571D01*
X136548714Y-100535714D01*
X136263000Y-100535714D01*
X135977285Y-100678571D01*
X135834428Y-100821428D01*
X135691571Y-101107142D01*
X135548714Y-101678571D01*
X135405857Y-101964285D01*
X135263000Y-102107142D01*
X134977285Y-102250000D01*
X134691571Y-102250000D01*
X134405857Y-102107142D01*
X134263000Y-101964285D01*
X134120142Y-101678571D01*
X134120142Y-100964285D01*
X134263000Y-100535714D01*
X137120142Y-99250000D02*
X134120142Y-99250000D01*
X134120142Y-98107142D01*
X134263000Y-97821428D01*
X134405857Y-97678571D01*
X134691571Y-97535714D01*
X135120142Y-97535714D01*
X135405857Y-97678571D01*
X135548714Y-97821428D01*
X135691571Y-98107142D01*
X135691571Y-99250000D01*
X135977285Y-96250000D02*
X135977285Y-93964285D01*
X137120142Y-90964285D02*
X137120142Y-92678571D01*
X137120142Y-91821428D02*
X134120142Y-91821428D01*
X134548714Y-92107142D01*
X134834428Y-92392857D01*
X134977285Y-92678571D01*
X134405857Y-89821428D02*
X134263000Y-89678571D01*
X134120142Y-89392857D01*
X134120142Y-88678571D01*
X134263000Y-88392857D01*
X134405857Y-88250000D01*
X134691571Y-88107142D01*
X134977285Y-88107142D01*
X135405857Y-88250000D01*
X137120142Y-89964285D01*
X137120142Y-88107142D01*
X135548714Y-85821428D02*
X135548714Y-86821428D01*
X137120142Y-86821428D02*
X134120142Y-86821428D01*
X134120142Y-85392857D01*
D11*
X152273000Y-73914000D02*
X152146000Y-74422000D01*
X152273000Y-73914000D02*
X151765000Y-74168000D01*
X150114000Y-76835000D02*
X152273000Y-73914000D01*
X152400000Y-78613000D02*
X145288000Y-78613000D01*
X152400000Y-80264000D02*
X145288000Y-80264000D01*
X148844000Y-77089000D02*
X148844000Y-82042000D01*
X145288000Y-82042000D02*
X145288000Y-77089000D01*
X152400000Y-82042000D02*
X145288000Y-82042000D01*
X152400000Y-77089000D02*
X152400000Y-82042000D01*
X145288000Y-77089000D02*
X152400000Y-77089000D01*
D10*
X146304095Y-77351000D02*
X146208857Y-77303380D01*
X146066000Y-77303380D01*
X145923142Y-77351000D01*
X145827904Y-77446238D01*
X145780285Y-77541476D01*
X145732666Y-77731952D01*
X145732666Y-77874809D01*
X145780285Y-78065285D01*
X145827904Y-78160523D01*
X145923142Y-78255761D01*
X146066000Y-78303380D01*
X146161238Y-78303380D01*
X146304095Y-78255761D01*
X146351714Y-78208142D01*
X146351714Y-77874809D01*
X146161238Y-77874809D01*
X146780285Y-78303380D02*
X146780285Y-77303380D01*
X147351714Y-78303380D01*
X147351714Y-77303380D01*
X147827904Y-78303380D02*
X147827904Y-77303380D01*
X148066000Y-77303380D01*
X148208857Y-77351000D01*
X148304095Y-77446238D01*
X148351714Y-77541476D01*
X148399333Y-77731952D01*
X148399333Y-77874809D01*
X148351714Y-78065285D01*
X148304095Y-78160523D01*
X148208857Y-78255761D01*
X148066000Y-78303380D01*
X147827904Y-78303380D01*
X145827904Y-80732380D02*
X146446952Y-80732380D01*
X146113619Y-81113333D01*
X146256476Y-81113333D01*
X146351714Y-81160952D01*
X146399333Y-81208571D01*
X146446952Y-81303809D01*
X146446952Y-81541904D01*
X146399333Y-81637142D01*
X146351714Y-81684761D01*
X146256476Y-81732380D01*
X145970761Y-81732380D01*
X145875523Y-81684761D01*
X145827904Y-81637142D01*
X146732666Y-80732380D02*
X147066000Y-81732380D01*
X147399333Y-80732380D01*
X147637428Y-80732380D02*
X148256476Y-80732380D01*
X147923142Y-81113333D01*
X148066000Y-81113333D01*
X148161238Y-81160952D01*
X148208857Y-81208571D01*
X148256476Y-81303809D01*
X148256476Y-81541904D01*
X148208857Y-81637142D01*
X148161238Y-81684761D01*
X148066000Y-81732380D01*
X147780285Y-81732380D01*
X147685047Y-81684761D01*
X147637428Y-81637142D01*
X146327904Y-79954380D02*
X146327904Y-78954380D01*
X146566000Y-78954380D01*
X146708857Y-79002000D01*
X146804095Y-79097238D01*
X146851714Y-79192476D01*
X146899333Y-79382952D01*
X146899333Y-79525809D01*
X146851714Y-79716285D01*
X146804095Y-79811523D01*
X146708857Y-79906761D01*
X146566000Y-79954380D01*
X146327904Y-79954380D01*
X147756476Y-78954380D02*
X147566000Y-78954380D01*
X147470761Y-79002000D01*
X147423142Y-79049619D01*
X147327904Y-79192476D01*
X147280285Y-79382952D01*
X147280285Y-79763904D01*
X147327904Y-79859142D01*
X147375523Y-79906761D01*
X147470761Y-79954380D01*
X147661238Y-79954380D01*
X147756476Y-79906761D01*
X147804095Y-79859142D01*
X147851714Y-79763904D01*
X147851714Y-79525809D01*
X147804095Y-79430571D01*
X147756476Y-79382952D01*
X147661238Y-79335333D01*
X147470761Y-79335333D01*
X147375523Y-79382952D01*
X147327904Y-79430571D01*
X147280285Y-79525809D01*
X149860095Y-77351000D02*
X149764857Y-77303380D01*
X149622000Y-77303380D01*
X149479142Y-77351000D01*
X149383904Y-77446238D01*
X149336285Y-77541476D01*
X149288666Y-77731952D01*
X149288666Y-77874809D01*
X149336285Y-78065285D01*
X149383904Y-78160523D01*
X149479142Y-78255761D01*
X149622000Y-78303380D01*
X149717238Y-78303380D01*
X149860095Y-78255761D01*
X149907714Y-78208142D01*
X149907714Y-77874809D01*
X149717238Y-77874809D01*
X150336285Y-78303380D02*
X150336285Y-77303380D01*
X150907714Y-78303380D01*
X150907714Y-77303380D01*
X151383904Y-78303380D02*
X151383904Y-77303380D01*
X151622000Y-77303380D01*
X151764857Y-77351000D01*
X151860095Y-77446238D01*
X151907714Y-77541476D01*
X151955333Y-77731952D01*
X151955333Y-77874809D01*
X151907714Y-78065285D01*
X151860095Y-78160523D01*
X151764857Y-78255761D01*
X151622000Y-78303380D01*
X151383904Y-78303380D01*
X149907714Y-79668666D02*
X150383904Y-79668666D01*
X149812476Y-79954380D02*
X150145809Y-78954380D01*
X150479142Y-79954380D01*
X151002952Y-78954380D02*
X151098190Y-78954380D01*
X151193428Y-79002000D01*
X151241047Y-79049619D01*
X151288666Y-79144857D01*
X151336285Y-79335333D01*
X151336285Y-79573428D01*
X151288666Y-79763904D01*
X151241047Y-79859142D01*
X151193428Y-79906761D01*
X151098190Y-79954380D01*
X151002952Y-79954380D01*
X150907714Y-79906761D01*
X150860095Y-79859142D01*
X150812476Y-79763904D01*
X150764857Y-79573428D01*
X150764857Y-79335333D01*
X150812476Y-79144857D01*
X150860095Y-79049619D01*
X150907714Y-79002000D01*
X151002952Y-78954380D01*
X149383904Y-80732380D02*
X150002952Y-80732380D01*
X149669619Y-81113333D01*
X149812476Y-81113333D01*
X149907714Y-81160952D01*
X149955333Y-81208571D01*
X150002952Y-81303809D01*
X150002952Y-81541904D01*
X149955333Y-81637142D01*
X149907714Y-81684761D01*
X149812476Y-81732380D01*
X149526761Y-81732380D01*
X149431523Y-81684761D01*
X149383904Y-81637142D01*
X150288666Y-80732380D02*
X150622000Y-81732380D01*
X150955333Y-80732380D01*
X151193428Y-80732380D02*
X151812476Y-80732380D01*
X151479142Y-81113333D01*
X151622000Y-81113333D01*
X151717238Y-81160952D01*
X151764857Y-81208571D01*
X151812476Y-81303809D01*
X151812476Y-81541904D01*
X151764857Y-81637142D01*
X151717238Y-81684761D01*
X151622000Y-81732380D01*
X151336285Y-81732380D01*
X151241047Y-81684761D01*
X151193428Y-81637142D01*
X136390142Y-78938380D02*
X135913952Y-78938380D01*
X135913952Y-77938380D01*
X136723476Y-78414571D02*
X137056809Y-78414571D01*
X137199666Y-78938380D02*
X136723476Y-78938380D01*
X136723476Y-77938380D01*
X137199666Y-77938380D01*
X137628238Y-78938380D02*
X137628238Y-77938380D01*
X137866333Y-77938380D01*
X138009190Y-77986000D01*
X138104428Y-78081238D01*
X138152047Y-78176476D01*
X138199666Y-78366952D01*
X138199666Y-78509809D01*
X138152047Y-78700285D01*
X138104428Y-78795523D01*
X138009190Y-78890761D01*
X137866333Y-78938380D01*
X137628238Y-78938380D01*
X133366000Y-83129380D02*
X133032666Y-82653190D01*
X132794571Y-83129380D02*
X132794571Y-82129380D01*
X133175523Y-82129380D01*
X133270761Y-82177000D01*
X133318380Y-82224619D01*
X133366000Y-82319857D01*
X133366000Y-82462714D01*
X133318380Y-82557952D01*
X133270761Y-82605571D01*
X133175523Y-82653190D01*
X132794571Y-82653190D01*
X133794571Y-82605571D02*
X134127904Y-82605571D01*
X134270761Y-83129380D02*
X133794571Y-83129380D01*
X133794571Y-82129380D01*
X134270761Y-82129380D01*
X135175523Y-83129380D02*
X134699333Y-83129380D01*
X134699333Y-82129380D01*
X135508857Y-82605571D02*
X135842190Y-82605571D01*
X135985047Y-83129380D02*
X135508857Y-83129380D01*
X135508857Y-82129380D01*
X135985047Y-82129380D01*
X139382523Y-82129380D02*
X138906333Y-82129380D01*
X138858714Y-82605571D01*
X138906333Y-82557952D01*
X139001571Y-82510333D01*
X139239666Y-82510333D01*
X139334904Y-82557952D01*
X139382523Y-82605571D01*
X139430142Y-82700809D01*
X139430142Y-82938904D01*
X139382523Y-83034142D01*
X139334904Y-83081761D01*
X139239666Y-83129380D01*
X139001571Y-83129380D01*
X138906333Y-83081761D01*
X138858714Y-83034142D01*
X139715857Y-82129380D02*
X140049190Y-83129380D01*
X140382523Y-82129380D01*
X130937095Y-77986000D02*
X130841857Y-77938380D01*
X130699000Y-77938380D01*
X130556142Y-77986000D01*
X130460904Y-78081238D01*
X130413285Y-78176476D01*
X130365666Y-78366952D01*
X130365666Y-78509809D01*
X130413285Y-78700285D01*
X130460904Y-78795523D01*
X130556142Y-78890761D01*
X130699000Y-78938380D01*
X130794238Y-78938380D01*
X130937095Y-78890761D01*
X130984714Y-78843142D01*
X130984714Y-78509809D01*
X130794238Y-78509809D01*
X131413285Y-78938380D02*
X131413285Y-77938380D01*
X131984714Y-78938380D01*
X131984714Y-77938380D01*
X132460904Y-78938380D02*
X132460904Y-77938380D01*
X132699000Y-77938380D01*
X132841857Y-77986000D01*
X132937095Y-78081238D01*
X132984714Y-78176476D01*
X133032333Y-78366952D01*
X133032333Y-78509809D01*
X132984714Y-78700285D01*
X132937095Y-78795523D01*
X132841857Y-78890761D01*
X132699000Y-78938380D01*
X132460904Y-78938380D01*
D11*
X136037609Y-116713000D02*
G75*
G03*
X136037609Y-116713000I-401609J0D01*
G01*
X154588981Y-88265000D02*
G75*
G03*
X154588981Y-88265000I-283981J0D01*
G01*
D10*
X150050523Y-104862380D02*
X149574333Y-104862380D01*
X149526714Y-105338571D01*
X149574333Y-105290952D01*
X149669571Y-105243333D01*
X149907666Y-105243333D01*
X150002904Y-105290952D01*
X150050523Y-105338571D01*
X150098142Y-105433809D01*
X150098142Y-105671904D01*
X150050523Y-105767142D01*
X150002904Y-105814761D01*
X149907666Y-105862380D01*
X149669571Y-105862380D01*
X149574333Y-105814761D01*
X149526714Y-105767142D01*
X150383857Y-104862380D02*
X150717190Y-105862380D01*
X151050523Y-104862380D01*
X119919904Y-107529380D02*
X120538952Y-107529380D01*
X120205619Y-107910333D01*
X120348476Y-107910333D01*
X120443714Y-107957952D01*
X120491333Y-108005571D01*
X120538952Y-108100809D01*
X120538952Y-108338904D01*
X120491333Y-108434142D01*
X120443714Y-108481761D01*
X120348476Y-108529380D01*
X120062761Y-108529380D01*
X119967523Y-108481761D01*
X119919904Y-108434142D01*
X120824666Y-107529380D02*
X121158000Y-108529380D01*
X121491333Y-107529380D01*
X121729428Y-107529380D02*
X122348476Y-107529380D01*
X122015142Y-107910333D01*
X122158000Y-107910333D01*
X122253238Y-107957952D01*
X122300857Y-108005571D01*
X122348476Y-108100809D01*
X122348476Y-108338904D01*
X122300857Y-108434142D01*
X122253238Y-108481761D01*
X122158000Y-108529380D01*
X121872285Y-108529380D01*
X121777047Y-108481761D01*
X121729428Y-108434142D01*
X149479095Y-107450000D02*
X149383857Y-107402380D01*
X149241000Y-107402380D01*
X149098142Y-107450000D01*
X149002904Y-107545238D01*
X148955285Y-107640476D01*
X148907666Y-107830952D01*
X148907666Y-107973809D01*
X148955285Y-108164285D01*
X149002904Y-108259523D01*
X149098142Y-108354761D01*
X149241000Y-108402380D01*
X149336238Y-108402380D01*
X149479095Y-108354761D01*
X149526714Y-108307142D01*
X149526714Y-107973809D01*
X149336238Y-107973809D01*
X149955285Y-108402380D02*
X149955285Y-107402380D01*
X150526714Y-108402380D01*
X150526714Y-107402380D01*
X151002904Y-108402380D02*
X151002904Y-107402380D01*
X151241000Y-107402380D01*
X151383857Y-107450000D01*
X151479095Y-107545238D01*
X151526714Y-107640476D01*
X151574333Y-107830952D01*
X151574333Y-107973809D01*
X151526714Y-108164285D01*
X151479095Y-108259523D01*
X151383857Y-108354761D01*
X151241000Y-108402380D01*
X151002904Y-108402380D01*
X149502904Y-103322380D02*
X149502904Y-102322380D01*
X149741000Y-102322380D01*
X149883857Y-102370000D01*
X149979095Y-102465238D01*
X150026714Y-102560476D01*
X150074333Y-102750952D01*
X150074333Y-102893809D01*
X150026714Y-103084285D01*
X149979095Y-103179523D01*
X149883857Y-103274761D01*
X149741000Y-103322380D01*
X149502904Y-103322380D01*
X150931476Y-102655714D02*
X150931476Y-103322380D01*
X150693380Y-102274761D02*
X150455285Y-102989047D01*
X151074333Y-102989047D01*
X149502904Y-100782380D02*
X149502904Y-99782380D01*
X149741000Y-99782380D01*
X149883857Y-99830000D01*
X149979095Y-99925238D01*
X150026714Y-100020476D01*
X150074333Y-100210952D01*
X150074333Y-100353809D01*
X150026714Y-100544285D01*
X149979095Y-100639523D01*
X149883857Y-100734761D01*
X149741000Y-100782380D01*
X149502904Y-100782380D01*
X150407666Y-99782380D02*
X151026714Y-99782380D01*
X150693380Y-100163333D01*
X150836238Y-100163333D01*
X150931476Y-100210952D01*
X150979095Y-100258571D01*
X151026714Y-100353809D01*
X151026714Y-100591904D01*
X150979095Y-100687142D01*
X150931476Y-100734761D01*
X150836238Y-100782380D01*
X150550523Y-100782380D01*
X150455285Y-100734761D01*
X150407666Y-100687142D01*
X149502904Y-98115380D02*
X149502904Y-97115380D01*
X149741000Y-97115380D01*
X149883857Y-97163000D01*
X149979095Y-97258238D01*
X150026714Y-97353476D01*
X150074333Y-97543952D01*
X150074333Y-97686809D01*
X150026714Y-97877285D01*
X149979095Y-97972523D01*
X149883857Y-98067761D01*
X149741000Y-98115380D01*
X149502904Y-98115380D01*
X150455285Y-97210619D02*
X150502904Y-97163000D01*
X150598142Y-97115380D01*
X150836238Y-97115380D01*
X150931476Y-97163000D01*
X150979095Y-97210619D01*
X151026714Y-97305857D01*
X151026714Y-97401095D01*
X150979095Y-97543952D01*
X150407666Y-98115380D01*
X151026714Y-98115380D01*
X149502904Y-95575380D02*
X149502904Y-94575380D01*
X149741000Y-94575380D01*
X149883857Y-94623000D01*
X149979095Y-94718238D01*
X150026714Y-94813476D01*
X150074333Y-95003952D01*
X150074333Y-95146809D01*
X150026714Y-95337285D01*
X149979095Y-95432523D01*
X149883857Y-95527761D01*
X149741000Y-95575380D01*
X149502904Y-95575380D01*
X151026714Y-95575380D02*
X150455285Y-95575380D01*
X150741000Y-95575380D02*
X150741000Y-94575380D01*
X150645761Y-94718238D01*
X150550523Y-94813476D01*
X150455285Y-94861095D01*
X150074333Y-93035380D02*
X149741000Y-92559190D01*
X149502904Y-93035380D02*
X149502904Y-92035380D01*
X149883857Y-92035380D01*
X149979095Y-92083000D01*
X150026714Y-92130619D01*
X150074333Y-92225857D01*
X150074333Y-92368714D01*
X150026714Y-92463952D01*
X149979095Y-92511571D01*
X149883857Y-92559190D01*
X149502904Y-92559190D01*
X150407666Y-92035380D02*
X151074333Y-93035380D01*
X151074333Y-92035380D02*
X150407666Y-93035380D01*
X149479095Y-89495380D02*
X150050523Y-89495380D01*
X149764809Y-90495380D02*
X149764809Y-89495380D01*
X150288619Y-89495380D02*
X150955285Y-90495380D01*
X150955285Y-89495380D02*
X150288619Y-90495380D01*
X120292904Y-105862380D02*
X120292904Y-104862380D01*
X120531000Y-104862380D01*
X120673857Y-104910000D01*
X120769095Y-105005238D01*
X120816714Y-105100476D01*
X120864333Y-105290952D01*
X120864333Y-105433809D01*
X120816714Y-105624285D01*
X120769095Y-105719523D01*
X120673857Y-105814761D01*
X120531000Y-105862380D01*
X120292904Y-105862380D01*
X121435761Y-105290952D02*
X121340523Y-105243333D01*
X121292904Y-105195714D01*
X121245285Y-105100476D01*
X121245285Y-105052857D01*
X121292904Y-104957619D01*
X121340523Y-104910000D01*
X121435761Y-104862380D01*
X121626238Y-104862380D01*
X121721476Y-104910000D01*
X121769095Y-104957619D01*
X121816714Y-105052857D01*
X121816714Y-105100476D01*
X121769095Y-105195714D01*
X121721476Y-105243333D01*
X121626238Y-105290952D01*
X121435761Y-105290952D01*
X121340523Y-105338571D01*
X121292904Y-105386190D01*
X121245285Y-105481428D01*
X121245285Y-105671904D01*
X121292904Y-105767142D01*
X121340523Y-105814761D01*
X121435761Y-105862380D01*
X121626238Y-105862380D01*
X121721476Y-105814761D01*
X121769095Y-105767142D01*
X121816714Y-105671904D01*
X121816714Y-105481428D01*
X121769095Y-105386190D01*
X121721476Y-105338571D01*
X121626238Y-105290952D01*
X120292904Y-103322380D02*
X120292904Y-102322380D01*
X120531000Y-102322380D01*
X120673857Y-102370000D01*
X120769095Y-102465238D01*
X120816714Y-102560476D01*
X120864333Y-102750952D01*
X120864333Y-102893809D01*
X120816714Y-103084285D01*
X120769095Y-103179523D01*
X120673857Y-103274761D01*
X120531000Y-103322380D01*
X120292904Y-103322380D01*
X121197666Y-102322380D02*
X121864333Y-102322380D01*
X121435761Y-103322380D01*
X120292904Y-100782380D02*
X120292904Y-99782380D01*
X120531000Y-99782380D01*
X120673857Y-99830000D01*
X120769095Y-99925238D01*
X120816714Y-100020476D01*
X120864333Y-100210952D01*
X120864333Y-100353809D01*
X120816714Y-100544285D01*
X120769095Y-100639523D01*
X120673857Y-100734761D01*
X120531000Y-100782380D01*
X120292904Y-100782380D01*
X121721476Y-99782380D02*
X121531000Y-99782380D01*
X121435761Y-99830000D01*
X121388142Y-99877619D01*
X121292904Y-100020476D01*
X121245285Y-100210952D01*
X121245285Y-100591904D01*
X121292904Y-100687142D01*
X121340523Y-100734761D01*
X121435761Y-100782380D01*
X121626238Y-100782380D01*
X121721476Y-100734761D01*
X121769095Y-100687142D01*
X121816714Y-100591904D01*
X121816714Y-100353809D01*
X121769095Y-100258571D01*
X121721476Y-100210952D01*
X121626238Y-100163333D01*
X121435761Y-100163333D01*
X121340523Y-100210952D01*
X121292904Y-100258571D01*
X121245285Y-100353809D01*
X120292904Y-98369380D02*
X120292904Y-97369380D01*
X120531000Y-97369380D01*
X120673857Y-97417000D01*
X120769095Y-97512238D01*
X120816714Y-97607476D01*
X120864333Y-97797952D01*
X120864333Y-97940809D01*
X120816714Y-98131285D01*
X120769095Y-98226523D01*
X120673857Y-98321761D01*
X120531000Y-98369380D01*
X120292904Y-98369380D01*
X121769095Y-97369380D02*
X121292904Y-97369380D01*
X121245285Y-97845571D01*
X121292904Y-97797952D01*
X121388142Y-97750333D01*
X121626238Y-97750333D01*
X121721476Y-97797952D01*
X121769095Y-97845571D01*
X121816714Y-97940809D01*
X121816714Y-98178904D01*
X121769095Y-98274142D01*
X121721476Y-98321761D01*
X121626238Y-98369380D01*
X121388142Y-98369380D01*
X121292904Y-98321761D01*
X121245285Y-98274142D01*
X120292904Y-95829380D02*
X120292904Y-94829380D01*
X120531000Y-94829380D01*
X120673857Y-94877000D01*
X120769095Y-94972238D01*
X120816714Y-95067476D01*
X120864333Y-95257952D01*
X120864333Y-95400809D01*
X120816714Y-95591285D01*
X120769095Y-95686523D01*
X120673857Y-95781761D01*
X120531000Y-95829380D01*
X120292904Y-95829380D01*
X121483380Y-94829380D02*
X121578619Y-94829380D01*
X121673857Y-94877000D01*
X121721476Y-94924619D01*
X121769095Y-95019857D01*
X121816714Y-95210333D01*
X121816714Y-95448428D01*
X121769095Y-95638904D01*
X121721476Y-95734142D01*
X121673857Y-95781761D01*
X121578619Y-95829380D01*
X121483380Y-95829380D01*
X121388142Y-95781761D01*
X121340523Y-95734142D01*
X121292904Y-95638904D01*
X121245285Y-95448428D01*
X121245285Y-95210333D01*
X121292904Y-95019857D01*
X121340523Y-94924619D01*
X121388142Y-94877000D01*
X121483380Y-94829380D01*
X120316714Y-93003666D02*
X120792904Y-93003666D01*
X120221476Y-93289380D02*
X120554809Y-92289380D01*
X120888142Y-93289380D01*
X121411952Y-92289380D02*
X121507190Y-92289380D01*
X121602428Y-92337000D01*
X121650047Y-92384619D01*
X121697666Y-92479857D01*
X121745285Y-92670333D01*
X121745285Y-92908428D01*
X121697666Y-93098904D01*
X121650047Y-93194142D01*
X121602428Y-93241761D01*
X121507190Y-93289380D01*
X121411952Y-93289380D01*
X121316714Y-93241761D01*
X121269095Y-93194142D01*
X121221476Y-93098904D01*
X121173857Y-92908428D01*
X121173857Y-92670333D01*
X121221476Y-92479857D01*
X121269095Y-92384619D01*
X121316714Y-92337000D01*
X121411952Y-92289380D01*
X120483380Y-90495380D02*
X120150047Y-90019190D01*
X119911952Y-90495380D02*
X119911952Y-89495380D01*
X120292904Y-89495380D01*
X120388142Y-89543000D01*
X120435761Y-89590619D01*
X120483380Y-89685857D01*
X120483380Y-89828714D01*
X120435761Y-89923952D01*
X120388142Y-89971571D01*
X120292904Y-90019190D01*
X119911952Y-90019190D01*
X120864333Y-90447761D02*
X121007190Y-90495380D01*
X121245285Y-90495380D01*
X121340523Y-90447761D01*
X121388142Y-90400142D01*
X121435761Y-90304904D01*
X121435761Y-90209666D01*
X121388142Y-90114428D01*
X121340523Y-90066809D01*
X121245285Y-90019190D01*
X121054809Y-89971571D01*
X120959571Y-89923952D01*
X120911952Y-89876333D01*
X120864333Y-89781095D01*
X120864333Y-89685857D01*
X120911952Y-89590619D01*
X120959571Y-89543000D01*
X121054809Y-89495380D01*
X121292904Y-89495380D01*
X121435761Y-89543000D01*
X121721476Y-89495380D02*
X122292904Y-89495380D01*
X122007190Y-90495380D02*
X122007190Y-89495380D01*
D12*
G36*
X155956000Y-108048778D02*
G01*
X155956000Y-113608556D01*
X153980444Y-113608556D01*
X153980444Y-113072333D01*
X155363333Y-113072333D01*
X155363333Y-112818333D01*
X154770666Y-112818333D01*
X154770666Y-112282111D01*
X154573111Y-112282111D01*
X154573111Y-112818333D01*
X154178000Y-112818333D01*
X154178000Y-112253889D01*
X153980444Y-112253889D01*
X153980444Y-111971667D01*
X155363333Y-111971667D01*
X155363333Y-111096778D01*
X155165777Y-111096778D01*
X155165777Y-111717667D01*
X154770666Y-111717667D01*
X154770666Y-111153222D01*
X154573111Y-111153222D01*
X154573111Y-111717667D01*
X154178000Y-111717667D01*
X154178000Y-111096778D01*
X153980444Y-111096778D01*
X153980444Y-110758111D01*
X155363333Y-110758111D01*
X155363333Y-110532333D01*
X155158722Y-110531574D01*
X155046376Y-110528643D01*
X154971409Y-110517539D01*
X154914844Y-110493265D01*
X154860324Y-110453005D01*
X154766537Y-110375196D01*
X155054413Y-110192709D01*
X155167118Y-110119352D01*
X155261274Y-110054460D01*
X155327041Y-110005063D01*
X155354583Y-109978194D01*
X155354591Y-109978173D01*
X155360372Y-109931359D01*
X155359610Y-109854270D01*
X155358058Y-109829664D01*
X155349222Y-109713204D01*
X154956492Y-109966140D01*
X154563762Y-110219075D01*
X154490825Y-110165528D01*
X154436814Y-110124693D01*
X154352654Y-110059733D01*
X154252445Y-109981567D01*
X154199166Y-109939713D01*
X153980444Y-109767444D01*
X153980444Y-109572778D01*
X154178000Y-109572778D01*
X154178000Y-109177667D01*
X155363333Y-109177667D01*
X155363333Y-108923667D01*
X154178000Y-108923667D01*
X154178000Y-108528556D01*
X153980444Y-108528556D01*
X153980444Y-109572778D01*
X153980444Y-109767444D01*
X153982170Y-110038444D01*
X154295348Y-110278333D01*
X154608525Y-110518222D01*
X154294484Y-110526202D01*
X153980444Y-110534182D01*
X153980444Y-110758111D01*
X153980444Y-111096778D01*
X153980444Y-111971667D01*
X153980444Y-112253889D01*
X153980444Y-113072333D01*
X153980444Y-113608556D01*
X153444222Y-113608556D01*
X153444222Y-108048778D01*
X155956000Y-108048778D01*
G37*
X155956000Y-108048778D02*
X155956000Y-113608556D01*
X153980444Y-113608556D01*
X153980444Y-113072333D01*
X155363333Y-113072333D01*
X155363333Y-112818333D01*
X154770666Y-112818333D01*
X154770666Y-112282111D01*
X154573111Y-112282111D01*
X154573111Y-112818333D01*
X154178000Y-112818333D01*
X154178000Y-112253889D01*
X153980444Y-112253889D01*
X153980444Y-111971667D01*
X155363333Y-111971667D01*
X155363333Y-111096778D01*
X155165777Y-111096778D01*
X155165777Y-111717667D01*
X154770666Y-111717667D01*
X154770666Y-111153222D01*
X154573111Y-111153222D01*
X154573111Y-111717667D01*
X154178000Y-111717667D01*
X154178000Y-111096778D01*
X153980444Y-111096778D01*
X153980444Y-110758111D01*
X155363333Y-110758111D01*
X155363333Y-110532333D01*
X155158722Y-110531574D01*
X155046376Y-110528643D01*
X154971409Y-110517539D01*
X154914844Y-110493265D01*
X154860324Y-110453005D01*
X154766537Y-110375196D01*
X155054413Y-110192709D01*
X155167118Y-110119352D01*
X155261274Y-110054460D01*
X155327041Y-110005063D01*
X155354583Y-109978194D01*
X155354591Y-109978173D01*
X155360372Y-109931359D01*
X155359610Y-109854270D01*
X155358058Y-109829664D01*
X155349222Y-109713204D01*
X154956492Y-109966140D01*
X154563762Y-110219075D01*
X154490825Y-110165528D01*
X154436814Y-110124693D01*
X154352654Y-110059733D01*
X154252445Y-109981567D01*
X154199166Y-109939713D01*
X153980444Y-109767444D01*
X153980444Y-109572778D01*
X154178000Y-109572778D01*
X154178000Y-109177667D01*
X155363333Y-109177667D01*
X155363333Y-108923667D01*
X154178000Y-108923667D01*
X154178000Y-108528556D01*
X153980444Y-108528556D01*
X153980444Y-109572778D01*
X153980444Y-109767444D01*
X153982170Y-110038444D01*
X154295348Y-110278333D01*
X154608525Y-110518222D01*
X154294484Y-110526202D01*
X153980444Y-110534182D01*
X153980444Y-110758111D01*
X153980444Y-111096778D01*
X153980444Y-111971667D01*
X153980444Y-112253889D01*
X153980444Y-113072333D01*
X153980444Y-113608556D01*
X153444222Y-113608556D01*
X153444222Y-108048778D01*
X155956000Y-108048778D01*
G36*
X155956000Y-113721444D02*
G01*
X155956000Y-116233222D01*
X155563838Y-116233222D01*
X155563838Y-115047889D01*
X155555308Y-114899722D01*
X155546777Y-114751556D01*
X155010555Y-114744439D01*
X154805690Y-114741563D01*
X154650387Y-114736378D01*
X154537791Y-114724814D01*
X154461046Y-114702800D01*
X154413298Y-114666268D01*
X154387691Y-114611147D01*
X154377370Y-114533367D01*
X154375480Y-114428858D01*
X154375555Y-114367429D01*
X154375555Y-114116556D01*
X154121555Y-114116556D01*
X154121555Y-115047889D01*
X155563838Y-115047889D01*
X155563838Y-116233222D01*
X154121555Y-116233222D01*
X154121555Y-115841061D01*
X154121555Y-115047889D01*
X153809518Y-115047889D01*
X153817370Y-115435944D01*
X153825222Y-115824000D01*
X153973388Y-115832530D01*
X154121555Y-115841061D01*
X154121555Y-116233222D01*
X153444222Y-116233222D01*
X153444222Y-113721444D01*
X155956000Y-113721444D01*
G37*
X155956000Y-113721444D02*
X155956000Y-116233222D01*
X155563838Y-116233222D01*
X155563838Y-115047889D01*
X155555308Y-114899722D01*
X155546777Y-114751556D01*
X155010555Y-114744439D01*
X154805690Y-114741563D01*
X154650387Y-114736378D01*
X154537791Y-114724814D01*
X154461046Y-114702800D01*
X154413298Y-114666268D01*
X154387691Y-114611147D01*
X154377370Y-114533367D01*
X154375480Y-114428858D01*
X154375555Y-114367429D01*
X154375555Y-114116556D01*
X154121555Y-114116556D01*
X154121555Y-115047889D01*
X155563838Y-115047889D01*
X155563838Y-116233222D01*
X154121555Y-116233222D01*
X154121555Y-115841061D01*
X154121555Y-115047889D01*
X153809518Y-115047889D01*
X153817370Y-115435944D01*
X153825222Y-115824000D01*
X153973388Y-115832530D01*
X154121555Y-115841061D01*
X154121555Y-116233222D01*
X153444222Y-116233222D01*
X153444222Y-113721444D01*
X155956000Y-113721444D01*
D11*
X122556600Y-121920000D02*
X122556600Y-122859800D01*
X122556600Y-117538600D02*
X122556600Y-114308600D01*
X123276600Y-112388600D02*
X124356600Y-112388600D01*
X128576600Y-112388600D02*
X129656600Y-112388600D01*
X130376600Y-117538600D02*
X130376600Y-114308600D01*
X130378200Y-121869200D02*
X130378200Y-122859800D01*
X124356600Y-112388600D02*
X124356600Y-111958600D01*
X130376600Y-122859800D02*
X122556600Y-122859800D01*
X153035000Y-88920000D02*
X156485000Y-88920000D01*
X153035000Y-88920000D02*
X151085000Y-88920000D01*
X153035000Y-83800000D02*
X154985000Y-83800000D01*
X153035000Y-83800000D02*
X151085000Y-83800000D01*
X147066000Y-109280000D02*
X145736000Y-109280000D01*
X145736000Y-109280000D02*
X145736000Y-107950000D01*
X145736000Y-106680000D02*
X145736000Y-88840000D01*
X148396000Y-88840000D02*
X145736000Y-88840000D01*
X148396000Y-106680000D02*
X148396000Y-88840000D01*
X148396000Y-106680000D02*
X145736000Y-106680000D01*
X127643000Y-91004000D02*
X127033000Y-91004000D01*
X127643000Y-91004000D02*
X127643000Y-83384000D01*
X127643000Y-107624000D02*
X127643000Y-107004000D01*
X129763000Y-107624000D02*
X127643000Y-107624000D01*
X143883000Y-107624000D02*
X141763000Y-107624000D01*
X143883000Y-107004000D02*
X143883000Y-107624000D01*
X143883000Y-83384000D02*
X143883000Y-91004000D01*
X127643000Y-83384000D02*
X143883000Y-83384000D01*
X127535000Y-80510748D02*
X127535000Y-81033252D01*
X129005000Y-80510748D02*
X129005000Y-81033252D01*
X126418000Y-81735000D02*
X125928000Y-81245000D01*
X126418000Y-84635000D02*
X126418000Y-81735000D01*
X126418000Y-84635000D02*
X125928000Y-85125000D01*
X120978000Y-84635000D02*
X120978000Y-81735000D01*
X120978000Y-84635000D02*
X121468000Y-85125000D01*
X124738000Y-80465000D02*
X122658000Y-80465000D01*
X120978000Y-81735000D02*
X121468000Y-81245000D01*
X124738000Y-85905000D02*
X122658000Y-85905000D01*
X117247936Y-95858000D02*
X117702064Y-95858000D01*
X117247936Y-94388000D02*
X117702064Y-94388000D01*
X153770064Y-94842000D02*
X153315936Y-94842000D01*
X153770064Y-93372000D02*
X153315936Y-93372000D01*
X153315936Y-96801000D02*
X153770064Y-96801000D01*
X153315936Y-98271000D02*
X153770064Y-98271000D01*
X153061936Y-104875000D02*
X153516064Y-104875000D01*
X153061936Y-103405000D02*
X153516064Y-103405000D01*
X117224436Y-98525000D02*
X117678564Y-98525000D01*
X117224436Y-97055000D02*
X117678564Y-97055000D01*
X153188936Y-101573000D02*
X153643064Y-101573000D01*
X153188936Y-100103000D02*
X153643064Y-100103000D01*
X140649000Y-80645000D02*
X140649000Y-81975000D01*
X140649000Y-81975000D02*
X139319000Y-81975000D01*
X138049000Y-81975000D02*
X130369000Y-81975000D01*
X130369000Y-79315000D02*
X130369000Y-81975000D01*
X138049000Y-79315000D02*
X130369000Y-79315000D01*
X138049000Y-79315000D02*
X138049000Y-81975000D01*
X120669000Y-77506000D02*
X120669000Y-71496000D01*
X127489000Y-75256000D02*
X127489000Y-71496000D01*
X120669000Y-71496000D02*
X121929000Y-71496000D01*
X127489000Y-71496000D02*
X126229000Y-71496000D01*
X146848000Y-73596000D02*
X146848000Y-73440000D01*
X146848000Y-75912000D02*
X146848000Y-75756000D01*
X144246870Y-73596163D02*
G75*
G02*
X146328961Y-73596000I1041130J-1079837D01*
G01*
X144246870Y-75755837D02*
G75*
G03*
X146328961Y-75756000I1041130J1079837D01*
G01*
X143615665Y-73597392D02*
G75*
G02*
X146848000Y-73440484I1672335J-1078608D01*
G01*
X143615665Y-75754608D02*
G75*
G03*
X146848000Y-75911516I1672335J1078608D01*
G01*
X149070000Y-118051000D02*
X149070000Y-113851000D01*
X145570000Y-118051000D02*
X149070000Y-118051000D01*
D10*
X117380000Y-63613000D02*
X115080000Y-63613000D01*
X123680000Y-63613000D02*
X121480000Y-63613000D01*
X123680000Y-68213000D02*
X115080000Y-68213000D01*
D11*
X117247936Y-92429000D02*
X117702064Y-92429000D01*
X117247936Y-90959000D02*
X117702064Y-90959000D01*
X147581252Y-118645000D02*
X147058748Y-118645000D01*
X147581252Y-120115000D02*
X147058748Y-120115000D01*
X147058748Y-113384000D02*
X147581252Y-113384000D01*
X147058748Y-111914000D02*
X147581252Y-111914000D01*
X115089000Y-71366748D02*
X115089000Y-71889252D01*
X116559000Y-71366748D02*
X116559000Y-71889252D01*
X117678564Y-87657000D02*
X117224436Y-87657000D01*
X117678564Y-89127000D02*
X117224436Y-89127000D01*
X119226000Y-105383064D02*
X119226000Y-104928936D01*
X117756000Y-105383064D02*
X117756000Y-104928936D01*
X115597000Y-104928936D02*
X115597000Y-105383064D01*
X117067000Y-104928936D02*
X117067000Y-105383064D01*
X149325000Y-75030064D02*
X149325000Y-74575936D01*
X147855000Y-75030064D02*
X147855000Y-74575936D01*
X134640000Y-115951000D02*
X134640000Y-119401000D01*
X134640000Y-115951000D02*
X134640000Y-114001000D01*
X144760000Y-115951000D02*
X144760000Y-117901000D01*
X144760000Y-115951000D02*
X144760000Y-114001000D01*
X115895000Y-109853000D02*
X115895000Y-108393000D01*
X119055000Y-109853000D02*
X119055000Y-107693000D01*
X119055000Y-109853000D02*
X118125000Y-109853000D01*
X115895000Y-109853000D02*
X116825000Y-109853000D01*
X119055000Y-100332000D02*
X118125000Y-100332000D01*
X115895000Y-100332000D02*
X116825000Y-100332000D01*
X115895000Y-100332000D02*
X115895000Y-102492000D01*
X119055000Y-100332000D02*
X119055000Y-101792000D01*
X147728000Y-70458064D02*
X147728000Y-70003936D01*
X149198000Y-70458064D02*
X149198000Y-70003936D01*
X125536000Y-106680000D02*
X122876000Y-106680000D01*
X125536000Y-106680000D02*
X125536000Y-88840000D01*
X125536000Y-88840000D02*
X122876000Y-88840000D01*
X122876000Y-106680000D02*
X122876000Y-88840000D01*
X122876000Y-109280000D02*
X122876000Y-107950000D01*
X124206000Y-109280000D02*
X122876000Y-109280000D01*
X148944000Y-85952064D02*
X148944000Y-85497936D01*
X147474000Y-85952064D02*
X147474000Y-85497936D01*
X145061000Y-86841064D02*
X145061000Y-86386936D01*
X146531000Y-86841064D02*
X146531000Y-86386936D01*
X154813000Y-72958000D02*
X153483000Y-72958000D01*
X153483000Y-72958000D02*
X153483000Y-71628000D01*
X153483000Y-70358000D02*
X153483000Y-65218000D01*
X156143000Y-65218000D02*
X153483000Y-65218000D01*
X156143000Y-70358000D02*
X156143000Y-65218000D01*
X156143000Y-70358000D02*
X153483000Y-70358000D01*
X153603000Y-70358000D02*
X150943000Y-70358000D01*
X153603000Y-70358000D02*
X153603000Y-65218000D01*
X153603000Y-65218000D02*
X150943000Y-65218000D01*
X150943000Y-70358000D02*
X150943000Y-65218000D01*
X150943000Y-72958000D02*
X150943000Y-71628000D01*
X152273000Y-72958000D02*
X150943000Y-72958000D01*
X133259000Y-73596000D02*
X133259000Y-73440000D01*
X133259000Y-75912000D02*
X133259000Y-75756000D01*
X130657870Y-73596163D02*
G75*
G02*
X132739961Y-73596000I1041130J-1079837D01*
G01*
X130657870Y-75755837D02*
G75*
G03*
X132739961Y-75756000I1041130J1079837D01*
G01*
X130026665Y-73597392D02*
G75*
G02*
X133259000Y-73440484I1672335J-1078608D01*
G01*
X130026665Y-75754608D02*
G75*
G03*
X133259000Y-75911516I1672335J1078608D01*
G01*
X139990000Y-76039000D02*
X139990000Y-75883000D01*
X139990000Y-73723000D02*
X139990000Y-73567000D01*
X136757665Y-75881608D02*
G75*
G03*
X139990000Y-76038516I1672335J1078608D01*
G01*
X136757665Y-73724392D02*
G75*
G02*
X139990000Y-73567484I1672335J-1078608D01*
G01*
X137388870Y-75882837D02*
G75*
G03*
X139470961Y-75883000I1041130J1079837D01*
G01*
X137388870Y-73723163D02*
G75*
G02*
X139470961Y-73723000I1041130J-1079837D01*
G01*
X133294000Y-70737000D02*
X134224000Y-70737000D01*
X136454000Y-70737000D02*
X135524000Y-70737000D01*
X136454000Y-70737000D02*
X136454000Y-68577000D01*
X133294000Y-70737000D02*
X133294000Y-69277000D01*
X129059000Y-69622936D02*
X129059000Y-70077064D01*
X130529000Y-69622936D02*
X130529000Y-70077064D01*
X134266000Y-76300064D02*
X134266000Y-75845936D01*
X135736000Y-76300064D02*
X135736000Y-75845936D01*
X142721000Y-75972936D02*
X142721000Y-76427064D01*
X141251000Y-75972936D02*
X141251000Y-76427064D01*
D10*
X117838023Y-114895380D02*
X117838023Y-115609666D01*
X117790404Y-115752523D01*
X117695166Y-115847761D01*
X117552309Y-115895380D01*
X117457071Y-115895380D01*
X118838023Y-115895380D02*
X118266595Y-115895380D01*
X118552309Y-115895380D02*
X118552309Y-114895380D01*
X118457071Y-115038238D01*
X118361833Y-115133476D01*
X118266595Y-115181095D01*
X154813095Y-82129380D02*
X154813095Y-82938904D01*
X154860714Y-83034142D01*
X154908333Y-83081761D01*
X155003571Y-83129380D01*
X155194047Y-83129380D01*
X155289285Y-83081761D01*
X155336904Y-83034142D01*
X155384523Y-82938904D01*
X155384523Y-82129380D01*
X156289285Y-82129380D02*
X156098809Y-82129380D01*
X156003571Y-82177000D01*
X155955952Y-82224619D01*
X155860714Y-82367476D01*
X155813095Y-82557952D01*
X155813095Y-82938904D01*
X155860714Y-83034142D01*
X155908333Y-83081761D01*
X156003571Y-83129380D01*
X156194047Y-83129380D01*
X156289285Y-83081761D01*
X156336904Y-83034142D01*
X156384523Y-82938904D01*
X156384523Y-82700809D01*
X156336904Y-82605571D01*
X156289285Y-82557952D01*
X156194047Y-82510333D01*
X156003571Y-82510333D01*
X155908333Y-82557952D01*
X155860714Y-82605571D01*
X155813095Y-82700809D01*
X146256476Y-110069380D02*
X146256476Y-110783666D01*
X146208857Y-110926523D01*
X146113619Y-111021761D01*
X145970761Y-111069380D01*
X145875523Y-111069380D01*
X147256476Y-111069380D02*
X146685047Y-111069380D01*
X146970761Y-111069380D02*
X146970761Y-110069380D01*
X146875523Y-110212238D01*
X146780285Y-110307476D01*
X146685047Y-110355095D01*
X147875523Y-110069380D02*
X147970761Y-110069380D01*
X148066000Y-110117000D01*
X148113619Y-110164619D01*
X148161238Y-110259857D01*
X148208857Y-110450333D01*
X148208857Y-110688428D01*
X148161238Y-110878904D01*
X148113619Y-110974142D01*
X148066000Y-111021761D01*
X147970761Y-111069380D01*
X147875523Y-111069380D01*
X147780285Y-111021761D01*
X147732666Y-110974142D01*
X147685047Y-110878904D01*
X147637428Y-110688428D01*
X147637428Y-110450333D01*
X147685047Y-110259857D01*
X147732666Y-110164619D01*
X147780285Y-110117000D01*
X147875523Y-110069380D01*
X135001095Y-109307380D02*
X135001095Y-110116904D01*
X135048714Y-110212142D01*
X135096333Y-110259761D01*
X135191571Y-110307380D01*
X135382047Y-110307380D01*
X135477285Y-110259761D01*
X135524904Y-110212142D01*
X135572523Y-110116904D01*
X135572523Y-109307380D01*
X136572523Y-110307380D02*
X136001095Y-110307380D01*
X136286809Y-110307380D02*
X136286809Y-109307380D01*
X136191571Y-109450238D01*
X136096333Y-109545476D01*
X136001095Y-109593095D01*
X127976333Y-78843142D02*
X127928714Y-78890761D01*
X127785857Y-78938380D01*
X127690619Y-78938380D01*
X127547761Y-78890761D01*
X127452523Y-78795523D01*
X127404904Y-78700285D01*
X127357285Y-78509809D01*
X127357285Y-78366952D01*
X127404904Y-78176476D01*
X127452523Y-78081238D01*
X127547761Y-77986000D01*
X127690619Y-77938380D01*
X127785857Y-77938380D01*
X127928714Y-77986000D01*
X127976333Y-78033619D01*
X128309666Y-77938380D02*
X128928714Y-77938380D01*
X128595380Y-78319333D01*
X128738238Y-78319333D01*
X128833476Y-78366952D01*
X128881095Y-78414571D01*
X128928714Y-78509809D01*
X128928714Y-78747904D01*
X128881095Y-78843142D01*
X128833476Y-78890761D01*
X128738238Y-78938380D01*
X128452523Y-78938380D01*
X128357285Y-78890761D01*
X128309666Y-78843142D01*
X122364666Y-78763761D02*
X122507523Y-78811380D01*
X122745619Y-78811380D01*
X122840857Y-78763761D01*
X122888476Y-78716142D01*
X122936095Y-78620904D01*
X122936095Y-78525666D01*
X122888476Y-78430428D01*
X122840857Y-78382809D01*
X122745619Y-78335190D01*
X122555142Y-78287571D01*
X122459904Y-78239952D01*
X122412285Y-78192333D01*
X122364666Y-78097095D01*
X122364666Y-78001857D01*
X122412285Y-77906619D01*
X122459904Y-77859000D01*
X122555142Y-77811380D01*
X122793238Y-77811380D01*
X122936095Y-77859000D01*
X123269428Y-77811380D02*
X123507523Y-78811380D01*
X123698000Y-78097095D01*
X123888476Y-78811380D01*
X124126571Y-77811380D01*
X125031333Y-78811380D02*
X124459904Y-78811380D01*
X124745619Y-78811380D02*
X124745619Y-77811380D01*
X124650380Y-77954238D01*
X124555142Y-78049476D01*
X124459904Y-78097095D01*
X114514333Y-95575380D02*
X114181000Y-95099190D01*
X113942904Y-95575380D02*
X113942904Y-94575380D01*
X114323857Y-94575380D01*
X114419095Y-94623000D01*
X114466714Y-94670619D01*
X114514333Y-94765857D01*
X114514333Y-94908714D01*
X114466714Y-95003952D01*
X114419095Y-95051571D01*
X114323857Y-95099190D01*
X113942904Y-95099190D01*
X115085761Y-95003952D02*
X114990523Y-94956333D01*
X114942904Y-94908714D01*
X114895285Y-94813476D01*
X114895285Y-94765857D01*
X114942904Y-94670619D01*
X114990523Y-94623000D01*
X115085761Y-94575380D01*
X115276238Y-94575380D01*
X115371476Y-94623000D01*
X115419095Y-94670619D01*
X115466714Y-94765857D01*
X115466714Y-94813476D01*
X115419095Y-94908714D01*
X115371476Y-94956333D01*
X115276238Y-95003952D01*
X115085761Y-95003952D01*
X114990523Y-95051571D01*
X114942904Y-95099190D01*
X114895285Y-95194428D01*
X114895285Y-95384904D01*
X114942904Y-95480142D01*
X114990523Y-95527761D01*
X115085761Y-95575380D01*
X115276238Y-95575380D01*
X115371476Y-95527761D01*
X115419095Y-95480142D01*
X115466714Y-95384904D01*
X115466714Y-95194428D01*
X115419095Y-95099190D01*
X115371476Y-95051571D01*
X115276238Y-95003952D01*
X156789380Y-94273666D02*
X156313190Y-94607000D01*
X156789380Y-94845095D02*
X155789380Y-94845095D01*
X155789380Y-94464142D01*
X155837000Y-94368904D01*
X155884619Y-94321285D01*
X155979857Y-94273666D01*
X156122714Y-94273666D01*
X156217952Y-94321285D01*
X156265571Y-94368904D01*
X156313190Y-94464142D01*
X156313190Y-94845095D01*
X156122714Y-93416523D02*
X156789380Y-93416523D01*
X155741761Y-93654619D02*
X156456047Y-93892714D01*
X156456047Y-93273666D01*
X156789380Y-97702666D02*
X156313190Y-98036000D01*
X156789380Y-98274095D02*
X155789380Y-98274095D01*
X155789380Y-97893142D01*
X155837000Y-97797904D01*
X155884619Y-97750285D01*
X155979857Y-97702666D01*
X156122714Y-97702666D01*
X156217952Y-97750285D01*
X156265571Y-97797904D01*
X156313190Y-97893142D01*
X156313190Y-98274095D01*
X155789380Y-97369333D02*
X155789380Y-96750285D01*
X156170333Y-97083619D01*
X156170333Y-96940761D01*
X156217952Y-96845523D01*
X156265571Y-96797904D01*
X156360809Y-96750285D01*
X156598904Y-96750285D01*
X156694142Y-96797904D01*
X156741761Y-96845523D01*
X156789380Y-96940761D01*
X156789380Y-97226476D01*
X156741761Y-97321714D01*
X156694142Y-97369333D01*
X156662380Y-104782857D02*
X156186190Y-105116190D01*
X156662380Y-105354285D02*
X155662380Y-105354285D01*
X155662380Y-104973333D01*
X155710000Y-104878095D01*
X155757619Y-104830476D01*
X155852857Y-104782857D01*
X155995714Y-104782857D01*
X156090952Y-104830476D01*
X156138571Y-104878095D01*
X156186190Y-104973333D01*
X156186190Y-105354285D01*
X156662380Y-103830476D02*
X156662380Y-104401904D01*
X156662380Y-104116190D02*
X155662380Y-104116190D01*
X155805238Y-104211428D01*
X155900476Y-104306666D01*
X155948095Y-104401904D01*
X155662380Y-103211428D02*
X155662380Y-103116190D01*
X155710000Y-103020952D01*
X155757619Y-102973333D01*
X155852857Y-102925714D01*
X156043333Y-102878095D01*
X156281428Y-102878095D01*
X156471904Y-102925714D01*
X156567142Y-102973333D01*
X156614761Y-103020952D01*
X156662380Y-103116190D01*
X156662380Y-103211428D01*
X156614761Y-103306666D01*
X156567142Y-103354285D01*
X156471904Y-103401904D01*
X156281428Y-103449523D01*
X156043333Y-103449523D01*
X155852857Y-103401904D01*
X155757619Y-103354285D01*
X155710000Y-103306666D01*
X155662380Y-103211428D01*
X114514333Y-98242380D02*
X114181000Y-97766190D01*
X113942904Y-98242380D02*
X113942904Y-97242380D01*
X114323857Y-97242380D01*
X114419095Y-97290000D01*
X114466714Y-97337619D01*
X114514333Y-97432857D01*
X114514333Y-97575714D01*
X114466714Y-97670952D01*
X114419095Y-97718571D01*
X114323857Y-97766190D01*
X113942904Y-97766190D01*
X114990523Y-98242380D02*
X115181000Y-98242380D01*
X115276238Y-98194761D01*
X115323857Y-98147142D01*
X115419095Y-98004285D01*
X115466714Y-97813809D01*
X115466714Y-97432857D01*
X115419095Y-97337619D01*
X115371476Y-97290000D01*
X115276238Y-97242380D01*
X115085761Y-97242380D01*
X114990523Y-97290000D01*
X114942904Y-97337619D01*
X114895285Y-97432857D01*
X114895285Y-97670952D01*
X114942904Y-97766190D01*
X114990523Y-97813809D01*
X115085761Y-97861428D01*
X115276238Y-97861428D01*
X115371476Y-97813809D01*
X115419095Y-97766190D01*
X115466714Y-97670952D01*
X156662380Y-101004666D02*
X156186190Y-101338000D01*
X156662380Y-101576095D02*
X155662380Y-101576095D01*
X155662380Y-101195142D01*
X155710000Y-101099904D01*
X155757619Y-101052285D01*
X155852857Y-101004666D01*
X155995714Y-101004666D01*
X156090952Y-101052285D01*
X156138571Y-101099904D01*
X156186190Y-101195142D01*
X156186190Y-101576095D01*
X155662380Y-100671333D02*
X155662380Y-100004666D01*
X156662380Y-100433238D01*
X141398666Y-80097380D02*
X141398666Y-80811666D01*
X141351047Y-80954523D01*
X141255809Y-81049761D01*
X141112952Y-81097380D01*
X141017714Y-81097380D01*
X141827238Y-80192619D02*
X141874857Y-80145000D01*
X141970095Y-80097380D01*
X142208190Y-80097380D01*
X142303428Y-80145000D01*
X142351047Y-80192619D01*
X142398666Y-80287857D01*
X142398666Y-80383095D01*
X142351047Y-80525952D01*
X141779619Y-81097380D01*
X142398666Y-81097380D01*
X119086380Y-73659904D02*
X119895904Y-73659904D01*
X119991142Y-73612285D01*
X120038761Y-73564666D01*
X120086380Y-73469428D01*
X120086380Y-73278952D01*
X120038761Y-73183714D01*
X119991142Y-73136095D01*
X119895904Y-73088476D01*
X119086380Y-73088476D01*
X119086380Y-72136095D02*
X119086380Y-72612285D01*
X119562571Y-72659904D01*
X119514952Y-72612285D01*
X119467333Y-72517047D01*
X119467333Y-72278952D01*
X119514952Y-72183714D01*
X119562571Y-72136095D01*
X119657809Y-72088476D01*
X119895904Y-72088476D01*
X119991142Y-72136095D01*
X120038761Y-72183714D01*
X120086380Y-72278952D01*
X120086380Y-72517047D01*
X120038761Y-72612285D01*
X119991142Y-72659904D01*
X144549904Y-72334380D02*
X144549904Y-71334380D01*
X144788000Y-71334380D01*
X144930857Y-71382000D01*
X145026095Y-71477238D01*
X145073714Y-71572476D01*
X145121333Y-71762952D01*
X145121333Y-71905809D01*
X145073714Y-72096285D01*
X145026095Y-72191523D01*
X144930857Y-72286761D01*
X144788000Y-72334380D01*
X144549904Y-72334380D01*
X145502285Y-71429619D02*
X145549904Y-71382000D01*
X145645142Y-71334380D01*
X145883238Y-71334380D01*
X145978476Y-71382000D01*
X146026095Y-71429619D01*
X146073714Y-71524857D01*
X146073714Y-71620095D01*
X146026095Y-71762952D01*
X145454666Y-72334380D01*
X146073714Y-72334380D01*
X150344190Y-116427190D02*
X150820380Y-116427190D01*
X149820380Y-116760523D02*
X150344190Y-116427190D01*
X149820380Y-116093857D01*
X150820380Y-115236714D02*
X150820380Y-115808142D01*
X150820380Y-115522428D02*
X149820380Y-115522428D01*
X149963238Y-115617666D01*
X150058476Y-115712904D01*
X150106095Y-115808142D01*
X125666666Y-65555761D02*
X125809523Y-65603380D01*
X126047619Y-65603380D01*
X126142857Y-65555761D01*
X126190476Y-65508142D01*
X126238095Y-65412904D01*
X126238095Y-65317666D01*
X126190476Y-65222428D01*
X126142857Y-65174809D01*
X126047619Y-65127190D01*
X125857142Y-65079571D01*
X125761904Y-65031952D01*
X125714285Y-64984333D01*
X125666666Y-64889095D01*
X125666666Y-64793857D01*
X125714285Y-64698619D01*
X125761904Y-64651000D01*
X125857142Y-64603380D01*
X126095238Y-64603380D01*
X126238095Y-64651000D01*
X126571428Y-64603380D02*
X126809523Y-65603380D01*
X127000000Y-64889095D01*
X127190476Y-65603380D01*
X127428571Y-64603380D01*
X127761904Y-64698619D02*
X127809523Y-64651000D01*
X127904761Y-64603380D01*
X128142857Y-64603380D01*
X128238095Y-64651000D01*
X128285714Y-64698619D01*
X128333333Y-64793857D01*
X128333333Y-64889095D01*
X128285714Y-65031952D01*
X127714285Y-65603380D01*
X128333333Y-65603380D01*
X114514333Y-92273380D02*
X114181000Y-91797190D01*
X113942904Y-92273380D02*
X113942904Y-91273380D01*
X114323857Y-91273380D01*
X114419095Y-91321000D01*
X114466714Y-91368619D01*
X114514333Y-91463857D01*
X114514333Y-91606714D01*
X114466714Y-91701952D01*
X114419095Y-91749571D01*
X114323857Y-91797190D01*
X113942904Y-91797190D01*
X114895285Y-91368619D02*
X114942904Y-91321000D01*
X115038142Y-91273380D01*
X115276238Y-91273380D01*
X115371476Y-91321000D01*
X115419095Y-91368619D01*
X115466714Y-91463857D01*
X115466714Y-91559095D01*
X115419095Y-91701952D01*
X114847666Y-92273380D01*
X115466714Y-92273380D01*
X150725142Y-119419666D02*
X150772761Y-119467285D01*
X150820380Y-119610142D01*
X150820380Y-119705380D01*
X150772761Y-119848238D01*
X150677523Y-119943476D01*
X150582285Y-119991095D01*
X150391809Y-120038714D01*
X150248952Y-120038714D01*
X150058476Y-119991095D01*
X149963238Y-119943476D01*
X149868000Y-119848238D01*
X149820380Y-119705380D01*
X149820380Y-119610142D01*
X149868000Y-119467285D01*
X149915619Y-119419666D01*
X150820380Y-118467285D02*
X150820380Y-119038714D01*
X150820380Y-118753000D02*
X149820380Y-118753000D01*
X149963238Y-118848238D01*
X150058476Y-118943476D01*
X150106095Y-119038714D01*
X150598142Y-112815666D02*
X150645761Y-112863285D01*
X150693380Y-113006142D01*
X150693380Y-113101380D01*
X150645761Y-113244238D01*
X150550523Y-113339476D01*
X150455285Y-113387095D01*
X150264809Y-113434714D01*
X150121952Y-113434714D01*
X149931476Y-113387095D01*
X149836238Y-113339476D01*
X149741000Y-113244238D01*
X149693380Y-113101380D01*
X149693380Y-113006142D01*
X149741000Y-112863285D01*
X149788619Y-112815666D01*
X149788619Y-112434714D02*
X149741000Y-112387095D01*
X149693380Y-112291857D01*
X149693380Y-112053761D01*
X149741000Y-111958523D01*
X149788619Y-111910904D01*
X149883857Y-111863285D01*
X149979095Y-111863285D01*
X150121952Y-111910904D01*
X150693380Y-112482333D01*
X150693380Y-111863285D01*
X117816333Y-71477142D02*
X117768714Y-71524761D01*
X117625857Y-71572380D01*
X117530619Y-71572380D01*
X117387761Y-71524761D01*
X117292523Y-71429523D01*
X117244904Y-71334285D01*
X117197285Y-71143809D01*
X117197285Y-71000952D01*
X117244904Y-70810476D01*
X117292523Y-70715238D01*
X117387761Y-70620000D01*
X117530619Y-70572380D01*
X117625857Y-70572380D01*
X117768714Y-70620000D01*
X117816333Y-70667619D01*
X118673476Y-70905714D02*
X118673476Y-71572380D01*
X118435380Y-70524761D02*
X118197285Y-71239047D01*
X118816333Y-71239047D01*
X114490833Y-88717380D02*
X114157500Y-88241190D01*
X113919404Y-88717380D02*
X113919404Y-87717380D01*
X114300357Y-87717380D01*
X114395595Y-87765000D01*
X114443214Y-87812619D01*
X114490833Y-87907857D01*
X114490833Y-88050714D01*
X114443214Y-88145952D01*
X114395595Y-88193571D01*
X114300357Y-88241190D01*
X113919404Y-88241190D01*
X115443214Y-88717380D02*
X114871785Y-88717380D01*
X115157500Y-88717380D02*
X115157500Y-87717380D01*
X115062261Y-87860238D01*
X114967023Y-87955476D01*
X114871785Y-88003095D01*
X114133333Y-106497380D02*
X113800000Y-106021190D01*
X113561904Y-106497380D02*
X113561904Y-105497380D01*
X113942857Y-105497380D01*
X114038095Y-105545000D01*
X114085714Y-105592619D01*
X114133333Y-105687857D01*
X114133333Y-105830714D01*
X114085714Y-105925952D01*
X114038095Y-105973571D01*
X113942857Y-106021190D01*
X113561904Y-106021190D01*
X115038095Y-105497380D02*
X114561904Y-105497380D01*
X114514285Y-105973571D01*
X114561904Y-105925952D01*
X114657142Y-105878333D01*
X114895238Y-105878333D01*
X114990476Y-105925952D01*
X115038095Y-105973571D01*
X115085714Y-106068809D01*
X115085714Y-106306904D01*
X115038095Y-106402142D01*
X114990476Y-106449761D01*
X114895238Y-106497380D01*
X114657142Y-106497380D01*
X114561904Y-106449761D01*
X114514285Y-106402142D01*
X114133333Y-104719380D02*
X113800000Y-104243190D01*
X113561904Y-104719380D02*
X113561904Y-103719380D01*
X113942857Y-103719380D01*
X114038095Y-103767000D01*
X114085714Y-103814619D01*
X114133333Y-103909857D01*
X114133333Y-104052714D01*
X114085714Y-104147952D01*
X114038095Y-104195571D01*
X113942857Y-104243190D01*
X113561904Y-104243190D01*
X114990476Y-103719380D02*
X114800000Y-103719380D01*
X114704761Y-103767000D01*
X114657142Y-103814619D01*
X114561904Y-103957476D01*
X114514285Y-104147952D01*
X114514285Y-104528904D01*
X114561904Y-104624142D01*
X114609523Y-104671761D01*
X114704761Y-104719380D01*
X114895238Y-104719380D01*
X114990476Y-104671761D01*
X115038095Y-104624142D01*
X115085714Y-104528904D01*
X115085714Y-104290809D01*
X115038095Y-104195571D01*
X114990476Y-104147952D01*
X114895238Y-104100333D01*
X114704761Y-104100333D01*
X114609523Y-104147952D01*
X114561904Y-104195571D01*
X114514285Y-104290809D01*
X147947142Y-72842380D02*
X147613809Y-72366190D01*
X147375714Y-72842380D02*
X147375714Y-71842380D01*
X147756666Y-71842380D01*
X147851904Y-71890000D01*
X147899523Y-71937619D01*
X147947142Y-72032857D01*
X147947142Y-72175714D01*
X147899523Y-72270952D01*
X147851904Y-72318571D01*
X147756666Y-72366190D01*
X147375714Y-72366190D01*
X148899523Y-72842380D02*
X148328095Y-72842380D01*
X148613809Y-72842380D02*
X148613809Y-71842380D01*
X148518571Y-71985238D01*
X148423333Y-72080476D01*
X148328095Y-72128095D01*
X149804285Y-71842380D02*
X149328095Y-71842380D01*
X149280476Y-72318571D01*
X149328095Y-72270952D01*
X149423333Y-72223333D01*
X149661428Y-72223333D01*
X149756666Y-72270952D01*
X149804285Y-72318571D01*
X149851904Y-72413809D01*
X149851904Y-72651904D01*
X149804285Y-72747142D01*
X149756666Y-72794761D01*
X149661428Y-72842380D01*
X149423333Y-72842380D01*
X149328095Y-72794761D01*
X149280476Y-72747142D01*
X133310380Y-116712904D02*
X134119904Y-116712904D01*
X134215142Y-116665285D01*
X134262761Y-116617666D01*
X134310380Y-116522428D01*
X134310380Y-116331952D01*
X134262761Y-116236714D01*
X134215142Y-116189095D01*
X134119904Y-116141476D01*
X133310380Y-116141476D01*
X133405619Y-115712904D02*
X133358000Y-115665285D01*
X133310380Y-115570047D01*
X133310380Y-115331952D01*
X133358000Y-115236714D01*
X133405619Y-115189095D01*
X133500857Y-115141476D01*
X133596095Y-115141476D01*
X133738952Y-115189095D01*
X134310380Y-115760523D01*
X134310380Y-115141476D01*
X114458761Y-109640619D02*
X114363523Y-109593000D01*
X114268285Y-109497761D01*
X114125428Y-109354904D01*
X114030190Y-109307285D01*
X113934952Y-109307285D01*
X113982571Y-109545380D02*
X113887333Y-109497761D01*
X113792095Y-109402523D01*
X113744476Y-109212047D01*
X113744476Y-108878714D01*
X113792095Y-108688238D01*
X113887333Y-108593000D01*
X113982571Y-108545380D01*
X114173047Y-108545380D01*
X114268285Y-108593000D01*
X114363523Y-108688238D01*
X114411142Y-108878714D01*
X114411142Y-109212047D01*
X114363523Y-109402523D01*
X114268285Y-109497761D01*
X114173047Y-109545380D01*
X113982571Y-109545380D01*
X115363523Y-109545380D02*
X114792095Y-109545380D01*
X115077809Y-109545380D02*
X115077809Y-108545380D01*
X114982571Y-108688238D01*
X114887333Y-108783476D01*
X114792095Y-108831095D01*
X114204761Y-101766619D02*
X114109523Y-101719000D01*
X114014285Y-101623761D01*
X113871428Y-101480904D01*
X113776190Y-101433285D01*
X113680952Y-101433285D01*
X113728571Y-101671380D02*
X113633333Y-101623761D01*
X113538095Y-101528523D01*
X113490476Y-101338047D01*
X113490476Y-101004714D01*
X113538095Y-100814238D01*
X113633333Y-100719000D01*
X113728571Y-100671380D01*
X113919047Y-100671380D01*
X114014285Y-100719000D01*
X114109523Y-100814238D01*
X114157142Y-101004714D01*
X114157142Y-101338047D01*
X114109523Y-101528523D01*
X114014285Y-101623761D01*
X113919047Y-101671380D01*
X113728571Y-101671380D01*
X114538095Y-100766619D02*
X114585714Y-100719000D01*
X114680952Y-100671380D01*
X114919047Y-100671380D01*
X115014285Y-100719000D01*
X115061904Y-100766619D01*
X115109523Y-100861857D01*
X115109523Y-100957095D01*
X115061904Y-101099952D01*
X114490476Y-101671380D01*
X115109523Y-101671380D01*
X147947142Y-68270380D02*
X147613809Y-67794190D01*
X147375714Y-68270380D02*
X147375714Y-67270380D01*
X147756666Y-67270380D01*
X147851904Y-67318000D01*
X147899523Y-67365619D01*
X147947142Y-67460857D01*
X147947142Y-67603714D01*
X147899523Y-67698952D01*
X147851904Y-67746571D01*
X147756666Y-67794190D01*
X147375714Y-67794190D01*
X148899523Y-68270380D02*
X148328095Y-68270380D01*
X148613809Y-68270380D02*
X148613809Y-67270380D01*
X148518571Y-67413238D01*
X148423333Y-67508476D01*
X148328095Y-67556095D01*
X149756666Y-67603714D02*
X149756666Y-68270380D01*
X149518571Y-67222761D02*
X149280476Y-67937047D01*
X149899523Y-67937047D01*
X123872666Y-110172380D02*
X123872666Y-110886666D01*
X123825047Y-111029523D01*
X123729809Y-111124761D01*
X123586952Y-111172380D01*
X123491714Y-111172380D01*
X124396476Y-111172380D02*
X124586952Y-111172380D01*
X124682190Y-111124761D01*
X124729809Y-111077142D01*
X124825047Y-110934285D01*
X124872666Y-110743809D01*
X124872666Y-110362857D01*
X124825047Y-110267619D01*
X124777428Y-110220000D01*
X124682190Y-110172380D01*
X124491714Y-110172380D01*
X124396476Y-110220000D01*
X124348857Y-110267619D01*
X124301238Y-110362857D01*
X124301238Y-110600952D01*
X124348857Y-110696190D01*
X124396476Y-110743809D01*
X124491714Y-110791428D01*
X124682190Y-110791428D01*
X124777428Y-110743809D01*
X124825047Y-110696190D01*
X124872666Y-110600952D01*
X148582142Y-83637380D02*
X148248809Y-83161190D01*
X148010714Y-83637380D02*
X148010714Y-82637380D01*
X148391666Y-82637380D01*
X148486904Y-82685000D01*
X148534523Y-82732619D01*
X148582142Y-82827857D01*
X148582142Y-82970714D01*
X148534523Y-83065952D01*
X148486904Y-83113571D01*
X148391666Y-83161190D01*
X148010714Y-83161190D01*
X149534523Y-83637380D02*
X148963095Y-83637380D01*
X149248809Y-83637380D02*
X149248809Y-82637380D01*
X149153571Y-82780238D01*
X149058333Y-82875476D01*
X148963095Y-82923095D01*
X150391666Y-82637380D02*
X150201190Y-82637380D01*
X150105952Y-82685000D01*
X150058333Y-82732619D01*
X149963095Y-82875476D01*
X149915476Y-83065952D01*
X149915476Y-83446904D01*
X149963095Y-83542142D01*
X150010714Y-83589761D01*
X150105952Y-83637380D01*
X150296428Y-83637380D01*
X150391666Y-83589761D01*
X150439285Y-83542142D01*
X150486904Y-83446904D01*
X150486904Y-83208809D01*
X150439285Y-83113571D01*
X150391666Y-83065952D01*
X150296428Y-83018333D01*
X150105952Y-83018333D01*
X150010714Y-83065952D01*
X149963095Y-83113571D01*
X149915476Y-83208809D01*
X145153142Y-84653380D02*
X144819809Y-84177190D01*
X144581714Y-84653380D02*
X144581714Y-83653380D01*
X144962666Y-83653380D01*
X145057904Y-83701000D01*
X145105523Y-83748619D01*
X145153142Y-83843857D01*
X145153142Y-83986714D01*
X145105523Y-84081952D01*
X145057904Y-84129571D01*
X144962666Y-84177190D01*
X144581714Y-84177190D01*
X146105523Y-84653380D02*
X145534095Y-84653380D01*
X145819809Y-84653380D02*
X145819809Y-83653380D01*
X145724571Y-83796238D01*
X145629333Y-83891476D01*
X145534095Y-83939095D01*
X146438857Y-83653380D02*
X147105523Y-83653380D01*
X146676952Y-84653380D01*
X154479666Y-63841380D02*
X154479666Y-64555666D01*
X154432047Y-64698523D01*
X154336809Y-64793761D01*
X154193952Y-64841380D01*
X154098714Y-64841380D01*
X155384428Y-64174714D02*
X155384428Y-64841380D01*
X155146333Y-63793761D02*
X154908238Y-64508047D01*
X155527285Y-64508047D01*
X151939666Y-63841380D02*
X151939666Y-64555666D01*
X151892047Y-64698523D01*
X151796809Y-64793761D01*
X151653952Y-64841380D01*
X151558714Y-64841380D01*
X152844428Y-63841380D02*
X152653952Y-63841380D01*
X152558714Y-63889000D01*
X152511095Y-63936619D01*
X152415857Y-64079476D01*
X152368238Y-64269952D01*
X152368238Y-64650904D01*
X152415857Y-64746142D01*
X152463476Y-64793761D01*
X152558714Y-64841380D01*
X152749190Y-64841380D01*
X152844428Y-64793761D01*
X152892047Y-64746142D01*
X152939666Y-64650904D01*
X152939666Y-64412809D01*
X152892047Y-64317571D01*
X152844428Y-64269952D01*
X152749190Y-64222333D01*
X152558714Y-64222333D01*
X152463476Y-64269952D01*
X152415857Y-64317571D01*
X152368238Y-64412809D01*
X130960904Y-72334380D02*
X130960904Y-71334380D01*
X131199000Y-71334380D01*
X131341857Y-71382000D01*
X131437095Y-71477238D01*
X131484714Y-71572476D01*
X131532333Y-71762952D01*
X131532333Y-71905809D01*
X131484714Y-72096285D01*
X131437095Y-72191523D01*
X131341857Y-72286761D01*
X131199000Y-72334380D01*
X130960904Y-72334380D01*
X132484714Y-72334380D02*
X131913285Y-72334380D01*
X132199000Y-72334380D02*
X132199000Y-71334380D01*
X132103761Y-71477238D01*
X132008523Y-71572476D01*
X131913285Y-71620095D01*
X137564904Y-72461380D02*
X137564904Y-71461380D01*
X137803000Y-71461380D01*
X137945857Y-71509000D01*
X138041095Y-71604238D01*
X138088714Y-71699476D01*
X138136333Y-71889952D01*
X138136333Y-72032809D01*
X138088714Y-72223285D01*
X138041095Y-72318523D01*
X137945857Y-72413761D01*
X137803000Y-72461380D01*
X137564904Y-72461380D01*
X139041095Y-71461380D02*
X138564904Y-71461380D01*
X138517285Y-71937571D01*
X138564904Y-71889952D01*
X138660142Y-71842333D01*
X138898238Y-71842333D01*
X138993476Y-71889952D01*
X139041095Y-71937571D01*
X139088714Y-72032809D01*
X139088714Y-72270904D01*
X139041095Y-72366142D01*
X138993476Y-72413761D01*
X138898238Y-72461380D01*
X138660142Y-72461380D01*
X138564904Y-72413761D01*
X138517285Y-72366142D01*
X137445761Y-68111619D02*
X137350523Y-68064000D01*
X137255285Y-67968761D01*
X137112428Y-67825904D01*
X137017190Y-67778285D01*
X136921952Y-67778285D01*
X136969571Y-68016380D02*
X136874333Y-67968761D01*
X136779095Y-67873523D01*
X136731476Y-67683047D01*
X136731476Y-67349714D01*
X136779095Y-67159238D01*
X136874333Y-67064000D01*
X136969571Y-67016380D01*
X137160047Y-67016380D01*
X137255285Y-67064000D01*
X137350523Y-67159238D01*
X137398142Y-67349714D01*
X137398142Y-67683047D01*
X137350523Y-67873523D01*
X137255285Y-67968761D01*
X137160047Y-68016380D01*
X136969571Y-68016380D01*
X138302904Y-67016380D02*
X137826714Y-67016380D01*
X137779095Y-67492571D01*
X137826714Y-67444952D01*
X137921952Y-67397333D01*
X138160047Y-67397333D01*
X138255285Y-67444952D01*
X138302904Y-67492571D01*
X138350523Y-67587809D01*
X138350523Y-67825904D01*
X138302904Y-67921142D01*
X138255285Y-67968761D01*
X138160047Y-68016380D01*
X137921952Y-68016380D01*
X137826714Y-67968761D01*
X137779095Y-67921142D01*
X129151142Y-67762380D02*
X128817809Y-67286190D01*
X128579714Y-67762380D02*
X128579714Y-66762380D01*
X128960666Y-66762380D01*
X129055904Y-66810000D01*
X129103523Y-66857619D01*
X129151142Y-66952857D01*
X129151142Y-67095714D01*
X129103523Y-67190952D01*
X129055904Y-67238571D01*
X128960666Y-67286190D01*
X128579714Y-67286190D01*
X130103523Y-67762380D02*
X129532095Y-67762380D01*
X129817809Y-67762380D02*
X129817809Y-66762380D01*
X129722571Y-66905238D01*
X129627333Y-67000476D01*
X129532095Y-67048095D01*
X131055904Y-67762380D02*
X130484476Y-67762380D01*
X130770190Y-67762380D02*
X130770190Y-66762380D01*
X130674952Y-66905238D01*
X130579714Y-67000476D01*
X130484476Y-67048095D01*
X134358142Y-74135880D02*
X134024809Y-73659690D01*
X133786714Y-74135880D02*
X133786714Y-73135880D01*
X134167666Y-73135880D01*
X134262904Y-73183500D01*
X134310523Y-73231119D01*
X134358142Y-73326357D01*
X134358142Y-73469214D01*
X134310523Y-73564452D01*
X134262904Y-73612071D01*
X134167666Y-73659690D01*
X133786714Y-73659690D01*
X135310523Y-74135880D02*
X134739095Y-74135880D01*
X135024809Y-74135880D02*
X135024809Y-73135880D01*
X134929571Y-73278738D01*
X134834333Y-73373976D01*
X134739095Y-73421595D01*
X135881952Y-73564452D02*
X135786714Y-73516833D01*
X135739095Y-73469214D01*
X135691476Y-73373976D01*
X135691476Y-73326357D01*
X135739095Y-73231119D01*
X135786714Y-73183500D01*
X135881952Y-73135880D01*
X136072428Y-73135880D01*
X136167666Y-73183500D01*
X136215285Y-73231119D01*
X136262904Y-73326357D01*
X136262904Y-73373976D01*
X136215285Y-73469214D01*
X136167666Y-73516833D01*
X136072428Y-73564452D01*
X135881952Y-73564452D01*
X135786714Y-73612071D01*
X135739095Y-73659690D01*
X135691476Y-73754928D01*
X135691476Y-73945404D01*
X135739095Y-74040642D01*
X135786714Y-74088261D01*
X135881952Y-74135880D01*
X136072428Y-74135880D01*
X136167666Y-74088261D01*
X136215285Y-74040642D01*
X136262904Y-73945404D01*
X136262904Y-73754928D01*
X136215285Y-73659690D01*
X136167666Y-73612071D01*
X136072428Y-73564452D01*
X141343142Y-74112380D02*
X141009809Y-73636190D01*
X140771714Y-74112380D02*
X140771714Y-73112380D01*
X141152666Y-73112380D01*
X141247904Y-73160000D01*
X141295523Y-73207619D01*
X141343142Y-73302857D01*
X141343142Y-73445714D01*
X141295523Y-73540952D01*
X141247904Y-73588571D01*
X141152666Y-73636190D01*
X140771714Y-73636190D01*
X142295523Y-74112380D02*
X141724095Y-74112380D01*
X142009809Y-74112380D02*
X142009809Y-73112380D01*
X141914571Y-73255238D01*
X141819333Y-73350476D01*
X141724095Y-73398095D01*
X142771714Y-74112380D02*
X142962190Y-74112380D01*
X143057428Y-74064761D01*
X143105047Y-74017142D01*
X143200285Y-73874285D01*
X143247904Y-73683809D01*
X143247904Y-73302857D01*
X143200285Y-73207619D01*
X143152666Y-73160000D01*
X143057428Y-73112380D01*
X142866952Y-73112380D01*
X142771714Y-73160000D01*
X142724095Y-73207619D01*
X142676476Y-73302857D01*
X142676476Y-73540952D01*
X142724095Y-73636190D01*
X142771714Y-73683809D01*
X142866952Y-73731428D01*
X143057428Y-73731428D01*
X143152666Y-73683809D01*
X143200285Y-73636190D01*
X143247904Y-73540952D01*
M02*
