G04 #@! TF.GenerationSoftware,KiCad,Pcbnew,(5.1.7)-1*
G04 #@! TF.CreationDate,2021-03-31T14:02:48+02:00*
G04 #@! TF.ProjectId,Temperature-controller-with-ESP8266,54656d70-6572-4617-9475-72652d636f6e,rev?*
G04 #@! TF.SameCoordinates,Original*
G04 #@! TF.FileFunction,Copper,L1,Top*
G04 #@! TF.FilePolarity,Positive*
%FSLAX46Y46*%
G04 Gerber Fmt 4.6, Leading zero omitted, Abs format (unit mm)*
G04 Created by KiCad (PCBNEW (5.1.7)-1) date 2021-03-31 14:02:48*
%MOMM*%
%LPD*%
G01*
G04 APERTURE LIST*
G04 #@! TA.AperFunction,SMDPad,CuDef*
%ADD10R,2.050000X4.000000*%
G04 #@! TD*
G04 #@! TA.AperFunction,SMDPad,CuDef*
%ADD11R,2.050000X3.500000*%
G04 #@! TD*
G04 #@! TA.AperFunction,SMDPad,CuDef*
%ADD12R,0.500000X3.000000*%
G04 #@! TD*
G04 #@! TA.AperFunction,ComponentPad*
%ADD13O,1.700000X1.700000*%
G04 #@! TD*
G04 #@! TA.AperFunction,ComponentPad*
%ADD14R,1.700000X1.700000*%
G04 #@! TD*
G04 #@! TA.AperFunction,SMDPad,CuDef*
%ADD15R,2.500000X1.000000*%
G04 #@! TD*
G04 #@! TA.AperFunction,SMDPad,CuDef*
%ADD16R,1.000000X1.800000*%
G04 #@! TD*
G04 #@! TA.AperFunction,SMDPad,CuDef*
%ADD17R,1.100000X1.800000*%
G04 #@! TD*
G04 #@! TA.AperFunction,ComponentPad*
%ADD18R,1.500000X1.500000*%
G04 #@! TD*
G04 #@! TA.AperFunction,ComponentPad*
%ADD19C,1.500000*%
G04 #@! TD*
G04 #@! TA.AperFunction,SMDPad,CuDef*
%ADD20R,1.500000X2.000000*%
G04 #@! TD*
G04 #@! TA.AperFunction,SMDPad,CuDef*
%ADD21R,3.800000X2.000000*%
G04 #@! TD*
G04 #@! TA.AperFunction,ComponentPad*
%ADD22C,1.800000*%
G04 #@! TD*
G04 #@! TA.AperFunction,ComponentPad*
%ADD23R,1.800000X1.800000*%
G04 #@! TD*
G04 #@! TA.AperFunction,SMDPad,CuDef*
%ADD24R,1.200000X1.400000*%
G04 #@! TD*
G04 #@! TA.AperFunction,ComponentPad*
%ADD25O,2.200000X3.500000*%
G04 #@! TD*
G04 #@! TA.AperFunction,ComponentPad*
%ADD26O,1.500000X2.500000*%
G04 #@! TD*
G04 #@! TA.AperFunction,ComponentPad*
%ADD27R,1.500000X2.500000*%
G04 #@! TD*
G04 #@! TA.AperFunction,SMDPad,CuDef*
%ADD28R,0.800000X0.900000*%
G04 #@! TD*
G04 #@! TA.AperFunction,ViaPad*
%ADD29C,0.800000*%
G04 #@! TD*
G04 #@! TA.AperFunction,Conductor*
%ADD30C,0.800000*%
G04 #@! TD*
G04 #@! TA.AperFunction,Conductor*
%ADD31C,0.300000*%
G04 #@! TD*
G04 #@! TA.AperFunction,Conductor*
%ADD32C,0.250000*%
G04 #@! TD*
G04 #@! TA.AperFunction,Conductor*
%ADD33C,0.254000*%
G04 #@! TD*
G04 #@! TA.AperFunction,Conductor*
%ADD34C,0.100000*%
G04 #@! TD*
G04 APERTURE END LIST*
D10*
X131392000Y-118745000D03*
D11*
X131392000Y-114495000D03*
D10*
X121592000Y-118745000D03*
D11*
X121592000Y-114495000D03*
D12*
X128092000Y-114495000D03*
X127292000Y-114495000D03*
X126492000Y-114495000D03*
X125692000Y-114495000D03*
X124892000Y-114495000D03*
G04 #@! TA.AperFunction,SMDPad,CuDef*
G36*
G01*
X151535000Y-88115000D02*
X151535000Y-88415000D01*
G75*
G02*
X151385000Y-88565000I-150000J0D01*
G01*
X149735000Y-88565000D01*
G75*
G02*
X149585000Y-88415000I0J150000D01*
G01*
X149585000Y-88115000D01*
G75*
G02*
X149735000Y-87965000I150000J0D01*
G01*
X151385000Y-87965000D01*
G75*
G02*
X151535000Y-88115000I0J-150000D01*
G01*
G37*
G04 #@! TD.AperFunction*
G04 #@! TA.AperFunction,SMDPad,CuDef*
G36*
G01*
X151535000Y-86845000D02*
X151535000Y-87145000D01*
G75*
G02*
X151385000Y-87295000I-150000J0D01*
G01*
X149735000Y-87295000D01*
G75*
G02*
X149585000Y-87145000I0J150000D01*
G01*
X149585000Y-86845000D01*
G75*
G02*
X149735000Y-86695000I150000J0D01*
G01*
X151385000Y-86695000D01*
G75*
G02*
X151535000Y-86845000I0J-150000D01*
G01*
G37*
G04 #@! TD.AperFunction*
G04 #@! TA.AperFunction,SMDPad,CuDef*
G36*
G01*
X151535000Y-85575000D02*
X151535000Y-85875000D01*
G75*
G02*
X151385000Y-86025000I-150000J0D01*
G01*
X149735000Y-86025000D01*
G75*
G02*
X149585000Y-85875000I0J150000D01*
G01*
X149585000Y-85575000D01*
G75*
G02*
X149735000Y-85425000I150000J0D01*
G01*
X151385000Y-85425000D01*
G75*
G02*
X151535000Y-85575000I0J-150000D01*
G01*
G37*
G04 #@! TD.AperFunction*
G04 #@! TA.AperFunction,SMDPad,CuDef*
G36*
G01*
X151535000Y-84305000D02*
X151535000Y-84605000D01*
G75*
G02*
X151385000Y-84755000I-150000J0D01*
G01*
X149735000Y-84755000D01*
G75*
G02*
X149585000Y-84605000I0J150000D01*
G01*
X149585000Y-84305000D01*
G75*
G02*
X149735000Y-84155000I150000J0D01*
G01*
X151385000Y-84155000D01*
G75*
G02*
X151535000Y-84305000I0J-150000D01*
G01*
G37*
G04 #@! TD.AperFunction*
G04 #@! TA.AperFunction,SMDPad,CuDef*
G36*
G01*
X156485000Y-84305000D02*
X156485000Y-84605000D01*
G75*
G02*
X156335000Y-84755000I-150000J0D01*
G01*
X154685000Y-84755000D01*
G75*
G02*
X154535000Y-84605000I0J150000D01*
G01*
X154535000Y-84305000D01*
G75*
G02*
X154685000Y-84155000I150000J0D01*
G01*
X156335000Y-84155000D01*
G75*
G02*
X156485000Y-84305000I0J-150000D01*
G01*
G37*
G04 #@! TD.AperFunction*
G04 #@! TA.AperFunction,SMDPad,CuDef*
G36*
G01*
X156485000Y-85575000D02*
X156485000Y-85875000D01*
G75*
G02*
X156335000Y-86025000I-150000J0D01*
G01*
X154685000Y-86025000D01*
G75*
G02*
X154535000Y-85875000I0J150000D01*
G01*
X154535000Y-85575000D01*
G75*
G02*
X154685000Y-85425000I150000J0D01*
G01*
X156335000Y-85425000D01*
G75*
G02*
X156485000Y-85575000I0J-150000D01*
G01*
G37*
G04 #@! TD.AperFunction*
G04 #@! TA.AperFunction,SMDPad,CuDef*
G36*
G01*
X156485000Y-86845000D02*
X156485000Y-87145000D01*
G75*
G02*
X156335000Y-87295000I-150000J0D01*
G01*
X154685000Y-87295000D01*
G75*
G02*
X154535000Y-87145000I0J150000D01*
G01*
X154535000Y-86845000D01*
G75*
G02*
X154685000Y-86695000I150000J0D01*
G01*
X156335000Y-86695000D01*
G75*
G02*
X156485000Y-86845000I0J-150000D01*
G01*
G37*
G04 #@! TD.AperFunction*
G04 #@! TA.AperFunction,SMDPad,CuDef*
G36*
G01*
X156485000Y-88115000D02*
X156485000Y-88415000D01*
G75*
G02*
X156335000Y-88565000I-150000J0D01*
G01*
X154685000Y-88565000D01*
G75*
G02*
X154535000Y-88415000I0J150000D01*
G01*
X154535000Y-88115000D01*
G75*
G02*
X154685000Y-87965000I150000J0D01*
G01*
X156335000Y-87965000D01*
G75*
G02*
X156485000Y-88115000I0J-150000D01*
G01*
G37*
G04 #@! TD.AperFunction*
D13*
X147066000Y-90170000D03*
X147066000Y-92710000D03*
X147066000Y-95250000D03*
X147066000Y-97790000D03*
X147066000Y-100330000D03*
X147066000Y-102870000D03*
X147066000Y-105410000D03*
D14*
X147066000Y-107950000D03*
D15*
X143363000Y-92004000D03*
X143363000Y-94004000D03*
X143363000Y-96004000D03*
X143363000Y-98004000D03*
X143363000Y-100004000D03*
X143363000Y-102004000D03*
X143363000Y-104004000D03*
X143363000Y-106004000D03*
D16*
X140763000Y-107504000D03*
X138763000Y-107504000D03*
X136763000Y-107504000D03*
X134763000Y-107504000D03*
X132763000Y-107504000D03*
X130763000Y-107504000D03*
D15*
X128163000Y-106004000D03*
X128163000Y-104004000D03*
X128163000Y-102004000D03*
X128163000Y-100004000D03*
X128163000Y-98004000D03*
X128163000Y-96004000D03*
X128163000Y-94004000D03*
X128163000Y-92004000D03*
G04 #@! TA.AperFunction,SMDPad,CuDef*
G36*
G01*
X127795000Y-81222000D02*
X128745000Y-81222000D01*
G75*
G02*
X128995000Y-81472000I0J-250000D01*
G01*
X128995000Y-81972000D01*
G75*
G02*
X128745000Y-82222000I-250000J0D01*
G01*
X127795000Y-82222000D01*
G75*
G02*
X127545000Y-81972000I0J250000D01*
G01*
X127545000Y-81472000D01*
G75*
G02*
X127795000Y-81222000I250000J0D01*
G01*
G37*
G04 #@! TD.AperFunction*
G04 #@! TA.AperFunction,SMDPad,CuDef*
G36*
G01*
X127795000Y-79322000D02*
X128745000Y-79322000D01*
G75*
G02*
X128995000Y-79572000I0J-250000D01*
G01*
X128995000Y-80072000D01*
G75*
G02*
X128745000Y-80322000I-250000J0D01*
G01*
X127795000Y-80322000D01*
G75*
G02*
X127545000Y-80072000I0J250000D01*
G01*
X127545000Y-79572000D01*
G75*
G02*
X127795000Y-79322000I250000J0D01*
G01*
G37*
G04 #@! TD.AperFunction*
D17*
X125548000Y-80085000D03*
X125548000Y-86285000D03*
X121848000Y-80085000D03*
X121848000Y-86285000D03*
D18*
X142748000Y-68072000D03*
D19*
X141728000Y-70612000D03*
X140708000Y-68072000D03*
X139688000Y-70612000D03*
G04 #@! TA.AperFunction,SMDPad,CuDef*
G36*
G01*
X117875000Y-95573002D02*
X117875000Y-94672998D01*
G75*
G02*
X118124998Y-94423000I249998J0D01*
G01*
X118650002Y-94423000D01*
G75*
G02*
X118900000Y-94672998I0J-249998D01*
G01*
X118900000Y-95573002D01*
G75*
G02*
X118650002Y-95823000I-249998J0D01*
G01*
X118124998Y-95823000D01*
G75*
G02*
X117875000Y-95573002I0J249998D01*
G01*
G37*
G04 #@! TD.AperFunction*
G04 #@! TA.AperFunction,SMDPad,CuDef*
G36*
G01*
X116050000Y-95573002D02*
X116050000Y-94672998D01*
G75*
G02*
X116299998Y-94423000I249998J0D01*
G01*
X116825002Y-94423000D01*
G75*
G02*
X117075000Y-94672998I0J-249998D01*
G01*
X117075000Y-95573002D01*
G75*
G02*
X116825002Y-95823000I-249998J0D01*
G01*
X116299998Y-95823000D01*
G75*
G02*
X116050000Y-95573002I0J249998D01*
G01*
G37*
G04 #@! TD.AperFunction*
G04 #@! TA.AperFunction,SMDPad,CuDef*
G36*
G01*
X153143000Y-93656998D02*
X153143000Y-94557002D01*
G75*
G02*
X152893002Y-94807000I-249998J0D01*
G01*
X152367998Y-94807000D01*
G75*
G02*
X152118000Y-94557002I0J249998D01*
G01*
X152118000Y-93656998D01*
G75*
G02*
X152367998Y-93407000I249998J0D01*
G01*
X152893002Y-93407000D01*
G75*
G02*
X153143000Y-93656998I0J-249998D01*
G01*
G37*
G04 #@! TD.AperFunction*
G04 #@! TA.AperFunction,SMDPad,CuDef*
G36*
G01*
X154968000Y-93656998D02*
X154968000Y-94557002D01*
G75*
G02*
X154718002Y-94807000I-249998J0D01*
G01*
X154192998Y-94807000D01*
G75*
G02*
X153943000Y-94557002I0J249998D01*
G01*
X153943000Y-93656998D01*
G75*
G02*
X154192998Y-93407000I249998J0D01*
G01*
X154718002Y-93407000D01*
G75*
G02*
X154968000Y-93656998I0J-249998D01*
G01*
G37*
G04 #@! TD.AperFunction*
G04 #@! TA.AperFunction,SMDPad,CuDef*
G36*
G01*
X153943000Y-97986002D02*
X153943000Y-97085998D01*
G75*
G02*
X154192998Y-96836000I249998J0D01*
G01*
X154718002Y-96836000D01*
G75*
G02*
X154968000Y-97085998I0J-249998D01*
G01*
X154968000Y-97986002D01*
G75*
G02*
X154718002Y-98236000I-249998J0D01*
G01*
X154192998Y-98236000D01*
G75*
G02*
X153943000Y-97986002I0J249998D01*
G01*
G37*
G04 #@! TD.AperFunction*
G04 #@! TA.AperFunction,SMDPad,CuDef*
G36*
G01*
X152118000Y-97986002D02*
X152118000Y-97085998D01*
G75*
G02*
X152367998Y-96836000I249998J0D01*
G01*
X152893002Y-96836000D01*
G75*
G02*
X153143000Y-97085998I0J-249998D01*
G01*
X153143000Y-97986002D01*
G75*
G02*
X152893002Y-98236000I-249998J0D01*
G01*
X152367998Y-98236000D01*
G75*
G02*
X152118000Y-97986002I0J249998D01*
G01*
G37*
G04 #@! TD.AperFunction*
G04 #@! TA.AperFunction,SMDPad,CuDef*
G36*
G01*
X153689000Y-104590002D02*
X153689000Y-103689998D01*
G75*
G02*
X153938998Y-103440000I249998J0D01*
G01*
X154464002Y-103440000D01*
G75*
G02*
X154714000Y-103689998I0J-249998D01*
G01*
X154714000Y-104590002D01*
G75*
G02*
X154464002Y-104840000I-249998J0D01*
G01*
X153938998Y-104840000D01*
G75*
G02*
X153689000Y-104590002I0J249998D01*
G01*
G37*
G04 #@! TD.AperFunction*
G04 #@! TA.AperFunction,SMDPad,CuDef*
G36*
G01*
X151864000Y-104590002D02*
X151864000Y-103689998D01*
G75*
G02*
X152113998Y-103440000I249998J0D01*
G01*
X152639002Y-103440000D01*
G75*
G02*
X152889000Y-103689998I0J-249998D01*
G01*
X152889000Y-104590002D01*
G75*
G02*
X152639002Y-104840000I-249998J0D01*
G01*
X152113998Y-104840000D01*
G75*
G02*
X151864000Y-104590002I0J249998D01*
G01*
G37*
G04 #@! TD.AperFunction*
G04 #@! TA.AperFunction,SMDPad,CuDef*
G36*
G01*
X117851500Y-98240002D02*
X117851500Y-97339998D01*
G75*
G02*
X118101498Y-97090000I249998J0D01*
G01*
X118626502Y-97090000D01*
G75*
G02*
X118876500Y-97339998I0J-249998D01*
G01*
X118876500Y-98240002D01*
G75*
G02*
X118626502Y-98490000I-249998J0D01*
G01*
X118101498Y-98490000D01*
G75*
G02*
X117851500Y-98240002I0J249998D01*
G01*
G37*
G04 #@! TD.AperFunction*
G04 #@! TA.AperFunction,SMDPad,CuDef*
G36*
G01*
X116026500Y-98240002D02*
X116026500Y-97339998D01*
G75*
G02*
X116276498Y-97090000I249998J0D01*
G01*
X116801502Y-97090000D01*
G75*
G02*
X117051500Y-97339998I0J-249998D01*
G01*
X117051500Y-98240002D01*
G75*
G02*
X116801502Y-98490000I-249998J0D01*
G01*
X116276498Y-98490000D01*
G75*
G02*
X116026500Y-98240002I0J249998D01*
G01*
G37*
G04 #@! TD.AperFunction*
G04 #@! TA.AperFunction,SMDPad,CuDef*
G36*
G01*
X153816000Y-101288002D02*
X153816000Y-100387998D01*
G75*
G02*
X154065998Y-100138000I249998J0D01*
G01*
X154591002Y-100138000D01*
G75*
G02*
X154841000Y-100387998I0J-249998D01*
G01*
X154841000Y-101288002D01*
G75*
G02*
X154591002Y-101538000I-249998J0D01*
G01*
X154065998Y-101538000D01*
G75*
G02*
X153816000Y-101288002I0J249998D01*
G01*
G37*
G04 #@! TD.AperFunction*
G04 #@! TA.AperFunction,SMDPad,CuDef*
G36*
G01*
X151991000Y-101288002D02*
X151991000Y-100387998D01*
G75*
G02*
X152240998Y-100138000I249998J0D01*
G01*
X152766002Y-100138000D01*
G75*
G02*
X153016000Y-100387998I0J-249998D01*
G01*
X153016000Y-101288002D01*
G75*
G02*
X152766002Y-101538000I-249998J0D01*
G01*
X152240998Y-101538000D01*
G75*
G02*
X151991000Y-101288002I0J249998D01*
G01*
G37*
G04 #@! TD.AperFunction*
D13*
X131699000Y-80645000D03*
X134239000Y-80645000D03*
X136779000Y-80645000D03*
D14*
X139319000Y-80645000D03*
D20*
X121779000Y-76556000D03*
X126379000Y-76556000D03*
X124079000Y-76556000D03*
D21*
X124079000Y-70256000D03*
D22*
X144018000Y-74676000D03*
D23*
X146558000Y-74676000D03*
D24*
X146370000Y-117151000D03*
X146370000Y-114751000D03*
X148270000Y-114751000D03*
X148270000Y-117151000D03*
D25*
X115280000Y-65913000D03*
X123480000Y-65913000D03*
D26*
X117380000Y-65913000D03*
X119380000Y-65913000D03*
D27*
X121380000Y-65913000D03*
G04 #@! TA.AperFunction,SMDPad,CuDef*
G36*
G01*
X117875000Y-92144002D02*
X117875000Y-91243998D01*
G75*
G02*
X118124998Y-90994000I249998J0D01*
G01*
X118650002Y-90994000D01*
G75*
G02*
X118900000Y-91243998I0J-249998D01*
G01*
X118900000Y-92144002D01*
G75*
G02*
X118650002Y-92394000I-249998J0D01*
G01*
X118124998Y-92394000D01*
G75*
G02*
X117875000Y-92144002I0J249998D01*
G01*
G37*
G04 #@! TD.AperFunction*
G04 #@! TA.AperFunction,SMDPad,CuDef*
G36*
G01*
X116050000Y-92144002D02*
X116050000Y-91243998D01*
G75*
G02*
X116299998Y-90994000I249998J0D01*
G01*
X116825002Y-90994000D01*
G75*
G02*
X117075000Y-91243998I0J-249998D01*
G01*
X117075000Y-92144002D01*
G75*
G02*
X116825002Y-92394000I-249998J0D01*
G01*
X116299998Y-92394000D01*
G75*
G02*
X116050000Y-92144002I0J249998D01*
G01*
G37*
G04 #@! TD.AperFunction*
G04 #@! TA.AperFunction,SMDPad,CuDef*
G36*
G01*
X146870000Y-118905000D02*
X146870000Y-119855000D01*
G75*
G02*
X146620000Y-120105000I-250000J0D01*
G01*
X146120000Y-120105000D01*
G75*
G02*
X145870000Y-119855000I0J250000D01*
G01*
X145870000Y-118905000D01*
G75*
G02*
X146120000Y-118655000I250000J0D01*
G01*
X146620000Y-118655000D01*
G75*
G02*
X146870000Y-118905000I0J-250000D01*
G01*
G37*
G04 #@! TD.AperFunction*
G04 #@! TA.AperFunction,SMDPad,CuDef*
G36*
G01*
X148770000Y-118905000D02*
X148770000Y-119855000D01*
G75*
G02*
X148520000Y-120105000I-250000J0D01*
G01*
X148020000Y-120105000D01*
G75*
G02*
X147770000Y-119855000I0J250000D01*
G01*
X147770000Y-118905000D01*
G75*
G02*
X148020000Y-118655000I250000J0D01*
G01*
X148520000Y-118655000D01*
G75*
G02*
X148770000Y-118905000I0J-250000D01*
G01*
G37*
G04 #@! TD.AperFunction*
G04 #@! TA.AperFunction,SMDPad,CuDef*
G36*
G01*
X147770000Y-113124000D02*
X147770000Y-112174000D01*
G75*
G02*
X148020000Y-111924000I250000J0D01*
G01*
X148520000Y-111924000D01*
G75*
G02*
X148770000Y-112174000I0J-250000D01*
G01*
X148770000Y-113124000D01*
G75*
G02*
X148520000Y-113374000I-250000J0D01*
G01*
X148020000Y-113374000D01*
G75*
G02*
X147770000Y-113124000I0J250000D01*
G01*
G37*
G04 #@! TD.AperFunction*
G04 #@! TA.AperFunction,SMDPad,CuDef*
G36*
G01*
X145870000Y-113124000D02*
X145870000Y-112174000D01*
G75*
G02*
X146120000Y-111924000I250000J0D01*
G01*
X146620000Y-111924000D01*
G75*
G02*
X146870000Y-112174000I0J-250000D01*
G01*
X146870000Y-113124000D01*
G75*
G02*
X146620000Y-113374000I-250000J0D01*
G01*
X146120000Y-113374000D01*
G75*
G02*
X145870000Y-113124000I0J250000D01*
G01*
G37*
G04 #@! TD.AperFunction*
G04 #@! TA.AperFunction,SMDPad,CuDef*
G36*
G01*
X115349000Y-72078000D02*
X116299000Y-72078000D01*
G75*
G02*
X116549000Y-72328000I0J-250000D01*
G01*
X116549000Y-72828000D01*
G75*
G02*
X116299000Y-73078000I-250000J0D01*
G01*
X115349000Y-73078000D01*
G75*
G02*
X115099000Y-72828000I0J250000D01*
G01*
X115099000Y-72328000D01*
G75*
G02*
X115349000Y-72078000I250000J0D01*
G01*
G37*
G04 #@! TD.AperFunction*
G04 #@! TA.AperFunction,SMDPad,CuDef*
G36*
G01*
X115349000Y-70178000D02*
X116299000Y-70178000D01*
G75*
G02*
X116549000Y-70428000I0J-250000D01*
G01*
X116549000Y-70928000D01*
G75*
G02*
X116299000Y-71178000I-250000J0D01*
G01*
X115349000Y-71178000D01*
G75*
G02*
X115099000Y-70928000I0J250000D01*
G01*
X115099000Y-70428000D01*
G75*
G02*
X115349000Y-70178000I250000J0D01*
G01*
G37*
G04 #@! TD.AperFunction*
G04 #@! TA.AperFunction,SMDPad,CuDef*
G36*
G01*
X117051500Y-87941998D02*
X117051500Y-88842002D01*
G75*
G02*
X116801502Y-89092000I-249998J0D01*
G01*
X116276498Y-89092000D01*
G75*
G02*
X116026500Y-88842002I0J249998D01*
G01*
X116026500Y-87941998D01*
G75*
G02*
X116276498Y-87692000I249998J0D01*
G01*
X116801502Y-87692000D01*
G75*
G02*
X117051500Y-87941998I0J-249998D01*
G01*
G37*
G04 #@! TD.AperFunction*
G04 #@! TA.AperFunction,SMDPad,CuDef*
G36*
G01*
X118876500Y-87941998D02*
X118876500Y-88842002D01*
G75*
G02*
X118626502Y-89092000I-249998J0D01*
G01*
X118101498Y-89092000D01*
G75*
G02*
X117851500Y-88842002I0J249998D01*
G01*
X117851500Y-87941998D01*
G75*
G02*
X118101498Y-87692000I249998J0D01*
G01*
X118626502Y-87692000D01*
G75*
G02*
X118876500Y-87941998I0J-249998D01*
G01*
G37*
G04 #@! TD.AperFunction*
G04 #@! TA.AperFunction,SMDPad,CuDef*
G36*
G01*
X118941002Y-104756000D02*
X118040998Y-104756000D01*
G75*
G02*
X117791000Y-104506002I0J249998D01*
G01*
X117791000Y-103980998D01*
G75*
G02*
X118040998Y-103731000I249998J0D01*
G01*
X118941002Y-103731000D01*
G75*
G02*
X119191000Y-103980998I0J-249998D01*
G01*
X119191000Y-104506002D01*
G75*
G02*
X118941002Y-104756000I-249998J0D01*
G01*
G37*
G04 #@! TD.AperFunction*
G04 #@! TA.AperFunction,SMDPad,CuDef*
G36*
G01*
X118941002Y-106581000D02*
X118040998Y-106581000D01*
G75*
G02*
X117791000Y-106331002I0J249998D01*
G01*
X117791000Y-105805998D01*
G75*
G02*
X118040998Y-105556000I249998J0D01*
G01*
X118941002Y-105556000D01*
G75*
G02*
X119191000Y-105805998I0J-249998D01*
G01*
X119191000Y-106331002D01*
G75*
G02*
X118941002Y-106581000I-249998J0D01*
G01*
G37*
G04 #@! TD.AperFunction*
G04 #@! TA.AperFunction,SMDPad,CuDef*
G36*
G01*
X115881998Y-105556000D02*
X116782002Y-105556000D01*
G75*
G02*
X117032000Y-105805998I0J-249998D01*
G01*
X117032000Y-106331002D01*
G75*
G02*
X116782002Y-106581000I-249998J0D01*
G01*
X115881998Y-106581000D01*
G75*
G02*
X115632000Y-106331002I0J249998D01*
G01*
X115632000Y-105805998D01*
G75*
G02*
X115881998Y-105556000I249998J0D01*
G01*
G37*
G04 #@! TD.AperFunction*
G04 #@! TA.AperFunction,SMDPad,CuDef*
G36*
G01*
X115881998Y-103731000D02*
X116782002Y-103731000D01*
G75*
G02*
X117032000Y-103980998I0J-249998D01*
G01*
X117032000Y-104506002D01*
G75*
G02*
X116782002Y-104756000I-249998J0D01*
G01*
X115881998Y-104756000D01*
G75*
G02*
X115632000Y-104506002I0J249998D01*
G01*
X115632000Y-103980998D01*
G75*
G02*
X115881998Y-103731000I249998J0D01*
G01*
G37*
G04 #@! TD.AperFunction*
G04 #@! TA.AperFunction,SMDPad,CuDef*
G36*
G01*
X149040002Y-74403000D02*
X148139998Y-74403000D01*
G75*
G02*
X147890000Y-74153002I0J249998D01*
G01*
X147890000Y-73627998D01*
G75*
G02*
X148139998Y-73378000I249998J0D01*
G01*
X149040002Y-73378000D01*
G75*
G02*
X149290000Y-73627998I0J-249998D01*
G01*
X149290000Y-74153002D01*
G75*
G02*
X149040002Y-74403000I-249998J0D01*
G01*
G37*
G04 #@! TD.AperFunction*
G04 #@! TA.AperFunction,SMDPad,CuDef*
G36*
G01*
X149040002Y-76228000D02*
X148139998Y-76228000D01*
G75*
G02*
X147890000Y-75978002I0J249998D01*
G01*
X147890000Y-75452998D01*
G75*
G02*
X148139998Y-75203000I249998J0D01*
G01*
X149040002Y-75203000D01*
G75*
G02*
X149290000Y-75452998I0J-249998D01*
G01*
X149290000Y-75978002D01*
G75*
G02*
X149040002Y-76228000I-249998J0D01*
G01*
G37*
G04 #@! TD.AperFunction*
G04 #@! TA.AperFunction,SMDPad,CuDef*
G36*
G01*
X135405000Y-114451000D02*
X135105000Y-114451000D01*
G75*
G02*
X134955000Y-114301000I0J150000D01*
G01*
X134955000Y-112651000D01*
G75*
G02*
X135105000Y-112501000I150000J0D01*
G01*
X135405000Y-112501000D01*
G75*
G02*
X135555000Y-112651000I0J-150000D01*
G01*
X135555000Y-114301000D01*
G75*
G02*
X135405000Y-114451000I-150000J0D01*
G01*
G37*
G04 #@! TD.AperFunction*
G04 #@! TA.AperFunction,SMDPad,CuDef*
G36*
G01*
X136675000Y-114451000D02*
X136375000Y-114451000D01*
G75*
G02*
X136225000Y-114301000I0J150000D01*
G01*
X136225000Y-112651000D01*
G75*
G02*
X136375000Y-112501000I150000J0D01*
G01*
X136675000Y-112501000D01*
G75*
G02*
X136825000Y-112651000I0J-150000D01*
G01*
X136825000Y-114301000D01*
G75*
G02*
X136675000Y-114451000I-150000J0D01*
G01*
G37*
G04 #@! TD.AperFunction*
G04 #@! TA.AperFunction,SMDPad,CuDef*
G36*
G01*
X137945000Y-114451000D02*
X137645000Y-114451000D01*
G75*
G02*
X137495000Y-114301000I0J150000D01*
G01*
X137495000Y-112651000D01*
G75*
G02*
X137645000Y-112501000I150000J0D01*
G01*
X137945000Y-112501000D01*
G75*
G02*
X138095000Y-112651000I0J-150000D01*
G01*
X138095000Y-114301000D01*
G75*
G02*
X137945000Y-114451000I-150000J0D01*
G01*
G37*
G04 #@! TD.AperFunction*
G04 #@! TA.AperFunction,SMDPad,CuDef*
G36*
G01*
X139215000Y-114451000D02*
X138915000Y-114451000D01*
G75*
G02*
X138765000Y-114301000I0J150000D01*
G01*
X138765000Y-112651000D01*
G75*
G02*
X138915000Y-112501000I150000J0D01*
G01*
X139215000Y-112501000D01*
G75*
G02*
X139365000Y-112651000I0J-150000D01*
G01*
X139365000Y-114301000D01*
G75*
G02*
X139215000Y-114451000I-150000J0D01*
G01*
G37*
G04 #@! TD.AperFunction*
G04 #@! TA.AperFunction,SMDPad,CuDef*
G36*
G01*
X140485000Y-114451000D02*
X140185000Y-114451000D01*
G75*
G02*
X140035000Y-114301000I0J150000D01*
G01*
X140035000Y-112651000D01*
G75*
G02*
X140185000Y-112501000I150000J0D01*
G01*
X140485000Y-112501000D01*
G75*
G02*
X140635000Y-112651000I0J-150000D01*
G01*
X140635000Y-114301000D01*
G75*
G02*
X140485000Y-114451000I-150000J0D01*
G01*
G37*
G04 #@! TD.AperFunction*
G04 #@! TA.AperFunction,SMDPad,CuDef*
G36*
G01*
X141755000Y-114451000D02*
X141455000Y-114451000D01*
G75*
G02*
X141305000Y-114301000I0J150000D01*
G01*
X141305000Y-112651000D01*
G75*
G02*
X141455000Y-112501000I150000J0D01*
G01*
X141755000Y-112501000D01*
G75*
G02*
X141905000Y-112651000I0J-150000D01*
G01*
X141905000Y-114301000D01*
G75*
G02*
X141755000Y-114451000I-150000J0D01*
G01*
G37*
G04 #@! TD.AperFunction*
G04 #@! TA.AperFunction,SMDPad,CuDef*
G36*
G01*
X143025000Y-114451000D02*
X142725000Y-114451000D01*
G75*
G02*
X142575000Y-114301000I0J150000D01*
G01*
X142575000Y-112651000D01*
G75*
G02*
X142725000Y-112501000I150000J0D01*
G01*
X143025000Y-112501000D01*
G75*
G02*
X143175000Y-112651000I0J-150000D01*
G01*
X143175000Y-114301000D01*
G75*
G02*
X143025000Y-114451000I-150000J0D01*
G01*
G37*
G04 #@! TD.AperFunction*
G04 #@! TA.AperFunction,SMDPad,CuDef*
G36*
G01*
X144295000Y-114451000D02*
X143995000Y-114451000D01*
G75*
G02*
X143845000Y-114301000I0J150000D01*
G01*
X143845000Y-112651000D01*
G75*
G02*
X143995000Y-112501000I150000J0D01*
G01*
X144295000Y-112501000D01*
G75*
G02*
X144445000Y-112651000I0J-150000D01*
G01*
X144445000Y-114301000D01*
G75*
G02*
X144295000Y-114451000I-150000J0D01*
G01*
G37*
G04 #@! TD.AperFunction*
G04 #@! TA.AperFunction,SMDPad,CuDef*
G36*
G01*
X144295000Y-119401000D02*
X143995000Y-119401000D01*
G75*
G02*
X143845000Y-119251000I0J150000D01*
G01*
X143845000Y-117601000D01*
G75*
G02*
X143995000Y-117451000I150000J0D01*
G01*
X144295000Y-117451000D01*
G75*
G02*
X144445000Y-117601000I0J-150000D01*
G01*
X144445000Y-119251000D01*
G75*
G02*
X144295000Y-119401000I-150000J0D01*
G01*
G37*
G04 #@! TD.AperFunction*
G04 #@! TA.AperFunction,SMDPad,CuDef*
G36*
G01*
X143025000Y-119401000D02*
X142725000Y-119401000D01*
G75*
G02*
X142575000Y-119251000I0J150000D01*
G01*
X142575000Y-117601000D01*
G75*
G02*
X142725000Y-117451000I150000J0D01*
G01*
X143025000Y-117451000D01*
G75*
G02*
X143175000Y-117601000I0J-150000D01*
G01*
X143175000Y-119251000D01*
G75*
G02*
X143025000Y-119401000I-150000J0D01*
G01*
G37*
G04 #@! TD.AperFunction*
G04 #@! TA.AperFunction,SMDPad,CuDef*
G36*
G01*
X141755000Y-119401000D02*
X141455000Y-119401000D01*
G75*
G02*
X141305000Y-119251000I0J150000D01*
G01*
X141305000Y-117601000D01*
G75*
G02*
X141455000Y-117451000I150000J0D01*
G01*
X141755000Y-117451000D01*
G75*
G02*
X141905000Y-117601000I0J-150000D01*
G01*
X141905000Y-119251000D01*
G75*
G02*
X141755000Y-119401000I-150000J0D01*
G01*
G37*
G04 #@! TD.AperFunction*
G04 #@! TA.AperFunction,SMDPad,CuDef*
G36*
G01*
X140485000Y-119401000D02*
X140185000Y-119401000D01*
G75*
G02*
X140035000Y-119251000I0J150000D01*
G01*
X140035000Y-117601000D01*
G75*
G02*
X140185000Y-117451000I150000J0D01*
G01*
X140485000Y-117451000D01*
G75*
G02*
X140635000Y-117601000I0J-150000D01*
G01*
X140635000Y-119251000D01*
G75*
G02*
X140485000Y-119401000I-150000J0D01*
G01*
G37*
G04 #@! TD.AperFunction*
G04 #@! TA.AperFunction,SMDPad,CuDef*
G36*
G01*
X139215000Y-119401000D02*
X138915000Y-119401000D01*
G75*
G02*
X138765000Y-119251000I0J150000D01*
G01*
X138765000Y-117601000D01*
G75*
G02*
X138915000Y-117451000I150000J0D01*
G01*
X139215000Y-117451000D01*
G75*
G02*
X139365000Y-117601000I0J-150000D01*
G01*
X139365000Y-119251000D01*
G75*
G02*
X139215000Y-119401000I-150000J0D01*
G01*
G37*
G04 #@! TD.AperFunction*
G04 #@! TA.AperFunction,SMDPad,CuDef*
G36*
G01*
X137945000Y-119401000D02*
X137645000Y-119401000D01*
G75*
G02*
X137495000Y-119251000I0J150000D01*
G01*
X137495000Y-117601000D01*
G75*
G02*
X137645000Y-117451000I150000J0D01*
G01*
X137945000Y-117451000D01*
G75*
G02*
X138095000Y-117601000I0J-150000D01*
G01*
X138095000Y-119251000D01*
G75*
G02*
X137945000Y-119401000I-150000J0D01*
G01*
G37*
G04 #@! TD.AperFunction*
G04 #@! TA.AperFunction,SMDPad,CuDef*
G36*
G01*
X136675000Y-119401000D02*
X136375000Y-119401000D01*
G75*
G02*
X136225000Y-119251000I0J150000D01*
G01*
X136225000Y-117601000D01*
G75*
G02*
X136375000Y-117451000I150000J0D01*
G01*
X136675000Y-117451000D01*
G75*
G02*
X136825000Y-117601000I0J-150000D01*
G01*
X136825000Y-119251000D01*
G75*
G02*
X136675000Y-119401000I-150000J0D01*
G01*
G37*
G04 #@! TD.AperFunction*
G04 #@! TA.AperFunction,SMDPad,CuDef*
G36*
G01*
X135405000Y-119401000D02*
X135105000Y-119401000D01*
G75*
G02*
X134955000Y-119251000I0J150000D01*
G01*
X134955000Y-117601000D01*
G75*
G02*
X135105000Y-117451000I150000J0D01*
G01*
X135405000Y-117451000D01*
G75*
G02*
X135555000Y-117601000I0J-150000D01*
G01*
X135555000Y-119251000D01*
G75*
G02*
X135405000Y-119401000I-150000J0D01*
G01*
G37*
G04 #@! TD.AperFunction*
D28*
X117475000Y-110093000D03*
X116525000Y-108093000D03*
X118425000Y-108093000D03*
X116525000Y-102092000D03*
X118425000Y-102092000D03*
X117475000Y-100092000D03*
G04 #@! TA.AperFunction,SMDPad,CuDef*
G36*
G01*
X148913002Y-71656000D02*
X148012998Y-71656000D01*
G75*
G02*
X147763000Y-71406002I0J249998D01*
G01*
X147763000Y-70880998D01*
G75*
G02*
X148012998Y-70631000I249998J0D01*
G01*
X148913002Y-70631000D01*
G75*
G02*
X149163000Y-70880998I0J-249998D01*
G01*
X149163000Y-71406002D01*
G75*
G02*
X148913002Y-71656000I-249998J0D01*
G01*
G37*
G04 #@! TD.AperFunction*
G04 #@! TA.AperFunction,SMDPad,CuDef*
G36*
G01*
X148913002Y-69831000D02*
X148012998Y-69831000D01*
G75*
G02*
X147763000Y-69581002I0J249998D01*
G01*
X147763000Y-69055998D01*
G75*
G02*
X148012998Y-68806000I249998J0D01*
G01*
X148913002Y-68806000D01*
G75*
G02*
X149163000Y-69055998I0J-249998D01*
G01*
X149163000Y-69581002D01*
G75*
G02*
X148913002Y-69831000I-249998J0D01*
G01*
G37*
G04 #@! TD.AperFunction*
D14*
X124206000Y-107950000D03*
D13*
X124206000Y-105410000D03*
X124206000Y-102870000D03*
X124206000Y-100330000D03*
X124206000Y-97790000D03*
X124206000Y-95250000D03*
X124206000Y-92710000D03*
X124206000Y-90170000D03*
G04 #@! TA.AperFunction,SMDPad,CuDef*
G36*
G01*
X148659002Y-85325000D02*
X147758998Y-85325000D01*
G75*
G02*
X147509000Y-85075002I0J249998D01*
G01*
X147509000Y-84549998D01*
G75*
G02*
X147758998Y-84300000I249998J0D01*
G01*
X148659002Y-84300000D01*
G75*
G02*
X148909000Y-84549998I0J-249998D01*
G01*
X148909000Y-85075002D01*
G75*
G02*
X148659002Y-85325000I-249998J0D01*
G01*
G37*
G04 #@! TD.AperFunction*
G04 #@! TA.AperFunction,SMDPad,CuDef*
G36*
G01*
X148659002Y-87150000D02*
X147758998Y-87150000D01*
G75*
G02*
X147509000Y-86900002I0J249998D01*
G01*
X147509000Y-86374998D01*
G75*
G02*
X147758998Y-86125000I249998J0D01*
G01*
X148659002Y-86125000D01*
G75*
G02*
X148909000Y-86374998I0J-249998D01*
G01*
X148909000Y-86900002D01*
G75*
G02*
X148659002Y-87150000I-249998J0D01*
G01*
G37*
G04 #@! TD.AperFunction*
G04 #@! TA.AperFunction,SMDPad,CuDef*
G36*
G01*
X146246002Y-88039000D02*
X145345998Y-88039000D01*
G75*
G02*
X145096000Y-87789002I0J249998D01*
G01*
X145096000Y-87263998D01*
G75*
G02*
X145345998Y-87014000I249998J0D01*
G01*
X146246002Y-87014000D01*
G75*
G02*
X146496000Y-87263998I0J-249998D01*
G01*
X146496000Y-87789002D01*
G75*
G02*
X146246002Y-88039000I-249998J0D01*
G01*
G37*
G04 #@! TD.AperFunction*
G04 #@! TA.AperFunction,SMDPad,CuDef*
G36*
G01*
X146246002Y-86214000D02*
X145345998Y-86214000D01*
G75*
G02*
X145096000Y-85964002I0J249998D01*
G01*
X145096000Y-85438998D01*
G75*
G02*
X145345998Y-85189000I249998J0D01*
G01*
X146246002Y-85189000D01*
G75*
G02*
X146496000Y-85438998I0J-249998D01*
G01*
X146496000Y-85964002D01*
G75*
G02*
X146246002Y-86214000I-249998J0D01*
G01*
G37*
G04 #@! TD.AperFunction*
X154813000Y-66548000D03*
X154813000Y-69088000D03*
D14*
X154813000Y-71628000D03*
X152273000Y-71628000D03*
D13*
X152273000Y-69088000D03*
X152273000Y-66548000D03*
D22*
X130429000Y-74676000D03*
D23*
X132969000Y-74676000D03*
X139700000Y-74803000D03*
D22*
X137160000Y-74803000D03*
D28*
X135824000Y-68977000D03*
X133924000Y-68977000D03*
X134874000Y-70977000D03*
G04 #@! TA.AperFunction,SMDPad,CuDef*
G36*
G01*
X129343999Y-70250000D02*
X130244001Y-70250000D01*
G75*
G02*
X130494000Y-70499999I0J-249999D01*
G01*
X130494000Y-71025001D01*
G75*
G02*
X130244001Y-71275000I-249999J0D01*
G01*
X129343999Y-71275000D01*
G75*
G02*
X129094000Y-71025001I0J249999D01*
G01*
X129094000Y-70499999D01*
G75*
G02*
X129343999Y-70250000I249999J0D01*
G01*
G37*
G04 #@! TD.AperFunction*
G04 #@! TA.AperFunction,SMDPad,CuDef*
G36*
G01*
X129343999Y-68425000D02*
X130244001Y-68425000D01*
G75*
G02*
X130494000Y-68674999I0J-249999D01*
G01*
X130494000Y-69200001D01*
G75*
G02*
X130244001Y-69450000I-249999J0D01*
G01*
X129343999Y-69450000D01*
G75*
G02*
X129094000Y-69200001I0J249999D01*
G01*
X129094000Y-68674999D01*
G75*
G02*
X129343999Y-68425000I249999J0D01*
G01*
G37*
G04 #@! TD.AperFunction*
G04 #@! TA.AperFunction,SMDPad,CuDef*
G36*
G01*
X135451001Y-77498000D02*
X134550999Y-77498000D01*
G75*
G02*
X134301000Y-77248001I0J249999D01*
G01*
X134301000Y-76722999D01*
G75*
G02*
X134550999Y-76473000I249999J0D01*
G01*
X135451001Y-76473000D01*
G75*
G02*
X135701000Y-76722999I0J-249999D01*
G01*
X135701000Y-77248001D01*
G75*
G02*
X135451001Y-77498000I-249999J0D01*
G01*
G37*
G04 #@! TD.AperFunction*
G04 #@! TA.AperFunction,SMDPad,CuDef*
G36*
G01*
X135451001Y-75673000D02*
X134550999Y-75673000D01*
G75*
G02*
X134301000Y-75423001I0J249999D01*
G01*
X134301000Y-74897999D01*
G75*
G02*
X134550999Y-74648000I249999J0D01*
G01*
X135451001Y-74648000D01*
G75*
G02*
X135701000Y-74897999I0J-249999D01*
G01*
X135701000Y-75423001D01*
G75*
G02*
X135451001Y-75673000I-249999J0D01*
G01*
G37*
G04 #@! TD.AperFunction*
G04 #@! TA.AperFunction,SMDPad,CuDef*
G36*
G01*
X141535999Y-74775000D02*
X142436001Y-74775000D01*
G75*
G02*
X142686000Y-75024999I0J-249999D01*
G01*
X142686000Y-75550001D01*
G75*
G02*
X142436001Y-75800000I-249999J0D01*
G01*
X141535999Y-75800000D01*
G75*
G02*
X141286000Y-75550001I0J249999D01*
G01*
X141286000Y-75024999D01*
G75*
G02*
X141535999Y-74775000I249999J0D01*
G01*
G37*
G04 #@! TD.AperFunction*
G04 #@! TA.AperFunction,SMDPad,CuDef*
G36*
G01*
X141535999Y-76600000D02*
X142436001Y-76600000D01*
G75*
G02*
X142686000Y-76849999I0J-249999D01*
G01*
X142686000Y-77375001D01*
G75*
G02*
X142436001Y-77625000I-249999J0D01*
G01*
X141535999Y-77625000D01*
G75*
G02*
X141286000Y-77375001I0J249999D01*
G01*
X141286000Y-76849999D01*
G75*
G02*
X141535999Y-76600000I249999J0D01*
G01*
G37*
G04 #@! TD.AperFunction*
D29*
X132461000Y-68453000D03*
X131445000Y-111887000D03*
X150114000Y-112395000D03*
X149733000Y-118237000D03*
X144653000Y-79629000D03*
X150114000Y-113284000D03*
X127508000Y-108966000D03*
X142494000Y-107569000D03*
X143383000Y-107569000D03*
X142494000Y-108458000D03*
X143383000Y-108458000D03*
X127635000Y-65405000D03*
X128524000Y-65405000D03*
X131191000Y-65405000D03*
X132080000Y-65405000D03*
X151765000Y-112395000D03*
X120269000Y-109855000D03*
X136652000Y-115570000D03*
X120650000Y-107950000D03*
X121412000Y-105029000D03*
X133350000Y-111887000D03*
X139573000Y-101854000D03*
X143002000Y-79629000D03*
X129032000Y-73533000D03*
X132207000Y-93218000D03*
X138049000Y-91694000D03*
X141986000Y-115443000D03*
X150749000Y-99060000D03*
X143002000Y-116459000D03*
X151130000Y-95504000D03*
D30*
X126217000Y-107950000D02*
X128163000Y-106004000D01*
X124206000Y-107950000D02*
X126217000Y-107950000D01*
X116539000Y-91670500D02*
X116562500Y-91694000D01*
X116539000Y-88392000D02*
X116539000Y-91670500D01*
X116562500Y-91694000D02*
X116562500Y-95123000D01*
D31*
X154201500Y-100965000D02*
X154328500Y-100838000D01*
D30*
X124079000Y-70256000D02*
X124079000Y-76556000D01*
X116539000Y-82863998D02*
X116539000Y-88392000D01*
X122580003Y-78584999D02*
X120817999Y-78584999D01*
X120817999Y-78584999D02*
X116539000Y-82863998D01*
X124079000Y-77086002D02*
X122580003Y-78584999D01*
X124079000Y-76556000D02*
X124079000Y-77086002D01*
X152273000Y-88265000D02*
X150560000Y-88265000D01*
X156718000Y-92710000D02*
X152273000Y-88265000D01*
D31*
X149836500Y-88265000D02*
X148209000Y-86637500D01*
X150560000Y-88265000D02*
X149836500Y-88265000D01*
X146534500Y-88265000D02*
X145796000Y-87526500D01*
X150560000Y-88265000D02*
X146534500Y-88265000D01*
D30*
X121012999Y-111143001D02*
X124206000Y-107950000D01*
X116594999Y-111143001D02*
X121012999Y-111143001D01*
X115031990Y-109579992D02*
X116594999Y-111143001D01*
X115031990Y-96653510D02*
X115031990Y-109579992D01*
X116562500Y-95123000D02*
X115031990Y-96653510D01*
X124206000Y-107950000D02*
X126746000Y-110490000D01*
X154051000Y-110490000D02*
X156718000Y-107823000D01*
X156591000Y-104140000D02*
X156718000Y-104267000D01*
X154201500Y-104140000D02*
X156591000Y-104140000D01*
X156718000Y-107823000D02*
X156718000Y-104267000D01*
X156591000Y-100838000D02*
X156718000Y-100965000D01*
X154328500Y-100838000D02*
X156591000Y-100838000D01*
X156718000Y-100965000D02*
X156718000Y-92710000D01*
X156718000Y-104267000D02*
X156718000Y-100965000D01*
D31*
X129542001Y-110492001D02*
X129540000Y-110490000D01*
X129542001Y-120550003D02*
X129542001Y-110492001D01*
X130086999Y-121095001D02*
X129542001Y-120550003D01*
X137370999Y-121095001D02*
X130086999Y-121095001D01*
X139065000Y-118426000D02*
X139065000Y-119401000D01*
X139065000Y-119401000D02*
X137370999Y-121095001D01*
D30*
X126746000Y-110490000D02*
X129540000Y-110490000D01*
D31*
X132599999Y-110605001D02*
X132715000Y-110490000D01*
X132599999Y-112247001D02*
X132599999Y-110605001D01*
X135255000Y-113476000D02*
X133828998Y-113476000D01*
X133828998Y-113476000D02*
X132599999Y-112247001D01*
D30*
X132715000Y-110490000D02*
X154051000Y-110490000D01*
X129540000Y-110490000D02*
X132715000Y-110490000D01*
X116246000Y-70256000D02*
X115824000Y-70678000D01*
X124079000Y-70256000D02*
X116246000Y-70256000D01*
D31*
X148947500Y-71628000D02*
X148463000Y-71143500D01*
X152273000Y-71628000D02*
X148947500Y-71628000D01*
X154813000Y-71628000D02*
X152273000Y-71628000D01*
X137021000Y-67437000D02*
X126898000Y-67437000D01*
X126898000Y-67437000D02*
X124079000Y-70256000D01*
X139688000Y-70104000D02*
X137021000Y-67437000D01*
D32*
X148463000Y-71143500D02*
X147804500Y-71143500D01*
X147804500Y-71143500D02*
X146431000Y-72517000D01*
X141593000Y-72517000D02*
X139688000Y-70612000D01*
X146431000Y-72517000D02*
X141593000Y-72517000D01*
D31*
X146370000Y-116651000D02*
X148270000Y-114751000D01*
X146370000Y-117151000D02*
X146370000Y-116651000D01*
D30*
X152273000Y-66548000D02*
X154813000Y-66548000D01*
D31*
X150560000Y-86995000D02*
X155510000Y-86995000D01*
X155510000Y-84455000D02*
X155510000Y-85725000D01*
X155510000Y-85725000D02*
X155510000Y-86995000D01*
X155510000Y-86995000D02*
X155510000Y-88265000D01*
X146370000Y-117151000D02*
X146370000Y-119380000D01*
X148270000Y-112649000D02*
X148270000Y-114751000D01*
X131392000Y-118745000D02*
X131392000Y-114495000D01*
X121592000Y-118745000D02*
X121592000Y-114495000D01*
X131711000Y-118426000D02*
X131392000Y-118745000D01*
X135255000Y-118426000D02*
X131711000Y-118426000D01*
D30*
X145309000Y-107950000D02*
X143363000Y-106004000D01*
X147066000Y-107950000D02*
X145309000Y-107950000D01*
D31*
X121848000Y-80085000D02*
X121848000Y-86285000D01*
X118909954Y-86285000D02*
X121848000Y-86285000D01*
X117501490Y-87693464D02*
X118909954Y-86285000D01*
X117501490Y-96903990D02*
X117501490Y-87693464D01*
X118387500Y-97790000D02*
X117501490Y-96903990D01*
X151765000Y-117458546D02*
X151765000Y-112395000D01*
X146628515Y-122595031D02*
X151765000Y-117458546D01*
X129465669Y-122595031D02*
X146628515Y-122595031D01*
X125191990Y-118321352D02*
X129465669Y-122595031D01*
X125191990Y-116345001D02*
X125191990Y-118321352D01*
X124892000Y-116045011D02*
X125191990Y-116345001D01*
X124892000Y-114495000D02*
X124892000Y-116045011D01*
D30*
X139319000Y-80645000D02*
X139319000Y-80137000D01*
X139319000Y-80137000D02*
X137414000Y-78232000D01*
D31*
X135763000Y-78105000D02*
X135636000Y-78232000D01*
D30*
X137414000Y-78232000D02*
X135636000Y-78232000D01*
D31*
X128270000Y-78447000D02*
X127781500Y-77958500D01*
D30*
X127781500Y-77958500D02*
X126379000Y-76556000D01*
X128055000Y-78232000D02*
X127781500Y-77958500D01*
X128270000Y-78447000D02*
X128055000Y-78232000D01*
X128270000Y-79822000D02*
X128270000Y-78447000D01*
D32*
X135001000Y-78105000D02*
X134874000Y-78232000D01*
D30*
X134874000Y-78232000D02*
X128055000Y-78232000D01*
X135636000Y-78232000D02*
X134874000Y-78232000D01*
X135001000Y-76985500D02*
X135001000Y-78105000D01*
D31*
X139319000Y-80645000D02*
X147418882Y-80645000D01*
X148590000Y-79473882D02*
X148590000Y-75715500D01*
X147418882Y-80645000D02*
X148590000Y-79473882D01*
X124206000Y-90170000D02*
X126329000Y-90170000D01*
X126601000Y-90442000D02*
X128163000Y-92004000D01*
X126329000Y-90170000D02*
X126601000Y-90442000D01*
X122428000Y-88392000D02*
X124206000Y-90170000D01*
X118364000Y-88392000D02*
X122428000Y-88392000D01*
X125548000Y-88828000D02*
X124206000Y-90170000D01*
X125548000Y-86285000D02*
X125548000Y-88828000D01*
X125548000Y-80085000D02*
X125548000Y-86285000D01*
X120031000Y-110093000D02*
X120269000Y-109855000D01*
X117475000Y-110093000D02*
X120031000Y-110093000D01*
X148105500Y-73533000D02*
X148463000Y-73890500D01*
D32*
X148150499Y-73450999D02*
X148590000Y-73890500D01*
X145243001Y-73450999D02*
X148150499Y-73450999D01*
X144018000Y-74676000D02*
X145243001Y-73450999D01*
D31*
X116332000Y-107900000D02*
X116525000Y-108093000D01*
X116332000Y-106068500D02*
X116332000Y-107900000D01*
X137795000Y-114427000D02*
X136652000Y-115570000D01*
X137795000Y-113476000D02*
X137795000Y-114427000D01*
X117325001Y-108893001D02*
X116525000Y-108093000D01*
X119706999Y-108893001D02*
X117325001Y-108893001D01*
X120650000Y-107950000D02*
X119706999Y-108893001D01*
X143689000Y-100330000D02*
X143363000Y-100004000D01*
X147066000Y-100330000D02*
X143689000Y-100330000D01*
X126562881Y-100854001D02*
X137524999Y-100854001D01*
X124838879Y-99129999D02*
X126562881Y-100854001D01*
X118437001Y-99129999D02*
X124838879Y-99129999D01*
X117475000Y-100092000D02*
X118437001Y-99129999D01*
X138375000Y-100004000D02*
X143363000Y-100004000D01*
X137524999Y-100854001D02*
X138375000Y-100004000D01*
X147574000Y-100838000D02*
X147066000Y-100330000D01*
X152503500Y-100838000D02*
X147574000Y-100838000D01*
X118425000Y-104177500D02*
X118491000Y-104243500D01*
X118425000Y-102092000D02*
X118425000Y-104177500D01*
X120626500Y-104243500D02*
X121412000Y-105029000D01*
X118491000Y-104243500D02*
X120626500Y-104243500D01*
X139065000Y-112501000D02*
X139065000Y-113476000D01*
X138451000Y-111887000D02*
X139065000Y-112501000D01*
X133350000Y-111887000D02*
X138451000Y-111887000D01*
X144229000Y-102870000D02*
X143363000Y-102004000D01*
X147066000Y-102870000D02*
X144229000Y-102870000D01*
X148336000Y-104140000D02*
X147066000Y-102870000D01*
X152376500Y-104140000D02*
X148336000Y-104140000D01*
X124462001Y-105153999D02*
X131193001Y-105153999D01*
X124206000Y-105410000D02*
X124462001Y-105153999D01*
X132343000Y-104004000D02*
X143363000Y-104004000D01*
X131193001Y-105153999D02*
X132343000Y-104004000D01*
X143363000Y-104004000D02*
X143883998Y-104004000D01*
X120087999Y-101291999D02*
X124206000Y-105410000D01*
X117194997Y-101291999D02*
X120087999Y-101291999D01*
X141723000Y-104004000D02*
X139573000Y-101854000D01*
X143363000Y-104004000D02*
X141723000Y-104004000D01*
X116562500Y-100659502D02*
X116562500Y-97790000D01*
X117194997Y-101291999D02*
X116562500Y-100659502D01*
D32*
X141986000Y-79629000D02*
X137160000Y-74803000D01*
X143002000Y-79629000D02*
X141986000Y-79629000D01*
D31*
X126960000Y-98004000D02*
X128163000Y-98004000D01*
X124206000Y-95250000D02*
X126960000Y-98004000D01*
X124079000Y-95123000D02*
X124206000Y-95250000D01*
X118387500Y-95123000D02*
X124079000Y-95123000D01*
X125880000Y-102004000D02*
X124206000Y-100330000D01*
X128163000Y-102004000D02*
X125880000Y-102004000D01*
X148693500Y-69088000D02*
X148463000Y-69318500D01*
X152042500Y-69318500D02*
X152273000Y-69088000D01*
X148463000Y-69318500D02*
X152042500Y-69318500D01*
D32*
X143021500Y-69318500D02*
X148463000Y-69318500D01*
X141728000Y-70612000D02*
X143021500Y-69318500D01*
D31*
X126420000Y-100004000D02*
X124206000Y-97790000D01*
X128163000Y-100004000D02*
X126420000Y-100004000D01*
X129713000Y-100004000D02*
X128163000Y-100004000D01*
X134239000Y-95478000D02*
X129713000Y-100004000D01*
X134239000Y-80645000D02*
X134239000Y-95478000D01*
X143577000Y-97790000D02*
X143363000Y-98004000D01*
X147066000Y-97790000D02*
X143577000Y-97790000D01*
X141813000Y-98004000D02*
X143363000Y-98004000D01*
X141262989Y-97453989D02*
X141813000Y-98004000D01*
X141262989Y-88673465D02*
X141262989Y-97453989D01*
X145123954Y-84812500D02*
X141262989Y-88673465D01*
X148209000Y-84812500D02*
X145123954Y-84812500D01*
X148566500Y-84455000D02*
X148209000Y-84812500D01*
X150560000Y-84455000D02*
X148566500Y-84455000D01*
X144117000Y-95250000D02*
X143363000Y-96004000D01*
X147066000Y-95250000D02*
X144117000Y-95250000D01*
X145819500Y-85725000D02*
X145796000Y-85701500D01*
X150560000Y-85725000D02*
X145819500Y-85725000D01*
X141813000Y-96004000D02*
X143363000Y-96004000D01*
X141762999Y-95953999D02*
X141813000Y-96004000D01*
X141762999Y-89734501D02*
X141762999Y-95953999D01*
X145796000Y-85701500D02*
X141762999Y-89734501D01*
X145772000Y-94004000D02*
X143363000Y-94004000D01*
X147066000Y-92710000D02*
X145772000Y-94004000D01*
X151892000Y-97536000D02*
X152630500Y-97536000D01*
X147066000Y-92710000D02*
X151892000Y-97536000D01*
X145197000Y-90170000D02*
X143363000Y-92004000D01*
X147066000Y-90170000D02*
X145197000Y-90170000D01*
X148693500Y-90170000D02*
X152630500Y-94107000D01*
X147066000Y-90170000D02*
X148693500Y-90170000D01*
D32*
X130429000Y-74676000D02*
X130429000Y-76708000D01*
X130429000Y-76708000D02*
X130810000Y-77089000D01*
X133072500Y-77089000D02*
X135001000Y-75160500D01*
X130810000Y-77089000D02*
X133072500Y-77089000D01*
X132969000Y-72882000D02*
X134874000Y-70977000D01*
X132969000Y-74676000D02*
X132969000Y-72882000D01*
D31*
X118491000Y-108027000D02*
X118425000Y-108093000D01*
X118491000Y-106068500D02*
X118491000Y-108027000D01*
X116525000Y-104050500D02*
X116332000Y-104243500D01*
X116525000Y-102092000D02*
X116525000Y-104050500D01*
X125340000Y-104004000D02*
X124206000Y-102870000D01*
X128163000Y-104004000D02*
X125340000Y-104004000D01*
X129032000Y-71524500D02*
X129794000Y-70762500D01*
X129032000Y-73533000D02*
X129032000Y-71524500D01*
X125500000Y-94004000D02*
X128163000Y-94004000D01*
X124206000Y-92710000D02*
X125500000Y-94004000D01*
X131421000Y-94004000D02*
X132207000Y-93218000D01*
X128163000Y-94004000D02*
X131421000Y-94004000D01*
X156013001Y-70288001D02*
X154813000Y-69088000D01*
X156013001Y-72758001D02*
X156013001Y-70288001D01*
X138049000Y-90722002D02*
X156013001Y-72758001D01*
X138049000Y-91694000D02*
X138049000Y-90722002D01*
X125692000Y-118114242D02*
X125692000Y-114495000D01*
X138910979Y-122095021D02*
X129672779Y-122095021D01*
X141605000Y-119401000D02*
X138910979Y-122095021D01*
X129672779Y-122095021D02*
X125692000Y-118114242D01*
X141605000Y-118426000D02*
X141605000Y-119401000D01*
X126492000Y-118207122D02*
X126492000Y-114495000D01*
X138140989Y-121595011D02*
X129879889Y-121595011D01*
X140335000Y-119401000D02*
X138140989Y-121595011D01*
X129879889Y-121595011D02*
X126492000Y-118207122D01*
X140335000Y-118426000D02*
X140335000Y-119401000D01*
X148270000Y-117151000D02*
X148270000Y-119380000D01*
X142875000Y-119401000D02*
X142875000Y-118426000D01*
X143929010Y-120455010D02*
X142875000Y-119401000D01*
X147194990Y-120455010D02*
X143929010Y-120455010D01*
X148270000Y-119380000D02*
X147194990Y-120455010D01*
X144145000Y-116976000D02*
X146370000Y-114751000D01*
X144145000Y-118426000D02*
X144145000Y-116976000D01*
X146370000Y-112649000D02*
X146370000Y-114751000D01*
X126792880Y-96004000D02*
X128163000Y-96004000D01*
X124698881Y-93910001D02*
X126792880Y-96004000D01*
X120603501Y-93910001D02*
X124698881Y-93910001D01*
X118387500Y-91694000D02*
X120603501Y-93910001D01*
X138533000Y-115443000D02*
X141986000Y-115443000D01*
X136525000Y-117451000D02*
X138533000Y-115443000D01*
X136525000Y-118426000D02*
X136525000Y-117451000D01*
X152931500Y-99060000D02*
X154455500Y-97536000D01*
X150749000Y-99060000D02*
X152931500Y-99060000D01*
X138787000Y-116459000D02*
X143002000Y-116459000D01*
X137795000Y-117451000D02*
X138787000Y-116459000D01*
X137795000Y-118426000D02*
X137795000Y-117451000D01*
X153058500Y-95504000D02*
X154455500Y-94107000D01*
X151130000Y-95504000D02*
X153058500Y-95504000D01*
D32*
X140184500Y-75287500D02*
X139700000Y-74803000D01*
X141986000Y-75287500D02*
X140184500Y-75287500D01*
D31*
X135824000Y-68977000D02*
X134697000Y-70104000D01*
X134697000Y-70104000D02*
X132588000Y-70104000D01*
X131421500Y-68937500D02*
X129794000Y-68937500D01*
X132588000Y-70104000D02*
X131421500Y-68937500D01*
D33*
X134080129Y-64385500D02*
X133831500Y-64634129D01*
X133636153Y-64926485D01*
X133501596Y-65251335D01*
X133433000Y-65596193D01*
X133433000Y-65947807D01*
X133501596Y-66292665D01*
X133636153Y-66617515D01*
X133659195Y-66652000D01*
X126936552Y-66652000D01*
X126897999Y-66648203D01*
X126859446Y-66652000D01*
X126859439Y-66652000D01*
X126744113Y-66663359D01*
X126596140Y-66708246D01*
X126459767Y-66781138D01*
X126399559Y-66830550D01*
X126370187Y-66854655D01*
X126370184Y-66854658D01*
X126340236Y-66879236D01*
X126315658Y-66909184D01*
X124606915Y-68617928D01*
X122179000Y-68617928D01*
X122054518Y-68630188D01*
X121934820Y-68666498D01*
X121824506Y-68725463D01*
X121727815Y-68804815D01*
X121648463Y-68901506D01*
X121589498Y-69011820D01*
X121553188Y-69131518D01*
X121544375Y-69221000D01*
X116296827Y-69221000D01*
X116245999Y-69215994D01*
X116195171Y-69221000D01*
X116195162Y-69221000D01*
X116043105Y-69235976D01*
X115848007Y-69295159D01*
X115668203Y-69391266D01*
X115510604Y-69520604D01*
X115494745Y-69539928D01*
X115349000Y-69539928D01*
X115175746Y-69556992D01*
X115009150Y-69607528D01*
X114855614Y-69689595D01*
X114721038Y-69800038D01*
X114610595Y-69934614D01*
X114528528Y-70088150D01*
X114477992Y-70254746D01*
X114460928Y-70428000D01*
X114460928Y-70928000D01*
X114477992Y-71101254D01*
X114528528Y-71267850D01*
X114610595Y-71421386D01*
X114721038Y-71555962D01*
X114727594Y-71561342D01*
X114647815Y-71626815D01*
X114568463Y-71723506D01*
X114509498Y-71833820D01*
X114473188Y-71953518D01*
X114460928Y-72078000D01*
X114464000Y-72292250D01*
X114622750Y-72451000D01*
X115697000Y-72451000D01*
X115697000Y-72431000D01*
X115951000Y-72431000D01*
X115951000Y-72451000D01*
X117025250Y-72451000D01*
X117184000Y-72292250D01*
X117187072Y-72078000D01*
X117174812Y-71953518D01*
X117138502Y-71833820D01*
X117079537Y-71723506D01*
X117000185Y-71626815D01*
X116920406Y-71561342D01*
X116926962Y-71555962D01*
X117037405Y-71421386D01*
X117107098Y-71291000D01*
X121544375Y-71291000D01*
X121553188Y-71380482D01*
X121589498Y-71500180D01*
X121648463Y-71610494D01*
X121727815Y-71707185D01*
X121824506Y-71786537D01*
X121934820Y-71845502D01*
X122054518Y-71881812D01*
X122179000Y-71894072D01*
X123044000Y-71894072D01*
X123044001Y-74988317D01*
X122974506Y-75025463D01*
X122929000Y-75062809D01*
X122883494Y-75025463D01*
X122773180Y-74966498D01*
X122653482Y-74930188D01*
X122529000Y-74917928D01*
X122064750Y-74921000D01*
X121906000Y-75079750D01*
X121906000Y-76429000D01*
X121926000Y-76429000D01*
X121926000Y-76683000D01*
X121906000Y-76683000D01*
X121906000Y-76703000D01*
X121652000Y-76703000D01*
X121652000Y-76683000D01*
X120552750Y-76683000D01*
X120394000Y-76841750D01*
X120390928Y-77556000D01*
X120398759Y-77635515D01*
X120345843Y-77663799D01*
X120240201Y-77720265D01*
X120165087Y-77781910D01*
X120082603Y-77849603D01*
X120050196Y-77889091D01*
X115843097Y-82096191D01*
X115803604Y-82128602D01*
X115674266Y-82286201D01*
X115578159Y-82466006D01*
X115518976Y-82661104D01*
X115504000Y-82813161D01*
X115504000Y-82813170D01*
X115498994Y-82863998D01*
X115504000Y-82914826D01*
X115504001Y-87512398D01*
X115456028Y-87602148D01*
X115405492Y-87768744D01*
X115388428Y-87941998D01*
X115388428Y-88842002D01*
X115405492Y-89015256D01*
X115456028Y-89181852D01*
X115504000Y-89271601D01*
X115504001Y-90858363D01*
X115479528Y-90904148D01*
X115428992Y-91070744D01*
X115411928Y-91243998D01*
X115411928Y-92144002D01*
X115428992Y-92317256D01*
X115479528Y-92483852D01*
X115527500Y-92573601D01*
X115527501Y-94243398D01*
X115479528Y-94333148D01*
X115428992Y-94499744D01*
X115411928Y-94672998D01*
X115411928Y-94809861D01*
X114336087Y-95885703D01*
X114296594Y-95918114D01*
X114167256Y-96075713D01*
X114071149Y-96255518D01*
X114011966Y-96450616D01*
X113996990Y-96602673D01*
X113996990Y-96602682D01*
X113991984Y-96653510D01*
X113996990Y-96704338D01*
X113996991Y-109529154D01*
X113991984Y-109579992D01*
X114011967Y-109782887D01*
X114071150Y-109977985D01*
X114167256Y-110157789D01*
X114264187Y-110275899D01*
X114296595Y-110315388D01*
X114336082Y-110347794D01*
X115827196Y-111838909D01*
X115859603Y-111878397D01*
X115899091Y-111910804D01*
X116017201Y-112007735D01*
X116197005Y-112103842D01*
X116242414Y-112117616D01*
X116392104Y-112163025D01*
X116544161Y-112178001D01*
X116544164Y-112178001D01*
X116594999Y-112183008D01*
X116645834Y-112178001D01*
X120280721Y-112178001D01*
X120212506Y-112214463D01*
X120115815Y-112293815D01*
X120036463Y-112390506D01*
X119977498Y-112500820D01*
X119941188Y-112620518D01*
X119928928Y-112745000D01*
X119932000Y-114209250D01*
X120090750Y-114368000D01*
X121465000Y-114368000D01*
X121465000Y-112268750D01*
X121719000Y-112268750D01*
X121719000Y-114368000D01*
X123093250Y-114368000D01*
X123252000Y-114209250D01*
X123255072Y-112745000D01*
X123242812Y-112620518D01*
X123206502Y-112500820D01*
X123147537Y-112390506D01*
X123068185Y-112293815D01*
X122971494Y-112214463D01*
X122861180Y-112155498D01*
X122741482Y-112119188D01*
X122617000Y-112106928D01*
X121877750Y-112110000D01*
X121719000Y-112268750D01*
X121465000Y-112268750D01*
X121325904Y-112129654D01*
X121410992Y-112103842D01*
X121590796Y-112007735D01*
X121748395Y-111878397D01*
X121780806Y-111838904D01*
X124181639Y-109438072D01*
X124230362Y-109438072D01*
X125978197Y-111185908D01*
X126010604Y-111225396D01*
X126050092Y-111257803D01*
X126168202Y-111354734D01*
X126240660Y-111393463D01*
X126348007Y-111450841D01*
X126543105Y-111510024D01*
X126695162Y-111525000D01*
X126695171Y-111525000D01*
X126745999Y-111530006D01*
X126796827Y-111525000D01*
X128757002Y-111525000D01*
X128757002Y-112514268D01*
X128701114Y-112467579D01*
X128591319Y-112407654D01*
X128471943Y-112370299D01*
X128373750Y-112360000D01*
X128215000Y-112518750D01*
X128215000Y-114368000D01*
X128239000Y-114368000D01*
X128239000Y-114622000D01*
X128215000Y-114622000D01*
X128215000Y-114642000D01*
X128180072Y-114642000D01*
X128180072Y-112995000D01*
X128167812Y-112870518D01*
X128131502Y-112750820D01*
X128072537Y-112640506D01*
X127993185Y-112543815D01*
X127969000Y-112523967D01*
X127969000Y-112518750D01*
X127810250Y-112360000D01*
X127712057Y-112370299D01*
X127691426Y-112376755D01*
X127666482Y-112369188D01*
X127542000Y-112356928D01*
X127042000Y-112356928D01*
X126917518Y-112369188D01*
X126892000Y-112376929D01*
X126866482Y-112369188D01*
X126742000Y-112356928D01*
X126242000Y-112356928D01*
X126117518Y-112369188D01*
X126092000Y-112376929D01*
X126066482Y-112369188D01*
X125942000Y-112356928D01*
X125442000Y-112356928D01*
X125317518Y-112369188D01*
X125292000Y-112376929D01*
X125266482Y-112369188D01*
X125142000Y-112356928D01*
X124642000Y-112356928D01*
X124517518Y-112369188D01*
X124397820Y-112405498D01*
X124287506Y-112464463D01*
X124190815Y-112543815D01*
X124111463Y-112640506D01*
X124052498Y-112750820D01*
X124016188Y-112870518D01*
X124003928Y-112995000D01*
X124003928Y-115745065D01*
X123960933Y-115753617D01*
X123754376Y-115839176D01*
X123568480Y-115963388D01*
X123410388Y-116121480D01*
X123286176Y-116307376D01*
X123206247Y-116500342D01*
X123203391Y-116495000D01*
X123206502Y-116489180D01*
X123242812Y-116369482D01*
X123255072Y-116245000D01*
X123252000Y-114780750D01*
X123093250Y-114622000D01*
X121719000Y-114622000D01*
X121719000Y-118618000D01*
X123093250Y-118618000D01*
X123252000Y-118459250D01*
X123254068Y-117305109D01*
X123286176Y-117382624D01*
X123410388Y-117568520D01*
X123568480Y-117726612D01*
X123754376Y-117850824D01*
X123960933Y-117936383D01*
X124180212Y-117980000D01*
X124403788Y-117980000D01*
X124406991Y-117979363D01*
X124406991Y-118282790D01*
X124403193Y-118321352D01*
X124418349Y-118475238D01*
X124463236Y-118623211D01*
X124478221Y-118651246D01*
X124536129Y-118759585D01*
X124544762Y-118770104D01*
X124609645Y-118849164D01*
X124609649Y-118849168D01*
X124634227Y-118879116D01*
X124664175Y-118903694D01*
X128290480Y-122529999D01*
X115856279Y-122529999D01*
X115311448Y-122476578D01*
X114818416Y-122327722D01*
X114363692Y-122085941D01*
X113964591Y-121760442D01*
X113636307Y-121363615D01*
X113391357Y-120910590D01*
X113239063Y-120418608D01*
X113182001Y-119875704D01*
X113182001Y-119667872D01*
X113589000Y-119667872D01*
X113589000Y-120108128D01*
X113674890Y-120539925D01*
X113843369Y-120946669D01*
X114087962Y-121312729D01*
X114399271Y-121624038D01*
X114765331Y-121868631D01*
X115172075Y-122037110D01*
X115603872Y-122123000D01*
X116044128Y-122123000D01*
X116475925Y-122037110D01*
X116882669Y-121868631D01*
X117248729Y-121624038D01*
X117560038Y-121312729D01*
X117804631Y-120946669D01*
X117888165Y-120745000D01*
X119928928Y-120745000D01*
X119941188Y-120869482D01*
X119977498Y-120989180D01*
X120036463Y-121099494D01*
X120115815Y-121196185D01*
X120212506Y-121275537D01*
X120322820Y-121334502D01*
X120442518Y-121370812D01*
X120567000Y-121383072D01*
X121306250Y-121380000D01*
X121465000Y-121221250D01*
X121465000Y-118872000D01*
X121719000Y-118872000D01*
X121719000Y-121221250D01*
X121877750Y-121380000D01*
X122617000Y-121383072D01*
X122741482Y-121370812D01*
X122861180Y-121334502D01*
X122971494Y-121275537D01*
X123068185Y-121196185D01*
X123147537Y-121099494D01*
X123206502Y-120989180D01*
X123242812Y-120869482D01*
X123255072Y-120745000D01*
X123252000Y-119030750D01*
X123093250Y-118872000D01*
X121719000Y-118872000D01*
X121465000Y-118872000D01*
X120090750Y-118872000D01*
X119932000Y-119030750D01*
X119928928Y-120745000D01*
X117888165Y-120745000D01*
X117973110Y-120539925D01*
X118059000Y-120108128D01*
X118059000Y-119667872D01*
X117973110Y-119236075D01*
X117804631Y-118829331D01*
X117560038Y-118463271D01*
X117248729Y-118151962D01*
X116882669Y-117907369D01*
X116475925Y-117738890D01*
X116044128Y-117653000D01*
X115603872Y-117653000D01*
X115172075Y-117738890D01*
X114765331Y-117907369D01*
X114399271Y-118151962D01*
X114087962Y-118463271D01*
X113843369Y-118829331D01*
X113674890Y-119236075D01*
X113589000Y-119667872D01*
X113182001Y-119667872D01*
X113182001Y-116245000D01*
X119928928Y-116245000D01*
X119941188Y-116369482D01*
X119977498Y-116489180D01*
X119980609Y-116495000D01*
X119977498Y-116500820D01*
X119941188Y-116620518D01*
X119928928Y-116745000D01*
X119932000Y-118459250D01*
X120090750Y-118618000D01*
X121465000Y-118618000D01*
X121465000Y-114622000D01*
X120090750Y-114622000D01*
X119932000Y-114780750D01*
X119928928Y-116245000D01*
X113182001Y-116245000D01*
X113182000Y-78138872D01*
X113589000Y-78138872D01*
X113589000Y-78579128D01*
X113674890Y-79010925D01*
X113843369Y-79417669D01*
X114087962Y-79783729D01*
X114399271Y-80095038D01*
X114765331Y-80339631D01*
X115172075Y-80508110D01*
X115603872Y-80594000D01*
X116044128Y-80594000D01*
X116475925Y-80508110D01*
X116882669Y-80339631D01*
X117248729Y-80095038D01*
X117560038Y-79783729D01*
X117804631Y-79417669D01*
X117973110Y-79010925D01*
X118059000Y-78579128D01*
X118059000Y-78138872D01*
X117973110Y-77707075D01*
X117804631Y-77300331D01*
X117560038Y-76934271D01*
X117248729Y-76622962D01*
X116882669Y-76378369D01*
X116475925Y-76209890D01*
X116044128Y-76124000D01*
X115603872Y-76124000D01*
X115172075Y-76209890D01*
X114765331Y-76378369D01*
X114399271Y-76622962D01*
X114087962Y-76934271D01*
X113843369Y-77300331D01*
X113674890Y-77707075D01*
X113589000Y-78138872D01*
X113182000Y-78138872D01*
X113182000Y-75556000D01*
X120390928Y-75556000D01*
X120394000Y-76270250D01*
X120552750Y-76429000D01*
X121652000Y-76429000D01*
X121652000Y-75079750D01*
X121493250Y-74921000D01*
X121029000Y-74917928D01*
X120904518Y-74930188D01*
X120784820Y-74966498D01*
X120674506Y-75025463D01*
X120577815Y-75104815D01*
X120498463Y-75201506D01*
X120439498Y-75311820D01*
X120403188Y-75431518D01*
X120390928Y-75556000D01*
X113182000Y-75556000D01*
X113182000Y-73078000D01*
X114460928Y-73078000D01*
X114473188Y-73202482D01*
X114509498Y-73322180D01*
X114568463Y-73432494D01*
X114647815Y-73529185D01*
X114744506Y-73608537D01*
X114854820Y-73667502D01*
X114974518Y-73703812D01*
X115099000Y-73716072D01*
X115538250Y-73713000D01*
X115697000Y-73554250D01*
X115697000Y-72705000D01*
X115951000Y-72705000D01*
X115951000Y-73554250D01*
X116109750Y-73713000D01*
X116549000Y-73716072D01*
X116673482Y-73703812D01*
X116793180Y-73667502D01*
X116903494Y-73608537D01*
X117000185Y-73529185D01*
X117079537Y-73432494D01*
X117138502Y-73322180D01*
X117174812Y-73202482D01*
X117187072Y-73078000D01*
X117184000Y-72863750D01*
X117025250Y-72705000D01*
X115951000Y-72705000D01*
X115697000Y-72705000D01*
X114622750Y-72705000D01*
X114464000Y-72863750D01*
X114460928Y-73078000D01*
X113182000Y-73078000D01*
X113181999Y-66961289D01*
X113235421Y-66416449D01*
X113384277Y-65923416D01*
X113545000Y-65621139D01*
X113545000Y-66648224D01*
X113570105Y-66903118D01*
X113669314Y-67230167D01*
X113830421Y-67531577D01*
X114047234Y-67795766D01*
X114311422Y-68012579D01*
X114612832Y-68173686D01*
X114939881Y-68272895D01*
X115280000Y-68306394D01*
X115620118Y-68272895D01*
X115947167Y-68173686D01*
X116248577Y-68012579D01*
X116512766Y-67795766D01*
X116670139Y-67604006D01*
X116847419Y-67698764D01*
X117108493Y-67777960D01*
X117380000Y-67804701D01*
X117651506Y-67777960D01*
X117912580Y-67698764D01*
X118153187Y-67570157D01*
X118364080Y-67397081D01*
X118383358Y-67373591D01*
X118490460Y-67482145D01*
X118716132Y-67635142D01*
X118967316Y-67741173D01*
X119038815Y-67755318D01*
X119253000Y-67632656D01*
X119253000Y-66040000D01*
X119233000Y-66040000D01*
X119233000Y-65786000D01*
X119253000Y-65786000D01*
X119253000Y-65766000D01*
X119507000Y-65766000D01*
X119507000Y-65786000D01*
X119527000Y-65786000D01*
X119527000Y-66040000D01*
X119507000Y-66040000D01*
X119507000Y-67632656D01*
X119721185Y-67755318D01*
X119792684Y-67741173D01*
X120043868Y-67635142D01*
X120141624Y-67568867D01*
X120178815Y-67614185D01*
X120275506Y-67693537D01*
X120385820Y-67752502D01*
X120505518Y-67788812D01*
X120630000Y-67801072D01*
X122130000Y-67801072D01*
X122242496Y-67789992D01*
X122247234Y-67795766D01*
X122511422Y-68012579D01*
X122812832Y-68173686D01*
X123139881Y-68272895D01*
X123480000Y-68306394D01*
X123820118Y-68272895D01*
X124147167Y-68173686D01*
X124448577Y-68012579D01*
X124712766Y-67795766D01*
X124929579Y-67531578D01*
X125090686Y-67230168D01*
X125189895Y-66903119D01*
X125215000Y-66648225D01*
X125215000Y-65177775D01*
X125189895Y-64922881D01*
X125090686Y-64595832D01*
X124929579Y-64294422D01*
X124923488Y-64287000D01*
X134227544Y-64287000D01*
X134080129Y-64385500D01*
G04 #@! TA.AperFunction,Conductor*
D34*
G36*
X134080129Y-64385500D02*
G01*
X133831500Y-64634129D01*
X133636153Y-64926485D01*
X133501596Y-65251335D01*
X133433000Y-65596193D01*
X133433000Y-65947807D01*
X133501596Y-66292665D01*
X133636153Y-66617515D01*
X133659195Y-66652000D01*
X126936552Y-66652000D01*
X126897999Y-66648203D01*
X126859446Y-66652000D01*
X126859439Y-66652000D01*
X126744113Y-66663359D01*
X126596140Y-66708246D01*
X126459767Y-66781138D01*
X126399559Y-66830550D01*
X126370187Y-66854655D01*
X126370184Y-66854658D01*
X126340236Y-66879236D01*
X126315658Y-66909184D01*
X124606915Y-68617928D01*
X122179000Y-68617928D01*
X122054518Y-68630188D01*
X121934820Y-68666498D01*
X121824506Y-68725463D01*
X121727815Y-68804815D01*
X121648463Y-68901506D01*
X121589498Y-69011820D01*
X121553188Y-69131518D01*
X121544375Y-69221000D01*
X116296827Y-69221000D01*
X116245999Y-69215994D01*
X116195171Y-69221000D01*
X116195162Y-69221000D01*
X116043105Y-69235976D01*
X115848007Y-69295159D01*
X115668203Y-69391266D01*
X115510604Y-69520604D01*
X115494745Y-69539928D01*
X115349000Y-69539928D01*
X115175746Y-69556992D01*
X115009150Y-69607528D01*
X114855614Y-69689595D01*
X114721038Y-69800038D01*
X114610595Y-69934614D01*
X114528528Y-70088150D01*
X114477992Y-70254746D01*
X114460928Y-70428000D01*
X114460928Y-70928000D01*
X114477992Y-71101254D01*
X114528528Y-71267850D01*
X114610595Y-71421386D01*
X114721038Y-71555962D01*
X114727594Y-71561342D01*
X114647815Y-71626815D01*
X114568463Y-71723506D01*
X114509498Y-71833820D01*
X114473188Y-71953518D01*
X114460928Y-72078000D01*
X114464000Y-72292250D01*
X114622750Y-72451000D01*
X115697000Y-72451000D01*
X115697000Y-72431000D01*
X115951000Y-72431000D01*
X115951000Y-72451000D01*
X117025250Y-72451000D01*
X117184000Y-72292250D01*
X117187072Y-72078000D01*
X117174812Y-71953518D01*
X117138502Y-71833820D01*
X117079537Y-71723506D01*
X117000185Y-71626815D01*
X116920406Y-71561342D01*
X116926962Y-71555962D01*
X117037405Y-71421386D01*
X117107098Y-71291000D01*
X121544375Y-71291000D01*
X121553188Y-71380482D01*
X121589498Y-71500180D01*
X121648463Y-71610494D01*
X121727815Y-71707185D01*
X121824506Y-71786537D01*
X121934820Y-71845502D01*
X122054518Y-71881812D01*
X122179000Y-71894072D01*
X123044000Y-71894072D01*
X123044001Y-74988317D01*
X122974506Y-75025463D01*
X122929000Y-75062809D01*
X122883494Y-75025463D01*
X122773180Y-74966498D01*
X122653482Y-74930188D01*
X122529000Y-74917928D01*
X122064750Y-74921000D01*
X121906000Y-75079750D01*
X121906000Y-76429000D01*
X121926000Y-76429000D01*
X121926000Y-76683000D01*
X121906000Y-76683000D01*
X121906000Y-76703000D01*
X121652000Y-76703000D01*
X121652000Y-76683000D01*
X120552750Y-76683000D01*
X120394000Y-76841750D01*
X120390928Y-77556000D01*
X120398759Y-77635515D01*
X120345843Y-77663799D01*
X120240201Y-77720265D01*
X120165087Y-77781910D01*
X120082603Y-77849603D01*
X120050196Y-77889091D01*
X115843097Y-82096191D01*
X115803604Y-82128602D01*
X115674266Y-82286201D01*
X115578159Y-82466006D01*
X115518976Y-82661104D01*
X115504000Y-82813161D01*
X115504000Y-82813170D01*
X115498994Y-82863998D01*
X115504000Y-82914826D01*
X115504001Y-87512398D01*
X115456028Y-87602148D01*
X115405492Y-87768744D01*
X115388428Y-87941998D01*
X115388428Y-88842002D01*
X115405492Y-89015256D01*
X115456028Y-89181852D01*
X115504000Y-89271601D01*
X115504001Y-90858363D01*
X115479528Y-90904148D01*
X115428992Y-91070744D01*
X115411928Y-91243998D01*
X115411928Y-92144002D01*
X115428992Y-92317256D01*
X115479528Y-92483852D01*
X115527500Y-92573601D01*
X115527501Y-94243398D01*
X115479528Y-94333148D01*
X115428992Y-94499744D01*
X115411928Y-94672998D01*
X115411928Y-94809861D01*
X114336087Y-95885703D01*
X114296594Y-95918114D01*
X114167256Y-96075713D01*
X114071149Y-96255518D01*
X114011966Y-96450616D01*
X113996990Y-96602673D01*
X113996990Y-96602682D01*
X113991984Y-96653510D01*
X113996990Y-96704338D01*
X113996991Y-109529154D01*
X113991984Y-109579992D01*
X114011967Y-109782887D01*
X114071150Y-109977985D01*
X114167256Y-110157789D01*
X114264187Y-110275899D01*
X114296595Y-110315388D01*
X114336082Y-110347794D01*
X115827196Y-111838909D01*
X115859603Y-111878397D01*
X115899091Y-111910804D01*
X116017201Y-112007735D01*
X116197005Y-112103842D01*
X116242414Y-112117616D01*
X116392104Y-112163025D01*
X116544161Y-112178001D01*
X116544164Y-112178001D01*
X116594999Y-112183008D01*
X116645834Y-112178001D01*
X120280721Y-112178001D01*
X120212506Y-112214463D01*
X120115815Y-112293815D01*
X120036463Y-112390506D01*
X119977498Y-112500820D01*
X119941188Y-112620518D01*
X119928928Y-112745000D01*
X119932000Y-114209250D01*
X120090750Y-114368000D01*
X121465000Y-114368000D01*
X121465000Y-112268750D01*
X121719000Y-112268750D01*
X121719000Y-114368000D01*
X123093250Y-114368000D01*
X123252000Y-114209250D01*
X123255072Y-112745000D01*
X123242812Y-112620518D01*
X123206502Y-112500820D01*
X123147537Y-112390506D01*
X123068185Y-112293815D01*
X122971494Y-112214463D01*
X122861180Y-112155498D01*
X122741482Y-112119188D01*
X122617000Y-112106928D01*
X121877750Y-112110000D01*
X121719000Y-112268750D01*
X121465000Y-112268750D01*
X121325904Y-112129654D01*
X121410992Y-112103842D01*
X121590796Y-112007735D01*
X121748395Y-111878397D01*
X121780806Y-111838904D01*
X124181639Y-109438072D01*
X124230362Y-109438072D01*
X125978197Y-111185908D01*
X126010604Y-111225396D01*
X126050092Y-111257803D01*
X126168202Y-111354734D01*
X126240660Y-111393463D01*
X126348007Y-111450841D01*
X126543105Y-111510024D01*
X126695162Y-111525000D01*
X126695171Y-111525000D01*
X126745999Y-111530006D01*
X126796827Y-111525000D01*
X128757002Y-111525000D01*
X128757002Y-112514268D01*
X128701114Y-112467579D01*
X128591319Y-112407654D01*
X128471943Y-112370299D01*
X128373750Y-112360000D01*
X128215000Y-112518750D01*
X128215000Y-114368000D01*
X128239000Y-114368000D01*
X128239000Y-114622000D01*
X128215000Y-114622000D01*
X128215000Y-114642000D01*
X128180072Y-114642000D01*
X128180072Y-112995000D01*
X128167812Y-112870518D01*
X128131502Y-112750820D01*
X128072537Y-112640506D01*
X127993185Y-112543815D01*
X127969000Y-112523967D01*
X127969000Y-112518750D01*
X127810250Y-112360000D01*
X127712057Y-112370299D01*
X127691426Y-112376755D01*
X127666482Y-112369188D01*
X127542000Y-112356928D01*
X127042000Y-112356928D01*
X126917518Y-112369188D01*
X126892000Y-112376929D01*
X126866482Y-112369188D01*
X126742000Y-112356928D01*
X126242000Y-112356928D01*
X126117518Y-112369188D01*
X126092000Y-112376929D01*
X126066482Y-112369188D01*
X125942000Y-112356928D01*
X125442000Y-112356928D01*
X125317518Y-112369188D01*
X125292000Y-112376929D01*
X125266482Y-112369188D01*
X125142000Y-112356928D01*
X124642000Y-112356928D01*
X124517518Y-112369188D01*
X124397820Y-112405498D01*
X124287506Y-112464463D01*
X124190815Y-112543815D01*
X124111463Y-112640506D01*
X124052498Y-112750820D01*
X124016188Y-112870518D01*
X124003928Y-112995000D01*
X124003928Y-115745065D01*
X123960933Y-115753617D01*
X123754376Y-115839176D01*
X123568480Y-115963388D01*
X123410388Y-116121480D01*
X123286176Y-116307376D01*
X123206247Y-116500342D01*
X123203391Y-116495000D01*
X123206502Y-116489180D01*
X123242812Y-116369482D01*
X123255072Y-116245000D01*
X123252000Y-114780750D01*
X123093250Y-114622000D01*
X121719000Y-114622000D01*
X121719000Y-118618000D01*
X123093250Y-118618000D01*
X123252000Y-118459250D01*
X123254068Y-117305109D01*
X123286176Y-117382624D01*
X123410388Y-117568520D01*
X123568480Y-117726612D01*
X123754376Y-117850824D01*
X123960933Y-117936383D01*
X124180212Y-117980000D01*
X124403788Y-117980000D01*
X124406991Y-117979363D01*
X124406991Y-118282790D01*
X124403193Y-118321352D01*
X124418349Y-118475238D01*
X124463236Y-118623211D01*
X124478221Y-118651246D01*
X124536129Y-118759585D01*
X124544762Y-118770104D01*
X124609645Y-118849164D01*
X124609649Y-118849168D01*
X124634227Y-118879116D01*
X124664175Y-118903694D01*
X128290480Y-122529999D01*
X115856279Y-122529999D01*
X115311448Y-122476578D01*
X114818416Y-122327722D01*
X114363692Y-122085941D01*
X113964591Y-121760442D01*
X113636307Y-121363615D01*
X113391357Y-120910590D01*
X113239063Y-120418608D01*
X113182001Y-119875704D01*
X113182001Y-119667872D01*
X113589000Y-119667872D01*
X113589000Y-120108128D01*
X113674890Y-120539925D01*
X113843369Y-120946669D01*
X114087962Y-121312729D01*
X114399271Y-121624038D01*
X114765331Y-121868631D01*
X115172075Y-122037110D01*
X115603872Y-122123000D01*
X116044128Y-122123000D01*
X116475925Y-122037110D01*
X116882669Y-121868631D01*
X117248729Y-121624038D01*
X117560038Y-121312729D01*
X117804631Y-120946669D01*
X117888165Y-120745000D01*
X119928928Y-120745000D01*
X119941188Y-120869482D01*
X119977498Y-120989180D01*
X120036463Y-121099494D01*
X120115815Y-121196185D01*
X120212506Y-121275537D01*
X120322820Y-121334502D01*
X120442518Y-121370812D01*
X120567000Y-121383072D01*
X121306250Y-121380000D01*
X121465000Y-121221250D01*
X121465000Y-118872000D01*
X121719000Y-118872000D01*
X121719000Y-121221250D01*
X121877750Y-121380000D01*
X122617000Y-121383072D01*
X122741482Y-121370812D01*
X122861180Y-121334502D01*
X122971494Y-121275537D01*
X123068185Y-121196185D01*
X123147537Y-121099494D01*
X123206502Y-120989180D01*
X123242812Y-120869482D01*
X123255072Y-120745000D01*
X123252000Y-119030750D01*
X123093250Y-118872000D01*
X121719000Y-118872000D01*
X121465000Y-118872000D01*
X120090750Y-118872000D01*
X119932000Y-119030750D01*
X119928928Y-120745000D01*
X117888165Y-120745000D01*
X117973110Y-120539925D01*
X118059000Y-120108128D01*
X118059000Y-119667872D01*
X117973110Y-119236075D01*
X117804631Y-118829331D01*
X117560038Y-118463271D01*
X117248729Y-118151962D01*
X116882669Y-117907369D01*
X116475925Y-117738890D01*
X116044128Y-117653000D01*
X115603872Y-117653000D01*
X115172075Y-117738890D01*
X114765331Y-117907369D01*
X114399271Y-118151962D01*
X114087962Y-118463271D01*
X113843369Y-118829331D01*
X113674890Y-119236075D01*
X113589000Y-119667872D01*
X113182001Y-119667872D01*
X113182001Y-116245000D01*
X119928928Y-116245000D01*
X119941188Y-116369482D01*
X119977498Y-116489180D01*
X119980609Y-116495000D01*
X119977498Y-116500820D01*
X119941188Y-116620518D01*
X119928928Y-116745000D01*
X119932000Y-118459250D01*
X120090750Y-118618000D01*
X121465000Y-118618000D01*
X121465000Y-114622000D01*
X120090750Y-114622000D01*
X119932000Y-114780750D01*
X119928928Y-116245000D01*
X113182001Y-116245000D01*
X113182000Y-78138872D01*
X113589000Y-78138872D01*
X113589000Y-78579128D01*
X113674890Y-79010925D01*
X113843369Y-79417669D01*
X114087962Y-79783729D01*
X114399271Y-80095038D01*
X114765331Y-80339631D01*
X115172075Y-80508110D01*
X115603872Y-80594000D01*
X116044128Y-80594000D01*
X116475925Y-80508110D01*
X116882669Y-80339631D01*
X117248729Y-80095038D01*
X117560038Y-79783729D01*
X117804631Y-79417669D01*
X117973110Y-79010925D01*
X118059000Y-78579128D01*
X118059000Y-78138872D01*
X117973110Y-77707075D01*
X117804631Y-77300331D01*
X117560038Y-76934271D01*
X117248729Y-76622962D01*
X116882669Y-76378369D01*
X116475925Y-76209890D01*
X116044128Y-76124000D01*
X115603872Y-76124000D01*
X115172075Y-76209890D01*
X114765331Y-76378369D01*
X114399271Y-76622962D01*
X114087962Y-76934271D01*
X113843369Y-77300331D01*
X113674890Y-77707075D01*
X113589000Y-78138872D01*
X113182000Y-78138872D01*
X113182000Y-75556000D01*
X120390928Y-75556000D01*
X120394000Y-76270250D01*
X120552750Y-76429000D01*
X121652000Y-76429000D01*
X121652000Y-75079750D01*
X121493250Y-74921000D01*
X121029000Y-74917928D01*
X120904518Y-74930188D01*
X120784820Y-74966498D01*
X120674506Y-75025463D01*
X120577815Y-75104815D01*
X120498463Y-75201506D01*
X120439498Y-75311820D01*
X120403188Y-75431518D01*
X120390928Y-75556000D01*
X113182000Y-75556000D01*
X113182000Y-73078000D01*
X114460928Y-73078000D01*
X114473188Y-73202482D01*
X114509498Y-73322180D01*
X114568463Y-73432494D01*
X114647815Y-73529185D01*
X114744506Y-73608537D01*
X114854820Y-73667502D01*
X114974518Y-73703812D01*
X115099000Y-73716072D01*
X115538250Y-73713000D01*
X115697000Y-73554250D01*
X115697000Y-72705000D01*
X115951000Y-72705000D01*
X115951000Y-73554250D01*
X116109750Y-73713000D01*
X116549000Y-73716072D01*
X116673482Y-73703812D01*
X116793180Y-73667502D01*
X116903494Y-73608537D01*
X117000185Y-73529185D01*
X117079537Y-73432494D01*
X117138502Y-73322180D01*
X117174812Y-73202482D01*
X117187072Y-73078000D01*
X117184000Y-72863750D01*
X117025250Y-72705000D01*
X115951000Y-72705000D01*
X115697000Y-72705000D01*
X114622750Y-72705000D01*
X114464000Y-72863750D01*
X114460928Y-73078000D01*
X113182000Y-73078000D01*
X113181999Y-66961289D01*
X113235421Y-66416449D01*
X113384277Y-65923416D01*
X113545000Y-65621139D01*
X113545000Y-66648224D01*
X113570105Y-66903118D01*
X113669314Y-67230167D01*
X113830421Y-67531577D01*
X114047234Y-67795766D01*
X114311422Y-68012579D01*
X114612832Y-68173686D01*
X114939881Y-68272895D01*
X115280000Y-68306394D01*
X115620118Y-68272895D01*
X115947167Y-68173686D01*
X116248577Y-68012579D01*
X116512766Y-67795766D01*
X116670139Y-67604006D01*
X116847419Y-67698764D01*
X117108493Y-67777960D01*
X117380000Y-67804701D01*
X117651506Y-67777960D01*
X117912580Y-67698764D01*
X118153187Y-67570157D01*
X118364080Y-67397081D01*
X118383358Y-67373591D01*
X118490460Y-67482145D01*
X118716132Y-67635142D01*
X118967316Y-67741173D01*
X119038815Y-67755318D01*
X119253000Y-67632656D01*
X119253000Y-66040000D01*
X119233000Y-66040000D01*
X119233000Y-65786000D01*
X119253000Y-65786000D01*
X119253000Y-65766000D01*
X119507000Y-65766000D01*
X119507000Y-65786000D01*
X119527000Y-65786000D01*
X119527000Y-66040000D01*
X119507000Y-66040000D01*
X119507000Y-67632656D01*
X119721185Y-67755318D01*
X119792684Y-67741173D01*
X120043868Y-67635142D01*
X120141624Y-67568867D01*
X120178815Y-67614185D01*
X120275506Y-67693537D01*
X120385820Y-67752502D01*
X120505518Y-67788812D01*
X120630000Y-67801072D01*
X122130000Y-67801072D01*
X122242496Y-67789992D01*
X122247234Y-67795766D01*
X122511422Y-68012579D01*
X122812832Y-68173686D01*
X123139881Y-68272895D01*
X123480000Y-68306394D01*
X123820118Y-68272895D01*
X124147167Y-68173686D01*
X124448577Y-68012579D01*
X124712766Y-67795766D01*
X124929579Y-67531578D01*
X125090686Y-67230168D01*
X125189895Y-66903119D01*
X125215000Y-66648225D01*
X125215000Y-65177775D01*
X125189895Y-64922881D01*
X125090686Y-64595832D01*
X124929579Y-64294422D01*
X124923488Y-64287000D01*
X134227544Y-64287000D01*
X134080129Y-64385500D01*
G37*
G04 #@! TD.AperFunction*
D33*
X131814999Y-112109430D02*
X131677750Y-112110000D01*
X131519000Y-112268750D01*
X131519000Y-114368000D01*
X132893250Y-114368000D01*
X133052000Y-114209250D01*
X133052838Y-113809997D01*
X133246656Y-114003815D01*
X133271234Y-114033764D01*
X133301182Y-114058342D01*
X133301185Y-114058345D01*
X133330557Y-114082450D01*
X133390765Y-114131862D01*
X133527138Y-114204754D01*
X133675111Y-114249641D01*
X133790437Y-114261000D01*
X133790444Y-114261000D01*
X133828997Y-114264797D01*
X133867550Y-114261000D01*
X134316928Y-114261000D01*
X134316928Y-114301000D01*
X134332071Y-114454745D01*
X134376916Y-114602582D01*
X134449742Y-114738829D01*
X134547749Y-114858251D01*
X134667171Y-114956258D01*
X134803418Y-115029084D01*
X134951255Y-115073929D01*
X135105000Y-115089072D01*
X135405000Y-115089072D01*
X135558745Y-115073929D01*
X135706582Y-115029084D01*
X135803125Y-114977480D01*
X135734795Y-115079744D01*
X135656774Y-115268102D01*
X135617000Y-115468061D01*
X135617000Y-115671939D01*
X135656774Y-115871898D01*
X135734795Y-116060256D01*
X135848063Y-116229774D01*
X135992226Y-116373937D01*
X136161744Y-116487205D01*
X136315111Y-116550732D01*
X135997185Y-116868658D01*
X135967237Y-116893236D01*
X135942659Y-116923184D01*
X135942655Y-116923188D01*
X135939243Y-116927346D01*
X135930646Y-116937822D01*
X135909494Y-116920463D01*
X135799180Y-116861498D01*
X135679482Y-116825188D01*
X135555000Y-116812928D01*
X135540750Y-116816000D01*
X135382000Y-116974750D01*
X135382000Y-118299000D01*
X135402000Y-118299000D01*
X135402000Y-118553000D01*
X135382000Y-118553000D01*
X135382000Y-119877250D01*
X135540750Y-120036000D01*
X135555000Y-120039072D01*
X135679482Y-120026812D01*
X135799180Y-119990502D01*
X135909494Y-119931537D01*
X135939064Y-119907270D01*
X136073418Y-119979084D01*
X136221255Y-120023929D01*
X136375000Y-120039072D01*
X136675000Y-120039072D01*
X136828745Y-120023929D01*
X136976582Y-119979084D01*
X137112829Y-119906258D01*
X137160000Y-119867546D01*
X137207171Y-119906258D01*
X137343418Y-119979084D01*
X137368999Y-119986844D01*
X137045842Y-120310001D01*
X133054292Y-120310001D01*
X133052664Y-119401000D01*
X134316928Y-119401000D01*
X134329188Y-119525482D01*
X134365498Y-119645180D01*
X134424463Y-119755494D01*
X134503815Y-119852185D01*
X134600506Y-119931537D01*
X134710820Y-119990502D01*
X134830518Y-120026812D01*
X134955000Y-120039072D01*
X134969250Y-120036000D01*
X135128000Y-119877250D01*
X135128000Y-118553000D01*
X134478750Y-118553000D01*
X134320000Y-118711750D01*
X134316928Y-119401000D01*
X133052664Y-119401000D01*
X133052000Y-119030750D01*
X132893250Y-118872000D01*
X131519000Y-118872000D01*
X131519000Y-118892000D01*
X131265000Y-118892000D01*
X131265000Y-118872000D01*
X131245000Y-118872000D01*
X131245000Y-118618000D01*
X131265000Y-118618000D01*
X131265000Y-114622000D01*
X131519000Y-114622000D01*
X131519000Y-118618000D01*
X132893250Y-118618000D01*
X133052000Y-118459250D01*
X133053806Y-117451000D01*
X134316928Y-117451000D01*
X134320000Y-118140250D01*
X134478750Y-118299000D01*
X135128000Y-118299000D01*
X135128000Y-116974750D01*
X134969250Y-116816000D01*
X134955000Y-116812928D01*
X134830518Y-116825188D01*
X134710820Y-116861498D01*
X134600506Y-116920463D01*
X134503815Y-116999815D01*
X134424463Y-117096506D01*
X134365498Y-117206820D01*
X134329188Y-117326518D01*
X134316928Y-117451000D01*
X133053806Y-117451000D01*
X133055072Y-116745000D01*
X133042812Y-116620518D01*
X133006502Y-116500820D01*
X133003391Y-116495000D01*
X133006502Y-116489180D01*
X133042812Y-116369482D01*
X133055072Y-116245000D01*
X133052000Y-114780750D01*
X132893250Y-114622000D01*
X131519000Y-114622000D01*
X131265000Y-114622000D01*
X131245000Y-114622000D01*
X131245000Y-114368000D01*
X131265000Y-114368000D01*
X131265000Y-112268750D01*
X131106250Y-112110000D01*
X130367000Y-112106928D01*
X130327001Y-112110867D01*
X130327001Y-111525000D01*
X131814999Y-111525000D01*
X131814999Y-112109430D01*
G04 #@! TA.AperFunction,Conductor*
D34*
G36*
X131814999Y-112109430D02*
G01*
X131677750Y-112110000D01*
X131519000Y-112268750D01*
X131519000Y-114368000D01*
X132893250Y-114368000D01*
X133052000Y-114209250D01*
X133052838Y-113809997D01*
X133246656Y-114003815D01*
X133271234Y-114033764D01*
X133301182Y-114058342D01*
X133301185Y-114058345D01*
X133330557Y-114082450D01*
X133390765Y-114131862D01*
X133527138Y-114204754D01*
X133675111Y-114249641D01*
X133790437Y-114261000D01*
X133790444Y-114261000D01*
X133828997Y-114264797D01*
X133867550Y-114261000D01*
X134316928Y-114261000D01*
X134316928Y-114301000D01*
X134332071Y-114454745D01*
X134376916Y-114602582D01*
X134449742Y-114738829D01*
X134547749Y-114858251D01*
X134667171Y-114956258D01*
X134803418Y-115029084D01*
X134951255Y-115073929D01*
X135105000Y-115089072D01*
X135405000Y-115089072D01*
X135558745Y-115073929D01*
X135706582Y-115029084D01*
X135803125Y-114977480D01*
X135734795Y-115079744D01*
X135656774Y-115268102D01*
X135617000Y-115468061D01*
X135617000Y-115671939D01*
X135656774Y-115871898D01*
X135734795Y-116060256D01*
X135848063Y-116229774D01*
X135992226Y-116373937D01*
X136161744Y-116487205D01*
X136315111Y-116550732D01*
X135997185Y-116868658D01*
X135967237Y-116893236D01*
X135942659Y-116923184D01*
X135942655Y-116923188D01*
X135939243Y-116927346D01*
X135930646Y-116937822D01*
X135909494Y-116920463D01*
X135799180Y-116861498D01*
X135679482Y-116825188D01*
X135555000Y-116812928D01*
X135540750Y-116816000D01*
X135382000Y-116974750D01*
X135382000Y-118299000D01*
X135402000Y-118299000D01*
X135402000Y-118553000D01*
X135382000Y-118553000D01*
X135382000Y-119877250D01*
X135540750Y-120036000D01*
X135555000Y-120039072D01*
X135679482Y-120026812D01*
X135799180Y-119990502D01*
X135909494Y-119931537D01*
X135939064Y-119907270D01*
X136073418Y-119979084D01*
X136221255Y-120023929D01*
X136375000Y-120039072D01*
X136675000Y-120039072D01*
X136828745Y-120023929D01*
X136976582Y-119979084D01*
X137112829Y-119906258D01*
X137160000Y-119867546D01*
X137207171Y-119906258D01*
X137343418Y-119979084D01*
X137368999Y-119986844D01*
X137045842Y-120310001D01*
X133054292Y-120310001D01*
X133052664Y-119401000D01*
X134316928Y-119401000D01*
X134329188Y-119525482D01*
X134365498Y-119645180D01*
X134424463Y-119755494D01*
X134503815Y-119852185D01*
X134600506Y-119931537D01*
X134710820Y-119990502D01*
X134830518Y-120026812D01*
X134955000Y-120039072D01*
X134969250Y-120036000D01*
X135128000Y-119877250D01*
X135128000Y-118553000D01*
X134478750Y-118553000D01*
X134320000Y-118711750D01*
X134316928Y-119401000D01*
X133052664Y-119401000D01*
X133052000Y-119030750D01*
X132893250Y-118872000D01*
X131519000Y-118872000D01*
X131519000Y-118892000D01*
X131265000Y-118892000D01*
X131265000Y-118872000D01*
X131245000Y-118872000D01*
X131245000Y-118618000D01*
X131265000Y-118618000D01*
X131265000Y-114622000D01*
X131519000Y-114622000D01*
X131519000Y-118618000D01*
X132893250Y-118618000D01*
X133052000Y-118459250D01*
X133053806Y-117451000D01*
X134316928Y-117451000D01*
X134320000Y-118140250D01*
X134478750Y-118299000D01*
X135128000Y-118299000D01*
X135128000Y-116974750D01*
X134969250Y-116816000D01*
X134955000Y-116812928D01*
X134830518Y-116825188D01*
X134710820Y-116861498D01*
X134600506Y-116920463D01*
X134503815Y-116999815D01*
X134424463Y-117096506D01*
X134365498Y-117206820D01*
X134329188Y-117326518D01*
X134316928Y-117451000D01*
X133053806Y-117451000D01*
X133055072Y-116745000D01*
X133042812Y-116620518D01*
X133006502Y-116500820D01*
X133003391Y-116495000D01*
X133006502Y-116489180D01*
X133042812Y-116369482D01*
X133055072Y-116245000D01*
X133052000Y-114780750D01*
X132893250Y-114622000D01*
X131519000Y-114622000D01*
X131265000Y-114622000D01*
X131245000Y-114622000D01*
X131245000Y-114368000D01*
X131265000Y-114368000D01*
X131265000Y-112268750D01*
X131106250Y-112110000D01*
X130367000Y-112106928D01*
X130327001Y-112110867D01*
X130327001Y-111525000D01*
X131814999Y-111525000D01*
X131814999Y-112109430D01*
G37*
G04 #@! TD.AperFunction*
D33*
X145293750Y-117024000D02*
X146243000Y-117024000D01*
X146243000Y-117004000D01*
X146497000Y-117004000D01*
X146497000Y-117024000D01*
X146517000Y-117024000D01*
X146517000Y-117278000D01*
X146497000Y-117278000D01*
X146497000Y-119253000D01*
X146517000Y-119253000D01*
X146517000Y-119507000D01*
X146497000Y-119507000D01*
X146497000Y-119527000D01*
X146243000Y-119527000D01*
X146243000Y-119507000D01*
X145393750Y-119507000D01*
X145235000Y-119665750D01*
X145234970Y-119670010D01*
X144960317Y-119670010D01*
X145023084Y-119552582D01*
X145067929Y-119404745D01*
X145083072Y-119251000D01*
X145083072Y-117851000D01*
X145131928Y-117851000D01*
X145144188Y-117975482D01*
X145180498Y-118095180D01*
X145239463Y-118205494D01*
X145318815Y-118302185D01*
X145332543Y-118313452D01*
X145280498Y-118410820D01*
X145244188Y-118530518D01*
X145231928Y-118655000D01*
X145235000Y-119094250D01*
X145393750Y-119253000D01*
X146243000Y-119253000D01*
X146243000Y-117278000D01*
X145293750Y-117278000D01*
X145135000Y-117436750D01*
X145131928Y-117851000D01*
X145083072Y-117851000D01*
X145083072Y-117601000D01*
X145067929Y-117447255D01*
X145023084Y-117299418D01*
X144991266Y-117239891D01*
X145250454Y-116980704D01*
X145293750Y-117024000D01*
G04 #@! TA.AperFunction,Conductor*
D34*
G36*
X145293750Y-117024000D02*
G01*
X146243000Y-117024000D01*
X146243000Y-117004000D01*
X146497000Y-117004000D01*
X146497000Y-117024000D01*
X146517000Y-117024000D01*
X146517000Y-117278000D01*
X146497000Y-117278000D01*
X146497000Y-119253000D01*
X146517000Y-119253000D01*
X146517000Y-119507000D01*
X146497000Y-119507000D01*
X146497000Y-119527000D01*
X146243000Y-119527000D01*
X146243000Y-119507000D01*
X145393750Y-119507000D01*
X145235000Y-119665750D01*
X145234970Y-119670010D01*
X144960317Y-119670010D01*
X145023084Y-119552582D01*
X145067929Y-119404745D01*
X145083072Y-119251000D01*
X145083072Y-117851000D01*
X145131928Y-117851000D01*
X145144188Y-117975482D01*
X145180498Y-118095180D01*
X145239463Y-118205494D01*
X145318815Y-118302185D01*
X145332543Y-118313452D01*
X145280498Y-118410820D01*
X145244188Y-118530518D01*
X145231928Y-118655000D01*
X145235000Y-119094250D01*
X145393750Y-119253000D01*
X146243000Y-119253000D01*
X146243000Y-117278000D01*
X145293750Y-117278000D01*
X145135000Y-117436750D01*
X145131928Y-117851000D01*
X145083072Y-117851000D01*
X145083072Y-117601000D01*
X145067929Y-117447255D01*
X145023084Y-117299418D01*
X144991266Y-117239891D01*
X145250454Y-116980704D01*
X145293750Y-117024000D01*
G37*
G04 #@! TD.AperFunction*
D33*
X151105226Y-111591063D02*
X150961063Y-111735226D01*
X150847795Y-111904744D01*
X150769774Y-112093102D01*
X150730000Y-112293061D01*
X150730000Y-112496939D01*
X150769774Y-112696898D01*
X150847795Y-112885256D01*
X150961063Y-113054774D01*
X150980001Y-113073712D01*
X150980000Y-117133389D01*
X149388828Y-118724561D01*
X149340472Y-118565150D01*
X149258405Y-118411614D01*
X149230008Y-118377012D01*
X149321185Y-118302185D01*
X149400537Y-118205494D01*
X149459502Y-118095180D01*
X149495812Y-117975482D01*
X149508072Y-117851000D01*
X149508072Y-116451000D01*
X149495812Y-116326518D01*
X149459502Y-116206820D01*
X149400537Y-116096506D01*
X149321185Y-115999815D01*
X149261704Y-115951000D01*
X149321185Y-115902185D01*
X149400537Y-115805494D01*
X149459502Y-115695180D01*
X149495812Y-115575482D01*
X149508072Y-115451000D01*
X149505000Y-115036750D01*
X149346250Y-114878000D01*
X148397000Y-114878000D01*
X148397000Y-114898000D01*
X148143000Y-114898000D01*
X148143000Y-114878000D01*
X148123000Y-114878000D01*
X148123000Y-114624000D01*
X148143000Y-114624000D01*
X148143000Y-112776000D01*
X148397000Y-112776000D01*
X148397000Y-114624000D01*
X149346250Y-114624000D01*
X149505000Y-114465250D01*
X149508072Y-114051000D01*
X149495812Y-113926518D01*
X149459502Y-113806820D01*
X149400537Y-113696506D01*
X149350334Y-113635333D01*
X149359502Y-113618180D01*
X149395812Y-113498482D01*
X149408072Y-113374000D01*
X149405000Y-112934750D01*
X149246250Y-112776000D01*
X148397000Y-112776000D01*
X148143000Y-112776000D01*
X148123000Y-112776000D01*
X148123000Y-112522000D01*
X148143000Y-112522000D01*
X148143000Y-112502000D01*
X148397000Y-112502000D01*
X148397000Y-112522000D01*
X149246250Y-112522000D01*
X149405000Y-112363250D01*
X149408072Y-111924000D01*
X149395812Y-111799518D01*
X149359502Y-111679820D01*
X149300537Y-111569506D01*
X149264012Y-111525000D01*
X151204097Y-111525000D01*
X151105226Y-111591063D01*
G04 #@! TA.AperFunction,Conductor*
D34*
G36*
X151105226Y-111591063D02*
G01*
X150961063Y-111735226D01*
X150847795Y-111904744D01*
X150769774Y-112093102D01*
X150730000Y-112293061D01*
X150730000Y-112496939D01*
X150769774Y-112696898D01*
X150847795Y-112885256D01*
X150961063Y-113054774D01*
X150980001Y-113073712D01*
X150980000Y-117133389D01*
X149388828Y-118724561D01*
X149340472Y-118565150D01*
X149258405Y-118411614D01*
X149230008Y-118377012D01*
X149321185Y-118302185D01*
X149400537Y-118205494D01*
X149459502Y-118095180D01*
X149495812Y-117975482D01*
X149508072Y-117851000D01*
X149508072Y-116451000D01*
X149495812Y-116326518D01*
X149459502Y-116206820D01*
X149400537Y-116096506D01*
X149321185Y-115999815D01*
X149261704Y-115951000D01*
X149321185Y-115902185D01*
X149400537Y-115805494D01*
X149459502Y-115695180D01*
X149495812Y-115575482D01*
X149508072Y-115451000D01*
X149505000Y-115036750D01*
X149346250Y-114878000D01*
X148397000Y-114878000D01*
X148397000Y-114898000D01*
X148143000Y-114898000D01*
X148143000Y-114878000D01*
X148123000Y-114878000D01*
X148123000Y-114624000D01*
X148143000Y-114624000D01*
X148143000Y-112776000D01*
X148397000Y-112776000D01*
X148397000Y-114624000D01*
X149346250Y-114624000D01*
X149505000Y-114465250D01*
X149508072Y-114051000D01*
X149495812Y-113926518D01*
X149459502Y-113806820D01*
X149400537Y-113696506D01*
X149350334Y-113635333D01*
X149359502Y-113618180D01*
X149395812Y-113498482D01*
X149408072Y-113374000D01*
X149405000Y-112934750D01*
X149246250Y-112776000D01*
X148397000Y-112776000D01*
X148143000Y-112776000D01*
X148123000Y-112776000D01*
X148123000Y-112522000D01*
X148143000Y-112522000D01*
X148143000Y-112502000D01*
X148397000Y-112502000D01*
X148397000Y-112522000D01*
X149246250Y-112522000D01*
X149405000Y-112363250D01*
X149408072Y-111924000D01*
X149395812Y-111799518D01*
X149359502Y-111679820D01*
X149300537Y-111569506D01*
X149264012Y-111525000D01*
X151204097Y-111525000D01*
X151105226Y-111591063D01*
G37*
G04 #@! TD.AperFunction*
D33*
X145912525Y-103816632D02*
X146119368Y-104023475D01*
X146293760Y-104140000D01*
X146119368Y-104256525D01*
X145912525Y-104463368D01*
X145750010Y-104706589D01*
X145638068Y-104976842D01*
X145581000Y-105263740D01*
X145581000Y-105556260D01*
X145638068Y-105843158D01*
X145750010Y-106113411D01*
X145912525Y-106356632D01*
X146044380Y-106488487D01*
X145971820Y-106510498D01*
X145861506Y-106569463D01*
X145764815Y-106648815D01*
X145685463Y-106745506D01*
X145626498Y-106855820D01*
X145590188Y-106975518D01*
X145577928Y-107100000D01*
X145581000Y-107664250D01*
X145739750Y-107823000D01*
X146939000Y-107823000D01*
X146939000Y-107803000D01*
X147193000Y-107803000D01*
X147193000Y-107823000D01*
X148392250Y-107823000D01*
X148551000Y-107664250D01*
X148554072Y-107100000D01*
X148541812Y-106975518D01*
X148505502Y-106855820D01*
X148446537Y-106745506D01*
X148367185Y-106648815D01*
X148270494Y-106569463D01*
X148160180Y-106510498D01*
X148087620Y-106488487D01*
X148219475Y-106356632D01*
X148381990Y-106113411D01*
X148493932Y-105843158D01*
X148551000Y-105556260D01*
X148551000Y-105263740D01*
X148493932Y-104976842D01*
X148472458Y-104925000D01*
X151292056Y-104925000D01*
X151293528Y-104929852D01*
X151375595Y-105083387D01*
X151486038Y-105217962D01*
X151620613Y-105328405D01*
X151774148Y-105410472D01*
X151940744Y-105461008D01*
X152113998Y-105478072D01*
X152639002Y-105478072D01*
X152812256Y-105461008D01*
X152978852Y-105410472D01*
X153132387Y-105328405D01*
X153266962Y-105217962D01*
X153289000Y-105191109D01*
X153311038Y-105217962D01*
X153445613Y-105328405D01*
X153599148Y-105410472D01*
X153765744Y-105461008D01*
X153938998Y-105478072D01*
X154464002Y-105478072D01*
X154637256Y-105461008D01*
X154803852Y-105410472D01*
X154957387Y-105328405D01*
X155091962Y-105217962D01*
X155127220Y-105175000D01*
X155683001Y-105175000D01*
X155683000Y-107394289D01*
X153622290Y-109455000D01*
X127174711Y-109455000D01*
X126625132Y-108905422D01*
X126794797Y-108814734D01*
X126952396Y-108685396D01*
X126984807Y-108645903D01*
X128488639Y-107142072D01*
X129413000Y-107142072D01*
X129537482Y-107129812D01*
X129624928Y-107103286D01*
X129624928Y-108404000D01*
X129637188Y-108528482D01*
X129673498Y-108648180D01*
X129732463Y-108758494D01*
X129811815Y-108855185D01*
X129908506Y-108934537D01*
X130018820Y-108993502D01*
X130138518Y-109029812D01*
X130263000Y-109042072D01*
X131263000Y-109042072D01*
X131387482Y-109029812D01*
X131507180Y-108993502D01*
X131617494Y-108934537D01*
X131714185Y-108855185D01*
X131763000Y-108795704D01*
X131811815Y-108855185D01*
X131908506Y-108934537D01*
X132018820Y-108993502D01*
X132138518Y-109029812D01*
X132263000Y-109042072D01*
X133263000Y-109042072D01*
X133387482Y-109029812D01*
X133507180Y-108993502D01*
X133617494Y-108934537D01*
X133714185Y-108855185D01*
X133763000Y-108795704D01*
X133811815Y-108855185D01*
X133908506Y-108934537D01*
X134018820Y-108993502D01*
X134138518Y-109029812D01*
X134263000Y-109042072D01*
X135263000Y-109042072D01*
X135387482Y-109029812D01*
X135507180Y-108993502D01*
X135617494Y-108934537D01*
X135714185Y-108855185D01*
X135763000Y-108795704D01*
X135811815Y-108855185D01*
X135908506Y-108934537D01*
X136018820Y-108993502D01*
X136138518Y-109029812D01*
X136263000Y-109042072D01*
X137263000Y-109042072D01*
X137387482Y-109029812D01*
X137507180Y-108993502D01*
X137617494Y-108934537D01*
X137714185Y-108855185D01*
X137763000Y-108795704D01*
X137811815Y-108855185D01*
X137908506Y-108934537D01*
X138018820Y-108993502D01*
X138138518Y-109029812D01*
X138263000Y-109042072D01*
X139263000Y-109042072D01*
X139387482Y-109029812D01*
X139507180Y-108993502D01*
X139617494Y-108934537D01*
X139714185Y-108855185D01*
X139763000Y-108795704D01*
X139811815Y-108855185D01*
X139908506Y-108934537D01*
X140018820Y-108993502D01*
X140138518Y-109029812D01*
X140263000Y-109042072D01*
X141263000Y-109042072D01*
X141387482Y-109029812D01*
X141507180Y-108993502D01*
X141617494Y-108934537D01*
X141714185Y-108855185D01*
X141759474Y-108800000D01*
X145577928Y-108800000D01*
X145590188Y-108924482D01*
X145626498Y-109044180D01*
X145685463Y-109154494D01*
X145764815Y-109251185D01*
X145861506Y-109330537D01*
X145971820Y-109389502D01*
X146091518Y-109425812D01*
X146216000Y-109438072D01*
X146780250Y-109435000D01*
X146939000Y-109276250D01*
X146939000Y-108077000D01*
X147193000Y-108077000D01*
X147193000Y-109276250D01*
X147351750Y-109435000D01*
X147916000Y-109438072D01*
X148040482Y-109425812D01*
X148160180Y-109389502D01*
X148270494Y-109330537D01*
X148367185Y-109251185D01*
X148446537Y-109154494D01*
X148505502Y-109044180D01*
X148541812Y-108924482D01*
X148554072Y-108800000D01*
X148551000Y-108235750D01*
X148392250Y-108077000D01*
X147193000Y-108077000D01*
X146939000Y-108077000D01*
X145739750Y-108077000D01*
X145581000Y-108235750D01*
X145577928Y-108800000D01*
X141759474Y-108800000D01*
X141793537Y-108758494D01*
X141852502Y-108648180D01*
X141888812Y-108528482D01*
X141901072Y-108404000D01*
X141901072Y-107103286D01*
X141988518Y-107129812D01*
X142113000Y-107142072D01*
X143077250Y-107139000D01*
X143236000Y-106980250D01*
X143236000Y-106131000D01*
X143490000Y-106131000D01*
X143490000Y-106980250D01*
X143648750Y-107139000D01*
X144613000Y-107142072D01*
X144737482Y-107129812D01*
X144857180Y-107093502D01*
X144967494Y-107034537D01*
X145064185Y-106955185D01*
X145143537Y-106858494D01*
X145202502Y-106748180D01*
X145238812Y-106628482D01*
X145251072Y-106504000D01*
X145248000Y-106289750D01*
X145089250Y-106131000D01*
X143490000Y-106131000D01*
X143236000Y-106131000D01*
X141687603Y-106131000D01*
X141617494Y-106073463D01*
X141507180Y-106014498D01*
X141387482Y-105978188D01*
X141263000Y-105965928D01*
X140263000Y-105965928D01*
X140138518Y-105978188D01*
X140018820Y-106014498D01*
X139908506Y-106073463D01*
X139811815Y-106152815D01*
X139763000Y-106212296D01*
X139714185Y-106152815D01*
X139617494Y-106073463D01*
X139507180Y-106014498D01*
X139387482Y-105978188D01*
X139263000Y-105965928D01*
X138263000Y-105965928D01*
X138138518Y-105978188D01*
X138018820Y-106014498D01*
X137908506Y-106073463D01*
X137811815Y-106152815D01*
X137763000Y-106212296D01*
X137714185Y-106152815D01*
X137617494Y-106073463D01*
X137507180Y-106014498D01*
X137387482Y-105978188D01*
X137263000Y-105965928D01*
X136263000Y-105965928D01*
X136138518Y-105978188D01*
X136018820Y-106014498D01*
X135908506Y-106073463D01*
X135811815Y-106152815D01*
X135763000Y-106212296D01*
X135714185Y-106152815D01*
X135617494Y-106073463D01*
X135507180Y-106014498D01*
X135387482Y-105978188D01*
X135263000Y-105965928D01*
X134263000Y-105965928D01*
X134138518Y-105978188D01*
X134018820Y-106014498D01*
X133908506Y-106073463D01*
X133811815Y-106152815D01*
X133763000Y-106212296D01*
X133714185Y-106152815D01*
X133617494Y-106073463D01*
X133507180Y-106014498D01*
X133387482Y-105978188D01*
X133263000Y-105965928D01*
X132263000Y-105965928D01*
X132138518Y-105978188D01*
X132018820Y-106014498D01*
X131908506Y-106073463D01*
X131811815Y-106152815D01*
X131763000Y-106212296D01*
X131714185Y-106152815D01*
X131617494Y-106073463D01*
X131507180Y-106014498D01*
X131387482Y-105978188D01*
X131263000Y-105965928D01*
X130263000Y-105965928D01*
X130138518Y-105978188D01*
X130051072Y-106004714D01*
X130051072Y-105938999D01*
X131154448Y-105938999D01*
X131193001Y-105942796D01*
X131231554Y-105938999D01*
X131231562Y-105938999D01*
X131346888Y-105927640D01*
X131494861Y-105882753D01*
X131631234Y-105809861D01*
X131750765Y-105711763D01*
X131775348Y-105681809D01*
X132668158Y-104789000D01*
X141545317Y-104789000D01*
X141582463Y-104858494D01*
X141661815Y-104955185D01*
X141721296Y-105004000D01*
X141661815Y-105052815D01*
X141582463Y-105149506D01*
X141523498Y-105259820D01*
X141487188Y-105379518D01*
X141474928Y-105504000D01*
X141478000Y-105718250D01*
X141636750Y-105877000D01*
X143236000Y-105877000D01*
X143236000Y-105857000D01*
X143490000Y-105857000D01*
X143490000Y-105877000D01*
X145089250Y-105877000D01*
X145248000Y-105718250D01*
X145251072Y-105504000D01*
X145238812Y-105379518D01*
X145202502Y-105259820D01*
X145143537Y-105149506D01*
X145064185Y-105052815D01*
X145004704Y-105004000D01*
X145064185Y-104955185D01*
X145143537Y-104858494D01*
X145202502Y-104748180D01*
X145238812Y-104628482D01*
X145251072Y-104504000D01*
X145251072Y-103655000D01*
X145804526Y-103655000D01*
X145912525Y-103816632D01*
G04 #@! TA.AperFunction,Conductor*
D34*
G36*
X145912525Y-103816632D02*
G01*
X146119368Y-104023475D01*
X146293760Y-104140000D01*
X146119368Y-104256525D01*
X145912525Y-104463368D01*
X145750010Y-104706589D01*
X145638068Y-104976842D01*
X145581000Y-105263740D01*
X145581000Y-105556260D01*
X145638068Y-105843158D01*
X145750010Y-106113411D01*
X145912525Y-106356632D01*
X146044380Y-106488487D01*
X145971820Y-106510498D01*
X145861506Y-106569463D01*
X145764815Y-106648815D01*
X145685463Y-106745506D01*
X145626498Y-106855820D01*
X145590188Y-106975518D01*
X145577928Y-107100000D01*
X145581000Y-107664250D01*
X145739750Y-107823000D01*
X146939000Y-107823000D01*
X146939000Y-107803000D01*
X147193000Y-107803000D01*
X147193000Y-107823000D01*
X148392250Y-107823000D01*
X148551000Y-107664250D01*
X148554072Y-107100000D01*
X148541812Y-106975518D01*
X148505502Y-106855820D01*
X148446537Y-106745506D01*
X148367185Y-106648815D01*
X148270494Y-106569463D01*
X148160180Y-106510498D01*
X148087620Y-106488487D01*
X148219475Y-106356632D01*
X148381990Y-106113411D01*
X148493932Y-105843158D01*
X148551000Y-105556260D01*
X148551000Y-105263740D01*
X148493932Y-104976842D01*
X148472458Y-104925000D01*
X151292056Y-104925000D01*
X151293528Y-104929852D01*
X151375595Y-105083387D01*
X151486038Y-105217962D01*
X151620613Y-105328405D01*
X151774148Y-105410472D01*
X151940744Y-105461008D01*
X152113998Y-105478072D01*
X152639002Y-105478072D01*
X152812256Y-105461008D01*
X152978852Y-105410472D01*
X153132387Y-105328405D01*
X153266962Y-105217962D01*
X153289000Y-105191109D01*
X153311038Y-105217962D01*
X153445613Y-105328405D01*
X153599148Y-105410472D01*
X153765744Y-105461008D01*
X153938998Y-105478072D01*
X154464002Y-105478072D01*
X154637256Y-105461008D01*
X154803852Y-105410472D01*
X154957387Y-105328405D01*
X155091962Y-105217962D01*
X155127220Y-105175000D01*
X155683001Y-105175000D01*
X155683000Y-107394289D01*
X153622290Y-109455000D01*
X127174711Y-109455000D01*
X126625132Y-108905422D01*
X126794797Y-108814734D01*
X126952396Y-108685396D01*
X126984807Y-108645903D01*
X128488639Y-107142072D01*
X129413000Y-107142072D01*
X129537482Y-107129812D01*
X129624928Y-107103286D01*
X129624928Y-108404000D01*
X129637188Y-108528482D01*
X129673498Y-108648180D01*
X129732463Y-108758494D01*
X129811815Y-108855185D01*
X129908506Y-108934537D01*
X130018820Y-108993502D01*
X130138518Y-109029812D01*
X130263000Y-109042072D01*
X131263000Y-109042072D01*
X131387482Y-109029812D01*
X131507180Y-108993502D01*
X131617494Y-108934537D01*
X131714185Y-108855185D01*
X131763000Y-108795704D01*
X131811815Y-108855185D01*
X131908506Y-108934537D01*
X132018820Y-108993502D01*
X132138518Y-109029812D01*
X132263000Y-109042072D01*
X133263000Y-109042072D01*
X133387482Y-109029812D01*
X133507180Y-108993502D01*
X133617494Y-108934537D01*
X133714185Y-108855185D01*
X133763000Y-108795704D01*
X133811815Y-108855185D01*
X133908506Y-108934537D01*
X134018820Y-108993502D01*
X134138518Y-109029812D01*
X134263000Y-109042072D01*
X135263000Y-109042072D01*
X135387482Y-109029812D01*
X135507180Y-108993502D01*
X135617494Y-108934537D01*
X135714185Y-108855185D01*
X135763000Y-108795704D01*
X135811815Y-108855185D01*
X135908506Y-108934537D01*
X136018820Y-108993502D01*
X136138518Y-109029812D01*
X136263000Y-109042072D01*
X137263000Y-109042072D01*
X137387482Y-109029812D01*
X137507180Y-108993502D01*
X137617494Y-108934537D01*
X137714185Y-108855185D01*
X137763000Y-108795704D01*
X137811815Y-108855185D01*
X137908506Y-108934537D01*
X138018820Y-108993502D01*
X138138518Y-109029812D01*
X138263000Y-109042072D01*
X139263000Y-109042072D01*
X139387482Y-109029812D01*
X139507180Y-108993502D01*
X139617494Y-108934537D01*
X139714185Y-108855185D01*
X139763000Y-108795704D01*
X139811815Y-108855185D01*
X139908506Y-108934537D01*
X140018820Y-108993502D01*
X140138518Y-109029812D01*
X140263000Y-109042072D01*
X141263000Y-109042072D01*
X141387482Y-109029812D01*
X141507180Y-108993502D01*
X141617494Y-108934537D01*
X141714185Y-108855185D01*
X141759474Y-108800000D01*
X145577928Y-108800000D01*
X145590188Y-108924482D01*
X145626498Y-109044180D01*
X145685463Y-109154494D01*
X145764815Y-109251185D01*
X145861506Y-109330537D01*
X145971820Y-109389502D01*
X146091518Y-109425812D01*
X146216000Y-109438072D01*
X146780250Y-109435000D01*
X146939000Y-109276250D01*
X146939000Y-108077000D01*
X147193000Y-108077000D01*
X147193000Y-109276250D01*
X147351750Y-109435000D01*
X147916000Y-109438072D01*
X148040482Y-109425812D01*
X148160180Y-109389502D01*
X148270494Y-109330537D01*
X148367185Y-109251185D01*
X148446537Y-109154494D01*
X148505502Y-109044180D01*
X148541812Y-108924482D01*
X148554072Y-108800000D01*
X148551000Y-108235750D01*
X148392250Y-108077000D01*
X147193000Y-108077000D01*
X146939000Y-108077000D01*
X145739750Y-108077000D01*
X145581000Y-108235750D01*
X145577928Y-108800000D01*
X141759474Y-108800000D01*
X141793537Y-108758494D01*
X141852502Y-108648180D01*
X141888812Y-108528482D01*
X141901072Y-108404000D01*
X141901072Y-107103286D01*
X141988518Y-107129812D01*
X142113000Y-107142072D01*
X143077250Y-107139000D01*
X143236000Y-106980250D01*
X143236000Y-106131000D01*
X143490000Y-106131000D01*
X143490000Y-106980250D01*
X143648750Y-107139000D01*
X144613000Y-107142072D01*
X144737482Y-107129812D01*
X144857180Y-107093502D01*
X144967494Y-107034537D01*
X145064185Y-106955185D01*
X145143537Y-106858494D01*
X145202502Y-106748180D01*
X145238812Y-106628482D01*
X145251072Y-106504000D01*
X145248000Y-106289750D01*
X145089250Y-106131000D01*
X143490000Y-106131000D01*
X143236000Y-106131000D01*
X141687603Y-106131000D01*
X141617494Y-106073463D01*
X141507180Y-106014498D01*
X141387482Y-105978188D01*
X141263000Y-105965928D01*
X140263000Y-105965928D01*
X140138518Y-105978188D01*
X140018820Y-106014498D01*
X139908506Y-106073463D01*
X139811815Y-106152815D01*
X139763000Y-106212296D01*
X139714185Y-106152815D01*
X139617494Y-106073463D01*
X139507180Y-106014498D01*
X139387482Y-105978188D01*
X139263000Y-105965928D01*
X138263000Y-105965928D01*
X138138518Y-105978188D01*
X138018820Y-106014498D01*
X137908506Y-106073463D01*
X137811815Y-106152815D01*
X137763000Y-106212296D01*
X137714185Y-106152815D01*
X137617494Y-106073463D01*
X137507180Y-106014498D01*
X137387482Y-105978188D01*
X137263000Y-105965928D01*
X136263000Y-105965928D01*
X136138518Y-105978188D01*
X136018820Y-106014498D01*
X135908506Y-106073463D01*
X135811815Y-106152815D01*
X135763000Y-106212296D01*
X135714185Y-106152815D01*
X135617494Y-106073463D01*
X135507180Y-106014498D01*
X135387482Y-105978188D01*
X135263000Y-105965928D01*
X134263000Y-105965928D01*
X134138518Y-105978188D01*
X134018820Y-106014498D01*
X133908506Y-106073463D01*
X133811815Y-106152815D01*
X133763000Y-106212296D01*
X133714185Y-106152815D01*
X133617494Y-106073463D01*
X133507180Y-106014498D01*
X133387482Y-105978188D01*
X133263000Y-105965928D01*
X132263000Y-105965928D01*
X132138518Y-105978188D01*
X132018820Y-106014498D01*
X131908506Y-106073463D01*
X131811815Y-106152815D01*
X131763000Y-106212296D01*
X131714185Y-106152815D01*
X131617494Y-106073463D01*
X131507180Y-106014498D01*
X131387482Y-105978188D01*
X131263000Y-105965928D01*
X130263000Y-105965928D01*
X130138518Y-105978188D01*
X130051072Y-106004714D01*
X130051072Y-105938999D01*
X131154448Y-105938999D01*
X131193001Y-105942796D01*
X131231554Y-105938999D01*
X131231562Y-105938999D01*
X131346888Y-105927640D01*
X131494861Y-105882753D01*
X131631234Y-105809861D01*
X131750765Y-105711763D01*
X131775348Y-105681809D01*
X132668158Y-104789000D01*
X141545317Y-104789000D01*
X141582463Y-104858494D01*
X141661815Y-104955185D01*
X141721296Y-105004000D01*
X141661815Y-105052815D01*
X141582463Y-105149506D01*
X141523498Y-105259820D01*
X141487188Y-105379518D01*
X141474928Y-105504000D01*
X141478000Y-105718250D01*
X141636750Y-105877000D01*
X143236000Y-105877000D01*
X143236000Y-105857000D01*
X143490000Y-105857000D01*
X143490000Y-105877000D01*
X145089250Y-105877000D01*
X145248000Y-105718250D01*
X145251072Y-105504000D01*
X145238812Y-105379518D01*
X145202502Y-105259820D01*
X145143537Y-105149506D01*
X145064185Y-105052815D01*
X145004704Y-105004000D01*
X145064185Y-104955185D01*
X145143537Y-104858494D01*
X145202502Y-104748180D01*
X145238812Y-104628482D01*
X145251072Y-104504000D01*
X145251072Y-103655000D01*
X145804526Y-103655000D01*
X145912525Y-103816632D01*
G37*
G04 #@! TD.AperFunction*
D33*
X125274506Y-78086537D02*
X125384820Y-78145502D01*
X125504518Y-78181812D01*
X125629000Y-78194072D01*
X126553361Y-78194072D01*
X127085592Y-78726303D01*
X127085598Y-78726308D01*
X127235001Y-78875711D01*
X127235001Y-78888263D01*
X127167038Y-78944038D01*
X127056595Y-79078614D01*
X126974528Y-79232150D01*
X126923992Y-79398746D01*
X126906928Y-79572000D01*
X126906928Y-80072000D01*
X126923992Y-80245254D01*
X126974528Y-80411850D01*
X127056595Y-80565386D01*
X127167038Y-80699962D01*
X127173594Y-80705342D01*
X127093815Y-80770815D01*
X127014463Y-80867506D01*
X126955498Y-80977820D01*
X126919188Y-81097518D01*
X126906928Y-81222000D01*
X126910000Y-81436250D01*
X127068750Y-81595000D01*
X128143000Y-81595000D01*
X128143000Y-81575000D01*
X128397000Y-81575000D01*
X128397000Y-81595000D01*
X129471250Y-81595000D01*
X129630000Y-81436250D01*
X129633072Y-81222000D01*
X129620812Y-81097518D01*
X129591804Y-81001891D01*
X130257519Y-81001891D01*
X130354843Y-81276252D01*
X130503822Y-81526355D01*
X130698731Y-81742588D01*
X130932080Y-81916641D01*
X131194901Y-82041825D01*
X131342110Y-82086476D01*
X131572000Y-81965155D01*
X131572000Y-80772000D01*
X130378186Y-80772000D01*
X130257519Y-81001891D01*
X129591804Y-81001891D01*
X129584502Y-80977820D01*
X129525537Y-80867506D01*
X129446185Y-80770815D01*
X129366406Y-80705342D01*
X129372962Y-80699962D01*
X129483405Y-80565386D01*
X129565472Y-80411850D01*
X129616008Y-80245254D01*
X129633072Y-80072000D01*
X129633072Y-79572000D01*
X129616008Y-79398746D01*
X129576044Y-79267000D01*
X131155378Y-79267000D01*
X130932080Y-79373359D01*
X130698731Y-79547412D01*
X130503822Y-79763645D01*
X130354843Y-80013748D01*
X130257519Y-80288109D01*
X130378186Y-80518000D01*
X131572000Y-80518000D01*
X131572000Y-80498000D01*
X131826000Y-80498000D01*
X131826000Y-80518000D01*
X131846000Y-80518000D01*
X131846000Y-80772000D01*
X131826000Y-80772000D01*
X131826000Y-81965155D01*
X132055890Y-82086476D01*
X132203099Y-82041825D01*
X132465920Y-81916641D01*
X132699269Y-81742588D01*
X132894178Y-81526355D01*
X132963805Y-81409466D01*
X133085525Y-81591632D01*
X133292368Y-81798475D01*
X133454000Y-81906474D01*
X133454001Y-95152842D01*
X130045416Y-98561427D01*
X130051072Y-98504000D01*
X130051072Y-97504000D01*
X130038812Y-97379518D01*
X130002502Y-97259820D01*
X129943537Y-97149506D01*
X129864185Y-97052815D01*
X129804704Y-97004000D01*
X129864185Y-96955185D01*
X129943537Y-96858494D01*
X130002502Y-96748180D01*
X130038812Y-96628482D01*
X130051072Y-96504000D01*
X130051072Y-95504000D01*
X130038812Y-95379518D01*
X130002502Y-95259820D01*
X129943537Y-95149506D01*
X129864185Y-95052815D01*
X129804704Y-95004000D01*
X129864185Y-94955185D01*
X129943537Y-94858494D01*
X129980683Y-94789000D01*
X131382447Y-94789000D01*
X131421000Y-94792797D01*
X131459553Y-94789000D01*
X131459561Y-94789000D01*
X131574887Y-94777641D01*
X131722860Y-94732754D01*
X131859233Y-94659862D01*
X131978764Y-94561764D01*
X132003347Y-94531810D01*
X132282157Y-94253000D01*
X132308939Y-94253000D01*
X132508898Y-94213226D01*
X132697256Y-94135205D01*
X132866774Y-94021937D01*
X133010937Y-93877774D01*
X133124205Y-93708256D01*
X133202226Y-93519898D01*
X133242000Y-93319939D01*
X133242000Y-93116061D01*
X133202226Y-92916102D01*
X133124205Y-92727744D01*
X133010937Y-92558226D01*
X132866774Y-92414063D01*
X132697256Y-92300795D01*
X132508898Y-92222774D01*
X132308939Y-92183000D01*
X132105061Y-92183000D01*
X131905102Y-92222774D01*
X131716744Y-92300795D01*
X131547226Y-92414063D01*
X131403063Y-92558226D01*
X131289795Y-92727744D01*
X131211774Y-92916102D01*
X131172000Y-93116061D01*
X131172000Y-93142843D01*
X131095843Y-93219000D01*
X129980683Y-93219000D01*
X129943537Y-93149506D01*
X129864185Y-93052815D01*
X129804704Y-93004000D01*
X129864185Y-92955185D01*
X129943537Y-92858494D01*
X130002502Y-92748180D01*
X130038812Y-92628482D01*
X130051072Y-92504000D01*
X130051072Y-91504000D01*
X130038812Y-91379518D01*
X130002502Y-91259820D01*
X129943537Y-91149506D01*
X129864185Y-91052815D01*
X129767494Y-90973463D01*
X129657180Y-90914498D01*
X129537482Y-90878188D01*
X129413000Y-90865928D01*
X128135085Y-90865928D01*
X126911345Y-89642188D01*
X126886764Y-89612236D01*
X126767233Y-89514138D01*
X126630860Y-89441246D01*
X126482887Y-89396359D01*
X126367561Y-89385000D01*
X126367553Y-89385000D01*
X126329000Y-89381203D01*
X126290447Y-89385000D01*
X126106391Y-89385000D01*
X126203862Y-89266233D01*
X126276754Y-89129860D01*
X126294834Y-89070258D01*
X126321642Y-88981887D01*
X126329020Y-88906974D01*
X126333000Y-88866561D01*
X126333000Y-88866556D01*
X126336797Y-88828000D01*
X126333000Y-88789444D01*
X126333000Y-87777287D01*
X126342180Y-87774502D01*
X126452494Y-87715537D01*
X126549185Y-87636185D01*
X126628537Y-87539494D01*
X126687502Y-87429180D01*
X126723812Y-87309482D01*
X126736072Y-87185000D01*
X126736072Y-85385000D01*
X126723812Y-85260518D01*
X126687502Y-85140820D01*
X126628537Y-85030506D01*
X126549185Y-84933815D01*
X126452494Y-84854463D01*
X126342180Y-84795498D01*
X126333000Y-84792713D01*
X126333000Y-82222000D01*
X126906928Y-82222000D01*
X126919188Y-82346482D01*
X126955498Y-82466180D01*
X127014463Y-82576494D01*
X127093815Y-82673185D01*
X127190506Y-82752537D01*
X127300820Y-82811502D01*
X127420518Y-82847812D01*
X127545000Y-82860072D01*
X127984250Y-82857000D01*
X128143000Y-82698250D01*
X128143000Y-81849000D01*
X128397000Y-81849000D01*
X128397000Y-82698250D01*
X128555750Y-82857000D01*
X128995000Y-82860072D01*
X129119482Y-82847812D01*
X129239180Y-82811502D01*
X129349494Y-82752537D01*
X129446185Y-82673185D01*
X129525537Y-82576494D01*
X129584502Y-82466180D01*
X129620812Y-82346482D01*
X129633072Y-82222000D01*
X129630000Y-82007750D01*
X129471250Y-81849000D01*
X128397000Y-81849000D01*
X128143000Y-81849000D01*
X127068750Y-81849000D01*
X126910000Y-82007750D01*
X126906928Y-82222000D01*
X126333000Y-82222000D01*
X126333000Y-81577287D01*
X126342180Y-81574502D01*
X126452494Y-81515537D01*
X126549185Y-81436185D01*
X126628537Y-81339494D01*
X126687502Y-81229180D01*
X126723812Y-81109482D01*
X126736072Y-80985000D01*
X126736072Y-79185000D01*
X126723812Y-79060518D01*
X126687502Y-78940820D01*
X126628537Y-78830506D01*
X126549185Y-78733815D01*
X126452494Y-78654463D01*
X126342180Y-78595498D01*
X126222482Y-78559188D01*
X126098000Y-78546928D01*
X124998000Y-78546928D01*
X124873518Y-78559188D01*
X124753820Y-78595498D01*
X124643506Y-78654463D01*
X124546815Y-78733815D01*
X124467463Y-78830506D01*
X124408498Y-78940820D01*
X124372188Y-79060518D01*
X124359928Y-79185000D01*
X124359928Y-80985000D01*
X124372188Y-81109482D01*
X124408498Y-81229180D01*
X124467463Y-81339494D01*
X124546815Y-81436185D01*
X124643506Y-81515537D01*
X124753820Y-81574502D01*
X124763000Y-81577287D01*
X124763001Y-84792713D01*
X124753820Y-84795498D01*
X124643506Y-84854463D01*
X124546815Y-84933815D01*
X124467463Y-85030506D01*
X124408498Y-85140820D01*
X124372188Y-85260518D01*
X124359928Y-85385000D01*
X124359928Y-87185000D01*
X124372188Y-87309482D01*
X124408498Y-87429180D01*
X124467463Y-87539494D01*
X124546815Y-87636185D01*
X124643506Y-87715537D01*
X124753820Y-87774502D01*
X124763001Y-87777287D01*
X124763001Y-88502842D01*
X124542918Y-88722925D01*
X124352260Y-88685000D01*
X124059740Y-88685000D01*
X123869082Y-88722925D01*
X123010347Y-87864190D01*
X122985764Y-87834236D01*
X122866233Y-87736138D01*
X122782153Y-87691197D01*
X122849185Y-87636185D01*
X122928537Y-87539494D01*
X122987502Y-87429180D01*
X123023812Y-87309482D01*
X123036072Y-87185000D01*
X123033000Y-86570750D01*
X122874250Y-86412000D01*
X121975000Y-86412000D01*
X121975000Y-86432000D01*
X121721000Y-86432000D01*
X121721000Y-86412000D01*
X120821750Y-86412000D01*
X120663000Y-86570750D01*
X120659928Y-87185000D01*
X120672188Y-87309482D01*
X120708498Y-87429180D01*
X120767463Y-87539494D01*
X120822864Y-87607000D01*
X119448444Y-87607000D01*
X119446972Y-87602148D01*
X119364905Y-87448613D01*
X119254462Y-87314038D01*
X119119887Y-87203595D01*
X118966352Y-87121528D01*
X118799756Y-87070992D01*
X118626502Y-87053928D01*
X118101498Y-87053928D01*
X117928244Y-87070992D01*
X117761648Y-87121528D01*
X117608113Y-87203595D01*
X117574000Y-87231591D01*
X117574000Y-85385000D01*
X120659928Y-85385000D01*
X120663000Y-85999250D01*
X120821750Y-86158000D01*
X121721000Y-86158000D01*
X121721000Y-84908750D01*
X121975000Y-84908750D01*
X121975000Y-86158000D01*
X122874250Y-86158000D01*
X123033000Y-85999250D01*
X123036072Y-85385000D01*
X123023812Y-85260518D01*
X122987502Y-85140820D01*
X122928537Y-85030506D01*
X122849185Y-84933815D01*
X122752494Y-84854463D01*
X122642180Y-84795498D01*
X122522482Y-84759188D01*
X122398000Y-84746928D01*
X122133750Y-84750000D01*
X121975000Y-84908750D01*
X121721000Y-84908750D01*
X121562250Y-84750000D01*
X121298000Y-84746928D01*
X121173518Y-84759188D01*
X121053820Y-84795498D01*
X120943506Y-84854463D01*
X120846815Y-84933815D01*
X120767463Y-85030506D01*
X120708498Y-85140820D01*
X120672188Y-85260518D01*
X120659928Y-85385000D01*
X117574000Y-85385000D01*
X117574000Y-83292708D01*
X120663000Y-80203709D01*
X120663000Y-80212002D01*
X120821748Y-80212002D01*
X120663000Y-80370750D01*
X120659928Y-80985000D01*
X120672188Y-81109482D01*
X120708498Y-81229180D01*
X120767463Y-81339494D01*
X120846815Y-81436185D01*
X120943506Y-81515537D01*
X121053820Y-81574502D01*
X121173518Y-81610812D01*
X121298000Y-81623072D01*
X121562250Y-81620000D01*
X121721000Y-81461250D01*
X121721000Y-80212000D01*
X121975000Y-80212000D01*
X121975000Y-81461250D01*
X122133750Y-81620000D01*
X122398000Y-81623072D01*
X122522482Y-81610812D01*
X122642180Y-81574502D01*
X122752494Y-81515537D01*
X122849185Y-81436185D01*
X122928537Y-81339494D01*
X122987502Y-81229180D01*
X123023812Y-81109482D01*
X123036072Y-80985000D01*
X123033000Y-80370750D01*
X122874250Y-80212000D01*
X121975000Y-80212000D01*
X121721000Y-80212000D01*
X121701000Y-80212000D01*
X121701000Y-79958000D01*
X121721000Y-79958000D01*
X121721000Y-79938000D01*
X121975000Y-79938000D01*
X121975000Y-79958000D01*
X122874250Y-79958000D01*
X123033000Y-79799250D01*
X123034418Y-79515682D01*
X123157800Y-79449733D01*
X123315399Y-79320395D01*
X123347810Y-79280902D01*
X124434641Y-78194072D01*
X124829000Y-78194072D01*
X124953482Y-78181812D01*
X125073180Y-78145502D01*
X125183494Y-78086537D01*
X125229000Y-78049191D01*
X125274506Y-78086537D01*
G04 #@! TA.AperFunction,Conductor*
D34*
G36*
X125274506Y-78086537D02*
G01*
X125384820Y-78145502D01*
X125504518Y-78181812D01*
X125629000Y-78194072D01*
X126553361Y-78194072D01*
X127085592Y-78726303D01*
X127085598Y-78726308D01*
X127235001Y-78875711D01*
X127235001Y-78888263D01*
X127167038Y-78944038D01*
X127056595Y-79078614D01*
X126974528Y-79232150D01*
X126923992Y-79398746D01*
X126906928Y-79572000D01*
X126906928Y-80072000D01*
X126923992Y-80245254D01*
X126974528Y-80411850D01*
X127056595Y-80565386D01*
X127167038Y-80699962D01*
X127173594Y-80705342D01*
X127093815Y-80770815D01*
X127014463Y-80867506D01*
X126955498Y-80977820D01*
X126919188Y-81097518D01*
X126906928Y-81222000D01*
X126910000Y-81436250D01*
X127068750Y-81595000D01*
X128143000Y-81595000D01*
X128143000Y-81575000D01*
X128397000Y-81575000D01*
X128397000Y-81595000D01*
X129471250Y-81595000D01*
X129630000Y-81436250D01*
X129633072Y-81222000D01*
X129620812Y-81097518D01*
X129591804Y-81001891D01*
X130257519Y-81001891D01*
X130354843Y-81276252D01*
X130503822Y-81526355D01*
X130698731Y-81742588D01*
X130932080Y-81916641D01*
X131194901Y-82041825D01*
X131342110Y-82086476D01*
X131572000Y-81965155D01*
X131572000Y-80772000D01*
X130378186Y-80772000D01*
X130257519Y-81001891D01*
X129591804Y-81001891D01*
X129584502Y-80977820D01*
X129525537Y-80867506D01*
X129446185Y-80770815D01*
X129366406Y-80705342D01*
X129372962Y-80699962D01*
X129483405Y-80565386D01*
X129565472Y-80411850D01*
X129616008Y-80245254D01*
X129633072Y-80072000D01*
X129633072Y-79572000D01*
X129616008Y-79398746D01*
X129576044Y-79267000D01*
X131155378Y-79267000D01*
X130932080Y-79373359D01*
X130698731Y-79547412D01*
X130503822Y-79763645D01*
X130354843Y-80013748D01*
X130257519Y-80288109D01*
X130378186Y-80518000D01*
X131572000Y-80518000D01*
X131572000Y-80498000D01*
X131826000Y-80498000D01*
X131826000Y-80518000D01*
X131846000Y-80518000D01*
X131846000Y-80772000D01*
X131826000Y-80772000D01*
X131826000Y-81965155D01*
X132055890Y-82086476D01*
X132203099Y-82041825D01*
X132465920Y-81916641D01*
X132699269Y-81742588D01*
X132894178Y-81526355D01*
X132963805Y-81409466D01*
X133085525Y-81591632D01*
X133292368Y-81798475D01*
X133454000Y-81906474D01*
X133454001Y-95152842D01*
X130045416Y-98561427D01*
X130051072Y-98504000D01*
X130051072Y-97504000D01*
X130038812Y-97379518D01*
X130002502Y-97259820D01*
X129943537Y-97149506D01*
X129864185Y-97052815D01*
X129804704Y-97004000D01*
X129864185Y-96955185D01*
X129943537Y-96858494D01*
X130002502Y-96748180D01*
X130038812Y-96628482D01*
X130051072Y-96504000D01*
X130051072Y-95504000D01*
X130038812Y-95379518D01*
X130002502Y-95259820D01*
X129943537Y-95149506D01*
X129864185Y-95052815D01*
X129804704Y-95004000D01*
X129864185Y-94955185D01*
X129943537Y-94858494D01*
X129980683Y-94789000D01*
X131382447Y-94789000D01*
X131421000Y-94792797D01*
X131459553Y-94789000D01*
X131459561Y-94789000D01*
X131574887Y-94777641D01*
X131722860Y-94732754D01*
X131859233Y-94659862D01*
X131978764Y-94561764D01*
X132003347Y-94531810D01*
X132282157Y-94253000D01*
X132308939Y-94253000D01*
X132508898Y-94213226D01*
X132697256Y-94135205D01*
X132866774Y-94021937D01*
X133010937Y-93877774D01*
X133124205Y-93708256D01*
X133202226Y-93519898D01*
X133242000Y-93319939D01*
X133242000Y-93116061D01*
X133202226Y-92916102D01*
X133124205Y-92727744D01*
X133010937Y-92558226D01*
X132866774Y-92414063D01*
X132697256Y-92300795D01*
X132508898Y-92222774D01*
X132308939Y-92183000D01*
X132105061Y-92183000D01*
X131905102Y-92222774D01*
X131716744Y-92300795D01*
X131547226Y-92414063D01*
X131403063Y-92558226D01*
X131289795Y-92727744D01*
X131211774Y-92916102D01*
X131172000Y-93116061D01*
X131172000Y-93142843D01*
X131095843Y-93219000D01*
X129980683Y-93219000D01*
X129943537Y-93149506D01*
X129864185Y-93052815D01*
X129804704Y-93004000D01*
X129864185Y-92955185D01*
X129943537Y-92858494D01*
X130002502Y-92748180D01*
X130038812Y-92628482D01*
X130051072Y-92504000D01*
X130051072Y-91504000D01*
X130038812Y-91379518D01*
X130002502Y-91259820D01*
X129943537Y-91149506D01*
X129864185Y-91052815D01*
X129767494Y-90973463D01*
X129657180Y-90914498D01*
X129537482Y-90878188D01*
X129413000Y-90865928D01*
X128135085Y-90865928D01*
X126911345Y-89642188D01*
X126886764Y-89612236D01*
X126767233Y-89514138D01*
X126630860Y-89441246D01*
X126482887Y-89396359D01*
X126367561Y-89385000D01*
X126367553Y-89385000D01*
X126329000Y-89381203D01*
X126290447Y-89385000D01*
X126106391Y-89385000D01*
X126203862Y-89266233D01*
X126276754Y-89129860D01*
X126294834Y-89070258D01*
X126321642Y-88981887D01*
X126329020Y-88906974D01*
X126333000Y-88866561D01*
X126333000Y-88866556D01*
X126336797Y-88828000D01*
X126333000Y-88789444D01*
X126333000Y-87777287D01*
X126342180Y-87774502D01*
X126452494Y-87715537D01*
X126549185Y-87636185D01*
X126628537Y-87539494D01*
X126687502Y-87429180D01*
X126723812Y-87309482D01*
X126736072Y-87185000D01*
X126736072Y-85385000D01*
X126723812Y-85260518D01*
X126687502Y-85140820D01*
X126628537Y-85030506D01*
X126549185Y-84933815D01*
X126452494Y-84854463D01*
X126342180Y-84795498D01*
X126333000Y-84792713D01*
X126333000Y-82222000D01*
X126906928Y-82222000D01*
X126919188Y-82346482D01*
X126955498Y-82466180D01*
X127014463Y-82576494D01*
X127093815Y-82673185D01*
X127190506Y-82752537D01*
X127300820Y-82811502D01*
X127420518Y-82847812D01*
X127545000Y-82860072D01*
X127984250Y-82857000D01*
X128143000Y-82698250D01*
X128143000Y-81849000D01*
X128397000Y-81849000D01*
X128397000Y-82698250D01*
X128555750Y-82857000D01*
X128995000Y-82860072D01*
X129119482Y-82847812D01*
X129239180Y-82811502D01*
X129349494Y-82752537D01*
X129446185Y-82673185D01*
X129525537Y-82576494D01*
X129584502Y-82466180D01*
X129620812Y-82346482D01*
X129633072Y-82222000D01*
X129630000Y-82007750D01*
X129471250Y-81849000D01*
X128397000Y-81849000D01*
X128143000Y-81849000D01*
X127068750Y-81849000D01*
X126910000Y-82007750D01*
X126906928Y-82222000D01*
X126333000Y-82222000D01*
X126333000Y-81577287D01*
X126342180Y-81574502D01*
X126452494Y-81515537D01*
X126549185Y-81436185D01*
X126628537Y-81339494D01*
X126687502Y-81229180D01*
X126723812Y-81109482D01*
X126736072Y-80985000D01*
X126736072Y-79185000D01*
X126723812Y-79060518D01*
X126687502Y-78940820D01*
X126628537Y-78830506D01*
X126549185Y-78733815D01*
X126452494Y-78654463D01*
X126342180Y-78595498D01*
X126222482Y-78559188D01*
X126098000Y-78546928D01*
X124998000Y-78546928D01*
X124873518Y-78559188D01*
X124753820Y-78595498D01*
X124643506Y-78654463D01*
X124546815Y-78733815D01*
X124467463Y-78830506D01*
X124408498Y-78940820D01*
X124372188Y-79060518D01*
X124359928Y-79185000D01*
X124359928Y-80985000D01*
X124372188Y-81109482D01*
X124408498Y-81229180D01*
X124467463Y-81339494D01*
X124546815Y-81436185D01*
X124643506Y-81515537D01*
X124753820Y-81574502D01*
X124763000Y-81577287D01*
X124763001Y-84792713D01*
X124753820Y-84795498D01*
X124643506Y-84854463D01*
X124546815Y-84933815D01*
X124467463Y-85030506D01*
X124408498Y-85140820D01*
X124372188Y-85260518D01*
X124359928Y-85385000D01*
X124359928Y-87185000D01*
X124372188Y-87309482D01*
X124408498Y-87429180D01*
X124467463Y-87539494D01*
X124546815Y-87636185D01*
X124643506Y-87715537D01*
X124753820Y-87774502D01*
X124763001Y-87777287D01*
X124763001Y-88502842D01*
X124542918Y-88722925D01*
X124352260Y-88685000D01*
X124059740Y-88685000D01*
X123869082Y-88722925D01*
X123010347Y-87864190D01*
X122985764Y-87834236D01*
X122866233Y-87736138D01*
X122782153Y-87691197D01*
X122849185Y-87636185D01*
X122928537Y-87539494D01*
X122987502Y-87429180D01*
X123023812Y-87309482D01*
X123036072Y-87185000D01*
X123033000Y-86570750D01*
X122874250Y-86412000D01*
X121975000Y-86412000D01*
X121975000Y-86432000D01*
X121721000Y-86432000D01*
X121721000Y-86412000D01*
X120821750Y-86412000D01*
X120663000Y-86570750D01*
X120659928Y-87185000D01*
X120672188Y-87309482D01*
X120708498Y-87429180D01*
X120767463Y-87539494D01*
X120822864Y-87607000D01*
X119448444Y-87607000D01*
X119446972Y-87602148D01*
X119364905Y-87448613D01*
X119254462Y-87314038D01*
X119119887Y-87203595D01*
X118966352Y-87121528D01*
X118799756Y-87070992D01*
X118626502Y-87053928D01*
X118101498Y-87053928D01*
X117928244Y-87070992D01*
X117761648Y-87121528D01*
X117608113Y-87203595D01*
X117574000Y-87231591D01*
X117574000Y-85385000D01*
X120659928Y-85385000D01*
X120663000Y-85999250D01*
X120821750Y-86158000D01*
X121721000Y-86158000D01*
X121721000Y-84908750D01*
X121975000Y-84908750D01*
X121975000Y-86158000D01*
X122874250Y-86158000D01*
X123033000Y-85999250D01*
X123036072Y-85385000D01*
X123023812Y-85260518D01*
X122987502Y-85140820D01*
X122928537Y-85030506D01*
X122849185Y-84933815D01*
X122752494Y-84854463D01*
X122642180Y-84795498D01*
X122522482Y-84759188D01*
X122398000Y-84746928D01*
X122133750Y-84750000D01*
X121975000Y-84908750D01*
X121721000Y-84908750D01*
X121562250Y-84750000D01*
X121298000Y-84746928D01*
X121173518Y-84759188D01*
X121053820Y-84795498D01*
X120943506Y-84854463D01*
X120846815Y-84933815D01*
X120767463Y-85030506D01*
X120708498Y-85140820D01*
X120672188Y-85260518D01*
X120659928Y-85385000D01*
X117574000Y-85385000D01*
X117574000Y-83292708D01*
X120663000Y-80203709D01*
X120663000Y-80212002D01*
X120821748Y-80212002D01*
X120663000Y-80370750D01*
X120659928Y-80985000D01*
X120672188Y-81109482D01*
X120708498Y-81229180D01*
X120767463Y-81339494D01*
X120846815Y-81436185D01*
X120943506Y-81515537D01*
X121053820Y-81574502D01*
X121173518Y-81610812D01*
X121298000Y-81623072D01*
X121562250Y-81620000D01*
X121721000Y-81461250D01*
X121721000Y-80212000D01*
X121975000Y-80212000D01*
X121975000Y-81461250D01*
X122133750Y-81620000D01*
X122398000Y-81623072D01*
X122522482Y-81610812D01*
X122642180Y-81574502D01*
X122752494Y-81515537D01*
X122849185Y-81436185D01*
X122928537Y-81339494D01*
X122987502Y-81229180D01*
X123023812Y-81109482D01*
X123036072Y-80985000D01*
X123033000Y-80370750D01*
X122874250Y-80212000D01*
X121975000Y-80212000D01*
X121721000Y-80212000D01*
X121701000Y-80212000D01*
X121701000Y-79958000D01*
X121721000Y-79958000D01*
X121721000Y-79938000D01*
X121975000Y-79938000D01*
X121975000Y-79958000D01*
X122874250Y-79958000D01*
X123033000Y-79799250D01*
X123034418Y-79515682D01*
X123157800Y-79449733D01*
X123315399Y-79320395D01*
X123347810Y-79280902D01*
X124434641Y-78194072D01*
X124829000Y-78194072D01*
X124953482Y-78181812D01*
X125073180Y-78145502D01*
X125183494Y-78086537D01*
X125229000Y-78049191D01*
X125274506Y-78086537D01*
G37*
G04 #@! TD.AperFunction*
D33*
X122890010Y-95953411D02*
X123052525Y-96196632D01*
X123259368Y-96403475D01*
X123433760Y-96520000D01*
X123259368Y-96636525D01*
X123052525Y-96843368D01*
X122890010Y-97086589D01*
X122778068Y-97356842D01*
X122721000Y-97643740D01*
X122721000Y-97936260D01*
X122778068Y-98223158D01*
X122828536Y-98344999D01*
X119513497Y-98344999D01*
X119511500Y-98075750D01*
X119352750Y-97917000D01*
X118491000Y-97917000D01*
X118491000Y-97937000D01*
X118237000Y-97937000D01*
X118237000Y-97917000D01*
X118217000Y-97917000D01*
X118217000Y-97663000D01*
X118237000Y-97663000D01*
X118237000Y-97643000D01*
X118491000Y-97643000D01*
X118491000Y-97663000D01*
X119352750Y-97663000D01*
X119511500Y-97504250D01*
X119514572Y-97090000D01*
X119502312Y-96965518D01*
X119466002Y-96845820D01*
X119407037Y-96735506D01*
X119327685Y-96638815D01*
X119230994Y-96559463D01*
X119120680Y-96500498D01*
X119000982Y-96464188D01*
X118876500Y-96451928D01*
X118721525Y-96454028D01*
X118823256Y-96444008D01*
X118989852Y-96393472D01*
X119143387Y-96311405D01*
X119277962Y-96200962D01*
X119388405Y-96066387D01*
X119470472Y-95912852D01*
X119471944Y-95908000D01*
X122871200Y-95908000D01*
X122890010Y-95953411D01*
G04 #@! TA.AperFunction,Conductor*
D34*
G36*
X122890010Y-95953411D02*
G01*
X123052525Y-96196632D01*
X123259368Y-96403475D01*
X123433760Y-96520000D01*
X123259368Y-96636525D01*
X123052525Y-96843368D01*
X122890010Y-97086589D01*
X122778068Y-97356842D01*
X122721000Y-97643740D01*
X122721000Y-97936260D01*
X122778068Y-98223158D01*
X122828536Y-98344999D01*
X119513497Y-98344999D01*
X119511500Y-98075750D01*
X119352750Y-97917000D01*
X118491000Y-97917000D01*
X118491000Y-97937000D01*
X118237000Y-97937000D01*
X118237000Y-97917000D01*
X118217000Y-97917000D01*
X118217000Y-97663000D01*
X118237000Y-97663000D01*
X118237000Y-97643000D01*
X118491000Y-97643000D01*
X118491000Y-97663000D01*
X119352750Y-97663000D01*
X119511500Y-97504250D01*
X119514572Y-97090000D01*
X119502312Y-96965518D01*
X119466002Y-96845820D01*
X119407037Y-96735506D01*
X119327685Y-96638815D01*
X119230994Y-96559463D01*
X119120680Y-96500498D01*
X119000982Y-96464188D01*
X118876500Y-96451928D01*
X118721525Y-96454028D01*
X118823256Y-96444008D01*
X118989852Y-96393472D01*
X119143387Y-96311405D01*
X119277962Y-96200962D01*
X119388405Y-96066387D01*
X119470472Y-95912852D01*
X119471944Y-95908000D01*
X122871200Y-95908000D01*
X122890010Y-95953411D01*
G37*
G04 #@! TD.AperFunction*
D33*
X146080129Y-64385500D02*
X145831500Y-64634129D01*
X145636153Y-64926485D01*
X145501596Y-65251335D01*
X145433000Y-65596193D01*
X145433000Y-65947807D01*
X145501596Y-66292665D01*
X145636153Y-66617515D01*
X145831500Y-66909871D01*
X146080129Y-67158500D01*
X146372485Y-67353847D01*
X146697335Y-67488404D01*
X147042193Y-67557000D01*
X147393807Y-67557000D01*
X147738665Y-67488404D01*
X148063515Y-67353847D01*
X148355871Y-67158500D01*
X148604500Y-66909871D01*
X148799847Y-66617515D01*
X148934404Y-66292665D01*
X148954604Y-66191110D01*
X150831524Y-66191110D01*
X150952845Y-66421000D01*
X152146000Y-66421000D01*
X152146000Y-65227186D01*
X152400000Y-65227186D01*
X152400000Y-66421000D01*
X154686000Y-66421000D01*
X154686000Y-65227186D01*
X154940000Y-65227186D01*
X154940000Y-66421000D01*
X156133155Y-66421000D01*
X156254476Y-66191110D01*
X156209825Y-66043901D01*
X156084641Y-65781080D01*
X155910588Y-65547731D01*
X155694355Y-65352822D01*
X155444252Y-65203843D01*
X155169891Y-65106519D01*
X154940000Y-65227186D01*
X154686000Y-65227186D01*
X154456109Y-65106519D01*
X154181748Y-65203843D01*
X153931645Y-65352822D01*
X153715412Y-65547731D01*
X153543000Y-65778880D01*
X153370588Y-65547731D01*
X153154355Y-65352822D01*
X152904252Y-65203843D01*
X152629891Y-65106519D01*
X152400000Y-65227186D01*
X152146000Y-65227186D01*
X151916109Y-65106519D01*
X151641748Y-65203843D01*
X151391645Y-65352822D01*
X151175412Y-65547731D01*
X151001359Y-65781080D01*
X150876175Y-66043901D01*
X150831524Y-66191110D01*
X148954604Y-66191110D01*
X149003000Y-65947807D01*
X149003000Y-65596193D01*
X148934404Y-65251335D01*
X148799847Y-64926485D01*
X148604500Y-64634129D01*
X148355871Y-64385500D01*
X148208456Y-64287000D01*
X154780715Y-64287000D01*
X155325552Y-64340422D01*
X155818585Y-64489278D01*
X156273309Y-64731059D01*
X156672410Y-65056558D01*
X157000694Y-65453385D01*
X157245644Y-65906410D01*
X157397938Y-66398392D01*
X157455001Y-66941304D01*
X157455000Y-91976559D01*
X157453396Y-91974604D01*
X157413908Y-91942197D01*
X154674162Y-89202452D01*
X155224250Y-89200000D01*
X155383000Y-89041250D01*
X155383000Y-88392000D01*
X155637000Y-88392000D01*
X155637000Y-89041250D01*
X155795750Y-89200000D01*
X156485000Y-89203072D01*
X156609482Y-89190812D01*
X156729180Y-89154502D01*
X156839494Y-89095537D01*
X156936185Y-89016185D01*
X157015537Y-88919494D01*
X157074502Y-88809180D01*
X157110812Y-88689482D01*
X157123072Y-88565000D01*
X157120000Y-88550750D01*
X156961250Y-88392000D01*
X155637000Y-88392000D01*
X155383000Y-88392000D01*
X154058750Y-88392000D01*
X153961230Y-88489520D01*
X153040807Y-87569097D01*
X153008396Y-87529604D01*
X152850797Y-87400266D01*
X152670993Y-87304159D01*
X152640801Y-87295000D01*
X153896928Y-87295000D01*
X153909188Y-87419482D01*
X153945498Y-87539180D01*
X153994043Y-87630000D01*
X153945498Y-87720820D01*
X153909188Y-87840518D01*
X153896928Y-87965000D01*
X153900000Y-87979250D01*
X154058750Y-88138000D01*
X155383000Y-88138000D01*
X155383000Y-87122000D01*
X155637000Y-87122000D01*
X155637000Y-88138000D01*
X156961250Y-88138000D01*
X157120000Y-87979250D01*
X157123072Y-87965000D01*
X157110812Y-87840518D01*
X157074502Y-87720820D01*
X157025957Y-87630000D01*
X157074502Y-87539180D01*
X157110812Y-87419482D01*
X157123072Y-87295000D01*
X157120000Y-87280750D01*
X156961250Y-87122000D01*
X155637000Y-87122000D01*
X155383000Y-87122000D01*
X154058750Y-87122000D01*
X153900000Y-87280750D01*
X153896928Y-87295000D01*
X152640801Y-87295000D01*
X152475895Y-87244976D01*
X152323838Y-87230000D01*
X152323828Y-87230000D01*
X152273000Y-87224994D01*
X152222172Y-87230000D01*
X152119250Y-87230000D01*
X152011250Y-87122000D01*
X150687000Y-87122000D01*
X150687000Y-87142000D01*
X150433000Y-87142000D01*
X150433000Y-87122000D01*
X150413000Y-87122000D01*
X150413000Y-86868000D01*
X150433000Y-86868000D01*
X150433000Y-86848000D01*
X150687000Y-86848000D01*
X150687000Y-86868000D01*
X152011250Y-86868000D01*
X152170000Y-86709250D01*
X152173072Y-86695000D01*
X152160812Y-86570518D01*
X152124502Y-86450820D01*
X152065537Y-86340506D01*
X152041270Y-86310936D01*
X152113084Y-86176582D01*
X152157929Y-86028745D01*
X152158297Y-86025000D01*
X153896928Y-86025000D01*
X153909188Y-86149482D01*
X153945498Y-86269180D01*
X153994043Y-86360000D01*
X153945498Y-86450820D01*
X153909188Y-86570518D01*
X153896928Y-86695000D01*
X153900000Y-86709250D01*
X154058750Y-86868000D01*
X155383000Y-86868000D01*
X155383000Y-85852000D01*
X155637000Y-85852000D01*
X155637000Y-86868000D01*
X156961250Y-86868000D01*
X157120000Y-86709250D01*
X157123072Y-86695000D01*
X157110812Y-86570518D01*
X157074502Y-86450820D01*
X157025957Y-86360000D01*
X157074502Y-86269180D01*
X157110812Y-86149482D01*
X157123072Y-86025000D01*
X157120000Y-86010750D01*
X156961250Y-85852000D01*
X155637000Y-85852000D01*
X155383000Y-85852000D01*
X154058750Y-85852000D01*
X153900000Y-86010750D01*
X153896928Y-86025000D01*
X152158297Y-86025000D01*
X152173072Y-85875000D01*
X152173072Y-85575000D01*
X152157929Y-85421255D01*
X152113084Y-85273418D01*
X152040258Y-85137171D01*
X152001546Y-85090000D01*
X152040258Y-85042829D01*
X152113084Y-84906582D01*
X152157929Y-84758745D01*
X152158297Y-84755000D01*
X153896928Y-84755000D01*
X153909188Y-84879482D01*
X153945498Y-84999180D01*
X153994043Y-85090000D01*
X153945498Y-85180820D01*
X153909188Y-85300518D01*
X153896928Y-85425000D01*
X153900000Y-85439250D01*
X154058750Y-85598000D01*
X155383000Y-85598000D01*
X155383000Y-84582000D01*
X155637000Y-84582000D01*
X155637000Y-85598000D01*
X156961250Y-85598000D01*
X157120000Y-85439250D01*
X157123072Y-85425000D01*
X157110812Y-85300518D01*
X157074502Y-85180820D01*
X157025957Y-85090000D01*
X157074502Y-84999180D01*
X157110812Y-84879482D01*
X157123072Y-84755000D01*
X157120000Y-84740750D01*
X156961250Y-84582000D01*
X155637000Y-84582000D01*
X155383000Y-84582000D01*
X154058750Y-84582000D01*
X153900000Y-84740750D01*
X153896928Y-84755000D01*
X152158297Y-84755000D01*
X152173072Y-84605000D01*
X152173072Y-84305000D01*
X152158298Y-84155000D01*
X153896928Y-84155000D01*
X153900000Y-84169250D01*
X154058750Y-84328000D01*
X155383000Y-84328000D01*
X155383000Y-83678750D01*
X155637000Y-83678750D01*
X155637000Y-84328000D01*
X156961250Y-84328000D01*
X157120000Y-84169250D01*
X157123072Y-84155000D01*
X157110812Y-84030518D01*
X157074502Y-83910820D01*
X157015537Y-83800506D01*
X156936185Y-83703815D01*
X156839494Y-83624463D01*
X156729180Y-83565498D01*
X156609482Y-83529188D01*
X156485000Y-83516928D01*
X155795750Y-83520000D01*
X155637000Y-83678750D01*
X155383000Y-83678750D01*
X155224250Y-83520000D01*
X154535000Y-83516928D01*
X154410518Y-83529188D01*
X154290820Y-83565498D01*
X154180506Y-83624463D01*
X154083815Y-83703815D01*
X154004463Y-83800506D01*
X153945498Y-83910820D01*
X153909188Y-84030518D01*
X153896928Y-84155000D01*
X152158298Y-84155000D01*
X152157929Y-84151255D01*
X152113084Y-84003418D01*
X152040258Y-83867171D01*
X151942251Y-83747749D01*
X151822829Y-83649742D01*
X151686582Y-83576916D01*
X151538745Y-83532071D01*
X151385000Y-83516928D01*
X149735000Y-83516928D01*
X149581255Y-83532071D01*
X149433418Y-83576916D01*
X149297171Y-83649742D01*
X149272487Y-83670000D01*
X148740959Y-83670000D01*
X148659002Y-83661928D01*
X147758998Y-83661928D01*
X147585744Y-83678992D01*
X147419148Y-83729528D01*
X147265613Y-83811595D01*
X147131038Y-83922038D01*
X147044487Y-84027500D01*
X145853659Y-84027500D01*
X151742287Y-78138872D01*
X152578000Y-78138872D01*
X152578000Y-78579128D01*
X152663890Y-79010925D01*
X152832369Y-79417669D01*
X153076962Y-79783729D01*
X153388271Y-80095038D01*
X153754331Y-80339631D01*
X154161075Y-80508110D01*
X154592872Y-80594000D01*
X155033128Y-80594000D01*
X155464925Y-80508110D01*
X155871669Y-80339631D01*
X156237729Y-80095038D01*
X156549038Y-79783729D01*
X156793631Y-79417669D01*
X156962110Y-79010925D01*
X157048000Y-78579128D01*
X157048000Y-78138872D01*
X156962110Y-77707075D01*
X156793631Y-77300331D01*
X156549038Y-76934271D01*
X156237729Y-76622962D01*
X155871669Y-76378369D01*
X155464925Y-76209890D01*
X155033128Y-76124000D01*
X154592872Y-76124000D01*
X154161075Y-76209890D01*
X153754331Y-76378369D01*
X153388271Y-76622962D01*
X153076962Y-76934271D01*
X152832369Y-77300331D01*
X152663890Y-77707075D01*
X152578000Y-78138872D01*
X151742287Y-78138872D01*
X156540812Y-73340347D01*
X156570765Y-73315765D01*
X156668863Y-73196234D01*
X156741755Y-73059861D01*
X156746947Y-73042744D01*
X156786643Y-72911888D01*
X156796084Y-72816025D01*
X156798001Y-72796562D01*
X156798001Y-72796557D01*
X156801798Y-72758001D01*
X156798001Y-72719445D01*
X156798001Y-70326557D01*
X156801798Y-70288001D01*
X156798001Y-70249445D01*
X156798001Y-70249440D01*
X156791999Y-70188498D01*
X156786643Y-70134114D01*
X156741755Y-69986141D01*
X156735459Y-69974362D01*
X156668863Y-69849768D01*
X156570765Y-69730237D01*
X156540811Y-69705654D01*
X156260075Y-69424918D01*
X156298000Y-69234260D01*
X156298000Y-68941740D01*
X156240932Y-68654842D01*
X156128990Y-68384589D01*
X155966475Y-68141368D01*
X155759632Y-67934525D01*
X155577466Y-67812805D01*
X155694355Y-67743178D01*
X155910588Y-67548269D01*
X156084641Y-67314920D01*
X156209825Y-67052099D01*
X156254476Y-66904890D01*
X156133155Y-66675000D01*
X154940000Y-66675000D01*
X154940000Y-66695000D01*
X154686000Y-66695000D01*
X154686000Y-66675000D01*
X152400000Y-66675000D01*
X152400000Y-66695000D01*
X152146000Y-66695000D01*
X152146000Y-66675000D01*
X150952845Y-66675000D01*
X150831524Y-66904890D01*
X150876175Y-67052099D01*
X151001359Y-67314920D01*
X151175412Y-67548269D01*
X151391645Y-67743178D01*
X151508534Y-67812805D01*
X151326368Y-67934525D01*
X151119525Y-68141368D01*
X150957010Y-68384589D01*
X150895329Y-68533500D01*
X149627513Y-68533500D01*
X149540962Y-68428038D01*
X149406387Y-68317595D01*
X149252852Y-68235528D01*
X149086256Y-68184992D01*
X148913002Y-68167928D01*
X148012998Y-68167928D01*
X147839744Y-68184992D01*
X147673148Y-68235528D01*
X147519613Y-68317595D01*
X147385038Y-68428038D01*
X147277970Y-68558500D01*
X144134328Y-68558500D01*
X144133000Y-68357750D01*
X143974250Y-68199000D01*
X142875000Y-68199000D01*
X142875000Y-68219000D01*
X142621000Y-68219000D01*
X142621000Y-68199000D01*
X142601000Y-68199000D01*
X142601000Y-67945000D01*
X142621000Y-67945000D01*
X142621000Y-66845750D01*
X142875000Y-66845750D01*
X142875000Y-67945000D01*
X143974250Y-67945000D01*
X144133000Y-67786250D01*
X144136072Y-67322000D01*
X144123812Y-67197518D01*
X144087502Y-67077820D01*
X144028537Y-66967506D01*
X143949185Y-66870815D01*
X143852494Y-66791463D01*
X143742180Y-66732498D01*
X143622482Y-66696188D01*
X143498000Y-66683928D01*
X143033750Y-66687000D01*
X142875000Y-66845750D01*
X142621000Y-66845750D01*
X142462250Y-66687000D01*
X141998000Y-66683928D01*
X141873518Y-66696188D01*
X141753820Y-66732498D01*
X141643506Y-66791463D01*
X141546815Y-66870815D01*
X141495965Y-66932776D01*
X141364043Y-66844629D01*
X141111989Y-66740225D01*
X140844411Y-66687000D01*
X140571589Y-66687000D01*
X140304011Y-66740225D01*
X140051957Y-66844629D01*
X139825114Y-66996201D01*
X139632201Y-67189114D01*
X139480629Y-67415957D01*
X139376225Y-67668011D01*
X139323000Y-67935589D01*
X139323000Y-68208411D01*
X139376225Y-68475989D01*
X139480629Y-68728043D01*
X139598287Y-68904130D01*
X137603347Y-66909190D01*
X137578764Y-66879236D01*
X137459233Y-66781138D01*
X137322860Y-66708246D01*
X137174887Y-66663359D01*
X137059561Y-66652000D01*
X137059553Y-66652000D01*
X137021000Y-66648203D01*
X136982447Y-66652000D01*
X136776805Y-66652000D01*
X136799847Y-66617515D01*
X136934404Y-66292665D01*
X137003000Y-65947807D01*
X137003000Y-65596193D01*
X136934404Y-65251335D01*
X136799847Y-64926485D01*
X136604500Y-64634129D01*
X136355871Y-64385500D01*
X136208456Y-64287000D01*
X146227544Y-64287000D01*
X146080129Y-64385500D01*
G04 #@! TA.AperFunction,Conductor*
D34*
G36*
X146080129Y-64385500D02*
G01*
X145831500Y-64634129D01*
X145636153Y-64926485D01*
X145501596Y-65251335D01*
X145433000Y-65596193D01*
X145433000Y-65947807D01*
X145501596Y-66292665D01*
X145636153Y-66617515D01*
X145831500Y-66909871D01*
X146080129Y-67158500D01*
X146372485Y-67353847D01*
X146697335Y-67488404D01*
X147042193Y-67557000D01*
X147393807Y-67557000D01*
X147738665Y-67488404D01*
X148063515Y-67353847D01*
X148355871Y-67158500D01*
X148604500Y-66909871D01*
X148799847Y-66617515D01*
X148934404Y-66292665D01*
X148954604Y-66191110D01*
X150831524Y-66191110D01*
X150952845Y-66421000D01*
X152146000Y-66421000D01*
X152146000Y-65227186D01*
X152400000Y-65227186D01*
X152400000Y-66421000D01*
X154686000Y-66421000D01*
X154686000Y-65227186D01*
X154940000Y-65227186D01*
X154940000Y-66421000D01*
X156133155Y-66421000D01*
X156254476Y-66191110D01*
X156209825Y-66043901D01*
X156084641Y-65781080D01*
X155910588Y-65547731D01*
X155694355Y-65352822D01*
X155444252Y-65203843D01*
X155169891Y-65106519D01*
X154940000Y-65227186D01*
X154686000Y-65227186D01*
X154456109Y-65106519D01*
X154181748Y-65203843D01*
X153931645Y-65352822D01*
X153715412Y-65547731D01*
X153543000Y-65778880D01*
X153370588Y-65547731D01*
X153154355Y-65352822D01*
X152904252Y-65203843D01*
X152629891Y-65106519D01*
X152400000Y-65227186D01*
X152146000Y-65227186D01*
X151916109Y-65106519D01*
X151641748Y-65203843D01*
X151391645Y-65352822D01*
X151175412Y-65547731D01*
X151001359Y-65781080D01*
X150876175Y-66043901D01*
X150831524Y-66191110D01*
X148954604Y-66191110D01*
X149003000Y-65947807D01*
X149003000Y-65596193D01*
X148934404Y-65251335D01*
X148799847Y-64926485D01*
X148604500Y-64634129D01*
X148355871Y-64385500D01*
X148208456Y-64287000D01*
X154780715Y-64287000D01*
X155325552Y-64340422D01*
X155818585Y-64489278D01*
X156273309Y-64731059D01*
X156672410Y-65056558D01*
X157000694Y-65453385D01*
X157245644Y-65906410D01*
X157397938Y-66398392D01*
X157455001Y-66941304D01*
X157455000Y-91976559D01*
X157453396Y-91974604D01*
X157413908Y-91942197D01*
X154674162Y-89202452D01*
X155224250Y-89200000D01*
X155383000Y-89041250D01*
X155383000Y-88392000D01*
X155637000Y-88392000D01*
X155637000Y-89041250D01*
X155795750Y-89200000D01*
X156485000Y-89203072D01*
X156609482Y-89190812D01*
X156729180Y-89154502D01*
X156839494Y-89095537D01*
X156936185Y-89016185D01*
X157015537Y-88919494D01*
X157074502Y-88809180D01*
X157110812Y-88689482D01*
X157123072Y-88565000D01*
X157120000Y-88550750D01*
X156961250Y-88392000D01*
X155637000Y-88392000D01*
X155383000Y-88392000D01*
X154058750Y-88392000D01*
X153961230Y-88489520D01*
X153040807Y-87569097D01*
X153008396Y-87529604D01*
X152850797Y-87400266D01*
X152670993Y-87304159D01*
X152640801Y-87295000D01*
X153896928Y-87295000D01*
X153909188Y-87419482D01*
X153945498Y-87539180D01*
X153994043Y-87630000D01*
X153945498Y-87720820D01*
X153909188Y-87840518D01*
X153896928Y-87965000D01*
X153900000Y-87979250D01*
X154058750Y-88138000D01*
X155383000Y-88138000D01*
X155383000Y-87122000D01*
X155637000Y-87122000D01*
X155637000Y-88138000D01*
X156961250Y-88138000D01*
X157120000Y-87979250D01*
X157123072Y-87965000D01*
X157110812Y-87840518D01*
X157074502Y-87720820D01*
X157025957Y-87630000D01*
X157074502Y-87539180D01*
X157110812Y-87419482D01*
X157123072Y-87295000D01*
X157120000Y-87280750D01*
X156961250Y-87122000D01*
X155637000Y-87122000D01*
X155383000Y-87122000D01*
X154058750Y-87122000D01*
X153900000Y-87280750D01*
X153896928Y-87295000D01*
X152640801Y-87295000D01*
X152475895Y-87244976D01*
X152323838Y-87230000D01*
X152323828Y-87230000D01*
X152273000Y-87224994D01*
X152222172Y-87230000D01*
X152119250Y-87230000D01*
X152011250Y-87122000D01*
X150687000Y-87122000D01*
X150687000Y-87142000D01*
X150433000Y-87142000D01*
X150433000Y-87122000D01*
X150413000Y-87122000D01*
X150413000Y-86868000D01*
X150433000Y-86868000D01*
X150433000Y-86848000D01*
X150687000Y-86848000D01*
X150687000Y-86868000D01*
X152011250Y-86868000D01*
X152170000Y-86709250D01*
X152173072Y-86695000D01*
X152160812Y-86570518D01*
X152124502Y-86450820D01*
X152065537Y-86340506D01*
X152041270Y-86310936D01*
X152113084Y-86176582D01*
X152157929Y-86028745D01*
X152158297Y-86025000D01*
X153896928Y-86025000D01*
X153909188Y-86149482D01*
X153945498Y-86269180D01*
X153994043Y-86360000D01*
X153945498Y-86450820D01*
X153909188Y-86570518D01*
X153896928Y-86695000D01*
X153900000Y-86709250D01*
X154058750Y-86868000D01*
X155383000Y-86868000D01*
X155383000Y-85852000D01*
X155637000Y-85852000D01*
X155637000Y-86868000D01*
X156961250Y-86868000D01*
X157120000Y-86709250D01*
X157123072Y-86695000D01*
X157110812Y-86570518D01*
X157074502Y-86450820D01*
X157025957Y-86360000D01*
X157074502Y-86269180D01*
X157110812Y-86149482D01*
X157123072Y-86025000D01*
X157120000Y-86010750D01*
X156961250Y-85852000D01*
X155637000Y-85852000D01*
X155383000Y-85852000D01*
X154058750Y-85852000D01*
X153900000Y-86010750D01*
X153896928Y-86025000D01*
X152158297Y-86025000D01*
X152173072Y-85875000D01*
X152173072Y-85575000D01*
X152157929Y-85421255D01*
X152113084Y-85273418D01*
X152040258Y-85137171D01*
X152001546Y-85090000D01*
X152040258Y-85042829D01*
X152113084Y-84906582D01*
X152157929Y-84758745D01*
X152158297Y-84755000D01*
X153896928Y-84755000D01*
X153909188Y-84879482D01*
X153945498Y-84999180D01*
X153994043Y-85090000D01*
X153945498Y-85180820D01*
X153909188Y-85300518D01*
X153896928Y-85425000D01*
X153900000Y-85439250D01*
X154058750Y-85598000D01*
X155383000Y-85598000D01*
X155383000Y-84582000D01*
X155637000Y-84582000D01*
X155637000Y-85598000D01*
X156961250Y-85598000D01*
X157120000Y-85439250D01*
X157123072Y-85425000D01*
X157110812Y-85300518D01*
X157074502Y-85180820D01*
X157025957Y-85090000D01*
X157074502Y-84999180D01*
X157110812Y-84879482D01*
X157123072Y-84755000D01*
X157120000Y-84740750D01*
X156961250Y-84582000D01*
X155637000Y-84582000D01*
X155383000Y-84582000D01*
X154058750Y-84582000D01*
X153900000Y-84740750D01*
X153896928Y-84755000D01*
X152158297Y-84755000D01*
X152173072Y-84605000D01*
X152173072Y-84305000D01*
X152158298Y-84155000D01*
X153896928Y-84155000D01*
X153900000Y-84169250D01*
X154058750Y-84328000D01*
X155383000Y-84328000D01*
X155383000Y-83678750D01*
X155637000Y-83678750D01*
X155637000Y-84328000D01*
X156961250Y-84328000D01*
X157120000Y-84169250D01*
X157123072Y-84155000D01*
X157110812Y-84030518D01*
X157074502Y-83910820D01*
X157015537Y-83800506D01*
X156936185Y-83703815D01*
X156839494Y-83624463D01*
X156729180Y-83565498D01*
X156609482Y-83529188D01*
X156485000Y-83516928D01*
X155795750Y-83520000D01*
X155637000Y-83678750D01*
X155383000Y-83678750D01*
X155224250Y-83520000D01*
X154535000Y-83516928D01*
X154410518Y-83529188D01*
X154290820Y-83565498D01*
X154180506Y-83624463D01*
X154083815Y-83703815D01*
X154004463Y-83800506D01*
X153945498Y-83910820D01*
X153909188Y-84030518D01*
X153896928Y-84155000D01*
X152158298Y-84155000D01*
X152157929Y-84151255D01*
X152113084Y-84003418D01*
X152040258Y-83867171D01*
X151942251Y-83747749D01*
X151822829Y-83649742D01*
X151686582Y-83576916D01*
X151538745Y-83532071D01*
X151385000Y-83516928D01*
X149735000Y-83516928D01*
X149581255Y-83532071D01*
X149433418Y-83576916D01*
X149297171Y-83649742D01*
X149272487Y-83670000D01*
X148740959Y-83670000D01*
X148659002Y-83661928D01*
X147758998Y-83661928D01*
X147585744Y-83678992D01*
X147419148Y-83729528D01*
X147265613Y-83811595D01*
X147131038Y-83922038D01*
X147044487Y-84027500D01*
X145853659Y-84027500D01*
X151742287Y-78138872D01*
X152578000Y-78138872D01*
X152578000Y-78579128D01*
X152663890Y-79010925D01*
X152832369Y-79417669D01*
X153076962Y-79783729D01*
X153388271Y-80095038D01*
X153754331Y-80339631D01*
X154161075Y-80508110D01*
X154592872Y-80594000D01*
X155033128Y-80594000D01*
X155464925Y-80508110D01*
X155871669Y-80339631D01*
X156237729Y-80095038D01*
X156549038Y-79783729D01*
X156793631Y-79417669D01*
X156962110Y-79010925D01*
X157048000Y-78579128D01*
X157048000Y-78138872D01*
X156962110Y-77707075D01*
X156793631Y-77300331D01*
X156549038Y-76934271D01*
X156237729Y-76622962D01*
X155871669Y-76378369D01*
X155464925Y-76209890D01*
X155033128Y-76124000D01*
X154592872Y-76124000D01*
X154161075Y-76209890D01*
X153754331Y-76378369D01*
X153388271Y-76622962D01*
X153076962Y-76934271D01*
X152832369Y-77300331D01*
X152663890Y-77707075D01*
X152578000Y-78138872D01*
X151742287Y-78138872D01*
X156540812Y-73340347D01*
X156570765Y-73315765D01*
X156668863Y-73196234D01*
X156741755Y-73059861D01*
X156746947Y-73042744D01*
X156786643Y-72911888D01*
X156796084Y-72816025D01*
X156798001Y-72796562D01*
X156798001Y-72796557D01*
X156801798Y-72758001D01*
X156798001Y-72719445D01*
X156798001Y-70326557D01*
X156801798Y-70288001D01*
X156798001Y-70249445D01*
X156798001Y-70249440D01*
X156791999Y-70188498D01*
X156786643Y-70134114D01*
X156741755Y-69986141D01*
X156735459Y-69974362D01*
X156668863Y-69849768D01*
X156570765Y-69730237D01*
X156540811Y-69705654D01*
X156260075Y-69424918D01*
X156298000Y-69234260D01*
X156298000Y-68941740D01*
X156240932Y-68654842D01*
X156128990Y-68384589D01*
X155966475Y-68141368D01*
X155759632Y-67934525D01*
X155577466Y-67812805D01*
X155694355Y-67743178D01*
X155910588Y-67548269D01*
X156084641Y-67314920D01*
X156209825Y-67052099D01*
X156254476Y-66904890D01*
X156133155Y-66675000D01*
X154940000Y-66675000D01*
X154940000Y-66695000D01*
X154686000Y-66695000D01*
X154686000Y-66675000D01*
X152400000Y-66675000D01*
X152400000Y-66695000D01*
X152146000Y-66695000D01*
X152146000Y-66675000D01*
X150952845Y-66675000D01*
X150831524Y-66904890D01*
X150876175Y-67052099D01*
X151001359Y-67314920D01*
X151175412Y-67548269D01*
X151391645Y-67743178D01*
X151508534Y-67812805D01*
X151326368Y-67934525D01*
X151119525Y-68141368D01*
X150957010Y-68384589D01*
X150895329Y-68533500D01*
X149627513Y-68533500D01*
X149540962Y-68428038D01*
X149406387Y-68317595D01*
X149252852Y-68235528D01*
X149086256Y-68184992D01*
X148913002Y-68167928D01*
X148012998Y-68167928D01*
X147839744Y-68184992D01*
X147673148Y-68235528D01*
X147519613Y-68317595D01*
X147385038Y-68428038D01*
X147277970Y-68558500D01*
X144134328Y-68558500D01*
X144133000Y-68357750D01*
X143974250Y-68199000D01*
X142875000Y-68199000D01*
X142875000Y-68219000D01*
X142621000Y-68219000D01*
X142621000Y-68199000D01*
X142601000Y-68199000D01*
X142601000Y-67945000D01*
X142621000Y-67945000D01*
X142621000Y-66845750D01*
X142875000Y-66845750D01*
X142875000Y-67945000D01*
X143974250Y-67945000D01*
X144133000Y-67786250D01*
X144136072Y-67322000D01*
X144123812Y-67197518D01*
X144087502Y-67077820D01*
X144028537Y-66967506D01*
X143949185Y-66870815D01*
X143852494Y-66791463D01*
X143742180Y-66732498D01*
X143622482Y-66696188D01*
X143498000Y-66683928D01*
X143033750Y-66687000D01*
X142875000Y-66845750D01*
X142621000Y-66845750D01*
X142462250Y-66687000D01*
X141998000Y-66683928D01*
X141873518Y-66696188D01*
X141753820Y-66732498D01*
X141643506Y-66791463D01*
X141546815Y-66870815D01*
X141495965Y-66932776D01*
X141364043Y-66844629D01*
X141111989Y-66740225D01*
X140844411Y-66687000D01*
X140571589Y-66687000D01*
X140304011Y-66740225D01*
X140051957Y-66844629D01*
X139825114Y-66996201D01*
X139632201Y-67189114D01*
X139480629Y-67415957D01*
X139376225Y-67668011D01*
X139323000Y-67935589D01*
X139323000Y-68208411D01*
X139376225Y-68475989D01*
X139480629Y-68728043D01*
X139598287Y-68904130D01*
X137603347Y-66909190D01*
X137578764Y-66879236D01*
X137459233Y-66781138D01*
X137322860Y-66708246D01*
X137174887Y-66663359D01*
X137059561Y-66652000D01*
X137059553Y-66652000D01*
X137021000Y-66648203D01*
X136982447Y-66652000D01*
X136776805Y-66652000D01*
X136799847Y-66617515D01*
X136934404Y-66292665D01*
X137003000Y-65947807D01*
X137003000Y-65596193D01*
X136934404Y-65251335D01*
X136799847Y-64926485D01*
X136604500Y-64634129D01*
X136355871Y-64385500D01*
X136208456Y-64287000D01*
X146227544Y-64287000D01*
X146080129Y-64385500D01*
G37*
G04 #@! TD.AperFunction*
D33*
X145068498Y-75820180D02*
X145127463Y-75930494D01*
X145206815Y-76027185D01*
X145303506Y-76106537D01*
X145413820Y-76165502D01*
X145533518Y-76201812D01*
X145658000Y-76214072D01*
X147288047Y-76214072D01*
X147319528Y-76317852D01*
X147401595Y-76471387D01*
X147512038Y-76605962D01*
X147646613Y-76716405D01*
X147800148Y-76798472D01*
X147805001Y-76799944D01*
X147805000Y-79148724D01*
X147093725Y-79860000D01*
X144011328Y-79860000D01*
X144037000Y-79730939D01*
X144037000Y-79527061D01*
X143997226Y-79327102D01*
X143919205Y-79138744D01*
X143805937Y-78969226D01*
X143661774Y-78825063D01*
X143492256Y-78711795D01*
X143303898Y-78633774D01*
X143103939Y-78594000D01*
X142900061Y-78594000D01*
X142700102Y-78633774D01*
X142511744Y-78711795D01*
X142342226Y-78825063D01*
X142299545Y-78867744D01*
X141691864Y-78260062D01*
X141700250Y-78260000D01*
X141859000Y-78101250D01*
X141859000Y-77239500D01*
X142113000Y-77239500D01*
X142113000Y-78101250D01*
X142271750Y-78260000D01*
X142686000Y-78263072D01*
X142810482Y-78250812D01*
X142930180Y-78214502D01*
X143040494Y-78155537D01*
X143137185Y-78076185D01*
X143216537Y-77979494D01*
X143275502Y-77869180D01*
X143311812Y-77749482D01*
X143324072Y-77625000D01*
X143321000Y-77398250D01*
X143162250Y-77239500D01*
X142113000Y-77239500D01*
X141859000Y-77239500D01*
X140809750Y-77239500D01*
X140740526Y-77308724D01*
X139772873Y-76341072D01*
X140600000Y-76341072D01*
X140710181Y-76330220D01*
X140696498Y-76355820D01*
X140660188Y-76475518D01*
X140647928Y-76600000D01*
X140651000Y-76826750D01*
X140809750Y-76985500D01*
X141859000Y-76985500D01*
X141859000Y-76965500D01*
X142113000Y-76965500D01*
X142113000Y-76985500D01*
X143162250Y-76985500D01*
X143321000Y-76826750D01*
X143324072Y-76600000D01*
X143311812Y-76475518D01*
X143275502Y-76355820D01*
X143216537Y-76245506D01*
X143137185Y-76148815D01*
X143107724Y-76124637D01*
X143174405Y-76043387D01*
X143207855Y-75980807D01*
X143290905Y-76036299D01*
X143570257Y-76152011D01*
X143866816Y-76211000D01*
X144169184Y-76211000D01*
X144465743Y-76152011D01*
X144745095Y-76036299D01*
X144996505Y-75868312D01*
X145062944Y-75801873D01*
X145068498Y-75820180D01*
G04 #@! TA.AperFunction,Conductor*
D34*
G36*
X145068498Y-75820180D02*
G01*
X145127463Y-75930494D01*
X145206815Y-76027185D01*
X145303506Y-76106537D01*
X145413820Y-76165502D01*
X145533518Y-76201812D01*
X145658000Y-76214072D01*
X147288047Y-76214072D01*
X147319528Y-76317852D01*
X147401595Y-76471387D01*
X147512038Y-76605962D01*
X147646613Y-76716405D01*
X147800148Y-76798472D01*
X147805001Y-76799944D01*
X147805000Y-79148724D01*
X147093725Y-79860000D01*
X144011328Y-79860000D01*
X144037000Y-79730939D01*
X144037000Y-79527061D01*
X143997226Y-79327102D01*
X143919205Y-79138744D01*
X143805937Y-78969226D01*
X143661774Y-78825063D01*
X143492256Y-78711795D01*
X143303898Y-78633774D01*
X143103939Y-78594000D01*
X142900061Y-78594000D01*
X142700102Y-78633774D01*
X142511744Y-78711795D01*
X142342226Y-78825063D01*
X142299545Y-78867744D01*
X141691864Y-78260062D01*
X141700250Y-78260000D01*
X141859000Y-78101250D01*
X141859000Y-77239500D01*
X142113000Y-77239500D01*
X142113000Y-78101250D01*
X142271750Y-78260000D01*
X142686000Y-78263072D01*
X142810482Y-78250812D01*
X142930180Y-78214502D01*
X143040494Y-78155537D01*
X143137185Y-78076185D01*
X143216537Y-77979494D01*
X143275502Y-77869180D01*
X143311812Y-77749482D01*
X143324072Y-77625000D01*
X143321000Y-77398250D01*
X143162250Y-77239500D01*
X142113000Y-77239500D01*
X141859000Y-77239500D01*
X140809750Y-77239500D01*
X140740526Y-77308724D01*
X139772873Y-76341072D01*
X140600000Y-76341072D01*
X140710181Y-76330220D01*
X140696498Y-76355820D01*
X140660188Y-76475518D01*
X140647928Y-76600000D01*
X140651000Y-76826750D01*
X140809750Y-76985500D01*
X141859000Y-76985500D01*
X141859000Y-76965500D01*
X142113000Y-76965500D01*
X142113000Y-76985500D01*
X143162250Y-76985500D01*
X143321000Y-76826750D01*
X143324072Y-76600000D01*
X143311812Y-76475518D01*
X143275502Y-76355820D01*
X143216537Y-76245506D01*
X143137185Y-76148815D01*
X143107724Y-76124637D01*
X143174405Y-76043387D01*
X143207855Y-75980807D01*
X143290905Y-76036299D01*
X143570257Y-76152011D01*
X143866816Y-76211000D01*
X144169184Y-76211000D01*
X144465743Y-76152011D01*
X144745095Y-76036299D01*
X144996505Y-75868312D01*
X145062944Y-75801873D01*
X145068498Y-75820180D01*
G37*
G04 #@! TD.AperFunction*
D33*
X132934498Y-68282820D02*
X132898188Y-68402518D01*
X132885928Y-68527000D01*
X132889000Y-68691250D01*
X133047750Y-68850000D01*
X133797000Y-68850000D01*
X133797000Y-68830000D01*
X134051000Y-68830000D01*
X134051000Y-68850000D01*
X134071000Y-68850000D01*
X134071000Y-69104000D01*
X134051000Y-69104000D01*
X134051000Y-69124000D01*
X133797000Y-69124000D01*
X133797000Y-69104000D01*
X133047750Y-69104000D01*
X132889000Y-69262750D01*
X132888411Y-69294253D01*
X132003847Y-68409690D01*
X131979264Y-68379736D01*
X131859733Y-68281638D01*
X131748157Y-68222000D01*
X132967007Y-68222000D01*
X132934498Y-68282820D01*
G04 #@! TA.AperFunction,Conductor*
D34*
G36*
X132934498Y-68282820D02*
G01*
X132898188Y-68402518D01*
X132885928Y-68527000D01*
X132889000Y-68691250D01*
X133047750Y-68850000D01*
X133797000Y-68850000D01*
X133797000Y-68830000D01*
X134051000Y-68830000D01*
X134051000Y-68850000D01*
X134071000Y-68850000D01*
X134071000Y-69104000D01*
X134051000Y-69104000D01*
X134051000Y-69124000D01*
X133797000Y-69124000D01*
X133797000Y-69104000D01*
X133047750Y-69104000D01*
X132889000Y-69262750D01*
X132888411Y-69294253D01*
X132003847Y-68409690D01*
X131979264Y-68379736D01*
X131859733Y-68281638D01*
X131748157Y-68222000D01*
X132967007Y-68222000D01*
X132934498Y-68282820D01*
G37*
G04 #@! TD.AperFunction*
M02*
