%TF.GenerationSoftware,KiCad,Pcbnew,(5.1.7)-1*%
%TF.CreationDate,2021-02-24T18:28:04+01:00*%
%TF.ProjectId,Temperature-controller-with-ESP8266,54656d70-6572-4617-9475-72652d636f6e,rev?*%
%TF.SameCoordinates,Original*%
%TF.FileFunction,Soldermask,Bot*%
%TF.FilePolarity,Negative*%
%FSLAX46Y46*%
G04 Gerber Fmt 4.6, Leading zero omitted, Abs format (unit mm)*
G04 Created by KiCad (PCBNEW (5.1.7)-1) date 2021-02-24 18:28:04*
%MOMM*%
%LPD*%
G01*
G04 APERTURE LIST*
%ADD10C,2.300000*%
%ADD11R,1.500000X1.500000*%
%ADD12C,1.500000*%
%ADD13O,1.700000X1.700000*%
%ADD14R,1.700000X1.700000*%
%ADD15C,1.000000*%
%ADD16C,1.800000*%
%ADD17R,1.800000X1.800000*%
%ADD18O,2.200000X3.500000*%
%ADD19O,1.500000X2.500000*%
%ADD20R,1.500000X2.500000*%
%ADD21C,3.200000*%
G04 APERTURE END LIST*
D10*
%TO.C,J5*%
X145567000Y-62216000D03*
D11*
X141097000Y-64516000D03*
D12*
X140077000Y-67056000D03*
X139057000Y-64516000D03*
D10*
X133567000Y-62216000D03*
D12*
X138037000Y-67056000D03*
%TD*%
D13*
%TO.C,J2*%
X131699000Y-80645000D03*
X134239000Y-80645000D03*
X136779000Y-80645000D03*
D14*
X139319000Y-80645000D03*
%TD*%
D15*
%TO.C,J1*%
X128692000Y-116845000D03*
X124292000Y-116845000D03*
%TD*%
D16*
%TO.C,D1*%
X134874000Y-73406000D03*
D17*
X134874000Y-75946000D03*
%TD*%
D16*
%TO.C,D2*%
X146558000Y-73533000D03*
D17*
X146558000Y-76073000D03*
%TD*%
D18*
%TO.C,SW2*%
X116201000Y-61722000D03*
X124401000Y-61722000D03*
D19*
X118301000Y-61722000D03*
X120301000Y-61722000D03*
D20*
X122301000Y-61722000D03*
%TD*%
D21*
%TO.C,H1*%
X115824000Y-78359000D03*
%TD*%
%TO.C,H2*%
X115824000Y-119888000D03*
%TD*%
%TO.C,H3*%
X154813000Y-78359000D03*
%TD*%
%TO.C,H4*%
X154813000Y-119888000D03*
%TD*%
D14*
%TO.C,J9*%
X124206000Y-107950000D03*
D13*
X124206000Y-105410000D03*
X124206000Y-102870000D03*
X124206000Y-100330000D03*
X124206000Y-97790000D03*
X124206000Y-95250000D03*
X124206000Y-92710000D03*
X124206000Y-90170000D03*
%TD*%
%TO.C,J10*%
X147066000Y-90170000D03*
X147066000Y-92710000D03*
X147066000Y-95250000D03*
X147066000Y-97790000D03*
X147066000Y-100330000D03*
X147066000Y-102870000D03*
X147066000Y-105410000D03*
D14*
X147066000Y-107950000D03*
%TD*%
D13*
%TO.C,J4*%
X153289000Y-63627000D03*
X153289000Y-66167000D03*
D14*
X153289000Y-68707000D03*
%TD*%
%TO.C,J6*%
X150749000Y-68707000D03*
D13*
X150749000Y-66167000D03*
X150749000Y-63627000D03*
%TD*%
M02*
