M48
; DRILL file {KiCad (5.1.7)-1} date 03/31/21 14:00:48
; FORMAT={-:-/ absolute / inch / decimal}
; #@! TF.CreationDate,2021-03-31T14:00:48+02:00
; #@! TF.GenerationSoftware,Kicad,Pcbnew,(5.1.7)-1
; #@! TF.FileFunction,Plated,1,2,PTH
FMAT,2
INCH
T1C0.0157
T2C0.0354
T3C0.0394
T4C0.0591
%
G90
G05
T1
X4.735Y-4.325
X4.75Y-4.25
X4.78Y-4.135
X5.02Y-4.29
X5.025Y-2.575
X5.06Y-2.575
X5.08Y-2.895
X5.165Y-2.575
X5.175Y-4.405
X5.2Y-2.575
X5.205Y-3.67
X5.215Y-2.695
X5.25Y-4.405
X5.38Y-4.55
X5.435Y-3.61
X5.495Y-4.01
X5.59Y-4.545
X5.61Y-4.235
X5.61Y-4.27
X5.63Y-3.135
X5.63Y-4.585
X5.645Y-4.235
X5.645Y-4.27
X5.695Y-3.135
X5.895Y-4.655
X5.91Y-4.425
X5.91Y-4.46
X5.935Y-3.9
X5.95Y-3.76
X5.975Y-4.425
T2
X5.4995Y-2.78
X5.5397Y-2.68
X5.5798Y-2.78
X5.62Y-2.68
X5.135Y-2.94
X5.235Y-2.94
X5.4Y-2.945
X5.5Y-2.945
X4.6213Y-2.595
X4.7Y-2.595
X4.7787Y-2.595
X5.67Y-2.94
X5.77Y-2.94
T3
X4.89Y-3.55
X4.89Y-3.65
X4.89Y-3.75
X4.89Y-3.85
X4.89Y-3.95
X4.89Y-4.05
X4.89Y-4.15
X4.89Y-4.25
X6.095Y-2.62
X6.095Y-2.72
X6.095Y-2.82
X5.79Y-3.55
X5.79Y-3.65
X5.79Y-3.75
X5.79Y-3.85
X5.79Y-3.95
X5.79Y-4.05
X5.79Y-4.15
X5.79Y-4.25
X5.185Y-3.175
X5.285Y-3.175
X5.385Y-3.175
X5.485Y-3.175
X5.995Y-2.62
X5.995Y-2.72
X5.995Y-2.82
T4
X4.5386Y-2.595
X4.8614Y-2.595
T0
M30
