G04 #@! TF.GenerationSoftware,KiCad,Pcbnew,(5.1.7)-1*
G04 #@! TF.CreationDate,2021-03-31T14:02:48+02:00*
G04 #@! TF.ProjectId,Temperature-controller-with-ESP8266,54656d70-6572-4617-9475-72652d636f6e,rev?*
G04 #@! TF.SameCoordinates,Original*
G04 #@! TF.FileFunction,Soldermask,Bot*
G04 #@! TF.FilePolarity,Negative*
%FSLAX46Y46*%
G04 Gerber Fmt 4.6, Leading zero omitted, Abs format (unit mm)*
G04 Created by KiCad (PCBNEW (5.1.7)-1) date 2021-03-31 14:02:48*
%MOMM*%
%LPD*%
G01*
G04 APERTURE LIST*
%ADD10C,1.000000*%
%ADD11O,1.700000X1.700000*%
%ADD12R,1.700000X1.700000*%
%ADD13C,2.300000*%
%ADD14R,1.500000X1.500000*%
%ADD15C,1.500000*%
%ADD16C,1.800000*%
%ADD17R,1.800000X1.800000*%
%ADD18O,2.200000X3.500000*%
%ADD19O,1.500000X2.500000*%
%ADD20R,1.500000X2.500000*%
%ADD21C,3.200000*%
G04 APERTURE END LIST*
D10*
X128692000Y-116845000D03*
X124292000Y-116845000D03*
D11*
X147066000Y-90170000D03*
X147066000Y-92710000D03*
X147066000Y-95250000D03*
X147066000Y-97790000D03*
X147066000Y-100330000D03*
X147066000Y-102870000D03*
X147066000Y-105410000D03*
D12*
X147066000Y-107950000D03*
D13*
X147218000Y-65772000D03*
D14*
X142748000Y-68072000D03*
D15*
X141728000Y-70612000D03*
X140708000Y-68072000D03*
D13*
X135218000Y-65772000D03*
D15*
X139688000Y-70612000D03*
D11*
X131699000Y-80645000D03*
X134239000Y-80645000D03*
X136779000Y-80645000D03*
D12*
X139319000Y-80645000D03*
D16*
X144018000Y-74676000D03*
D17*
X146558000Y-74676000D03*
D18*
X115280000Y-65913000D03*
X123480000Y-65913000D03*
D19*
X117380000Y-65913000D03*
X119380000Y-65913000D03*
D20*
X121380000Y-65913000D03*
D21*
X115824000Y-78359000D03*
X115824000Y-119888000D03*
X154813000Y-78359000D03*
X154813000Y-119888000D03*
D12*
X124206000Y-107950000D03*
D11*
X124206000Y-105410000D03*
X124206000Y-102870000D03*
X124206000Y-100330000D03*
X124206000Y-97790000D03*
X124206000Y-95250000D03*
X124206000Y-92710000D03*
X124206000Y-90170000D03*
X154813000Y-66548000D03*
X154813000Y-69088000D03*
D12*
X154813000Y-71628000D03*
X152273000Y-71628000D03*
D11*
X152273000Y-69088000D03*
X152273000Y-66548000D03*
D16*
X130429000Y-74676000D03*
D17*
X132969000Y-74676000D03*
X139700000Y-74803000D03*
D16*
X137160000Y-74803000D03*
M02*
