M48
; DRILL file {KiCad (5.1.7)-1} date 02/24/21 18:28:07
; FORMAT={-:-/ absolute / inch / decimal}
; #@! TF.CreationDate,2021-02-24T18:28:07+01:00
; #@! TF.GenerationSoftware,Kicad,Pcbnew,(5.1.7)-1
FMAT,2
INCH
T1C0.0157
T2C0.0354
T3C0.0394
T4C0.0591
T5C0.0394
T6C0.0906
T7C0.1260
%
G90
G05
T1
X4.515Y-4.21
X4.525Y-2.83
X4.525Y-2.875
X4.54Y-4.485
X4.54Y-4.525
X4.565Y-2.83
X4.565Y-2.875
X4.58Y-4.485
X4.58Y-4.525
X4.69Y-4.29
X4.73Y-4.105
X5.19Y-3.025
X5.2Y-3.635
X5.38Y-4.37
X5.38Y-4.55
X5.425Y-4.575
X5.44Y-4.37
X5.55Y-4.59
X5.59Y-3.245
X5.65Y-3.025
X5.695Y-4.365
X5.74Y-4.365
X5.78Y-4.365
X5.82Y-4.365
X5.835Y-3.27
X5.885Y-3.33
X5.95Y-3.865
X6.015Y-3.55
X6.075Y-4.485
X6.075Y-4.525
X6.12Y-4.485
X6.12Y-4.525
T2
X5.31Y-2.89
X5.31Y-2.99
X5.4345Y-2.64
X5.4747Y-2.54
X5.5148Y-2.64
X5.555Y-2.54
X4.6575Y-2.43
X4.7363Y-2.43
X4.815Y-2.43
X5.77Y-2.895
X5.77Y-2.995
T3
X6.035Y-2.505
X6.035Y-2.605
X6.035Y-2.705
X5.79Y-3.55
X5.79Y-3.65
X5.79Y-3.75
X5.79Y-3.85
X5.79Y-3.95
X5.79Y-4.05
X5.79Y-4.15
X5.79Y-4.25
X5.185Y-3.175
X5.285Y-3.175
X5.385Y-3.175
X5.485Y-3.175
X4.89Y-3.55
X4.89Y-3.65
X4.89Y-3.75
X4.89Y-3.85
X4.89Y-3.95
X4.89Y-4.05
X4.89Y-4.15
X4.89Y-4.25
X5.935Y-2.505
X5.935Y-2.605
X5.935Y-2.705
T4
X4.5748Y-2.43
X4.8977Y-2.43
T5
X4.8934Y-4.6002
X5.0666Y-4.6002
T6
X5.2585Y-2.4494
X5.731Y-2.4494
T7
X4.56Y-4.72
X6.095Y-3.085
X4.56Y-3.085
X6.095Y-4.72
T0
M30
