%TF.GenerationSoftware,KiCad,Pcbnew,(5.1.7)-1*%
%TF.CreationDate,2020-11-03T18:18:40+01:00*%
%TF.ProjectId,Temperature-controller-with-ESP8266,54656d70-6572-4617-9475-72652d636f6e,rev?*%
%TF.SameCoordinates,Original*%
%TF.FileFunction,Legend,Bot*%
%TF.FilePolarity,Positive*%
%FSLAX46Y46*%
G04 Gerber Fmt 4.6, Leading zero omitted, Abs format (unit mm)*
G04 Created by KiCad (PCBNEW (5.1.7)-1) date 2020-11-03 18:18:40*
%MOMM*%
%LPD*%
G01*
G04 APERTURE LIST*
%ADD10C,0.300000*%
%TA.AperFunction,Profile*%
%ADD11C,0.050000*%
%TD*%
%ADD12C,0.120000*%
%ADD13C,0.150000*%
G04 APERTURE END LIST*
D10*
X118008142Y-96095428D02*
X118793857Y-97095428D01*
X118008142Y-97095428D02*
X118793857Y-96095428D01*
X119222428Y-97095428D02*
X119579571Y-96095428D01*
X119936714Y-97095428D01*
X120365285Y-97095428D02*
X120722428Y-96095428D01*
X121079571Y-97095428D02*
X120722428Y-96095428D01*
X120579571Y-95738285D01*
X120508142Y-95666857D01*
X120365285Y-95595428D01*
X121651000Y-96095428D02*
X121651000Y-97095428D01*
X121651000Y-96952571D02*
X121722428Y-97024000D01*
X121865285Y-97095428D01*
X122079571Y-97095428D01*
X122222428Y-97024000D01*
X122293857Y-96881142D01*
X122293857Y-96095428D01*
X122293857Y-96881142D02*
X122365285Y-97024000D01*
X122508142Y-97095428D01*
X122722428Y-97095428D01*
X122865285Y-97024000D01*
X122936714Y-96881142D01*
X122936714Y-96095428D01*
X124293857Y-96095428D02*
X124293857Y-96881142D01*
X124222428Y-97024000D01*
X124079571Y-97095428D01*
X123793857Y-97095428D01*
X123650999Y-97024000D01*
X124293857Y-96166857D02*
X124150999Y-96095428D01*
X123793857Y-96095428D01*
X123650999Y-96166857D01*
X123579571Y-96309714D01*
X123579571Y-96452571D01*
X123650999Y-96595428D01*
X123793857Y-96666857D01*
X124150999Y-96666857D01*
X124293857Y-96738285D01*
X124865285Y-97095428D02*
X125650999Y-97095428D01*
X124865285Y-96095428D01*
X125650999Y-96095428D01*
X127008142Y-96095428D02*
X126150999Y-96095428D01*
X126579571Y-96095428D02*
X126579571Y-97595428D01*
X126436714Y-97381142D01*
X126293857Y-97238285D01*
X126150999Y-97166857D01*
X128436714Y-96095428D02*
X127579571Y-96095428D01*
X128008142Y-96095428D02*
X128008142Y-97595428D01*
X127865285Y-97381142D01*
X127722428Y-97238285D01*
X127579571Y-97166857D01*
X130008142Y-96809714D02*
X129936714Y-96881142D01*
X129793857Y-96952571D01*
X129651000Y-96952571D01*
X129508142Y-96881142D01*
X129436714Y-96809714D01*
X129365285Y-96666857D01*
X129365285Y-96524000D01*
X129436714Y-96381142D01*
X129508142Y-96309714D01*
X129651000Y-96238285D01*
X129793857Y-96238285D01*
X129936714Y-96309714D01*
X130008142Y-96381142D01*
X130008142Y-96952571D02*
X130008142Y-96381142D01*
X130079571Y-96309714D01*
X130151000Y-96309714D01*
X130293857Y-96381142D01*
X130365285Y-96524000D01*
X130365285Y-96881142D01*
X130222428Y-97095428D01*
X130008142Y-97238285D01*
X129722428Y-97309714D01*
X129436714Y-97238285D01*
X129222428Y-97095428D01*
X129079571Y-96881142D01*
X129008142Y-96595428D01*
X129079571Y-96309714D01*
X129222428Y-96095428D01*
X129436714Y-95952571D01*
X129722428Y-95881142D01*
X130008142Y-95952571D01*
X130222428Y-96095428D01*
X130865285Y-97095428D02*
X131222428Y-96095428D01*
X131579571Y-97095428D01*
X132793857Y-97095428D02*
X132793857Y-96095428D01*
X132151000Y-97095428D02*
X132151000Y-96309714D01*
X132222428Y-96166857D01*
X132365285Y-96095428D01*
X132579571Y-96095428D01*
X132722428Y-96166857D01*
X132793857Y-96238285D01*
X133293857Y-97095428D02*
X133865285Y-97095428D01*
X133508142Y-97595428D02*
X133508142Y-96309714D01*
X133579571Y-96166857D01*
X133722428Y-96095428D01*
X133865285Y-96095428D01*
X134365285Y-96095428D02*
X134365285Y-97595428D01*
X134365285Y-97024000D02*
X134508142Y-97095428D01*
X134793857Y-97095428D01*
X134936714Y-97024000D01*
X135008142Y-96952571D01*
X135079571Y-96809714D01*
X135079571Y-96381142D01*
X135008142Y-96238285D01*
X134936714Y-96166857D01*
X134793857Y-96095428D01*
X134508142Y-96095428D01*
X134365285Y-96166857D01*
X135722428Y-96095428D02*
X135722428Y-97095428D01*
X135722428Y-96809714D02*
X135793857Y-96952571D01*
X135865285Y-97024000D01*
X136008142Y-97095428D01*
X136151000Y-97095428D01*
X136651000Y-96238285D02*
X136722428Y-96166857D01*
X136651000Y-96095428D01*
X136579571Y-96166857D01*
X136651000Y-96238285D01*
X136651000Y-96095428D01*
X138008142Y-96166857D02*
X137865285Y-96095428D01*
X137579571Y-96095428D01*
X137436714Y-96166857D01*
X137365285Y-96238285D01*
X137293857Y-96381142D01*
X137293857Y-96809714D01*
X137365285Y-96952571D01*
X137436714Y-97024000D01*
X137579571Y-97095428D01*
X137865285Y-97095428D01*
X138008142Y-97024000D01*
X138508142Y-97095428D02*
X139293857Y-97095428D01*
X138508142Y-96095428D01*
X139293857Y-96095428D01*
X105755428Y-118717285D02*
X105684000Y-118645857D01*
X105469714Y-118574428D01*
X105326857Y-118574428D01*
X105112571Y-118645857D01*
X104969714Y-118788714D01*
X104898285Y-118931571D01*
X104826857Y-119217285D01*
X104826857Y-119431571D01*
X104898285Y-119717285D01*
X104969714Y-119860142D01*
X105112571Y-120003000D01*
X105326857Y-120074428D01*
X105469714Y-120074428D01*
X105684000Y-120003000D01*
X105755428Y-119931571D01*
X106684000Y-120074428D02*
X106969714Y-120074428D01*
X107112571Y-120003000D01*
X107255428Y-119860142D01*
X107326857Y-119574428D01*
X107326857Y-119074428D01*
X107255428Y-118788714D01*
X107112571Y-118645857D01*
X106969714Y-118574428D01*
X106684000Y-118574428D01*
X106541142Y-118645857D01*
X106398285Y-118788714D01*
X106326857Y-119074428D01*
X106326857Y-119574428D01*
X106398285Y-119860142D01*
X106541142Y-120003000D01*
X106684000Y-120074428D01*
X107969714Y-118574428D02*
X107969714Y-120074428D01*
X108469714Y-119003000D01*
X108969714Y-120074428D01*
X108969714Y-118574428D01*
X100294428Y-118574428D02*
X100294428Y-120074428D01*
X101151571Y-118574428D01*
X101151571Y-120074428D01*
X102723000Y-118717285D02*
X102651571Y-118645857D01*
X102437285Y-118574428D01*
X102294428Y-118574428D01*
X102080142Y-118645857D01*
X101937285Y-118788714D01*
X101865857Y-118931571D01*
X101794428Y-119217285D01*
X101794428Y-119431571D01*
X101865857Y-119717285D01*
X101937285Y-119860142D01*
X102080142Y-120003000D01*
X102294428Y-120074428D01*
X102437285Y-120074428D01*
X102651571Y-120003000D01*
X102723000Y-119931571D01*
X111561714Y-118574428D02*
X111561714Y-120074428D01*
X112418857Y-118574428D01*
X112418857Y-120074428D01*
X113418857Y-120074428D02*
X113704571Y-120074428D01*
X113847428Y-120003000D01*
X113990285Y-119860142D01*
X114061714Y-119574428D01*
X114061714Y-119074428D01*
X113990285Y-118788714D01*
X113847428Y-118645857D01*
X113704571Y-118574428D01*
X113418857Y-118574428D01*
X113276000Y-118645857D01*
X113133142Y-118788714D01*
X113061714Y-119074428D01*
X113061714Y-119574428D01*
X113133142Y-119860142D01*
X113276000Y-120003000D01*
X113418857Y-120074428D01*
X124924285Y-118701428D02*
X124210000Y-118701428D01*
X124210000Y-120201428D01*
X119078428Y-118701428D02*
X119078428Y-120201428D01*
X119935571Y-118701428D01*
X119935571Y-120201428D01*
D11*
X119126000Y-53721000D02*
X132080000Y-53721000D01*
X119126000Y-53721000D02*
G75*
G02*
X118110000Y-54737000I-1016000J0D01*
G01*
X109474000Y-53721000D02*
G75*
G03*
X110490000Y-54737000I1016000J0D01*
G01*
X118110000Y-54737000D02*
X110490000Y-54737000D01*
X86741000Y-121031000D02*
G75*
G02*
X83693000Y-117983000I0J3048000D01*
G01*
X144780000Y-117983000D02*
G75*
G02*
X141732000Y-121031000I-3048000J0D01*
G01*
X83693000Y-68707000D02*
G75*
G02*
X86741000Y-65659000I3048000J0D01*
G01*
X94742000Y-58166000D02*
G75*
G02*
X87249000Y-65659000I-7493000J0D01*
G01*
X83693000Y-68707000D02*
X83693000Y-69215000D01*
X86741000Y-65659000D02*
X87249000Y-65659000D01*
X94742000Y-55372000D02*
G75*
G02*
X96393000Y-53721000I1651000J0D01*
G01*
X132080000Y-53721000D02*
G75*
G02*
X133731000Y-55372000I0J-1651000D01*
G01*
X144780000Y-117983000D02*
X144780000Y-68707000D01*
X141732000Y-65659000D02*
G75*
G02*
X144780000Y-68707000I0J-3048000D01*
G01*
X141224000Y-65659000D02*
G75*
G02*
X133731000Y-58166000I0J7493000D01*
G01*
X141732000Y-65659000D02*
X141224000Y-65659000D01*
X133731000Y-55372000D02*
X133731000Y-58166000D01*
X94742000Y-55372000D02*
X94742000Y-58166000D01*
X96393000Y-53721000D02*
X109474000Y-53721000D01*
X86741000Y-121031000D02*
X141732000Y-121031000D01*
X83693000Y-117983000D02*
X83693000Y-69215000D01*
D12*
%TO.C,Q2*%
X110492000Y-79177000D02*
X110492000Y-78247000D01*
X110492000Y-76017000D02*
X110492000Y-76947000D01*
X110492000Y-76017000D02*
X112652000Y-76017000D01*
X110492000Y-79177000D02*
X111952000Y-79177000D01*
%TO.C,Q1*%
X115568000Y-76017000D02*
X115568000Y-76947000D01*
X115568000Y-79177000D02*
X115568000Y-78247000D01*
X115568000Y-79177000D02*
X113408000Y-79177000D01*
X115568000Y-76017000D02*
X114108000Y-76017000D01*
%TO.C,R12*%
X107415000Y-75845936D02*
X107415000Y-76300064D01*
X105945000Y-75845936D02*
X105945000Y-76300064D01*
%TO.C,R10*%
X104167000Y-76300064D02*
X104167000Y-75845936D01*
X105637000Y-76300064D02*
X105637000Y-75845936D01*
%TO.C,R9*%
X92683000Y-80872064D02*
X92683000Y-80417936D01*
X91213000Y-80872064D02*
X91213000Y-80417936D01*
%TO.C,U3*%
X109220000Y-89936000D02*
X107270000Y-89936000D01*
X109220000Y-89936000D02*
X111170000Y-89936000D01*
X109220000Y-84816000D02*
X107270000Y-84816000D01*
X109220000Y-84816000D02*
X112670000Y-84816000D01*
%TO.C,U6*%
X115335000Y-79751000D02*
X116595000Y-79751000D01*
X122155000Y-79751000D02*
X120895000Y-79751000D01*
X115335000Y-83511000D02*
X115335000Y-79751000D01*
X122155000Y-85761000D02*
X122155000Y-79751000D01*
%TO.C,Y1*%
X120170000Y-66861000D02*
X123670000Y-66861000D01*
X123670000Y-66861000D02*
X123670000Y-71061000D01*
%TO.C,C8*%
X116578748Y-88111000D02*
X117101252Y-88111000D01*
X116578748Y-86641000D02*
X117101252Y-86641000D01*
%TO.C,J3*%
X118184600Y-54051200D02*
X110364600Y-54051200D01*
X112164600Y-64522400D02*
X112164600Y-64952400D01*
X118186200Y-55041800D02*
X118186200Y-54051200D01*
X118184600Y-59372400D02*
X118184600Y-62602400D01*
X116384600Y-64522400D02*
X117464600Y-64522400D01*
X111084600Y-64522400D02*
X112164600Y-64522400D01*
X110364600Y-59372400D02*
X110364600Y-62602400D01*
X110364600Y-54991000D02*
X110364600Y-54051200D01*
%TO.C,R1*%
X115342936Y-75538000D02*
X115797064Y-75538000D01*
X115342936Y-74068000D02*
X115797064Y-74068000D01*
%TO.C,C4*%
X121658748Y-65886000D02*
X122181252Y-65886000D01*
X121658748Y-64416000D02*
X122181252Y-64416000D01*
%TO.C,C5*%
X121658748Y-72871000D02*
X122181252Y-72871000D01*
X121658748Y-71401000D02*
X122181252Y-71401000D01*
%TO.C,C9*%
X120388748Y-88111000D02*
X120911252Y-88111000D01*
X120388748Y-86641000D02*
X120911252Y-86641000D01*
%TO.C,D3*%
X92836000Y-103222000D02*
X89536000Y-103222000D01*
X89536000Y-103222000D02*
X89536000Y-97822000D01*
X92836000Y-103222000D02*
X92836000Y-97822000D01*
%TO.C,R2*%
X124687064Y-89181000D02*
X124232936Y-89181000D01*
X124687064Y-90651000D02*
X124232936Y-90651000D01*
%TO.C,R3*%
X105817936Y-69696000D02*
X106272064Y-69696000D01*
X105817936Y-68226000D02*
X106272064Y-68226000D01*
%TO.C,R4*%
X105817936Y-67156000D02*
X106272064Y-67156000D01*
X105817936Y-65686000D02*
X106272064Y-65686000D01*
%TO.C,R5*%
X122147064Y-73306000D02*
X121692936Y-73306000D01*
X122147064Y-74776000D02*
X121692936Y-74776000D01*
%TO.C,R6*%
X137537564Y-88419000D02*
X137083436Y-88419000D01*
X137537564Y-89889000D02*
X137083436Y-89889000D01*
%TO.C,R7*%
X112368064Y-74068000D02*
X111913936Y-74068000D01*
X112368064Y-75538000D02*
X111913936Y-75538000D01*
%TO.C,R8*%
X112040936Y-80999000D02*
X112495064Y-80999000D01*
X112040936Y-79529000D02*
X112495064Y-79529000D01*
%TO.C,R11*%
X121692936Y-76681000D02*
X122147064Y-76681000D01*
X121692936Y-75211000D02*
X122147064Y-75211000D01*
%TO.C,R15*%
X92683000Y-84809064D02*
X92683000Y-84354936D01*
X91213000Y-84809064D02*
X91213000Y-84354936D01*
%TO.C,U2*%
X119360000Y-68961000D02*
X119360000Y-70911000D01*
X119360000Y-68961000D02*
X119360000Y-67011000D01*
X109240000Y-68961000D02*
X109240000Y-70911000D01*
X109240000Y-68961000D02*
X109240000Y-65511000D01*
%TO.C,U4*%
X87821000Y-92350200D02*
X86121000Y-92350200D01*
X95821000Y-88650200D02*
X95821000Y-88500200D01*
X95821000Y-88500200D02*
X87821000Y-88500200D01*
X87821000Y-88500200D02*
X87821000Y-88650200D01*
X87821000Y-92350200D02*
X87821000Y-92500200D01*
X87821000Y-92500200D02*
X95821000Y-92500200D01*
X95821000Y-92500200D02*
X95821000Y-92350200D01*
%TD*%
%TO.C,Q2*%
D13*
X110148619Y-75850761D02*
X110101000Y-75755523D01*
X110005761Y-75660285D01*
X109862904Y-75517428D01*
X109815285Y-75422190D01*
X109815285Y-75326952D01*
X110053380Y-75374571D02*
X110005761Y-75279333D01*
X109910523Y-75184095D01*
X109720047Y-75136476D01*
X109386714Y-75136476D01*
X109196238Y-75184095D01*
X109101000Y-75279333D01*
X109053380Y-75374571D01*
X109053380Y-75565047D01*
X109101000Y-75660285D01*
X109196238Y-75755523D01*
X109386714Y-75803142D01*
X109720047Y-75803142D01*
X109910523Y-75755523D01*
X110005761Y-75660285D01*
X110053380Y-75565047D01*
X110053380Y-75374571D01*
X109148619Y-76184095D02*
X109101000Y-76231714D01*
X109053380Y-76326952D01*
X109053380Y-76565047D01*
X109101000Y-76660285D01*
X109148619Y-76707904D01*
X109243857Y-76755523D01*
X109339095Y-76755523D01*
X109481952Y-76707904D01*
X110053380Y-76136476D01*
X110053380Y-76755523D01*
%TO.C,Q1*%
X116681238Y-77001619D02*
X116776476Y-76954000D01*
X116871714Y-76858761D01*
X117014571Y-76715904D01*
X117109809Y-76668285D01*
X117205047Y-76668285D01*
X117157428Y-76906380D02*
X117252666Y-76858761D01*
X117347904Y-76763523D01*
X117395523Y-76573047D01*
X117395523Y-76239714D01*
X117347904Y-76049238D01*
X117252666Y-75954000D01*
X117157428Y-75906380D01*
X116966952Y-75906380D01*
X116871714Y-75954000D01*
X116776476Y-76049238D01*
X116728857Y-76239714D01*
X116728857Y-76573047D01*
X116776476Y-76763523D01*
X116871714Y-76858761D01*
X116966952Y-76906380D01*
X117157428Y-76906380D01*
X115776476Y-76906380D02*
X116347904Y-76906380D01*
X116062190Y-76906380D02*
X116062190Y-75906380D01*
X116157428Y-76049238D01*
X116252666Y-76144476D01*
X116347904Y-76192095D01*
%TO.C,R12*%
X105608380Y-72255142D02*
X105132190Y-71921809D01*
X105608380Y-71683714D02*
X104608380Y-71683714D01*
X104608380Y-72064666D01*
X104656000Y-72159904D01*
X104703619Y-72207523D01*
X104798857Y-72255142D01*
X104941714Y-72255142D01*
X105036952Y-72207523D01*
X105084571Y-72159904D01*
X105132190Y-72064666D01*
X105132190Y-71683714D01*
X105608380Y-73207523D02*
X105608380Y-72636095D01*
X105608380Y-72921809D02*
X104608380Y-72921809D01*
X104751238Y-72826571D01*
X104846476Y-72731333D01*
X104894095Y-72636095D01*
X104703619Y-73588476D02*
X104656000Y-73636095D01*
X104608380Y-73731333D01*
X104608380Y-73969428D01*
X104656000Y-74064666D01*
X104703619Y-74112285D01*
X104798857Y-74159904D01*
X104894095Y-74159904D01*
X105036952Y-74112285D01*
X105608380Y-73540857D01*
X105608380Y-74159904D01*
%TO.C,R10*%
X107132380Y-72255142D02*
X106656190Y-71921809D01*
X107132380Y-71683714D02*
X106132380Y-71683714D01*
X106132380Y-72064666D01*
X106180000Y-72159904D01*
X106227619Y-72207523D01*
X106322857Y-72255142D01*
X106465714Y-72255142D01*
X106560952Y-72207523D01*
X106608571Y-72159904D01*
X106656190Y-72064666D01*
X106656190Y-71683714D01*
X107132380Y-73207523D02*
X107132380Y-72636095D01*
X107132380Y-72921809D02*
X106132380Y-72921809D01*
X106275238Y-72826571D01*
X106370476Y-72731333D01*
X106418095Y-72636095D01*
X106132380Y-73826571D02*
X106132380Y-73921809D01*
X106180000Y-74017047D01*
X106227619Y-74064666D01*
X106322857Y-74112285D01*
X106513333Y-74159904D01*
X106751428Y-74159904D01*
X106941904Y-74112285D01*
X107037142Y-74064666D01*
X107084761Y-74017047D01*
X107132380Y-73921809D01*
X107132380Y-73826571D01*
X107084761Y-73731333D01*
X107037142Y-73683714D01*
X106941904Y-73636095D01*
X106751428Y-73588476D01*
X106513333Y-73588476D01*
X106322857Y-73636095D01*
X106227619Y-73683714D01*
X106180000Y-73731333D01*
X106132380Y-73826571D01*
%TO.C,R9*%
X90749380Y-80351333D02*
X90273190Y-80018000D01*
X90749380Y-79779904D02*
X89749380Y-79779904D01*
X89749380Y-80160857D01*
X89797000Y-80256095D01*
X89844619Y-80303714D01*
X89939857Y-80351333D01*
X90082714Y-80351333D01*
X90177952Y-80303714D01*
X90225571Y-80256095D01*
X90273190Y-80160857D01*
X90273190Y-79779904D01*
X90749380Y-80827523D02*
X90749380Y-81018000D01*
X90701761Y-81113238D01*
X90654142Y-81160857D01*
X90511285Y-81256095D01*
X90320809Y-81303714D01*
X89939857Y-81303714D01*
X89844619Y-81256095D01*
X89797000Y-81208476D01*
X89749380Y-81113238D01*
X89749380Y-80922761D01*
X89797000Y-80827523D01*
X89844619Y-80779904D01*
X89939857Y-80732285D01*
X90177952Y-80732285D01*
X90273190Y-80779904D01*
X90320809Y-80827523D01*
X90368428Y-80922761D01*
X90368428Y-81113238D01*
X90320809Y-81208476D01*
X90273190Y-81256095D01*
X90177952Y-81303714D01*
%TO.C,U3*%
X109981904Y-83428380D02*
X109981904Y-84237904D01*
X109934285Y-84333142D01*
X109886666Y-84380761D01*
X109791428Y-84428380D01*
X109600952Y-84428380D01*
X109505714Y-84380761D01*
X109458095Y-84333142D01*
X109410476Y-84237904D01*
X109410476Y-83428380D01*
X109029523Y-83428380D02*
X108410476Y-83428380D01*
X108743809Y-83809333D01*
X108600952Y-83809333D01*
X108505714Y-83856952D01*
X108458095Y-83904571D01*
X108410476Y-83999809D01*
X108410476Y-84237904D01*
X108458095Y-84333142D01*
X108505714Y-84380761D01*
X108600952Y-84428380D01*
X108886666Y-84428380D01*
X108981904Y-84380761D01*
X109029523Y-84333142D01*
%TO.C,U6*%
X122697380Y-80899095D02*
X123506904Y-80899095D01*
X123602142Y-80946714D01*
X123649761Y-80994333D01*
X123697380Y-81089571D01*
X123697380Y-81280047D01*
X123649761Y-81375285D01*
X123602142Y-81422904D01*
X123506904Y-81470523D01*
X122697380Y-81470523D01*
X122697380Y-82375285D02*
X122697380Y-82184809D01*
X122745000Y-82089571D01*
X122792619Y-82041952D01*
X122935476Y-81946714D01*
X123125952Y-81899095D01*
X123506904Y-81899095D01*
X123602142Y-81946714D01*
X123649761Y-81994333D01*
X123697380Y-82089571D01*
X123697380Y-82280047D01*
X123649761Y-82375285D01*
X123602142Y-82422904D01*
X123506904Y-82470523D01*
X123268809Y-82470523D01*
X123173571Y-82422904D01*
X123125952Y-82375285D01*
X123078333Y-82280047D01*
X123078333Y-82089571D01*
X123125952Y-81994333D01*
X123173571Y-81946714D01*
X123268809Y-81899095D01*
%TO.C,Y1*%
X124182190Y-68484809D02*
X124658380Y-68484809D01*
X123658380Y-68151476D02*
X124182190Y-68484809D01*
X123658380Y-68818142D01*
X124658380Y-69675285D02*
X124658380Y-69103857D01*
X124658380Y-69389571D02*
X123658380Y-69389571D01*
X123801238Y-69294333D01*
X123896476Y-69199095D01*
X123944095Y-69103857D01*
%TO.C,C8*%
X117006666Y-89413142D02*
X117054285Y-89460761D01*
X117197142Y-89508380D01*
X117292380Y-89508380D01*
X117435238Y-89460761D01*
X117530476Y-89365523D01*
X117578095Y-89270285D01*
X117625714Y-89079809D01*
X117625714Y-88936952D01*
X117578095Y-88746476D01*
X117530476Y-88651238D01*
X117435238Y-88556000D01*
X117292380Y-88508380D01*
X117197142Y-88508380D01*
X117054285Y-88556000D01*
X117006666Y-88603619D01*
X116435238Y-88936952D02*
X116530476Y-88889333D01*
X116578095Y-88841714D01*
X116625714Y-88746476D01*
X116625714Y-88698857D01*
X116578095Y-88603619D01*
X116530476Y-88556000D01*
X116435238Y-88508380D01*
X116244761Y-88508380D01*
X116149523Y-88556000D01*
X116101904Y-88603619D01*
X116054285Y-88698857D01*
X116054285Y-88746476D01*
X116101904Y-88841714D01*
X116149523Y-88889333D01*
X116244761Y-88936952D01*
X116435238Y-88936952D01*
X116530476Y-88984571D01*
X116578095Y-89032190D01*
X116625714Y-89127428D01*
X116625714Y-89317904D01*
X116578095Y-89413142D01*
X116530476Y-89460761D01*
X116435238Y-89508380D01*
X116244761Y-89508380D01*
X116149523Y-89460761D01*
X116101904Y-89413142D01*
X116054285Y-89317904D01*
X116054285Y-89127428D01*
X116101904Y-89032190D01*
X116149523Y-88984571D01*
X116244761Y-88936952D01*
%TO.C,J3*%
X121679690Y-57618380D02*
X121679690Y-58332666D01*
X121727309Y-58475523D01*
X121822547Y-58570761D01*
X121965404Y-58618380D01*
X122060642Y-58618380D01*
X121298738Y-57618380D02*
X120679690Y-57618380D01*
X121013023Y-57999333D01*
X120870166Y-57999333D01*
X120774928Y-58046952D01*
X120727309Y-58094571D01*
X120679690Y-58189809D01*
X120679690Y-58427904D01*
X120727309Y-58523142D01*
X120774928Y-58570761D01*
X120870166Y-58618380D01*
X121155880Y-58618380D01*
X121251119Y-58570761D01*
X121298738Y-58523142D01*
%TO.C,R1*%
X115736666Y-73731380D02*
X116070000Y-73255190D01*
X116308095Y-73731380D02*
X116308095Y-72731380D01*
X115927142Y-72731380D01*
X115831904Y-72779000D01*
X115784285Y-72826619D01*
X115736666Y-72921857D01*
X115736666Y-73064714D01*
X115784285Y-73159952D01*
X115831904Y-73207571D01*
X115927142Y-73255190D01*
X116308095Y-73255190D01*
X114784285Y-73731380D02*
X115355714Y-73731380D01*
X115070000Y-73731380D02*
X115070000Y-72731380D01*
X115165238Y-72874238D01*
X115260476Y-72969476D01*
X115355714Y-73017095D01*
%TO.C,C4*%
X124563142Y-64984333D02*
X124610761Y-64936714D01*
X124658380Y-64793857D01*
X124658380Y-64698619D01*
X124610761Y-64555761D01*
X124515523Y-64460523D01*
X124420285Y-64412904D01*
X124229809Y-64365285D01*
X124086952Y-64365285D01*
X123896476Y-64412904D01*
X123801238Y-64460523D01*
X123706000Y-64555761D01*
X123658380Y-64698619D01*
X123658380Y-64793857D01*
X123706000Y-64936714D01*
X123753619Y-64984333D01*
X123991714Y-65841476D02*
X124658380Y-65841476D01*
X123610761Y-65603380D02*
X124325047Y-65365285D01*
X124325047Y-65984333D01*
%TO.C,C5*%
X124563142Y-73874333D02*
X124610761Y-73826714D01*
X124658380Y-73683857D01*
X124658380Y-73588619D01*
X124610761Y-73445761D01*
X124515523Y-73350523D01*
X124420285Y-73302904D01*
X124229809Y-73255285D01*
X124086952Y-73255285D01*
X123896476Y-73302904D01*
X123801238Y-73350523D01*
X123706000Y-73445761D01*
X123658380Y-73588619D01*
X123658380Y-73683857D01*
X123706000Y-73826714D01*
X123753619Y-73874333D01*
X123658380Y-74779095D02*
X123658380Y-74302904D01*
X124134571Y-74255285D01*
X124086952Y-74302904D01*
X124039333Y-74398142D01*
X124039333Y-74636238D01*
X124086952Y-74731476D01*
X124134571Y-74779095D01*
X124229809Y-74826714D01*
X124467904Y-74826714D01*
X124563142Y-74779095D01*
X124610761Y-74731476D01*
X124658380Y-74636238D01*
X124658380Y-74398142D01*
X124610761Y-74302904D01*
X124563142Y-74255285D01*
%TO.C,C9*%
X120816666Y-89413142D02*
X120864285Y-89460761D01*
X121007142Y-89508380D01*
X121102380Y-89508380D01*
X121245238Y-89460761D01*
X121340476Y-89365523D01*
X121388095Y-89270285D01*
X121435714Y-89079809D01*
X121435714Y-88936952D01*
X121388095Y-88746476D01*
X121340476Y-88651238D01*
X121245238Y-88556000D01*
X121102380Y-88508380D01*
X121007142Y-88508380D01*
X120864285Y-88556000D01*
X120816666Y-88603619D01*
X120340476Y-89508380D02*
X120150000Y-89508380D01*
X120054761Y-89460761D01*
X120007142Y-89413142D01*
X119911904Y-89270285D01*
X119864285Y-89079809D01*
X119864285Y-88698857D01*
X119911904Y-88603619D01*
X119959523Y-88556000D01*
X120054761Y-88508380D01*
X120245238Y-88508380D01*
X120340476Y-88556000D01*
X120388095Y-88603619D01*
X120435714Y-88698857D01*
X120435714Y-88936952D01*
X120388095Y-89032190D01*
X120340476Y-89079809D01*
X120245238Y-89127428D01*
X120054761Y-89127428D01*
X119959523Y-89079809D01*
X119911904Y-89032190D01*
X119864285Y-88936952D01*
%TO.C,D3*%
X94138380Y-99083904D02*
X93138380Y-99083904D01*
X93138380Y-99322000D01*
X93186000Y-99464857D01*
X93281238Y-99560095D01*
X93376476Y-99607714D01*
X93566952Y-99655333D01*
X93709809Y-99655333D01*
X93900285Y-99607714D01*
X93995523Y-99560095D01*
X94090761Y-99464857D01*
X94138380Y-99322000D01*
X94138380Y-99083904D01*
X93138380Y-99988666D02*
X93138380Y-100607714D01*
X93519333Y-100274380D01*
X93519333Y-100417238D01*
X93566952Y-100512476D01*
X93614571Y-100560095D01*
X93709809Y-100607714D01*
X93947904Y-100607714D01*
X94043142Y-100560095D01*
X94090761Y-100512476D01*
X94138380Y-100417238D01*
X94138380Y-100131523D01*
X94090761Y-100036285D01*
X94043142Y-99988666D01*
%TO.C,R2*%
X124626666Y-88718380D02*
X124960000Y-88242190D01*
X125198095Y-88718380D02*
X125198095Y-87718380D01*
X124817142Y-87718380D01*
X124721904Y-87766000D01*
X124674285Y-87813619D01*
X124626666Y-87908857D01*
X124626666Y-88051714D01*
X124674285Y-88146952D01*
X124721904Y-88194571D01*
X124817142Y-88242190D01*
X125198095Y-88242190D01*
X124245714Y-87813619D02*
X124198095Y-87766000D01*
X124102857Y-87718380D01*
X123864761Y-87718380D01*
X123769523Y-87766000D01*
X123721904Y-87813619D01*
X123674285Y-87908857D01*
X123674285Y-88004095D01*
X123721904Y-88146952D01*
X124293333Y-88718380D01*
X123674285Y-88718380D01*
%TO.C,R3*%
X106211666Y-71063380D02*
X106545000Y-70587190D01*
X106783095Y-71063380D02*
X106783095Y-70063380D01*
X106402142Y-70063380D01*
X106306904Y-70111000D01*
X106259285Y-70158619D01*
X106211666Y-70253857D01*
X106211666Y-70396714D01*
X106259285Y-70491952D01*
X106306904Y-70539571D01*
X106402142Y-70587190D01*
X106783095Y-70587190D01*
X105878333Y-70063380D02*
X105259285Y-70063380D01*
X105592619Y-70444333D01*
X105449761Y-70444333D01*
X105354523Y-70491952D01*
X105306904Y-70539571D01*
X105259285Y-70634809D01*
X105259285Y-70872904D01*
X105306904Y-70968142D01*
X105354523Y-71015761D01*
X105449761Y-71063380D01*
X105735476Y-71063380D01*
X105830714Y-71015761D01*
X105878333Y-70968142D01*
%TO.C,R4*%
X106211666Y-65222380D02*
X106545000Y-64746190D01*
X106783095Y-65222380D02*
X106783095Y-64222380D01*
X106402142Y-64222380D01*
X106306904Y-64270000D01*
X106259285Y-64317619D01*
X106211666Y-64412857D01*
X106211666Y-64555714D01*
X106259285Y-64650952D01*
X106306904Y-64698571D01*
X106402142Y-64746190D01*
X106783095Y-64746190D01*
X105354523Y-64555714D02*
X105354523Y-65222380D01*
X105592619Y-64174761D02*
X105830714Y-64889047D01*
X105211666Y-64889047D01*
%TO.C,R5*%
X124658380Y-71969333D02*
X124182190Y-71636000D01*
X124658380Y-71397904D02*
X123658380Y-71397904D01*
X123658380Y-71778857D01*
X123706000Y-71874095D01*
X123753619Y-71921714D01*
X123848857Y-71969333D01*
X123991714Y-71969333D01*
X124086952Y-71921714D01*
X124134571Y-71874095D01*
X124182190Y-71778857D01*
X124182190Y-71397904D01*
X123658380Y-72874095D02*
X123658380Y-72397904D01*
X124134571Y-72350285D01*
X124086952Y-72397904D01*
X124039333Y-72493142D01*
X124039333Y-72731238D01*
X124086952Y-72826476D01*
X124134571Y-72874095D01*
X124229809Y-72921714D01*
X124467904Y-72921714D01*
X124563142Y-72874095D01*
X124610761Y-72826476D01*
X124658380Y-72731238D01*
X124658380Y-72493142D01*
X124610761Y-72397904D01*
X124563142Y-72350285D01*
%TO.C,R6*%
X137477166Y-91638380D02*
X137810500Y-91162190D01*
X138048595Y-91638380D02*
X138048595Y-90638380D01*
X137667642Y-90638380D01*
X137572404Y-90686000D01*
X137524785Y-90733619D01*
X137477166Y-90828857D01*
X137477166Y-90971714D01*
X137524785Y-91066952D01*
X137572404Y-91114571D01*
X137667642Y-91162190D01*
X138048595Y-91162190D01*
X136620023Y-90638380D02*
X136810500Y-90638380D01*
X136905738Y-90686000D01*
X136953357Y-90733619D01*
X137048595Y-90876476D01*
X137096214Y-91066952D01*
X137096214Y-91447904D01*
X137048595Y-91543142D01*
X137000976Y-91590761D01*
X136905738Y-91638380D01*
X136715261Y-91638380D01*
X136620023Y-91590761D01*
X136572404Y-91543142D01*
X136524785Y-91447904D01*
X136524785Y-91209809D01*
X136572404Y-91114571D01*
X136620023Y-91066952D01*
X136715261Y-91019333D01*
X136905738Y-91019333D01*
X137000976Y-91066952D01*
X137048595Y-91114571D01*
X137096214Y-91209809D01*
%TO.C,R7*%
X112307666Y-73605380D02*
X112641000Y-73129190D01*
X112879095Y-73605380D02*
X112879095Y-72605380D01*
X112498142Y-72605380D01*
X112402904Y-72653000D01*
X112355285Y-72700619D01*
X112307666Y-72795857D01*
X112307666Y-72938714D01*
X112355285Y-73033952D01*
X112402904Y-73081571D01*
X112498142Y-73129190D01*
X112879095Y-73129190D01*
X111974333Y-72605380D02*
X111307666Y-72605380D01*
X111736238Y-73605380D01*
%TO.C,R8*%
X112434666Y-82366380D02*
X112768000Y-81890190D01*
X113006095Y-82366380D02*
X113006095Y-81366380D01*
X112625142Y-81366380D01*
X112529904Y-81414000D01*
X112482285Y-81461619D01*
X112434666Y-81556857D01*
X112434666Y-81699714D01*
X112482285Y-81794952D01*
X112529904Y-81842571D01*
X112625142Y-81890190D01*
X113006095Y-81890190D01*
X111863238Y-81794952D02*
X111958476Y-81747333D01*
X112006095Y-81699714D01*
X112053714Y-81604476D01*
X112053714Y-81556857D01*
X112006095Y-81461619D01*
X111958476Y-81414000D01*
X111863238Y-81366380D01*
X111672761Y-81366380D01*
X111577523Y-81414000D01*
X111529904Y-81461619D01*
X111482285Y-81556857D01*
X111482285Y-81604476D01*
X111529904Y-81699714D01*
X111577523Y-81747333D01*
X111672761Y-81794952D01*
X111863238Y-81794952D01*
X111958476Y-81842571D01*
X112006095Y-81890190D01*
X112053714Y-81985428D01*
X112053714Y-82175904D01*
X112006095Y-82271142D01*
X111958476Y-82318761D01*
X111863238Y-82366380D01*
X111672761Y-82366380D01*
X111577523Y-82318761D01*
X111529904Y-82271142D01*
X111482285Y-82175904D01*
X111482285Y-81985428D01*
X111529904Y-81890190D01*
X111577523Y-81842571D01*
X111672761Y-81794952D01*
%TO.C,R11*%
X124658380Y-75811142D02*
X124182190Y-75477809D01*
X124658380Y-75239714D02*
X123658380Y-75239714D01*
X123658380Y-75620666D01*
X123706000Y-75715904D01*
X123753619Y-75763523D01*
X123848857Y-75811142D01*
X123991714Y-75811142D01*
X124086952Y-75763523D01*
X124134571Y-75715904D01*
X124182190Y-75620666D01*
X124182190Y-75239714D01*
X124658380Y-76763523D02*
X124658380Y-76192095D01*
X124658380Y-76477809D02*
X123658380Y-76477809D01*
X123801238Y-76382571D01*
X123896476Y-76287333D01*
X123944095Y-76192095D01*
X124658380Y-77715904D02*
X124658380Y-77144476D01*
X124658380Y-77430190D02*
X123658380Y-77430190D01*
X123801238Y-77334952D01*
X123896476Y-77239714D01*
X123944095Y-77144476D01*
%TO.C,R15*%
X90749380Y-83939142D02*
X90273190Y-83605809D01*
X90749380Y-83367714D02*
X89749380Y-83367714D01*
X89749380Y-83748666D01*
X89797000Y-83843904D01*
X89844619Y-83891523D01*
X89939857Y-83939142D01*
X90082714Y-83939142D01*
X90177952Y-83891523D01*
X90225571Y-83843904D01*
X90273190Y-83748666D01*
X90273190Y-83367714D01*
X90749380Y-84891523D02*
X90749380Y-84320095D01*
X90749380Y-84605809D02*
X89749380Y-84605809D01*
X89892238Y-84510571D01*
X89987476Y-84415333D01*
X90035095Y-84320095D01*
X89749380Y-85796285D02*
X89749380Y-85320095D01*
X90225571Y-85272476D01*
X90177952Y-85320095D01*
X90130333Y-85415333D01*
X90130333Y-85653428D01*
X90177952Y-85748666D01*
X90225571Y-85796285D01*
X90320809Y-85843904D01*
X90558904Y-85843904D01*
X90654142Y-85796285D01*
X90701761Y-85748666D01*
X90749380Y-85653428D01*
X90749380Y-85415333D01*
X90701761Y-85320095D01*
X90654142Y-85272476D01*
%TO.C,U2*%
X107910380Y-68199095D02*
X108719904Y-68199095D01*
X108815142Y-68246714D01*
X108862761Y-68294333D01*
X108910380Y-68389571D01*
X108910380Y-68580047D01*
X108862761Y-68675285D01*
X108815142Y-68722904D01*
X108719904Y-68770523D01*
X107910380Y-68770523D01*
X108005619Y-69199095D02*
X107958000Y-69246714D01*
X107910380Y-69341952D01*
X107910380Y-69580047D01*
X107958000Y-69675285D01*
X108005619Y-69722904D01*
X108100857Y-69770523D01*
X108196095Y-69770523D01*
X108338952Y-69722904D01*
X108910380Y-69151476D01*
X108910380Y-69770523D01*
%TO.C,U4*%
X92582904Y-87209380D02*
X92582904Y-88018904D01*
X92535285Y-88114142D01*
X92487666Y-88161761D01*
X92392428Y-88209380D01*
X92201952Y-88209380D01*
X92106714Y-88161761D01*
X92059095Y-88114142D01*
X92011476Y-88018904D01*
X92011476Y-87209380D01*
X91106714Y-87542714D02*
X91106714Y-88209380D01*
X91344809Y-87161761D02*
X91582904Y-87876047D01*
X90963857Y-87876047D01*
%TD*%
M02*
