M48
; DRILL file {KiCad (5.1.7)-1} date 11/03/20 18:18:05
; FORMAT={-:-/ absolute / inch / decimal}
; #@! TF.CreationDate,2020-11-03T18:18:05+01:00
; #@! TF.GenerationSoftware,Kicad,Pcbnew,(5.1.7)-1
FMAT,2
INCH
T1C0.0157
T2C0.0197
T3C0.0315
T4C0.0354
T5C0.0394
T6C0.0512
T7C0.0591
T8C0.1260
T9C0.0394
T10C0.0669
T11C0.0906
%
G90
G05
T1
X3.34Y-3.62
X3.56Y-3.515
X3.88Y-3.515
X3.915Y-3.5806
X4.125Y-2.89
X4.2695Y-3.0955
X4.3Y-2.915
X4.395Y-3.57
X4.4606Y-2.34
X4.5Y-2.34
X4.525Y-2.69
X4.61Y-3.5
X4.625Y-3.165
X4.65Y-2.945
X4.65Y-3.0
X4.725Y-3.165
X4.82Y-3.48
X4.975Y-3.34
X5.015Y-3.39
X5.025Y-3.56
X5.065Y-2.915
T2
X3.6355Y-4.34
X3.6632Y-4.2732
X3.6632Y-4.4068
X3.73Y-4.2455
X3.73Y-4.4345
X3.7968Y-4.2732
X3.7968Y-4.4068
X3.8245Y-4.34
X5.1705Y-2.705
X5.1982Y-2.6382
X5.1982Y-2.7718
X5.265Y-2.6105
X5.265Y-2.7995
X5.3318Y-2.6382
X5.3318Y-2.7718
X5.3595Y-2.705
X3.6355Y-2.705
X3.6632Y-2.6382
X3.6632Y-2.7718
X3.73Y-2.6105
X3.73Y-2.7995
X3.7968Y-2.6382
X3.7968Y-2.7718
X3.8245Y-2.705
X5.1705Y-4.34
X5.1982Y-4.2732
X5.1982Y-4.4068
X5.265Y-4.2455
X5.265Y-4.4345
X5.3318Y-4.2732
X5.3318Y-4.4068
X5.3595Y-4.34
T3
X3.35Y-4.245
X4.555Y-3.61
X5.56Y-3.61
X5.64Y-4.0917
T4
X3.395Y-2.8863
X3.395Y-2.965
X3.395Y-3.0437
X3.76Y-3.14
X3.86Y-3.14
X5.32Y-3.295
X5.3602Y-3.395
X5.4003Y-3.295
X5.4405Y-3.395
X3.755Y-3.33
X3.855Y-3.33
T5
X4.05Y-2.515
X4.05Y-2.615
X4.05Y-2.715
X4.05Y-2.815
X4.05Y-2.915
X4.05Y-3.015
X4.05Y-3.115
X4.05Y-3.215
X4.95Y-2.515
X4.95Y-2.615
X4.95Y-2.715
X4.95Y-2.815
X4.95Y-2.915
X4.95Y-3.015
X4.95Y-3.115
X4.95Y-3.215
T6
X4.71Y-4.45
X4.91Y-4.45
X4.01Y-4.445
X4.21Y-4.445
X4.41Y-4.445
T7
X3.395Y-2.8036
X3.395Y-3.1264
X3.425Y-3.7747
X3.425Y-4.07
X4.0156Y-3.7747
X4.0156Y-4.07
X4.2124Y-3.7747
X4.2124Y-4.07
X4.4093Y-3.7747
X4.4093Y-4.07
T8
X5.265Y-4.34
X3.73Y-4.34
X5.265Y-2.705
X3.73Y-2.705
T9
X4.4134Y-2.3648
X4.5866Y-2.3648
T11
X5.144Y-3.2044
X5.6165Y-3.2044
T10
G00X4.9045Y-4.118
M15
G01X4.5975Y-4.118
M16
G05
G00X5.5105Y-4.118
M15
G01X5.3215Y-4.118
M16
G05
T0
M30
