%TF.GenerationSoftware,KiCad,Pcbnew,(5.1.7)-1*%
%TF.CreationDate,2021-02-24T10:57:43+01:00*%
%TF.ProjectId,Temperature-controller-with-ESP8266,54656d70-6572-4617-9475-72652d636f6e,rev?*%
%TF.SameCoordinates,Original*%
%TF.FileFunction,Soldermask,Top*%
%TF.FilePolarity,Negative*%
%FSLAX46Y46*%
G04 Gerber Fmt 4.6, Leading zero omitted, Abs format (unit mm)*
G04 Created by KiCad (PCBNEW (5.1.7)-1) date 2021-02-24 10:57:43*
%MOMM*%
%LPD*%
G01*
G04 APERTURE LIST*
%ADD10O,1.700000X1.700000*%
%ADD11R,1.700000X1.700000*%
%ADD12R,1.200000X1.400000*%
%ADD13R,0.900000X0.800000*%
%ADD14O,0.890000X1.550000*%
%ADD15R,1.200000X1.550000*%
%ADD16R,1.500000X1.550000*%
%ADD17O,1.250000X0.950000*%
%ADD18R,0.400000X1.350000*%
%ADD19R,1.400000X1.200000*%
%ADD20R,0.800000X0.900000*%
%ADD21O,1.550000X0.890000*%
%ADD22R,1.550000X1.200000*%
%ADD23R,1.550000X1.500000*%
%ADD24O,0.950000X1.250000*%
%ADD25R,1.350000X0.400000*%
%ADD26R,1.100000X1.800000*%
%ADD27C,2.300000*%
%ADD28R,1.500000X1.500000*%
%ADD29C,1.500000*%
%ADD30R,2.500000X2.500000*%
%ADD31O,2.500000X2.500000*%
%ADD32R,1.000000X2.500000*%
%ADD33R,1.800000X1.000000*%
%ADD34R,2.000000X1.500000*%
%ADD35R,2.000000X3.800000*%
%ADD36C,1.000000*%
%ADD37R,4.000000X2.050000*%
%ADD38R,3.500000X2.050000*%
%ADD39R,3.000000X0.500000*%
%ADD40C,1.800000*%
%ADD41R,1.800000X1.800000*%
%ADD42O,3.500000X2.200000*%
%ADD43O,2.500000X1.500000*%
%ADD44R,2.500000X1.500000*%
%ADD45C,3.200000*%
%ADD46C,2.600000*%
%ADD47R,2.600000X2.600000*%
G04 APERTURE END LIST*
D10*
%TO.C,J12*%
X111252000Y-138303000D03*
X108712000Y-138303000D03*
X106172000Y-138303000D03*
X103632000Y-138303000D03*
X101092000Y-138303000D03*
X98552000Y-138303000D03*
D11*
X96012000Y-138303000D03*
%TD*%
D12*
%TO.C,Y2*%
X110932000Y-125419000D03*
X110932000Y-127819000D03*
X109032000Y-127819000D03*
X109032000Y-125419000D03*
%TD*%
%TO.C,R21*%
G36*
G01*
X99286000Y-136340001D02*
X99286000Y-135439999D01*
G75*
G02*
X99535999Y-135190000I249999J0D01*
G01*
X100061001Y-135190000D01*
G75*
G02*
X100311000Y-135439999I0J-249999D01*
G01*
X100311000Y-136340001D01*
G75*
G02*
X100061001Y-136590000I-249999J0D01*
G01*
X99535999Y-136590000D01*
G75*
G02*
X99286000Y-136340001I0J249999D01*
G01*
G37*
G36*
G01*
X101111000Y-136340001D02*
X101111000Y-135439999D01*
G75*
G02*
X101360999Y-135190000I249999J0D01*
G01*
X101886001Y-135190000D01*
G75*
G02*
X102136000Y-135439999I0J-249999D01*
G01*
X102136000Y-136340001D01*
G75*
G02*
X101886001Y-136590000I-249999J0D01*
G01*
X101360999Y-136590000D01*
G75*
G02*
X101111000Y-136340001I0J249999D01*
G01*
G37*
%TD*%
%TO.C,R19*%
G36*
G01*
X107499999Y-133449000D02*
X108400001Y-133449000D01*
G75*
G02*
X108650000Y-133698999I0J-249999D01*
G01*
X108650000Y-134224001D01*
G75*
G02*
X108400001Y-134474000I-249999J0D01*
G01*
X107499999Y-134474000D01*
G75*
G02*
X107250000Y-134224001I0J249999D01*
G01*
X107250000Y-133698999D01*
G75*
G02*
X107499999Y-133449000I249999J0D01*
G01*
G37*
G36*
G01*
X107499999Y-135274000D02*
X108400001Y-135274000D01*
G75*
G02*
X108650000Y-135523999I0J-249999D01*
G01*
X108650000Y-136049001D01*
G75*
G02*
X108400001Y-136299000I-249999J0D01*
G01*
X107499999Y-136299000D01*
G75*
G02*
X107250000Y-136049001I0J249999D01*
G01*
X107250000Y-135523999D01*
G75*
G02*
X107499999Y-135274000I249999J0D01*
G01*
G37*
%TD*%
%TO.C,R18*%
G36*
G01*
X111194001Y-134474000D02*
X110293999Y-134474000D01*
G75*
G02*
X110044000Y-134224001I0J249999D01*
G01*
X110044000Y-133698999D01*
G75*
G02*
X110293999Y-133449000I249999J0D01*
G01*
X111194001Y-133449000D01*
G75*
G02*
X111444000Y-133698999I0J-249999D01*
G01*
X111444000Y-134224001D01*
G75*
G02*
X111194001Y-134474000I-249999J0D01*
G01*
G37*
G36*
G01*
X111194001Y-136299000D02*
X110293999Y-136299000D01*
G75*
G02*
X110044000Y-136049001I0J249999D01*
G01*
X110044000Y-135523999D01*
G75*
G02*
X110293999Y-135274000I249999J0D01*
G01*
X111194001Y-135274000D01*
G75*
G02*
X111444000Y-135523999I0J-249999D01*
G01*
X111444000Y-136049001D01*
G75*
G02*
X111194001Y-136299000I-249999J0D01*
G01*
G37*
%TD*%
D13*
%TO.C,Q6*%
X96028000Y-134874000D03*
X98028000Y-133924000D03*
X98028000Y-135824000D03*
%TD*%
%TO.C,C5*%
G36*
G01*
X108532000Y-123538000D02*
X108532000Y-122588000D01*
G75*
G02*
X108782000Y-122338000I250000J0D01*
G01*
X109282000Y-122338000D01*
G75*
G02*
X109532000Y-122588000I0J-250000D01*
G01*
X109532000Y-123538000D01*
G75*
G02*
X109282000Y-123788000I-250000J0D01*
G01*
X108782000Y-123788000D01*
G75*
G02*
X108532000Y-123538000I0J250000D01*
G01*
G37*
G36*
G01*
X110432000Y-123538000D02*
X110432000Y-122588000D01*
G75*
G02*
X110682000Y-122338000I250000J0D01*
G01*
X111182000Y-122338000D01*
G75*
G02*
X111432000Y-122588000I0J-250000D01*
G01*
X111432000Y-123538000D01*
G75*
G02*
X111182000Y-123788000I-250000J0D01*
G01*
X110682000Y-123788000D01*
G75*
G02*
X110432000Y-123538000I0J250000D01*
G01*
G37*
%TD*%
D14*
%TO.C,J11*%
X99497000Y-116937000D03*
X106497000Y-116937000D03*
D15*
X100097000Y-116937000D03*
X105897000Y-116937000D03*
D16*
X101997000Y-116937000D03*
X103997000Y-116937000D03*
D17*
X100497000Y-119637000D03*
X105497000Y-119637000D03*
D18*
X101697000Y-119637000D03*
X102347000Y-119637000D03*
X102997000Y-119637000D03*
X103647000Y-119637000D03*
X104297000Y-119637000D03*
%TD*%
%TO.C,C6*%
G36*
G01*
X109466000Y-129573000D02*
X109466000Y-130523000D01*
G75*
G02*
X109216000Y-130773000I-250000J0D01*
G01*
X108716000Y-130773000D01*
G75*
G02*
X108466000Y-130523000I0J250000D01*
G01*
X108466000Y-129573000D01*
G75*
G02*
X108716000Y-129323000I250000J0D01*
G01*
X109216000Y-129323000D01*
G75*
G02*
X109466000Y-129573000I0J-250000D01*
G01*
G37*
G36*
G01*
X111366000Y-129573000D02*
X111366000Y-130523000D01*
G75*
G02*
X111116000Y-130773000I-250000J0D01*
G01*
X110616000Y-130773000D01*
G75*
G02*
X110366000Y-130523000I0J250000D01*
G01*
X110366000Y-129573000D01*
G75*
G02*
X110616000Y-129323000I250000J0D01*
G01*
X111116000Y-129323000D01*
G75*
G02*
X111366000Y-129573000I0J-250000D01*
G01*
G37*
%TD*%
D13*
%TO.C,Q5*%
X103394000Y-133924000D03*
X103394000Y-135824000D03*
X105394000Y-134874000D03*
%TD*%
%TO.C,U7*%
G36*
G01*
X101624000Y-131041000D02*
X101624000Y-131341000D01*
G75*
G02*
X101474000Y-131491000I-150000J0D01*
G01*
X99824000Y-131491000D01*
G75*
G02*
X99674000Y-131341000I0J150000D01*
G01*
X99674000Y-131041000D01*
G75*
G02*
X99824000Y-130891000I150000J0D01*
G01*
X101474000Y-130891000D01*
G75*
G02*
X101624000Y-131041000I0J-150000D01*
G01*
G37*
G36*
G01*
X101624000Y-129771000D02*
X101624000Y-130071000D01*
G75*
G02*
X101474000Y-130221000I-150000J0D01*
G01*
X99824000Y-130221000D01*
G75*
G02*
X99674000Y-130071000I0J150000D01*
G01*
X99674000Y-129771000D01*
G75*
G02*
X99824000Y-129621000I150000J0D01*
G01*
X101474000Y-129621000D01*
G75*
G02*
X101624000Y-129771000I0J-150000D01*
G01*
G37*
G36*
G01*
X101624000Y-128501000D02*
X101624000Y-128801000D01*
G75*
G02*
X101474000Y-128951000I-150000J0D01*
G01*
X99824000Y-128951000D01*
G75*
G02*
X99674000Y-128801000I0J150000D01*
G01*
X99674000Y-128501000D01*
G75*
G02*
X99824000Y-128351000I150000J0D01*
G01*
X101474000Y-128351000D01*
G75*
G02*
X101624000Y-128501000I0J-150000D01*
G01*
G37*
G36*
G01*
X101624000Y-127231000D02*
X101624000Y-127531000D01*
G75*
G02*
X101474000Y-127681000I-150000J0D01*
G01*
X99824000Y-127681000D01*
G75*
G02*
X99674000Y-127531000I0J150000D01*
G01*
X99674000Y-127231000D01*
G75*
G02*
X99824000Y-127081000I150000J0D01*
G01*
X101474000Y-127081000D01*
G75*
G02*
X101624000Y-127231000I0J-150000D01*
G01*
G37*
G36*
G01*
X101624000Y-125961000D02*
X101624000Y-126261000D01*
G75*
G02*
X101474000Y-126411000I-150000J0D01*
G01*
X99824000Y-126411000D01*
G75*
G02*
X99674000Y-126261000I0J150000D01*
G01*
X99674000Y-125961000D01*
G75*
G02*
X99824000Y-125811000I150000J0D01*
G01*
X101474000Y-125811000D01*
G75*
G02*
X101624000Y-125961000I0J-150000D01*
G01*
G37*
G36*
G01*
X101624000Y-124691000D02*
X101624000Y-124991000D01*
G75*
G02*
X101474000Y-125141000I-150000J0D01*
G01*
X99824000Y-125141000D01*
G75*
G02*
X99674000Y-124991000I0J150000D01*
G01*
X99674000Y-124691000D01*
G75*
G02*
X99824000Y-124541000I150000J0D01*
G01*
X101474000Y-124541000D01*
G75*
G02*
X101624000Y-124691000I0J-150000D01*
G01*
G37*
G36*
G01*
X101624000Y-123421000D02*
X101624000Y-123721000D01*
G75*
G02*
X101474000Y-123871000I-150000J0D01*
G01*
X99824000Y-123871000D01*
G75*
G02*
X99674000Y-123721000I0J150000D01*
G01*
X99674000Y-123421000D01*
G75*
G02*
X99824000Y-123271000I150000J0D01*
G01*
X101474000Y-123271000D01*
G75*
G02*
X101624000Y-123421000I0J-150000D01*
G01*
G37*
G36*
G01*
X101624000Y-122151000D02*
X101624000Y-122451000D01*
G75*
G02*
X101474000Y-122601000I-150000J0D01*
G01*
X99824000Y-122601000D01*
G75*
G02*
X99674000Y-122451000I0J150000D01*
G01*
X99674000Y-122151000D01*
G75*
G02*
X99824000Y-122001000I150000J0D01*
G01*
X101474000Y-122001000D01*
G75*
G02*
X101624000Y-122151000I0J-150000D01*
G01*
G37*
G36*
G01*
X106574000Y-122151000D02*
X106574000Y-122451000D01*
G75*
G02*
X106424000Y-122601000I-150000J0D01*
G01*
X104774000Y-122601000D01*
G75*
G02*
X104624000Y-122451000I0J150000D01*
G01*
X104624000Y-122151000D01*
G75*
G02*
X104774000Y-122001000I150000J0D01*
G01*
X106424000Y-122001000D01*
G75*
G02*
X106574000Y-122151000I0J-150000D01*
G01*
G37*
G36*
G01*
X106574000Y-123421000D02*
X106574000Y-123721000D01*
G75*
G02*
X106424000Y-123871000I-150000J0D01*
G01*
X104774000Y-123871000D01*
G75*
G02*
X104624000Y-123721000I0J150000D01*
G01*
X104624000Y-123421000D01*
G75*
G02*
X104774000Y-123271000I150000J0D01*
G01*
X106424000Y-123271000D01*
G75*
G02*
X106574000Y-123421000I0J-150000D01*
G01*
G37*
G36*
G01*
X106574000Y-124691000D02*
X106574000Y-124991000D01*
G75*
G02*
X106424000Y-125141000I-150000J0D01*
G01*
X104774000Y-125141000D01*
G75*
G02*
X104624000Y-124991000I0J150000D01*
G01*
X104624000Y-124691000D01*
G75*
G02*
X104774000Y-124541000I150000J0D01*
G01*
X106424000Y-124541000D01*
G75*
G02*
X106574000Y-124691000I0J-150000D01*
G01*
G37*
G36*
G01*
X106574000Y-125961000D02*
X106574000Y-126261000D01*
G75*
G02*
X106424000Y-126411000I-150000J0D01*
G01*
X104774000Y-126411000D01*
G75*
G02*
X104624000Y-126261000I0J150000D01*
G01*
X104624000Y-125961000D01*
G75*
G02*
X104774000Y-125811000I150000J0D01*
G01*
X106424000Y-125811000D01*
G75*
G02*
X106574000Y-125961000I0J-150000D01*
G01*
G37*
G36*
G01*
X106574000Y-127231000D02*
X106574000Y-127531000D01*
G75*
G02*
X106424000Y-127681000I-150000J0D01*
G01*
X104774000Y-127681000D01*
G75*
G02*
X104624000Y-127531000I0J150000D01*
G01*
X104624000Y-127231000D01*
G75*
G02*
X104774000Y-127081000I150000J0D01*
G01*
X106424000Y-127081000D01*
G75*
G02*
X106574000Y-127231000I0J-150000D01*
G01*
G37*
G36*
G01*
X106574000Y-128501000D02*
X106574000Y-128801000D01*
G75*
G02*
X106424000Y-128951000I-150000J0D01*
G01*
X104774000Y-128951000D01*
G75*
G02*
X104624000Y-128801000I0J150000D01*
G01*
X104624000Y-128501000D01*
G75*
G02*
X104774000Y-128351000I150000J0D01*
G01*
X106424000Y-128351000D01*
G75*
G02*
X106574000Y-128501000I0J-150000D01*
G01*
G37*
G36*
G01*
X106574000Y-129771000D02*
X106574000Y-130071000D01*
G75*
G02*
X106424000Y-130221000I-150000J0D01*
G01*
X104774000Y-130221000D01*
G75*
G02*
X104624000Y-130071000I0J150000D01*
G01*
X104624000Y-129771000D01*
G75*
G02*
X104774000Y-129621000I150000J0D01*
G01*
X106424000Y-129621000D01*
G75*
G02*
X106574000Y-129771000I0J-150000D01*
G01*
G37*
G36*
G01*
X106574000Y-131041000D02*
X106574000Y-131341000D01*
G75*
G02*
X106424000Y-131491000I-150000J0D01*
G01*
X104774000Y-131491000D01*
G75*
G02*
X104624000Y-131341000I0J150000D01*
G01*
X104624000Y-131041000D01*
G75*
G02*
X104774000Y-130891000I150000J0D01*
G01*
X106424000Y-130891000D01*
G75*
G02*
X106574000Y-131041000I0J-150000D01*
G01*
G37*
%TD*%
%TO.C,R20*%
G36*
G01*
X100311000Y-133407999D02*
X100311000Y-134308001D01*
G75*
G02*
X100061001Y-134558000I-249999J0D01*
G01*
X99535999Y-134558000D01*
G75*
G02*
X99286000Y-134308001I0J249999D01*
G01*
X99286000Y-133407999D01*
G75*
G02*
X99535999Y-133158000I249999J0D01*
G01*
X100061001Y-133158000D01*
G75*
G02*
X100311000Y-133407999I0J-249999D01*
G01*
G37*
G36*
G01*
X102136000Y-133407999D02*
X102136000Y-134308001D01*
G75*
G02*
X101886001Y-134558000I-249999J0D01*
G01*
X101360999Y-134558000D01*
G75*
G02*
X101111000Y-134308001I0J249999D01*
G01*
X101111000Y-133407999D01*
G75*
G02*
X101360999Y-133158000I249999J0D01*
G01*
X101886001Y-133158000D01*
G75*
G02*
X102136000Y-133407999I0J-249999D01*
G01*
G37*
%TD*%
D10*
%TO.C,J12*%
X111252000Y-109855000D03*
X108712000Y-109855000D03*
X106172000Y-109855000D03*
X103632000Y-109855000D03*
X101092000Y-109855000D03*
X98552000Y-109855000D03*
D11*
X96012000Y-109855000D03*
%TD*%
D12*
%TO.C,Y2*%
X110932000Y-96971000D03*
X110932000Y-99371000D03*
X109032000Y-99371000D03*
X109032000Y-96971000D03*
%TD*%
%TO.C,R21*%
G36*
G01*
X99286000Y-107892001D02*
X99286000Y-106991999D01*
G75*
G02*
X99535999Y-106742000I249999J0D01*
G01*
X100061001Y-106742000D01*
G75*
G02*
X100311000Y-106991999I0J-249999D01*
G01*
X100311000Y-107892001D01*
G75*
G02*
X100061001Y-108142000I-249999J0D01*
G01*
X99535999Y-108142000D01*
G75*
G02*
X99286000Y-107892001I0J249999D01*
G01*
G37*
G36*
G01*
X101111000Y-107892001D02*
X101111000Y-106991999D01*
G75*
G02*
X101360999Y-106742000I249999J0D01*
G01*
X101886001Y-106742000D01*
G75*
G02*
X102136000Y-106991999I0J-249999D01*
G01*
X102136000Y-107892001D01*
G75*
G02*
X101886001Y-108142000I-249999J0D01*
G01*
X101360999Y-108142000D01*
G75*
G02*
X101111000Y-107892001I0J249999D01*
G01*
G37*
%TD*%
%TO.C,R19*%
G36*
G01*
X107499999Y-105001000D02*
X108400001Y-105001000D01*
G75*
G02*
X108650000Y-105250999I0J-249999D01*
G01*
X108650000Y-105776001D01*
G75*
G02*
X108400001Y-106026000I-249999J0D01*
G01*
X107499999Y-106026000D01*
G75*
G02*
X107250000Y-105776001I0J249999D01*
G01*
X107250000Y-105250999D01*
G75*
G02*
X107499999Y-105001000I249999J0D01*
G01*
G37*
G36*
G01*
X107499999Y-106826000D02*
X108400001Y-106826000D01*
G75*
G02*
X108650000Y-107075999I0J-249999D01*
G01*
X108650000Y-107601001D01*
G75*
G02*
X108400001Y-107851000I-249999J0D01*
G01*
X107499999Y-107851000D01*
G75*
G02*
X107250000Y-107601001I0J249999D01*
G01*
X107250000Y-107075999D01*
G75*
G02*
X107499999Y-106826000I249999J0D01*
G01*
G37*
%TD*%
%TO.C,R18*%
G36*
G01*
X111194001Y-106026000D02*
X110293999Y-106026000D01*
G75*
G02*
X110044000Y-105776001I0J249999D01*
G01*
X110044000Y-105250999D01*
G75*
G02*
X110293999Y-105001000I249999J0D01*
G01*
X111194001Y-105001000D01*
G75*
G02*
X111444000Y-105250999I0J-249999D01*
G01*
X111444000Y-105776001D01*
G75*
G02*
X111194001Y-106026000I-249999J0D01*
G01*
G37*
G36*
G01*
X111194001Y-107851000D02*
X110293999Y-107851000D01*
G75*
G02*
X110044000Y-107601001I0J249999D01*
G01*
X110044000Y-107075999D01*
G75*
G02*
X110293999Y-106826000I249999J0D01*
G01*
X111194001Y-106826000D01*
G75*
G02*
X111444000Y-107075999I0J-249999D01*
G01*
X111444000Y-107601001D01*
G75*
G02*
X111194001Y-107851000I-249999J0D01*
G01*
G37*
%TD*%
D13*
%TO.C,Q6*%
X96028000Y-106426000D03*
X98028000Y-105476000D03*
X98028000Y-107376000D03*
%TD*%
%TO.C,C5*%
G36*
G01*
X108532000Y-95090000D02*
X108532000Y-94140000D01*
G75*
G02*
X108782000Y-93890000I250000J0D01*
G01*
X109282000Y-93890000D01*
G75*
G02*
X109532000Y-94140000I0J-250000D01*
G01*
X109532000Y-95090000D01*
G75*
G02*
X109282000Y-95340000I-250000J0D01*
G01*
X108782000Y-95340000D01*
G75*
G02*
X108532000Y-95090000I0J250000D01*
G01*
G37*
G36*
G01*
X110432000Y-95090000D02*
X110432000Y-94140000D01*
G75*
G02*
X110682000Y-93890000I250000J0D01*
G01*
X111182000Y-93890000D01*
G75*
G02*
X111432000Y-94140000I0J-250000D01*
G01*
X111432000Y-95090000D01*
G75*
G02*
X111182000Y-95340000I-250000J0D01*
G01*
X110682000Y-95340000D01*
G75*
G02*
X110432000Y-95090000I0J250000D01*
G01*
G37*
%TD*%
D14*
%TO.C,J11*%
X99497000Y-88489000D03*
X106497000Y-88489000D03*
D15*
X100097000Y-88489000D03*
X105897000Y-88489000D03*
D16*
X101997000Y-88489000D03*
X103997000Y-88489000D03*
D17*
X100497000Y-91189000D03*
X105497000Y-91189000D03*
D18*
X101697000Y-91189000D03*
X102347000Y-91189000D03*
X102997000Y-91189000D03*
X103647000Y-91189000D03*
X104297000Y-91189000D03*
%TD*%
%TO.C,C6*%
G36*
G01*
X109466000Y-101125000D02*
X109466000Y-102075000D01*
G75*
G02*
X109216000Y-102325000I-250000J0D01*
G01*
X108716000Y-102325000D01*
G75*
G02*
X108466000Y-102075000I0J250000D01*
G01*
X108466000Y-101125000D01*
G75*
G02*
X108716000Y-100875000I250000J0D01*
G01*
X109216000Y-100875000D01*
G75*
G02*
X109466000Y-101125000I0J-250000D01*
G01*
G37*
G36*
G01*
X111366000Y-101125000D02*
X111366000Y-102075000D01*
G75*
G02*
X111116000Y-102325000I-250000J0D01*
G01*
X110616000Y-102325000D01*
G75*
G02*
X110366000Y-102075000I0J250000D01*
G01*
X110366000Y-101125000D01*
G75*
G02*
X110616000Y-100875000I250000J0D01*
G01*
X111116000Y-100875000D01*
G75*
G02*
X111366000Y-101125000I0J-250000D01*
G01*
G37*
%TD*%
D13*
%TO.C,Q5*%
X103394000Y-105476000D03*
X103394000Y-107376000D03*
X105394000Y-106426000D03*
%TD*%
%TO.C,U7*%
G36*
G01*
X101624000Y-102593000D02*
X101624000Y-102893000D01*
G75*
G02*
X101474000Y-103043000I-150000J0D01*
G01*
X99824000Y-103043000D01*
G75*
G02*
X99674000Y-102893000I0J150000D01*
G01*
X99674000Y-102593000D01*
G75*
G02*
X99824000Y-102443000I150000J0D01*
G01*
X101474000Y-102443000D01*
G75*
G02*
X101624000Y-102593000I0J-150000D01*
G01*
G37*
G36*
G01*
X101624000Y-101323000D02*
X101624000Y-101623000D01*
G75*
G02*
X101474000Y-101773000I-150000J0D01*
G01*
X99824000Y-101773000D01*
G75*
G02*
X99674000Y-101623000I0J150000D01*
G01*
X99674000Y-101323000D01*
G75*
G02*
X99824000Y-101173000I150000J0D01*
G01*
X101474000Y-101173000D01*
G75*
G02*
X101624000Y-101323000I0J-150000D01*
G01*
G37*
G36*
G01*
X101624000Y-100053000D02*
X101624000Y-100353000D01*
G75*
G02*
X101474000Y-100503000I-150000J0D01*
G01*
X99824000Y-100503000D01*
G75*
G02*
X99674000Y-100353000I0J150000D01*
G01*
X99674000Y-100053000D01*
G75*
G02*
X99824000Y-99903000I150000J0D01*
G01*
X101474000Y-99903000D01*
G75*
G02*
X101624000Y-100053000I0J-150000D01*
G01*
G37*
G36*
G01*
X101624000Y-98783000D02*
X101624000Y-99083000D01*
G75*
G02*
X101474000Y-99233000I-150000J0D01*
G01*
X99824000Y-99233000D01*
G75*
G02*
X99674000Y-99083000I0J150000D01*
G01*
X99674000Y-98783000D01*
G75*
G02*
X99824000Y-98633000I150000J0D01*
G01*
X101474000Y-98633000D01*
G75*
G02*
X101624000Y-98783000I0J-150000D01*
G01*
G37*
G36*
G01*
X101624000Y-97513000D02*
X101624000Y-97813000D01*
G75*
G02*
X101474000Y-97963000I-150000J0D01*
G01*
X99824000Y-97963000D01*
G75*
G02*
X99674000Y-97813000I0J150000D01*
G01*
X99674000Y-97513000D01*
G75*
G02*
X99824000Y-97363000I150000J0D01*
G01*
X101474000Y-97363000D01*
G75*
G02*
X101624000Y-97513000I0J-150000D01*
G01*
G37*
G36*
G01*
X101624000Y-96243000D02*
X101624000Y-96543000D01*
G75*
G02*
X101474000Y-96693000I-150000J0D01*
G01*
X99824000Y-96693000D01*
G75*
G02*
X99674000Y-96543000I0J150000D01*
G01*
X99674000Y-96243000D01*
G75*
G02*
X99824000Y-96093000I150000J0D01*
G01*
X101474000Y-96093000D01*
G75*
G02*
X101624000Y-96243000I0J-150000D01*
G01*
G37*
G36*
G01*
X101624000Y-94973000D02*
X101624000Y-95273000D01*
G75*
G02*
X101474000Y-95423000I-150000J0D01*
G01*
X99824000Y-95423000D01*
G75*
G02*
X99674000Y-95273000I0J150000D01*
G01*
X99674000Y-94973000D01*
G75*
G02*
X99824000Y-94823000I150000J0D01*
G01*
X101474000Y-94823000D01*
G75*
G02*
X101624000Y-94973000I0J-150000D01*
G01*
G37*
G36*
G01*
X101624000Y-93703000D02*
X101624000Y-94003000D01*
G75*
G02*
X101474000Y-94153000I-150000J0D01*
G01*
X99824000Y-94153000D01*
G75*
G02*
X99674000Y-94003000I0J150000D01*
G01*
X99674000Y-93703000D01*
G75*
G02*
X99824000Y-93553000I150000J0D01*
G01*
X101474000Y-93553000D01*
G75*
G02*
X101624000Y-93703000I0J-150000D01*
G01*
G37*
G36*
G01*
X106574000Y-93703000D02*
X106574000Y-94003000D01*
G75*
G02*
X106424000Y-94153000I-150000J0D01*
G01*
X104774000Y-94153000D01*
G75*
G02*
X104624000Y-94003000I0J150000D01*
G01*
X104624000Y-93703000D01*
G75*
G02*
X104774000Y-93553000I150000J0D01*
G01*
X106424000Y-93553000D01*
G75*
G02*
X106574000Y-93703000I0J-150000D01*
G01*
G37*
G36*
G01*
X106574000Y-94973000D02*
X106574000Y-95273000D01*
G75*
G02*
X106424000Y-95423000I-150000J0D01*
G01*
X104774000Y-95423000D01*
G75*
G02*
X104624000Y-95273000I0J150000D01*
G01*
X104624000Y-94973000D01*
G75*
G02*
X104774000Y-94823000I150000J0D01*
G01*
X106424000Y-94823000D01*
G75*
G02*
X106574000Y-94973000I0J-150000D01*
G01*
G37*
G36*
G01*
X106574000Y-96243000D02*
X106574000Y-96543000D01*
G75*
G02*
X106424000Y-96693000I-150000J0D01*
G01*
X104774000Y-96693000D01*
G75*
G02*
X104624000Y-96543000I0J150000D01*
G01*
X104624000Y-96243000D01*
G75*
G02*
X104774000Y-96093000I150000J0D01*
G01*
X106424000Y-96093000D01*
G75*
G02*
X106574000Y-96243000I0J-150000D01*
G01*
G37*
G36*
G01*
X106574000Y-97513000D02*
X106574000Y-97813000D01*
G75*
G02*
X106424000Y-97963000I-150000J0D01*
G01*
X104774000Y-97963000D01*
G75*
G02*
X104624000Y-97813000I0J150000D01*
G01*
X104624000Y-97513000D01*
G75*
G02*
X104774000Y-97363000I150000J0D01*
G01*
X106424000Y-97363000D01*
G75*
G02*
X106574000Y-97513000I0J-150000D01*
G01*
G37*
G36*
G01*
X106574000Y-98783000D02*
X106574000Y-99083000D01*
G75*
G02*
X106424000Y-99233000I-150000J0D01*
G01*
X104774000Y-99233000D01*
G75*
G02*
X104624000Y-99083000I0J150000D01*
G01*
X104624000Y-98783000D01*
G75*
G02*
X104774000Y-98633000I150000J0D01*
G01*
X106424000Y-98633000D01*
G75*
G02*
X106574000Y-98783000I0J-150000D01*
G01*
G37*
G36*
G01*
X106574000Y-100053000D02*
X106574000Y-100353000D01*
G75*
G02*
X106424000Y-100503000I-150000J0D01*
G01*
X104774000Y-100503000D01*
G75*
G02*
X104624000Y-100353000I0J150000D01*
G01*
X104624000Y-100053000D01*
G75*
G02*
X104774000Y-99903000I150000J0D01*
G01*
X106424000Y-99903000D01*
G75*
G02*
X106574000Y-100053000I0J-150000D01*
G01*
G37*
G36*
G01*
X106574000Y-101323000D02*
X106574000Y-101623000D01*
G75*
G02*
X106424000Y-101773000I-150000J0D01*
G01*
X104774000Y-101773000D01*
G75*
G02*
X104624000Y-101623000I0J150000D01*
G01*
X104624000Y-101323000D01*
G75*
G02*
X104774000Y-101173000I150000J0D01*
G01*
X106424000Y-101173000D01*
G75*
G02*
X106574000Y-101323000I0J-150000D01*
G01*
G37*
G36*
G01*
X106574000Y-102593000D02*
X106574000Y-102893000D01*
G75*
G02*
X106424000Y-103043000I-150000J0D01*
G01*
X104774000Y-103043000D01*
G75*
G02*
X104624000Y-102893000I0J150000D01*
G01*
X104624000Y-102593000D01*
G75*
G02*
X104774000Y-102443000I150000J0D01*
G01*
X106424000Y-102443000D01*
G75*
G02*
X106574000Y-102593000I0J-150000D01*
G01*
G37*
%TD*%
%TO.C,R20*%
G36*
G01*
X100311000Y-104959999D02*
X100311000Y-105860001D01*
G75*
G02*
X100061001Y-106110000I-249999J0D01*
G01*
X99535999Y-106110000D01*
G75*
G02*
X99286000Y-105860001I0J249999D01*
G01*
X99286000Y-104959999D01*
G75*
G02*
X99535999Y-104710000I249999J0D01*
G01*
X100061001Y-104710000D01*
G75*
G02*
X100311000Y-104959999I0J-249999D01*
G01*
G37*
G36*
G01*
X102136000Y-104959999D02*
X102136000Y-105860001D01*
G75*
G02*
X101886001Y-106110000I-249999J0D01*
G01*
X101360999Y-106110000D01*
G75*
G02*
X101111000Y-105860001I0J249999D01*
G01*
X101111000Y-104959999D01*
G75*
G02*
X101360999Y-104710000I249999J0D01*
G01*
X101886001Y-104710000D01*
G75*
G02*
X102136000Y-104959999I0J-249999D01*
G01*
G37*
%TD*%
D10*
%TO.C,J12*%
X96012000Y-81407000D03*
X96012000Y-78867000D03*
X96012000Y-76327000D03*
X96012000Y-73787000D03*
X96012000Y-71247000D03*
X96012000Y-68707000D03*
D11*
X96012000Y-66167000D03*
%TD*%
D19*
%TO.C,Y2*%
X108896000Y-81087000D03*
X106496000Y-81087000D03*
X106496000Y-79187000D03*
X108896000Y-79187000D03*
%TD*%
%TO.C,R21*%
G36*
G01*
X97974999Y-69441000D02*
X98875001Y-69441000D01*
G75*
G02*
X99125000Y-69690999I0J-249999D01*
G01*
X99125000Y-70216001D01*
G75*
G02*
X98875001Y-70466000I-249999J0D01*
G01*
X97974999Y-70466000D01*
G75*
G02*
X97725000Y-70216001I0J249999D01*
G01*
X97725000Y-69690999D01*
G75*
G02*
X97974999Y-69441000I249999J0D01*
G01*
G37*
G36*
G01*
X97974999Y-71266000D02*
X98875001Y-71266000D01*
G75*
G02*
X99125000Y-71515999I0J-249999D01*
G01*
X99125000Y-72041001D01*
G75*
G02*
X98875001Y-72291000I-249999J0D01*
G01*
X97974999Y-72291000D01*
G75*
G02*
X97725000Y-72041001I0J249999D01*
G01*
X97725000Y-71515999D01*
G75*
G02*
X97974999Y-71266000I249999J0D01*
G01*
G37*
%TD*%
%TO.C,R19*%
G36*
G01*
X100866000Y-77654999D02*
X100866000Y-78555001D01*
G75*
G02*
X100616001Y-78805000I-249999J0D01*
G01*
X100090999Y-78805000D01*
G75*
G02*
X99841000Y-78555001I0J249999D01*
G01*
X99841000Y-77654999D01*
G75*
G02*
X100090999Y-77405000I249999J0D01*
G01*
X100616001Y-77405000D01*
G75*
G02*
X100866000Y-77654999I0J-249999D01*
G01*
G37*
G36*
G01*
X99041000Y-77654999D02*
X99041000Y-78555001D01*
G75*
G02*
X98791001Y-78805000I-249999J0D01*
G01*
X98265999Y-78805000D01*
G75*
G02*
X98016000Y-78555001I0J249999D01*
G01*
X98016000Y-77654999D01*
G75*
G02*
X98265999Y-77405000I249999J0D01*
G01*
X98791001Y-77405000D01*
G75*
G02*
X99041000Y-77654999I0J-249999D01*
G01*
G37*
%TD*%
%TO.C,R18*%
G36*
G01*
X99841000Y-81349001D02*
X99841000Y-80448999D01*
G75*
G02*
X100090999Y-80199000I249999J0D01*
G01*
X100616001Y-80199000D01*
G75*
G02*
X100866000Y-80448999I0J-249999D01*
G01*
X100866000Y-81349001D01*
G75*
G02*
X100616001Y-81599000I-249999J0D01*
G01*
X100090999Y-81599000D01*
G75*
G02*
X99841000Y-81349001I0J249999D01*
G01*
G37*
G36*
G01*
X98016000Y-81349001D02*
X98016000Y-80448999D01*
G75*
G02*
X98265999Y-80199000I249999J0D01*
G01*
X98791001Y-80199000D01*
G75*
G02*
X99041000Y-80448999I0J-249999D01*
G01*
X99041000Y-81349001D01*
G75*
G02*
X98791001Y-81599000I-249999J0D01*
G01*
X98265999Y-81599000D01*
G75*
G02*
X98016000Y-81349001I0J249999D01*
G01*
G37*
%TD*%
D20*
%TO.C,Q6*%
X99441000Y-66183000D03*
X100391000Y-68183000D03*
X98491000Y-68183000D03*
%TD*%
%TO.C,C5*%
G36*
G01*
X110777000Y-78687000D02*
X111727000Y-78687000D01*
G75*
G02*
X111977000Y-78937000I0J-250000D01*
G01*
X111977000Y-79437000D01*
G75*
G02*
X111727000Y-79687000I-250000J0D01*
G01*
X110777000Y-79687000D01*
G75*
G02*
X110527000Y-79437000I0J250000D01*
G01*
X110527000Y-78937000D01*
G75*
G02*
X110777000Y-78687000I250000J0D01*
G01*
G37*
G36*
G01*
X110777000Y-80587000D02*
X111727000Y-80587000D01*
G75*
G02*
X111977000Y-80837000I0J-250000D01*
G01*
X111977000Y-81337000D01*
G75*
G02*
X111727000Y-81587000I-250000J0D01*
G01*
X110777000Y-81587000D01*
G75*
G02*
X110527000Y-81337000I0J250000D01*
G01*
X110527000Y-80837000D01*
G75*
G02*
X110777000Y-80587000I250000J0D01*
G01*
G37*
%TD*%
D21*
%TO.C,J11*%
X117378000Y-69652000D03*
X117378000Y-76652000D03*
D22*
X117378000Y-70252000D03*
X117378000Y-76052000D03*
D23*
X117378000Y-72152000D03*
X117378000Y-74152000D03*
D24*
X114678000Y-70652000D03*
X114678000Y-75652000D03*
D25*
X114678000Y-71852000D03*
X114678000Y-72502000D03*
X114678000Y-73152000D03*
X114678000Y-73802000D03*
X114678000Y-74452000D03*
%TD*%
%TO.C,C6*%
G36*
G01*
X104742000Y-79621000D02*
X103792000Y-79621000D01*
G75*
G02*
X103542000Y-79371000I0J250000D01*
G01*
X103542000Y-78871000D01*
G75*
G02*
X103792000Y-78621000I250000J0D01*
G01*
X104742000Y-78621000D01*
G75*
G02*
X104992000Y-78871000I0J-250000D01*
G01*
X104992000Y-79371000D01*
G75*
G02*
X104742000Y-79621000I-250000J0D01*
G01*
G37*
G36*
G01*
X104742000Y-81521000D02*
X103792000Y-81521000D01*
G75*
G02*
X103542000Y-81271000I0J250000D01*
G01*
X103542000Y-80771000D01*
G75*
G02*
X103792000Y-80521000I250000J0D01*
G01*
X104742000Y-80521000D01*
G75*
G02*
X104992000Y-80771000I0J-250000D01*
G01*
X104992000Y-81271000D01*
G75*
G02*
X104742000Y-81521000I-250000J0D01*
G01*
G37*
%TD*%
D20*
%TO.C,Q5*%
X100391000Y-73549000D03*
X98491000Y-73549000D03*
X99441000Y-75549000D03*
%TD*%
%TO.C,U7*%
G36*
G01*
X103274000Y-71779000D02*
X102974000Y-71779000D01*
G75*
G02*
X102824000Y-71629000I0J150000D01*
G01*
X102824000Y-69979000D01*
G75*
G02*
X102974000Y-69829000I150000J0D01*
G01*
X103274000Y-69829000D01*
G75*
G02*
X103424000Y-69979000I0J-150000D01*
G01*
X103424000Y-71629000D01*
G75*
G02*
X103274000Y-71779000I-150000J0D01*
G01*
G37*
G36*
G01*
X104544000Y-71779000D02*
X104244000Y-71779000D01*
G75*
G02*
X104094000Y-71629000I0J150000D01*
G01*
X104094000Y-69979000D01*
G75*
G02*
X104244000Y-69829000I150000J0D01*
G01*
X104544000Y-69829000D01*
G75*
G02*
X104694000Y-69979000I0J-150000D01*
G01*
X104694000Y-71629000D01*
G75*
G02*
X104544000Y-71779000I-150000J0D01*
G01*
G37*
G36*
G01*
X105814000Y-71779000D02*
X105514000Y-71779000D01*
G75*
G02*
X105364000Y-71629000I0J150000D01*
G01*
X105364000Y-69979000D01*
G75*
G02*
X105514000Y-69829000I150000J0D01*
G01*
X105814000Y-69829000D01*
G75*
G02*
X105964000Y-69979000I0J-150000D01*
G01*
X105964000Y-71629000D01*
G75*
G02*
X105814000Y-71779000I-150000J0D01*
G01*
G37*
G36*
G01*
X107084000Y-71779000D02*
X106784000Y-71779000D01*
G75*
G02*
X106634000Y-71629000I0J150000D01*
G01*
X106634000Y-69979000D01*
G75*
G02*
X106784000Y-69829000I150000J0D01*
G01*
X107084000Y-69829000D01*
G75*
G02*
X107234000Y-69979000I0J-150000D01*
G01*
X107234000Y-71629000D01*
G75*
G02*
X107084000Y-71779000I-150000J0D01*
G01*
G37*
G36*
G01*
X108354000Y-71779000D02*
X108054000Y-71779000D01*
G75*
G02*
X107904000Y-71629000I0J150000D01*
G01*
X107904000Y-69979000D01*
G75*
G02*
X108054000Y-69829000I150000J0D01*
G01*
X108354000Y-69829000D01*
G75*
G02*
X108504000Y-69979000I0J-150000D01*
G01*
X108504000Y-71629000D01*
G75*
G02*
X108354000Y-71779000I-150000J0D01*
G01*
G37*
G36*
G01*
X109624000Y-71779000D02*
X109324000Y-71779000D01*
G75*
G02*
X109174000Y-71629000I0J150000D01*
G01*
X109174000Y-69979000D01*
G75*
G02*
X109324000Y-69829000I150000J0D01*
G01*
X109624000Y-69829000D01*
G75*
G02*
X109774000Y-69979000I0J-150000D01*
G01*
X109774000Y-71629000D01*
G75*
G02*
X109624000Y-71779000I-150000J0D01*
G01*
G37*
G36*
G01*
X110894000Y-71779000D02*
X110594000Y-71779000D01*
G75*
G02*
X110444000Y-71629000I0J150000D01*
G01*
X110444000Y-69979000D01*
G75*
G02*
X110594000Y-69829000I150000J0D01*
G01*
X110894000Y-69829000D01*
G75*
G02*
X111044000Y-69979000I0J-150000D01*
G01*
X111044000Y-71629000D01*
G75*
G02*
X110894000Y-71779000I-150000J0D01*
G01*
G37*
G36*
G01*
X112164000Y-71779000D02*
X111864000Y-71779000D01*
G75*
G02*
X111714000Y-71629000I0J150000D01*
G01*
X111714000Y-69979000D01*
G75*
G02*
X111864000Y-69829000I150000J0D01*
G01*
X112164000Y-69829000D01*
G75*
G02*
X112314000Y-69979000I0J-150000D01*
G01*
X112314000Y-71629000D01*
G75*
G02*
X112164000Y-71779000I-150000J0D01*
G01*
G37*
G36*
G01*
X112164000Y-76729000D02*
X111864000Y-76729000D01*
G75*
G02*
X111714000Y-76579000I0J150000D01*
G01*
X111714000Y-74929000D01*
G75*
G02*
X111864000Y-74779000I150000J0D01*
G01*
X112164000Y-74779000D01*
G75*
G02*
X112314000Y-74929000I0J-150000D01*
G01*
X112314000Y-76579000D01*
G75*
G02*
X112164000Y-76729000I-150000J0D01*
G01*
G37*
G36*
G01*
X110894000Y-76729000D02*
X110594000Y-76729000D01*
G75*
G02*
X110444000Y-76579000I0J150000D01*
G01*
X110444000Y-74929000D01*
G75*
G02*
X110594000Y-74779000I150000J0D01*
G01*
X110894000Y-74779000D01*
G75*
G02*
X111044000Y-74929000I0J-150000D01*
G01*
X111044000Y-76579000D01*
G75*
G02*
X110894000Y-76729000I-150000J0D01*
G01*
G37*
G36*
G01*
X109624000Y-76729000D02*
X109324000Y-76729000D01*
G75*
G02*
X109174000Y-76579000I0J150000D01*
G01*
X109174000Y-74929000D01*
G75*
G02*
X109324000Y-74779000I150000J0D01*
G01*
X109624000Y-74779000D01*
G75*
G02*
X109774000Y-74929000I0J-150000D01*
G01*
X109774000Y-76579000D01*
G75*
G02*
X109624000Y-76729000I-150000J0D01*
G01*
G37*
G36*
G01*
X108354000Y-76729000D02*
X108054000Y-76729000D01*
G75*
G02*
X107904000Y-76579000I0J150000D01*
G01*
X107904000Y-74929000D01*
G75*
G02*
X108054000Y-74779000I150000J0D01*
G01*
X108354000Y-74779000D01*
G75*
G02*
X108504000Y-74929000I0J-150000D01*
G01*
X108504000Y-76579000D01*
G75*
G02*
X108354000Y-76729000I-150000J0D01*
G01*
G37*
G36*
G01*
X107084000Y-76729000D02*
X106784000Y-76729000D01*
G75*
G02*
X106634000Y-76579000I0J150000D01*
G01*
X106634000Y-74929000D01*
G75*
G02*
X106784000Y-74779000I150000J0D01*
G01*
X107084000Y-74779000D01*
G75*
G02*
X107234000Y-74929000I0J-150000D01*
G01*
X107234000Y-76579000D01*
G75*
G02*
X107084000Y-76729000I-150000J0D01*
G01*
G37*
G36*
G01*
X105814000Y-76729000D02*
X105514000Y-76729000D01*
G75*
G02*
X105364000Y-76579000I0J150000D01*
G01*
X105364000Y-74929000D01*
G75*
G02*
X105514000Y-74779000I150000J0D01*
G01*
X105814000Y-74779000D01*
G75*
G02*
X105964000Y-74929000I0J-150000D01*
G01*
X105964000Y-76579000D01*
G75*
G02*
X105814000Y-76729000I-150000J0D01*
G01*
G37*
G36*
G01*
X104544000Y-76729000D02*
X104244000Y-76729000D01*
G75*
G02*
X104094000Y-76579000I0J150000D01*
G01*
X104094000Y-74929000D01*
G75*
G02*
X104244000Y-74779000I150000J0D01*
G01*
X104544000Y-74779000D01*
G75*
G02*
X104694000Y-74929000I0J-150000D01*
G01*
X104694000Y-76579000D01*
G75*
G02*
X104544000Y-76729000I-150000J0D01*
G01*
G37*
G36*
G01*
X103274000Y-76729000D02*
X102974000Y-76729000D01*
G75*
G02*
X102824000Y-76579000I0J150000D01*
G01*
X102824000Y-74929000D01*
G75*
G02*
X102974000Y-74779000I150000J0D01*
G01*
X103274000Y-74779000D01*
G75*
G02*
X103424000Y-74929000I0J-150000D01*
G01*
X103424000Y-76579000D01*
G75*
G02*
X103274000Y-76729000I-150000J0D01*
G01*
G37*
%TD*%
%TO.C,R20*%
G36*
G01*
X100907001Y-70466000D02*
X100006999Y-70466000D01*
G75*
G02*
X99757000Y-70216001I0J249999D01*
G01*
X99757000Y-69690999D01*
G75*
G02*
X100006999Y-69441000I249999J0D01*
G01*
X100907001Y-69441000D01*
G75*
G02*
X101157000Y-69690999I0J-249999D01*
G01*
X101157000Y-70216001D01*
G75*
G02*
X100907001Y-70466000I-249999J0D01*
G01*
G37*
G36*
G01*
X100907001Y-72291000D02*
X100006999Y-72291000D01*
G75*
G02*
X99757000Y-72041001I0J249999D01*
G01*
X99757000Y-71515999D01*
G75*
G02*
X100006999Y-71266000I249999J0D01*
G01*
X100907001Y-71266000D01*
G75*
G02*
X101157000Y-71515999I0J-249999D01*
G01*
X101157000Y-72041001D01*
G75*
G02*
X100907001Y-72291000I-249999J0D01*
G01*
G37*
%TD*%
%TO.C,C3*%
G36*
G01*
X138717000Y-129482000D02*
X139667000Y-129482000D01*
G75*
G02*
X139917000Y-129732000I0J-250000D01*
G01*
X139917000Y-130232000D01*
G75*
G02*
X139667000Y-130482000I-250000J0D01*
G01*
X138717000Y-130482000D01*
G75*
G02*
X138467000Y-130232000I0J250000D01*
G01*
X138467000Y-129732000D01*
G75*
G02*
X138717000Y-129482000I250000J0D01*
G01*
G37*
G36*
G01*
X138717000Y-127582000D02*
X139667000Y-127582000D01*
G75*
G02*
X139917000Y-127832000I0J-250000D01*
G01*
X139917000Y-128332000D01*
G75*
G02*
X139667000Y-128582000I-250000J0D01*
G01*
X138717000Y-128582000D01*
G75*
G02*
X138467000Y-128332000I0J250000D01*
G01*
X138467000Y-127832000D01*
G75*
G02*
X138717000Y-127582000I250000J0D01*
G01*
G37*
%TD*%
D26*
%TO.C,SW1*%
X146884000Y-127710000D03*
X146884000Y-133910000D03*
X143184000Y-127710000D03*
X143184000Y-133910000D03*
%TD*%
D27*
%TO.C,J5*%
X122287000Y-107925000D03*
D28*
X124587000Y-112395000D03*
D29*
X127127000Y-113415000D03*
X124587000Y-114435000D03*
D27*
X122287000Y-119925000D03*
D29*
X127127000Y-115455000D03*
%TD*%
%TO.C,R8*%
G36*
G01*
X157168002Y-136252000D02*
X156267998Y-136252000D01*
G75*
G02*
X156018000Y-136002002I0J249998D01*
G01*
X156018000Y-135476998D01*
G75*
G02*
X156267998Y-135227000I249998J0D01*
G01*
X157168002Y-135227000D01*
G75*
G02*
X157418000Y-135476998I0J-249998D01*
G01*
X157418000Y-136002002D01*
G75*
G02*
X157168002Y-136252000I-249998J0D01*
G01*
G37*
G36*
G01*
X157168002Y-138077000D02*
X156267998Y-138077000D01*
G75*
G02*
X156018000Y-137827002I0J249998D01*
G01*
X156018000Y-137301998D01*
G75*
G02*
X156267998Y-137052000I249998J0D01*
G01*
X157168002Y-137052000D01*
G75*
G02*
X157418000Y-137301998I0J-249998D01*
G01*
X157418000Y-137827002D01*
G75*
G02*
X157168002Y-138077000I-249998J0D01*
G01*
G37*
%TD*%
%TO.C,U6*%
G36*
G01*
X147678000Y-100814000D02*
X147978000Y-100814000D01*
G75*
G02*
X148128000Y-100964000I0J-150000D01*
G01*
X148128000Y-102614000D01*
G75*
G02*
X147978000Y-102764000I-150000J0D01*
G01*
X147678000Y-102764000D01*
G75*
G02*
X147528000Y-102614000I0J150000D01*
G01*
X147528000Y-100964000D01*
G75*
G02*
X147678000Y-100814000I150000J0D01*
G01*
G37*
G36*
G01*
X146408000Y-100814000D02*
X146708000Y-100814000D01*
G75*
G02*
X146858000Y-100964000I0J-150000D01*
G01*
X146858000Y-102614000D01*
G75*
G02*
X146708000Y-102764000I-150000J0D01*
G01*
X146408000Y-102764000D01*
G75*
G02*
X146258000Y-102614000I0J150000D01*
G01*
X146258000Y-100964000D01*
G75*
G02*
X146408000Y-100814000I150000J0D01*
G01*
G37*
G36*
G01*
X145138000Y-100814000D02*
X145438000Y-100814000D01*
G75*
G02*
X145588000Y-100964000I0J-150000D01*
G01*
X145588000Y-102614000D01*
G75*
G02*
X145438000Y-102764000I-150000J0D01*
G01*
X145138000Y-102764000D01*
G75*
G02*
X144988000Y-102614000I0J150000D01*
G01*
X144988000Y-100964000D01*
G75*
G02*
X145138000Y-100814000I150000J0D01*
G01*
G37*
G36*
G01*
X143868000Y-100814000D02*
X144168000Y-100814000D01*
G75*
G02*
X144318000Y-100964000I0J-150000D01*
G01*
X144318000Y-102614000D01*
G75*
G02*
X144168000Y-102764000I-150000J0D01*
G01*
X143868000Y-102764000D01*
G75*
G02*
X143718000Y-102614000I0J150000D01*
G01*
X143718000Y-100964000D01*
G75*
G02*
X143868000Y-100814000I150000J0D01*
G01*
G37*
G36*
G01*
X143868000Y-95864000D02*
X144168000Y-95864000D01*
G75*
G02*
X144318000Y-96014000I0J-150000D01*
G01*
X144318000Y-97664000D01*
G75*
G02*
X144168000Y-97814000I-150000J0D01*
G01*
X143868000Y-97814000D01*
G75*
G02*
X143718000Y-97664000I0J150000D01*
G01*
X143718000Y-96014000D01*
G75*
G02*
X143868000Y-95864000I150000J0D01*
G01*
G37*
G36*
G01*
X145138000Y-95864000D02*
X145438000Y-95864000D01*
G75*
G02*
X145588000Y-96014000I0J-150000D01*
G01*
X145588000Y-97664000D01*
G75*
G02*
X145438000Y-97814000I-150000J0D01*
G01*
X145138000Y-97814000D01*
G75*
G02*
X144988000Y-97664000I0J150000D01*
G01*
X144988000Y-96014000D01*
G75*
G02*
X145138000Y-95864000I150000J0D01*
G01*
G37*
G36*
G01*
X146408000Y-95864000D02*
X146708000Y-95864000D01*
G75*
G02*
X146858000Y-96014000I0J-150000D01*
G01*
X146858000Y-97664000D01*
G75*
G02*
X146708000Y-97814000I-150000J0D01*
G01*
X146408000Y-97814000D01*
G75*
G02*
X146258000Y-97664000I0J150000D01*
G01*
X146258000Y-96014000D01*
G75*
G02*
X146408000Y-95864000I150000J0D01*
G01*
G37*
G36*
G01*
X147678000Y-95864000D02*
X147978000Y-95864000D01*
G75*
G02*
X148128000Y-96014000I0J-150000D01*
G01*
X148128000Y-97664000D01*
G75*
G02*
X147978000Y-97814000I-150000J0D01*
G01*
X147678000Y-97814000D01*
G75*
G02*
X147528000Y-97664000I0J150000D01*
G01*
X147528000Y-96014000D01*
G75*
G02*
X147678000Y-95864000I150000J0D01*
G01*
G37*
%TD*%
%TO.C,R4*%
G36*
G01*
X152203998Y-100222000D02*
X153104002Y-100222000D01*
G75*
G02*
X153354000Y-100471998I0J-249998D01*
G01*
X153354000Y-100997002D01*
G75*
G02*
X153104002Y-101247000I-249998J0D01*
G01*
X152203998Y-101247000D01*
G75*
G02*
X151954000Y-100997002I0J249998D01*
G01*
X151954000Y-100471998D01*
G75*
G02*
X152203998Y-100222000I249998J0D01*
G01*
G37*
G36*
G01*
X152203998Y-98397000D02*
X153104002Y-98397000D01*
G75*
G02*
X153354000Y-98646998I0J-249998D01*
G01*
X153354000Y-99172002D01*
G75*
G02*
X153104002Y-99422000I-249998J0D01*
G01*
X152203998Y-99422000D01*
G75*
G02*
X151954000Y-99172002I0J249998D01*
G01*
X151954000Y-98646998D01*
G75*
G02*
X152203998Y-98397000I249998J0D01*
G01*
G37*
%TD*%
%TO.C,R3*%
G36*
G01*
X157041002Y-99422000D02*
X156140998Y-99422000D01*
G75*
G02*
X155891000Y-99172002I0J249998D01*
G01*
X155891000Y-98646998D01*
G75*
G02*
X156140998Y-98397000I249998J0D01*
G01*
X157041002Y-98397000D01*
G75*
G02*
X157291000Y-98646998I0J-249998D01*
G01*
X157291000Y-99172002D01*
G75*
G02*
X157041002Y-99422000I-249998J0D01*
G01*
G37*
G36*
G01*
X157041002Y-101247000D02*
X156140998Y-101247000D01*
G75*
G02*
X155891000Y-100997002I0J249998D01*
G01*
X155891000Y-100471998D01*
G75*
G02*
X156140998Y-100222000I249998J0D01*
G01*
X157041002Y-100222000D01*
G75*
G02*
X157291000Y-100471998I0J-249998D01*
G01*
X157291000Y-100997002D01*
G75*
G02*
X157041002Y-101247000I-249998J0D01*
G01*
G37*
%TD*%
%TO.C,R10*%
G36*
G01*
X165169002Y-99422000D02*
X164268998Y-99422000D01*
G75*
G02*
X164019000Y-99172002I0J249998D01*
G01*
X164019000Y-98646998D01*
G75*
G02*
X164268998Y-98397000I249998J0D01*
G01*
X165169002Y-98397000D01*
G75*
G02*
X165419000Y-98646998I0J-249998D01*
G01*
X165419000Y-99172002D01*
G75*
G02*
X165169002Y-99422000I-249998J0D01*
G01*
G37*
G36*
G01*
X165169002Y-101247000D02*
X164268998Y-101247000D01*
G75*
G02*
X164019000Y-100997002I0J249998D01*
G01*
X164019000Y-100471998D01*
G75*
G02*
X164268998Y-100222000I249998J0D01*
G01*
X165169002Y-100222000D01*
G75*
G02*
X165419000Y-100471998I0J-249998D01*
G01*
X165419000Y-100997002D01*
G75*
G02*
X165169002Y-101247000I-249998J0D01*
G01*
G37*
%TD*%
%TO.C,R9*%
G36*
G01*
X170884002Y-111741000D02*
X169983998Y-111741000D01*
G75*
G02*
X169734000Y-111491002I0J249998D01*
G01*
X169734000Y-110965998D01*
G75*
G02*
X169983998Y-110716000I249998J0D01*
G01*
X170884002Y-110716000D01*
G75*
G02*
X171134000Y-110965998I0J-249998D01*
G01*
X171134000Y-111491002D01*
G75*
G02*
X170884002Y-111741000I-249998J0D01*
G01*
G37*
G36*
G01*
X170884002Y-113566000D02*
X169983998Y-113566000D01*
G75*
G02*
X169734000Y-113316002I0J249998D01*
G01*
X169734000Y-112790998D01*
G75*
G02*
X169983998Y-112541000I249998J0D01*
G01*
X170884002Y-112541000D01*
G75*
G02*
X171134000Y-112790998I0J-249998D01*
G01*
X171134000Y-113316002D01*
G75*
G02*
X170884002Y-113566000I-249998J0D01*
G01*
G37*
%TD*%
%TO.C,R7*%
G36*
G01*
X161232002Y-99422000D02*
X160331998Y-99422000D01*
G75*
G02*
X160082000Y-99172002I0J249998D01*
G01*
X160082000Y-98646998D01*
G75*
G02*
X160331998Y-98397000I249998J0D01*
G01*
X161232002Y-98397000D01*
G75*
G02*
X161482000Y-98646998I0J-249998D01*
G01*
X161482000Y-99172002D01*
G75*
G02*
X161232002Y-99422000I-249998J0D01*
G01*
G37*
G36*
G01*
X161232002Y-101247000D02*
X160331998Y-101247000D01*
G75*
G02*
X160082000Y-100997002I0J249998D01*
G01*
X160082000Y-100471998D01*
G75*
G02*
X160331998Y-100222000I249998J0D01*
G01*
X161232002Y-100222000D01*
G75*
G02*
X161482000Y-100471998I0J-249998D01*
G01*
X161482000Y-100997002D01*
G75*
G02*
X161232002Y-101247000I-249998J0D01*
G01*
G37*
%TD*%
D10*
%TO.C,J2*%
X140716000Y-121793000D03*
X140716000Y-119253000D03*
X140716000Y-116713000D03*
D11*
X140716000Y-114173000D03*
%TD*%
D30*
%TO.C,RL2*%
X149479000Y-54483000D03*
D31*
X134479000Y-54483000D03*
X129479000Y-54483000D03*
X124479000Y-54483000D03*
X124479000Y-61983000D03*
X129479000Y-61983000D03*
X134479000Y-61983000D03*
X149479000Y-61983000D03*
%TD*%
%TO.C,R13*%
G36*
G01*
X156445000Y-43237998D02*
X156445000Y-44138002D01*
G75*
G02*
X156195002Y-44388000I-249998J0D01*
G01*
X155669998Y-44388000D01*
G75*
G02*
X155420000Y-44138002I0J249998D01*
G01*
X155420000Y-43237998D01*
G75*
G02*
X155669998Y-42988000I249998J0D01*
G01*
X156195002Y-42988000D01*
G75*
G02*
X156445000Y-43237998I0J-249998D01*
G01*
G37*
G36*
G01*
X158270000Y-43237998D02*
X158270000Y-44138002D01*
G75*
G02*
X158020002Y-44388000I-249998J0D01*
G01*
X157494998Y-44388000D01*
G75*
G02*
X157245000Y-44138002I0J249998D01*
G01*
X157245000Y-43237998D01*
G75*
G02*
X157494998Y-42988000I249998J0D01*
G01*
X158020002Y-42988000D01*
G75*
G02*
X158270000Y-43237998I0J-249998D01*
G01*
G37*
%TD*%
D32*
%TO.C,U1*%
X152075000Y-110129000D03*
X154075000Y-110129000D03*
X156075000Y-110129000D03*
X158075000Y-110129000D03*
X160075000Y-110129000D03*
X162075000Y-110129000D03*
X164075000Y-110129000D03*
X166075000Y-110129000D03*
D33*
X167575000Y-112729000D03*
X167575000Y-114729000D03*
X167575000Y-116729000D03*
X167575000Y-118729000D03*
X167575000Y-120729000D03*
X167575000Y-122729000D03*
D32*
X166075000Y-125329000D03*
X164075000Y-125329000D03*
X162075000Y-125329000D03*
X160075000Y-125329000D03*
X158075000Y-125329000D03*
X156075000Y-125329000D03*
X154075000Y-125329000D03*
X152075000Y-125329000D03*
%TD*%
D31*
%TO.C,RL1*%
X155956000Y-54349000D03*
X170956000Y-54349000D03*
X175956000Y-54349000D03*
X180956000Y-54349000D03*
X180956000Y-61849000D03*
X175956000Y-61849000D03*
X170956000Y-61849000D03*
D30*
X155956000Y-61849000D03*
%TD*%
D34*
%TO.C,U5*%
X133833000Y-132348000D03*
X133833000Y-127748000D03*
X133833000Y-130048000D03*
D35*
X127533000Y-130048000D03*
%TD*%
D36*
%TO.C,J1*%
X176916000Y-124800000D03*
X176916000Y-129200000D03*
D37*
X178816000Y-122100000D03*
D38*
X174566000Y-122100000D03*
D37*
X178816000Y-131900000D03*
D38*
X174566000Y-131900000D03*
D39*
X174566000Y-125400000D03*
X174566000Y-126200000D03*
X174566000Y-127000000D03*
X174566000Y-127800000D03*
X174566000Y-128600000D03*
%TD*%
%TO.C,R11*%
G36*
G01*
X134497500Y-122485998D02*
X134497500Y-123386002D01*
G75*
G02*
X134247502Y-123636000I-249998J0D01*
G01*
X133722498Y-123636000D01*
G75*
G02*
X133472500Y-123386002I0J249998D01*
G01*
X133472500Y-122485998D01*
G75*
G02*
X133722498Y-122236000I249998J0D01*
G01*
X134247502Y-122236000D01*
G75*
G02*
X134497500Y-122485998I0J-249998D01*
G01*
G37*
G36*
G01*
X136322500Y-122485998D02*
X136322500Y-123386002D01*
G75*
G02*
X136072502Y-123636000I-249998J0D01*
G01*
X135547498Y-123636000D01*
G75*
G02*
X135297500Y-123386002I0J249998D01*
G01*
X135297500Y-122485998D01*
G75*
G02*
X135547498Y-122236000I249998J0D01*
G01*
X136072502Y-122236000D01*
G75*
G02*
X136322500Y-122485998I0J-249998D01*
G01*
G37*
%TD*%
D40*
%TO.C,D1*%
X133477000Y-118618000D03*
D41*
X136017000Y-118618000D03*
%TD*%
D40*
%TO.C,D2*%
X133604000Y-106934000D03*
D41*
X136144000Y-106934000D03*
%TD*%
D19*
%TO.C,Y1*%
X177222000Y-107122000D03*
X174822000Y-107122000D03*
X174822000Y-105222000D03*
X177222000Y-105222000D03*
%TD*%
D42*
%TO.C,SW2*%
X121793000Y-137291000D03*
X121793000Y-129091000D03*
D43*
X121793000Y-135191000D03*
X121793000Y-133191000D03*
D44*
X121793000Y-131191000D03*
%TD*%
%TO.C,R2*%
G36*
G01*
X153993002Y-136252000D02*
X153092998Y-136252000D01*
G75*
G02*
X152843000Y-136002002I0J249998D01*
G01*
X152843000Y-135476998D01*
G75*
G02*
X153092998Y-135227000I249998J0D01*
G01*
X153993002Y-135227000D01*
G75*
G02*
X154243000Y-135476998I0J-249998D01*
G01*
X154243000Y-136002002D01*
G75*
G02*
X153993002Y-136252000I-249998J0D01*
G01*
G37*
G36*
G01*
X153993002Y-138077000D02*
X153092998Y-138077000D01*
G75*
G02*
X152843000Y-137827002I0J249998D01*
G01*
X152843000Y-137301998D01*
G75*
G02*
X153092998Y-137052000I249998J0D01*
G01*
X153993002Y-137052000D01*
G75*
G02*
X154243000Y-137301998I0J-249998D01*
G01*
X154243000Y-137827002D01*
G75*
G02*
X153993002Y-138077000I-249998J0D01*
G01*
G37*
%TD*%
%TO.C,C1*%
G36*
G01*
X178976000Y-106622000D02*
X179926000Y-106622000D01*
G75*
G02*
X180176000Y-106872000I0J-250000D01*
G01*
X180176000Y-107372000D01*
G75*
G02*
X179926000Y-107622000I-250000J0D01*
G01*
X178976000Y-107622000D01*
G75*
G02*
X178726000Y-107372000I0J250000D01*
G01*
X178726000Y-106872000D01*
G75*
G02*
X178976000Y-106622000I250000J0D01*
G01*
G37*
G36*
G01*
X178976000Y-104722000D02*
X179926000Y-104722000D01*
G75*
G02*
X180176000Y-104972000I0J-250000D01*
G01*
X180176000Y-105472000D01*
G75*
G02*
X179926000Y-105722000I-250000J0D01*
G01*
X178976000Y-105722000D01*
G75*
G02*
X178726000Y-105472000I0J250000D01*
G01*
X178726000Y-104972000D01*
G75*
G02*
X178976000Y-104722000I250000J0D01*
G01*
G37*
%TD*%
%TO.C,C2*%
G36*
G01*
X173195000Y-105722000D02*
X172245000Y-105722000D01*
G75*
G02*
X171995000Y-105472000I0J250000D01*
G01*
X171995000Y-104972000D01*
G75*
G02*
X172245000Y-104722000I250000J0D01*
G01*
X173195000Y-104722000D01*
G75*
G02*
X173445000Y-104972000I0J-250000D01*
G01*
X173445000Y-105472000D01*
G75*
G02*
X173195000Y-105722000I-250000J0D01*
G01*
G37*
G36*
G01*
X173195000Y-107622000D02*
X172245000Y-107622000D01*
G75*
G02*
X171995000Y-107372000I0J250000D01*
G01*
X171995000Y-106872000D01*
G75*
G02*
X172245000Y-106622000I250000J0D01*
G01*
X173195000Y-106622000D01*
G75*
G02*
X173445000Y-106872000I0J-250000D01*
G01*
X173445000Y-107372000D01*
G75*
G02*
X173195000Y-107622000I-250000J0D01*
G01*
G37*
%TD*%
%TO.C,C4*%
G36*
G01*
X129482000Y-137000000D02*
X129482000Y-136050000D01*
G75*
G02*
X129732000Y-135800000I250000J0D01*
G01*
X130232000Y-135800000D01*
G75*
G02*
X130482000Y-136050000I0J-250000D01*
G01*
X130482000Y-137000000D01*
G75*
G02*
X130232000Y-137250000I-250000J0D01*
G01*
X129732000Y-137250000D01*
G75*
G02*
X129482000Y-137000000I0J250000D01*
G01*
G37*
G36*
G01*
X127582000Y-137000000D02*
X127582000Y-136050000D01*
G75*
G02*
X127832000Y-135800000I250000J0D01*
G01*
X128332000Y-135800000D01*
G75*
G02*
X128582000Y-136050000I0J-250000D01*
G01*
X128582000Y-137000000D01*
G75*
G02*
X128332000Y-137250000I-250000J0D01*
G01*
X127832000Y-137250000D01*
G75*
G02*
X127582000Y-137000000I0J250000D01*
G01*
G37*
%TD*%
D20*
%TO.C,Q3*%
X162433000Y-45450000D03*
X161483000Y-43450000D03*
X163383000Y-43450000D03*
%TD*%
%TO.C,R1*%
G36*
G01*
X150171998Y-137052000D02*
X151072002Y-137052000D01*
G75*
G02*
X151322000Y-137301998I0J-249998D01*
G01*
X151322000Y-137827002D01*
G75*
G02*
X151072002Y-138077000I-249998J0D01*
G01*
X150171998Y-138077000D01*
G75*
G02*
X149922000Y-137827002I0J249998D01*
G01*
X149922000Y-137301998D01*
G75*
G02*
X150171998Y-137052000I249998J0D01*
G01*
G37*
G36*
G01*
X150171998Y-135227000D02*
X151072002Y-135227000D01*
G75*
G02*
X151322000Y-135476998I0J-249998D01*
G01*
X151322000Y-136002002D01*
G75*
G02*
X151072002Y-136252000I-249998J0D01*
G01*
X150171998Y-136252000D01*
G75*
G02*
X149922000Y-136002002I0J249998D01*
G01*
X149922000Y-135476998D01*
G75*
G02*
X150171998Y-135227000I249998J0D01*
G01*
G37*
%TD*%
%TO.C,R5*%
G36*
G01*
X164319000Y-135185998D02*
X164319000Y-136086002D01*
G75*
G02*
X164069002Y-136336000I-249998J0D01*
G01*
X163543998Y-136336000D01*
G75*
G02*
X163294000Y-136086002I0J249998D01*
G01*
X163294000Y-135185998D01*
G75*
G02*
X163543998Y-134936000I249998J0D01*
G01*
X164069002Y-134936000D01*
G75*
G02*
X164319000Y-135185998I0J-249998D01*
G01*
G37*
G36*
G01*
X166144000Y-135185998D02*
X166144000Y-136086002D01*
G75*
G02*
X165894002Y-136336000I-249998J0D01*
G01*
X165368998Y-136336000D01*
G75*
G02*
X165119000Y-136086002I0J249998D01*
G01*
X165119000Y-135185998D01*
G75*
G02*
X165368998Y-134936000I249998J0D01*
G01*
X165894002Y-134936000D01*
G75*
G02*
X166144000Y-135185998I0J-249998D01*
G01*
G37*
%TD*%
%TO.C,R6*%
G36*
G01*
X165119000Y-138245002D02*
X165119000Y-137344998D01*
G75*
G02*
X165368998Y-137095000I249998J0D01*
G01*
X165894002Y-137095000D01*
G75*
G02*
X166144000Y-137344998I0J-249998D01*
G01*
X166144000Y-138245002D01*
G75*
G02*
X165894002Y-138495000I-249998J0D01*
G01*
X165368998Y-138495000D01*
G75*
G02*
X165119000Y-138245002I0J249998D01*
G01*
G37*
G36*
G01*
X163294000Y-138245002D02*
X163294000Y-137344998D01*
G75*
G02*
X163543998Y-137095000I249998J0D01*
G01*
X164069002Y-137095000D01*
G75*
G02*
X164319000Y-137344998I0J-249998D01*
G01*
X164319000Y-138245002D01*
G75*
G02*
X164069002Y-138495000I-249998J0D01*
G01*
X163543998Y-138495000D01*
G75*
G02*
X163294000Y-138245002I0J249998D01*
G01*
G37*
%TD*%
%TO.C,R15*%
G36*
G01*
X134347000Y-112579998D02*
X134347000Y-113480002D01*
G75*
G02*
X134097002Y-113730000I-249998J0D01*
G01*
X133571998Y-113730000D01*
G75*
G02*
X133322000Y-113480002I0J249998D01*
G01*
X133322000Y-112579998D01*
G75*
G02*
X133571998Y-112330000I249998J0D01*
G01*
X134097002Y-112330000D01*
G75*
G02*
X134347000Y-112579998I0J-249998D01*
G01*
G37*
G36*
G01*
X136172000Y-112579998D02*
X136172000Y-113480002D01*
G75*
G02*
X135922002Y-113730000I-249998J0D01*
G01*
X135396998Y-113730000D01*
G75*
G02*
X135147000Y-113480002I0J249998D01*
G01*
X135147000Y-112579998D01*
G75*
G02*
X135396998Y-112330000I249998J0D01*
G01*
X135922002Y-112330000D01*
G75*
G02*
X136172000Y-112579998I0J-249998D01*
G01*
G37*
%TD*%
%TO.C,U2*%
G36*
G01*
X174522000Y-118087000D02*
X174522000Y-118387000D01*
G75*
G02*
X174372000Y-118537000I-150000J0D01*
G01*
X172722000Y-118537000D01*
G75*
G02*
X172572000Y-118387000I0J150000D01*
G01*
X172572000Y-118087000D01*
G75*
G02*
X172722000Y-117937000I150000J0D01*
G01*
X174372000Y-117937000D01*
G75*
G02*
X174522000Y-118087000I0J-150000D01*
G01*
G37*
G36*
G01*
X174522000Y-116817000D02*
X174522000Y-117117000D01*
G75*
G02*
X174372000Y-117267000I-150000J0D01*
G01*
X172722000Y-117267000D01*
G75*
G02*
X172572000Y-117117000I0J150000D01*
G01*
X172572000Y-116817000D01*
G75*
G02*
X172722000Y-116667000I150000J0D01*
G01*
X174372000Y-116667000D01*
G75*
G02*
X174522000Y-116817000I0J-150000D01*
G01*
G37*
G36*
G01*
X174522000Y-115547000D02*
X174522000Y-115847000D01*
G75*
G02*
X174372000Y-115997000I-150000J0D01*
G01*
X172722000Y-115997000D01*
G75*
G02*
X172572000Y-115847000I0J150000D01*
G01*
X172572000Y-115547000D01*
G75*
G02*
X172722000Y-115397000I150000J0D01*
G01*
X174372000Y-115397000D01*
G75*
G02*
X174522000Y-115547000I0J-150000D01*
G01*
G37*
G36*
G01*
X174522000Y-114277000D02*
X174522000Y-114577000D01*
G75*
G02*
X174372000Y-114727000I-150000J0D01*
G01*
X172722000Y-114727000D01*
G75*
G02*
X172572000Y-114577000I0J150000D01*
G01*
X172572000Y-114277000D01*
G75*
G02*
X172722000Y-114127000I150000J0D01*
G01*
X174372000Y-114127000D01*
G75*
G02*
X174522000Y-114277000I0J-150000D01*
G01*
G37*
G36*
G01*
X174522000Y-113007000D02*
X174522000Y-113307000D01*
G75*
G02*
X174372000Y-113457000I-150000J0D01*
G01*
X172722000Y-113457000D01*
G75*
G02*
X172572000Y-113307000I0J150000D01*
G01*
X172572000Y-113007000D01*
G75*
G02*
X172722000Y-112857000I150000J0D01*
G01*
X174372000Y-112857000D01*
G75*
G02*
X174522000Y-113007000I0J-150000D01*
G01*
G37*
G36*
G01*
X174522000Y-111737000D02*
X174522000Y-112037000D01*
G75*
G02*
X174372000Y-112187000I-150000J0D01*
G01*
X172722000Y-112187000D01*
G75*
G02*
X172572000Y-112037000I0J150000D01*
G01*
X172572000Y-111737000D01*
G75*
G02*
X172722000Y-111587000I150000J0D01*
G01*
X174372000Y-111587000D01*
G75*
G02*
X174522000Y-111737000I0J-150000D01*
G01*
G37*
G36*
G01*
X174522000Y-110467000D02*
X174522000Y-110767000D01*
G75*
G02*
X174372000Y-110917000I-150000J0D01*
G01*
X172722000Y-110917000D01*
G75*
G02*
X172572000Y-110767000I0J150000D01*
G01*
X172572000Y-110467000D01*
G75*
G02*
X172722000Y-110317000I150000J0D01*
G01*
X174372000Y-110317000D01*
G75*
G02*
X174522000Y-110467000I0J-150000D01*
G01*
G37*
G36*
G01*
X174522000Y-109197000D02*
X174522000Y-109497000D01*
G75*
G02*
X174372000Y-109647000I-150000J0D01*
G01*
X172722000Y-109647000D01*
G75*
G02*
X172572000Y-109497000I0J150000D01*
G01*
X172572000Y-109197000D01*
G75*
G02*
X172722000Y-109047000I150000J0D01*
G01*
X174372000Y-109047000D01*
G75*
G02*
X174522000Y-109197000I0J-150000D01*
G01*
G37*
G36*
G01*
X179472000Y-109197000D02*
X179472000Y-109497000D01*
G75*
G02*
X179322000Y-109647000I-150000J0D01*
G01*
X177672000Y-109647000D01*
G75*
G02*
X177522000Y-109497000I0J150000D01*
G01*
X177522000Y-109197000D01*
G75*
G02*
X177672000Y-109047000I150000J0D01*
G01*
X179322000Y-109047000D01*
G75*
G02*
X179472000Y-109197000I0J-150000D01*
G01*
G37*
G36*
G01*
X179472000Y-110467000D02*
X179472000Y-110767000D01*
G75*
G02*
X179322000Y-110917000I-150000J0D01*
G01*
X177672000Y-110917000D01*
G75*
G02*
X177522000Y-110767000I0J150000D01*
G01*
X177522000Y-110467000D01*
G75*
G02*
X177672000Y-110317000I150000J0D01*
G01*
X179322000Y-110317000D01*
G75*
G02*
X179472000Y-110467000I0J-150000D01*
G01*
G37*
G36*
G01*
X179472000Y-111737000D02*
X179472000Y-112037000D01*
G75*
G02*
X179322000Y-112187000I-150000J0D01*
G01*
X177672000Y-112187000D01*
G75*
G02*
X177522000Y-112037000I0J150000D01*
G01*
X177522000Y-111737000D01*
G75*
G02*
X177672000Y-111587000I150000J0D01*
G01*
X179322000Y-111587000D01*
G75*
G02*
X179472000Y-111737000I0J-150000D01*
G01*
G37*
G36*
G01*
X179472000Y-113007000D02*
X179472000Y-113307000D01*
G75*
G02*
X179322000Y-113457000I-150000J0D01*
G01*
X177672000Y-113457000D01*
G75*
G02*
X177522000Y-113307000I0J150000D01*
G01*
X177522000Y-113007000D01*
G75*
G02*
X177672000Y-112857000I150000J0D01*
G01*
X179322000Y-112857000D01*
G75*
G02*
X179472000Y-113007000I0J-150000D01*
G01*
G37*
G36*
G01*
X179472000Y-114277000D02*
X179472000Y-114577000D01*
G75*
G02*
X179322000Y-114727000I-150000J0D01*
G01*
X177672000Y-114727000D01*
G75*
G02*
X177522000Y-114577000I0J150000D01*
G01*
X177522000Y-114277000D01*
G75*
G02*
X177672000Y-114127000I150000J0D01*
G01*
X179322000Y-114127000D01*
G75*
G02*
X179472000Y-114277000I0J-150000D01*
G01*
G37*
G36*
G01*
X179472000Y-115547000D02*
X179472000Y-115847000D01*
G75*
G02*
X179322000Y-115997000I-150000J0D01*
G01*
X177672000Y-115997000D01*
G75*
G02*
X177522000Y-115847000I0J150000D01*
G01*
X177522000Y-115547000D01*
G75*
G02*
X177672000Y-115397000I150000J0D01*
G01*
X179322000Y-115397000D01*
G75*
G02*
X179472000Y-115547000I0J-150000D01*
G01*
G37*
G36*
G01*
X179472000Y-116817000D02*
X179472000Y-117117000D01*
G75*
G02*
X179322000Y-117267000I-150000J0D01*
G01*
X177672000Y-117267000D01*
G75*
G02*
X177522000Y-117117000I0J150000D01*
G01*
X177522000Y-116817000D01*
G75*
G02*
X177672000Y-116667000I150000J0D01*
G01*
X179322000Y-116667000D01*
G75*
G02*
X179472000Y-116817000I0J-150000D01*
G01*
G37*
G36*
G01*
X179472000Y-118087000D02*
X179472000Y-118387000D01*
G75*
G02*
X179322000Y-118537000I-150000J0D01*
G01*
X177672000Y-118537000D01*
G75*
G02*
X177522000Y-118387000I0J150000D01*
G01*
X177522000Y-118087000D01*
G75*
G02*
X177672000Y-117937000I150000J0D01*
G01*
X179322000Y-117937000D01*
G75*
G02*
X179472000Y-118087000I0J-150000D01*
G01*
G37*
%TD*%
D13*
%TO.C,Q1*%
X170418000Y-136779000D03*
X168418000Y-137729000D03*
X168418000Y-135829000D03*
%TD*%
%TO.C,Q2*%
X161274000Y-137602000D03*
X161274000Y-135702000D03*
X159274000Y-136652000D03*
%TD*%
%TO.C,R14*%
G36*
G01*
X128933000Y-109150999D02*
X128933000Y-110051001D01*
G75*
G02*
X128683001Y-110301000I-249999J0D01*
G01*
X128157999Y-110301000D01*
G75*
G02*
X127908000Y-110051001I0J249999D01*
G01*
X127908000Y-109150999D01*
G75*
G02*
X128157999Y-108901000I249999J0D01*
G01*
X128683001Y-108901000D01*
G75*
G02*
X128933000Y-109150999I0J-249999D01*
G01*
G37*
G36*
G01*
X127108000Y-109150999D02*
X127108000Y-110051001D01*
G75*
G02*
X126858001Y-110301000I-249999J0D01*
G01*
X126332999Y-110301000D01*
G75*
G02*
X126083000Y-110051001I0J249999D01*
G01*
X126083000Y-109150999D01*
G75*
G02*
X126332999Y-108901000I249999J0D01*
G01*
X126858001Y-108901000D01*
G75*
G02*
X127108000Y-109150999I0J-249999D01*
G01*
G37*
%TD*%
D11*
%TO.C,J3*%
X156718000Y-47879000D03*
D10*
X154178000Y-47879000D03*
X151638000Y-47879000D03*
X149098000Y-47879000D03*
%TD*%
D45*
%TO.C,H5*%
X133223000Y-45593000D03*
%TD*%
%TO.C,H6*%
X172212000Y-45593000D03*
%TD*%
%TO.C,H7*%
X133223000Y-87122000D03*
%TD*%
%TO.C,H8*%
X172212000Y-87122000D03*
%TD*%
D13*
%TO.C,Q4*%
X143367000Y-46416000D03*
X143367000Y-44516000D03*
X141367000Y-45466000D03*
%TD*%
%TO.C,R12*%
G36*
G01*
X147673000Y-44138001D02*
X147673000Y-43237999D01*
G75*
G02*
X147922999Y-42988000I249999J0D01*
G01*
X148448001Y-42988000D01*
G75*
G02*
X148698000Y-43237999I0J-249999D01*
G01*
X148698000Y-44138001D01*
G75*
G02*
X148448001Y-44388000I-249999J0D01*
G01*
X147922999Y-44388000D01*
G75*
G02*
X147673000Y-44138001I0J249999D01*
G01*
G37*
G36*
G01*
X149498000Y-44138001D02*
X149498000Y-43237999D01*
G75*
G02*
X149747999Y-42988000I249999J0D01*
G01*
X150273001Y-42988000D01*
G75*
G02*
X150523000Y-43237999I0J-249999D01*
G01*
X150523000Y-44138001D01*
G75*
G02*
X150273001Y-44388000I-249999J0D01*
G01*
X149747999Y-44388000D01*
G75*
G02*
X149498000Y-44138001I0J249999D01*
G01*
G37*
%TD*%
D46*
%TO.C,J7*%
X131953000Y-72136000D03*
D47*
X126873000Y-72136000D03*
%TD*%
%TO.C,J8*%
X173863000Y-72136000D03*
D46*
X178943000Y-72136000D03*
%TD*%
D27*
%TO.C,PS1*%
X147654000Y-69883000D03*
X142654000Y-89883000D03*
X162654000Y-89883000D03*
X157654000Y-69883000D03*
%TD*%
D45*
%TO.C,H1*%
X138430000Y-137668000D03*
%TD*%
%TO.C,H2*%
X179959000Y-137668000D03*
%TD*%
%TO.C,H3*%
X138430000Y-98679000D03*
%TD*%
%TO.C,H4*%
X179959000Y-98679000D03*
%TD*%
D11*
%TO.C,J9*%
X168021000Y-129286000D03*
D10*
X165481000Y-129286000D03*
X162941000Y-129286000D03*
X160401000Y-129286000D03*
X157861000Y-129286000D03*
X155321000Y-129286000D03*
X152781000Y-129286000D03*
X150241000Y-129286000D03*
%TD*%
%TO.C,J10*%
X150241000Y-106426000D03*
X152781000Y-106426000D03*
X155321000Y-106426000D03*
X157861000Y-106426000D03*
X160401000Y-106426000D03*
X162941000Y-106426000D03*
X165481000Y-106426000D03*
D11*
X168021000Y-106426000D03*
%TD*%
%TO.C,R16*%
G36*
G01*
X140608000Y-109543001D02*
X140608000Y-108642999D01*
G75*
G02*
X140857999Y-108393000I249999J0D01*
G01*
X141383001Y-108393000D01*
G75*
G02*
X141633000Y-108642999I0J-249999D01*
G01*
X141633000Y-109543001D01*
G75*
G02*
X141383001Y-109793000I-249999J0D01*
G01*
X140857999Y-109793000D01*
G75*
G02*
X140608000Y-109543001I0J249999D01*
G01*
G37*
G36*
G01*
X138783000Y-109543001D02*
X138783000Y-108642999D01*
G75*
G02*
X139032999Y-108393000I249999J0D01*
G01*
X139558001Y-108393000D01*
G75*
G02*
X139808000Y-108642999I0J-249999D01*
G01*
X139808000Y-109543001D01*
G75*
G02*
X139558001Y-109793000I-249999J0D01*
G01*
X139032999Y-109793000D01*
G75*
G02*
X138783000Y-109543001I0J249999D01*
G01*
G37*
%TD*%
%TO.C,R17*%
G36*
G01*
X138656000Y-106114001D02*
X138656000Y-105213999D01*
G75*
G02*
X138905999Y-104964000I249999J0D01*
G01*
X139431001Y-104964000D01*
G75*
G02*
X139681000Y-105213999I0J-249999D01*
G01*
X139681000Y-106114001D01*
G75*
G02*
X139431001Y-106364000I-249999J0D01*
G01*
X138905999Y-106364000D01*
G75*
G02*
X138656000Y-106114001I0J249999D01*
G01*
G37*
G36*
G01*
X140481000Y-106114001D02*
X140481000Y-105213999D01*
G75*
G02*
X140730999Y-104964000I249999J0D01*
G01*
X141256001Y-104964000D01*
G75*
G02*
X141506000Y-105213999I0J-249999D01*
G01*
X141506000Y-106114001D01*
G75*
G02*
X141256001Y-106364000I-249999J0D01*
G01*
X140730999Y-106364000D01*
G75*
G02*
X140481000Y-106114001I0J249999D01*
G01*
G37*
%TD*%
D10*
%TO.C,J4*%
X123698000Y-100203000D03*
X126238000Y-100203000D03*
D11*
X128778000Y-100203000D03*
%TD*%
%TO.C,J6*%
X128778000Y-102743000D03*
D10*
X126238000Y-102743000D03*
X123698000Y-102743000D03*
%TD*%
%TO.C,C5*%
G36*
G01*
X110777000Y-58489000D02*
X111727000Y-58489000D01*
G75*
G02*
X111977000Y-58739000I0J-250000D01*
G01*
X111977000Y-59239000D01*
G75*
G02*
X111727000Y-59489000I-250000J0D01*
G01*
X110777000Y-59489000D01*
G75*
G02*
X110527000Y-59239000I0J250000D01*
G01*
X110527000Y-58739000D01*
G75*
G02*
X110777000Y-58489000I250000J0D01*
G01*
G37*
G36*
G01*
X110777000Y-56589000D02*
X111727000Y-56589000D01*
G75*
G02*
X111977000Y-56839000I0J-250000D01*
G01*
X111977000Y-57339000D01*
G75*
G02*
X111727000Y-57589000I-250000J0D01*
G01*
X110777000Y-57589000D01*
G75*
G02*
X110527000Y-57339000I0J250000D01*
G01*
X110527000Y-56839000D01*
G75*
G02*
X110777000Y-56589000I250000J0D01*
G01*
G37*
%TD*%
%TO.C,C6*%
G36*
G01*
X104742000Y-59423000D02*
X103792000Y-59423000D01*
G75*
G02*
X103542000Y-59173000I0J250000D01*
G01*
X103542000Y-58673000D01*
G75*
G02*
X103792000Y-58423000I250000J0D01*
G01*
X104742000Y-58423000D01*
G75*
G02*
X104992000Y-58673000I0J-250000D01*
G01*
X104992000Y-59173000D01*
G75*
G02*
X104742000Y-59423000I-250000J0D01*
G01*
G37*
G36*
G01*
X104742000Y-57523000D02*
X103792000Y-57523000D01*
G75*
G02*
X103542000Y-57273000I0J250000D01*
G01*
X103542000Y-56773000D01*
G75*
G02*
X103792000Y-56523000I250000J0D01*
G01*
X104742000Y-56523000D01*
G75*
G02*
X104992000Y-56773000I0J-250000D01*
G01*
X104992000Y-57273000D01*
G75*
G02*
X104742000Y-57523000I-250000J0D01*
G01*
G37*
%TD*%
D25*
%TO.C,J11*%
X114678000Y-52354000D03*
X114678000Y-51704000D03*
X114678000Y-51054000D03*
X114678000Y-50404000D03*
X114678000Y-49754000D03*
D24*
X114678000Y-53554000D03*
X114678000Y-48554000D03*
D23*
X117378000Y-52054000D03*
X117378000Y-50054000D03*
D22*
X117378000Y-53954000D03*
X117378000Y-48154000D03*
D21*
X117378000Y-54554000D03*
X117378000Y-47554000D03*
%TD*%
D20*
%TO.C,Q5*%
X99441000Y-53451000D03*
X98491000Y-51451000D03*
X100391000Y-51451000D03*
%TD*%
%TO.C,Q6*%
X98491000Y-46085000D03*
X100391000Y-46085000D03*
X99441000Y-44085000D03*
%TD*%
%TO.C,R18*%
G36*
G01*
X98016000Y-59251001D02*
X98016000Y-58350999D01*
G75*
G02*
X98265999Y-58101000I249999J0D01*
G01*
X98791001Y-58101000D01*
G75*
G02*
X99041000Y-58350999I0J-249999D01*
G01*
X99041000Y-59251001D01*
G75*
G02*
X98791001Y-59501000I-249999J0D01*
G01*
X98265999Y-59501000D01*
G75*
G02*
X98016000Y-59251001I0J249999D01*
G01*
G37*
G36*
G01*
X99841000Y-59251001D02*
X99841000Y-58350999D01*
G75*
G02*
X100090999Y-58101000I249999J0D01*
G01*
X100616001Y-58101000D01*
G75*
G02*
X100866000Y-58350999I0J-249999D01*
G01*
X100866000Y-59251001D01*
G75*
G02*
X100616001Y-59501000I-249999J0D01*
G01*
X100090999Y-59501000D01*
G75*
G02*
X99841000Y-59251001I0J249999D01*
G01*
G37*
%TD*%
%TO.C,R19*%
G36*
G01*
X99041000Y-55556999D02*
X99041000Y-56457001D01*
G75*
G02*
X98791001Y-56707000I-249999J0D01*
G01*
X98265999Y-56707000D01*
G75*
G02*
X98016000Y-56457001I0J249999D01*
G01*
X98016000Y-55556999D01*
G75*
G02*
X98265999Y-55307000I249999J0D01*
G01*
X98791001Y-55307000D01*
G75*
G02*
X99041000Y-55556999I0J-249999D01*
G01*
G37*
G36*
G01*
X100866000Y-55556999D02*
X100866000Y-56457001D01*
G75*
G02*
X100616001Y-56707000I-249999J0D01*
G01*
X100090999Y-56707000D01*
G75*
G02*
X99841000Y-56457001I0J249999D01*
G01*
X99841000Y-55556999D01*
G75*
G02*
X100090999Y-55307000I249999J0D01*
G01*
X100616001Y-55307000D01*
G75*
G02*
X100866000Y-55556999I0J-249999D01*
G01*
G37*
%TD*%
%TO.C,R20*%
G36*
G01*
X100907001Y-50193000D02*
X100006999Y-50193000D01*
G75*
G02*
X99757000Y-49943001I0J249999D01*
G01*
X99757000Y-49417999D01*
G75*
G02*
X100006999Y-49168000I249999J0D01*
G01*
X100907001Y-49168000D01*
G75*
G02*
X101157000Y-49417999I0J-249999D01*
G01*
X101157000Y-49943001D01*
G75*
G02*
X100907001Y-50193000I-249999J0D01*
G01*
G37*
G36*
G01*
X100907001Y-48368000D02*
X100006999Y-48368000D01*
G75*
G02*
X99757000Y-48118001I0J249999D01*
G01*
X99757000Y-47592999D01*
G75*
G02*
X100006999Y-47343000I249999J0D01*
G01*
X100907001Y-47343000D01*
G75*
G02*
X101157000Y-47592999I0J-249999D01*
G01*
X101157000Y-48118001D01*
G75*
G02*
X100907001Y-48368000I-249999J0D01*
G01*
G37*
%TD*%
%TO.C,R21*%
G36*
G01*
X97974999Y-49168000D02*
X98875001Y-49168000D01*
G75*
G02*
X99125000Y-49417999I0J-249999D01*
G01*
X99125000Y-49943001D01*
G75*
G02*
X98875001Y-50193000I-249999J0D01*
G01*
X97974999Y-50193000D01*
G75*
G02*
X97725000Y-49943001I0J249999D01*
G01*
X97725000Y-49417999D01*
G75*
G02*
X97974999Y-49168000I249999J0D01*
G01*
G37*
G36*
G01*
X97974999Y-47343000D02*
X98875001Y-47343000D01*
G75*
G02*
X99125000Y-47592999I0J-249999D01*
G01*
X99125000Y-48118001D01*
G75*
G02*
X98875001Y-48368000I-249999J0D01*
G01*
X97974999Y-48368000D01*
G75*
G02*
X97725000Y-48118001I0J249999D01*
G01*
X97725000Y-47592999D01*
G75*
G02*
X97974999Y-47343000I249999J0D01*
G01*
G37*
%TD*%
%TO.C,U7*%
G36*
G01*
X103274000Y-54631000D02*
X102974000Y-54631000D01*
G75*
G02*
X102824000Y-54481000I0J150000D01*
G01*
X102824000Y-52831000D01*
G75*
G02*
X102974000Y-52681000I150000J0D01*
G01*
X103274000Y-52681000D01*
G75*
G02*
X103424000Y-52831000I0J-150000D01*
G01*
X103424000Y-54481000D01*
G75*
G02*
X103274000Y-54631000I-150000J0D01*
G01*
G37*
G36*
G01*
X104544000Y-54631000D02*
X104244000Y-54631000D01*
G75*
G02*
X104094000Y-54481000I0J150000D01*
G01*
X104094000Y-52831000D01*
G75*
G02*
X104244000Y-52681000I150000J0D01*
G01*
X104544000Y-52681000D01*
G75*
G02*
X104694000Y-52831000I0J-150000D01*
G01*
X104694000Y-54481000D01*
G75*
G02*
X104544000Y-54631000I-150000J0D01*
G01*
G37*
G36*
G01*
X105814000Y-54631000D02*
X105514000Y-54631000D01*
G75*
G02*
X105364000Y-54481000I0J150000D01*
G01*
X105364000Y-52831000D01*
G75*
G02*
X105514000Y-52681000I150000J0D01*
G01*
X105814000Y-52681000D01*
G75*
G02*
X105964000Y-52831000I0J-150000D01*
G01*
X105964000Y-54481000D01*
G75*
G02*
X105814000Y-54631000I-150000J0D01*
G01*
G37*
G36*
G01*
X107084000Y-54631000D02*
X106784000Y-54631000D01*
G75*
G02*
X106634000Y-54481000I0J150000D01*
G01*
X106634000Y-52831000D01*
G75*
G02*
X106784000Y-52681000I150000J0D01*
G01*
X107084000Y-52681000D01*
G75*
G02*
X107234000Y-52831000I0J-150000D01*
G01*
X107234000Y-54481000D01*
G75*
G02*
X107084000Y-54631000I-150000J0D01*
G01*
G37*
G36*
G01*
X108354000Y-54631000D02*
X108054000Y-54631000D01*
G75*
G02*
X107904000Y-54481000I0J150000D01*
G01*
X107904000Y-52831000D01*
G75*
G02*
X108054000Y-52681000I150000J0D01*
G01*
X108354000Y-52681000D01*
G75*
G02*
X108504000Y-52831000I0J-150000D01*
G01*
X108504000Y-54481000D01*
G75*
G02*
X108354000Y-54631000I-150000J0D01*
G01*
G37*
G36*
G01*
X109624000Y-54631000D02*
X109324000Y-54631000D01*
G75*
G02*
X109174000Y-54481000I0J150000D01*
G01*
X109174000Y-52831000D01*
G75*
G02*
X109324000Y-52681000I150000J0D01*
G01*
X109624000Y-52681000D01*
G75*
G02*
X109774000Y-52831000I0J-150000D01*
G01*
X109774000Y-54481000D01*
G75*
G02*
X109624000Y-54631000I-150000J0D01*
G01*
G37*
G36*
G01*
X110894000Y-54631000D02*
X110594000Y-54631000D01*
G75*
G02*
X110444000Y-54481000I0J150000D01*
G01*
X110444000Y-52831000D01*
G75*
G02*
X110594000Y-52681000I150000J0D01*
G01*
X110894000Y-52681000D01*
G75*
G02*
X111044000Y-52831000I0J-150000D01*
G01*
X111044000Y-54481000D01*
G75*
G02*
X110894000Y-54631000I-150000J0D01*
G01*
G37*
G36*
G01*
X112164000Y-54631000D02*
X111864000Y-54631000D01*
G75*
G02*
X111714000Y-54481000I0J150000D01*
G01*
X111714000Y-52831000D01*
G75*
G02*
X111864000Y-52681000I150000J0D01*
G01*
X112164000Y-52681000D01*
G75*
G02*
X112314000Y-52831000I0J-150000D01*
G01*
X112314000Y-54481000D01*
G75*
G02*
X112164000Y-54631000I-150000J0D01*
G01*
G37*
G36*
G01*
X112164000Y-49681000D02*
X111864000Y-49681000D01*
G75*
G02*
X111714000Y-49531000I0J150000D01*
G01*
X111714000Y-47881000D01*
G75*
G02*
X111864000Y-47731000I150000J0D01*
G01*
X112164000Y-47731000D01*
G75*
G02*
X112314000Y-47881000I0J-150000D01*
G01*
X112314000Y-49531000D01*
G75*
G02*
X112164000Y-49681000I-150000J0D01*
G01*
G37*
G36*
G01*
X110894000Y-49681000D02*
X110594000Y-49681000D01*
G75*
G02*
X110444000Y-49531000I0J150000D01*
G01*
X110444000Y-47881000D01*
G75*
G02*
X110594000Y-47731000I150000J0D01*
G01*
X110894000Y-47731000D01*
G75*
G02*
X111044000Y-47881000I0J-150000D01*
G01*
X111044000Y-49531000D01*
G75*
G02*
X110894000Y-49681000I-150000J0D01*
G01*
G37*
G36*
G01*
X109624000Y-49681000D02*
X109324000Y-49681000D01*
G75*
G02*
X109174000Y-49531000I0J150000D01*
G01*
X109174000Y-47881000D01*
G75*
G02*
X109324000Y-47731000I150000J0D01*
G01*
X109624000Y-47731000D01*
G75*
G02*
X109774000Y-47881000I0J-150000D01*
G01*
X109774000Y-49531000D01*
G75*
G02*
X109624000Y-49681000I-150000J0D01*
G01*
G37*
G36*
G01*
X108354000Y-49681000D02*
X108054000Y-49681000D01*
G75*
G02*
X107904000Y-49531000I0J150000D01*
G01*
X107904000Y-47881000D01*
G75*
G02*
X108054000Y-47731000I150000J0D01*
G01*
X108354000Y-47731000D01*
G75*
G02*
X108504000Y-47881000I0J-150000D01*
G01*
X108504000Y-49531000D01*
G75*
G02*
X108354000Y-49681000I-150000J0D01*
G01*
G37*
G36*
G01*
X107084000Y-49681000D02*
X106784000Y-49681000D01*
G75*
G02*
X106634000Y-49531000I0J150000D01*
G01*
X106634000Y-47881000D01*
G75*
G02*
X106784000Y-47731000I150000J0D01*
G01*
X107084000Y-47731000D01*
G75*
G02*
X107234000Y-47881000I0J-150000D01*
G01*
X107234000Y-49531000D01*
G75*
G02*
X107084000Y-49681000I-150000J0D01*
G01*
G37*
G36*
G01*
X105814000Y-49681000D02*
X105514000Y-49681000D01*
G75*
G02*
X105364000Y-49531000I0J150000D01*
G01*
X105364000Y-47881000D01*
G75*
G02*
X105514000Y-47731000I150000J0D01*
G01*
X105814000Y-47731000D01*
G75*
G02*
X105964000Y-47881000I0J-150000D01*
G01*
X105964000Y-49531000D01*
G75*
G02*
X105814000Y-49681000I-150000J0D01*
G01*
G37*
G36*
G01*
X104544000Y-49681000D02*
X104244000Y-49681000D01*
G75*
G02*
X104094000Y-49531000I0J150000D01*
G01*
X104094000Y-47881000D01*
G75*
G02*
X104244000Y-47731000I150000J0D01*
G01*
X104544000Y-47731000D01*
G75*
G02*
X104694000Y-47881000I0J-150000D01*
G01*
X104694000Y-49531000D01*
G75*
G02*
X104544000Y-49681000I-150000J0D01*
G01*
G37*
G36*
G01*
X103274000Y-49681000D02*
X102974000Y-49681000D01*
G75*
G02*
X102824000Y-49531000I0J150000D01*
G01*
X102824000Y-47881000D01*
G75*
G02*
X102974000Y-47731000I150000J0D01*
G01*
X103274000Y-47731000D01*
G75*
G02*
X103424000Y-47881000I0J-150000D01*
G01*
X103424000Y-49531000D01*
G75*
G02*
X103274000Y-49681000I-150000J0D01*
G01*
G37*
%TD*%
D19*
%TO.C,Y2*%
X108896000Y-57089000D03*
X106496000Y-57089000D03*
X106496000Y-58989000D03*
X108896000Y-58989000D03*
%TD*%
D11*
%TO.C,J12*%
X96012000Y-44069000D03*
D10*
X96012000Y-46609000D03*
X96012000Y-49149000D03*
X96012000Y-51689000D03*
X96012000Y-54229000D03*
X96012000Y-56769000D03*
X96012000Y-59309000D03*
%TD*%
M02*
