%TF.GenerationSoftware,KiCad,Pcbnew,(5.1.7)-1*%
%TF.CreationDate,2021-02-24T10:57:43+01:00*%
%TF.ProjectId,Temperature-controller-with-ESP8266,54656d70-6572-4617-9475-72652d636f6e,rev?*%
%TF.SameCoordinates,Original*%
%TF.FileFunction,Legend,Bot*%
%TF.FilePolarity,Positive*%
%FSLAX46Y46*%
G04 Gerber Fmt 4.6, Leading zero omitted, Abs format (unit mm)*
G04 Created by KiCad (PCBNEW (5.1.7)-1) date 2021-02-24 10:57:43*
%MOMM*%
%LPD*%
G01*
G04 APERTURE LIST*
%ADD10C,0.150000*%
%ADD11C,0.120000*%
G04 APERTURE END LIST*
D10*
X95718380Y-116094714D02*
X96527904Y-116094714D01*
X96623142Y-116142333D01*
X96670761Y-116189952D01*
X96718380Y-116285190D01*
X96718380Y-116475666D01*
X96670761Y-116570904D01*
X96623142Y-116618523D01*
X96527904Y-116666142D01*
X95718380Y-116666142D01*
X96670761Y-117094714D02*
X96718380Y-117237571D01*
X96718380Y-117475666D01*
X96670761Y-117570904D01*
X96623142Y-117618523D01*
X96527904Y-117666142D01*
X96432666Y-117666142D01*
X96337428Y-117618523D01*
X96289809Y-117570904D01*
X96242190Y-117475666D01*
X96194571Y-117285190D01*
X96146952Y-117189952D01*
X96099333Y-117142333D01*
X96004095Y-117094714D01*
X95908857Y-117094714D01*
X95813619Y-117142333D01*
X95766000Y-117189952D01*
X95718380Y-117285190D01*
X95718380Y-117523285D01*
X95766000Y-117666142D01*
X96194571Y-118428047D02*
X96242190Y-118570904D01*
X96289809Y-118618523D01*
X96385047Y-118666142D01*
X96527904Y-118666142D01*
X96623142Y-118618523D01*
X96670761Y-118570904D01*
X96718380Y-118475666D01*
X96718380Y-118094714D01*
X95718380Y-118094714D01*
X95718380Y-118428047D01*
X95766000Y-118523285D01*
X95813619Y-118570904D01*
X95908857Y-118618523D01*
X96004095Y-118618523D01*
X96099333Y-118570904D01*
X96146952Y-118523285D01*
X96194571Y-118428047D01*
X96194571Y-118094714D01*
X95718380Y-119713761D02*
X95718380Y-120285190D01*
X96718380Y-119999476D02*
X95718380Y-119999476D01*
X95718380Y-120809000D02*
X95718380Y-120999476D01*
X95766000Y-121094714D01*
X95861238Y-121189952D01*
X96051714Y-121237571D01*
X96385047Y-121237571D01*
X96575523Y-121189952D01*
X96670761Y-121094714D01*
X96718380Y-120999476D01*
X96718380Y-120809000D01*
X96670761Y-120713761D01*
X96575523Y-120618523D01*
X96385047Y-120570904D01*
X96051714Y-120570904D01*
X95861238Y-120618523D01*
X95766000Y-120713761D01*
X95718380Y-120809000D01*
X95718380Y-122428047D02*
X96527904Y-122428047D01*
X96623142Y-122475666D01*
X96670761Y-122523285D01*
X96718380Y-122618523D01*
X96718380Y-122809000D01*
X96670761Y-122904238D01*
X96623142Y-122951857D01*
X96527904Y-122999476D01*
X95718380Y-122999476D01*
X96432666Y-123428047D02*
X96432666Y-123904238D01*
X96718380Y-123332809D02*
X95718380Y-123666142D01*
X96718380Y-123999476D01*
X96718380Y-124904238D02*
X96242190Y-124570904D01*
X96718380Y-124332809D02*
X95718380Y-124332809D01*
X95718380Y-124713761D01*
X95766000Y-124809000D01*
X95813619Y-124856619D01*
X95908857Y-124904238D01*
X96051714Y-124904238D01*
X96146952Y-124856619D01*
X96194571Y-124809000D01*
X96242190Y-124713761D01*
X96242190Y-124332809D01*
X95718380Y-125189952D02*
X95718380Y-125761380D01*
X96718380Y-125475666D02*
X95718380Y-125475666D01*
X96051714Y-126761380D02*
X96718380Y-126999476D01*
X96051714Y-127237571D01*
X96718380Y-128142333D02*
X96718380Y-127570904D01*
X96718380Y-127856619D02*
X95718380Y-127856619D01*
X95861238Y-127761380D01*
X95956476Y-127666142D01*
X96004095Y-127570904D01*
X96623142Y-128570904D02*
X96670761Y-128618523D01*
X96718380Y-128570904D01*
X96670761Y-128523285D01*
X96623142Y-128570904D01*
X96718380Y-128570904D01*
X95718380Y-129237571D02*
X95718380Y-129332809D01*
X95766000Y-129428047D01*
X95813619Y-129475666D01*
X95908857Y-129523285D01*
X96099333Y-129570904D01*
X96337428Y-129570904D01*
X96527904Y-129523285D01*
X96623142Y-129475666D01*
X96670761Y-129428047D01*
X96718380Y-129332809D01*
X96718380Y-129237571D01*
X96670761Y-129142333D01*
X96623142Y-129094714D01*
X96527904Y-129047095D01*
X96337428Y-128999476D01*
X96099333Y-128999476D01*
X95908857Y-129047095D01*
X95813619Y-129094714D01*
X95766000Y-129142333D01*
X95718380Y-129237571D01*
X99004380Y-134643904D02*
X98004380Y-134643904D01*
X98004380Y-135024857D01*
X98052000Y-135120095D01*
X98099619Y-135167714D01*
X98194857Y-135215333D01*
X98337714Y-135215333D01*
X98432952Y-135167714D01*
X98480571Y-135120095D01*
X98528190Y-135024857D01*
X98528190Y-134643904D01*
X98004380Y-135834380D02*
X98004380Y-135929619D01*
X98052000Y-136024857D01*
X98099619Y-136072476D01*
X98194857Y-136120095D01*
X98385333Y-136167714D01*
X98623428Y-136167714D01*
X98813904Y-136120095D01*
X98909142Y-136072476D01*
X98956761Y-136024857D01*
X99004380Y-135929619D01*
X99004380Y-135834380D01*
X98956761Y-135739142D01*
X98909142Y-135691523D01*
X98813904Y-135643904D01*
X98623428Y-135596285D01*
X98385333Y-135596285D01*
X98194857Y-135643904D01*
X98099619Y-135691523D01*
X98052000Y-135739142D01*
X98004380Y-135834380D01*
X103211380Y-134620095D02*
X103211380Y-135191523D01*
X104211380Y-134905809D02*
X103211380Y-134905809D01*
X103211380Y-135429619D02*
X104211380Y-136096285D01*
X103211380Y-136096285D02*
X104211380Y-135429619D01*
X106751380Y-135215333D02*
X106275190Y-134882000D01*
X106751380Y-134643904D02*
X105751380Y-134643904D01*
X105751380Y-135024857D01*
X105799000Y-135120095D01*
X105846619Y-135167714D01*
X105941857Y-135215333D01*
X106084714Y-135215333D01*
X106179952Y-135167714D01*
X106227571Y-135120095D01*
X106275190Y-135024857D01*
X106275190Y-134643904D01*
X105751380Y-135548666D02*
X106751380Y-136215333D01*
X105751380Y-136215333D02*
X106751380Y-135548666D01*
X110958380Y-135064523D02*
X110958380Y-134588333D01*
X111434571Y-134540714D01*
X111386952Y-134588333D01*
X111339333Y-134683571D01*
X111339333Y-134921666D01*
X111386952Y-135016904D01*
X111434571Y-135064523D01*
X111529809Y-135112142D01*
X111767904Y-135112142D01*
X111863142Y-135064523D01*
X111910761Y-135016904D01*
X111958380Y-134921666D01*
X111958380Y-134683571D01*
X111910761Y-134588333D01*
X111863142Y-134540714D01*
X110958380Y-135397857D02*
X111958380Y-135731190D01*
X110958380Y-136064523D01*
X101544380Y-134834380D02*
X101068190Y-134501047D01*
X101544380Y-134262952D02*
X100544380Y-134262952D01*
X100544380Y-134643904D01*
X100592000Y-134739142D01*
X100639619Y-134786761D01*
X100734857Y-134834380D01*
X100877714Y-134834380D01*
X100972952Y-134786761D01*
X101020571Y-134739142D01*
X101068190Y-134643904D01*
X101068190Y-134262952D01*
X101496761Y-135215333D02*
X101544380Y-135358190D01*
X101544380Y-135596285D01*
X101496761Y-135691523D01*
X101449142Y-135739142D01*
X101353904Y-135786761D01*
X101258666Y-135786761D01*
X101163428Y-135739142D01*
X101115809Y-135691523D01*
X101068190Y-135596285D01*
X101020571Y-135405809D01*
X100972952Y-135310571D01*
X100925333Y-135262952D01*
X100830095Y-135215333D01*
X100734857Y-135215333D01*
X100639619Y-135262952D01*
X100592000Y-135310571D01*
X100544380Y-135405809D01*
X100544380Y-135643904D01*
X100592000Y-135786761D01*
X100544380Y-136072476D02*
X100544380Y-136643904D01*
X101544380Y-136358190D02*
X100544380Y-136358190D01*
X95512000Y-134620095D02*
X95464380Y-134524857D01*
X95464380Y-134382000D01*
X95512000Y-134239142D01*
X95607238Y-134143904D01*
X95702476Y-134096285D01*
X95892952Y-134048666D01*
X96035809Y-134048666D01*
X96226285Y-134096285D01*
X96321523Y-134143904D01*
X96416761Y-134239142D01*
X96464380Y-134382000D01*
X96464380Y-134477238D01*
X96416761Y-134620095D01*
X96369142Y-134667714D01*
X96035809Y-134667714D01*
X96035809Y-134477238D01*
X96464380Y-135096285D02*
X95464380Y-135096285D01*
X96464380Y-135667714D01*
X95464380Y-135667714D01*
X96464380Y-136143904D02*
X95464380Y-136143904D01*
X95464380Y-136382000D01*
X95512000Y-136524857D01*
X95607238Y-136620095D01*
X95702476Y-136667714D01*
X95892952Y-136715333D01*
X96035809Y-136715333D01*
X96226285Y-136667714D01*
X96321523Y-136620095D01*
X96416761Y-136524857D01*
X96464380Y-136382000D01*
X96464380Y-136143904D01*
X108291380Y-134016904D02*
X108291380Y-134635952D01*
X108672333Y-134302619D01*
X108672333Y-134445476D01*
X108719952Y-134540714D01*
X108767571Y-134588333D01*
X108862809Y-134635952D01*
X109100904Y-134635952D01*
X109196142Y-134588333D01*
X109243761Y-134540714D01*
X109291380Y-134445476D01*
X109291380Y-134159761D01*
X109243761Y-134064523D01*
X109196142Y-134016904D01*
X108291380Y-134921666D02*
X109291380Y-135255000D01*
X108291380Y-135588333D01*
X108291380Y-135826428D02*
X108291380Y-136445476D01*
X108672333Y-136112142D01*
X108672333Y-136255000D01*
X108719952Y-136350238D01*
X108767571Y-136397857D01*
X108862809Y-136445476D01*
X109100904Y-136445476D01*
X109196142Y-136397857D01*
X109243761Y-136350238D01*
X109291380Y-136255000D01*
X109291380Y-135969285D01*
X109243761Y-135874047D01*
X109196142Y-135826428D01*
X95718380Y-87646714D02*
X96527904Y-87646714D01*
X96623142Y-87694333D01*
X96670761Y-87741952D01*
X96718380Y-87837190D01*
X96718380Y-88027666D01*
X96670761Y-88122904D01*
X96623142Y-88170523D01*
X96527904Y-88218142D01*
X95718380Y-88218142D01*
X96670761Y-88646714D02*
X96718380Y-88789571D01*
X96718380Y-89027666D01*
X96670761Y-89122904D01*
X96623142Y-89170523D01*
X96527904Y-89218142D01*
X96432666Y-89218142D01*
X96337428Y-89170523D01*
X96289809Y-89122904D01*
X96242190Y-89027666D01*
X96194571Y-88837190D01*
X96146952Y-88741952D01*
X96099333Y-88694333D01*
X96004095Y-88646714D01*
X95908857Y-88646714D01*
X95813619Y-88694333D01*
X95766000Y-88741952D01*
X95718380Y-88837190D01*
X95718380Y-89075285D01*
X95766000Y-89218142D01*
X96194571Y-89980047D02*
X96242190Y-90122904D01*
X96289809Y-90170523D01*
X96385047Y-90218142D01*
X96527904Y-90218142D01*
X96623142Y-90170523D01*
X96670761Y-90122904D01*
X96718380Y-90027666D01*
X96718380Y-89646714D01*
X95718380Y-89646714D01*
X95718380Y-89980047D01*
X95766000Y-90075285D01*
X95813619Y-90122904D01*
X95908857Y-90170523D01*
X96004095Y-90170523D01*
X96099333Y-90122904D01*
X96146952Y-90075285D01*
X96194571Y-89980047D01*
X96194571Y-89646714D01*
X95718380Y-91265761D02*
X95718380Y-91837190D01*
X96718380Y-91551476D02*
X95718380Y-91551476D01*
X95718380Y-92361000D02*
X95718380Y-92551476D01*
X95766000Y-92646714D01*
X95861238Y-92741952D01*
X96051714Y-92789571D01*
X96385047Y-92789571D01*
X96575523Y-92741952D01*
X96670761Y-92646714D01*
X96718380Y-92551476D01*
X96718380Y-92361000D01*
X96670761Y-92265761D01*
X96575523Y-92170523D01*
X96385047Y-92122904D01*
X96051714Y-92122904D01*
X95861238Y-92170523D01*
X95766000Y-92265761D01*
X95718380Y-92361000D01*
X95718380Y-93980047D02*
X96527904Y-93980047D01*
X96623142Y-94027666D01*
X96670761Y-94075285D01*
X96718380Y-94170523D01*
X96718380Y-94361000D01*
X96670761Y-94456238D01*
X96623142Y-94503857D01*
X96527904Y-94551476D01*
X95718380Y-94551476D01*
X96432666Y-94980047D02*
X96432666Y-95456238D01*
X96718380Y-94884809D02*
X95718380Y-95218142D01*
X96718380Y-95551476D01*
X96718380Y-96456238D02*
X96242190Y-96122904D01*
X96718380Y-95884809D02*
X95718380Y-95884809D01*
X95718380Y-96265761D01*
X95766000Y-96361000D01*
X95813619Y-96408619D01*
X95908857Y-96456238D01*
X96051714Y-96456238D01*
X96146952Y-96408619D01*
X96194571Y-96361000D01*
X96242190Y-96265761D01*
X96242190Y-95884809D01*
X95718380Y-96741952D02*
X95718380Y-97313380D01*
X96718380Y-97027666D02*
X95718380Y-97027666D01*
X96051714Y-98313380D02*
X96718380Y-98551476D01*
X96051714Y-98789571D01*
X96718380Y-99694333D02*
X96718380Y-99122904D01*
X96718380Y-99408619D02*
X95718380Y-99408619D01*
X95861238Y-99313380D01*
X95956476Y-99218142D01*
X96004095Y-99122904D01*
X96623142Y-100122904D02*
X96670761Y-100170523D01*
X96718380Y-100122904D01*
X96670761Y-100075285D01*
X96623142Y-100122904D01*
X96718380Y-100122904D01*
X95718380Y-100789571D02*
X95718380Y-100884809D01*
X95766000Y-100980047D01*
X95813619Y-101027666D01*
X95908857Y-101075285D01*
X96099333Y-101122904D01*
X96337428Y-101122904D01*
X96527904Y-101075285D01*
X96623142Y-101027666D01*
X96670761Y-100980047D01*
X96718380Y-100884809D01*
X96718380Y-100789571D01*
X96670761Y-100694333D01*
X96623142Y-100646714D01*
X96527904Y-100599095D01*
X96337428Y-100551476D01*
X96099333Y-100551476D01*
X95908857Y-100599095D01*
X95813619Y-100646714D01*
X95766000Y-100694333D01*
X95718380Y-100789571D01*
X99004380Y-106195904D02*
X98004380Y-106195904D01*
X98004380Y-106576857D01*
X98052000Y-106672095D01*
X98099619Y-106719714D01*
X98194857Y-106767333D01*
X98337714Y-106767333D01*
X98432952Y-106719714D01*
X98480571Y-106672095D01*
X98528190Y-106576857D01*
X98528190Y-106195904D01*
X98004380Y-107386380D02*
X98004380Y-107481619D01*
X98052000Y-107576857D01*
X98099619Y-107624476D01*
X98194857Y-107672095D01*
X98385333Y-107719714D01*
X98623428Y-107719714D01*
X98813904Y-107672095D01*
X98909142Y-107624476D01*
X98956761Y-107576857D01*
X99004380Y-107481619D01*
X99004380Y-107386380D01*
X98956761Y-107291142D01*
X98909142Y-107243523D01*
X98813904Y-107195904D01*
X98623428Y-107148285D01*
X98385333Y-107148285D01*
X98194857Y-107195904D01*
X98099619Y-107243523D01*
X98052000Y-107291142D01*
X98004380Y-107386380D01*
X103211380Y-106172095D02*
X103211380Y-106743523D01*
X104211380Y-106457809D02*
X103211380Y-106457809D01*
X103211380Y-106981619D02*
X104211380Y-107648285D01*
X103211380Y-107648285D02*
X104211380Y-106981619D01*
X106751380Y-106767333D02*
X106275190Y-106434000D01*
X106751380Y-106195904D02*
X105751380Y-106195904D01*
X105751380Y-106576857D01*
X105799000Y-106672095D01*
X105846619Y-106719714D01*
X105941857Y-106767333D01*
X106084714Y-106767333D01*
X106179952Y-106719714D01*
X106227571Y-106672095D01*
X106275190Y-106576857D01*
X106275190Y-106195904D01*
X105751380Y-107100666D02*
X106751380Y-107767333D01*
X105751380Y-107767333D02*
X106751380Y-107100666D01*
X110958380Y-106616523D02*
X110958380Y-106140333D01*
X111434571Y-106092714D01*
X111386952Y-106140333D01*
X111339333Y-106235571D01*
X111339333Y-106473666D01*
X111386952Y-106568904D01*
X111434571Y-106616523D01*
X111529809Y-106664142D01*
X111767904Y-106664142D01*
X111863142Y-106616523D01*
X111910761Y-106568904D01*
X111958380Y-106473666D01*
X111958380Y-106235571D01*
X111910761Y-106140333D01*
X111863142Y-106092714D01*
X110958380Y-106949857D02*
X111958380Y-107283190D01*
X110958380Y-107616523D01*
X101544380Y-106386380D02*
X101068190Y-106053047D01*
X101544380Y-105814952D02*
X100544380Y-105814952D01*
X100544380Y-106195904D01*
X100592000Y-106291142D01*
X100639619Y-106338761D01*
X100734857Y-106386380D01*
X100877714Y-106386380D01*
X100972952Y-106338761D01*
X101020571Y-106291142D01*
X101068190Y-106195904D01*
X101068190Y-105814952D01*
X101496761Y-106767333D02*
X101544380Y-106910190D01*
X101544380Y-107148285D01*
X101496761Y-107243523D01*
X101449142Y-107291142D01*
X101353904Y-107338761D01*
X101258666Y-107338761D01*
X101163428Y-107291142D01*
X101115809Y-107243523D01*
X101068190Y-107148285D01*
X101020571Y-106957809D01*
X100972952Y-106862571D01*
X100925333Y-106814952D01*
X100830095Y-106767333D01*
X100734857Y-106767333D01*
X100639619Y-106814952D01*
X100592000Y-106862571D01*
X100544380Y-106957809D01*
X100544380Y-107195904D01*
X100592000Y-107338761D01*
X100544380Y-107624476D02*
X100544380Y-108195904D01*
X101544380Y-107910190D02*
X100544380Y-107910190D01*
X95512000Y-106172095D02*
X95464380Y-106076857D01*
X95464380Y-105934000D01*
X95512000Y-105791142D01*
X95607238Y-105695904D01*
X95702476Y-105648285D01*
X95892952Y-105600666D01*
X96035809Y-105600666D01*
X96226285Y-105648285D01*
X96321523Y-105695904D01*
X96416761Y-105791142D01*
X96464380Y-105934000D01*
X96464380Y-106029238D01*
X96416761Y-106172095D01*
X96369142Y-106219714D01*
X96035809Y-106219714D01*
X96035809Y-106029238D01*
X96464380Y-106648285D02*
X95464380Y-106648285D01*
X96464380Y-107219714D01*
X95464380Y-107219714D01*
X96464380Y-107695904D02*
X95464380Y-107695904D01*
X95464380Y-107934000D01*
X95512000Y-108076857D01*
X95607238Y-108172095D01*
X95702476Y-108219714D01*
X95892952Y-108267333D01*
X96035809Y-108267333D01*
X96226285Y-108219714D01*
X96321523Y-108172095D01*
X96416761Y-108076857D01*
X96464380Y-107934000D01*
X96464380Y-107695904D01*
X108291380Y-105568904D02*
X108291380Y-106187952D01*
X108672333Y-105854619D01*
X108672333Y-105997476D01*
X108719952Y-106092714D01*
X108767571Y-106140333D01*
X108862809Y-106187952D01*
X109100904Y-106187952D01*
X109196142Y-106140333D01*
X109243761Y-106092714D01*
X109291380Y-105997476D01*
X109291380Y-105711761D01*
X109243761Y-105616523D01*
X109196142Y-105568904D01*
X108291380Y-106473666D02*
X109291380Y-106807000D01*
X108291380Y-107140333D01*
X108291380Y-107378428D02*
X108291380Y-107997476D01*
X108672333Y-107664142D01*
X108672333Y-107807000D01*
X108719952Y-107902238D01*
X108767571Y-107949857D01*
X108862809Y-107997476D01*
X109100904Y-107997476D01*
X109196142Y-107949857D01*
X109243761Y-107902238D01*
X109291380Y-107807000D01*
X109291380Y-107521285D01*
X109243761Y-107426047D01*
X109196142Y-107378428D01*
X118220285Y-65873380D02*
X118220285Y-66682904D01*
X118172666Y-66778142D01*
X118125047Y-66825761D01*
X118029809Y-66873380D01*
X117839333Y-66873380D01*
X117744095Y-66825761D01*
X117696476Y-66778142D01*
X117648857Y-66682904D01*
X117648857Y-65873380D01*
X117220285Y-66825761D02*
X117077428Y-66873380D01*
X116839333Y-66873380D01*
X116744095Y-66825761D01*
X116696476Y-66778142D01*
X116648857Y-66682904D01*
X116648857Y-66587666D01*
X116696476Y-66492428D01*
X116744095Y-66444809D01*
X116839333Y-66397190D01*
X117029809Y-66349571D01*
X117125047Y-66301952D01*
X117172666Y-66254333D01*
X117220285Y-66159095D01*
X117220285Y-66063857D01*
X117172666Y-65968619D01*
X117125047Y-65921000D01*
X117029809Y-65873380D01*
X116791714Y-65873380D01*
X116648857Y-65921000D01*
X115886952Y-66349571D02*
X115744095Y-66397190D01*
X115696476Y-66444809D01*
X115648857Y-66540047D01*
X115648857Y-66682904D01*
X115696476Y-66778142D01*
X115744095Y-66825761D01*
X115839333Y-66873380D01*
X116220285Y-66873380D01*
X116220285Y-65873380D01*
X115886952Y-65873380D01*
X115791714Y-65921000D01*
X115744095Y-65968619D01*
X115696476Y-66063857D01*
X115696476Y-66159095D01*
X115744095Y-66254333D01*
X115791714Y-66301952D01*
X115886952Y-66349571D01*
X116220285Y-66349571D01*
X114601238Y-65873380D02*
X114029809Y-65873380D01*
X114315523Y-66873380D02*
X114315523Y-65873380D01*
X113506000Y-65873380D02*
X113315523Y-65873380D01*
X113220285Y-65921000D01*
X113125047Y-66016238D01*
X113077428Y-66206714D01*
X113077428Y-66540047D01*
X113125047Y-66730523D01*
X113220285Y-66825761D01*
X113315523Y-66873380D01*
X113506000Y-66873380D01*
X113601238Y-66825761D01*
X113696476Y-66730523D01*
X113744095Y-66540047D01*
X113744095Y-66206714D01*
X113696476Y-66016238D01*
X113601238Y-65921000D01*
X113506000Y-65873380D01*
X111886952Y-65873380D02*
X111886952Y-66682904D01*
X111839333Y-66778142D01*
X111791714Y-66825761D01*
X111696476Y-66873380D01*
X111506000Y-66873380D01*
X111410761Y-66825761D01*
X111363142Y-66778142D01*
X111315523Y-66682904D01*
X111315523Y-65873380D01*
X110886952Y-66587666D02*
X110410761Y-66587666D01*
X110982190Y-66873380D02*
X110648857Y-65873380D01*
X110315523Y-66873380D01*
X109410761Y-66873380D02*
X109744095Y-66397190D01*
X109982190Y-66873380D02*
X109982190Y-65873380D01*
X109601238Y-65873380D01*
X109506000Y-65921000D01*
X109458380Y-65968619D01*
X109410761Y-66063857D01*
X109410761Y-66206714D01*
X109458380Y-66301952D01*
X109506000Y-66349571D01*
X109601238Y-66397190D01*
X109982190Y-66397190D01*
X109125047Y-65873380D02*
X108553619Y-65873380D01*
X108839333Y-66873380D02*
X108839333Y-65873380D01*
X107553619Y-66206714D02*
X107315523Y-66873380D01*
X107077428Y-66206714D01*
X106172666Y-66873380D02*
X106744095Y-66873380D01*
X106458380Y-66873380D02*
X106458380Y-65873380D01*
X106553619Y-66016238D01*
X106648857Y-66111476D01*
X106744095Y-66159095D01*
X105744095Y-66778142D02*
X105696476Y-66825761D01*
X105744095Y-66873380D01*
X105791714Y-66825761D01*
X105744095Y-66778142D01*
X105744095Y-66873380D01*
X105077428Y-65873380D02*
X104982190Y-65873380D01*
X104886952Y-65921000D01*
X104839333Y-65968619D01*
X104791714Y-66063857D01*
X104744095Y-66254333D01*
X104744095Y-66492428D01*
X104791714Y-66682904D01*
X104839333Y-66778142D01*
X104886952Y-66825761D01*
X104982190Y-66873380D01*
X105077428Y-66873380D01*
X105172666Y-66825761D01*
X105220285Y-66778142D01*
X105267904Y-66682904D01*
X105315523Y-66492428D01*
X105315523Y-66254333D01*
X105267904Y-66063857D01*
X105220285Y-65968619D01*
X105172666Y-65921000D01*
X105077428Y-65873380D01*
X99671095Y-69159380D02*
X99671095Y-68159380D01*
X99290142Y-68159380D01*
X99194904Y-68207000D01*
X99147285Y-68254619D01*
X99099666Y-68349857D01*
X99099666Y-68492714D01*
X99147285Y-68587952D01*
X99194904Y-68635571D01*
X99290142Y-68683190D01*
X99671095Y-68683190D01*
X98480619Y-68159380D02*
X98385380Y-68159380D01*
X98290142Y-68207000D01*
X98242523Y-68254619D01*
X98194904Y-68349857D01*
X98147285Y-68540333D01*
X98147285Y-68778428D01*
X98194904Y-68968904D01*
X98242523Y-69064142D01*
X98290142Y-69111761D01*
X98385380Y-69159380D01*
X98480619Y-69159380D01*
X98575857Y-69111761D01*
X98623476Y-69064142D01*
X98671095Y-68968904D01*
X98718714Y-68778428D01*
X98718714Y-68540333D01*
X98671095Y-68349857D01*
X98623476Y-68254619D01*
X98575857Y-68207000D01*
X98480619Y-68159380D01*
X99694904Y-73366380D02*
X99123476Y-73366380D01*
X99409190Y-74366380D02*
X99409190Y-73366380D01*
X98885380Y-73366380D02*
X98218714Y-74366380D01*
X98218714Y-73366380D02*
X98885380Y-74366380D01*
X99099666Y-76906380D02*
X99433000Y-76430190D01*
X99671095Y-76906380D02*
X99671095Y-75906380D01*
X99290142Y-75906380D01*
X99194904Y-75954000D01*
X99147285Y-76001619D01*
X99099666Y-76096857D01*
X99099666Y-76239714D01*
X99147285Y-76334952D01*
X99194904Y-76382571D01*
X99290142Y-76430190D01*
X99671095Y-76430190D01*
X98766333Y-75906380D02*
X98099666Y-76906380D01*
X98099666Y-75906380D02*
X98766333Y-76906380D01*
X99250476Y-81113380D02*
X99726666Y-81113380D01*
X99774285Y-81589571D01*
X99726666Y-81541952D01*
X99631428Y-81494333D01*
X99393333Y-81494333D01*
X99298095Y-81541952D01*
X99250476Y-81589571D01*
X99202857Y-81684809D01*
X99202857Y-81922904D01*
X99250476Y-82018142D01*
X99298095Y-82065761D01*
X99393333Y-82113380D01*
X99631428Y-82113380D01*
X99726666Y-82065761D01*
X99774285Y-82018142D01*
X98917142Y-81113380D02*
X98583809Y-82113380D01*
X98250476Y-81113380D01*
X99480619Y-71699380D02*
X99813952Y-71223190D01*
X100052047Y-71699380D02*
X100052047Y-70699380D01*
X99671095Y-70699380D01*
X99575857Y-70747000D01*
X99528238Y-70794619D01*
X99480619Y-70889857D01*
X99480619Y-71032714D01*
X99528238Y-71127952D01*
X99575857Y-71175571D01*
X99671095Y-71223190D01*
X100052047Y-71223190D01*
X99099666Y-71651761D02*
X98956809Y-71699380D01*
X98718714Y-71699380D01*
X98623476Y-71651761D01*
X98575857Y-71604142D01*
X98528238Y-71508904D01*
X98528238Y-71413666D01*
X98575857Y-71318428D01*
X98623476Y-71270809D01*
X98718714Y-71223190D01*
X98909190Y-71175571D01*
X99004428Y-71127952D01*
X99052047Y-71080333D01*
X99099666Y-70985095D01*
X99099666Y-70889857D01*
X99052047Y-70794619D01*
X99004428Y-70747000D01*
X98909190Y-70699380D01*
X98671095Y-70699380D01*
X98528238Y-70747000D01*
X98242523Y-70699380D02*
X97671095Y-70699380D01*
X97956809Y-71699380D02*
X97956809Y-70699380D01*
X99694904Y-65667000D02*
X99790142Y-65619380D01*
X99933000Y-65619380D01*
X100075857Y-65667000D01*
X100171095Y-65762238D01*
X100218714Y-65857476D01*
X100266333Y-66047952D01*
X100266333Y-66190809D01*
X100218714Y-66381285D01*
X100171095Y-66476523D01*
X100075857Y-66571761D01*
X99933000Y-66619380D01*
X99837761Y-66619380D01*
X99694904Y-66571761D01*
X99647285Y-66524142D01*
X99647285Y-66190809D01*
X99837761Y-66190809D01*
X99218714Y-66619380D02*
X99218714Y-65619380D01*
X98647285Y-66619380D01*
X98647285Y-65619380D01*
X98171095Y-66619380D02*
X98171095Y-65619380D01*
X97933000Y-65619380D01*
X97790142Y-65667000D01*
X97694904Y-65762238D01*
X97647285Y-65857476D01*
X97599666Y-66047952D01*
X97599666Y-66190809D01*
X97647285Y-66381285D01*
X97694904Y-66476523D01*
X97790142Y-66571761D01*
X97933000Y-66619380D01*
X98171095Y-66619380D01*
X100298095Y-78446380D02*
X99679047Y-78446380D01*
X100012380Y-78827333D01*
X99869523Y-78827333D01*
X99774285Y-78874952D01*
X99726666Y-78922571D01*
X99679047Y-79017809D01*
X99679047Y-79255904D01*
X99726666Y-79351142D01*
X99774285Y-79398761D01*
X99869523Y-79446380D01*
X100155238Y-79446380D01*
X100250476Y-79398761D01*
X100298095Y-79351142D01*
X99393333Y-78446380D02*
X99060000Y-79446380D01*
X98726666Y-78446380D01*
X98488571Y-78446380D02*
X97869523Y-78446380D01*
X98202857Y-78827333D01*
X98060000Y-78827333D01*
X97964761Y-78874952D01*
X97917142Y-78922571D01*
X97869523Y-79017809D01*
X97869523Y-79255904D01*
X97917142Y-79351142D01*
X97964761Y-79398761D01*
X98060000Y-79446380D01*
X98345714Y-79446380D01*
X98440952Y-79398761D01*
X98488571Y-79351142D01*
X118220285Y-43775380D02*
X118220285Y-44584904D01*
X118172666Y-44680142D01*
X118125047Y-44727761D01*
X118029809Y-44775380D01*
X117839333Y-44775380D01*
X117744095Y-44727761D01*
X117696476Y-44680142D01*
X117648857Y-44584904D01*
X117648857Y-43775380D01*
X117220285Y-44727761D02*
X117077428Y-44775380D01*
X116839333Y-44775380D01*
X116744095Y-44727761D01*
X116696476Y-44680142D01*
X116648857Y-44584904D01*
X116648857Y-44489666D01*
X116696476Y-44394428D01*
X116744095Y-44346809D01*
X116839333Y-44299190D01*
X117029809Y-44251571D01*
X117125047Y-44203952D01*
X117172666Y-44156333D01*
X117220285Y-44061095D01*
X117220285Y-43965857D01*
X117172666Y-43870619D01*
X117125047Y-43823000D01*
X117029809Y-43775380D01*
X116791714Y-43775380D01*
X116648857Y-43823000D01*
X115886952Y-44251571D02*
X115744095Y-44299190D01*
X115696476Y-44346809D01*
X115648857Y-44442047D01*
X115648857Y-44584904D01*
X115696476Y-44680142D01*
X115744095Y-44727761D01*
X115839333Y-44775380D01*
X116220285Y-44775380D01*
X116220285Y-43775380D01*
X115886952Y-43775380D01*
X115791714Y-43823000D01*
X115744095Y-43870619D01*
X115696476Y-43965857D01*
X115696476Y-44061095D01*
X115744095Y-44156333D01*
X115791714Y-44203952D01*
X115886952Y-44251571D01*
X116220285Y-44251571D01*
X114601238Y-43775380D02*
X114029809Y-43775380D01*
X114315523Y-44775380D02*
X114315523Y-43775380D01*
X113506000Y-43775380D02*
X113315523Y-43775380D01*
X113220285Y-43823000D01*
X113125047Y-43918238D01*
X113077428Y-44108714D01*
X113077428Y-44442047D01*
X113125047Y-44632523D01*
X113220285Y-44727761D01*
X113315523Y-44775380D01*
X113506000Y-44775380D01*
X113601238Y-44727761D01*
X113696476Y-44632523D01*
X113744095Y-44442047D01*
X113744095Y-44108714D01*
X113696476Y-43918238D01*
X113601238Y-43823000D01*
X113506000Y-43775380D01*
X111886952Y-43775380D02*
X111886952Y-44584904D01*
X111839333Y-44680142D01*
X111791714Y-44727761D01*
X111696476Y-44775380D01*
X111506000Y-44775380D01*
X111410761Y-44727761D01*
X111363142Y-44680142D01*
X111315523Y-44584904D01*
X111315523Y-43775380D01*
X110886952Y-44489666D02*
X110410761Y-44489666D01*
X110982190Y-44775380D02*
X110648857Y-43775380D01*
X110315523Y-44775380D01*
X109410761Y-44775380D02*
X109744095Y-44299190D01*
X109982190Y-44775380D02*
X109982190Y-43775380D01*
X109601238Y-43775380D01*
X109506000Y-43823000D01*
X109458380Y-43870619D01*
X109410761Y-43965857D01*
X109410761Y-44108714D01*
X109458380Y-44203952D01*
X109506000Y-44251571D01*
X109601238Y-44299190D01*
X109982190Y-44299190D01*
X109125047Y-43775380D02*
X108553619Y-43775380D01*
X108839333Y-44775380D02*
X108839333Y-43775380D01*
X107553619Y-44108714D02*
X107315523Y-44775380D01*
X107077428Y-44108714D01*
X106172666Y-44775380D02*
X106744095Y-44775380D01*
X106458380Y-44775380D02*
X106458380Y-43775380D01*
X106553619Y-43918238D01*
X106648857Y-44013476D01*
X106744095Y-44061095D01*
X105744095Y-44680142D02*
X105696476Y-44727761D01*
X105744095Y-44775380D01*
X105791714Y-44727761D01*
X105744095Y-44680142D01*
X105744095Y-44775380D01*
X105077428Y-43775380D02*
X104982190Y-43775380D01*
X104886952Y-43823000D01*
X104839333Y-43870619D01*
X104791714Y-43965857D01*
X104744095Y-44156333D01*
X104744095Y-44394428D01*
X104791714Y-44584904D01*
X104839333Y-44680142D01*
X104886952Y-44727761D01*
X104982190Y-44775380D01*
X105077428Y-44775380D01*
X105172666Y-44727761D01*
X105220285Y-44680142D01*
X105267904Y-44584904D01*
X105315523Y-44394428D01*
X105315523Y-44156333D01*
X105267904Y-43965857D01*
X105220285Y-43870619D01*
X105172666Y-43823000D01*
X105077428Y-43775380D01*
X99671095Y-47061380D02*
X99671095Y-46061380D01*
X99290142Y-46061380D01*
X99194904Y-46109000D01*
X99147285Y-46156619D01*
X99099666Y-46251857D01*
X99099666Y-46394714D01*
X99147285Y-46489952D01*
X99194904Y-46537571D01*
X99290142Y-46585190D01*
X99671095Y-46585190D01*
X98480619Y-46061380D02*
X98385380Y-46061380D01*
X98290142Y-46109000D01*
X98242523Y-46156619D01*
X98194904Y-46251857D01*
X98147285Y-46442333D01*
X98147285Y-46680428D01*
X98194904Y-46870904D01*
X98242523Y-46966142D01*
X98290142Y-47013761D01*
X98385380Y-47061380D01*
X98480619Y-47061380D01*
X98575857Y-47013761D01*
X98623476Y-46966142D01*
X98671095Y-46870904D01*
X98718714Y-46680428D01*
X98718714Y-46442333D01*
X98671095Y-46251857D01*
X98623476Y-46156619D01*
X98575857Y-46109000D01*
X98480619Y-46061380D01*
X99694904Y-51268380D02*
X99123476Y-51268380D01*
X99409190Y-52268380D02*
X99409190Y-51268380D01*
X98885380Y-51268380D02*
X98218714Y-52268380D01*
X98218714Y-51268380D02*
X98885380Y-52268380D01*
X100298095Y-56348380D02*
X99679047Y-56348380D01*
X100012380Y-56729333D01*
X99869523Y-56729333D01*
X99774285Y-56776952D01*
X99726666Y-56824571D01*
X99679047Y-56919809D01*
X99679047Y-57157904D01*
X99726666Y-57253142D01*
X99774285Y-57300761D01*
X99869523Y-57348380D01*
X100155238Y-57348380D01*
X100250476Y-57300761D01*
X100298095Y-57253142D01*
X99393333Y-56348380D02*
X99060000Y-57348380D01*
X98726666Y-56348380D01*
X98488571Y-56348380D02*
X97869523Y-56348380D01*
X98202857Y-56729333D01*
X98060000Y-56729333D01*
X97964761Y-56776952D01*
X97917142Y-56824571D01*
X97869523Y-56919809D01*
X97869523Y-57157904D01*
X97917142Y-57253142D01*
X97964761Y-57300761D01*
X98060000Y-57348380D01*
X98345714Y-57348380D01*
X98440952Y-57300761D01*
X98488571Y-57253142D01*
X99099666Y-54808380D02*
X99433000Y-54332190D01*
X99671095Y-54808380D02*
X99671095Y-53808380D01*
X99290142Y-53808380D01*
X99194904Y-53856000D01*
X99147285Y-53903619D01*
X99099666Y-53998857D01*
X99099666Y-54141714D01*
X99147285Y-54236952D01*
X99194904Y-54284571D01*
X99290142Y-54332190D01*
X99671095Y-54332190D01*
X98766333Y-53808380D02*
X98099666Y-54808380D01*
X98099666Y-53808380D02*
X98766333Y-54808380D01*
X99250476Y-59015380D02*
X99726666Y-59015380D01*
X99774285Y-59491571D01*
X99726666Y-59443952D01*
X99631428Y-59396333D01*
X99393333Y-59396333D01*
X99298095Y-59443952D01*
X99250476Y-59491571D01*
X99202857Y-59586809D01*
X99202857Y-59824904D01*
X99250476Y-59920142D01*
X99298095Y-59967761D01*
X99393333Y-60015380D01*
X99631428Y-60015380D01*
X99726666Y-59967761D01*
X99774285Y-59920142D01*
X98917142Y-59015380D02*
X98583809Y-60015380D01*
X98250476Y-59015380D01*
X99480619Y-49601380D02*
X99813952Y-49125190D01*
X100052047Y-49601380D02*
X100052047Y-48601380D01*
X99671095Y-48601380D01*
X99575857Y-48649000D01*
X99528238Y-48696619D01*
X99480619Y-48791857D01*
X99480619Y-48934714D01*
X99528238Y-49029952D01*
X99575857Y-49077571D01*
X99671095Y-49125190D01*
X100052047Y-49125190D01*
X99099666Y-49553761D02*
X98956809Y-49601380D01*
X98718714Y-49601380D01*
X98623476Y-49553761D01*
X98575857Y-49506142D01*
X98528238Y-49410904D01*
X98528238Y-49315666D01*
X98575857Y-49220428D01*
X98623476Y-49172809D01*
X98718714Y-49125190D01*
X98909190Y-49077571D01*
X99004428Y-49029952D01*
X99052047Y-48982333D01*
X99099666Y-48887095D01*
X99099666Y-48791857D01*
X99052047Y-48696619D01*
X99004428Y-48649000D01*
X98909190Y-48601380D01*
X98671095Y-48601380D01*
X98528238Y-48649000D01*
X98242523Y-48601380D02*
X97671095Y-48601380D01*
X97956809Y-49601380D02*
X97956809Y-48601380D01*
X99694904Y-43569000D02*
X99790142Y-43521380D01*
X99933000Y-43521380D01*
X100075857Y-43569000D01*
X100171095Y-43664238D01*
X100218714Y-43759476D01*
X100266333Y-43949952D01*
X100266333Y-44092809D01*
X100218714Y-44283285D01*
X100171095Y-44378523D01*
X100075857Y-44473761D01*
X99933000Y-44521380D01*
X99837761Y-44521380D01*
X99694904Y-44473761D01*
X99647285Y-44426142D01*
X99647285Y-44092809D01*
X99837761Y-44092809D01*
X99218714Y-44521380D02*
X99218714Y-43521380D01*
X98647285Y-44521380D01*
X98647285Y-43521380D01*
X98171095Y-44521380D02*
X98171095Y-43521380D01*
X97933000Y-43521380D01*
X97790142Y-43569000D01*
X97694904Y-43664238D01*
X97647285Y-43759476D01*
X97599666Y-43949952D01*
X97599666Y-44092809D01*
X97647285Y-44283285D01*
X97694904Y-44378523D01*
X97790142Y-44473761D01*
X97933000Y-44521380D01*
X98171095Y-44521380D01*
X123198000Y-96393095D02*
X123150380Y-96297857D01*
X123150380Y-96155000D01*
X123198000Y-96012142D01*
X123293238Y-95916904D01*
X123388476Y-95869285D01*
X123578952Y-95821666D01*
X123721809Y-95821666D01*
X123912285Y-95869285D01*
X124007523Y-95916904D01*
X124102761Y-96012142D01*
X124150380Y-96155000D01*
X124150380Y-96250238D01*
X124102761Y-96393095D01*
X124055142Y-96440714D01*
X123721809Y-96440714D01*
X123721809Y-96250238D01*
X124150380Y-96869285D02*
X123150380Y-96869285D01*
X124150380Y-97440714D01*
X123150380Y-97440714D01*
X124150380Y-97916904D02*
X123150380Y-97916904D01*
X123150380Y-98155000D01*
X123198000Y-98297857D01*
X123293238Y-98393095D01*
X123388476Y-98440714D01*
X123578952Y-98488333D01*
X123721809Y-98488333D01*
X123912285Y-98440714D01*
X124007523Y-98393095D01*
X124102761Y-98297857D01*
X124150380Y-98155000D01*
X124150380Y-97916904D01*
X125817380Y-95916904D02*
X125817380Y-96535952D01*
X126198333Y-96202619D01*
X126198333Y-96345476D01*
X126245952Y-96440714D01*
X126293571Y-96488333D01*
X126388809Y-96535952D01*
X126626904Y-96535952D01*
X126722142Y-96488333D01*
X126769761Y-96440714D01*
X126817380Y-96345476D01*
X126817380Y-96059761D01*
X126769761Y-95964523D01*
X126722142Y-95916904D01*
X125817380Y-96821666D02*
X126817380Y-97155000D01*
X125817380Y-97488333D01*
X125817380Y-97726428D02*
X125817380Y-98345476D01*
X126198333Y-98012142D01*
X126198333Y-98155000D01*
X126245952Y-98250238D01*
X126293571Y-98297857D01*
X126388809Y-98345476D01*
X126626904Y-98345476D01*
X126722142Y-98297857D01*
X126769761Y-98250238D01*
X126817380Y-98155000D01*
X126817380Y-97869285D01*
X126769761Y-97774047D01*
X126722142Y-97726428D01*
X128944666Y-96440714D02*
X128944666Y-96916904D01*
X129230380Y-96345476D02*
X128230380Y-96678809D01*
X129230380Y-97012142D01*
X128230380Y-97535952D02*
X128230380Y-97631190D01*
X128278000Y-97726428D01*
X128325619Y-97774047D01*
X128420857Y-97821666D01*
X128611333Y-97869285D01*
X128849428Y-97869285D01*
X129039904Y-97821666D01*
X129135142Y-97774047D01*
X129182761Y-97726428D01*
X129230380Y-97631190D01*
X129230380Y-97535952D01*
X129182761Y-97440714D01*
X129135142Y-97393095D01*
X129039904Y-97345476D01*
X128849428Y-97297857D01*
X128611333Y-97297857D01*
X128420857Y-97345476D01*
X128325619Y-97393095D01*
X128278000Y-97440714D01*
X128230380Y-97535952D01*
X125817380Y-104679904D02*
X125817380Y-105298952D01*
X126198333Y-104965619D01*
X126198333Y-105108476D01*
X126245952Y-105203714D01*
X126293571Y-105251333D01*
X126388809Y-105298952D01*
X126626904Y-105298952D01*
X126722142Y-105251333D01*
X126769761Y-105203714D01*
X126817380Y-105108476D01*
X126817380Y-104822761D01*
X126769761Y-104727523D01*
X126722142Y-104679904D01*
X125817380Y-105584666D02*
X126817380Y-105918000D01*
X125817380Y-106251333D01*
X125817380Y-106489428D02*
X125817380Y-107108476D01*
X126198333Y-106775142D01*
X126198333Y-106918000D01*
X126245952Y-107013238D01*
X126293571Y-107060857D01*
X126388809Y-107108476D01*
X126626904Y-107108476D01*
X126722142Y-107060857D01*
X126769761Y-107013238D01*
X126817380Y-106918000D01*
X126817380Y-106632285D01*
X126769761Y-106537047D01*
X126722142Y-106489428D01*
X123198000Y-105156095D02*
X123150380Y-105060857D01*
X123150380Y-104918000D01*
X123198000Y-104775142D01*
X123293238Y-104679904D01*
X123388476Y-104632285D01*
X123578952Y-104584666D01*
X123721809Y-104584666D01*
X123912285Y-104632285D01*
X124007523Y-104679904D01*
X124102761Y-104775142D01*
X124150380Y-104918000D01*
X124150380Y-105013238D01*
X124102761Y-105156095D01*
X124055142Y-105203714D01*
X123721809Y-105203714D01*
X123721809Y-105013238D01*
X124150380Y-105632285D02*
X123150380Y-105632285D01*
X124150380Y-106203714D01*
X123150380Y-106203714D01*
X124150380Y-106679904D02*
X123150380Y-106679904D01*
X123150380Y-106918000D01*
X123198000Y-107060857D01*
X123293238Y-107156095D01*
X123388476Y-107203714D01*
X123578952Y-107251333D01*
X123721809Y-107251333D01*
X123912285Y-107203714D01*
X124007523Y-107156095D01*
X124102761Y-107060857D01*
X124150380Y-106918000D01*
X124150380Y-106679904D01*
X129230380Y-105179904D02*
X128230380Y-105179904D01*
X128230380Y-105418000D01*
X128278000Y-105560857D01*
X128373238Y-105656095D01*
X128468476Y-105703714D01*
X128658952Y-105751333D01*
X128801809Y-105751333D01*
X128992285Y-105703714D01*
X129087523Y-105656095D01*
X129182761Y-105560857D01*
X129230380Y-105418000D01*
X129230380Y-105179904D01*
X128230380Y-106608476D02*
X128230380Y-106418000D01*
X128278000Y-106322761D01*
X128325619Y-106275142D01*
X128468476Y-106179904D01*
X128658952Y-106132285D01*
X129039904Y-106132285D01*
X129135142Y-106179904D01*
X129182761Y-106227523D01*
X129230380Y-106322761D01*
X129230380Y-106513238D01*
X129182761Y-106608476D01*
X129135142Y-106656095D01*
X129039904Y-106703714D01*
X128801809Y-106703714D01*
X128706571Y-106656095D01*
X128658952Y-106608476D01*
X128611333Y-106513238D01*
X128611333Y-106322761D01*
X128658952Y-106227523D01*
X128706571Y-106179904D01*
X128801809Y-106132285D01*
X143954523Y-114593619D02*
X143478333Y-114593619D01*
X143430714Y-114117428D01*
X143478333Y-114165047D01*
X143573571Y-114212666D01*
X143811666Y-114212666D01*
X143906904Y-114165047D01*
X143954523Y-114117428D01*
X144002142Y-114022190D01*
X144002142Y-113784095D01*
X143954523Y-113688857D01*
X143906904Y-113641238D01*
X143811666Y-113593619D01*
X143573571Y-113593619D01*
X143478333Y-113641238D01*
X143430714Y-113688857D01*
X144287857Y-114593619D02*
X144621190Y-113593619D01*
X144954523Y-114593619D01*
X143629142Y-116133619D02*
X143152952Y-116133619D01*
X143152952Y-117133619D01*
X143962476Y-116657428D02*
X144295809Y-116657428D01*
X144438666Y-116133619D02*
X143962476Y-116133619D01*
X143962476Y-117133619D01*
X144438666Y-117133619D01*
X144867238Y-116133619D02*
X144867238Y-117133619D01*
X145105333Y-117133619D01*
X145248190Y-117086000D01*
X145343428Y-116990761D01*
X145391047Y-116895523D01*
X145438666Y-116705047D01*
X145438666Y-116562190D01*
X145391047Y-116371714D01*
X145343428Y-116276476D01*
X145248190Y-116181238D01*
X145105333Y-116133619D01*
X144867238Y-116133619D01*
X143272000Y-118673619D02*
X142938666Y-119149809D01*
X142700571Y-118673619D02*
X142700571Y-119673619D01*
X143081523Y-119673619D01*
X143176761Y-119626000D01*
X143224380Y-119578380D01*
X143272000Y-119483142D01*
X143272000Y-119340285D01*
X143224380Y-119245047D01*
X143176761Y-119197428D01*
X143081523Y-119149809D01*
X142700571Y-119149809D01*
X143700571Y-119197428D02*
X144033904Y-119197428D01*
X144176761Y-118673619D02*
X143700571Y-118673619D01*
X143700571Y-119673619D01*
X144176761Y-119673619D01*
X145081523Y-118673619D02*
X144605333Y-118673619D01*
X144605333Y-119673619D01*
X145414857Y-119197428D02*
X145748190Y-119197428D01*
X145891047Y-118673619D02*
X145414857Y-118673619D01*
X145414857Y-119673619D01*
X145891047Y-119673619D01*
X143510095Y-122420000D02*
X143414857Y-122467619D01*
X143272000Y-122467619D01*
X143129142Y-122420000D01*
X143033904Y-122324761D01*
X142986285Y-122229523D01*
X142938666Y-122039047D01*
X142938666Y-121896190D01*
X142986285Y-121705714D01*
X143033904Y-121610476D01*
X143129142Y-121515238D01*
X143272000Y-121467619D01*
X143367238Y-121467619D01*
X143510095Y-121515238D01*
X143557714Y-121562857D01*
X143557714Y-121896190D01*
X143367238Y-121896190D01*
X143986285Y-121467619D02*
X143986285Y-122467619D01*
X144557714Y-121467619D01*
X144557714Y-122467619D01*
X145033904Y-121467619D02*
X145033904Y-122467619D01*
X145272000Y-122467619D01*
X145414857Y-122420000D01*
X145510095Y-122324761D01*
X145557714Y-122229523D01*
X145605333Y-122039047D01*
X145605333Y-121896190D01*
X145557714Y-121705714D01*
X145510095Y-121610476D01*
X145414857Y-121515238D01*
X145272000Y-121467619D01*
X145033904Y-121467619D01*
D11*
X162082815Y-45466000D02*
G75*
G03*
X162082815Y-45466000I-538815J0D01*
G01*
X142016815Y-45593000D02*
G75*
G03*
X142016815Y-45593000I-538815J0D01*
G01*
X145288000Y-60452000D02*
X145288000Y-60579000D01*
X145288000Y-60452000D02*
X144526000Y-59309000D01*
X146050000Y-60452000D02*
X144399000Y-60452000D01*
X146050000Y-59309000D02*
X145288000Y-60452000D01*
X145288000Y-59309000D02*
X145288000Y-59055000D01*
X144526000Y-59309000D02*
X146050000Y-59309000D01*
X160274000Y-60579000D02*
X160274000Y-60706000D01*
X160274000Y-59436000D02*
X160274000Y-59182000D01*
X161036000Y-59436000D02*
X160274000Y-60579000D01*
X159512000Y-59436000D02*
X161036000Y-59436000D01*
X160274000Y-60579000D02*
X159512000Y-59436000D01*
X161036000Y-60579000D02*
X159385000Y-60579000D01*
D10*
X167727380Y-109664523D02*
X167727380Y-109188333D01*
X168203571Y-109140714D01*
X168155952Y-109188333D01*
X168108333Y-109283571D01*
X168108333Y-109521666D01*
X168155952Y-109616904D01*
X168203571Y-109664523D01*
X168298809Y-109712142D01*
X168536904Y-109712142D01*
X168632142Y-109664523D01*
X168679761Y-109616904D01*
X168727380Y-109521666D01*
X168727380Y-109283571D01*
X168679761Y-109188333D01*
X168632142Y-109140714D01*
X167727380Y-109997857D02*
X168727380Y-110331190D01*
X167727380Y-110664523D01*
X158440380Y-108989904D02*
X157440380Y-108989904D01*
X157440380Y-109228000D01*
X157488000Y-109370857D01*
X157583238Y-109466095D01*
X157678476Y-109513714D01*
X157868952Y-109561333D01*
X158011809Y-109561333D01*
X158202285Y-109513714D01*
X158297523Y-109466095D01*
X158392761Y-109370857D01*
X158440380Y-109228000D01*
X158440380Y-108989904D01*
X157535619Y-109942285D02*
X157488000Y-109989904D01*
X157440380Y-110085142D01*
X157440380Y-110323238D01*
X157488000Y-110418476D01*
X157535619Y-110466095D01*
X157630857Y-110513714D01*
X157726095Y-110513714D01*
X157868952Y-110466095D01*
X158440380Y-109894666D01*
X158440380Y-110513714D01*
X153360380Y-109561333D02*
X152884190Y-109228000D01*
X153360380Y-108989904D02*
X152360380Y-108989904D01*
X152360380Y-109370857D01*
X152408000Y-109466095D01*
X152455619Y-109513714D01*
X152550857Y-109561333D01*
X152693714Y-109561333D01*
X152788952Y-109513714D01*
X152836571Y-109466095D01*
X152884190Y-109370857D01*
X152884190Y-108989904D01*
X152360380Y-109894666D02*
X153360380Y-110561333D01*
X152360380Y-110561333D02*
X153360380Y-109894666D01*
X149820380Y-108966095D02*
X149820380Y-109537523D01*
X150820380Y-109251809D02*
X149820380Y-109251809D01*
X149820380Y-109775619D02*
X150820380Y-110442285D01*
X149820380Y-110442285D02*
X150820380Y-109775619D01*
X161107380Y-108989904D02*
X160107380Y-108989904D01*
X160107380Y-109228000D01*
X160155000Y-109370857D01*
X160250238Y-109466095D01*
X160345476Y-109513714D01*
X160535952Y-109561333D01*
X160678809Y-109561333D01*
X160869285Y-109513714D01*
X160964523Y-109466095D01*
X161059761Y-109370857D01*
X161107380Y-109228000D01*
X161107380Y-108989904D01*
X160107380Y-109894666D02*
X160107380Y-110513714D01*
X160488333Y-110180380D01*
X160488333Y-110323238D01*
X160535952Y-110418476D01*
X160583571Y-110466095D01*
X160678809Y-110513714D01*
X160916904Y-110513714D01*
X161012142Y-110466095D01*
X161059761Y-110418476D01*
X161107380Y-110323238D01*
X161107380Y-110037523D01*
X161059761Y-109942285D01*
X161012142Y-109894666D01*
X165108000Y-108966095D02*
X165060380Y-108870857D01*
X165060380Y-108728000D01*
X165108000Y-108585142D01*
X165203238Y-108489904D01*
X165298476Y-108442285D01*
X165488952Y-108394666D01*
X165631809Y-108394666D01*
X165822285Y-108442285D01*
X165917523Y-108489904D01*
X166012761Y-108585142D01*
X166060380Y-108728000D01*
X166060380Y-108823238D01*
X166012761Y-108966095D01*
X165965142Y-109013714D01*
X165631809Y-109013714D01*
X165631809Y-108823238D01*
X166060380Y-109442285D02*
X165060380Y-109442285D01*
X166060380Y-110013714D01*
X165060380Y-110013714D01*
X166060380Y-110489904D02*
X165060380Y-110489904D01*
X165060380Y-110728000D01*
X165108000Y-110870857D01*
X165203238Y-110966095D01*
X165298476Y-111013714D01*
X165488952Y-111061333D01*
X165631809Y-111061333D01*
X165822285Y-111013714D01*
X165917523Y-110966095D01*
X166012761Y-110870857D01*
X166060380Y-110728000D01*
X166060380Y-110489904D01*
X163647380Y-108989904D02*
X162647380Y-108989904D01*
X162647380Y-109228000D01*
X162695000Y-109370857D01*
X162790238Y-109466095D01*
X162885476Y-109513714D01*
X163075952Y-109561333D01*
X163218809Y-109561333D01*
X163409285Y-109513714D01*
X163504523Y-109466095D01*
X163599761Y-109370857D01*
X163647380Y-109228000D01*
X163647380Y-108989904D01*
X162980714Y-110418476D02*
X163647380Y-110418476D01*
X162599761Y-110180380D02*
X163314047Y-109942285D01*
X163314047Y-110561333D01*
X155900380Y-108989904D02*
X154900380Y-108989904D01*
X154900380Y-109228000D01*
X154948000Y-109370857D01*
X155043238Y-109466095D01*
X155138476Y-109513714D01*
X155328952Y-109561333D01*
X155471809Y-109561333D01*
X155662285Y-109513714D01*
X155757523Y-109466095D01*
X155852761Y-109370857D01*
X155900380Y-109228000D01*
X155900380Y-108989904D01*
X155900380Y-110513714D02*
X155900380Y-109942285D01*
X155900380Y-110228000D02*
X154900380Y-110228000D01*
X155043238Y-110132761D01*
X155138476Y-110037523D01*
X155186095Y-109942285D01*
X167727380Y-124618904D02*
X167727380Y-125237952D01*
X168108333Y-124904619D01*
X168108333Y-125047476D01*
X168155952Y-125142714D01*
X168203571Y-125190333D01*
X168298809Y-125237952D01*
X168536904Y-125237952D01*
X168632142Y-125190333D01*
X168679761Y-125142714D01*
X168727380Y-125047476D01*
X168727380Y-124761761D01*
X168679761Y-124666523D01*
X168632142Y-124618904D01*
X167727380Y-125523666D02*
X168727380Y-125857000D01*
X167727380Y-126190333D01*
X167727380Y-126428428D02*
X167727380Y-127047476D01*
X168108333Y-126714142D01*
X168108333Y-126857000D01*
X168155952Y-126952238D01*
X168203571Y-126999857D01*
X168298809Y-127047476D01*
X168536904Y-127047476D01*
X168632142Y-126999857D01*
X168679761Y-126952238D01*
X168727380Y-126857000D01*
X168727380Y-126571285D01*
X168679761Y-126476047D01*
X168632142Y-126428428D01*
X158567380Y-124991904D02*
X157567380Y-124991904D01*
X157567380Y-125230000D01*
X157615000Y-125372857D01*
X157710238Y-125468095D01*
X157805476Y-125515714D01*
X157995952Y-125563333D01*
X158138809Y-125563333D01*
X158329285Y-125515714D01*
X158424523Y-125468095D01*
X158519761Y-125372857D01*
X158567380Y-125230000D01*
X158567380Y-124991904D01*
X157567380Y-126468095D02*
X157567380Y-125991904D01*
X158043571Y-125944285D01*
X157995952Y-125991904D01*
X157948333Y-126087142D01*
X157948333Y-126325238D01*
X157995952Y-126420476D01*
X158043571Y-126468095D01*
X158138809Y-126515714D01*
X158376904Y-126515714D01*
X158472142Y-126468095D01*
X158519761Y-126420476D01*
X158567380Y-126325238D01*
X158567380Y-126087142D01*
X158519761Y-125991904D01*
X158472142Y-125944285D01*
X156027380Y-124991904D02*
X155027380Y-124991904D01*
X155027380Y-125230000D01*
X155075000Y-125372857D01*
X155170238Y-125468095D01*
X155265476Y-125515714D01*
X155455952Y-125563333D01*
X155598809Y-125563333D01*
X155789285Y-125515714D01*
X155884523Y-125468095D01*
X155979761Y-125372857D01*
X156027380Y-125230000D01*
X156027380Y-124991904D01*
X155027380Y-126182380D02*
X155027380Y-126277619D01*
X155075000Y-126372857D01*
X155122619Y-126420476D01*
X155217857Y-126468095D01*
X155408333Y-126515714D01*
X155646428Y-126515714D01*
X155836904Y-126468095D01*
X155932142Y-126420476D01*
X155979761Y-126372857D01*
X156027380Y-126277619D01*
X156027380Y-126182380D01*
X155979761Y-126087142D01*
X155932142Y-126039523D01*
X155836904Y-125991904D01*
X155646428Y-125944285D01*
X155408333Y-125944285D01*
X155217857Y-125991904D01*
X155122619Y-126039523D01*
X155075000Y-126087142D01*
X155027380Y-126182380D01*
X163520380Y-124991904D02*
X162520380Y-124991904D01*
X162520380Y-125230000D01*
X162568000Y-125372857D01*
X162663238Y-125468095D01*
X162758476Y-125515714D01*
X162948952Y-125563333D01*
X163091809Y-125563333D01*
X163282285Y-125515714D01*
X163377523Y-125468095D01*
X163472761Y-125372857D01*
X163520380Y-125230000D01*
X163520380Y-124991904D01*
X162520380Y-125896666D02*
X162520380Y-126563333D01*
X163520380Y-126134761D01*
X153201666Y-125015714D02*
X153201666Y-125491904D01*
X153487380Y-124920476D02*
X152487380Y-125253809D01*
X153487380Y-125587142D01*
X152487380Y-126110952D02*
X152487380Y-126206190D01*
X152535000Y-126301428D01*
X152582619Y-126349047D01*
X152677857Y-126396666D01*
X152868333Y-126444285D01*
X153106428Y-126444285D01*
X153296904Y-126396666D01*
X153392142Y-126349047D01*
X153439761Y-126301428D01*
X153487380Y-126206190D01*
X153487380Y-126110952D01*
X153439761Y-126015714D01*
X153392142Y-125968095D01*
X153296904Y-125920476D01*
X153106428Y-125872857D01*
X152868333Y-125872857D01*
X152677857Y-125920476D01*
X152582619Y-125968095D01*
X152535000Y-126015714D01*
X152487380Y-126110952D01*
X150693380Y-125182380D02*
X150217190Y-124849047D01*
X150693380Y-124610952D02*
X149693380Y-124610952D01*
X149693380Y-124991904D01*
X149741000Y-125087142D01*
X149788619Y-125134761D01*
X149883857Y-125182380D01*
X150026714Y-125182380D01*
X150121952Y-125134761D01*
X150169571Y-125087142D01*
X150217190Y-124991904D01*
X150217190Y-124610952D01*
X150645761Y-125563333D02*
X150693380Y-125706190D01*
X150693380Y-125944285D01*
X150645761Y-126039523D01*
X150598142Y-126087142D01*
X150502904Y-126134761D01*
X150407666Y-126134761D01*
X150312428Y-126087142D01*
X150264809Y-126039523D01*
X150217190Y-125944285D01*
X150169571Y-125753809D01*
X150121952Y-125658571D01*
X150074333Y-125610952D01*
X149979095Y-125563333D01*
X149883857Y-125563333D01*
X149788619Y-125610952D01*
X149741000Y-125658571D01*
X149693380Y-125753809D01*
X149693380Y-125991904D01*
X149741000Y-126134761D01*
X149693380Y-126420476D02*
X149693380Y-126991904D01*
X150693380Y-126706190D02*
X149693380Y-126706190D01*
X160980380Y-124991904D02*
X159980380Y-124991904D01*
X159980380Y-125230000D01*
X160028000Y-125372857D01*
X160123238Y-125468095D01*
X160218476Y-125515714D01*
X160408952Y-125563333D01*
X160551809Y-125563333D01*
X160742285Y-125515714D01*
X160837523Y-125468095D01*
X160932761Y-125372857D01*
X160980380Y-125230000D01*
X160980380Y-124991904D01*
X159980380Y-126420476D02*
X159980380Y-126230000D01*
X160028000Y-126134761D01*
X160075619Y-126087142D01*
X160218476Y-125991904D01*
X160408952Y-125944285D01*
X160789904Y-125944285D01*
X160885142Y-125991904D01*
X160932761Y-126039523D01*
X160980380Y-126134761D01*
X160980380Y-126325238D01*
X160932761Y-126420476D01*
X160885142Y-126468095D01*
X160789904Y-126515714D01*
X160551809Y-126515714D01*
X160456571Y-126468095D01*
X160408952Y-126420476D01*
X160361333Y-126325238D01*
X160361333Y-126134761D01*
X160408952Y-126039523D01*
X160456571Y-125991904D01*
X160551809Y-125944285D01*
X166060380Y-124991904D02*
X165060380Y-124991904D01*
X165060380Y-125230000D01*
X165108000Y-125372857D01*
X165203238Y-125468095D01*
X165298476Y-125515714D01*
X165488952Y-125563333D01*
X165631809Y-125563333D01*
X165822285Y-125515714D01*
X165917523Y-125468095D01*
X166012761Y-125372857D01*
X166060380Y-125230000D01*
X166060380Y-124991904D01*
X165488952Y-126134761D02*
X165441333Y-126039523D01*
X165393714Y-125991904D01*
X165298476Y-125944285D01*
X165250857Y-125944285D01*
X165155619Y-125991904D01*
X165108000Y-126039523D01*
X165060380Y-126134761D01*
X165060380Y-126325238D01*
X165108000Y-126420476D01*
X165155619Y-126468095D01*
X165250857Y-126515714D01*
X165298476Y-126515714D01*
X165393714Y-126468095D01*
X165441333Y-126420476D01*
X165488952Y-126325238D01*
X165488952Y-126134761D01*
X165536571Y-126039523D01*
X165584190Y-125991904D01*
X165679428Y-125944285D01*
X165869904Y-125944285D01*
X165965142Y-125991904D01*
X166012761Y-126039523D01*
X166060380Y-126134761D01*
X166060380Y-126325238D01*
X166012761Y-126420476D01*
X165965142Y-126468095D01*
X165869904Y-126515714D01*
X165679428Y-126515714D01*
X165584190Y-126468095D01*
X165536571Y-126420476D01*
X165488952Y-126325238D01*
D11*
%TO.C,U8*%
X106335000Y-124606000D02*
X100325000Y-124606000D01*
X104085000Y-131426000D02*
X100325000Y-131426000D01*
X100325000Y-124606000D02*
X100325000Y-125866000D01*
X100325000Y-131426000D02*
X100325000Y-130166000D01*
%TO.C,C7*%
X104655252Y-123290000D02*
X104132748Y-123290000D01*
X104655252Y-121820000D02*
X104132748Y-121820000D01*
%TO.C,C8*%
X100591252Y-121820000D02*
X100068748Y-121820000D01*
X100591252Y-123290000D02*
X100068748Y-123290000D01*
%TO.C,U8*%
X106335000Y-96158000D02*
X100325000Y-96158000D01*
X104085000Y-102978000D02*
X100325000Y-102978000D01*
X100325000Y-96158000D02*
X100325000Y-97418000D01*
X100325000Y-102978000D02*
X100325000Y-101718000D01*
%TO.C,C7*%
X104655252Y-94842000D02*
X104132748Y-94842000D01*
X104655252Y-93372000D02*
X104132748Y-93372000D01*
%TO.C,C8*%
X100591252Y-93372000D02*
X100068748Y-93372000D01*
X100591252Y-94842000D02*
X100068748Y-94842000D01*
%TO.C,U8*%
X109709000Y-76490000D02*
X109709000Y-70480000D01*
X102889000Y-74240000D02*
X102889000Y-70480000D01*
X109709000Y-70480000D02*
X108449000Y-70480000D01*
X102889000Y-70480000D02*
X104149000Y-70480000D01*
%TO.C,C7*%
X111025000Y-74810252D02*
X111025000Y-74287748D01*
X112495000Y-74810252D02*
X112495000Y-74287748D01*
%TO.C,C8*%
X112495000Y-70746252D02*
X112495000Y-70223748D01*
X111025000Y-70746252D02*
X111025000Y-70223748D01*
%TO.C,J5*%
X129487000Y-120125000D02*
X129487000Y-107725000D01*
X129487000Y-107725000D02*
X124017000Y-107725000D01*
X116087000Y-107725000D02*
X120557000Y-107725000D01*
X116087000Y-107725000D02*
X116087000Y-120125000D01*
X116087000Y-120125000D02*
X120557000Y-120125000D01*
X124017000Y-120125000D02*
X129487000Y-120125000D01*
X124087000Y-107115000D02*
X124587000Y-107615000D01*
X124587000Y-107615000D02*
X125087000Y-107115000D01*
X125087000Y-107115000D02*
X124087000Y-107115000D01*
%TO.C,U4*%
X160710000Y-44514000D02*
X160710000Y-42814000D01*
X164410000Y-52514000D02*
X164560000Y-52514000D01*
X164560000Y-52514000D02*
X164560000Y-44514000D01*
X164560000Y-44514000D02*
X164410000Y-44514000D01*
X160710000Y-44514000D02*
X160560000Y-44514000D01*
X160560000Y-44514000D02*
X160560000Y-52514000D01*
X160560000Y-52514000D02*
X160710000Y-52514000D01*
%TO.C,D3*%
X161924000Y-63344000D02*
X158624000Y-63344000D01*
X158624000Y-63344000D02*
X158624000Y-57944000D01*
X161924000Y-63344000D02*
X161924000Y-57944000D01*
%TO.C,D4*%
X146938000Y-63217000D02*
X146938000Y-57817000D01*
X143638000Y-63217000D02*
X143638000Y-57817000D01*
X146938000Y-63217000D02*
X143638000Y-63217000D01*
%TO.C,U3*%
X140494000Y-52641000D02*
X140644000Y-52641000D01*
X140494000Y-44641000D02*
X140494000Y-52641000D01*
X140644000Y-44641000D02*
X140494000Y-44641000D01*
X144494000Y-44641000D02*
X144344000Y-44641000D01*
X144494000Y-52641000D02*
X144494000Y-44641000D01*
X144344000Y-52641000D02*
X144494000Y-52641000D01*
X140644000Y-44641000D02*
X140644000Y-42941000D01*
%TO.C,C7*%
X111025000Y-52712252D02*
X111025000Y-52189748D01*
X112495000Y-52712252D02*
X112495000Y-52189748D01*
%TO.C,C8*%
X112495000Y-48648252D02*
X112495000Y-48125748D01*
X111025000Y-48648252D02*
X111025000Y-48125748D01*
%TO.C,U8*%
X109709000Y-54392000D02*
X109709000Y-48382000D01*
X102889000Y-52142000D02*
X102889000Y-48382000D01*
X109709000Y-48382000D02*
X108449000Y-48382000D01*
X102889000Y-48382000D02*
X104149000Y-48382000D01*
%TD*%
%TO.C,U8*%
D10*
X102996904Y-122968380D02*
X102996904Y-123777904D01*
X102949285Y-123873142D01*
X102901666Y-123920761D01*
X102806428Y-123968380D01*
X102615952Y-123968380D01*
X102520714Y-123920761D01*
X102473095Y-123873142D01*
X102425476Y-123777904D01*
X102425476Y-122968380D01*
X101806428Y-123396952D02*
X101901666Y-123349333D01*
X101949285Y-123301714D01*
X101996904Y-123206476D01*
X101996904Y-123158857D01*
X101949285Y-123063619D01*
X101901666Y-123016000D01*
X101806428Y-122968380D01*
X101615952Y-122968380D01*
X101520714Y-123016000D01*
X101473095Y-123063619D01*
X101425476Y-123158857D01*
X101425476Y-123206476D01*
X101473095Y-123301714D01*
X101520714Y-123349333D01*
X101615952Y-123396952D01*
X101806428Y-123396952D01*
X101901666Y-123444571D01*
X101949285Y-123492190D01*
X101996904Y-123587428D01*
X101996904Y-123777904D01*
X101949285Y-123873142D01*
X101901666Y-123920761D01*
X101806428Y-123968380D01*
X101615952Y-123968380D01*
X101520714Y-123920761D01*
X101473095Y-123873142D01*
X101425476Y-123777904D01*
X101425476Y-123587428D01*
X101473095Y-123492190D01*
X101520714Y-123444571D01*
X101615952Y-123396952D01*
%TO.C,C7*%
X104560666Y-121232142D02*
X104608285Y-121279761D01*
X104751142Y-121327380D01*
X104846380Y-121327380D01*
X104989238Y-121279761D01*
X105084476Y-121184523D01*
X105132095Y-121089285D01*
X105179714Y-120898809D01*
X105179714Y-120755952D01*
X105132095Y-120565476D01*
X105084476Y-120470238D01*
X104989238Y-120375000D01*
X104846380Y-120327380D01*
X104751142Y-120327380D01*
X104608285Y-120375000D01*
X104560666Y-120422619D01*
X104227333Y-120327380D02*
X103560666Y-120327380D01*
X103989238Y-121327380D01*
%TO.C,C8*%
X100496666Y-121232142D02*
X100544285Y-121279761D01*
X100687142Y-121327380D01*
X100782380Y-121327380D01*
X100925238Y-121279761D01*
X101020476Y-121184523D01*
X101068095Y-121089285D01*
X101115714Y-120898809D01*
X101115714Y-120755952D01*
X101068095Y-120565476D01*
X101020476Y-120470238D01*
X100925238Y-120375000D01*
X100782380Y-120327380D01*
X100687142Y-120327380D01*
X100544285Y-120375000D01*
X100496666Y-120422619D01*
X99925238Y-120755952D02*
X100020476Y-120708333D01*
X100068095Y-120660714D01*
X100115714Y-120565476D01*
X100115714Y-120517857D01*
X100068095Y-120422619D01*
X100020476Y-120375000D01*
X99925238Y-120327380D01*
X99734761Y-120327380D01*
X99639523Y-120375000D01*
X99591904Y-120422619D01*
X99544285Y-120517857D01*
X99544285Y-120565476D01*
X99591904Y-120660714D01*
X99639523Y-120708333D01*
X99734761Y-120755952D01*
X99925238Y-120755952D01*
X100020476Y-120803571D01*
X100068095Y-120851190D01*
X100115714Y-120946428D01*
X100115714Y-121136904D01*
X100068095Y-121232142D01*
X100020476Y-121279761D01*
X99925238Y-121327380D01*
X99734761Y-121327380D01*
X99639523Y-121279761D01*
X99591904Y-121232142D01*
X99544285Y-121136904D01*
X99544285Y-120946428D01*
X99591904Y-120851190D01*
X99639523Y-120803571D01*
X99734761Y-120755952D01*
%TO.C,U8*%
X102996904Y-94520380D02*
X102996904Y-95329904D01*
X102949285Y-95425142D01*
X102901666Y-95472761D01*
X102806428Y-95520380D01*
X102615952Y-95520380D01*
X102520714Y-95472761D01*
X102473095Y-95425142D01*
X102425476Y-95329904D01*
X102425476Y-94520380D01*
X101806428Y-94948952D02*
X101901666Y-94901333D01*
X101949285Y-94853714D01*
X101996904Y-94758476D01*
X101996904Y-94710857D01*
X101949285Y-94615619D01*
X101901666Y-94568000D01*
X101806428Y-94520380D01*
X101615952Y-94520380D01*
X101520714Y-94568000D01*
X101473095Y-94615619D01*
X101425476Y-94710857D01*
X101425476Y-94758476D01*
X101473095Y-94853714D01*
X101520714Y-94901333D01*
X101615952Y-94948952D01*
X101806428Y-94948952D01*
X101901666Y-94996571D01*
X101949285Y-95044190D01*
X101996904Y-95139428D01*
X101996904Y-95329904D01*
X101949285Y-95425142D01*
X101901666Y-95472761D01*
X101806428Y-95520380D01*
X101615952Y-95520380D01*
X101520714Y-95472761D01*
X101473095Y-95425142D01*
X101425476Y-95329904D01*
X101425476Y-95139428D01*
X101473095Y-95044190D01*
X101520714Y-94996571D01*
X101615952Y-94948952D01*
%TO.C,C7*%
X104560666Y-92784142D02*
X104608285Y-92831761D01*
X104751142Y-92879380D01*
X104846380Y-92879380D01*
X104989238Y-92831761D01*
X105084476Y-92736523D01*
X105132095Y-92641285D01*
X105179714Y-92450809D01*
X105179714Y-92307952D01*
X105132095Y-92117476D01*
X105084476Y-92022238D01*
X104989238Y-91927000D01*
X104846380Y-91879380D01*
X104751142Y-91879380D01*
X104608285Y-91927000D01*
X104560666Y-91974619D01*
X104227333Y-91879380D02*
X103560666Y-91879380D01*
X103989238Y-92879380D01*
%TO.C,C8*%
X100496666Y-92784142D02*
X100544285Y-92831761D01*
X100687142Y-92879380D01*
X100782380Y-92879380D01*
X100925238Y-92831761D01*
X101020476Y-92736523D01*
X101068095Y-92641285D01*
X101115714Y-92450809D01*
X101115714Y-92307952D01*
X101068095Y-92117476D01*
X101020476Y-92022238D01*
X100925238Y-91927000D01*
X100782380Y-91879380D01*
X100687142Y-91879380D01*
X100544285Y-91927000D01*
X100496666Y-91974619D01*
X99925238Y-92307952D02*
X100020476Y-92260333D01*
X100068095Y-92212714D01*
X100115714Y-92117476D01*
X100115714Y-92069857D01*
X100068095Y-91974619D01*
X100020476Y-91927000D01*
X99925238Y-91879380D01*
X99734761Y-91879380D01*
X99639523Y-91927000D01*
X99591904Y-91974619D01*
X99544285Y-92069857D01*
X99544285Y-92117476D01*
X99591904Y-92212714D01*
X99639523Y-92260333D01*
X99734761Y-92307952D01*
X99925238Y-92307952D01*
X100020476Y-92355571D01*
X100068095Y-92403190D01*
X100115714Y-92498428D01*
X100115714Y-92688904D01*
X100068095Y-92784142D01*
X100020476Y-92831761D01*
X99925238Y-92879380D01*
X99734761Y-92879380D01*
X99639523Y-92831761D01*
X99591904Y-92784142D01*
X99544285Y-92688904D01*
X99544285Y-92498428D01*
X99591904Y-92403190D01*
X99639523Y-92355571D01*
X99734761Y-92307952D01*
%TO.C,U8*%
X110251380Y-71628095D02*
X111060904Y-71628095D01*
X111156142Y-71675714D01*
X111203761Y-71723333D01*
X111251380Y-71818571D01*
X111251380Y-72009047D01*
X111203761Y-72104285D01*
X111156142Y-72151904D01*
X111060904Y-72199523D01*
X110251380Y-72199523D01*
X110679952Y-72818571D02*
X110632333Y-72723333D01*
X110584714Y-72675714D01*
X110489476Y-72628095D01*
X110441857Y-72628095D01*
X110346619Y-72675714D01*
X110299000Y-72723333D01*
X110251380Y-72818571D01*
X110251380Y-73009047D01*
X110299000Y-73104285D01*
X110346619Y-73151904D01*
X110441857Y-73199523D01*
X110489476Y-73199523D01*
X110584714Y-73151904D01*
X110632333Y-73104285D01*
X110679952Y-73009047D01*
X110679952Y-72818571D01*
X110727571Y-72723333D01*
X110775190Y-72675714D01*
X110870428Y-72628095D01*
X111060904Y-72628095D01*
X111156142Y-72675714D01*
X111203761Y-72723333D01*
X111251380Y-72818571D01*
X111251380Y-73009047D01*
X111203761Y-73104285D01*
X111156142Y-73151904D01*
X111060904Y-73199523D01*
X110870428Y-73199523D01*
X110775190Y-73151904D01*
X110727571Y-73104285D01*
X110679952Y-73009047D01*
%TO.C,C7*%
X113797142Y-74382333D02*
X113844761Y-74334714D01*
X113892380Y-74191857D01*
X113892380Y-74096619D01*
X113844761Y-73953761D01*
X113749523Y-73858523D01*
X113654285Y-73810904D01*
X113463809Y-73763285D01*
X113320952Y-73763285D01*
X113130476Y-73810904D01*
X113035238Y-73858523D01*
X112940000Y-73953761D01*
X112892380Y-74096619D01*
X112892380Y-74191857D01*
X112940000Y-74334714D01*
X112987619Y-74382333D01*
X112892380Y-74715666D02*
X112892380Y-75382333D01*
X113892380Y-74953761D01*
%TO.C,C8*%
X113797142Y-70318333D02*
X113844761Y-70270714D01*
X113892380Y-70127857D01*
X113892380Y-70032619D01*
X113844761Y-69889761D01*
X113749523Y-69794523D01*
X113654285Y-69746904D01*
X113463809Y-69699285D01*
X113320952Y-69699285D01*
X113130476Y-69746904D01*
X113035238Y-69794523D01*
X112940000Y-69889761D01*
X112892380Y-70032619D01*
X112892380Y-70127857D01*
X112940000Y-70270714D01*
X112987619Y-70318333D01*
X113320952Y-70889761D02*
X113273333Y-70794523D01*
X113225714Y-70746904D01*
X113130476Y-70699285D01*
X113082857Y-70699285D01*
X112987619Y-70746904D01*
X112940000Y-70794523D01*
X112892380Y-70889761D01*
X112892380Y-71080238D01*
X112940000Y-71175476D01*
X112987619Y-71223095D01*
X113082857Y-71270714D01*
X113130476Y-71270714D01*
X113225714Y-71223095D01*
X113273333Y-71175476D01*
X113320952Y-71080238D01*
X113320952Y-70889761D01*
X113368571Y-70794523D01*
X113416190Y-70746904D01*
X113511428Y-70699285D01*
X113701904Y-70699285D01*
X113797142Y-70746904D01*
X113844761Y-70794523D01*
X113892380Y-70889761D01*
X113892380Y-71080238D01*
X113844761Y-71175476D01*
X113797142Y-71223095D01*
X113701904Y-71270714D01*
X113511428Y-71270714D01*
X113416190Y-71223095D01*
X113368571Y-71175476D01*
X113320952Y-71080238D01*
%TO.C,J5*%
X124928380Y-121459666D02*
X125642666Y-121459666D01*
X125785523Y-121412047D01*
X125880761Y-121316809D01*
X125928380Y-121173952D01*
X125928380Y-121078714D01*
X124928380Y-122412047D02*
X124928380Y-121935857D01*
X125404571Y-121888238D01*
X125356952Y-121935857D01*
X125309333Y-122031095D01*
X125309333Y-122269190D01*
X125356952Y-122364428D01*
X125404571Y-122412047D01*
X125499809Y-122459666D01*
X125737904Y-122459666D01*
X125833142Y-122412047D01*
X125880761Y-122364428D01*
X125928380Y-122269190D01*
X125928380Y-122031095D01*
X125880761Y-121935857D01*
X125833142Y-121888238D01*
%TO.C,U4*%
X164755580Y-47752095D02*
X165565104Y-47752095D01*
X165660342Y-47799714D01*
X165707961Y-47847333D01*
X165755580Y-47942571D01*
X165755580Y-48133047D01*
X165707961Y-48228285D01*
X165660342Y-48275904D01*
X165565104Y-48323523D01*
X164755580Y-48323523D01*
X165088914Y-49228285D02*
X165755580Y-49228285D01*
X164707961Y-48990190D02*
X165422247Y-48752095D01*
X165422247Y-49371142D01*
%TO.C,D3*%
X163226380Y-59205904D02*
X162226380Y-59205904D01*
X162226380Y-59444000D01*
X162274000Y-59586857D01*
X162369238Y-59682095D01*
X162464476Y-59729714D01*
X162654952Y-59777333D01*
X162797809Y-59777333D01*
X162988285Y-59729714D01*
X163083523Y-59682095D01*
X163178761Y-59586857D01*
X163226380Y-59444000D01*
X163226380Y-59205904D01*
X162226380Y-60110666D02*
X162226380Y-60729714D01*
X162607333Y-60396380D01*
X162607333Y-60539238D01*
X162654952Y-60634476D01*
X162702571Y-60682095D01*
X162797809Y-60729714D01*
X163035904Y-60729714D01*
X163131142Y-60682095D01*
X163178761Y-60634476D01*
X163226380Y-60539238D01*
X163226380Y-60253523D01*
X163178761Y-60158285D01*
X163131142Y-60110666D01*
%TO.C,D4*%
X147335619Y-60555095D02*
X148335619Y-60555095D01*
X148335619Y-60317000D01*
X148288000Y-60174142D01*
X148192761Y-60078904D01*
X148097523Y-60031285D01*
X147907047Y-59983666D01*
X147764190Y-59983666D01*
X147573714Y-60031285D01*
X147478476Y-60078904D01*
X147383238Y-60174142D01*
X147335619Y-60317000D01*
X147335619Y-60555095D01*
X148002285Y-59126523D02*
X147335619Y-59126523D01*
X148383238Y-59364619D02*
X147668952Y-59602714D01*
X147668952Y-58983666D01*
%TO.C,U3*%
X139246380Y-47879095D02*
X140055904Y-47879095D01*
X140151142Y-47926714D01*
X140198761Y-47974333D01*
X140246380Y-48069571D01*
X140246380Y-48260047D01*
X140198761Y-48355285D01*
X140151142Y-48402904D01*
X140055904Y-48450523D01*
X139246380Y-48450523D01*
X139246380Y-48831476D02*
X139246380Y-49450523D01*
X139627333Y-49117190D01*
X139627333Y-49260047D01*
X139674952Y-49355285D01*
X139722571Y-49402904D01*
X139817809Y-49450523D01*
X140055904Y-49450523D01*
X140151142Y-49402904D01*
X140198761Y-49355285D01*
X140246380Y-49260047D01*
X140246380Y-48974333D01*
X140198761Y-48879095D01*
X140151142Y-48831476D01*
%TO.C,C7*%
X113797142Y-52284333D02*
X113844761Y-52236714D01*
X113892380Y-52093857D01*
X113892380Y-51998619D01*
X113844761Y-51855761D01*
X113749523Y-51760523D01*
X113654285Y-51712904D01*
X113463809Y-51665285D01*
X113320952Y-51665285D01*
X113130476Y-51712904D01*
X113035238Y-51760523D01*
X112940000Y-51855761D01*
X112892380Y-51998619D01*
X112892380Y-52093857D01*
X112940000Y-52236714D01*
X112987619Y-52284333D01*
X112892380Y-52617666D02*
X112892380Y-53284333D01*
X113892380Y-52855761D01*
%TO.C,C8*%
X113797142Y-48220333D02*
X113844761Y-48172714D01*
X113892380Y-48029857D01*
X113892380Y-47934619D01*
X113844761Y-47791761D01*
X113749523Y-47696523D01*
X113654285Y-47648904D01*
X113463809Y-47601285D01*
X113320952Y-47601285D01*
X113130476Y-47648904D01*
X113035238Y-47696523D01*
X112940000Y-47791761D01*
X112892380Y-47934619D01*
X112892380Y-48029857D01*
X112940000Y-48172714D01*
X112987619Y-48220333D01*
X113320952Y-48791761D02*
X113273333Y-48696523D01*
X113225714Y-48648904D01*
X113130476Y-48601285D01*
X113082857Y-48601285D01*
X112987619Y-48648904D01*
X112940000Y-48696523D01*
X112892380Y-48791761D01*
X112892380Y-48982238D01*
X112940000Y-49077476D01*
X112987619Y-49125095D01*
X113082857Y-49172714D01*
X113130476Y-49172714D01*
X113225714Y-49125095D01*
X113273333Y-49077476D01*
X113320952Y-48982238D01*
X113320952Y-48791761D01*
X113368571Y-48696523D01*
X113416190Y-48648904D01*
X113511428Y-48601285D01*
X113701904Y-48601285D01*
X113797142Y-48648904D01*
X113844761Y-48696523D01*
X113892380Y-48791761D01*
X113892380Y-48982238D01*
X113844761Y-49077476D01*
X113797142Y-49125095D01*
X113701904Y-49172714D01*
X113511428Y-49172714D01*
X113416190Y-49125095D01*
X113368571Y-49077476D01*
X113320952Y-48982238D01*
%TO.C,U8*%
X110251380Y-49530095D02*
X111060904Y-49530095D01*
X111156142Y-49577714D01*
X111203761Y-49625333D01*
X111251380Y-49720571D01*
X111251380Y-49911047D01*
X111203761Y-50006285D01*
X111156142Y-50053904D01*
X111060904Y-50101523D01*
X110251380Y-50101523D01*
X110679952Y-50720571D02*
X110632333Y-50625333D01*
X110584714Y-50577714D01*
X110489476Y-50530095D01*
X110441857Y-50530095D01*
X110346619Y-50577714D01*
X110299000Y-50625333D01*
X110251380Y-50720571D01*
X110251380Y-50911047D01*
X110299000Y-51006285D01*
X110346619Y-51053904D01*
X110441857Y-51101523D01*
X110489476Y-51101523D01*
X110584714Y-51053904D01*
X110632333Y-51006285D01*
X110679952Y-50911047D01*
X110679952Y-50720571D01*
X110727571Y-50625333D01*
X110775190Y-50577714D01*
X110870428Y-50530095D01*
X111060904Y-50530095D01*
X111156142Y-50577714D01*
X111203761Y-50625333D01*
X111251380Y-50720571D01*
X111251380Y-50911047D01*
X111203761Y-51006285D01*
X111156142Y-51053904D01*
X111060904Y-51101523D01*
X110870428Y-51101523D01*
X110775190Y-51053904D01*
X110727571Y-51006285D01*
X110679952Y-50911047D01*
%TD*%
M02*
