M48
; DRILL file {KiCad (5.1.7)-1} date 02/24/21 10:58:38
; FORMAT={-:-/ absolute / inch / decimal}
; #@! TF.CreationDate,2021-02-24T10:58:38+01:00
; #@! TF.GenerationSoftware,Kicad,Pcbnew,(5.1.7)-1
; #@! TF.FileFunction,Plated,1,2,PTH
FMAT,2
INCH
T1C0.0157
T2C0.0197
T3C0.0217
T4C0.0354
T5C0.0394
T6C0.0512
T7C0.0591
%
G90
G05
T1
X3.855Y-4.095
X3.855Y-5.215
X4.005Y-2.14
X4.005Y-3.01
X4.01Y-1.81
X4.01Y-2.68
X4.02Y-1.995
X4.02Y-2.865
X4.04Y-4.085
X4.04Y-5.205
X4.055Y-3.885
X4.055Y-5.005
X4.185Y-4.1
X4.185Y-5.22
X4.195Y-2.19
X4.195Y-3.06
X4.22Y-2.01
X4.22Y-2.88
X4.235Y-3.91
X4.235Y-5.03
X4.285Y-3.6
X4.285Y-4.72
X4.505Y-2.24
X4.505Y-3.11
X5.195Y-5.415
X5.195Y-5.455
X5.24Y-5.415
X5.24Y-5.455
X5.39Y-4.33
X5.39Y-4.79
X5.47Y-1.72
X5.61Y-4.39
X5.635Y-4.145
X5.695Y-4.095
X5.77Y-1.965
X5.915Y-3.965
X6.0Y-4.78
X6.23Y-4.03
X6.275Y-1.81
X6.285Y-1.72
X6.47Y-5.25
X6.52Y-1.78
X6.575Y-5.465
X6.655Y-5.29
X6.73Y-4.16
X6.73Y-4.2
X6.73Y-4.24
X6.73Y-4.285
X6.735Y-4.54
X6.735Y-4.6
X6.76Y-3.86
X6.76Y-3.9
X6.8Y-3.86
X6.8Y-3.9
X6.85Y-5.4
X6.85Y-5.44
X6.89Y-5.4
X6.89Y-5.44
X6.915Y-4.6
X6.94Y-4.555
X6.955Y-4.43
T4
X4.905Y-4.425
X4.905Y-4.5053
X5.005Y-4.4652
X5.005Y-4.5455
X5.26Y-4.21
X5.36Y-4.21
X5.255Y-4.67
X5.355Y-4.67
X4.795Y-5.165
X4.795Y-5.2437
X4.795Y-5.3225
T5
X3.78Y-4.325
X3.88Y-4.325
X3.98Y-4.325
X4.08Y-4.325
X4.18Y-4.325
X4.28Y-4.325
X4.38Y-4.325
X5.87Y-1.885
X5.97Y-1.885
X6.07Y-1.885
X6.17Y-1.885
X3.78Y-2.605
X3.78Y-2.705
X3.78Y-2.805
X3.78Y-2.905
X3.78Y-3.005
X3.78Y-3.105
X3.78Y-3.205
X5.915Y-5.09
X6.015Y-5.09
X6.115Y-5.09
X6.215Y-5.09
X6.315Y-5.09
X6.415Y-5.09
X6.515Y-5.09
X6.615Y-5.09
X5.915Y-4.19
X6.015Y-4.19
X6.115Y-4.19
X6.215Y-4.19
X6.315Y-4.19
X6.415Y-4.19
X6.515Y-4.19
X6.615Y-4.19
X3.78Y-5.445
X3.88Y-5.445
X3.98Y-5.445
X4.08Y-5.445
X4.18Y-5.445
X4.28Y-5.445
X4.38Y-5.445
X4.87Y-3.945
X4.97Y-3.945
X5.07Y-3.945
X3.78Y-1.735
X3.78Y-1.835
X3.78Y-1.935
X3.78Y-2.035
X3.78Y-2.135
X3.78Y-2.235
X3.78Y-2.335
X5.54Y-4.495
X5.54Y-4.595
X5.54Y-4.695
X5.54Y-4.795
X4.87Y-4.045
X4.97Y-4.045
X5.07Y-4.045
X5.6163Y-3.5387
X5.8131Y-2.7513
X6.2069Y-2.7513
X6.4037Y-3.5387
T6
X6.845Y-2.84
X7.045Y-2.84
X4.995Y-2.84
X5.195Y-2.84
T7
X6.14Y-2.1397
X6.14Y-2.435
X6.7306Y-2.1397
X6.7306Y-2.435
X6.9274Y-2.1397
X6.9274Y-2.435
X7.1243Y-2.1397
X7.1243Y-2.435
X4.795Y-5.0823
X4.795Y-5.4052
X4.9007Y-2.145
X4.9007Y-2.4403
X5.0976Y-2.145
X5.0976Y-2.4403
X5.2944Y-2.145
X5.2944Y-2.4403
X5.885Y-2.145
X5.885Y-2.4403
T2
G00X4.6084Y-1.8722
M15
G01X4.634Y-1.8722
M16
G05
G00X4.6084Y-2.1478
M15
G01X4.634Y-2.1478
M16
G05
G00X3.9172Y-3.4966
M15
G01X3.9172Y-3.471
M16
G05
G00X4.1928Y-3.4966
M15
G01X4.1928Y-3.471
M16
G05
G00X4.6084Y-2.7422
M15
G01X4.634Y-2.7422
M16
G05
G00X4.6084Y-3.0178
M15
G01X4.634Y-3.0178
M16
G05
G00X3.9172Y-4.6166
M15
G01X3.9172Y-4.591
M16
G05
G00X4.1928Y-4.6166
M15
G01X4.1928Y-4.591
M16
G05
T3
G00X3.9625Y-3.5901
M15
G01X3.9507Y-3.5901
M16
G05
G00X4.1593Y-3.5901
M15
G01X4.1475Y-3.5901
M16
G05
G00X3.9625Y-4.7101
M15
G01X3.9507Y-4.7101
M16
G05
G00X4.1593Y-4.7101
M15
G01X4.1475Y-4.7101
M16
G05
G00X4.5149Y-1.9175
M15
G01X4.5149Y-1.9057
M16
G05
G00X4.5149Y-2.1143
M15
G01X4.5149Y-2.1025
M16
G05
G00X4.5149Y-2.7875
M15
G01X4.5149Y-2.7757
M16
G05
G00X4.5149Y-2.9843
M15
G01X4.5149Y-2.9725
M16
G05
T0
M30
